<svg xmlns="http://www.w3.org/2000/svg" xmlns:xlink="http://www.w3.org/1999/xlink" fill="none" version="1.1" width="400.00006103515625" height="150" viewBox="0 0 400.00006103515625 150"><defs><clipPath id="master_svg0_17_24"><rect x="0" y="0" width="400" height="150" rx="0"/></clipPath><linearGradient x1="0.5" y1="1" x2="0.5" y2="0" id="master_svg1_17_85"><stop offset="0%" stop-color="#04AAEB" stop-opacity="1"/><stop offset="100%" stop-color="#C8C8C8" stop-opacity="1"/></linearGradient><linearGradient x1="0.5" y1="1" x2="0.5" y2="0" id="master_svg2_17_96"><stop offset="0%" stop-color="#969696" stop-opacity="1"/><stop offset="100%" stop-color="#AFAFAF" stop-opacity="1"/></linearGradient><linearGradient x1="146.59405517578125" y1="117.75244045257568" x2="373.99998474121094" y2="117.75244045257568" gradientUnits="userSpaceOnUse" id="master_svg3_17_79"><stop offset="0%" stop-color="#04AAEB" stop-opacity="1"/><stop offset="100%" stop-color="#969696" stop-opacity="1"/></linearGradient></defs><g><g clip-path="url(#master_svg0_17_24)"><rect x="0" y="0" width="400" height="150" rx="0" fill="#FFFFFF" fill-opacity="1"/><g><g><g><g><g><path d="M146.59405517578125,74.68318211364746Q146.59405517578125,73.83728211364746,146.63555827578125,72.99248211364747Q146.67706137578125,72.14768211364746,146.75996717578124,71.30588211364746Q146.84287417578125,70.46418211364747,146.96698317578125,69.62748211364746Q147.09109317578125,68.79078211364745,147.25610717578124,67.96118211364745Q147.42112117578125,67.13158211364745,147.62664517578125,66.31118211364746Q147.83216517578126,65.49068211364747,148.07769517578126,64.68128211364746Q148.32322517578126,63.87178211364746,148.60818517578124,63.07548211364746Q148.89313517578125,62.27908211364746,149.21681517578125,61.49758211364746Q149.54050517578125,60.71618211364746,149.90214517578124,59.95148211364746Q150.26378517578124,59.18688211364746,150.66251517578124,58.440982113647465Q151.06123517578126,57.69498211364746,151.49607517578124,56.96948211364746Q151.93092517578125,56.24398211364746,152.40084517578126,55.54068211364746Q152.87076517578126,54.837382113647465,153.37462517578126,54.15808211364746Q153.87848517578124,53.47868211364746,154.41508517578126,52.82478211364746Q154.95167517578125,52.17098211364746,155.51969517578124,51.54428211364746Q156.08772517578126,50.91758211364746,156.68585517578126,50.31948211364746Q157.28395517578124,49.72135211364746,157.91065517578124,49.15332211364746Q158.53735517578124,48.58530211364746,159.19115517578126,48.04871211364746Q159.84505517578125,47.512122113647465,160.52445517578124,47.00825211364746Q161.20375517578125,46.50439211364746,161.90705517578124,46.03447211364746Q162.61035517578125,45.56455211364746,163.33585517578126,45.12970211364746Q164.06135517578124,44.69486211364746,164.80735517578125,44.29614211364746Q165.55325517578126,43.89741211364746,166.31785517578126,43.53577211364746Q167.08255517578124,43.17413211364746,167.86395517578126,42.85044211364746Q168.64545517578125,42.526762113647465,169.44185517578126,42.24181211364746Q170.23815517578126,41.956852113647464,171.04765517578124,41.71132211364746Q171.85705517578126,41.46579211364746,172.67755517578127,41.26027211364746Q173.49795517578124,41.05474811364746,174.32755517578124,40.889734113647464Q175.15715517578124,40.724720113647464,175.99385517578125,40.60061011364746Q176.83055517578126,40.47650111364746,177.67225517578126,40.39359411364746Q178.51405517578127,40.31068831364746,179.35885517578126,40.26918521364746Q180.20365517578125,40.22768211364746,181.04945517578125,40.22768211364746L181.04945517578125,57.45548211364746Q180.62655517578125,57.45548211364746,180.20415517578124,57.47618211364746Q179.78175517578126,57.49698211364746,179.36085517578124,57.53838211364746Q178.94005517578125,57.57988211364746,178.52165517578126,57.64188211364746Q178.10335517578125,57.703982113647456,177.68855517578126,57.786482113647466Q177.27375517578125,57.86898211364746,176.86355517578124,57.971782113647464Q176.45325517578124,58.07448211364746,176.04855517578125,58.19728211364746Q175.64385517578125,58.32008211364746,175.24565517578125,58.46248211364746Q174.84745517578125,58.604982113647466,174.45675517578124,58.76688211364746Q174.06605517578126,58.92868211364746,173.68375517578124,59.10948211364746Q173.30145517578126,59.290282113647464,172.92845517578124,59.48968211364746Q172.55545517578125,59.68908211364746,172.19265517578125,59.906482113647456Q171.82995517578127,60.12388211364746,171.47835517578125,60.35888211364746Q171.12665517578125,60.593782113647464,170.78695517578126,60.84578211364746Q170.44725517578127,61.097682113647465,170.12035517578124,61.36598211364746Q169.79345517578125,61.63428211364746,169.48005517578125,61.918282113647464Q169.16675517578125,62.202282113647456,168.86765517578124,62.50128211364746Q168.56865517578126,62.80038211364746,168.28465517578124,63.11378211364746Q168.00065517578125,63.42708211364746,167.73235517578127,63.75398211364746Q167.46405517578125,64.08088211364746,167.21205517578124,64.42058211364747Q166.96015517578124,64.76028211364746,166.72515517578125,65.11198211364746Q166.49025517578124,65.46358211364746,166.27285517578125,65.82638211364747Q166.05535517578124,66.18908211364746,165.85605517578125,66.56208211364746Q165.65665517578125,66.93508211364747,165.47585517578125,67.31738211364745Q165.29505517578124,67.69968211364747,165.13315517578124,68.09038211364746Q164.97135517578124,68.48108211364746,164.82885517578126,68.87928211364746Q164.68635517578124,69.27748211364747,164.56365517578126,69.68218211364746Q164.44085517578125,70.08688211364746,164.33805517578125,70.49718211364745Q164.23535517578125,70.90738211364746,164.15285517578124,71.32218211364746Q164.07025517578126,71.73698211364746,164.00825517578124,72.15528211364746Q163.94615517578126,72.57368211364746,163.90475517578125,72.99448211364746Q163.86325517578126,73.41538211364747,163.84255517578126,73.83778211364746Q163.82175517578125,74.26018211364746,163.82175517578125,74.68308211364746L146.59405517578125,74.68318211364746Z" fill-rule="evenodd" fill="#04AAEB" fill-opacity="1"/></g></g><g><g><path d="M198.27720332641601,74.68314933776402L181.04950332641602,74.68314933776402Q181.04950332641602,75.52898270837402,181.09100642641602,76.37380170837402Q181.13250952641602,77.21861170837403,181.215415326416,78.06037170837402Q181.298322326416,78.90213170837403,181.42243132641602,79.73881170837403Q181.54654132641602,80.57549170837402,181.711555326416,81.40507170837402Q181.87656932641602,82.23465170837403,182.08209332641601,83.05514170837402Q182.28761332641602,83.87562170837403,182.53314332641602,84.68504170837403Q182.77867332641603,85.49444170837403,183.063623326416,86.29084170837402Q183.34858332641602,87.08724170837402,183.67226332641602,87.86864170837403Q183.99595332641601,88.65014170837402,184.357593326416,89.41474170837402Q184.719233326416,90.17934170837403,185.117963326416,90.92534170837402Q185.51668332641603,91.67134170837403,185.951523326416,92.39674170837402Q186.38637332641602,93.12224170837402,186.85629332641602,93.82554170837402Q187.32621332641602,94.52884170837402,187.83007332641603,95.20824170837402Q188.333933326416,95.88764170837402,188.87053332641602,96.54144170837402Q189.407123326416,97.19524170837403,189.975143326416,97.82204170837403Q190.54317332641602,98.44874170837403,191.14130332641602,99.04684170837402Q191.739403326416,99.64494170837402,192.366103326416,100.21294170837402Q192.992803326416,100.78094170837403,193.64660332641603,101.31754170837402Q194.30050332641602,101.85414170837402,194.979903326416,102.35804170837403Q195.65920332641602,102.86184170837402,196.362503326416,103.33184170837403Q197.06580332641602,103.80174170837402,197.79130332641603,104.23654170837402Q198.516803326416,104.67144170837402,199.26280332641602,105.07014170837402Q200.00870332641603,105.46884170837401,200.77330332641603,105.83054170837403Q201.538003326416,106.19214170837402,202.31940332641602,106.51584170837403Q203.10090332641602,106.83954170837401,203.89730332641602,107.12444170837402Q204.69360332641602,107.40944170837403,205.503103326416,107.65494170837403Q206.31250332641602,107.90044170837402,207.13300332641603,108.10604170837402Q207.953403326416,108.31154170837402,208.783003326416,108.47654170837401Q209.612603326416,108.64154170837402,210.44930332641601,108.76564170837403Q211.28600332641602,108.88974170837403,212.12770332641603,108.97264170837403Q212.96950332641603,109.05554170837402,213.81430332641602,109.09714170837402Q214.65910332641602,109.13864170837402,215.504903326416,109.13864170837402L215.504903326416,91.91084170837402Q215.08200332641601,91.91084170837402,214.659603326416,91.89004170837403Q214.23720332641602,91.86934170837402,213.816303326416,91.82784170837402Q213.39550332641602,91.78644170837403,212.97710332641603,91.72434170837403Q212.558803326416,91.66234170837402,212.14400332641603,91.57974170837403Q211.729203326416,91.49724170837402,211.319003326416,91.39454170837402Q210.908703326416,91.29174170837402,210.504003326416,91.16904170837402Q210.09930332641602,91.04624170837403,209.70110332641602,90.90374170837403Q209.30290332641601,90.76124170837403,208.912203326416,90.59944170837403Q208.52150332641602,90.43754170837403,208.139203326416,90.25674170837402Q207.75690332641602,90.07594170837402,207.383903326416,89.87664170837402Q207.010903326416,89.67724170837403,206.64810332641602,89.45984170837403Q206.28540332641603,89.24234170837403,205.933803326416,89.00744170837402Q205.58210332641602,88.77244170837402,205.24240332641602,88.52054170837403Q204.90270332641603,88.26864170837402,204.575803326416,88.00034170837402Q204.248903326416,87.73204170837403,203.935503326416,87.44804170837402Q203.622203326416,87.16404170837403,203.323103326416,86.86494170837402Q203.02410332641603,86.56594170837403,202.740103326416,86.25254170837403Q202.456103326416,85.93914170837402,202.18780332641603,85.61224170837403Q201.91950332641602,85.28534170837402,201.667503326416,84.94564170837403Q201.415603326416,84.60597170837403,201.18060332641602,84.25433170837402Q200.945703326416,83.90269170837402,200.728303326416,83.53994170837402Q200.510803326416,83.17719170837402,200.31150332641602,82.80422170837403Q200.11210332641602,82.43124170837402,199.931303326416,82.04893170837403Q199.750503326416,81.66662170837402,199.588603326416,81.27589170837402Q199.426803326416,80.88517170837402,199.28430332641602,80.48698170837402Q199.141803326416,80.08878170837403,199.01910332641603,79.68408170837402Q198.89630332641602,79.27937170837403,198.79350332641602,78.86913170837403Q198.69080332641602,78.45889170837403,198.608303326416,78.04410170837403Q198.52570332641602,77.62931170837402,198.463703326416,77.21097170837402Q198.40160332641602,76.79263170837402,198.360203326416,76.37176170837402Q198.31870332641603,75.95088170837403,198.29800332641602,75.52847170837403Q198.27720332641601,75.10606570837402,198.27720332641601,74.68314933776402Z" fill-rule="evenodd" fill="#04AAEB" fill-opacity="1"/></g></g><g><g><path d="M237.39132729492187,109.13858211364746L218.92672729492188,40.22768211364746L236.76242729492188,40.22768211364746L246.4674272949219,76.44728211364746L256.03842729492186,40.72806511364746L255.90432729492187,40.22768211364746L274.0081272949219,40.22768211364746L273.8741272949219,40.72806511364746L284.5929272949219,80.73138211364747L289.5428272949219,62.25808211364746L306.1812272949219,66.71638211364746L294.81422729492186,109.13858211364746L274.3689272949219,109.13858211364746L264.95622729492186,74.00998211364745L255.5435272949219,109.13858211364746L237.39132729492187,109.13858211364746Z" fill-rule="evenodd" fill="url(#master_svg1_17_85)" fill-opacity="1"/></g><g><ellipse cx="302.3088912963867" cy="48.84154510498047" rx="8.613861083984375" ry="8.613862991333008" fill="#969696" fill-opacity="1"/></g></g><g><g><ellipse cx="365.38600635528564" cy="48.84154510498047" rx="8.613862037658691" ry="8.613862991333008" fill="#969696" fill-opacity="1"/></g><g><path d="M318.87115478515625,40.22768211364746L336.0988547851563,40.22768211364746L336.0988547851563,66.23628211364746L348.6724547851563,53.66268211364746L360.85435478515626,65.84448211364746L344.1192547851563,82.57968211364746L370.67815478515627,109.13858211364746L346.3144547851563,109.13858211364746L336.0988547851563,98.92298211364746L336.0988547851563,109.13858211364746L318.87115478515625,109.13858211364746L318.87115478515625,40.22768211364746Z" fill-rule="evenodd" fill="url(#master_svg2_17_96)" fill-opacity="1"/></g></g></g><g><path d="M154.52651517578124,121.127578414917L153.62451517578126,121.127578414917L152.61251517578125,118.27857841491699L149.51051517578125,118.27857841491699L148.49851517578125,121.127578414917L147.59651517578126,121.127578414917L150.61051517578125,112.78957841491699L151.50151517578126,112.78957841491699L154.52651517578124,121.127578414917ZM151.02851517578125,114.032578414917L149.80751517578125,117.46457841491699L152.31551517578126,117.46457841491699L151.09451517578125,114.032578414917L151.02851517578125,114.032578414917ZM165.74655517578125,119.87357841491699Q165.30655517578126,120.53357841491699,164.58605517578124,120.907578414917Q163.86555517578125,121.28157841491699,162.97455517578126,121.28157841491699Q161.85255517578125,121.28157841491699,161.00555517578124,120.737078414917Q160.15855517578126,120.192578414917,159.69105517578126,119.20257841491699Q159.22355517578126,118.21257841491699,159.22355517578126,116.91457841491699Q159.22355517578126,115.63857841491699,159.69105517578126,114.67057841491699Q160.15855517578126,113.70257841491699,161.00555517578124,113.169078414917Q161.85255517578125,112.63557841491699,162.97455517578126,112.63557841491699Q163.84355517578126,112.63557841491699,164.58055517578126,113.00957841491699Q165.31755517578125,113.383578414917,165.74655517578125,114.043578414917L165.06455517578127,114.52757841491699Q164.72355517578126,114.032578414917,164.14055517578126,113.73557841491699Q163.55755517578126,113.43857841491699,162.96355517578124,113.43857841491699Q162.11655517578126,113.43857841491699,161.46755517578126,113.87307841491699Q160.81855517578126,114.30757841491699,160.46105517578124,115.09407841491699Q160.10355517578125,115.880578414917,160.10355517578125,116.91457841491699Q160.10355517578125,117.97057841491699,160.46105517578124,118.779078414917Q160.81855517578126,119.58757841491699,161.46755517578126,120.03307841491699Q162.11655517578126,120.478578414917,162.96355517578124,120.478578414917Q163.56855517578126,120.478578414917,164.12955517578126,120.181578414917Q164.69055517578124,119.88457841491699,165.06455517578127,119.36757841491699L165.74655517578125,119.87357841491699ZM169.42055517578126,121.28157841491699Q168.62855517578126,121.28157841491699,168.02905517578125,120.907578414917Q167.42955517578125,120.53357841491699,167.10505517578125,119.84057841491699Q166.78055517578125,119.14757841491699,166.78055517578125,118.223578414917Q166.78055517578125,117.299578414917,167.10505517578125,116.606578414917Q167.42955517578125,115.913578414917,168.02905517578125,115.53957841491699Q168.62855517578126,115.165578414917,169.42055517578126,115.165578414917Q170.21255517578126,115.165578414917,170.81205517578124,115.53957841491699Q171.41155517578125,115.913578414917,171.73605517578125,116.606578414917Q172.06055517578125,117.299578414917,172.06055517578125,118.223578414917Q172.06055517578125,119.14757841491699,171.73605517578125,119.84057841491699Q171.41155517578125,120.53357841491699,170.81205517578124,120.907578414917Q170.21255517578126,121.28157841491699,169.42055517578126,121.28157841491699ZM169.42055517578126,120.511578414917Q170.23455517578125,120.511578414917,170.72955517578126,119.89007841491699Q171.22455517578126,119.26857841491699,171.22455517578126,118.223578414917Q171.22455517578126,117.17857841491698,170.72955517578126,116.55707841491699Q170.23455517578125,115.93557841491699,169.42055517578126,115.93557841491699Q168.60655517578124,115.93557841491699,168.11155517578123,116.55707841491699Q167.61655517578126,117.17857841491698,167.61655517578126,118.223578414917Q167.61655517578126,119.26857841491699,168.11155517578123,119.89007841491699Q168.60655517578124,120.511578414917,169.42055517578126,120.511578414917ZM173.03955517578126,116.463578414917L176.42755517578127,116.463578414917L176.42755517578127,117.23357841491699L173.03955517578126,117.23357841491699L173.03955517578126,116.463578414917ZM180.12355517578123,121.29257841491699Q179.29855517578125,121.29257841491699,178.68805517578124,120.907578414917Q178.07755517578124,120.52257841491699,177.74205517578125,119.824078414917Q177.40655517578125,119.12557841491699,177.40655517578125,118.21257841491699Q177.40655517578125,117.31057841491699,177.74205517578125,116.62307841491699Q178.07755517578124,115.93557841491699,178.68805517578124,115.556078414917Q179.29855517578125,115.17657841491699,180.12355517578123,115.17657841491699Q180.75055517578124,115.17657841491699,181.33355517578124,115.50657841491699Q181.91655517578124,115.836578414917,182.25755517578125,116.386578414917L181.61955517578124,116.83757841491699Q181.36655517578126,116.419578414917,180.95405517578126,116.18307841491699Q180.54155517578124,115.94657841491698,180.06855517578126,115.94657841491698Q179.52955517578124,115.94657841491698,179.11705517578125,116.23257841491699Q178.70455517578125,116.51857841491699,178.47355517578126,117.03007841491699Q178.24255517578126,117.541578414917,178.24255517578126,118.21257841491699Q178.24255517578126,118.89457841491699,178.46805517578125,119.41707841491699Q178.69355517578126,119.939578414917,179.10605517578125,120.231078414917Q179.51855517578124,120.52257841491699,180.05755517578126,120.52257841491699Q180.53055517578125,120.52257841491699,180.94855517578125,120.286078414917Q181.36655517578126,120.049578414917,181.61955517578124,119.63157841491699L182.25755517578125,120.082578414917Q181.91655517578124,120.63257841491699,181.33355517578124,120.96257841491699Q180.75055517578124,121.29257841491699,180.12355517578123,121.29257841491699ZM183.52255517578124,121.127578414917L183.52255517578124,115.31957841491699L184.33655517578126,115.31957841491699L184.33655517578126,116.48557841491699L184.39155517578126,116.48557841491699Q184.74355517578124,115.880578414917,185.31555517578124,115.523078414917Q185.88755517578124,115.165578414917,186.60255517578125,115.165578414917L186.69055517578124,115.165578414917L186.69055517578124,116.04557841491699L186.58055517578126,116.04557841491699Q185.90955517578124,116.04557841491699,185.39805517578125,116.29307841491699Q184.88655517578124,116.540578414917,184.61155517578123,116.94207841491699Q184.33655517578126,117.34357841491699,184.33655517578126,117.78357841491699L184.33655517578126,121.127578414917L183.52255517578124,121.127578414917ZM192.30055517578126,117.77257841491699Q192.30055517578126,118.124578414917,192.23455517578125,118.454578414917L188.03255517578125,118.454578414917Q188.08755517578123,119.40057841491699,188.59905517578125,119.961578414917Q189.11055517578126,120.52257841491699,189.93555517578125,120.52257841491699Q190.41955517578126,120.52257841491699,190.83755517578123,120.291578414917Q191.25555517578124,120.06057841491699,191.53055517578125,119.62057841491699L192.17955517578125,120.06057841491699Q191.81655517578125,120.64357841491699,191.25005517578126,120.95707841491699Q190.68355517578124,121.270578414917,189.93555517578125,121.270578414917Q189.09955517578123,121.270578414917,188.47805517578126,120.90207841491699Q187.85655517578124,120.53357841491699,187.52655517578125,119.84607841491699Q187.19655517578124,119.15857841491699,187.19655517578124,118.234578414917Q187.19655517578124,117.299578414917,187.51555517578126,116.606578414917Q187.83455517578125,115.913578414917,188.42855517578124,115.53957841491699Q189.02255517578124,115.165578414917,189.82555517578123,115.165578414917Q190.95855517578124,115.165578414917,191.62955517578126,115.875078414917Q192.30055517578126,116.58457841491699,192.30055517578126,117.77257841491699ZM191.46455517578124,117.717578414917Q191.46455517578124,116.90357841491699,191.01355517578125,116.40857841491699Q190.56255517578126,115.913578414917,189.82555517578123,115.913578414917Q189.12155517578125,115.913578414917,188.65405517578125,116.39757841491699Q188.18655517578125,116.88157841491699,188.06555517578124,117.717578414917L191.46455517578124,117.717578414917ZM195.18255517578126,121.28157841491699Q194.32455517578126,121.28157841491699,193.82955517578125,120.847078414917Q193.33455517578125,120.412578414917,193.33455517578125,119.686578414917Q193.33455517578125,117.81657841491699,196.24955517578127,117.81657841491699L197.10755517578124,117.81657841491699L197.10755517578124,117.288578414917Q197.10755517578124,116.65057841491699,196.73355517578125,116.282078414917Q196.35955517578125,115.913578414917,195.71055517578125,115.913578414917Q194.97355517578126,115.913578414917,194.22555517578127,116.540578414917L193.74155517578126,115.97957841491699Q194.61055517578126,115.165578414917,195.75455517578126,115.165578414917Q196.76655517578126,115.165578414917,197.34955517578123,115.704578414917Q197.93255517578126,116.243578414917,197.93255517578126,117.17857841491698L197.93255517578126,121.127578414917L197.10755517578124,121.127578414917L197.10755517578124,120.24757841491699L197.05255517578127,120.24757841491699Q196.78855517578126,120.72057841491699,196.27705517578124,121.00107841491699Q195.76555517578126,121.28157841491699,195.18255517578126,121.28157841491699ZM195.32555517578123,120.53357841491699Q195.73255517578124,120.53357841491699,196.14505517578124,120.35207841491699Q196.55755517578126,120.17057841491699,196.83255517578124,119.80207841491699Q197.10755517578124,119.433578414917,197.10755517578124,118.916578414917L197.10755517578124,118.564578414917L196.40355517578126,118.564578414917Q195.25955517578126,118.564578414917,194.71505517578126,118.82857841491699Q194.17055517578126,119.092578414917,194.17055517578126,119.63157841491699Q194.17055517578126,120.049578414917,194.47855517578125,120.291578414917Q194.78655517578125,120.53357841491699,195.32555517578123,120.53357841491699ZM202.31055517578125,116.08957841491699L200.62755517578125,116.08957841491699L200.62755517578125,119.51057841491699Q200.62755517578125,120.01657841491699,200.88055517578124,120.297078414917Q201.13355517578125,120.57757841491699,201.58455517578125,120.57757841491699Q201.81555517578124,120.57757841491699,202.17855517578124,120.45657841491699L202.17855517578124,121.21557841491699Q201.88155517578124,121.336578414917,201.41955517578126,121.336578414917Q200.63855517578125,121.336578414917,200.22055517578124,120.880078414917Q199.80255517578127,120.42357841491699,199.80255517578127,119.576578414917L199.80255517578127,116.08957841491699L198.88955517578125,116.08957841491699L198.88955517578125,115.31957841491699L199.80255517578127,115.31957841491699L199.80255517578127,113.50457841491699L200.62755517578125,113.50457841491699L200.62755517578125,115.31957841491699L202.31055517578125,115.31957841491699L202.31055517578125,116.08957841491699ZM208.06355517578123,117.77257841491699Q208.06355517578123,118.124578414917,207.99755517578126,118.454578414917L203.79555517578126,118.454578414917Q203.85055517578127,119.40057841491699,204.36205517578125,119.961578414917Q204.87355517578123,120.52257841491699,205.69855517578125,120.52257841491699Q206.18255517578126,120.52257841491699,206.60055517578127,120.291578414917Q207.01855517578124,120.06057841491699,207.29355517578125,119.62057841491699L207.94255517578125,120.06057841491699Q207.57955517578125,120.64357841491699,207.01305517578123,120.95707841491699Q206.44655517578124,121.270578414917,205.69855517578125,121.270578414917Q204.86255517578127,121.270578414917,204.24105517578124,120.90207841491699Q203.61955517578124,120.53357841491699,203.28955517578126,119.84607841491699Q202.95955517578125,119.15857841491699,202.95955517578125,118.234578414917Q202.95955517578125,117.299578414917,203.27855517578126,116.606578414917Q203.59755517578125,115.913578414917,204.19155517578125,115.53957841491699Q204.78555517578124,115.165578414917,205.58855517578127,115.165578414917Q206.72155517578125,115.165578414917,207.39255517578124,115.875078414917Q208.06355517578123,116.58457841491699,208.06355517578123,117.77257841491699ZM207.22755517578125,117.717578414917Q207.22755517578125,116.90357841491699,206.77655517578125,116.40857841491699Q206.32555517578123,115.913578414917,205.58855517578127,115.913578414917Q204.88455517578126,115.913578414917,204.41705517578126,116.39757841491699Q203.94955517578126,116.88157841491699,203.82855517578125,117.717578414917L207.22755517578125,117.717578414917ZM214.34455517578124,121.127578414917L213.53055517578125,121.127578414917L213.53055517578125,120.20357841491699L213.46455517578124,120.20357841491699Q213.17855517578124,120.72057841491699,212.69455517578126,121.00107841491699Q212.21055517578125,121.28157841491699,211.60555517578126,121.28157841491699Q210.89055517578123,121.28157841491699,210.31855517578126,120.880078414917Q209.74655517578125,120.478578414917,209.42205517578125,119.76907841491699Q209.09755517578125,119.05957841491698,209.09755517578125,118.168578414917Q209.09755517578125,117.299578414917,209.42205517578125,116.612078414917Q209.74655517578125,115.924578414917,210.31855517578126,115.54507841491699Q210.89055517578123,115.165578414917,211.60555517578126,115.165578414917Q212.16655517578124,115.165578414917,212.65055517578125,115.451578414917Q213.13455517578126,115.737578414917,213.46455517578124,116.243578414917L213.53055517578125,116.243578414917L213.53055517578125,112.78957841491699L214.34455517578124,112.78957841491699L214.34455517578124,121.127578414917ZM213.55255517578127,118.223578414917Q213.55255517578127,117.574578414917,213.32155517578127,117.05757841491699Q213.09055517578125,116.540578414917,212.68355517578124,116.25457841491699Q212.27655517578125,115.96857841491699,211.75955517578126,115.96857841491699Q211.23155517578124,115.96857841491699,210.81905517578124,116.25457841491699Q210.40655517578125,116.540578414917,210.17005517578124,117.05207841491699Q209.93355517578124,117.56357841491699,209.93355517578124,118.223578414917Q209.93355517578124,118.883578414917,210.17005517578124,119.395078414917Q210.40655517578125,119.90657841491699,210.83005517578124,120.192578414917Q211.25355517578123,120.478578414917,211.79255517578125,120.478578414917Q212.29855517578125,120.478578414917,212.70005517578124,120.192578414917Q213.10155517578124,119.90657841491699,213.32705517578125,119.395078414917Q213.55255517578127,118.883578414917,213.55255517578127,118.223578414917ZM221.47255517578125,121.127578414917L219.21755517578126,112.78957841491699L220.11955517578124,112.78957841491699L221.93455517578127,119.58757841491699L222.00055517578124,119.58757841491699L223.88155517578124,112.78957841491699L224.78355517578126,112.78957841491699L226.67555517578126,119.58757841491699L226.73055517578126,119.58757841491699L228.54555517578126,112.78957841491699L229.45855517578127,112.78957841491699L227.19255517578125,121.127578414917L226.30155517578123,121.127578414917L224.36555517578125,114.26357841491699L224.29955517578125,114.26357841491699L222.36355517578124,121.127578414917L221.47255517578125,121.127578414917ZM231.50455517578126,113.207578414917Q231.50455517578126,113.47157841491699,231.34505517578125,113.62557841491699Q231.18555517578125,113.779578414917,230.92155517578124,113.779578414917Q230.65755517578125,113.779578414917,230.50905517578127,113.62557841491699Q230.36055517578126,113.47157841491699,230.36055517578126,113.207578414917Q230.36055517578126,112.943578414917,230.50905517578127,112.78957841491699Q230.65755517578125,112.63557841491699,230.92155517578124,112.63557841491699Q231.18555517578125,112.63557841491699,231.34505517578125,112.78957841491699Q231.50455517578126,112.943578414917,231.50455517578126,113.207578414917ZM231.33955517578124,115.31957841491699L231.33955517578124,121.13857841491699L230.52555517578125,121.13857841491699L230.52555517578125,115.31957841491699L231.33955517578124,115.31957841491699ZM237.69755517578125,121.127578414917L236.67455517578125,121.127578414917L234.40855517578126,118.32257841491699L233.88055517578124,118.817578414917L233.88055517578124,121.127578414917L233.06655517578125,121.127578414917L233.06655517578125,112.78957841491699L233.88055517578124,112.78957841491699L233.88055517578124,117.761578414917L236.41055517578127,115.31957841491699L237.55455517578125,115.31957841491699L234.99155517578123,117.77257841491699L237.69755517578125,121.127578414917ZM239.71055517578125,113.207578414917Q239.71055517578125,113.47157841491699,239.55105517578124,113.62557841491699Q239.39155517578126,113.779578414917,239.12755517578125,113.779578414917Q238.86355517578124,113.779578414917,238.71505517578123,113.62557841491699Q238.56655517578125,113.47157841491699,238.56655517578125,113.207578414917Q238.56655517578125,112.943578414917,238.71505517578123,112.78957841491699Q238.86355517578124,112.63557841491699,239.12755517578125,112.63557841491699Q239.39155517578126,112.63557841491699,239.55105517578124,112.78957841491699Q239.71055517578125,112.943578414917,239.71055517578125,113.207578414917ZM239.54555517578126,115.31957841491699L239.54555517578126,121.13857841491699L238.73155517578124,121.13857841491699L238.73155517578124,115.31957841491699L239.54555517578126,115.31957841491699ZM245.18855517578123,121.127578414917L245.18855517578123,112.78957841491699L246.00255517578125,112.78957841491699L246.00255517578125,116.23257841491699L246.05755517578126,116.23257841491699Q246.37655517578125,115.737578414917,246.87105517578124,115.45707841491699Q247.36605517578124,115.17657841491699,247.94905517578127,115.17657841491699Q248.65305517578125,115.17657841491699,249.22005517578125,115.556078414917Q249.78605517578126,115.93557841491699,250.10505517578125,116.606578414917Q250.42405517578123,117.27757841491699,250.42405517578123,118.13557841491699Q250.42405517578123,119.037578414917,250.10505517578125,119.752578414917Q249.78605517578126,120.467578414917,249.22005517578125,120.869078414917Q248.65305517578125,121.270578414917,247.94905517578127,121.270578414917Q247.33305517578125,121.270578414917,246.84405517578125,120.990078414917Q246.35455517578123,120.70957841491699,246.05755517578126,120.20357841491699L246.00255517578125,120.20357841491699L246.00255517578125,121.127578414917L245.18855517578123,121.127578414917ZM245.96955517578124,118.223578414917Q245.96955517578124,118.87257841491699,246.19505517578125,119.389578414917Q246.42055517578126,119.90657841491699,246.82705517578125,120.192578414917Q247.23405517578124,120.478578414917,247.74005517578127,120.478578414917Q248.26805517578126,120.478578414917,248.69205517578126,120.192578414917Q249.11505517578127,119.90657841491699,249.35205517578123,119.389578414917Q249.58805517578125,118.87257841491699,249.58805517578125,118.223578414917Q249.58805517578125,117.574578414917,249.35705517578126,117.06307841491699Q249.12605517578123,116.55157841491699,248.70805517578125,116.26557841491699Q248.29005517578125,115.97957841491699,247.76205517578126,115.97957841491699Q247.24505517578126,115.97957841491699,246.83805517578125,116.26557841491699Q246.43155517578126,116.55157841491699,246.20055517578123,117.06307841491699Q245.96955517578124,117.574578414917,245.96955517578124,118.223578414917ZM253.13005517578125,121.127578414917L250.86405517578123,115.31957841491699L251.78805517578127,115.31957841491699L253.59205517578124,120.10457841491699L253.65805517578124,120.10457841491699L255.39605517578127,115.31957841491699L256.32005517578125,115.31957841491699L253.05305517578125,123.767578414917L252.14005517578124,123.767578414917L253.13005517578125,121.127578414917ZM263.59105517578126,121.28157841491699Q262.64505517578124,121.28157841491699,261.87005517578126,120.869078414917Q261.09405517578125,120.45657841491699,260.63205517578126,119.675578414917L261.35805517578126,119.23557841491699Q261.72105517578126,119.85157841491699,262.29905517578123,120.16507841491699Q262.87605517578123,120.478578414917,263.60205517578123,120.478578414917Q264.16305517578127,120.478578414917,264.60905517578124,120.291578414917Q265.05405517578123,120.10457841491699,265.3070551757812,119.76907841491699Q265.56005517578126,119.433578414917,265.56005517578126,119.01557841491699Q265.56005517578126,118.57557841491699,265.34005517578123,118.27857841491699Q265.12005517578126,117.981578414917,264.66405517578124,117.756078414917Q264.20705517578125,117.53057841491699,263.4150551757813,117.31057841491699Q262.57905517578126,117.068578414917,262.0570551757812,116.826578414917Q261.53405517578125,116.58457841491699,261.1820551757812,116.12807841491698Q260.83005517578124,115.671578414917,260.83005517578124,114.934578414917Q260.83005517578124,114.27457841491699,261.1820551757812,113.746578414917Q261.53405517578125,113.21857841491699,262.1720551757812,112.92707841491699Q262.81005517578126,112.63557841491699,263.63505517578125,112.63557841491699Q264.53705517578123,112.63557841491699,265.21405517578125,113.00957841491699Q265.89005517578124,113.383578414917,266.33005517578124,114.05457841491699L265.65905517578125,114.538578414917Q265.2850551757813,114.032578414917,264.75205517578127,113.73557841491699Q264.2180551757813,113.43857841491699,263.61305517578126,113.43857841491699Q263.08505517578124,113.43857841491699,262.64505517578124,113.62557841491699Q262.20505517578124,113.812578414917,261.95205517578125,114.142578414917Q261.69905517578127,114.472578414917,261.69905517578127,114.868578414917Q261.69905517578127,115.374578414917,261.9800551757812,115.699078414917Q262.26005517578125,116.023578414917,262.6890551757813,116.199578414917Q263.11805517578125,116.37557841491699,263.82205517578126,116.562578414917Q264.64705517578125,116.793578414917,265.20305517578123,117.068578414917Q265.75805517578124,117.34357841491699,266.09405517578125,117.805578414917Q266.42905517578123,118.267578414917,266.42905517578123,118.97157841491699Q266.42905517578123,119.675578414917,266.0830551757813,120.19807841491699Q265.73605517578125,120.72057841491699,265.0930551757813,121.00107841491699Q264.44905517578127,121.28157841491699,263.59105517578126,121.28157841491699ZM270.5760551757812,116.08957841491699L268.8930551757812,116.08957841491699L268.8930551757812,119.51057841491699Q268.8930551757812,120.01657841491699,269.14605517578127,120.297078414917Q269.39905517578126,120.57757841491699,269.8500551757812,120.57757841491699Q270.0810551757812,120.57757841491699,270.4440551757813,120.45657841491699L270.4440551757813,121.21557841491699Q270.14705517578125,121.336578414917,269.68505517578126,121.336578414917Q268.90405517578125,121.336578414917,268.48605517578125,120.880078414917Q268.06805517578124,120.42357841491699,268.06805517578124,119.576578414917L268.06805517578124,116.08957841491699L267.1550551757813,116.08957841491699L267.1550551757813,115.31957841491699L268.06805517578124,115.31957841491699L268.06805517578124,113.50457841491699L268.8930551757812,113.50457841491699L268.8930551757812,115.31957841491699L270.5760551757812,115.31957841491699L270.5760551757812,116.08957841491699ZM276.32905517578126,117.77257841491699Q276.32905517578126,118.124578414917,276.26305517578123,118.454578414917L272.06105517578123,118.454578414917Q272.11605517578124,119.40057841491699,272.62805517578124,119.961578414917Q273.13905517578127,120.52257841491699,273.96405517578125,120.52257841491699Q274.44805517578123,120.52257841491699,274.86605517578124,120.291578414917Q275.28405517578125,120.06057841491699,275.5590551757813,119.62057841491699L276.2080551757813,120.06057841491699Q275.8450551757812,120.64357841491699,275.27905517578125,120.95707841491699Q274.71205517578124,121.270578414917,273.96405517578125,121.270578414917Q273.12805517578124,121.270578414917,272.50705517578126,120.90207841491699Q271.88505517578125,120.53357841491699,271.55505517578126,119.84607841491699Q271.2250551757812,119.15857841491699,271.2250551757812,118.234578414917Q271.2250551757812,117.299578414917,271.54405517578124,116.606578414917Q271.86305517578126,115.913578414917,272.45705517578125,115.53957841491699Q273.05105517578124,115.165578414917,273.85405517578124,115.165578414917Q274.9870551757813,115.165578414917,275.6580551757812,115.875078414917Q276.32905517578126,116.58457841491699,276.32905517578126,117.77257841491699ZM275.49305517578125,117.717578414917Q275.49305517578125,116.90357841491699,275.04205517578123,116.40857841491699Q274.59105517578126,115.913578414917,273.85405517578124,115.913578414917Q273.15005517578123,115.913578414917,272.68305517578125,116.39757841491699Q272.21505517578123,116.88157841491699,272.09405517578125,117.717578414917L275.49305517578125,117.717578414917ZM277.64905517578126,112.78957841491699L278.4630551757813,112.78957841491699L278.4630551757813,119.98357841491699Q278.4630551757813,120.45657841491699,278.92505517578127,120.45657841491699L279.23305517578126,120.45657841491699L279.23305517578126,121.21557841491699L278.7490551757812,121.21557841491699Q277.64905517578126,121.21557841491699,277.64905517578126,120.20357841491699L277.64905517578126,112.78957841491699ZM280.3330551757813,112.78957841491699L281.14705517578125,112.78957841491699L281.14705517578125,119.98357841491699Q281.14705517578125,120.45657841491699,281.60905517578124,120.45657841491699L281.91705517578123,120.45657841491699L281.91705517578123,121.21557841491699L281.43305517578125,121.21557841491699Q280.3330551757813,121.21557841491699,280.3330551757813,120.20357841491699L280.3330551757813,112.78957841491699ZM284.57905517578126,121.28157841491699Q283.72105517578126,121.28157841491699,283.22605517578126,120.847078414917Q282.73105517578125,120.412578414917,282.73105517578125,119.686578414917Q282.73105517578125,117.81657841491699,285.64605517578127,117.81657841491699L286.5040551757812,117.81657841491699L286.5040551757812,117.288578414917Q286.5040551757812,116.65057841491699,286.13005517578125,116.282078414917Q285.7560551757813,115.913578414917,285.1070551757813,115.913578414917Q284.37005517578126,115.913578414917,283.62205517578127,116.540578414917L283.13805517578123,115.97957841491699Q284.00705517578126,115.165578414917,285.15105517578127,115.165578414917Q286.1630551757812,115.165578414917,286.74605517578124,115.704578414917Q287.32905517578126,116.243578414917,287.32905517578126,117.17857841491698L287.32905517578126,121.127578414917L286.5040551757812,121.127578414917L286.5040551757812,120.24757841491699L286.44905517578127,120.24757841491699Q286.18505517578126,120.72057841491699,285.6740551757813,121.00107841491699Q285.16205517578123,121.28157841491699,284.57905517578126,121.28157841491699ZM284.72205517578124,120.53357841491699Q285.1290551757812,120.53357841491699,285.54205517578123,120.35207841491699Q285.95405517578126,120.17057841491699,286.22905517578124,119.80207841491699Q286.5040551757812,119.433578414917,286.5040551757812,118.916578414917L286.5040551757812,118.564578414917L285.80005517578127,118.564578414917Q284.65605517578126,118.564578414917,284.1120551757813,118.82857841491699Q283.56705517578126,119.092578414917,283.56705517578126,119.63157841491699Q283.56705517578126,120.049578414917,283.87505517578126,120.291578414917Q284.18305517578125,120.53357841491699,284.72205517578124,120.53357841491699ZM288.8690551757812,121.127578414917L288.8690551757812,115.31957841491699L289.68305517578125,115.31957841491699L289.68305517578125,116.48557841491699L289.73805517578126,116.48557841491699Q290.09005517578123,115.880578414917,290.66205517578123,115.523078414917Q291.23405517578124,115.165578414917,291.94905517578127,115.165578414917L292.03705517578123,115.165578414917L292.03705517578123,116.04557841491699L291.9270551757812,116.04557841491699Q291.2560551757813,116.04557841491699,290.74505517578126,116.29307841491699Q290.23305517578126,116.540578414917,289.9580551757813,116.94207841491699Q289.68305517578125,117.34357841491699,289.68305517578125,117.78357841491699L289.68305517578125,121.127578414917L288.8690551757812,121.127578414917ZM297.8120551757812,121.127578414917L296.96505517578123,121.127578414917L296.96505517578123,112.78957841491699L297.8450551757812,112.78957841491699L302.32205517578126,119.609578414917L302.37705517578127,119.609578414917L302.37705517578127,112.78957841491699L303.22405517578125,112.78957841491699L303.22405517578125,121.127578414917L302.34405517578125,121.127578414917L297.8670551757813,114.296578414917L297.8120551757812,114.296578414917L297.8120551757812,121.127578414917ZM309.7250551757812,117.77257841491699Q309.7250551757812,118.124578414917,309.65905517578125,118.454578414917L305.45705517578125,118.454578414917Q305.51205517578126,119.40057841491699,306.02405517578126,119.961578414917Q306.5350551757813,120.52257841491699,307.3600551757812,120.52257841491699Q307.84405517578125,120.52257841491699,308.26205517578126,120.291578414917Q308.68005517578126,120.06057841491699,308.95505517578124,119.62057841491699L309.60405517578124,120.06057841491699Q309.24105517578124,120.64357841491699,308.67505517578127,120.95707841491699Q308.10805517578126,121.270578414917,307.3600551757812,121.270578414917Q306.52405517578126,121.270578414917,305.9030551757812,120.90207841491699Q305.28105517578126,120.53357841491699,304.9510551757812,119.84607841491699Q304.62105517578124,119.15857841491699,304.62105517578124,118.234578414917Q304.62105517578124,117.299578414917,304.94005517578125,116.606578414917Q305.2590551757812,115.913578414917,305.85305517578126,115.53957841491699Q306.44705517578126,115.165578414917,307.25005517578126,115.165578414917Q308.38305517578124,115.165578414917,309.0540551757813,115.875078414917Q309.7250551757812,116.58457841491699,309.7250551757812,117.77257841491699ZM308.8890551757812,117.717578414917Q308.8890551757812,116.90357841491699,308.43805517578124,116.40857841491699Q307.9870551757813,115.913578414917,307.25005517578126,115.913578414917Q306.54605517578125,115.913578414917,306.07905517578126,116.39757841491699Q305.61105517578125,116.88157841491699,305.4900551757812,117.717578414917L308.8890551757812,117.717578414917ZM313.23405517578124,118.17957841491699L315.2800551757813,121.127578414917L314.27905517578125,121.127578414917L312.72805517578126,118.773578414917L311.16605517578125,121.127578414917L310.17605517578124,121.127578414917L312.27705517578124,118.10257841491699L310.3190551757813,115.31957841491699L311.3090551757813,115.31957841491699L312.80505517578126,117.541578414917L314.2350551757812,115.31957841491699L315.2030551757813,115.31957841491699L313.23405517578124,118.17957841491699ZM320.7800551757813,115.31957841491699L320.7800551757813,121.127578414917L319.96605517578126,121.127578414917L319.96605517578126,120.24757841491699L319.9000551757813,120.24757841491699Q319.6360551757813,120.72057841491699,319.12505517578126,121.00107841491699Q318.61305517578126,121.28157841491699,318.04105517578125,121.28157841491699Q317.0730551757813,121.28157841491699,316.52905517578125,120.68207841491699Q315.98405517578124,120.082578414917,315.98405517578124,118.993578414917L315.98405517578124,115.31957841491699L316.79805517578126,115.31957841491699L316.79805517578126,118.86157841491699Q316.79805517578126,119.63157841491699,317.20005517578124,120.082578414917Q317.60105517578126,120.53357841491699,318.25005517578126,120.53357841491699Q319.0090551757812,120.53357841491699,319.48805517578126,120.038578414917Q319.96605517578126,119.543578414917,319.96605517578126,118.76257841491699L319.96605517578126,115.31957841491699L320.7800551757813,115.31957841491699ZM324.2560551757813,121.28157841491699Q323.43105517578124,121.28157841491699,322.83705517578124,120.93507841491699Q322.24305517578125,120.588578414917,321.9240551757813,119.99457841491699L322.6170551757813,119.58757841491699Q322.8810551757813,120.038578414917,323.30505517578126,120.286078414917Q323.72805517578126,120.53357841491699,324.2780551757812,120.53357841491699Q324.87205517578127,120.53357841491699,325.21905517578125,120.297078414917Q325.56505517578125,120.06057841491699,325.56505517578125,119.65357841491699Q325.56505517578125,119.26857841491699,325.22405517578125,119.026578414917Q324.88305517578124,118.784578414917,324.11305517578126,118.61957841491699Q323.10105517578126,118.377578414917,322.60105517578126,117.981578414917Q322.1000551757812,117.585578414917,322.1000551757812,116.936578414917Q322.1000551757812,116.12257841491699,322.66705517578123,115.64407841491699Q323.23305517578126,115.165578414917,324.21205517578124,115.165578414917Q324.93805517578124,115.165578414917,325.4940551757812,115.479078414917Q326.0490551757813,115.79257841491699,326.41205517578123,116.37557841491699L325.76305517578123,116.83757841491699Q325.4770551757813,116.386578414917,325.0760551757812,116.15007841491699Q324.6740551757813,115.913578414917,324.2010551757812,115.913578414917Q323.6290551757812,115.913578414917,323.2880551757812,116.166578414917Q322.94705517578126,116.419578414917,322.94705517578126,116.83757841491699Q322.94705517578126,117.20057841491699,323.31605517578123,117.45357841491699Q323.6840551757813,117.70657841491699,324.42105517578125,117.88257841491699Q326.40105517578127,118.311578414917,326.40105517578127,119.52157841491699Q326.40105517578127,120.335578414917,325.82405517578127,120.808578414917Q325.24605517578124,121.28157841491699,324.2560551757813,121.28157841491699ZM332.39605517578127,121.127578414917L331.5490551757813,121.127578414917L331.5490551757813,112.78957841491699L332.4290551757813,112.78957841491699L336.90605517578126,119.609578414917L336.9610551757812,119.609578414917L336.9610551757812,112.78957841491699L337.80805517578125,112.78957841491699L337.80805517578125,121.127578414917L336.92805517578125,121.127578414917L332.4510551757812,114.296578414917L332.39605517578127,114.296578414917L332.39605517578127,121.127578414917ZM344.3090551757813,117.77257841491699Q344.3090551757813,118.124578414917,344.24305517578125,118.454578414917L340.04105517578125,118.454578414917Q340.09605517578126,119.40057841491699,340.60805517578126,119.961578414917Q341.1190551757812,120.52257841491699,341.9440551757813,120.52257841491699Q342.42805517578125,120.52257841491699,342.84605517578126,120.291578414917Q343.2640551757812,120.06057841491699,343.53905517578124,119.62057841491699L344.18805517578124,120.06057841491699Q343.82505517578124,120.64357841491699,343.2590551757812,120.95707841491699Q342.69205517578126,121.270578414917,341.9440551757813,121.270578414917Q341.10805517578126,121.270578414917,340.4870551757813,120.90207841491699Q339.8650551757812,120.53357841491699,339.5350551757813,119.84607841491699Q339.20505517578124,119.15857841491699,339.20505517578124,118.234578414917Q339.20505517578124,117.299578414917,339.52405517578126,116.606578414917Q339.8430551757813,115.913578414917,340.4370551757812,115.53957841491699Q341.03105517578126,115.165578414917,341.83405517578126,115.165578414917Q342.96705517578124,115.165578414917,343.63805517578123,115.875078414917Q344.3090551757813,116.58457841491699,344.3090551757813,117.77257841491699ZM343.47305517578127,117.717578414917Q343.47305517578127,116.90357841491699,343.02205517578125,116.40857841491699Q342.5710551757812,115.913578414917,341.83405517578126,115.913578414917Q341.13005517578125,115.913578414917,340.6630551757812,116.39757841491699Q340.19505517578125,116.88157841491699,340.07405517578127,117.717578414917L343.47305517578127,117.717578414917ZM348.46705517578124,116.08957841491699L346.78405517578125,116.08957841491699L346.78405517578125,119.51057841491699Q346.78405517578125,120.01657841491699,347.03705517578123,120.297078414917Q347.2900551757813,120.57757841491699,347.74105517578124,120.57757841491699Q347.97205517578124,120.57757841491699,348.33505517578124,120.45657841491699L348.33505517578124,121.21557841491699Q348.0380551757812,121.336578414917,347.5760551757812,121.336578414917Q346.7950551757813,121.336578414917,346.37705517578127,120.880078414917Q345.95905517578126,120.42357841491699,345.95905517578126,119.576578414917L345.95905517578126,116.08957841491699L345.04605517578125,116.08957841491699L345.04605517578125,115.31957841491699L345.95905517578126,115.31957841491699L345.95905517578126,113.50457841491699L346.78405517578125,113.50457841491699L346.78405517578125,115.31957841491699L348.46705517578124,115.31957841491699L348.46705517578124,116.08957841491699ZM350.65605517578126,121.127578414917L348.73105517578125,115.31957841491699L349.63305517578124,115.31957841491699L351.06305517578124,120.005578414917L351.11805517578125,120.005578414917L352.53705517578123,115.31957841491699L353.42805517578125,115.31957841491699L354.85805517578126,120.005578414917L354.9130551757812,120.005578414917L356.3430551757813,115.31957841491699L357.23405517578124,115.31957841491699L355.32005517578125,121.127578414917L354.44005517578125,121.127578414917L353.01005517578125,116.419578414917L352.95505517578124,116.419578414917L351.5470551757812,121.127578414917L350.65605517578126,121.127578414917ZM360.34705517578124,121.28157841491699Q359.55505517578126,121.28157841491699,358.9560551757812,120.907578414917Q358.35605517578125,120.53357841491699,358.03205517578124,119.84057841491699Q357.70705517578125,119.14757841491699,357.70705517578125,118.223578414917Q357.70705517578125,117.299578414917,358.03205517578124,116.606578414917Q358.35605517578125,115.913578414917,358.9560551757812,115.53957841491699Q359.55505517578126,115.165578414917,360.34705517578124,115.165578414917Q361.1390551757812,115.165578414917,361.73905517578123,115.53957841491699Q362.3380551757813,115.913578414917,362.6630551757812,116.606578414917Q362.9870551757813,117.299578414917,362.9870551757813,118.223578414917Q362.9870551757813,119.14757841491699,362.6630551757812,119.84057841491699Q362.3380551757813,120.53357841491699,361.73905517578123,120.907578414917Q361.1390551757812,121.28157841491699,360.34705517578124,121.28157841491699ZM360.34705517578124,120.511578414917Q361.16105517578126,120.511578414917,361.65605517578126,119.89007841491699Q362.15105517578127,119.26857841491699,362.15105517578127,118.223578414917Q362.15105517578127,117.17857841491698,361.65605517578126,116.55707841491699Q361.16105517578126,115.93557841491699,360.34705517578124,115.93557841491699Q359.5330551757812,115.93557841491699,359.0380551757812,116.55707841491699Q358.54305517578126,117.17857841491698,358.54305517578126,118.223578414917Q358.54305517578126,119.26857841491699,359.0380551757812,119.89007841491699Q359.5330551757812,120.511578414917,360.34705517578124,120.511578414917ZM364.3070551757812,121.127578414917L364.3070551757812,115.31957841491699L365.12105517578124,115.31957841491699L365.12105517578124,116.48557841491699L365.17605517578124,116.48557841491699Q365.5280551757812,115.880578414917,366.1000551757812,115.523078414917Q366.6720551757812,115.165578414917,367.38705517578126,115.165578414917L367.4750551757812,115.165578414917L367.4750551757812,116.04557841491699L367.3650551757812,116.04557841491699Q366.6940551757813,116.04557841491699,366.18305517578125,116.29307841491699Q365.67105517578125,116.540578414917,365.39605517578127,116.94207841491699Q365.12105517578124,117.34357841491699,365.12105517578124,117.78357841491699L365.12105517578124,121.127578414917L364.3070551757812,121.127578414917ZM373.04105517578125,121.127578414917L372.0180551757812,121.127578414917L369.75205517578127,118.32257841491699L369.22405517578125,118.817578414917L369.22405517578125,121.127578414917L368.4100551757813,121.127578414917L368.4100551757813,112.78957841491699L369.22405517578125,112.78957841491699L369.22405517578125,117.761578414917L371.7540551757812,115.31957841491699L372.8980551757812,115.31957841491699L370.33505517578124,117.77257841491699L373.04105517578125,121.127578414917Z" fill="url(#master_svg3_17_79)" fill-opacity="1"/></g></g><g><g><path d="M26,74.6832Q26,75.9519,26.0622546,77.2191Q26.124509,78.4864,26.248869,79.749Q26.373228,81.01169999999999,26.559392,82.2667Q26.745556,83.52170000000001,26.993077,84.7661Q27.2406,86.0104,27.54888,87.2411Q27.85716,88.4719,28.225459999999998,89.686Q28.59376,90.9001,29.02119,92.0947Q29.44862,93.2893,29.93415,94.4615Q30.41968,95.6336,30.962139999999998,96.7806Q31.5046,97.9275,32.10268,99.0464Q32.70077,100.1654,33.353030000000004,101.2536Q34.0053,102.3419,34.71018,103.3968Q35.41506,104.4517,36.1709,105.4708Q36.9266,106.4899,37.7315,107.4706Q38.5364,108.4514,39.3885,109.3915Q40.2405,110.3315,41.1376,111.2287Q42.034800000000004,112.1258,42.974900000000005,112.9779Q43.915,113.8299,44.895700000000005,114.6348Q45.8765,115.4397,46.8955,116.1955Q47.9146,116.9513,48.9695,117.6561Q50.0245,118.361,51.112700000000004,119.0133Q52.200900000000004,119.6656,53.319900000000004,120.2636Q54.4388,120.8617,55.5858,121.4042Q56.7327,121.9466,57.9049,122.4322Q59.077,122.9177,60.2716,123.345Q61.4662,123.773,62.6803,124.141Q63.8945,124.509,65.1252,124.817Q66.35589999999999,125.126,67.6003,125.373Q68.8447,125.621,70.0997,125.807Q71.35470000000001,125.993,72.6173,126.117Q73.88,126.242,75.1472,126.304Q76.4144,126.366,77.6832,126.366L77.6832,102.2475Q77.0065,102.2475,76.3306,102.2143Q75.6548,102.1811,74.98140000000001,102.1148Q74.30799999999999,102.0485,73.6386,101.9492Q72.9693,101.8499,72.3056,101.7179Q71.642,101.5859,70.9856,101.4215Q70.3292,101.2571,69.6817,101.0606Q69.0341,100.8642,68.39699999999999,100.6362Q67.7599,100.4083,67.13470000000001,100.1493Q66.5096,99.8904,65.89789999999999,99.6011Q65.28620000000001,99.3118,64.6894,98.9928Q64.09270000000001,98.6738,63.5123,98.3259Q62.9319,97.9781,62.3692,97.6021Q61.8066,97.2262,61.2631,96.8231Q60.7196,96.42,60.1965,95.9907Q59.6735,95.5614,59.1721,95.107Q58.6707,94.6526,58.1922,94.1741Q57.7138,93.6956,57.259299999999996,93.1943Q56.8049,92.6929,56.3756,92.1698Q55.9464,91.6468,55.5433,91.1032Q55.1402,90.5597,54.7643,89.9971Q54.3883,89.4345,54.040400000000005,88.8541Q53.6926,88.2737,53.373599999999996,87.6769Q53.0546,87.0802,52.765299999999996,86.4685Q52.476,85.85679999999999,52.217,85.2316Q51.9581,84.60640000000001,51.7301,83.9693Q51.5022,83.3322,51.3057,82.68469999999999Q51.109300000000005,82.0372,50.944900000000004,81.3808Q50.7805,80.7244,50.6485,80.0607Q50.5165,79.3971,50.4172,78.7277Q50.3179,78.0584,50.251599999999996,77.38499999999999Q50.185199999999995,76.7116,50.152,76.03569999999999Q50.1188,75.35990000000001,50.1188,74.6832L26,74.6832ZM77.6832,47.1188Q78.35990000000001,47.1188,79.03569999999999,47.152Q79.7116,47.185199999999995,80.38499999999999,47.251599999999996Q81.0584,47.3179,81.7277,47.4172Q82.3971,47.5165,83.0607,47.6485Q83.7244,47.7805,84.3808,47.944900000000004Q85.0372,48.109300000000005,85.68469999999999,48.3057Q86.3322,48.5022,86.9693,48.7301Q87.60640000000001,48.9581,88.2316,49.217Q88.85679999999999,49.476,89.4685,49.765299999999996Q90.0802,50.0546,90.6769,50.373599999999996Q91.2737,50.6926,91.8541,51.0405Q92.4345,51.3883,92.9971,51.7643Q93.5597,52.1402,94.1032,52.5433Q94.6468,52.9464,95.1698,53.375699999999995Q95.6929,53.8049,96.1943,54.259299999999996Q96.6956,54.7138,97.1741,55.1922Q97.6526,55.6707,98.107,56.1721Q98.5614,56.6735,98.9907,57.1965Q99.42,57.7196,99.8231,58.2631Q100.2262,58.8066,100.6021,59.3692Q100.9781,59.9319,101.3259,60.5123Q101.6738,61.0927,101.9928,61.6894Q102.3118,62.2862,102.6011,62.8979Q102.8904,63.5096,103.1493,64.1348Q103.4083,64.7599,103.6362,65.39699999999999Q103.8642,66.0341,104.0606,66.6817Q104.2571,67.3292,104.4215,67.9856Q104.5859,68.642,104.7179,69.3056Q104.8499,69.9693,104.9492,70.6387Q105.0485,71.30799999999999,105.1148,71.98140000000001Q105.1811,72.6548,105.2143,73.33070000000001Q105.2475,74.0065,105.2475,74.6832L129.36599999999999,74.6832Q129.36599999999999,73.4144,129.304,72.1472Q129.24200000000002,70.88,129.11700000000002,69.6173Q128.993,68.35470000000001,128.80700000000002,67.0997Q128.62099999999998,65.8447,128.373,64.6003Q128.126,63.3559,127.817,62.1252Q127.509,60.8945,127.141,59.6803Q126.773,58.4662,126.345,57.2716Q125.9177,56.077,125.4322,54.9049Q124.9466,53.7327,124.4042,52.5858Q123.8617,51.4388,123.2636,50.319900000000004Q122.6655,49.201,122.0133,48.112700000000004Q121.361,47.0245,120.6561,45.9695Q119.9512,44.9146,119.1955,43.8955Q118.4397,42.8765,117.6348,41.895700000000005Q116.8299,40.915,115.9779,39.974900000000005Q115.1258,39.034800000000004,114.2287,38.1376Q113.3315,37.2405,112.3914,36.3885Q111.4514,35.5364,110.4706,34.7315Q109.4898,33.9267,108.4708,33.1709Q107.4517,32.41506,106.3968,31.71018Q105.3419,31.0053,104.2536,30.35304Q103.1654,29.70077,102.0464,29.10268Q100.9275,28.5046,99.7805,27.962139999999998Q98.6336,27.41968,97.4614,26.93415Q96.2893,26.44862,95.0947,26.02119Q93.9001,25.59376,92.686,25.225459999999998Q91.4719,24.85716,90.2411,24.54888Q89.0104,24.2406,87.76599999999999,23.993078Q86.52170000000001,23.745557,85.2667,23.559392Q84.0116,23.373228,82.749,23.248869Q81.4864,23.124509,80.2191,23.0622546Q78.9519,23,77.6832,23L77.6832,47.1188L77.6832,47.1188Z" fill-rule="evenodd" fill="#04AAEB" fill-opacity="1"/></g><g><ellipse cx="77.68315887451172" cy="74.6831636428833" rx="10.336631774902344" ry="10.33663272857666" fill="#646464" fill-opacity="1"/></g><g><ellipse cx="49.25742149353027" cy="46.25742530822754" rx="12.92078971862793" ry="12.920792579650879" fill="#323232" fill-opacity="1"/></g><g><ellipse cx="106.10890007019043" cy="103.10891056060791" rx="12.92078971862793" ry="12.920792579650879" fill="#969696" fill-opacity="1"/></g></g></g></g></g></svg>