<svg xmlns="http://www.w3.org/2000/svg" xmlns:xlink="http://www.w3.org/1999/xlink" fill="none" version="1.1" width="101" height="30" viewBox="0 0 101 30"><defs><linearGradient x1="0.5" y1="1" x2="0.5" y2="0" id="master_svg0_136_870"><stop offset="0%" stop-color="#04AAEB" stop-opacity="1"/><stop offset="100%" stop-color="#C8C8C8" stop-opacity="1"/></linearGradient><linearGradient x1="0.5" y1="1" x2="0.5" y2="0" id="master_svg1_136_934"><stop offset="0%" stop-color="#969696" stop-opacity="1"/><stop offset="100%" stop-color="#AFAFAF" stop-opacity="1"/></linearGradient><linearGradient x1="35" y1="27.499996185302734" x2="101" y2="27.499996185302734" gradientUnits="userSpaceOnUse" id="master_svg2_136_756"><stop offset="0%" stop-color="#04AAEB" stop-opacity="1"/><stop offset="100%" stop-color="#969696" stop-opacity="1"/></linearGradient></defs><g><g><g><g><g><path d="M35,14.99999713897705Q35,14.75451713897705,35.0120454,14.509327138977051Q35.0240909,14.26412713897705,35.0481527,14.019827138977051Q35.0722146,13.77552713897705,35.108235,13.532697138977051Q35.144255,13.289867138977051,35.192147,13.04909713897705Q35.240039,12.80832713897705,35.299687,12.57019713897705Q35.359336,12.33206713897705,35.430597,12.09714713897705Q35.501858,11.86223713897705,35.584559,11.63109713897705Q35.667261,11.39996713897705,35.761205,11.17316713897705Q35.855148,10.94636713897705,35.960107,10.724447138977052Q36.06507,10.502527138977051,36.18079,10.286027138977051Q36.29651,10.069527138977051,36.42271,9.85896713897705Q36.54892,9.648407138977051,36.6853,9.444297138977051Q36.82169,9.24017713897705,36.96792,9.04300713897705Q37.11416,8.84582713897705,37.2699,8.65606713897705Q37.42563,8.466297138977051,37.59049,8.28440713897705Q37.75535,8.102517138977051,37.92893,7.92892713897705Q38.10252,7.755347138977051,38.28441,7.590487138977051Q38.4663,7.425627138977051,38.65607,7.269897138977051Q38.84583,7.114157138977051,39.04301,6.96791713897705Q39.24018,6.821687138977051,39.4443,6.685297138977051Q39.64841,6.548917138977051,39.85897,6.422707138977051Q40.06953,6.29650713897705,40.28603,6.180787138977051Q40.50253,6.065067138977051,40.72445,5.960104138977051Q40.94637,5.855145138977051,41.17317,5.761202138977051Q41.39996,5.667258138977051,41.6311,5.584556138977051Q41.86224,5.501855138977051,42.09715,5.4305941389770505Q42.33207,5.359333138977051,42.5702,5.2996851389770505Q42.80833,5.240036138977051,43.049099999999996,5.192144138977051Q43.28987,5.144252138977051,43.5327,5.10823213897705Q43.77553,5.0722117389770505,44.01983,5.048149838977051Q44.26413,5.024088038977051,44.50932,5.012042538977051Q44.754509999999996,4.999997138977051,45,4.999997138977051L45,9.99999713897705Q44.87726,9.99999713897705,44.75466,10.00601713897705Q44.63207,10.012047138977051,44.50991,10.02407713897705Q44.38776,10.036107138977052,44.26635,10.054117138977052Q44.14493,10.07212713897705,44.02455,10.096067138977052Q43.90416,10.120017138977051,43.7851,10.149837138977052Q43.66603,10.17966713897705,43.54858,10.21529713897705Q43.43112,10.250927138977051,43.31555,10.29227713897705Q43.19998,10.33362713897705,43.08658,10.380597138977052Q42.97318,10.42756713897705,42.86222,10.480047138977051Q42.75127,10.532527138977052,42.64302,10.59038713897705Q42.53477,10.648247138977052,42.42949,10.71135713897705Q42.3242,10.774457138977052,42.22215,10.84264713897705Q42.12009,10.910837138977051,42.0215,10.98395713897705Q41.92291,11.05707713897705,41.82803,11.13494713897705Q41.73315,11.212807138977052,41.6422,11.29523713897705Q41.55126,11.377667138977051,41.46447,11.464467138977051Q41.37767,11.55125713897705,41.29524,11.64219713897705Q41.21281,11.733147138977051,41.13495,11.82802713897705Q41.05708,11.92290713897705,40.983959999999996,12.02149713897705Q40.91084,12.120087138977052,40.84265,12.22214713897705Q40.77446,12.324197138977052,40.71136,12.429487138977052Q40.64825,12.53476713897705,40.59039,12.64301713897705Q40.53253,12.75126713897705,40.48005,12.862217138977051Q40.42757,12.97317713897705,40.3806,13.08657713897705Q40.33363,13.19997713897705,40.29228,13.31554713897705Q40.25093,13.43111713897705,40.2153,13.54857713897705Q40.17967,13.66602713897705,40.14984,13.78509713897705Q40.12002,13.90415713897705,40.09607,14.02454713897705Q40.07213,14.144927138977051,40.05412,14.26634713897705Q40.03611,14.38775713897705,40.02408,14.50990713897705Q40.01205,14.632067138977051,40.00602,14.75465713897705Q40,14.87725713897705,40,14.99999713897705L35,14.99999713897705Z" fill-rule="evenodd" fill="#04AAEB" fill-opacity="1"/></g></g><g><g><path d="M50.000000953674316,15.000000953675684L45.000000953674316,15.000000953675684Q45.000000953674316,15.245487046325684,45.012046353674315,15.490678046325684Q45.024091853674314,15.735868046325683,45.04815365367432,15.980172046325684Q45.07221555367432,16.224479046325683,45.10823595367432,16.467309046325685Q45.14425595367432,16.710139046325683,45.192147953674315,16.950909046325684Q45.24003995367432,17.191669046325682,45.299687953674315,17.429799046325684Q45.359336953674315,17.667929046325682,45.430597953674315,17.902849046325684Q45.50185795367432,18.137759046325684,45.584559953674315,18.368899046325684Q45.66726195367432,18.600039046325684,45.76120595367431,18.826839046325684Q45.855148953674316,19.053639046325685,45.96010795367432,19.275549046325683Q46.065070953674315,19.497469046325683,46.18079095367432,19.713969046325683Q46.296510953674314,19.930469046325683,46.42271095367432,20.141029046325684Q46.54892095367432,20.351589046325685,46.685300953674314,20.555699046325685Q46.82169095367431,20.759819046325685,46.967920953674316,20.956999046325684Q47.114160953674315,21.154169046325684,47.269900953674316,21.343939046325684Q47.425630953674315,21.533699046325683,47.59049095367432,21.715589046325682Q47.755350953674316,21.897489046325685,47.92893095367432,22.071069046325682Q48.102520953674315,22.244659046325683,48.28441095367432,22.409509046325685Q48.46630095367431,22.574369046325685,48.656070953674316,22.730109046325683Q48.845830953674316,22.885839046325685,49.04301095367432,23.032079046325684Q49.24018095367432,23.178309046325683,49.444300953674315,23.314699046325686Q49.648410953674315,23.45107904632568,49.858970953674316,23.57728904632568Q50.06953095367432,23.703489046325686,50.28603095367431,23.819209046325682Q50.50253095367432,23.93493904632568,50.724450953674314,24.039899046325683Q50.946360953674315,24.14484904632568,51.17316095367432,24.23879904632568Q51.39996095367432,24.332739046325685,51.63110095367432,24.415439046325684Q51.862240953674316,24.498149046325686,52.097150953674316,24.56940904632568Q52.33207095367432,24.640669046325684,52.570200953674316,24.70031904632568Q52.808330953674314,24.759959046325683,53.04910095367431,24.80785904632568Q53.28987095367432,24.855749046325684,53.53269095367432,24.891769046325685Q53.77552095367432,24.927789046325685,54.019830953674315,24.951849046325684Q54.26413095367432,24.975909046325683,54.50932095367432,24.987959046325685Q54.75451095367431,24.999999046325684,55.000000953674316,24.999999046325684L55.000000953674316,19.999999046325684Q54.877260953674316,19.999999046325684,54.75466095367432,19.993979046325684Q54.632070953674315,19.987959046325685,54.509910953674314,19.975929046325682Q54.38776095367432,19.963889046325683,54.26635095367432,19.945879046325683Q54.14493095367432,19.927869046325682,54.024550953674314,19.903929046325683Q53.904160953674314,19.879979046325683,53.785100953674316,19.850159046325683Q53.666030953674316,19.820329046325682,53.54858095367432,19.784699046325684Q53.431120953674316,19.749069046325683,53.31555095367432,19.707719046325685Q53.19998095367431,19.666369046325684,53.086580953674314,19.619399046325682Q52.973180953674316,19.572429046325684,52.86222095367432,19.519949046325685Q52.751270953674315,19.467469046325682,52.643020953674316,19.409609046325684Q52.53477095367432,19.351749046325683,52.42949095367432,19.288639046325684Q52.324200953674314,19.225539046325682,52.222150953674316,19.157349046325685Q52.120090953674314,19.089159046325683,52.02150095367432,19.016039046325684Q51.92291095367432,18.942919046325684,51.828030953674315,18.865049046325684Q51.73315095367432,18.787189046325683,51.64220095367432,18.704759046325684Q51.551260953674316,18.62232904632568,51.464470953674315,18.535539046325685Q51.37767095367432,18.448739046325684,51.295240953674316,18.357799046325685Q51.212810953674314,18.26684904632568,51.13495095367432,18.171969046325685Q51.057080953674316,18.077089046325682,50.98396095367431,17.978499046325684Q50.91084095367432,17.879909046325682,50.842650953674315,17.777849046325684Q50.774460953674314,17.675799046325682,50.711360953674316,17.570509046325682Q50.648250953674314,17.465229046325682,50.590390953674316,17.356989046325683Q50.53253095367432,17.248739046325685,50.480050953674315,17.137779046325683Q50.42757095367432,17.026819046325684,50.38060095367432,16.913419046325682Q50.333630953674316,16.800019046325684,50.292280953674315,16.684449046325682Q50.25093095367431,16.568879046325684,50.215300953674316,16.451429046325682Q50.17967095367432,16.333969046325684,50.149840953674314,16.214899046325684Q50.12002095367431,16.095839046325683,50.096070953674314,15.975452046325683Q50.07213095367432,15.855068046325684,50.054120953674314,15.733653046325683Q50.03611095367432,15.612239046325683,50.024080953674314,15.490087046325684Q50.01205095367432,15.367934046325683,50.006020953674316,15.245339046325684Q50.000000953674316,15.122744046325684,50.000000953674316,15.000000953675684Z" fill-rule="evenodd" fill="#04AAEB" fill-opacity="1"/></g></g><g><g><path d="M61.35209302734375,25.000003814697266L55.99310302734375,5.000003814697266L61.16956302734375,5.000003814697266L63.98624302734375,15.512003814697266L66.76400302734375,5.145229814697266L66.72510302734375,5.000003814697266L71.97940302734375,5.000003814697266L71.94050302734375,5.145229814697266L75.05140302734375,16.755403814697267L76.48800302734375,11.393893814697265L81.31700302734374,12.687803814697265L78.01790302734375,25.000003814697266L72.08410302734376,25.000003814697266L69.35220302734375,14.804623814697266L66.62040302734376,25.000003814697266L61.35209302734375,25.000003814697266Z" fill-rule="evenodd" fill="url(#master_svg0_136_870)" fill-opacity="1"/></g><g><ellipse cx="80.19306969642639" cy="7.499997138977051" rx="2.500000238418579" ry="2.500000476837158" fill="#969696" fill-opacity="1"/></g></g><g><g><ellipse cx="98.49997735023499" cy="7.499996662139893" rx="2.500000238418579" ry="2.500000476837158" fill="#969696" fill-opacity="1"/></g><g><path d="M84.99996185302734,4.999988555908203L89.99996185302734,4.999988555908203L89.99996185302734,12.548468555908203L93.64920185302735,8.899228555908202L97.18476185302734,12.434758555908203L92.32770185302735,17.291788555908205L100.03586185302734,24.999988555908203L92.96482185302735,24.999988555908203L89.99996185302734,22.035088555908203L89.99996185302734,24.999988555908203L84.99996185302734,24.999988555908203L84.99996185302734,4.999988555908203Z" fill-rule="evenodd" fill="url(#master_svg1_136_934)" fill-opacity="1"/></g></g></g><g><path d="M37.2304,27.996796185302735L36.968,27.996796185302735L36.6736,27.167996185302734L35.771198,27.167996185302734L35.476798,27.996796185302735L35.214398,27.996796185302735L36.0912,25.571196185302735L36.3504,25.571196185302735L37.2304,27.996796185302735ZM36.2128,25.932796185302735L35.857598,26.931196185302735L36.5872,26.931196185302735L36.232,25.932796185302735L36.2128,25.932796185302735ZM40.4944,27.631996185302736Q40.3664,27.823996185302732,40.1568,27.932796185302735Q39.9472,28.041596185302733,39.688,28.041596185302733Q39.3616,28.041596185302733,39.1152,27.883196185302733Q38.8688,27.724796185302736,38.7328,27.436796185302732Q38.5968,27.148796185302736,38.5968,26.771196185302735Q38.5968,26.399996185302733,38.7328,26.118396185302736Q38.8688,25.836796185302735,39.1152,25.681596185302734Q39.3616,25.526396185302733,39.688,25.526396185302733Q39.9408,25.526396185302733,40.1552,25.635196185302735Q40.3696,25.743996185302734,40.4944,25.935996185302734L40.296,26.076796185302733Q40.196799999999996,25.932796185302735,40.0272,25.846396185302734Q39.8576,25.759996185302736,39.6848,25.759996185302736Q39.4384,25.759996185302736,39.2496,25.886396185302733Q39.0608,26.012796185302733,38.9568,26.241596185302733Q38.8528,26.470396185302736,38.8528,26.771196185302735Q38.8528,27.078396185302733,38.9568,27.313596185302735Q39.0608,27.548796185302734,39.2496,27.678396185302734Q39.4384,27.807996185302734,39.6848,27.807996185302734Q39.8608,27.807996185302734,40.024,27.721596185302733Q40.1872,27.635196185302735,40.296,27.484796185302734L40.4944,27.631996185302736ZM41.5632,28.041596185302733Q41.3328,28.041596185302733,41.1584,27.932796185302735Q40.984,27.823996185302732,40.8896,27.622396185302733Q40.7952,27.420796185302734,40.7952,27.151996185302735Q40.7952,26.883196185302733,40.8896,26.681596185302734Q40.984,26.479996185302735,41.1584,26.371196185302736Q41.3328,26.262396185302734,41.5632,26.262396185302734Q41.7936,26.262396185302734,41.968,26.371196185302736Q42.1424,26.479996185302735,42.2368,26.681596185302734Q42.3312,26.883196185302733,42.3312,27.151996185302735Q42.3312,27.420796185302734,42.2368,27.622396185302733Q42.1424,27.823996185302732,41.968,27.932796185302735Q41.7936,28.041596185302733,41.5632,28.041596185302733ZM41.5632,27.817596185302733Q41.8,27.817596185302733,41.944,27.636796185302735Q42.088,27.455996185302734,42.088,27.151996185302735Q42.088,26.847996185302733,41.944,26.667196185302736Q41.8,26.486396185302734,41.5632,26.486396185302734Q41.3264,26.486396185302734,41.1824,26.667196185302736Q41.0384,26.847996185302733,41.0384,27.151996185302735Q41.0384,27.455996185302734,41.1824,27.636796185302735Q41.3264,27.817596185302733,41.5632,27.817596185302733ZM42.616,26.639996185302735L43.6016,26.639996185302735L43.6016,26.863996185302735L42.616,26.863996185302735L42.616,26.639996185302735ZM44.6768,28.044796185302733Q44.4368,28.044796185302733,44.2592,27.932796185302735Q44.0816,27.820796185302733,43.984,27.617596185302734Q43.8864,27.414396185302735,43.8864,27.148796185302736Q43.8864,26.886396185302736,43.984,26.686396185302733Q44.0816,26.486396185302734,44.2592,26.375996185302736Q44.4368,26.265596185302734,44.6768,26.265596185302734Q44.8592,26.265596185302734,45.028800000000004,26.361596185302734Q45.1984,26.457596185302734,45.2976,26.617596185302734L45.112,26.748796185302734Q45.038399999999996,26.627196185302733,44.9184,26.558396185302733Q44.7984,26.489596185302734,44.6608,26.489596185302734Q44.504,26.489596185302734,44.384,26.572796185302735Q44.263999999999996,26.655996185302733,44.196799999999996,26.804796185302735Q44.129599999999996,26.953596185302736,44.129599999999996,27.148796185302736Q44.129599999999996,27.347196185302735,44.1952,27.499196185302736Q44.2608,27.651196185302734,44.3808,27.735996185302735Q44.5008,27.820796185302733,44.6576,27.820796185302733Q44.7952,27.820796185302733,44.9168,27.751996185302733Q45.038399999999996,27.683196185302734,45.112,27.561596185302733L45.2976,27.692796185302733Q45.1984,27.852796185302733,45.028800000000004,27.948796185302733Q44.8592,28.044796185302733,44.6768,28.044796185302733ZM45.6656,27.996796185302735L45.6656,26.307196185302736L45.9024,26.307196185302736L45.9024,26.646396185302734L45.9184,26.646396185302734Q46.0208,26.470396185302736,46.187200000000004,26.366396185302733Q46.3536,26.262396185302734,46.5616,26.262396185302734L46.587199999999996,26.262396185302734L46.587199999999996,26.518396185302734L46.5552,26.518396185302734Q46.36,26.518396185302734,46.2112,26.590396185302733Q46.0624,26.662396185302736,45.9824,26.779196185302734Q45.9024,26.895996185302735,45.9024,27.023996185302735L45.9024,27.996796185302735L45.6656,27.996796185302735ZM48.2192,27.020796185302736Q48.2192,27.123196185302735,48.2,27.219196185302735L46.9776,27.219196185302735Q46.9936,27.494396185302733,47.1424,27.657596185302733Q47.2912,27.820796185302733,47.5312,27.820796185302733Q47.672,27.820796185302733,47.7936,27.753596185302733Q47.9152,27.686396185302733,47.9952,27.558396185302733L48.184,27.686396185302733Q48.0784,27.855996185302736,47.9136,27.947196185302733Q47.7488,28.038396185302734,47.5312,28.038396185302734Q47.288,28.038396185302734,47.1072,27.931196185302735Q46.9264,27.823996185302732,46.8304,27.623996185302733Q46.7344,27.423996185302734,46.7344,27.155196185302735Q46.7344,26.883196185302733,46.8272,26.681596185302734Q46.92,26.479996185302735,47.0928,26.371196185302736Q47.2656,26.262396185302734,47.4992,26.262396185302734Q47.8288,26.262396185302734,48.024,26.468796185302736Q48.2192,26.675196185302735,48.2192,27.020796185302736ZM47.976,27.004796185302734Q47.976,26.767996185302735,47.8448,26.623996185302733Q47.7136,26.479996185302735,47.4992,26.479996185302735Q47.294399999999996,26.479996185302735,47.1584,26.620796185302734Q47.0224,26.761596185302736,46.9872,27.004796185302734L47.976,27.004796185302734ZM49.0576,28.041596185302733Q48.808,28.041596185302733,48.664,27.915196185302733Q48.519999999999996,27.788796185302736,48.519999999999996,27.577596185302735Q48.519999999999996,27.033596185302734,49.368,27.033596185302734L49.617599999999996,27.033596185302734L49.617599999999996,26.879996185302733Q49.617599999999996,26.694396185302736,49.5088,26.587196185302734Q49.4,26.479996185302735,49.2112,26.479996185302735Q48.9968,26.479996185302735,48.7792,26.662396185302736L48.638400000000004,26.499196185302736Q48.8912,26.262396185302734,49.224000000000004,26.262396185302734Q49.5184,26.262396185302734,49.688,26.419196185302734Q49.8576,26.575996185302735,49.8576,26.847996185302733L49.8576,27.996796185302735L49.617599999999996,27.996796185302735L49.617599999999996,27.740796185302735L49.6016,27.740796185302735Q49.5248,27.878396185302734,49.376,27.959996185302735Q49.227199999999996,28.041596185302733,49.0576,28.041596185302733ZM49.099199999999996,27.823996185302732Q49.2176,27.823996185302732,49.3376,27.771196185302735Q49.4576,27.718396185302733,49.5376,27.611196185302735Q49.617599999999996,27.503996185302736,49.617599999999996,27.353596185302735L49.617599999999996,27.251196185302735L49.412800000000004,27.251196185302735Q49.08,27.251196185302735,48.9216,27.327996185302734Q48.7632,27.404796185302736,48.7632,27.561596185302733Q48.7632,27.683196185302734,48.8528,27.753596185302733Q48.9424,27.823996185302732,49.099199999999996,27.823996185302732ZM51.1312,26.531196185302733L50.6416,26.531196185302733L50.6416,27.526396185302733Q50.6416,27.673596185302735,50.715199999999996,27.755196185302733Q50.7888,27.836796185302735,50.92,27.836796185302735Q50.9872,27.836796185302735,51.0928,27.801596185302735L51.0928,28.022396185302735Q51.0064,28.057596185302735,50.872,28.057596185302735Q50.644800000000004,28.057596185302735,50.5232,27.924796185302736Q50.4016,27.791996185302736,50.4016,27.545596185302735L50.4016,26.531196185302733L50.135999999999996,26.531196185302733L50.135999999999996,26.307196185302736L50.4016,26.307196185302736L50.4016,25.779196185302734L50.6416,25.779196185302734L50.6416,26.307196185302736L51.1312,26.307196185302736L51.1312,26.531196185302733ZM52.8048,27.020796185302736Q52.8048,27.123196185302735,52.7856,27.219196185302735L51.563199999999995,27.219196185302735Q51.5792,27.494396185302733,51.728,27.657596185302733Q51.8768,27.820796185302733,52.1168,27.820796185302733Q52.2576,27.820796185302733,52.3792,27.753596185302733Q52.5008,27.686396185302733,52.580799999999996,27.558396185302733L52.7696,27.686396185302733Q52.664,27.855996185302736,52.4992,27.947196185302733Q52.3344,28.038396185302734,52.1168,28.038396185302734Q51.873599999999996,28.038396185302734,51.6928,27.931196185302735Q51.512,27.823996185302732,51.416,27.623996185302733Q51.32,27.423996185302734,51.32,27.155196185302735Q51.32,26.883196185302733,51.412800000000004,26.681596185302734Q51.5056,26.479996185302735,51.678399999999996,26.371196185302736Q51.8512,26.262396185302734,52.0848,26.262396185302734Q52.4144,26.262396185302734,52.6096,26.468796185302736Q52.8048,26.675196185302735,52.8048,27.020796185302736ZM52.5616,27.004796185302734Q52.5616,26.767996185302735,52.4304,26.623996185302733Q52.2992,26.479996185302735,52.0848,26.479996185302735Q51.879999999999995,26.479996185302735,51.744,26.620796185302734Q51.608000000000004,26.761596185302736,51.5728,27.004796185302734L52.5616,27.004796185302734ZM54.632000000000005,27.996796185302735L54.3952,27.996796185302735L54.3952,27.727996185302736L54.376000000000005,27.727996185302736Q54.2928,27.878396185302734,54.152,27.959996185302735Q54.0112,28.041596185302733,53.8352,28.041596185302733Q53.6272,28.041596185302733,53.4608,27.924796185302736Q53.294399999999996,27.807996185302734,53.2,27.601596185302736Q53.105599999999995,27.395196185302733,53.105599999999995,27.135996185302734Q53.105599999999995,26.883196185302733,53.2,26.683196185302734Q53.294399999999996,26.483196185302734,53.4608,26.372796185302736Q53.6272,26.262396185302734,53.8352,26.262396185302734Q53.998400000000004,26.262396185302734,54.1392,26.345596185302735Q54.28,26.428796185302733,54.376000000000005,26.575996185302735L54.3952,26.575996185302735L54.3952,25.571196185302735L54.632000000000005,25.571196185302735L54.632000000000005,27.996796185302735ZM54.4016,27.151996185302735Q54.4016,26.963196185302735,54.3344,26.812796185302734Q54.2672,26.662396185302736,54.1488,26.579196185302735Q54.0304,26.495996185302733,53.879999999999995,26.495996185302733Q53.7264,26.495996185302733,53.6064,26.579196185302735Q53.4864,26.662396185302736,53.4176,26.811196185302734Q53.3488,26.959996185302735,53.3488,27.151996185302735Q53.3488,27.343996185302736,53.4176,27.492796185302733Q53.4864,27.641596185302735,53.6096,27.724796185302736Q53.7328,27.807996185302734,53.8896,27.807996185302734Q54.0368,27.807996185302734,54.1536,27.724796185302736Q54.270399999999995,27.641596185302735,54.336,27.492796185302733Q54.4016,27.343996185302736,54.4016,27.151996185302735ZM56.705600000000004,27.996796185302735L56.0496,25.571196185302735L56.312,25.571196185302735L56.84,27.548796185302734L56.8592,27.548796185302734L57.406400000000005,25.571196185302735L57.668800000000005,25.571196185302735L58.2192,27.548796185302734L58.2352,27.548796185302734L58.7632,25.571196185302735L59.028800000000004,25.571196185302735L58.3696,27.996796185302735L58.1104,27.996796185302735L57.547200000000004,25.999996185302734L57.528,25.999996185302734L56.9648,27.996796185302735L56.705600000000004,27.996796185302735ZM59.623999999999995,25.692796185302733Q59.623999999999995,25.769596185302735,59.577600000000004,25.814396185302733Q59.5312,25.859196185302736,59.4544,25.859196185302736Q59.3776,25.859196185302736,59.3344,25.814396185302733Q59.2912,25.769596185302735,59.2912,25.692796185302733Q59.2912,25.615996185302734,59.3344,25.571196185302735Q59.3776,25.526396185302733,59.4544,25.526396185302733Q59.5312,25.526396185302733,59.577600000000004,25.571196185302735Q59.623999999999995,25.615996185302734,59.623999999999995,25.692796185302733ZM59.576,26.307196185302736L59.576,27.999996185302734L59.339200000000005,27.999996185302734L59.339200000000005,26.307196185302736L59.576,26.307196185302736ZM61.4256,27.996796185302735L61.128,27.996796185302735L60.4688,27.180796185302736L60.315200000000004,27.324796185302734L60.315200000000004,27.996796185302735L60.0784,27.996796185302735L60.0784,25.571196185302735L60.315200000000004,25.571196185302735L60.315200000000004,27.017596185302736L61.0512,26.307196185302736L61.384,26.307196185302736L60.638400000000004,27.020796185302736L61.4256,27.996796185302735ZM62.0112,25.692796185302733Q62.0112,25.769596185302735,61.9648,25.814396185302733Q61.9184,25.859196185302736,61.8416,25.859196185302736Q61.7648,25.859196185302736,61.721599999999995,25.814396185302733Q61.678399999999996,25.769596185302735,61.678399999999996,25.692796185302733Q61.678399999999996,25.615996185302734,61.721599999999995,25.571196185302735Q61.7648,25.526396185302733,61.8416,25.526396185302733Q61.9184,25.526396185302733,61.9648,25.571196185302735Q62.0112,25.615996185302734,62.0112,25.692796185302733ZM61.9632,26.307196185302736L61.9632,27.999996185302734L61.7264,27.999996185302734L61.7264,26.307196185302736L61.9632,26.307196185302736ZM63.6048,27.996796185302735L63.6048,25.571196185302735L63.8416,25.571196185302735L63.8416,26.572796185302735L63.857600000000005,26.572796185302735Q63.9504,26.428796185302733,64.09440000000001,26.347196185302735Q64.2384,26.265596185302734,64.408,26.265596185302734Q64.6128,26.265596185302734,64.7776,26.375996185302736Q64.94239999999999,26.486396185302734,65.0352,26.681596185302734Q65.128,26.876796185302734,65.128,27.126396185302735Q65.128,27.388796185302734,65.0352,27.596796185302736Q64.94239999999999,27.804796185302735,64.7776,27.921596185302736Q64.6128,28.038396185302734,64.408,28.038396185302734Q64.2288,28.038396185302734,64.0864,27.956796185302736Q63.944,27.875196185302734,63.857600000000005,27.727996185302736L63.8416,27.727996185302736L63.8416,27.996796185302735L63.6048,27.996796185302735ZM63.832,27.151996185302735Q63.832,27.340796185302736,63.8976,27.491196185302734Q63.9632,27.641596185302735,64.08160000000001,27.724796185302736Q64.2,27.807996185302734,64.3472,27.807996185302734Q64.5008,27.807996185302734,64.624,27.724796185302736Q64.74719999999999,27.641596185302735,64.816,27.491196185302734Q64.8848,27.340796185302736,64.8848,27.151996185302735Q64.8848,26.963196185302735,64.8176,26.814396185302733Q64.7504,26.665596185302736,64.6288,26.582396185302734Q64.5072,26.499196185302736,64.3536,26.499196185302736Q64.2032,26.499196185302736,64.0848,26.582396185302734Q63.9664,26.665596185302736,63.8992,26.814396185302733Q63.832,26.963196185302735,63.832,27.151996185302735ZM65.9152,27.996796185302735L65.256,26.307196185302736L65.5248,26.307196185302736L66.0496,27.699196185302736L66.0688,27.699196185302736L66.5744,26.307196185302736L66.8432,26.307196185302736L65.8928,28.764796185302735L65.6272,28.764796185302735L65.9152,27.996796185302735ZM68.9584,28.041596185302733Q68.6832,28.041596185302733,68.4576,27.921596185302736Q68.232,27.801596185302735,68.0976,27.574396185302735L68.30879999999999,27.446396185302735Q68.4144,27.625596185302733,68.5824,27.716796185302734Q68.7504,27.807996185302734,68.9616,27.807996185302734Q69.1248,27.807996185302734,69.2544,27.753596185302733Q69.384,27.699196185302736,69.4576,27.601596185302736Q69.5312,27.503996185302736,69.5312,27.382396185302735Q69.5312,27.254396185302735,69.46719999999999,27.167996185302734Q69.4032,27.081596185302736,69.2704,27.015996185302733Q69.13759999999999,26.950396185302733,68.9072,26.886396185302736Q68.664,26.815996185302733,68.512,26.745596185302734Q68.36,26.675196185302735,68.2576,26.542396185302735Q68.15520000000001,26.409596185302735,68.15520000000001,26.195196185302734Q68.15520000000001,26.003196185302734,68.2576,25.849596185302733Q68.36,25.695996185302736,68.54560000000001,25.611196185302735Q68.7312,25.526396185302733,68.97120000000001,25.526396185302733Q69.2336,25.526396185302733,69.43039999999999,25.635196185302735Q69.6272,25.743996185302734,69.7552,25.939196185302734L69.56,26.079996185302733Q69.4512,25.932796185302735,69.29599999999999,25.846396185302734Q69.1408,25.759996185302736,68.9648,25.759996185302736Q68.8112,25.759996185302736,68.6832,25.814396185302733Q68.5552,25.868796185302735,68.4816,25.964796185302735Q68.408,26.060796185302735,68.408,26.175996185302733Q68.408,26.323196185302734,68.4896,26.417596185302735Q68.5712,26.511996185302735,68.696,26.563196185302733Q68.82079999999999,26.614396185302734,69.0256,26.668796185302735Q69.2656,26.735996185302735,69.4272,26.815996185302733Q69.58879999999999,26.895996185302735,69.68639999999999,27.030396185302735Q69.78399999999999,27.164796185302734,69.78399999999999,27.369596185302733Q69.78399999999999,27.574396185302735,69.6832,27.726396185302733Q69.5824,27.878396185302734,69.3952,27.959996185302735Q69.208,28.041596185302733,68.9584,28.041596185302733ZM70.9904,26.531196185302733L70.5008,26.531196185302733L70.5008,27.526396185302733Q70.5008,27.673596185302735,70.5744,27.755196185302733Q70.648,27.836796185302735,70.7792,27.836796185302735Q70.8464,27.836796185302735,70.952,27.801596185302735L70.952,28.022396185302735Q70.8656,28.057596185302735,70.7312,28.057596185302735Q70.50399999999999,28.057596185302735,70.38239999999999,27.924796185302736Q70.2608,27.791996185302736,70.2608,27.545596185302735L70.2608,26.531196185302733L69.9952,26.531196185302733L69.9952,26.307196185302736L70.2608,26.307196185302736L70.2608,25.779196185302734L70.5008,25.779196185302734L70.5008,26.307196185302736L70.9904,26.307196185302736L70.9904,26.531196185302733ZM72.664,27.020796185302736Q72.664,27.123196185302735,72.6448,27.219196185302735L71.42240000000001,27.219196185302735Q71.4384,27.494396185302733,71.5872,27.657596185302733Q71.73599999999999,27.820796185302733,71.976,27.820796185302733Q72.1168,27.820796185302733,72.2384,27.753596185302733Q72.36,27.686396185302733,72.44,27.558396185302733L72.6288,27.686396185302733Q72.5232,27.855996185302736,72.3584,27.947196185302733Q72.1936,28.038396185302734,71.976,28.038396185302734Q71.7328,28.038396185302734,71.55199999999999,27.931196185302735Q71.3712,27.823996185302732,71.2752,27.623996185302733Q71.17920000000001,27.423996185302734,71.17920000000001,27.155196185302735Q71.17920000000001,26.883196185302733,71.27199999999999,26.681596185302734Q71.3648,26.479996185302735,71.5376,26.371196185302736Q71.71039999999999,26.262396185302734,71.944,26.262396185302734Q72.2736,26.262396185302734,72.4688,26.468796185302736Q72.664,26.675196185302735,72.664,27.020796185302736ZM72.4208,27.004796185302734Q72.4208,26.767996185302735,72.28960000000001,26.623996185302733Q72.1584,26.479996185302735,71.944,26.479996185302735Q71.7392,26.479996185302735,71.6032,26.620796185302734Q71.46719999999999,26.761596185302736,71.432,27.004796185302734L72.4208,27.004796185302734ZM73.048,25.571196185302735L73.28479999999999,25.571196185302735L73.28479999999999,27.663996185302736Q73.28479999999999,27.801596185302735,73.41919999999999,27.801596185302735L73.50880000000001,27.801596185302735L73.50880000000001,28.022396185302735L73.368,28.022396185302735Q73.048,28.022396185302735,73.048,27.727996185302736L73.048,25.571196185302735ZM73.8288,25.571196185302735L74.0656,25.571196185302735L74.0656,27.663996185302736Q74.0656,27.801596185302735,74.2,27.801596185302735L74.28960000000001,27.801596185302735L74.28960000000001,28.022396185302735L74.1488,28.022396185302735Q73.8288,28.022396185302735,73.8288,27.727996185302736L73.8288,25.571196185302735ZM75.064,28.041596185302733Q74.8144,28.041596185302733,74.6704,27.915196185302733Q74.5264,27.788796185302736,74.5264,27.577596185302735Q74.5264,27.033596185302734,75.37440000000001,27.033596185302734L75.624,27.033596185302734L75.624,26.879996185302733Q75.624,26.694396185302736,75.5152,26.587196185302734Q75.40639999999999,26.479996185302735,75.2176,26.479996185302735Q75.00319999999999,26.479996185302735,74.7856,26.662396185302736L74.6448,26.499196185302736Q74.8976,26.262396185302734,75.2304,26.262396185302734Q75.5248,26.262396185302734,75.6944,26.419196185302734Q75.864,26.575996185302735,75.864,26.847996185302733L75.864,27.996796185302735L75.624,27.996796185302735L75.624,27.740796185302735L75.608,27.740796185302735Q75.5312,27.878396185302734,75.38239999999999,27.959996185302735Q75.2336,28.041596185302733,75.064,28.041596185302733ZM75.10560000000001,27.823996185302732Q75.22399999999999,27.823996185302732,75.344,27.771196185302735Q75.464,27.718396185302733,75.544,27.611196185302735Q75.624,27.503996185302736,75.624,27.353596185302735L75.624,27.251196185302735L75.41919999999999,27.251196185302735Q75.0864,27.251196185302735,74.928,27.327996185302734Q74.7696,27.404796185302736,74.7696,27.561596185302733Q74.7696,27.683196185302734,74.8592,27.753596185302733Q74.9488,27.823996185302732,75.10560000000001,27.823996185302732ZM76.312,27.996796185302735L76.312,26.307196185302736L76.5488,26.307196185302736L76.5488,26.646396185302734L76.56479999999999,26.646396185302734Q76.66720000000001,26.470396185302736,76.83359999999999,26.366396185302733Q77,26.262396185302734,77.208,26.262396185302734L77.2336,26.262396185302734L77.2336,26.518396185302734L77.2016,26.518396185302734Q77.0064,26.518396185302734,76.85759999999999,26.590396185302733Q76.7088,26.662396185302736,76.6288,26.779196185302734Q76.5488,26.895996185302735,76.5488,27.023996185302735L76.5488,27.996796185302735L76.312,27.996796185302735ZM78.9136,27.996796185302735L78.66720000000001,27.996796185302735L78.66720000000001,25.571196185302735L78.92320000000001,25.571196185302735L80.2256,27.555196185302734L80.2416,27.555196185302734L80.2416,25.571196185302735L80.488,25.571196185302735L80.488,27.996796185302735L80.232,27.996796185302735L78.9296,26.009596185302733L78.9136,26.009596185302733L78.9136,27.996796185302735ZM82.3792,27.020796185302736Q82.3792,27.123196185302735,82.36,27.219196185302735L81.13759999999999,27.219196185302735Q81.1536,27.494396185302733,81.3024,27.657596185302733Q81.4512,27.820796185302733,81.69120000000001,27.820796185302733Q81.832,27.820796185302733,81.9536,27.753596185302733Q82.0752,27.686396185302733,82.15520000000001,27.558396185302733L82.344,27.686396185302733Q82.2384,27.855996185302736,82.0736,27.947196185302733Q81.9088,28.038396185302734,81.69120000000001,28.038396185302734Q81.44800000000001,28.038396185302734,81.2672,27.931196185302735Q81.0864,27.823996185302732,80.9904,27.623996185302733Q80.89439999999999,27.423996185302734,80.89439999999999,27.155196185302735Q80.89439999999999,26.883196185302733,80.9872,26.681596185302734Q81.08,26.479996185302735,81.25280000000001,26.371196185302736Q81.4256,26.262396185302734,81.6592,26.262396185302734Q81.9888,26.262396185302734,82.184,26.468796185302736Q82.3792,26.675196185302735,82.3792,27.020796185302736ZM82.136,27.004796185302734Q82.136,26.767996185302735,82.0048,26.623996185302733Q81.87360000000001,26.479996185302735,81.6592,26.479996185302735Q81.45439999999999,26.479996185302735,81.3184,26.620796185302734Q81.1824,26.761596185302736,81.1472,27.004796185302734L82.136,27.004796185302734ZM83.4,27.139196185302733L83.9952,27.996796185302735L83.70400000000001,27.996796185302735L83.25280000000001,27.311996185302736L82.7984,27.996796185302735L82.5104,27.996796185302735L83.1216,27.116796185302736L82.55199999999999,26.307196185302736L82.84,26.307196185302736L83.2752,26.953596185302736L83.69120000000001,26.307196185302736L83.9728,26.307196185302736L83.4,27.139196185302733ZM85.5952,26.307196185302736L85.5952,27.996796185302735L85.3584,27.996796185302735L85.3584,27.740796185302735L85.3392,27.740796185302735Q85.2624,27.878396185302734,85.11359999999999,27.959996185302735Q84.9648,28.041596185302733,84.7984,28.041596185302733Q84.5168,28.041596185302733,84.3584,27.867196185302735Q84.2,27.692796185302733,84.2,27.375996185302736L84.2,26.307196185302736L84.4368,26.307196185302736L84.4368,27.337596185302736Q84.4368,27.561596185302733,84.5536,27.692796185302733Q84.6704,27.823996185302732,84.8592,27.823996185302732Q85.08,27.823996185302732,85.2192,27.679996185302734Q85.3584,27.535996185302736,85.3584,27.308796185302736L85.3584,26.307196185302736L85.5952,26.307196185302736ZM86.60640000000001,28.041596185302733Q86.3664,28.041596185302733,86.1936,27.940796185302734Q86.02080000000001,27.839996185302734,85.928,27.667196185302736L86.12960000000001,27.548796185302734Q86.2064,27.679996185302734,86.3296,27.751996185302733Q86.4528,27.823996185302732,86.6128,27.823996185302732Q86.7856,27.823996185302732,86.88640000000001,27.755196185302733Q86.9872,27.686396185302733,86.9872,27.567996185302736Q86.9872,27.455996185302734,86.888,27.385596185302735Q86.78880000000001,27.315196185302735,86.56479999999999,27.267196185302733Q86.2704,27.196796185302734,86.1248,27.081596185302736Q85.97919999999999,26.966396185302735,85.97919999999999,26.777596185302734Q85.97919999999999,26.540796185302735,86.144,26.401596185302733Q86.30879999999999,26.262396185302734,86.59360000000001,26.262396185302734Q86.8048,26.262396185302734,86.9664,26.353596185302735Q87.128,26.444796185302735,87.2336,26.614396185302734L87.04480000000001,26.748796185302734Q86.9616,26.617596185302734,86.84479999999999,26.548796185302734Q86.72800000000001,26.479996185302735,86.5904,26.479996185302735Q86.424,26.479996185302735,86.32480000000001,26.553596185302734Q86.2256,26.627196185302733,86.2256,26.748796185302734Q86.2256,26.854396185302733,86.33279999999999,26.927996185302735Q86.44,27.001596185302734,86.65440000000001,27.052796185302736Q87.2304,27.177596185302733,87.2304,27.529596185302733Q87.2304,27.766396185302735,87.0624,27.903996185302734Q86.89439999999999,28.041596185302733,86.60640000000001,28.041596185302733ZM88.9744,27.996796185302735L88.72800000000001,27.996796185302735L88.72800000000001,25.571196185302735L88.98400000000001,25.571196185302735L90.2864,27.555196185302734L90.3024,27.555196185302734L90.3024,25.571196185302735L90.5488,25.571196185302735L90.5488,27.996796185302735L90.2928,27.996796185302735L88.9904,26.009596185302733L88.9744,26.009596185302733L88.9744,27.996796185302735ZM92.44,27.020796185302736Q92.44,27.123196185302735,92.4208,27.219196185302735L91.19839999999999,27.219196185302735Q91.2144,27.494396185302733,91.3632,27.657596185302733Q91.512,27.820796185302733,91.75200000000001,27.820796185302733Q91.8928,27.820796185302733,92.0144,27.753596185302733Q92.136,27.686396185302733,92.21600000000001,27.558396185302733L92.4048,27.686396185302733Q92.2992,27.855996185302736,92.1344,27.947196185302733Q91.9696,28.038396185302734,91.75200000000001,28.038396185302734Q91.50880000000001,28.038396185302734,91.328,27.931196185302735Q91.1472,27.823996185302732,91.0512,27.623996185302733Q90.95519999999999,27.423996185302734,90.95519999999999,27.155196185302735Q90.95519999999999,26.883196185302733,91.048,26.681596185302734Q91.1408,26.479996185302735,91.31360000000001,26.371196185302736Q91.4864,26.262396185302734,91.72,26.262396185302734Q92.0496,26.262396185302734,92.2448,26.468796185302736Q92.44,26.675196185302735,92.44,27.020796185302736ZM92.1968,27.004796185302734Q92.1968,26.767996185302735,92.0656,26.623996185302733Q91.9344,26.479996185302735,91.72,26.479996185302735Q91.5152,26.479996185302735,91.3792,26.620796185302734Q91.2432,26.761596185302736,91.208,27.004796185302734L92.1968,27.004796185302734ZM93.64959999999999,26.531196185302733L93.16,26.531196185302733L93.16,27.526396185302733Q93.16,27.673596185302735,93.2336,27.755196185302733Q93.3072,27.836796185302735,93.4384,27.836796185302735Q93.5056,27.836796185302735,93.6112,27.801596185302735L93.6112,28.022396185302735Q93.5248,28.057596185302735,93.3904,28.057596185302735Q93.1632,28.057596185302735,93.0416,27.924796185302736Q92.92,27.791996185302736,92.92,27.545596185302735L92.92,26.531196185302733L92.65440000000001,26.531196185302733L92.65440000000001,26.307196185302736L92.92,26.307196185302736L92.92,25.779196185302734L93.16,25.779196185302734L93.16,26.307196185302736L93.64959999999999,26.307196185302736L93.64959999999999,26.531196185302733ZM94.2864,27.996796185302735L93.7264,26.307196185302736L93.9888,26.307196185302736L94.4048,27.670396185302735L94.4208,27.670396185302735L94.83359999999999,26.307196185302736L95.0928,26.307196185302736L95.50880000000001,27.670396185302735L95.5248,27.670396185302735L95.9408,26.307196185302736L96.2,26.307196185302736L95.64320000000001,27.996796185302735L95.3872,27.996796185302735L94.97120000000001,26.627196185302733L94.95519999999999,26.627196185302733L94.54560000000001,27.996796185302735L94.2864,27.996796185302735ZM97.10560000000001,28.041596185302733Q96.8752,28.041596185302733,96.7008,27.932796185302735Q96.5264,27.823996185302732,96.432,27.622396185302733Q96.33760000000001,27.420796185302734,96.33760000000001,27.151996185302735Q96.33760000000001,26.883196185302733,96.432,26.681596185302734Q96.5264,26.479996185302735,96.7008,26.371196185302736Q96.8752,26.262396185302734,97.10560000000001,26.262396185302734Q97.336,26.262396185302734,97.5104,26.371196185302736Q97.6848,26.479996185302735,97.7792,26.681596185302734Q97.87360000000001,26.883196185302733,97.87360000000001,27.151996185302735Q97.87360000000001,27.420796185302734,97.7792,27.622396185302733Q97.6848,27.823996185302732,97.5104,27.932796185302735Q97.336,28.041596185302733,97.10560000000001,28.041596185302733ZM97.10560000000001,27.817596185302733Q97.3424,27.817596185302733,97.4864,27.636796185302735Q97.63040000000001,27.455996185302734,97.63040000000001,27.151996185302735Q97.63040000000001,26.847996185302733,97.4864,26.667196185302736Q97.3424,26.486396185302734,97.10560000000001,26.486396185302734Q96.8688,26.486396185302734,96.7248,26.667196185302736Q96.58080000000001,26.847996185302733,96.58080000000001,27.151996185302735Q96.58080000000001,27.455996185302734,96.7248,27.636796185302735Q96.8688,27.817596185302733,97.10560000000001,27.817596185302733ZM98.2576,27.996796185302735L98.2576,26.307196185302736L98.4944,26.307196185302736L98.4944,26.646396185302734L98.5104,26.646396185302734Q98.6128,26.470396185302736,98.7792,26.366396185302733Q98.9456,26.262396185302734,99.1536,26.262396185302734L99.1792,26.262396185302734L99.1792,26.518396185302734L99.1472,26.518396185302734Q98.952,26.518396185302734,98.8032,26.590396185302733Q98.65440000000001,26.662396185302736,98.5744,26.779196185302734Q98.4944,26.895996185302735,98.4944,27.023996185302735L98.4944,27.996796185302735L98.2576,27.996796185302735ZM100.7984,27.996796185302735L100.5008,27.996796185302735L99.8416,27.180796185302736L99.688,27.324796185302734L99.688,27.996796185302735L99.4512,27.996796185302735L99.4512,25.571196185302735L99.688,25.571196185302735L99.688,27.017596185302736L100.424,26.307196185302736L100.7568,26.307196185302736L100.0112,27.020796185302736L100.7984,27.996796185302735Z" fill="url(#master_svg2_136_756)" fill-opacity="1"/></g></g><g transform="matrix(1,-2.2348336514710354e-8,2.2348336514710354e-8,1,-1.4652711252082222e-14,0)"><g><path d="M15,23.000000655651093L15,30.000000655651093Q14.2631,30.000000655651093,13.5297,29.927800655651094Q12.7964,29.855500655651092,12.0736,29.711800655651093Q11.3509,29.568000655651094,10.6457,29.35410065565109Q9.94056,29.140200655651093,9.25975,28.858200655651093Q8.57894,28.576200655651093,7.92905,28.228800655651092Q7.27916,27.881400655651092,6.66645,27.472000655651094Q6.05373,27.062600655651092,5.4841,26.59520065565109Q4.91447,26.127700655651093,4.3934,25.606600655651093Q3.87233,25.085500655651092,3.40484,24.51590065565109Q2.93736,23.946300655651093,2.52796,23.333600655651093Q2.11856,22.720800655651093,1.77118,22.071000655651094Q1.42381,21.42110065565109,1.14181,20.740300655651094Q0.859807,20.059400655651093,0.645895,19.35430065565109Q0.431984,18.649100655651093,0.288221,17.926400655651094Q0.144458,17.203600655651094,0.0722291,16.470300655651094Q0,15.736900655651093,0,15.000000655651093L7,15.000000655651093Q7,15.196400655651093,7.00964,15.392500655651093Q7.01927,15.588700655651092,7.03852,15.784100655651093Q7.05777,15.979600655651092,7.08659,16.173800655651092Q7.1154,16.36810065565109,7.15372,16.560700655651093Q7.19203,16.753300655651092,7.23975,16.943800655651092Q7.28747,17.134300655651092,7.34448,17.32230065565109Q7.40149,17.510200655651094,7.46765,17.695100655651093Q7.53381,17.88000065565109,7.60896,18.06150065565109Q7.68412,18.24290065565109,7.76809,18.420400655651093Q7.85205,18.59800065565109,7.94463,18.771200655651093Q8.03721,18.944400655651094,8.13817,19.112800655651093Q8.23913,19.281300655651094,8.34824,19.444600655651094Q8.45735,19.607900655651093,8.57434,19.76560065565109Q8.69133,19.923300655651094,8.81592,20.07510065565109Q8.9405,20.227000655651093,9.07239,20.37250065565109Q9.20428,20.518000655651093,9.34315,20.656900655651093Q9.48201,20.795700655651093,9.62753,20.927600655651094Q9.77304,21.059500655651092,9.92485,21.184100655651093Q10.0767,21.308700655651094,10.2344,21.42570065565109Q10.3921,21.542600655651093,10.5554,21.651800655651094Q10.7187,21.760900655651092,10.8872,21.86180065565109Q11.0556,21.962800655651094,11.2288,22.05540065565109Q11.402,22.147900655651092,11.5796,22.231900655651092Q11.7571,22.31590065565109,11.9385,22.39100065565109Q12.12,22.466200655651093,12.3049,22.53240065565109Q12.4898,22.598500655651094,12.6777,22.655500655651093Q12.8657,22.71250065565109,13.0562,22.760200655651094Q13.2467,22.808000655651092,13.4393,22.846300655651092Q13.6319,22.88460065565109,13.8262,22.913400655651092Q14.0204,22.942200655651092,14.2159,22.961500655651093Q14.4113,22.98070065565109,14.6075,22.990400655651094Q14.8036,23.000000655651093,15,23.000000655651093ZM23,15.000000655651093L30,15.000000655651093Q30,14.631800655651093,29.9819,14.264000655651092Q29.9639,13.896200655651093,29.9278,13.529700655651093Q29.8917,13.163300655651092,29.8376,12.799000655651092Q29.7836,12.434800655651092,29.7118,12.073600655651093Q29.6399,11.712500655651093,29.5505,11.355300655651092Q29.461,10.998100655651093,29.3541,10.645700655651092Q29.2472,10.293400655651093,29.1232,9.946650655651093Q28.9991,9.599950655651092,28.8582,9.259750655651093Q28.7173,8.919550655651092,28.5598,8.586670655651092Q28.4024,8.253800655651093,28.2288,7.929050655651093Q28.0552,7.604300655651093,27.8659,7.288460655651092Q27.6766,6.972620655651093,27.472,6.666450655651093Q27.2675,6.360270655651092,27.0481,6.064510655651093Q26.8288,5.768750655651092,26.5952,5.484100655651092Q26.3616,5.199450655651092,26.1143,4.926610655651093Q25.867,4.653780655651093,25.6066,4.393400655651092Q25.3462,4.133020655651093,25.0734,3.8857306556510927Q24.8005,3.6384506556510927,24.5159,3.4048406556510926Q24.2312,3.1712406556510926,23.9355,2.9518906556510927Q23.6397,2.7325306556510927,23.3335,2.5279606556510927Q23.0274,2.3233806556510923,22.7115,2.1340706556510924Q22.3957,1.9447606556510926,22.0709,1.7711806556510925Q21.7462,1.5976006556510924,21.4133,1.4401606556510926Q21.0804,1.2827206556510926,20.7402,1.1418106556510925Q20.4,1.0008906556510926,20.0533,0.8768396556510926Q19.7066,0.7527866556510925,19.3543,0.6458956556510925Q19.0019,0.5390046556510926,18.6447,0.44953165565109254Q18.2875,0.36005965565109255,17.9264,0.28822165565109253Q17.5652,0.21638365565109252,17.201,0.16235265565109253Q16.8367,0.10832265565109253,16.4703,0.07222975565109253Q16.1038,0.03613695565109253,15.736,0.01806885565109253Q15.3682,6.556510925292969e-7,15,6.556510925292969e-7L15,7.0000006556510925Q15.1964,7.0000006556510925,15.3925,7.009640655651093Q15.5887,7.019270655651092,15.7841,7.038520655651093Q15.9796,7.057770655651092,16.1738,7.086590655651093Q16.3681,7.115400655651093,16.5607,7.153720655651092Q16.7533,7.1920306556510925,16.9438,7.239750655651092Q17.1343,7.287470655651092,17.3223,7.344480655651092Q17.5102,7.401490655651092,17.6951,7.467650655651092Q17.88,7.533810655651092,18.0615,7.608960655651092Q18.2429,7.684120655651093,18.4204,7.7680906556510925Q18.598,7.852050655651093,18.7712,7.944630655651093Q18.9444,8.037210655651092,19.1128,8.138170655651093Q19.2813,8.239130655651092,19.4446,8.348240655651093Q19.6079,8.457350655651092,19.7656,8.574340655651092Q19.9233,8.691330655651093,20.0751,8.815920655651093Q20.227,8.940500655651093,20.3725,9.072390655651093Q20.518,9.204280655651093,20.6569,9.343150655651092Q20.7957,9.482010655651093,20.9276,9.627530655651093Q21.0595,9.773040655651092,21.1841,9.924850655651092Q21.3087,10.076700655651093,21.4257,10.234400655651093Q21.5426,10.392100655651092,21.6518,10.555400655651093Q21.7609,10.718700655651093,21.8618,10.887200655651093Q21.9628,11.055600655651093,22.0554,11.228800655651092Q22.1479,11.402000655651092,22.2319,11.579600655651092Q22.3159,11.757100655651092,22.391,11.938500655651092Q22.4662,12.120000655651092,22.5323,12.304900655651092Q22.5985,12.489800655651093,22.6555,12.677700655651092Q22.7125,12.865700655651093,22.7602,13.056200655651093Q22.808,13.246700655651093,22.8463,13.439300655651092Q22.8846,13.631900655651092,22.9134,13.826200655651093Q22.9422,14.020400655651093,22.9615,14.215900655651092Q22.9807,14.411300655651093,22.9904,14.607500655651092Q23,14.803600655651092,23,15.000000655651093Z" fill-rule="evenodd" fill="#04AAEB" fill-opacity="1"/></g><g><ellipse cx="14.999997615814209" cy="14.999999463558197" rx="2.999999523162842" ry="2.999999761581421" fill="#646464" fill-opacity="1"/></g><g><ellipse cx="6.749999046325684" cy="6.7500006556510925" rx="3.749999523162842" ry="3.750000238418579" fill="#323232" fill-opacity="1"/></g><g><ellipse cx="23.24999761581421" cy="23.25000089406967" rx="3.749999523162842" ry="3.750000238418579" fill="#969696" fill-opacity="1"/></g></g></g></svg>