<?xml version="1.0" encoding="UTF-8"?>
<svg id="_图层_2" data-name="图层 2" xmlns="http://www.w3.org/2000/svg" viewBox="0 0 1024 1024">
  <defs>
    <style>
      .cls-1 {
        fill: #d3eefd;
      }

      .cls-2 {
        fill: #d6effd;
      }

      .cls-3 {
        fill: #4fa0dd;
      }

      .cls-4 {
        fill: #d6effe;
      }

      .cls-5 {
        fill: #4fa1dd;
      }

      .cls-6 {
        fill: #d4eefd;
      }

      .cls-7 {
        fill: #fdfefd;
      }

      .cls-8 {
        fill: #4fa1de;
      }

      .cls-9 {
        fill: #d5effe;
      }

      .cls-10 {
        fill: #4ea0dd;
      }

      .cls-11 {
        fill: #d5eefd;
      }

      .cls-12 {
        fill: #fefefe;
      }

      .cls-13 {
        fill: #4fa0de;
      }

      .cls-14 {
        fill: #d5effc;
      }

      .cls-15 {
        fill: #fdfefe;
      }

      .cls-16 {
        fill: #fdfdfd;
      }
    </style>
  </defs>
  <g id="_图层_1-2" data-name="图层 1">
    <g>
      <rect class="cls-12" width="1024" height="1024"/>
      <path class="cls-3" d="M610,349c.22,16.44-1.42,33.15-6,48.99,45.52,2.25,90.25,15.53,127.99,41.01-21.6-47.5-32.54-104.57-9.18-153.69,40.48-85.11,164.85-61.97,146.89,37.89-1.97,10.95-5.67,21.82-7.7,32.79,7.95-3.59,13.58-8.63,22.53-4.02s12.71,16.73,15.74,25.26c15.35,43.17,16.73,91.87,3.74,135.77,22.75-10.56,26.88,18.71,28.85,34.64,10.14,82-41.55,178.42-107.54,225.17-9.47,6.71-26.2,13.98-33.55,20.17-5.74,4.83-13.71,17.27-19.74,23.54-73.15,76.19-196.15,96.35-288.75,43.68-17.14,1.9-34.44,2.98-51.69,2.73-2.19,14.7-13.3,26.08-26.9,31.23-29.74,11.26-99.9,4.36-131.69-2.67-140.78-31.12-160.13-186.06-85.81-291.83,14.94-21.26,35.2-37.22,48.88-59.13-14.87-8.17-28.69-18.52-39.7-31.49-2.22-.37-15.98,14.6-19.61,16.17-8.79,3.81-16.91-7.11-13.23-15.22,1.89-4.17,20.13-16.95,20.24-18.51-6.03-10.25-11.48-20.96-14.86-32.42-1.63-.46-3.18.17-4.72.6-4.58,1.27-17.56,8.14-20.66,8.21-7.58.18-12.3-9.45-10.31-16.19,1.67-5.67,24.88-11.76,30.78-13.72-2.15-13.47-2.96-28.85-2.04-42.53.44-6.47,3.77-15.78,3.75-21.16,0-2.36-16.94-36.26-19.45-43.05-10.68-28.85-20.57-73.55-10.76-103.26,18.59-56.3,97.52-11.05,133.6.56,31.83-22.3,69.31-36.73,107.92-42.05,7.82-14.83,15.5-30.12,24.58-44.42,22.33-35.16,46.43-71.41,89.43-34.6,22.36,19.14,35.01,51.52,42.7,79.3,2.5,9.02,5.54,31.75,8.86,38.14,1.27,2.44,15.02,13.93,18.45,17.55,10.58,11.18,20.95,23.78,28.02,37.51,1.46,1.08,27.32-10.98,35-8.54,5.94,1.88,9.46,13.31,4.51,17.61-3.27,2.84-29.13,7.58-29.42,10.41,4.07,9.33,6.21,19.28,8.79,29.1,3.12,2.25,23.29-1.61,29.44,1.56,8.38,4.32,3.97,18.87-1.87,18.87h-25.5Z"/>
      <path class="cls-12" d="M704.35,585.65c6.15,6.39,14.88,10.12,23.55,11.45,8.01,44.56,3.45,90.82-10.63,133.67-4.96,15.09-4.06,7.56-15.87,6.34-6.03-.62-9.14,0-12.83,4.95-1.98,2.66-14.31,28.79-14.59,31.42-1.03,9.57,5.43,12.89,12.01,18.02-17.71,26.45-40.24,48.27-65.02,68.04-2.79,1.27-15.98-6.63-19.27-8.73-23.62-15-43.91-39.39-60.24-61.83,5.52-6.7,9.8-13.08,9.47-22.32-.35-9.58-13.74-34.26-21.59-39.5-9.71-6.48-18.45-2.27-28.3.81.28-3.87-8.95-16.95-7.62-18.99,19.34-10.19,38.59-26.88,44.28-48.78,9.76-37.52-19.8-70.74-57.71-68.2-.67-13.14,1.67-26.11,4.05-38.96,15.88-.05,32.98.2,39.01-17.49,1.26-3.71-.26-8.88,4.44-8.64,43.49,2.09,84.19,14.95,121.73,36.44,8.92,1.98,16.02-9.06,8.83-15.9-5.42-5.14-29.14-15.71-37.06-18.94-30.55-12.46-63.88-19.45-96.99-19.51.99-9.57-4.19-20.37-13.95-23.05-1.09-1.54,4.84-9.36,6.14-11.27,14.44-21.23,41.21-54.73,68.32-56.68,19.78-1.42,33.4-1.43,49.39,10.59,31.07,23.38,53.75,65.07,68.96,100.15-3.12,7.6-8.74,14.06-9.74,22.86-1.33,11.56,3.19,25.68,11.24,34.04Z"/>
      <path class="cls-1" d="M328,558c-.19,3.64-8.27,4.35-9.57,1.59-5-.39-9.81-.25-14.43.41,4.64-1.04,10.34-.64,15,0,2.27,1.07,1.85,2.37-.4,3.26l-22.39,8.08c4.37,9.49,10.89,14.53,19.21,20.19,6.16,4.19,13.7,8.79,20.57,11.47,7.85,1.61,17.03,6.46,25.99,8.51,18.92,4.34,40.11,5.45,59.5,4.48,25.42-1.27,67.46-13.98,88.03,4.99.86.79,4.46,3.98,3.48,5.02-8.95,3.4-18.96,3.9-28.04,6.47-14.37,4.07-9.59,20.04,2.24,19.32,10.36-.63,23.73-6.9,33.8-9.77-1.61,43.7-57.25,62-93.61,65.88-40.19,4.28-93.97-2.95-129.3-23.46-4.25-2.47-17.49-13.63-19.84-14.21-10.17-2.53-10.73,10.91-3.89,17.45,16.32,15.61,47.55,24.45,62.17,40.33,17.68,19.2,27.54,50.15,17.22,75.24-2.27,5.53-13.21,17.94-6.3,22.84,3.05,2.17,18.55-.52,24.11-.11,5.94.44,15.19,2.82,20.5,5.5,18.5,9.31,32.11,40.54,3.97,46.54-.49-6.85-1.84-14.27-5.2-20.3-3.03-5.44-12.55-16.88-19.37-12.75-7.18,4.35,4.15,14.67,6.34,19.78s3.21,11.01,3.23,16.28c-56.64-.26-122.09.47-167.9-37.6-69.09-57.42-58.77-156.81-14.52-226.31,15.98-25.1,37.59-44.4,54.07-68.99,24.43,7.62,49.66,11.24,75.34,9.9Z"/>
      <path class="cls-12" d="M560,293c-4.5,2.58-16.71,9.8-17.81,14.72-1.74,7.84,5.74,13.48,13.26,12.22,4.74-.79,18.26-10.74,24.89-13.12,1.07-.38.99-1.47,2.13.2,1.67,2.43,7.68,22.47,6.45,23.91-8.17,2.64-27.79,1.76-27.79,13.57,0,16.04,22.32,6.11,30.86,5.5-.85,15.86-2.01,31.73-6.46,47.03-12.29,2.91-25.14,2.91-37.56,5.44-28.76,5.84-65.19,23-89.28,39.72-49.62,34.43-86.18,89.71-98.69,148.82-9.88-.41-26.04-15.51-33.85-6.36-6.52,7.64,2.47,16.13,9.86,18.36-8.89-1.82-26.2-11.2-33.54-18.96-1.64-1.73-9.68-12.62-8.46-14.03l25-9.02v-.99s-14.99,0-14.99,0c-.22-1.76,2.26-.95,3.49-1,6.52-.27,14.68,1.07,20.51-1,9.42-3.35,9.43-14.65,0-18-6.65-.4-13.32-.74-20-1h-3c.09-.84-.14-1.61-.88-1.79-23.36-5.65-41.34-11.12-60.54-26.62-7.11-5.74-16.92-13.8-18.58-22.59,6.9-4.71,21.83-10.03,12.42-20.92-5.31-6.15-11.82-2.03-17.42.92l-2.13-.9c.08-6.39-1.39-12.02-4.41-16.91l.54-2.2c7.49-1.39,21.39-.76,19.97-12.41-1.55-12.75-15.54-6.78-23.97-7.59-5.88.04-.36-3.42,3.28-3.59-3.35-44.43,19.1-125.91,71.35-132.02,39.35-4.6,67.87,35.86,79.49,68.67,13.01-7.98,26.81-13.58,41.41-16.79-7.02-31.34-15.41-82.12,14.97-103.74,40.82-29.04,111.1,19.65,139.34,50.09l.16,2.38Z"/>
      <path class="cls-9" d="M910.99,531c18.49,86.11-29.24,176.08-96.98,227,4.25-8.9,8.94-17.78,12.47-27.02,30.48-79.74,16.07-170.91-36.09-237.88-7.13-9.15-17.6-18.32-23.83-27.17-4.94-7-11.98-22.92-15.74-31.26-19.48-43.19-31.83-95.15-10.99-140.35,18.06-39.18,71.64-60.84,102.15-22.81,20.59,25.66,4.97,52,3.03,79.99-.55,7.87-1,27.59,1.69,34.29s7.97,7.71,12.72,2.12c5.72-6.73,5.95-12.14,15.07-17.94,3.46-2.2,4.64,3.15,5.98,6.05,16.95,36.78,16.59,97.18,7.07,136-1.9,7.73-10.15,25.99-8.32,32.25,1.17,4,6.59,4.37,10.05,3.46,2.83-.74,20.47-18,21.73-16.75Z"/>
      <path class="cls-2" d="M210,428c-.01,1.47-26.07,3.95-29,5-.72-11.71-1.81-23.76-1.05-35.54.59-8.97,5.28-21.77,3.98-29.9-.83-5.17-11.17-21.4-14.11-27.88-12.47-27.5-26.46-77.26-17.1-106.46,6.47-20.19,26.08-14.73,42.29-10.73,24.82,6.12,49.65,16.55,72.74,27.34l5.54-1.05c25.76-18.51,55.5-33.44,86.7-40.3,6.44-1.42,25.96-3.12,29.52-5.48,3.97-2.64,11.51-21.53,14.7-27.3,5.9-10.68,13.19-21.75,20.38-31.62,5.4-7.4,18.29-25.13,24.51-30.49,11.13-9.58,25.6,4.6,32.93,12.87,19.37,21.88,30.47,50.05,36.66,78.34,2.18,9.96,1.92,25.19,8.77,32.23,9.58,9.87,20.59,17.52,30.06,28.94,3.1,3.74,13.39,16.78,14.39,20.62.54,2.05-.37,1.08-1.31,1.47-3.6,1.53-7.21,2.97-10.6,4.92-4.68-2.33-7.05-6.89-10.99-10.51-27.92-25.72-90.16-66.71-127.35-40.33-29.94,21.24-20.73,73.36-13.69,103.8-16.39,1.99-30.75,10.39-44.95,18.04-10.51-31.54-37.69-72.18-75.39-69.87-48.51,2.98-70.08,72.12-72.61,112.38-.2,3.22.72,19.77,0,20.5-.32.32-4.77-.24-6,0-.17,1.14,1,.92,1,.99Z"/>
      <path class="cls-15" d="M643,865.99c16.85-14.66,32.77-30.32,46.41-48.08,2.18-2.84,11.41-17.72,12.6-18.46,3.44-2.16,16.03,9.07,24.41-.53,6.31-7.22,10.3-25.4,16.1-33.89,2.66-10.13-2.92-15.24-11.57-18.6,18.74-47.24,25.1-99.66,16.01-149.94.16-2.05,11.13-7.49,13.93-10.1,31.87-29.75-.39-82.34-41.84-67.43-13.21-34.52-33.21-66.96-60.05-92.47-.15-.77.92-.61,1.47-.48,8.53,2.13,23.45,9.2,31.88,13.12,123.51,57.42,168.03,208.4,96.06,324.78-32.69,52.85-84.07,89.84-145.42,102.07Z"/>
      <path class="cls-12" d="M596,870.99c-61.32-1.59-121.67-27.71-162-73.98,17.37-.87,34.51-5.42,50.53-11.99,2.08.04,7.29,6.68,9.56,8.39,9.2,6.97,19.14,7.54,30.23,5.71,15.42,20.49,31.68,41.09,51.67,57.39,6.39,5.22,13.53,9.41,20.01,14.48Z"/>
      <path class="cls-7" d="M524,432.01c-8.27,10.32-16.46,20.78-23.42,32.07-1.79,2.91-9.02,17.99-9.84,18.66-3.2,2.64-16.1-.28-23.67,3.82-12,6.51-12.39,20.14-12.23,32.27-24.04,8.45-46.17,21.87-64.82,39.16,24.63-57.9,73.67-106.43,133.99-125.99Z"/>
      <path class="cls-15" d="M474,717c.82-.18,1.82-1.3,2.99-1,.04,5.56,8.2,18.35,7.96,22.55-.08,1.49-4.03,5.65-5.13,7.77-1.89,3.62-3.6,9.12-3.6,13.18,0,1.85,1.84,7.84,1.35,8.56-3.46,5.07-51.14,13.14-59.37,10.73-8.88-12.55-15.58-26-22.2-39.79l-.6-2.18c17.48-.93,33.13-2.34,50.61-6.23,4.05-.9,28.02-9.83,27.87-11.37-.07-.74-.05-1.48.12-2.22Z"/>
      <path class="cls-12" d="M456.96,538.03c.87,5.81,6,10.2,11.08,12.54-4.75,13.3-7.51,27.28-9.18,41.29-25.28,4.17-51.35,7.29-76.86,3.13,14.12-19.2,32.58-35.39,53.33-47.16,2.72-1.55,20.46-10.84,21.63-9.8Z"/>
      <path class="cls-6" d="M368.77,726.23c.94.94,5.69,14.56,7.05,17.45,15.89,33.64,36.66,62.74,64.16,87.84l19.01,14.48-29.86-1.12c-8.11-24.31-32.82-36.35-57.14-37.88,6.51-27.79,3.26-61.08-16.99-82.51-.22-2.64.45-.96,1.76-.77,2.27.33,10.98,1.5,12,2.51Z"/>
      <path class="cls-16" d="M727.73,536.23c34.9-7.12,34.09,48.56,0,41.55-20.74-4.27-20.07-37.45,0-41.55Z"/>
      <path class="cls-2" d="M225,488c20.25,28.84,54.59,44.54,89,49.01l-9,1.99c-30.03-1.26-61.55-11.22-84.47-31.03-1.41-1.22-9.19-8.68-9.5-9.5-.65-1.71,12.2-8.85,13.98-10.47Z"/>
      <path class="cls-7" d="M500.34,752.34c2.03-2.04,16.98-9.9,18.7-8.89,7.09,10.75,21.3,26.82,3.3,35.39-16.97,8.08-32.4-16.09-22-26.5Z"/>
      <path class="cls-16" d="M502.77,531.77c-2.61,2.56-23.35,3.55-26.24.2-2.53-2.94-2.32-23.58.46-26.47,2.39-2.5,23.91-2.43,26.47.54s2.28,22.82-.7,25.73Z"/>
      <path class="cls-11" d="M214,448c5.33,4.23,5.11,13.75,6,20-2.91,1.53-20.77,13.88-21.99,13-2.96-8.32-10.05-18.08-11.89-26.64-.44-2.05.13-1.05,1.32-1.39,8.19-2.31,18.07-3.4,26.56-4.97Z"/>
      <path class="cls-14" d="M474,717c1.54.58,2.93,2.46,1.9,3.91-.81,1.15-22.72,9.6-25.91,10.59-16.82,5.19-31.01,6.27-48.51,6.49-1.69.02-4.44-.64-5.49,1.02-.79-1.65-6.48-9.55-5-10.99,22.34.89,44.49-1.21,66.21-6.3,5.64-1.32,11.11-3.45,16.79-4.71Z"/>
      <path class="cls-16" d="M722,763.02l-8.08,18.92c-2.01,1.44-16.53-7.5-19.92-7.95l8.04-17.97,19.96,7Z"/>
      <path class="cls-2" d="M328,540c-6.41-.6-13.94,1.28-20-1,6.1,0,14.64-.91,20,1Z"/>
      <path class="cls-8" d="M686.71,608.22c8.51-2.04,14.46,3.18,11.83,11.83-1.17,3.85-15.15,22.07-18.58,26.41-23.27,29.44-54.17,55.25-86.04,74.96-4.7,2.9-19.4,12.57-23.67,13.4-8.47,1.66-14.47-8.21-8.31-15.37,4.89-5.69,30.01-18.82,38.37-24.63,28.64-19.89,51.78-42.37,73.1-69.9,2.94-3.79,9.49-15.79,13.29-16.7Z"/>
      <path class="cls-3" d="M399.79,396.2c-1.98-1.4-11.63-2.12-16.72-5.77-26.46-18.95,29.16-40.4,39.96-26.96,9.22,11.48-5.62,20.05-6.12,28.02-1.11,17.85,32.29,15.48,34.85-.24.8-4.9-1.33-12.79,4.47-15.52s11.47,1.11,12.53,7c5.24,28.97-28.45,49.13-53.3,36.5-11.12,20.94-36.4,30.2-57.38,17.18-6.23-3.87-17.29-16.15-8.47-22.29s11.34,3.5,16.45,7.31c12.15,9.07,33.8.67,34.97-14.89.16-2.07.22-9.3-1.25-10.34Z"/>
      <path class="cls-2" d="M282.79,421.27c34.61-3.19,36.41,43.13.7,46.72-41,4.12-36.89-43.38-.7-46.72Z"/>
      <path class="cls-4" d="M520.76,332.26c10.78-1.59,24.76,2.41,27,14.48,5.4,29.08-38.29,42.65-50.32,19.32-8.04-15.59,8.54-31.62,23.32-33.8Z"/>
      <path class="cls-13" d="M506.69,319.69c-7.11,6.58-13.38-2.91-19.72-5.17-10.3-3.67-22.63.62-27,10.96-2.68,6.34-1.05,15.9-10.49,16.58-14.31,1.03-10.34-19.14-6.36-27.44,10.25-21.37,39.85-28.6,58.79-14.04,5.89,4.53,11.81,12.6,4.78,19.1Z"/>
      <path class="cls-10" d="M302.78,358.28c12.34-1.15,41.25,9.37,33.1,25.1-6.24,12.04-16.05-2.87-23.05-4.69-9.48-2.46-17.78.34-23.25,8.38-4.81,7.08-2.25,18.42-13.24,18.61-8.18.14-8.99-8.98-8.33-15.19,1.78-16.75,18.56-30.71,34.78-32.21Z"/>
      <path class="cls-8" d="M450,190c7.27-.55,33.74,6.8,35.79,13.71,1.85,6.21-2.23,13.38-9.01,13.09-4.69-.2-17.44-6.68-23.93-8.14-4.95-1.11-22.01-1.51-23.41-6.56-4.21-15.11,12.55-38.38,23.55-47.61,3.18-2.67,7.64-7.11,12.01-6.06,16.72,4.01-5.27,22.9-9.23,28.84-1.17,1.76-7,11.57-5.77,12.73Z"/>
      <path class="cls-5" d="M196.35,313.65c-8.94-8.94,10.32-30.27,16.63-37.15-7.08-7.08-32.74-6.55-35.55-15.46-6.27-19.86,38.87-4.57,46.61-.59,23.51,12.1,7.07,20.69-2.46,33.62-3.46,4.7-11.03,20.71-15.29,21.7-3.4.8-7.36.44-9.94-2.14Z"/>
    </g>
  </g>
</svg>