<svg xmlns="http://www.w3.org/2000/svg" xmlns:xlink="http://www.w3.org/1999/xlink" fill="none" version="1.1" width="29.913787841796875" height="29.913818359375" viewBox="0 0 29.913787841796875 29.913818359375"><g><g><path d="M19.408385694885254,4.210166648559571Q19.251485694885254,4.14518664855957,19.103485694885254,4.0619666485595705Q18.955485694885255,3.9787566485595702,18.818385694885254,3.87849664855957Q18.681385694885254,3.77822664855957,18.557285694885255,3.6623466485595704Q18.433185694885253,3.54645664855957,18.323785694885252,3.4166066485595703Q18.214385694885255,3.2867566485595705,18.121185694885256,3.1447866485595704Q18.028085694885252,3.0028266485595703,17.952485694885254,2.85076664855957Q17.876985694885253,2.69870664855957,17.820085694885254,2.5387266485595705Q17.763185694885255,2.3787466485595705,17.725785694885253,2.2131266485595704Q17.699385694885255,2.0963666485595702,17.663285694885253,1.9822366485595704Q17.627185694885252,1.8681066485595703,17.581585694885256,1.7574266485595702Q17.535985694885255,1.6467466485595703,17.481185694885255,1.5403066485595702Q17.426485694885255,1.4338566485595703,17.362985694885253,1.3323966485595704Q17.299485694885252,1.2309266485595702,17.227585694885253,1.1351766485595702Q17.155785694885253,1.0394266485595702,17.076085694885254,0.9500576485595703Q16.996485694885255,0.8606916485595704,16.909585694885255,0.7783476485595703Q16.822685694885255,0.6960036485595703,16.729185694885253,0.6212656485595703Q16.635685694885254,0.5465286485595703,16.536285694885255,0.4799286485595703Q16.436785694885256,0.4133286485595703,16.332085694885254,0.3553386485595703Q16.227385694885253,0.2973486485595703,16.118085694885252,0.24838064855957032Q16.008885694885254,0.1994136485595703,15.895885694885253,0.1598156485595703Q15.782985694885253,0.12021764855957032,15.667085694885253,0.09026994855957031Q15.551185694885254,0.06032264855957031,15.433185694885253,0.04023894855957031Q15.315185694885255,0.02015514855957031,15.195885694885254,0.010077448559570313Q15.076585694885253,-2.1034042968749973e-7,14.956885694885253,-2.6184042968750084e-7Q14.837185694885253,-3.1334042968750027e-7,14.717885694885254,0.010077248559570312Q14.598585694885253,0.020154848559570313,14.480585694885255,0.04023844855957031Q14.362585694885254,0.06032214855957031,14.246685694885254,0.09026924855957032Q14.130785694885255,0.12021664855957032,14.017885694885253,0.1598146485595703Q13.904885694885253,0.1994126485595703,13.795685694885254,0.24837964855957032Q13.686485694885254,0.2973476485595703,13.581685694885254,0.3553376485595703Q13.476985694885254,0.4133266485595703,13.377585694885253,0.4799266485595703Q13.278085694885254,0.5465266485595703,13.184585694885254,0.6212646485595703Q13.091085694885255,0.6960016485595704,13.004185694885255,0.7783456485595703Q12.917285694885253,0.8606896485595703,12.837685694885254,0.9500556485595704Q12.757985694885253,1.0394266485595702,12.686185694885253,1.1351766485595702Q12.614385694885254,1.2309266485595702,12.550785694885255,1.3323866485595703Q12.487285694885253,1.4338466485595702,12.432585694885255,1.5402966485595704Q12.377785694885254,1.6467466485595703,12.332185694885254,1.7574266485595702Q12.286585694885254,1.8681066485595703,12.250485694885255,1.9822366485595704Q12.214385694885253,2.09635664855957,12.187985694885255,2.2131166485595704Q12.150585694885255,2.3787466485595705,12.093685694885254,2.5387266485595705Q12.036785694885253,2.69870664855957,11.961285694885254,2.85076664855957Q11.885685694885254,3.0028266485595703,11.792585694885254,3.1447866485595704Q11.699385694885255,3.2867566485595705,11.589985694885254,3.4166066485595703Q11.480585694885255,3.54645664855957,11.356485694885254,3.6623466485595704Q11.232385694885254,3.77822664855957,11.095385694885254,3.87849664855957Q10.958285694885253,3.9787566485595702,10.810285694885254,4.06197664855957Q10.662285694885254,4.14518664855957,10.505485694885254,4.210166648559571Q10.348585694885253,4.27514664855957,10.185085694885254,4.32095664855957Q10.021585694885253,4.36677664855957,9.853785694885254,4.39276664855957Q9.685995694885253,4.41876664855957,9.516295694885255,4.424576648559571Q9.346605694885254,4.4303966485595705,9.177425694885255,4.41593664855957Q9.008245694885254,4.40147664855957,8.841995694885254,4.3669566485595706Q8.675745694885254,4.33242664855957,8.514795694885255,4.27833664855957Q8.353845694885253,4.22424664855957,8.200495694885253,4.151346648559571Q8.047145694885254,4.078456648559571,7.903575694885254,3.9877966485595704Q7.802355694885254,3.9238866485595705,7.696125694885254,3.86872664855957Q7.589885694885254,3.8135666485595703,7.479385694885254,3.7675366485595703Q7.368885694885254,3.7215166485595703,7.254895694885254,3.6849666485595702Q7.140915694885254,3.6484066485595705,7.0242556948852535,3.62157664855957Q6.907595694885254,3.5947466485595703,6.789095694885254,3.5778366485595705Q6.670595694885254,3.5609166485595702,6.551085694885254,3.5540366485595705Q6.431585694885254,3.5471666485595703,6.311925694885254,3.5503766485595705Q6.192265694885254,3.55357664855957,6.073295694885254,3.5668466485595705Q5.954335694885254,3.5801266485595704,5.836905694885254,3.6033566485595703Q5.719475694885254,3.62659664855957,5.604425694885254,3.6596466485595704Q5.489375694885254,3.69268664855957,5.377515694885254,3.7352966485595704Q5.265655694885254,3.7779066485595703,5.157775694885254,3.8297866485595704Q5.049895694885254,3.88166664855957,4.946765694885254,3.9424366485595703Q4.843645694885254,4.003216648559571,4.745995694885254,4.07245664855957Q4.648355694885254,4.14169664855957,4.556885694885254,4.218916648559571Q4.4654156948852535,4.296126648559571,4.380775694885254,4.3807766485595705Q4.296125694885254,4.46541664855957,4.218915694885254,4.55688664855957Q4.141695694885254,4.64835664855957,4.072455694885254,4.74599664855957Q4.003215694885254,4.84364664855957,3.942435694885254,4.946766648559571Q3.8816656948852537,5.04989664855957,3.829785694885254,5.157776648559571Q3.777905694885254,5.26565664855957,3.735295694885254,5.3775166485595705Q3.6926856948852538,5.4893766485595705,3.659635694885254,5.604426648559571Q3.626595694885254,5.71948664855957,3.603355694885254,5.83690664855957Q3.580115694885254,5.95433664855957,3.566845694885254,6.0732966485595705Q3.5535756948852537,6.1922666485595705,3.550365694885254,6.31192664855957Q3.547165694885254,6.431586648559571,3.554035694885254,6.55108664855957Q3.560915694885254,6.67059664855957,3.577825694885254,6.78909664855957Q3.594745694885254,6.90759664855957,3.6215756948852538,7.02425664855957Q3.648405694885254,7.14091664855957,3.6849556948852538,7.25489664855957Q3.721515694885254,7.36888664855957,3.767535694885254,7.47938664855957Q3.813565694885254,7.58988664855957,3.8687256948852538,7.69612664855957Q3.923885694885254,7.80235664855957,3.987795694885254,7.903576648559571Q4.078455694885254,8.04714664855957,4.151345694885254,8.20049664855957Q4.2242356948852535,8.35385664855957,4.278335694885254,8.514796648559571Q4.332425694885254,8.67574664855957,4.366945694885254,8.84199664855957Q4.401475694885254,9.00824664855957,4.4159356948852535,9.177426648559571Q4.430395694885254,9.34660664855957,4.424575694885254,9.51630664855957Q4.418765694885254,9.68599664855957,4.392765694885254,9.85379664855957Q4.366775694885254,10.02158664855957,4.320955694885254,10.18508664855957Q4.2751456948852535,10.34858664855957,4.210165694885254,10.50548664855957Q4.145185694885254,10.66228664855957,4.061965694885254,10.81028664855957Q3.978755694885254,10.95838664855957,3.878495694885254,11.09538664855957Q3.7782256948852537,11.23238664855957,3.662345694885254,11.35648664855957Q3.5464556948852537,11.480586648559571,3.416605694885254,11.58998664855957Q3.286755694885254,11.699386648559571,3.144785694885254,11.79258664855957Q3.002825694885254,11.88568664855957,2.8507656948852538,11.96128664855957Q2.6987056948852537,12.03678664855957,2.538725694885254,12.09368664855957Q2.378745694885254,12.150586648559571,2.213125694885254,12.187986648559571Q2.096365694885254,12.21438664855957,1.982235694885254,12.250486648559571Q1.868105694885254,12.28658664855957,1.7574256948852538,12.33218664855957Q1.646745694885254,12.377786648559571,1.5403056948852538,12.432586648559571Q1.4338556948852539,12.48728664855957,1.332395694885254,12.550786648559571Q1.230935694885254,12.61438664855957,1.1351756948852538,12.68618664855957Q1.0394256948852538,12.75798664855957,0.9500576948852539,12.83768664855957Q0.860690694885254,12.91728664855957,0.7783466948852539,13.004186648559571Q0.6960026948852539,13.091086648559571,0.621265694885254,13.18458664855957Q0.5465286948852539,13.27808664855957,0.4799286948852539,13.37758664855957Q0.4133286948852539,13.47698664855957,0.3553386948852539,13.58168664855957Q0.2973486948852539,13.68648664855957,0.2483806948852539,13.79568664855957Q0.1994136948852539,13.90488664855957,0.1598156948852539,14.01788664855957Q0.12021769488525391,14.130786648559571,0.09027009488525391,14.246686648559571Q0.06032289488525391,14.36258664855957,0.040239194885253904,14.480586648559571Q0.020155494885253908,14.59858664855957,0.010077794885253906,14.71788664855957Q1.7268525390625053e-7,14.83718664855957,1.520852539062494e-7,14.95688664855957Q1.3138525390624976e-7,15.07658664855957,0.010077694885253907,15.19588664855957Q0.020155394885253905,15.315186648559571,0.040238994885253905,15.43318664855957Q0.06032269488525391,15.55118664855957,0.0902698948852539,15.66708664855957Q0.12021669488525391,15.78298664855957,0.1598146948852539,15.89588664855957Q0.1994126948852539,16.00888664855957,0.2483806948852539,16.11808664855957Q0.2973486948852539,16.22738664855957,0.3553376948852539,16.33208664855957Q0.4133276948852539,16.436786648559572,0.4799276948852539,16.53628664855957Q0.5465276948852539,16.63568664855957,0.6212646948852539,16.72918664855957Q0.6960026948852539,16.82268664855957,0.7783466948852539,16.90958664855957Q0.860690694885254,16.99648664855957,0.9500566948852539,17.07608664855957Q1.0394256948852538,17.15578664855957,1.1351756948852538,17.22758664855957Q1.2309256948852538,17.29948664855957,1.332395694885254,17.36298664855957Q1.4338556948852539,17.42648664855957,1.5403056948852538,17.48118664855957Q1.646745694885254,17.53598664855957,1.7574256948852538,17.581586648559572Q1.868105694885254,17.62718664855957,1.982235694885254,17.66328664855957Q2.0963556948852538,17.69938664855957,2.213125694885254,17.72578664855957Q2.378745694885254,17.76318664855957,2.538725694885254,17.82008664855957Q2.6987056948852537,17.87698664855957,2.8507656948852538,17.95248664855957Q3.002825694885254,18.02808664855957,3.144785694885254,18.121186648559572Q3.286755694885254,18.21438664855957,3.416605694885254,18.32378664855957Q3.5464556948852537,18.43318664855957,3.662345694885254,18.55728664855957Q3.7782256948852537,18.68138664855957,3.878495694885254,18.81838664855957Q3.978755694885254,18.95548664855957,4.061965694885254,19.10348664855957Q4.145185694885254,19.25148664855957,4.210165694885254,19.40838664855957Q4.2751456948852535,19.56518664855957,4.320955694885254,19.72868664855957Q4.366775694885254,19.89218664855957,4.392765694885254,20.05998664855957Q4.418765694885254,20.22778664855957,4.424575694885254,20.39748664855957Q4.430395694885254,20.56718664855957,4.4159356948852535,20.73638664855957Q4.401475694885254,20.90558664855957,4.366955694885254,21.07178664855957Q4.332425694885254,21.23808664855957,4.278335694885254,21.39898664855957Q4.224245694885254,21.55998664855957,4.151345694885254,21.71328664855957Q4.078455694885254,21.866686648559572,3.987795694885254,22.01018664855957Q3.923885694885254,22.11138664855957,3.8687256948852538,22.21768664855957Q3.813565694885254,22.32388664855957,3.767535694885254,22.43438664855957Q3.721515694885254,22.54488664855957,3.684965694885254,22.65888664855957Q3.648405694885254,22.77288664855957,3.6215756948852538,22.889586648559572Q3.594745694885254,23.00618664855957,3.577835694885254,23.12468664855957Q3.560915694885254,23.243186648559572,3.554035694885254,23.36268664855957Q3.547165694885254,23.48218664855957,3.550375694885254,23.60188664855957Q3.5535756948852537,23.72148664855957,3.566845694885254,23.84048664855957Q3.580125694885254,23.95948664855957,3.603355694885254,24.07688664855957Q3.626595694885254,24.19428664855957,3.659645694885254,24.30938664855957Q3.6926856948852538,24.42438664855957,3.735295694885254,24.53628664855957Q3.777905694885254,24.64818664855957,3.829785694885254,24.75598664855957Q3.8816656948852537,24.86388664855957,3.942435694885254,24.96698664855957Q4.003215694885254,25.07018664855957,4.072455694885254,25.16778664855957Q4.141695694885254,25.26548664855957,4.218915694885254,25.35688664855957Q4.296125694885254,25.44838664855957,4.380775694885254,25.53298664855957Q4.4654156948852535,25.61768664855957,4.556885694885254,25.69488664855957Q4.648355694885254,25.77208664855957,4.745995694885254,25.84138664855957Q4.843645694885254,25.91058664855957,4.946765694885254,25.97138664855957Q5.049895694885254,26.03208664855957,5.157775694885254,26.08398664855957Q5.265655694885254,26.13588664855957,5.377515694885254,26.17848664855957Q5.489375694885254,26.22108664855957,5.604425694885254,26.25418664855957Q5.719475694885254,26.28718664855957,5.836905694885254,26.31038664855957Q5.954325694885254,26.33368664855957,6.073295694885254,26.34698664855957Q6.192265694885254,26.36018664855957,6.311925694885254,26.36338664855957Q6.431585694885254,26.36658664855957,6.551085694885254,26.35978664855957Q6.670595694885254,26.352886648559572,6.789095694885254,26.33598664855957Q6.907595694885254,26.31908664855957,7.0242556948852535,26.29218664855957Q7.140915694885254,26.26538664855957,7.254895694885254,26.22878664855957Q7.368885694885254,26.19228664855957,7.479385694885254,26.14628664855957Q7.589885694885254,26.10018664855957,7.696125694885254,26.045086648559572Q7.802355694885254,25.98988664855957,7.903575694885254,25.92598664855957Q8.047145694885254,25.83538664855957,8.200495694885253,25.76248664855957Q8.353845694885253,25.68958664855957,8.514795694885255,25.63548664855957Q8.675745694885254,25.58138664855957,8.841995694885254,25.54688664855957Q9.008245694885254,25.51228664855957,9.177425694885255,25.49788664855957Q9.346605694885254,25.48338664855957,9.516305694885254,25.48918664855957Q9.685995694885253,25.49498664855957,9.853795694885253,25.52098664855957Q10.021585694885253,25.54698664855957,10.185085694885254,25.59288664855957Q10.348585694885253,25.63868664855957,10.505485694885254,25.703586648559572Q10.662285694885254,25.76858664855957,10.810285694885254,25.85178664855957Q10.958385694885253,25.93498664855957,11.095385694885254,26.03528664855957Q11.232385694885254,26.13558664855957,11.356485694885254,26.25148664855957Q11.480585694885255,26.36728664855957,11.589985694885254,26.49718664855957Q11.699385694885255,26.62708664855957,11.792585694885254,26.76898664855957Q11.885685694885254,26.91098664855957,11.961285694885254,27.06298664855957Q12.036785694885253,27.21508664855957,12.093685694885254,27.37508664855957Q12.150585694885255,27.53508664855957,12.187985694885255,27.70068664855957Q12.214385694885253,27.81738664855957,12.250485694885255,27.93158664855957Q12.286585694885254,28.04568664855957,12.332185694885254,28.15638664855957Q12.377785694885254,28.26708664855957,12.432585694885255,28.37348664855957Q12.487285694885253,28.47998664855957,12.550785694885255,28.58138664855957Q12.614385694885254,28.68288664855957,12.686185694885253,28.77858664855957Q12.757985694885253,28.87438664855957,12.837685694885254,28.96368664855957Q12.917285694885253,29.05308664855957,13.004185694885255,29.13548664855957Q13.091085694885255,29.21778664855957,13.184585694885254,29.29248664855957Q13.278085694885254,29.36728664855957,13.377585694885253,29.43388664855957Q13.476985694885254,29.50048664855957,13.581685694885254,29.55848664855957Q13.686485694885254,29.61648664855957,13.795685694885254,29.665386648559572Q13.904885694885253,29.71438664855957,14.017885694885253,29.75398664855957Q14.130785694885255,29.79358664855957,14.246685694885254,29.82348664855957Q14.362585694885254,29.85348664855957,14.480585694885255,29.87358664855957Q14.598585694885253,29.89358664855957,14.717885694885254,29.90368664855957Q14.837185694885253,29.91378664855957,14.956885694885253,29.91378664855957Q15.076585694885253,29.91378664855957,15.195885694885254,29.90368664855957Q15.315185694885255,29.89368664855957,15.433185694885253,29.87358664855957Q15.551185694885254,29.85348664855957,15.667085694885253,29.82348664855957Q15.782985694885253,29.79358664855957,15.895885694885253,29.75398664855957Q16.008885694885254,29.71438664855957,16.118085694885252,29.665386648559572Q16.227385694885253,29.61648664855957,16.332085694885254,29.55848664855957Q16.436785694885256,29.50048664855957,16.536285694885255,29.43388664855957Q16.635685694885254,29.36728664855957,16.729185694885253,29.29248664855957Q16.822685694885255,29.21778664855957,16.909585694885255,29.13548664855957Q16.996485694885255,29.05308664855957,17.076085694885254,28.96368664855957Q17.155785694885253,28.87438664855957,17.227585694885253,28.77858664855957Q17.299485694885252,28.68288664855957,17.362985694885253,28.58138664855957Q17.426485694885255,28.47998664855957,17.481185694885255,28.37348664855957Q17.535985694885255,28.26708664855957,17.581585694885256,28.15638664855957Q17.627185694885252,28.04568664855957,17.663285694885253,27.93158664855957Q17.699385694885255,27.81738664855957,17.725785694885253,27.70068664855957Q17.763185694885255,27.53508664855957,17.820085694885254,27.37508664855957Q17.876985694885253,27.21508664855957,17.952485694885254,27.06298664855957Q18.028085694885252,26.91098664855957,18.121185694885256,26.76898664855957Q18.214385694885255,26.62708664855957,18.323785694885252,26.49718664855957Q18.433185694885253,26.36728664855957,18.557285694885255,26.25148664855957Q18.681385694885254,26.13558664855957,18.818385694885254,26.03528664855957Q18.955485694885255,25.93498664855957,19.103485694885254,25.85178664855957Q19.251485694885254,25.76858664855957,19.408285694885254,25.703586648559572Q19.565185694885255,25.63868664855957,19.728685694885254,25.59278664855957Q19.892185694885253,25.54698664855957,20.059985694885253,25.52098664855957Q20.227785694885252,25.49498664855957,20.397485694885255,25.48918664855957Q20.567185694885254,25.48338664855957,20.736385694885254,25.49788664855957Q20.905585694885254,25.51228664855957,21.071785694885254,25.54688664855957Q21.238085694885253,25.58138664855957,21.398985694885255,25.63548664855957Q21.559985694885253,25.68958664855957,21.713285694885254,25.76248664855957Q21.866685694885255,25.83538664855957,22.010185694885255,25.92598664855957Q22.111385694885254,25.98988664855957,22.217685694885255,26.045086648559572Q22.323885694885252,26.10018664855957,22.434385694885254,26.14628664855957Q22.544885694885252,26.19228664855957,22.658885694885253,26.22878664855957Q22.772885694885254,26.26538664855957,22.889485694885256,26.29218664855957Q23.006185694885254,26.31908664855957,23.124685694885255,26.33598664855957Q23.243185694885256,26.352886648559572,23.362685694885254,26.35978664855957Q23.482185694885253,26.36658664855957,23.601885694885254,26.36338664855957Q23.721485694885253,26.36018664855957,23.840485694885253,26.34698664855957Q23.959485694885252,26.33368664855957,24.076885694885252,26.31038664855957Q24.194285694885252,26.28718664855957,24.309385694885254,26.25418664855957Q24.424385694885252,26.22108664855957,24.536285694885255,26.17848664855957Q24.648185694885253,26.13588664855957,24.755985694885254,26.08398664855957Q24.863885694885255,26.03208664855957,24.966985694885253,25.97138664855957Q25.070185694885254,25.91058664855957,25.167785694885254,25.84138664855957Q25.265485694885253,25.77208664855957,25.356885694885253,25.69488664855957Q25.448385694885253,25.61768664855957,25.532985694885255,25.53298664855957Q25.617685694885253,25.44838664855957,25.694885694885254,25.35688664855957Q25.772085694885252,25.26548664855957,25.841385694885254,25.16778664855957Q25.910585694885253,25.07018664855957,25.971385694885253,24.96698664855957Q26.032085694885254,24.86388664855957,26.083985694885254,24.75598664855957Q26.135885694885253,24.64818664855957,26.178485694885254,24.53628664855957Q26.221085694885254,24.42438664855957,26.254185694885255,24.30938664855957Q26.287185694885252,24.19428664855957,26.310385694885255,24.07688664855957Q26.333685694885254,23.95948664855957,26.346985694885255,23.84048664855957Q26.360185694885253,23.72148664855957,26.363385694885253,23.60188664855957Q26.366585694885252,23.48218664855957,26.359785694885254,23.36268664855957Q26.352885694885256,23.243186648559572,26.335985694885252,23.12468664855957Q26.319085694885253,23.00618664855957,26.292185694885255,22.889486648559572Q26.265385694885254,22.77288664855957,26.228785694885254,22.65888664855957Q26.192285694885253,22.54488664855957,26.146285694885254,22.43438664855957Q26.100185694885255,22.32388664855957,26.045085694885255,22.21768664855957Q25.989885694885253,22.11138664855957,25.925985694885252,22.01018664855957Q25.835385694885254,21.866686648559572,25.762485694885253,21.71328664855957Q25.689585694885253,21.55998664855957,25.635485694885254,21.39898664855957Q25.581385694885252,21.23808664855957,25.546885694885255,21.07178664855957Q25.512285694885254,20.90558664855957,25.497885694885255,20.73638664855957Q25.483385694885254,20.56718664855957,25.489185694885254,20.39748664855957Q25.494985694885255,20.22778664855957,25.520985694885255,20.05998664855957Q25.546985694885255,19.89218664855957,25.592885694885254,19.72868664855957Q25.638685694885254,19.56518664855957,25.703585694885255,19.40828664855957Q25.768585694885253,19.25148664855957,25.851785694885255,19.10348664855957Q25.934985694885253,18.95548664855957,26.035285694885253,18.81838664855957Q26.135585694885254,18.68138664855957,26.251485694885254,18.55728664855957Q26.367285694885254,18.43318664855957,26.497185694885253,18.32378664855957Q26.627085694885253,18.21438664855957,26.768985694885252,18.121186648559572Q26.910985694885255,18.02808664855957,27.062985694885253,17.95248664855957Q27.215085694885254,17.87698664855957,27.375085694885254,17.82008664855957Q27.535085694885254,17.76318664855957,27.700685694885255,17.72578664855957Q27.817385694885253,17.69938664855957,27.931585694885253,17.66328664855957Q28.045685694885254,17.62718664855957,28.156385694885255,17.581586648559572Q28.267085694885253,17.53598664855957,28.373485694885254,17.48118664855957Q28.479985694885254,17.42648664855957,28.581385694885252,17.36298664855957Q28.682885694885254,17.29948664855957,28.778585694885255,17.22758664855957Q28.874385694885255,17.15578664855957,28.963685694885253,17.07608664855957Q29.053085694885254,16.99648664855957,29.135485694885254,16.90958664855957Q29.217785694885254,16.82268664855957,29.292485694885254,16.72918664855957Q29.367285694885254,16.63568664855957,29.433885694885255,16.53628664855957Q29.500485694885253,16.436786648559572,29.558485694885253,16.33208664855957Q29.616485694885252,16.22738664855957,29.665385694885256,16.11808664855957Q29.714385694885255,16.00888664855957,29.753985694885255,15.89588664855957Q29.793585694885255,15.78298664855957,29.823485694885253,15.66708664855957Q29.853485694885254,15.55118664855957,29.873585694885254,15.43318664855957Q29.893585694885253,15.315186648559571,29.903685694885255,15.19588664855957Q29.913785694885252,15.07658664855957,29.913785694885252,14.95688664855957Q29.913785694885252,14.83718664855957,29.903685694885255,14.71788664855957Q29.893685694885253,14.59858664855957,29.873585694885254,14.480586648559571Q29.853485694885254,14.36258664855957,29.823485694885253,14.246686648559571Q29.793585694885255,14.130786648559571,29.753985694885255,14.01788664855957Q29.714385694885255,13.90488664855957,29.665385694885256,13.79568664855957Q29.616485694885252,13.68648664855957,29.558485694885253,13.58168664855957Q29.500485694885253,13.47698664855957,29.433885694885255,13.37758664855957Q29.367285694885254,13.27808664855957,29.292485694885254,13.18458664855957Q29.217785694885254,13.091086648559571,29.135485694885254,13.004186648559571Q29.053085694885254,12.91728664855957,28.963685694885253,12.83768664855957Q28.874385694885255,12.75798664855957,28.778585694885255,12.68618664855957Q28.682885694885254,12.61438664855957,28.581385694885252,12.550786648559571Q28.479985694885254,12.48728664855957,28.373485694885254,12.432586648559571Q28.267085694885253,12.377786648559571,28.156385694885255,12.33218664855957Q28.045685694885254,12.28658664855957,27.931585694885253,12.250486648559571Q27.817385694885253,12.21438664855957,27.700685694885255,12.187986648559571Q27.535085694885254,12.150586648559571,27.375085694885254,12.09368664855957Q27.215085694885254,12.03678664855957,27.062985694885253,11.96128664855957Q26.910985694885255,11.88568664855957,26.768985694885252,11.79258664855957Q26.626985694885253,11.699386648559571,26.497185694885253,11.58998664855957Q26.367285694885254,11.480586648559571,26.251485694885254,11.35648664855957Q26.135585694885254,11.23238664855957,26.035285694885253,11.09538664855957Q25.934985694885253,10.95838664855957,25.851785694885255,10.81028664855957Q25.768585694885253,10.66228664855957,25.703585694885255,10.50548664855957Q25.638685694885254,10.34858664855957,25.592785694885254,10.18508664855957Q25.546985694885255,10.02158664855957,25.520985694885255,9.85379664855957Q25.494985694885255,9.68599664855957,25.489185694885254,9.51630664855957Q25.483385694885254,9.34660664855957,25.497885694885255,9.177426648559571Q25.512285694885254,9.00824664855957,25.546885694885255,8.84200664855957Q25.581385694885252,8.67575664855957,25.635485694885254,8.51480664855957Q25.689585694885253,8.35385664855957,25.762485694885253,8.20050664855957Q25.835385694885254,8.04714664855957,25.925985694885252,7.903576648559571Q25.989885694885253,7.802366648559571,26.045085694885255,7.69612664855957Q26.100185694885255,7.58989664855957,26.146285694885254,7.47938664855957Q26.192285694885253,7.36888664855957,26.228785694885254,7.254906648559571Q26.265385694885254,7.14091664855957,26.292185694885255,7.02425664855957Q26.319085694885253,6.90760664855957,26.335985694885252,6.78909664855957Q26.352885694885256,6.67059664855957,26.359785694885254,6.551096648559571Q26.366585694885252,6.431586648559571,26.363385694885253,6.31192664855957Q26.360185694885253,6.1922666485595705,26.346985694885255,6.0732966485595705Q26.333685694885254,5.95433664855957,26.310385694885255,5.83690664855957Q26.287185694885252,5.71948664855957,26.254185694885255,5.604426648559571Q26.221085694885254,5.4893766485595705,26.178485694885254,5.3775166485595705Q26.135885694885253,5.26565664855957,26.083985694885254,5.157776648559571Q26.032085694885254,5.04989664855957,25.971385694885253,4.946766648559571Q25.910585694885253,4.84364664855957,25.841285694885254,4.74599664855957Q25.772085694885252,4.64835664855957,25.694885694885254,4.55688664855957Q25.617685694885253,4.46541664855957,25.532985694885255,4.3807766485595705Q25.448385694885253,4.296126648559571,25.356885694885253,4.218916648559571Q25.265385694885254,4.14169664855957,25.167785694885254,4.07245664855957Q25.070185694885254,4.003216648559571,24.966985694885253,3.9424366485595703Q24.863885694885255,3.88166664855957,24.755985694885254,3.8297866485595704Q24.648185694885253,3.7779066485595703,24.536285694885255,3.7352966485595704Q24.424385694885252,3.69268664855957,24.309385694885254,3.6596366485595704Q24.194285694885252,3.62659664855957,24.076885694885252,3.6033566485595703Q23.959485694885252,3.5801166485595703,23.840485694885253,3.5668466485595705Q23.721485694885253,3.55357664855957,23.601885694885254,3.5503666485595704Q23.482185694885253,3.5471666485595703,23.362685694885254,3.5540366485595705Q23.243185694885256,3.5609166485595702,23.124685694885255,3.5778266485595704Q23.006185694885254,3.5947466485595703,22.889485694885256,3.62157664855957Q22.772885694885254,3.6484066485595705,22.658885694885253,3.68495664855957Q22.544885694885252,3.7215166485595703,22.434385694885254,3.7675366485595703Q22.323885694885252,3.8135666485595703,22.217685694885255,3.86872664855957Q22.111385694885254,3.9238866485595705,22.010185694885255,3.9877966485595704Q21.866685694885255,4.078456648559571,21.713285694885254,4.151346648559571Q21.559985694885253,4.22423664855957,21.398985694885255,4.27833664855957Q21.238085694885253,4.33242664855957,21.071785694885254,4.36694664855957Q20.905585694885254,4.40147664855957,20.736385694885254,4.41593664855957Q20.567185694885254,4.4303966485595705,20.397485694885255,4.424576648559571Q20.227785694885252,4.41876664855957,20.059985694885253,4.39276664855957Q19.892185694885253,4.36677664855957,19.728685694885254,4.32095664855957Q19.565185694885255,4.27514664855957,19.408385694885254,4.210166648559571ZM14.956885694885253,22.95688664855957Q15.153285694885254,22.95688664855957,15.349485694885255,22.94728664855957Q15.545585694885254,22.93758664855957,15.740985694885254,22.91838664855957Q15.936485694885254,22.89908664855957,16.130785694885255,22.87028664855957Q16.324985694885253,22.84148664855957,16.517585694885256,22.80318664855957Q16.710185694885254,22.76488664855957,16.900685694885254,22.71718664855957Q17.091285694885254,22.66938664855957,17.279185694885253,22.61238664855957Q17.467085694885252,22.55538664855957,17.651985694885255,22.48928664855957Q17.836885694885254,22.423086648559572,18.018385694885254,22.34788664855957Q18.199785694885254,22.27278664855957,18.377285694885256,22.18878664855957Q18.554885694885254,22.10488664855957,18.728085694885255,22.01228664855957Q18.901285694885253,21.91968664855957,19.069685694885255,21.81868664855957Q19.238185694885253,21.71778664855957,19.401485694885253,21.60868664855957Q19.564785694885256,21.49958664855957,19.722485694885254,21.38258664855957Q19.880185694885252,21.26558664855957,20.032085694885254,21.14098664855957Q20.183885694885255,21.01638664855957,20.329385694885254,20.88448664855957Q20.474885694885256,20.75258664855957,20.613785694885255,20.61378664855957Q20.752585694885255,20.474886648559572,20.884485694885253,20.32938664855957Q21.016385694885255,20.18388664855957,21.140985694885252,20.03208664855957Q21.265585694885253,19.88018664855957,21.382585694885254,19.72248664855957Q21.499585694885255,19.564786648559572,21.608685694885253,19.40148664855957Q21.717785694885254,19.23818664855957,21.818685694885254,19.06968664855957Q21.919685694885253,18.90128664855957,22.012285694885254,18.72808664855957Q22.104885694885255,18.55488664855957,22.188785694885254,18.377286648559572Q22.272785694885254,18.19978664855957,22.347885694885253,18.01838664855957Q22.423085694885255,17.83688664855957,22.489285694885254,17.65198664855957Q22.555385694885253,17.46708664855957,22.612385694885255,17.27918664855957Q22.669385694885253,17.09128664855957,22.717185694885252,16.90068664855957Q22.764885694885255,16.71018664855957,22.803185694885254,16.517586648559572Q22.841485694885254,16.32498664855957,22.870285694885254,16.13078664855957Q22.899085694885255,15.93648664855957,22.918385694885252,15.74098664855957Q22.937585694885254,15.54558664855957,22.947285694885252,15.349486648559571Q22.956885694885255,15.15328664855957,22.956885694885255,14.95688664855957Q22.956885694885255,14.76048664855957,22.947285694885252,14.56438664855957Q22.937585694885254,14.36818664855957,22.918385694885252,14.17278664855957Q22.899085694885255,13.97728664855957,22.870285694885254,13.78308664855957Q22.841485694885254,13.588786648559571,22.803185694885254,13.39618664855957Q22.764885694885255,13.20358664855957,22.717185694885252,13.01308664855957Q22.669385694885253,12.82258664855957,22.612385694885255,12.634586648559571Q22.555385694885253,12.44668664855957,22.489285694885254,12.26178664855957Q22.423085694885255,12.07688664855957,22.347885694885253,11.89538664855957Q22.272785694885254,11.71398664855957,22.188785694885254,11.53648664855957Q22.104885694885255,11.35888664855957,22.012285694885254,11.185686648559571Q21.919685694885253,11.01248664855957,21.818685694885254,10.84408664855957Q21.717785694885254,10.67558664855957,21.608685694885253,10.51228664855957Q21.499585694885255,10.34908664855957,21.382585694885254,10.19128664855957Q21.265585694885253,10.03358664855957,21.140985694885252,9.88174664855957Q21.016385694885255,9.72993664855957,20.884485694885253,9.584426648559571Q20.752585694885255,9.43890664855957,20.613785694885255,9.300036648559571Q20.474885694885256,9.16117664855957,20.329385694885254,9.02928664855957Q20.183885694885255,8.897396648559571,20.032085694885254,8.772816648559571Q19.880185694885252,8.64822664855957,19.722485694885254,8.53123664855957Q19.564785694885256,8.41424664855957,19.401485694885253,8.30513664855957Q19.238185694885253,8.19602664855957,19.069685694885255,8.09506664855957Q18.901285694885253,7.99409664855957,18.728085694885255,7.90152664855957Q18.554885694885254,7.80894664855957,18.377285694885256,7.72497664855957Q18.199785694885254,7.64101664855957,18.018385694885254,7.565856648559571Q17.836885694885254,7.49070664855957,17.651985694885255,7.42454664855957Q17.467085694885252,7.35838664855957,17.279185694885253,7.30137664855957Q17.091285694885254,7.24436664855957,16.900685694885254,7.19664664855957Q16.710185694885254,7.14892664855957,16.517585694885256,7.11061664855957Q16.324985694885253,7.07229664855957,16.130785694885255,7.04348664855957Q15.936485694885254,7.014666648559571,15.740985694885254,6.99541664855957Q15.545585694885254,6.976166648559571,15.349485694885255,6.96653664855957Q15.153285694885254,6.95689664855957,14.956885694885253,6.95689664855957Q14.760485694885254,6.95689664855957,14.564385694885253,6.96653664855957Q14.368185694885254,6.976166648559571,14.172785694885254,6.99541664855957Q13.977285694885254,7.014666648559571,13.783085694885253,7.04348664855957Q13.588785694885255,7.07229664855957,13.396185694885254,7.11061664855957Q13.203585694885254,7.14892664855957,13.013085694885254,7.19664664855957Q12.822585694885253,7.24436664855957,12.634585694885255,7.30137664855957Q12.446685694885254,7.35838664855957,12.261785694885253,7.42454664855957Q12.076885694885254,7.49070664855957,11.895385694885254,7.565856648559571Q11.713985694885254,7.64101664855957,11.536485694885254,7.72497664855957Q11.358885694885254,7.80894664855957,11.185685694885255,7.90152664855957Q11.012485694885253,7.99410664855957,10.844085694885253,8.09506664855957Q10.675585694885253,8.19602664855957,10.512285694885254,8.30513664855957Q10.349085694885254,8.41424664855957,10.191285694885254,8.53123664855957Q10.033585694885254,8.64822664855957,9.881745694885254,8.772816648559571Q9.729935694885254,8.897396648559571,9.584425694885255,9.02928664855957Q9.438905694885253,9.16117664855957,9.300035694885255,9.300036648559571Q9.161175694885253,9.43890664855957,9.029285694885253,9.584426648559571Q8.897395694885255,9.72993664855957,8.772815694885255,9.88174664855957Q8.648225694885253,10.03358664855957,8.531235694885254,10.19128664855957Q8.414245694885254,10.34908664855957,8.305135694885253,10.51228664855957Q8.196025694885254,10.67558664855957,8.095065694885253,10.84408664855957Q7.994095694885254,11.01248664855957,7.901525694885254,11.185686648559571Q7.808945694885254,11.35888664855957,7.724975694885254,11.53648664855957Q7.641015694885254,11.71398664855957,7.565855694885254,11.89538664855957Q7.4907056948852535,12.07688664855957,7.4245456948852535,12.26178664855957Q7.3583856948852535,12.44668664855957,7.3013756948852535,12.634586648559571Q7.2443656948852535,12.82258664855957,7.1966456948852535,13.01308664855957Q7.1489256948852535,13.20358664855957,7.1106156948852535,13.39618664855957Q7.072295694885254,13.588786648559571,7.043485694885254,13.78308664855957Q7.014665694885254,13.97728664855957,6.995415694885254,14.17278664855957Q6.976165694885254,14.36818664855957,6.966535694885254,14.56438664855957Q6.956895694885254,14.76048664855957,6.956895694885254,14.95688664855957Q6.956895694885254,15.15328664855957,6.966535694885254,15.349486648559571Q6.976165694885254,15.54558664855957,6.995415694885254,15.74098664855957Q7.014665694885254,15.93648664855957,7.043485694885254,16.13078664855957Q7.072295694885254,16.32498664855957,7.1106156948852535,16.517586648559572Q7.1489256948852535,16.71018664855957,7.1966456948852535,16.90068664855957Q7.2443656948852535,17.09128664855957,7.3013756948852535,17.27918664855957Q7.358375694885254,17.46708664855957,7.4245456948852535,17.65198664855957Q7.4907056948852535,17.83688664855957,7.565855694885254,18.01838664855957Q7.641015694885254,18.19978664855957,7.724975694885254,18.377286648559572Q7.808945694885254,18.55488664855957,7.901525694885254,18.72808664855957Q7.994095694885254,18.90128664855957,8.095065694885253,19.06968664855957Q8.196025694885254,19.23818664855957,8.305135694885253,19.40148664855957Q8.414245694885254,19.564786648559572,8.531235694885254,19.72248664855957Q8.648225694885253,19.88018664855957,8.772815694885255,20.03208664855957Q8.897395694885255,20.18388664855957,9.029285694885253,20.32938664855957Q9.161175694885253,20.474886648559572,9.300035694885255,20.61378664855957Q9.438905694885253,20.75258664855957,9.584425694885255,20.88448664855957Q9.729935694885254,21.01638664855957,9.881745694885254,21.14098664855957Q10.033585694885254,21.26558664855957,10.191285694885254,21.38258664855957Q10.349085694885254,21.49958664855957,10.512285694885254,21.60868664855957Q10.675585694885253,21.71778664855957,10.844085694885253,21.81868664855957Q11.012485694885253,21.91968664855957,11.185685694885255,22.01228664855957Q11.358885694885254,22.10488664855957,11.536485694885254,22.18878664855957Q11.713985694885254,22.27278664855957,11.895385694885254,22.34788664855957Q12.076885694885254,22.423086648559572,12.261785694885253,22.48928664855957Q12.446685694885254,22.55538664855957,12.634585694885255,22.61238664855957Q12.822585694885253,22.66938664855957,13.013085694885254,22.71718664855957Q13.203585694885254,22.76488664855957,13.396185694885254,22.80318664855957Q13.588785694885255,22.84148664855957,13.783085694885253,22.87028664855957Q13.977285694885254,22.89908664855957,14.172785694885254,22.91838664855957Q14.368185694885254,22.93758664855957,14.564385694885253,22.94728664855957Q14.760485694885254,22.95688664855957,14.956885694885253,22.95688664855957Z" fill-rule="evenodd" fill="#323232" fill-opacity="1"/></g><g><ellipse cx="14.956864356994629" cy="14.95689582824707" rx="5" ry="5" fill="#323232" fill-opacity="1"/></g></g></svg>