<svg xmlns="http://www.w3.org/2000/svg" xmlns:xlink="http://www.w3.org/1999/xlink" fill="none" version="1.1" width="40" height="40" viewBox="0 0 40 40"><defs><clipPath id="master_svg0_165_685"><rect x="0" y="0" width="40" height="40" rx="0"/></clipPath></defs><g clip-path="url(#master_svg0_165_685)"><g><g><path d="M10.333333492279053,19.83333396911621L28.666633492279054,19.83333396911621L28.666633492279054,33.58333396911621L22.25003349227905,33.58333396911621L22.25003349227905,28.08333396911621Q22.25003349227905,27.94823396911621,22.23673349227905,27.813783969116212Q22.223533492279053,27.67933396911621,22.19713349227905,27.54683396911621Q22.17083349227905,27.41433396911621,22.131533492279054,27.285053969116213Q22.092333492279053,27.15577396911621,22.040633492279053,27.03095396911621Q21.988933492279052,26.90614396911621,21.925233492279055,26.78699396911621Q21.861633492279054,26.667843969116213,21.786533492279055,26.555513969116213Q21.711433492279053,26.443183969116212,21.625733492279053,26.338753969116212Q21.54003349227905,26.23432396911621,21.444533492279053,26.13879396911621Q21.349033492279055,26.04326396911621,21.244533492279054,25.957553969116212Q21.140133492279055,25.87185396911621,21.02783349227905,25.796793969116212Q20.915433492279053,25.72173396911621,20.796333492279054,25.65805396911621Q20.67723349227905,25.59436396911621,20.552333492279054,25.542663969116212Q20.427533492279053,25.490963969116212,20.29827349227905,25.45174396911621Q20.168993492279053,25.41253396911621,20.036483492279054,25.38617396911621Q19.903983492279053,25.35981396911621,19.769533492279052,25.34657396911621Q19.635093492279054,25.33333396911621,19.499993492279053,25.33333396911621Q19.36489349227905,25.33333396911621,19.23044349227905,25.34657396911621Q19.095993492279053,25.35981396911621,18.963493492279053,25.38617396911621Q18.830983492279053,25.41253396911621,18.70170349227905,25.45174396911621Q18.57242349227905,25.490963969116212,18.447613492279054,25.542663969116212Q18.322793492279054,25.59436396911621,18.203653492279052,25.65805396911621Q18.084503492279055,25.72173396911621,17.972173492279055,25.796793969116212Q17.859843492279055,25.87185396911621,17.75540349227905,25.957553969116212Q17.650973492279054,26.04326396911621,17.555443492279053,26.13879396911621Q17.459913492279053,26.23432396911621,17.374213492279054,26.338753969116212Q17.28850349227905,26.443183969116212,17.213443492279055,26.555513969116213Q17.138393492279054,26.667843969116213,17.074703492279053,26.78699396911621Q17.01102349227905,26.90614396911621,16.959323492279054,27.03095396911621Q16.907623492279054,27.15577396911621,16.868403492279054,27.285053969116213Q16.829183492279054,27.41433396911621,16.802833492279053,27.54683396911621Q16.776473492279052,27.67933396911621,16.763233492279053,27.813783969116212Q16.749993492279053,27.94823396911621,16.749993492279053,28.08333396911621L16.749993492279053,33.58333396911621L10.333333492279053,33.58333396911621L10.333333492279053,19.83333396911621Z" fill-rule="evenodd" fill="#323232" fill-opacity="1"/></g><g><path d="M19.5,7.000000000000001L33.7894,20.75L5.21058,20.75L19.5,7.000000000000001Z" fill="#323232" fill-opacity="1"/></g></g></g></svg>