<svg xmlns="http://www.w3.org/2000/svg" xmlns:xlink="http://www.w3.org/1999/xlink" fill="none" version="1.1" width="348" height="103.3663330078125" viewBox="0 0 348 103.3663330078125"><defs><linearGradient x1="0.5" y1="1" x2="0.5" y2="0" id="master_svg0_15_2842"><stop offset="0%" stop-color="#FD6250" stop-opacity="1"/><stop offset="100%" stop-color="#F59E06" stop-opacity="1"/></linearGradient><linearGradient x1="0.5" y1="1" x2="0.5" y2="0" id="master_svg1_16_1317"><stop offset="4.285714402794838%" stop-color="#FD634E" stop-opacity="1"/><stop offset="96.42857313156128%" stop-color="#F59E06" stop-opacity="1"/></linearGradient><linearGradient x1="120.59405517578125" y1="94.75244045257568" x2="347.99998474121094" y2="94.75244045257568" gradientUnits="userSpaceOnUse" id="master_svg2_15_2828"><stop offset="0%" stop-color="#FD6250" stop-opacity="1"/><stop offset="100%" stop-color="#F59E06" stop-opacity="1"/></linearGradient></defs><g><g><g><g><g><path d="M137.82175517578125,51.683083067321775L120.59405517578125,51.68318306732178Q120.59405517578125,50.83728306732178,120.63555827578125,49.99248306732178Q120.67706137578125,49.14768306732178,120.75996717578126,48.30588306732177Q120.84287417578125,47.46418306732178,120.96698317578125,46.627483067321776Q121.09109317578125,45.790783067321776,121.25610717578125,44.96118306732178Q121.42112117578125,44.13158306732178,121.62664517578125,43.31118306732178Q121.83216517578126,42.49068306732178,122.07769517578124,41.68128306732178Q122.32322517578125,40.87178306732178,122.60818517578124,40.07548306732178Q122.89313517578125,39.27908306732178,123.21681517578125,38.49758306732178Q123.54050517578125,37.71618306732178,123.90214517578124,36.951483067321774Q124.26378517578125,36.18688306732177,124.66251517578125,35.44098306732178Q125.06123517578125,34.69498306732178,125.49607517578124,33.969483067321775Q125.93092517578125,33.24398306732178,126.40084517578126,32.54068306732178Q126.87076517578124,31.837383067321777,127.37462517578125,31.158083067321776Q127.87848517578125,30.478683067321775,128.41508517578126,29.824783067321775Q128.95167517578125,29.170983067321778,129.51969517578124,28.54428306732178Q130.08772517578126,27.91758306732178,130.68585517578126,27.319483067321777Q131.28395517578124,26.72135306732178,131.91065517578124,26.15332306732178Q132.53735517578124,25.585303067321778,133.19115517578126,25.048713067321778Q133.84505517578125,24.512123067321777,134.52445517578124,24.008253067321778Q135.20375517578125,23.50439306732178,135.90705517578124,23.034473067321777Q136.61035517578125,22.56455306732178,137.33585517578126,22.129703067321778Q138.06135517578124,21.694863067321776,138.80735517578125,21.29614306732178Q139.55325517578126,20.89741306732178,140.31785517578126,20.535773067321777Q141.08255517578124,20.174133067321776,141.86395517578126,19.850443067321777Q142.64545517578125,19.526763067321777,143.44185517578126,19.24181306732178Q144.23815517578126,18.956853067321777,145.04765517578124,18.71132306732178Q145.85705517578126,18.465793067321776,146.67755517578127,18.260273067321776Q147.49795517578124,18.054749067321776,148.32755517578124,17.889735067321777Q149.15715517578124,17.724721067321777,149.99385517578125,17.60061106732178Q150.83055517578126,17.47650206732178,151.67225517578126,17.393595067321776Q152.51405517578127,17.310689267321777,153.35885517578126,17.269186167321777Q154.20365517578125,17.227683067321777,155.04945517578125,17.227683067321777L155.04945517578125,34.455383067321776Q154.62655517578125,34.455383067321776,154.20415517578124,34.47618306732178Q153.78175517578126,34.496883067321775,153.36085517578124,34.538383067321774Q152.94005517578125,34.57978306732178,152.52165517578126,34.64188306732178Q152.10335517578125,34.703883067321776,151.68855517578126,34.78638306732178Q151.27375517578125,34.86898306732178,150.86345517578124,34.97168306732178Q150.45325517578124,35.07448306732178,150.04855517578125,35.197183067321774Q149.64385517578125,35.31998306732178,149.24565517578125,35.46248306732178Q148.84745517578125,35.60498306732178,148.45675517578124,35.76678306732178Q148.06605517578126,35.92858306732178,147.68365517578124,36.109483067321776Q147.30135517578125,36.29028306732178,146.92845517578124,36.489583067321774Q146.55545517578125,36.68898306732178,146.19265517578125,36.90638306732178Q145.82995517578127,37.12388306732178,145.47825517578124,37.35878306732178Q145.12665517578125,37.59378306732178,144.78695517578126,37.84568306732177Q144.44725517578127,38.09758306732178,144.12035517578124,38.365883067321775Q143.79345517578125,38.63418306732178,143.48005517578125,38.91818306732178Q143.16675517578125,39.20228306732177,142.86765517578124,39.50128306732178Q142.56865517578126,39.80028306732178,142.28455517578124,40.11368306732177Q142.00055517578124,40.427083067321774,141.73225517578126,40.753983067321776Q141.46395517578125,41.08088306732178,141.21205517578124,41.42058306732178Q140.96015517578124,41.76028306732178,140.72515517578125,42.11188306732178Q140.49025517578124,42.46358306732178,140.27275517578124,42.82628306732178Q140.05535517578124,43.189083067321775,139.85595517578125,43.56208306732178Q139.65665517578125,43.93498306732178,139.47585517578125,44.31728306732178Q139.29495517578124,44.69968306732178,139.13315517578124,45.09038306732178Q138.97135517578124,45.48108306732178,138.82885517578126,45.87928306732178Q138.68635517578124,46.27748306732178,138.56355517578126,46.68218306732177Q138.44085517578125,47.08688306732178,138.33805517578125,47.49708306732178Q138.23535517578125,47.907383067321774,138.15275517578124,48.322183067321774Q138.07025517578126,48.73698306732177,138.00825517578124,49.155283067321776Q137.94615517578126,49.573683067321774,137.90475517578125,49.99448306732178Q137.86325517578126,50.41538306732178,137.84255517578126,50.83778306732178Q137.82175517578125,51.260183067321776,137.82175517578125,51.683083067321775Z" fill-rule="evenodd" fill="#FD6250" fill-opacity="1"/></g></g><g><g><path d="M189.504903326416,68.91083980102539L189.504903326416,86.13863980102539Q188.65910332641602,86.13863980102539,187.81430332641602,86.09713980102539Q186.96950332641603,86.05553980102539,186.12770332641603,85.9726398010254Q185.28600332641602,85.8897398010254,184.44930332641601,85.7656398010254Q183.612603326416,85.64153980102539,182.783003326416,85.47653980102538Q181.953403326416,85.31153980102539,181.13300332641603,85.10603980102539Q180.31250332641602,84.90043980102539,179.503103326416,84.65493980102539Q178.69360332641602,84.4094398010254,177.89730332641602,84.12443980102539Q177.10090332641602,83.83953980102538,176.31940332641602,83.5158398010254Q175.538003326416,83.19213980102539,174.77330332641603,82.8305398010254Q174.00870332641603,82.46883980102538,173.26280332641602,82.07013980102539Q172.516803326416,81.67143980102539,171.79130332641603,81.23653980102539Q171.06580332641602,80.80173980102539,170.362503326416,80.3318398010254Q169.65920332641602,79.86183980102538,168.979903326416,79.3580398010254Q168.30050332641602,78.85413980102538,167.64660332641603,78.31753980102539Q166.992803326416,77.7809398010254,166.366103326416,77.21293980102539Q165.739403326416,76.64493980102539,165.14130332641602,76.04683980102538Q164.54317332641602,75.4487398010254,163.975143326416,74.8220398010254Q163.407123326416,74.1952398010254,162.87053332641602,73.54143980102539Q162.333933326416,72.88763980102539,161.83007332641603,72.20823980102539Q161.32621332641602,71.52883980102538,160.85629332641602,70.82553980102539Q160.38637332641602,70.12223980102539,159.951523326416,69.39673980102539Q159.51668332641603,68.6713398010254,159.117963326416,67.92533980102539Q158.719233326416,67.17933980102539,158.357593326416,66.41473980102539Q157.99595332641601,65.65013980102539,157.67226332641602,64.8686398010254Q157.34858332641602,64.08723980102539,157.063633326416,63.29083980102539Q156.77867332641603,62.49443980102539,156.53314332641602,61.68503980102539Q156.28761332641602,60.875619801025394,156.08209332641601,60.05513980102539Q155.87656932641602,59.23464980102539,155.711555326416,58.40506980102539Q155.54654132641602,57.57548980102539,155.42243132641602,56.73880980102539Q155.298322326416,55.90212980102539,155.215415326416,55.06036980102539Q155.13250952641602,54.218609801025394,155.09100642641602,53.37379980102539Q155.04950332641602,52.52898080102539,155.04950332641602,51.68314743041539L172.27720332641601,51.68314743041539Q172.27720332641601,52.10606380102539,172.29800332641602,52.52847180102539Q172.31870332641603,52.950879801025394,172.360203326416,53.37175980102539Q172.40160332641602,53.79263980102539,172.463703326416,54.21097980102539Q172.52570332641602,54.62931980102539,172.608303326416,55.04410980102539Q172.69080332641602,55.45889980102539,172.79350332641602,55.86913980102539Q172.89630332641602,56.27937980102539,173.01900332641603,56.684089801025394Q173.141803326416,57.08879980102539,173.28430332641602,57.48698980102539Q173.426803326416,57.88518980102539,173.588603326416,58.27590980102539Q173.750403326416,58.666629801025394,173.931303326416,59.04894980102539Q174.11210332641602,59.43125980102539,174.31150332641602,59.80423980102539Q174.510803326416,60.17721980102539,174.728203326416,60.53996980102539Q174.945703326416,60.90270980102539,175.18060332641602,61.25435980102539Q175.415603326416,61.60599980102539,175.667503326416,61.94563980102539Q175.91940332641602,62.28533980102539,176.18770332641603,62.61233980102539Q176.456003326416,62.939239801025394,176.740003326416,63.25253980102539Q177.02410332641603,63.565939801025394,177.323103326416,63.86493980102539Q177.622203326416,64.1640398010254,177.935503326416,64.44803980102539Q178.248903326416,64.7320398010254,178.575803326416,65.00033980102539Q178.90270332641603,65.26863980102539,179.24240332641602,65.5205398010254Q179.58210332641602,65.77253980102539,179.933703326416,66.00743980102538Q180.28540332641603,66.2424398010254,180.64810332641602,66.4598398010254Q181.010903326416,66.6772398010254,181.383903326416,66.87663980102539Q181.75680332641602,67.07603980102539,182.139103326416,67.2568398010254Q182.52150332641602,67.4376398010254,182.912203326416,67.5994398010254Q183.30290332641601,67.76133980102539,183.70110332641602,67.90383980102538Q184.09930332641602,68.0462398010254,184.504003326416,68.16903980102539Q184.908703326416,68.29183980102539,185.318903326416,68.39453980102539Q185.729203326416,68.49733980102539,186.14400332641603,68.57983980102539Q186.558803326416,68.66233980102538,186.97710332641603,68.7244398010254Q187.39550332641602,68.7864398010254,187.816303326416,68.8279398010254Q188.23720332641602,68.86933980102539,188.659603326416,68.89013980102538Q189.08200332641601,68.91083980102539,189.504903326416,68.91083980102539Z" fill-rule="evenodd" fill="#FD6250" fill-opacity="1"/></g></g><g><g><path d="M211.3913578125,86.13858974304199L192.9267578125,17.227689743041992L210.7624578125,17.227689743041992L220.46745781250002,53.44728974304199L230.03845781249998,17.72807274304199L229.9043578125,17.227689743041992L248.0081578125,17.227689743041992L247.87415781250002,17.72807274304199L258.5929578125,57.731389743041994L263.5428578125,39.25808974304199L280.1812578125,43.716389743041994L268.8142578125,86.13858974304199L248.3689578125,86.13858974304199L238.95625781249998,51.00998974304199L229.5435578125,86.13858974304199L211.3913578125,86.13858974304199Z" fill-rule="evenodd" fill="url(#master_svg0_15_2842)" fill-opacity="1"/></g><g><ellipse cx="276.3088912963867" cy="25.841545581817627" rx="8.613861083984375" ry="8.613862991333008" fill="#F59E06" fill-opacity="1"/></g></g><g><g><ellipse cx="339.38600635528564" cy="25.84154510498047" rx="8.613862037658691" ry="8.613862991333008" fill="#F59E06" fill-opacity="1"/></g><g><path d="M292.8711395263672,17.22767448425293L310.0988395263672,17.22767448425293L310.0988395263672,43.23627448425293L322.6724395263672,30.662674484252932L334.8543395263672,42.84447448425293L318.1192395263672,59.57967448425293L344.6781395263672,86.13857448425293L320.3144395263672,86.13857448425293L310.0988395263672,75.92297448425293L310.0988395263672,86.13857448425293L292.8711395263672,86.13857448425293L292.8711395263672,17.22767448425293Z" fill-rule="evenodd" fill="url(#master_svg1_16_1317)" fill-opacity="1"/></g></g></g><g><path d="M128.52651517578124,98.127578414917L127.62451517578126,98.127578414917L126.61251517578125,95.27857841491699L123.51051517578125,95.27857841491699L122.49851517578125,98.127578414917L121.59651517578125,98.127578414917L124.61051517578125,89.78957841491699L125.50151517578125,89.78957841491699L128.52651517578124,98.127578414917ZM125.02851517578125,91.032578414917L123.80751517578125,94.46457841491699L126.31551517578126,94.46457841491699L125.09451517578125,91.032578414917L125.02851517578125,91.032578414917ZM139.74655517578125,96.87357841491699Q139.30655517578126,97.53357841491699,138.58605517578124,97.907578414917Q137.86555517578125,98.28157841491699,136.97455517578126,98.28157841491699Q135.85255517578125,98.28157841491699,135.00555517578124,97.737078414917Q134.15855517578126,97.192578414917,133.69105517578126,96.20257841491699Q133.22355517578126,95.21257841491699,133.22355517578126,93.91457841491699Q133.22355517578126,92.63857841491699,133.69105517578126,91.67057841491699Q134.15855517578126,90.70257841491699,135.00555517578124,90.169078414917Q135.85255517578125,89.63557841491699,136.97455517578126,89.63557841491699Q137.84355517578126,89.63557841491699,138.58055517578126,90.00957841491699Q139.31755517578125,90.383578414917,139.74655517578125,91.043578414917L139.06455517578127,91.52757841491699Q138.72355517578126,91.032578414917,138.14055517578126,90.73557841491699Q137.55755517578126,90.43857841491699,136.96355517578124,90.43857841491699Q136.11655517578126,90.43857841491699,135.46755517578126,90.87307841491699Q134.81855517578126,91.30757841491699,134.46105517578124,92.09407841491699Q134.10355517578125,92.880578414917,134.10355517578125,93.91457841491699Q134.10355517578125,94.97057841491699,134.46105517578124,95.779078414917Q134.81855517578126,96.58757841491699,135.46755517578126,97.03307841491699Q136.11655517578126,97.478578414917,136.96355517578124,97.478578414917Q137.56855517578126,97.478578414917,138.12955517578126,97.181578414917Q138.69055517578124,96.88457841491699,139.06455517578127,96.36757841491699L139.74655517578125,96.87357841491699ZM143.42055517578126,98.28157841491699Q142.62855517578126,98.28157841491699,142.02905517578125,97.907578414917Q141.42955517578125,97.53357841491699,141.10505517578125,96.84057841491699Q140.78055517578125,96.14757841491699,140.78055517578125,95.223578414917Q140.78055517578125,94.299578414917,141.10505517578125,93.606578414917Q141.42955517578125,92.913578414917,142.02905517578125,92.53957841491699Q142.62855517578126,92.165578414917,143.42055517578126,92.165578414917Q144.21255517578126,92.165578414917,144.81205517578124,92.53957841491699Q145.41155517578125,92.913578414917,145.73605517578125,93.606578414917Q146.06055517578125,94.299578414917,146.06055517578125,95.223578414917Q146.06055517578125,96.14757841491699,145.73605517578125,96.84057841491699Q145.41155517578125,97.53357841491699,144.81205517578124,97.907578414917Q144.21255517578126,98.28157841491699,143.42055517578126,98.28157841491699ZM143.42055517578126,97.511578414917Q144.23455517578125,97.511578414917,144.72955517578126,96.89007841491699Q145.22455517578126,96.26857841491699,145.22455517578126,95.223578414917Q145.22455517578126,94.17857841491698,144.72955517578126,93.55707841491699Q144.23455517578125,92.93557841491699,143.42055517578126,92.93557841491699Q142.60655517578124,92.93557841491699,142.11155517578123,93.55707841491699Q141.61655517578126,94.17857841491698,141.61655517578126,95.223578414917Q141.61655517578126,96.26857841491699,142.11155517578123,96.89007841491699Q142.60655517578124,97.511578414917,143.42055517578126,97.511578414917ZM147.03955517578126,93.463578414917L150.42755517578127,93.463578414917L150.42755517578127,94.23357841491699L147.03955517578126,94.23357841491699L147.03955517578126,93.463578414917ZM154.12355517578123,98.29257841491699Q153.29855517578125,98.29257841491699,152.68805517578124,97.907578414917Q152.07755517578124,97.52257841491699,151.74205517578125,96.824078414917Q151.40655517578125,96.12557841491699,151.40655517578125,95.21257841491699Q151.40655517578125,94.31057841491699,151.74205517578125,93.62307841491699Q152.07755517578124,92.93557841491699,152.68805517578124,92.556078414917Q153.29855517578125,92.17657841491699,154.12355517578123,92.17657841491699Q154.75055517578124,92.17657841491699,155.33355517578124,92.50657841491699Q155.91655517578124,92.836578414917,156.25755517578125,93.386578414917L155.61955517578124,93.83757841491699Q155.36655517578126,93.419578414917,154.95405517578126,93.18307841491699Q154.54155517578124,92.94657841491698,154.06855517578126,92.94657841491698Q153.52955517578124,92.94657841491698,153.11705517578125,93.23257841491699Q152.70455517578125,93.51857841491699,152.47355517578126,94.03007841491699Q152.24255517578126,94.541578414917,152.24255517578126,95.21257841491699Q152.24255517578126,95.89457841491699,152.46805517578125,96.41707841491699Q152.69355517578126,96.939578414917,153.10605517578125,97.231078414917Q153.51855517578124,97.52257841491699,154.05755517578126,97.52257841491699Q154.53055517578125,97.52257841491699,154.94855517578125,97.286078414917Q155.36655517578126,97.049578414917,155.61955517578124,96.63157841491699L156.25755517578125,97.082578414917Q155.91655517578124,97.63257841491699,155.33355517578124,97.96257841491699Q154.75055517578124,98.29257841491699,154.12355517578123,98.29257841491699ZM157.52255517578124,98.127578414917L157.52255517578124,92.31957841491699L158.33655517578126,92.31957841491699L158.33655517578126,93.48557841491699L158.39155517578126,93.48557841491699Q158.74355517578124,92.880578414917,159.31555517578124,92.523078414917Q159.88755517578124,92.165578414917,160.60255517578125,92.165578414917L160.69055517578124,92.165578414917L160.69055517578124,93.04557841491699L160.58055517578126,93.04557841491699Q159.90955517578124,93.04557841491699,159.39805517578125,93.29307841491699Q158.88655517578124,93.540578414917,158.61155517578123,93.94207841491699Q158.33655517578126,94.34357841491699,158.33655517578126,94.78357841491699L158.33655517578126,98.127578414917L157.52255517578124,98.127578414917ZM166.30055517578126,94.77257841491699Q166.30055517578126,95.124578414917,166.23455517578125,95.454578414917L162.03255517578125,95.454578414917Q162.08755517578123,96.40057841491699,162.59905517578125,96.961578414917Q163.11055517578126,97.52257841491699,163.93555517578125,97.52257841491699Q164.41955517578126,97.52257841491699,164.83755517578123,97.291578414917Q165.25555517578124,97.06057841491699,165.53055517578125,96.62057841491699L166.17955517578125,97.06057841491699Q165.81655517578125,97.64357841491699,165.25005517578126,97.95707841491699Q164.68355517578124,98.270578414917,163.93555517578125,98.270578414917Q163.09955517578123,98.270578414917,162.47805517578126,97.90207841491699Q161.85655517578124,97.53357841491699,161.52655517578125,96.84607841491699Q161.19655517578124,96.15857841491699,161.19655517578124,95.234578414917Q161.19655517578124,94.299578414917,161.51555517578126,93.606578414917Q161.83455517578125,92.913578414917,162.42855517578124,92.53957841491699Q163.02255517578124,92.165578414917,163.82555517578123,92.165578414917Q164.95855517578124,92.165578414917,165.62955517578126,92.875078414917Q166.30055517578126,93.58457841491699,166.30055517578126,94.77257841491699ZM165.46455517578124,94.717578414917Q165.46455517578124,93.90357841491699,165.01355517578125,93.40857841491699Q164.56255517578126,92.913578414917,163.82555517578123,92.913578414917Q163.12155517578125,92.913578414917,162.65405517578125,93.39757841491699Q162.18655517578125,93.88157841491699,162.06555517578124,94.717578414917L165.46455517578124,94.717578414917ZM169.18255517578126,98.28157841491699Q168.32455517578126,98.28157841491699,167.82955517578125,97.847078414917Q167.33455517578125,97.412578414917,167.33455517578125,96.686578414917Q167.33455517578125,94.81657841491699,170.24955517578127,94.81657841491699L171.10755517578124,94.81657841491699L171.10755517578124,94.288578414917Q171.10755517578124,93.65057841491699,170.73355517578125,93.282078414917Q170.35955517578125,92.913578414917,169.71055517578125,92.913578414917Q168.97355517578126,92.913578414917,168.22555517578127,93.540578414917L167.74155517578126,92.97957841491699Q168.61055517578126,92.165578414917,169.75455517578126,92.165578414917Q170.76655517578126,92.165578414917,171.34955517578123,92.704578414917Q171.93255517578126,93.243578414917,171.93255517578126,94.17857841491698L171.93255517578126,98.127578414917L171.10755517578124,98.127578414917L171.10755517578124,97.24757841491699L171.05255517578127,97.24757841491699Q170.78855517578126,97.72057841491699,170.27705517578124,98.00107841491699Q169.76555517578126,98.28157841491699,169.18255517578126,98.28157841491699ZM169.32555517578123,97.53357841491699Q169.73255517578124,97.53357841491699,170.14505517578124,97.35207841491699Q170.55755517578126,97.17057841491699,170.83255517578124,96.80207841491699Q171.10755517578124,96.433578414917,171.10755517578124,95.916578414917L171.10755517578124,95.564578414917L170.40355517578126,95.564578414917Q169.25955517578126,95.564578414917,168.71505517578126,95.82857841491699Q168.17055517578126,96.092578414917,168.17055517578126,96.63157841491699Q168.17055517578126,97.049578414917,168.47855517578125,97.291578414917Q168.78655517578125,97.53357841491699,169.32555517578123,97.53357841491699ZM176.31055517578125,93.08957841491699L174.62755517578125,93.08957841491699L174.62755517578125,96.51057841491699Q174.62755517578125,97.01657841491699,174.88055517578124,97.297078414917Q175.13355517578125,97.57757841491699,175.58455517578125,97.57757841491699Q175.81555517578124,97.57757841491699,176.17855517578124,97.45657841491699L176.17855517578124,98.21557841491699Q175.88155517578124,98.336578414917,175.41955517578126,98.336578414917Q174.63855517578125,98.336578414917,174.22055517578124,97.880078414917Q173.80255517578127,97.42357841491699,173.80255517578127,96.576578414917L173.80255517578127,93.08957841491699L172.88955517578125,93.08957841491699L172.88955517578125,92.31957841491699L173.80255517578127,92.31957841491699L173.80255517578127,90.50457841491699L174.62755517578125,90.50457841491699L174.62755517578125,92.31957841491699L176.31055517578125,92.31957841491699L176.31055517578125,93.08957841491699ZM182.06355517578123,94.77257841491699Q182.06355517578123,95.124578414917,181.99755517578126,95.454578414917L177.79555517578126,95.454578414917Q177.85055517578127,96.40057841491699,178.36205517578125,96.961578414917Q178.87355517578123,97.52257841491699,179.69855517578125,97.52257841491699Q180.18255517578126,97.52257841491699,180.60055517578127,97.291578414917Q181.01855517578124,97.06057841491699,181.29355517578125,96.62057841491699L181.94255517578125,97.06057841491699Q181.57955517578125,97.64357841491699,181.01305517578123,97.95707841491699Q180.44655517578124,98.270578414917,179.69855517578125,98.270578414917Q178.86255517578127,98.270578414917,178.24105517578124,97.90207841491699Q177.61955517578124,97.53357841491699,177.28955517578126,96.84607841491699Q176.95955517578125,96.15857841491699,176.95955517578125,95.234578414917Q176.95955517578125,94.299578414917,177.27855517578126,93.606578414917Q177.59755517578125,92.913578414917,178.19155517578125,92.53957841491699Q178.78555517578124,92.165578414917,179.58855517578127,92.165578414917Q180.72155517578125,92.165578414917,181.39255517578124,92.875078414917Q182.06355517578123,93.58457841491699,182.06355517578123,94.77257841491699ZM181.22755517578125,94.717578414917Q181.22755517578125,93.90357841491699,180.77655517578125,93.40857841491699Q180.32555517578123,92.913578414917,179.58855517578127,92.913578414917Q178.88455517578126,92.913578414917,178.41705517578126,93.39757841491699Q177.94955517578126,93.88157841491699,177.82855517578125,94.717578414917L181.22755517578125,94.717578414917ZM188.34455517578124,98.127578414917L187.53055517578125,98.127578414917L187.53055517578125,97.20357841491699L187.46455517578124,97.20357841491699Q187.17855517578124,97.72057841491699,186.69455517578126,98.00107841491699Q186.21055517578125,98.28157841491699,185.60555517578126,98.28157841491699Q184.89055517578123,98.28157841491699,184.31855517578126,97.880078414917Q183.74655517578125,97.478578414917,183.42205517578125,96.76907841491699Q183.09755517578125,96.05957841491698,183.09755517578125,95.168578414917Q183.09755517578125,94.299578414917,183.42205517578125,93.612078414917Q183.74655517578125,92.924578414917,184.31855517578126,92.54507841491699Q184.89055517578123,92.165578414917,185.60555517578126,92.165578414917Q186.16655517578124,92.165578414917,186.65055517578125,92.451578414917Q187.13455517578126,92.737578414917,187.46455517578124,93.243578414917L187.53055517578125,93.243578414917L187.53055517578125,89.78957841491699L188.34455517578124,89.78957841491699L188.34455517578124,98.127578414917ZM187.55255517578127,95.223578414917Q187.55255517578127,94.574578414917,187.32155517578127,94.05757841491699Q187.09055517578125,93.540578414917,186.68355517578124,93.25457841491699Q186.27655517578125,92.96857841491699,185.75955517578126,92.96857841491699Q185.23155517578124,92.96857841491699,184.81905517578124,93.25457841491699Q184.40655517578125,93.540578414917,184.17005517578124,94.05207841491699Q183.93355517578124,94.56357841491699,183.93355517578124,95.223578414917Q183.93355517578124,95.883578414917,184.17005517578124,96.395078414917Q184.40655517578125,96.90657841491699,184.83005517578124,97.192578414917Q185.25355517578123,97.478578414917,185.79255517578125,97.478578414917Q186.29855517578125,97.478578414917,186.70005517578124,97.192578414917Q187.10155517578124,96.90657841491699,187.32705517578125,96.395078414917Q187.55255517578127,95.883578414917,187.55255517578127,95.223578414917ZM195.47255517578125,98.127578414917L193.21755517578126,89.78957841491699L194.11955517578124,89.78957841491699L195.93455517578127,96.58757841491699L196.00055517578124,96.58757841491699L197.88155517578124,89.78957841491699L198.78355517578126,89.78957841491699L200.67555517578126,96.58757841491699L200.73055517578126,96.58757841491699L202.54555517578126,89.78957841491699L203.45855517578127,89.78957841491699L201.19255517578125,98.127578414917L200.30155517578123,98.127578414917L198.36555517578125,91.26357841491699L198.29955517578125,91.26357841491699L196.36355517578124,98.127578414917L195.47255517578125,98.127578414917ZM205.50455517578126,90.207578414917Q205.50455517578126,90.47157841491699,205.34505517578125,90.62557841491699Q205.18555517578125,90.779578414917,204.92155517578124,90.779578414917Q204.65755517578125,90.779578414917,204.50905517578127,90.62557841491699Q204.36055517578126,90.47157841491699,204.36055517578126,90.207578414917Q204.36055517578126,89.943578414917,204.50905517578127,89.78957841491699Q204.65755517578125,89.63557841491699,204.92155517578124,89.63557841491699Q205.18555517578125,89.63557841491699,205.34505517578125,89.78957841491699Q205.50455517578126,89.943578414917,205.50455517578126,90.207578414917ZM205.33955517578124,92.31957841491699L205.33955517578124,98.13857841491699L204.52555517578125,98.13857841491699L204.52555517578125,92.31957841491699L205.33955517578124,92.31957841491699ZM211.69755517578125,98.127578414917L210.67455517578125,98.127578414917L208.40855517578126,95.32257841491699L207.88055517578124,95.817578414917L207.88055517578124,98.127578414917L207.06655517578125,98.127578414917L207.06655517578125,89.78957841491699L207.88055517578124,89.78957841491699L207.88055517578124,94.761578414917L210.41055517578127,92.31957841491699L211.55455517578125,92.31957841491699L208.99155517578123,94.77257841491699L211.69755517578125,98.127578414917ZM213.71055517578125,90.207578414917Q213.71055517578125,90.47157841491699,213.55105517578124,90.62557841491699Q213.39155517578126,90.779578414917,213.12755517578125,90.779578414917Q212.86355517578124,90.779578414917,212.71505517578123,90.62557841491699Q212.56655517578125,90.47157841491699,212.56655517578125,90.207578414917Q212.56655517578125,89.943578414917,212.71505517578123,89.78957841491699Q212.86355517578124,89.63557841491699,213.12755517578125,89.63557841491699Q213.39155517578126,89.63557841491699,213.55105517578124,89.78957841491699Q213.71055517578125,89.943578414917,213.71055517578125,90.207578414917ZM213.54555517578126,92.31957841491699L213.54555517578126,98.13857841491699L212.73155517578124,98.13857841491699L212.73155517578124,92.31957841491699L213.54555517578126,92.31957841491699ZM219.18855517578123,98.127578414917L219.18855517578123,89.78957841491699L220.00255517578125,89.78957841491699L220.00255517578125,93.23257841491699L220.05755517578126,93.23257841491699Q220.37655517578125,92.737578414917,220.87105517578124,92.45707841491699Q221.36605517578124,92.17657841491699,221.94905517578127,92.17657841491699Q222.65305517578125,92.17657841491699,223.22005517578125,92.556078414917Q223.78605517578126,92.93557841491699,224.10505517578125,93.606578414917Q224.42405517578123,94.27757841491699,224.42405517578123,95.13557841491699Q224.42405517578123,96.037578414917,224.10505517578125,96.752578414917Q223.78605517578126,97.467578414917,223.22005517578125,97.869078414917Q222.65305517578125,98.270578414917,221.94905517578127,98.270578414917Q221.33305517578125,98.270578414917,220.84405517578125,97.990078414917Q220.35455517578123,97.70957841491699,220.05755517578126,97.20357841491699L220.00255517578125,97.20357841491699L220.00255517578125,98.127578414917L219.18855517578123,98.127578414917ZM219.96955517578124,95.223578414917Q219.96955517578124,95.87257841491699,220.19505517578125,96.389578414917Q220.42055517578126,96.90657841491699,220.82705517578125,97.192578414917Q221.23405517578124,97.478578414917,221.74005517578127,97.478578414917Q222.26805517578126,97.478578414917,222.69205517578126,97.192578414917Q223.11505517578127,96.90657841491699,223.35205517578123,96.389578414917Q223.58805517578125,95.87257841491699,223.58805517578125,95.223578414917Q223.58805517578125,94.574578414917,223.35705517578126,94.06307841491699Q223.12605517578123,93.55157841491699,222.70805517578125,93.26557841491699Q222.29005517578125,92.97957841491699,221.76205517578126,92.97957841491699Q221.24505517578126,92.97957841491699,220.83805517578125,93.26557841491699Q220.43155517578126,93.55157841491699,220.20055517578123,94.06307841491699Q219.96955517578124,94.574578414917,219.96955517578124,95.223578414917ZM227.13005517578125,98.127578414917L224.86405517578123,92.31957841491699L225.78805517578127,92.31957841491699L227.59205517578124,97.10457841491699L227.65805517578124,97.10457841491699L229.39605517578127,92.31957841491699L230.32005517578125,92.31957841491699L227.05305517578125,100.767578414917L226.14005517578124,100.767578414917L227.13005517578125,98.127578414917ZM237.59105517578126,98.28157841491699Q236.64505517578124,98.28157841491699,235.87005517578126,97.869078414917Q235.09405517578125,97.45657841491699,234.63205517578126,96.675578414917L235.35805517578126,96.23557841491699Q235.72105517578126,96.85157841491699,236.29905517578123,97.16507841491699Q236.87605517578123,97.478578414917,237.60205517578123,97.478578414917Q238.16305517578127,97.478578414917,238.60905517578124,97.291578414917Q239.05405517578123,97.10457841491699,239.30705517578124,96.76907841491699Q239.56005517578126,96.433578414917,239.56005517578126,96.01557841491699Q239.56005517578126,95.57557841491699,239.34005517578123,95.27857841491699Q239.12005517578126,94.981578414917,238.66405517578124,94.756078414917Q238.20705517578125,94.53057841491699,237.41505517578125,94.31057841491699Q236.57905517578126,94.068578414917,236.05705517578124,93.826578414917Q235.53405517578125,93.58457841491699,235.18205517578124,93.12807841491698Q234.83005517578124,92.671578414917,234.83005517578124,91.934578414917Q234.83005517578124,91.27457841491699,235.18205517578124,90.746578414917Q235.53405517578125,90.21857841491699,236.17205517578125,89.92707841491699Q236.81005517578126,89.63557841491699,237.63505517578125,89.63557841491699Q238.53705517578123,89.63557841491699,239.21405517578125,90.00957841491699Q239.89005517578124,90.383578414917,240.33005517578124,91.05457841491699L239.65905517578125,91.538578414917Q239.28505517578125,91.032578414917,238.75205517578127,90.73557841491699Q238.21805517578125,90.43857841491699,237.61305517578126,90.43857841491699Q237.08505517578124,90.43857841491699,236.64505517578124,90.62557841491699Q236.20505517578124,90.812578414917,235.95205517578125,91.142578414917Q235.69905517578127,91.472578414917,235.69905517578127,91.868578414917Q235.69905517578127,92.374578414917,235.98005517578125,92.699078414917Q236.26005517578125,93.023578414917,236.68905517578125,93.199578414917Q237.11805517578125,93.37557841491699,237.82205517578126,93.562578414917Q238.64705517578125,93.793578414917,239.20305517578123,94.068578414917Q239.75805517578124,94.34357841491699,240.09405517578125,94.805578414917Q240.42905517578123,95.267578414917,240.42905517578123,95.97157841491699Q240.42905517578123,96.675578414917,240.08305517578125,97.19807841491699Q239.73605517578125,97.72057841491699,239.09305517578125,98.00107841491699Q238.44905517578127,98.28157841491699,237.59105517578126,98.28157841491699ZM244.57605517578125,93.08957841491699L242.89305517578126,93.08957841491699L242.89305517578126,96.51057841491699Q242.89305517578126,97.01657841491699,243.14605517578127,97.297078414917Q243.39905517578126,97.57757841491699,243.85005517578125,97.57757841491699Q244.08105517578124,97.57757841491699,244.44405517578124,97.45657841491699L244.44405517578124,98.21557841491699Q244.14705517578125,98.336578414917,243.68505517578126,98.336578414917Q242.90405517578125,98.336578414917,242.48605517578125,97.880078414917Q242.06805517578124,97.42357841491699,242.06805517578124,96.576578414917L242.06805517578124,93.08957841491699L241.15505517578126,93.08957841491699L241.15505517578126,92.31957841491699L242.06805517578124,92.31957841491699L242.06805517578124,90.50457841491699L242.89305517578126,90.50457841491699L242.89305517578126,92.31957841491699L244.57605517578125,92.31957841491699L244.57605517578125,93.08957841491699ZM250.32905517578126,94.77257841491699Q250.32905517578126,95.124578414917,250.26305517578126,95.454578414917L246.06105517578123,95.454578414917Q246.11605517578124,96.40057841491699,246.62805517578124,96.961578414917Q247.13905517578127,97.52257841491699,247.96405517578125,97.52257841491699Q248.44805517578123,97.52257841491699,248.86605517578124,97.291578414917Q249.28405517578125,97.06057841491699,249.55905517578125,96.62057841491699L250.20805517578125,97.06057841491699Q249.84505517578125,97.64357841491699,249.27905517578125,97.95707841491699Q248.71205517578124,98.270578414917,247.96405517578125,98.270578414917Q247.12805517578124,98.270578414917,246.50705517578126,97.90207841491699Q245.88505517578125,97.53357841491699,245.55505517578126,96.84607841491699Q245.22505517578125,96.15857841491699,245.22505517578125,95.234578414917Q245.22505517578125,94.299578414917,245.54405517578124,93.606578414917Q245.86305517578126,92.913578414917,246.45705517578125,92.53957841491699Q247.05105517578124,92.165578414917,247.85405517578124,92.165578414917Q248.98705517578125,92.165578414917,249.65805517578124,92.875078414917Q250.32905517578126,93.58457841491699,250.32905517578126,94.77257841491699ZM249.49305517578125,94.717578414917Q249.49305517578125,93.90357841491699,249.04205517578126,93.40857841491699Q248.59105517578126,92.913578414917,247.85405517578124,92.913578414917Q247.15005517578123,92.913578414917,246.68305517578125,93.39757841491699Q246.21505517578123,93.88157841491699,246.09405517578125,94.717578414917L249.49305517578125,94.717578414917ZM251.64905517578126,89.78957841491699L252.46305517578125,89.78957841491699L252.46305517578125,96.98357841491699Q252.46305517578125,97.45657841491699,252.92505517578124,97.45657841491699L253.23305517578126,97.45657841491699L253.23305517578126,98.21557841491699L252.74905517578125,98.21557841491699Q251.64905517578126,98.21557841491699,251.64905517578126,97.20357841491699L251.64905517578126,89.78957841491699ZM254.33305517578125,89.78957841491699L255.14705517578125,89.78957841491699L255.14705517578125,96.98357841491699Q255.14705517578125,97.45657841491699,255.60905517578124,97.45657841491699L255.91705517578126,97.45657841491699L255.91705517578126,98.21557841491699L255.43305517578125,98.21557841491699Q254.33305517578125,98.21557841491699,254.33305517578125,97.20357841491699L254.33305517578125,89.78957841491699ZM258.57905517578126,98.28157841491699Q257.72105517578126,98.28157841491699,257.22605517578126,97.847078414917Q256.73105517578125,97.412578414917,256.73105517578125,96.686578414917Q256.73105517578125,94.81657841491699,259.64605517578127,94.81657841491699L260.5040551757812,94.81657841491699L260.5040551757812,94.288578414917Q260.5040551757812,93.65057841491699,260.13005517578125,93.282078414917Q259.7560551757813,92.913578414917,259.1070551757813,92.913578414917Q258.37005517578126,92.913578414917,257.62205517578127,93.540578414917L257.13805517578123,92.97957841491699Q258.00705517578126,92.165578414917,259.15105517578127,92.165578414917Q260.1630551757812,92.165578414917,260.74605517578124,92.704578414917Q261.32905517578126,93.243578414917,261.32905517578126,94.17857841491698L261.32905517578126,98.127578414917L260.5040551757812,98.127578414917L260.5040551757812,97.24757841491699L260.44905517578127,97.24757841491699Q260.18505517578126,97.72057841491699,259.6740551757813,98.00107841491699Q259.16205517578123,98.28157841491699,258.57905517578126,98.28157841491699ZM258.72205517578124,97.53357841491699Q259.1290551757812,97.53357841491699,259.54205517578123,97.35207841491699Q259.95405517578126,97.17057841491699,260.22905517578124,96.80207841491699Q260.5040551757812,96.433578414917,260.5040551757812,95.916578414917L260.5040551757812,95.564578414917L259.80005517578127,95.564578414917Q258.65605517578126,95.564578414917,258.1120551757813,95.82857841491699Q257.56705517578126,96.092578414917,257.56705517578126,96.63157841491699Q257.56705517578126,97.049578414917,257.87505517578126,97.291578414917Q258.18305517578125,97.53357841491699,258.72205517578124,97.53357841491699ZM262.8690551757812,98.127578414917L262.8690551757812,92.31957841491699L263.68305517578125,92.31957841491699L263.68305517578125,93.48557841491699L263.73805517578126,93.48557841491699Q264.09005517578123,92.880578414917,264.66205517578123,92.523078414917Q265.23405517578124,92.165578414917,265.94905517578127,92.165578414917L266.03705517578123,92.165578414917L266.03705517578123,93.04557841491699L265.9270551757812,93.04557841491699Q265.2560551757813,93.04557841491699,264.74505517578126,93.29307841491699Q264.23305517578126,93.540578414917,263.9580551757813,93.94207841491699Q263.68305517578125,94.34357841491699,263.68305517578125,94.78357841491699L263.68305517578125,98.127578414917L262.8690551757812,98.127578414917ZM271.8120551757812,98.127578414917L270.96505517578123,98.127578414917L270.96505517578123,89.78957841491699L271.8450551757812,89.78957841491699L276.32205517578126,96.609578414917L276.37705517578127,96.609578414917L276.37705517578127,89.78957841491699L277.22405517578125,89.78957841491699L277.22405517578125,98.127578414917L276.34405517578125,98.127578414917L271.8670551757813,91.296578414917L271.8120551757812,91.296578414917L271.8120551757812,98.127578414917ZM283.7250551757812,94.77257841491699Q283.7250551757812,95.124578414917,283.65905517578125,95.454578414917L279.45705517578125,95.454578414917Q279.51205517578126,96.40057841491699,280.02405517578126,96.961578414917Q280.5350551757813,97.52257841491699,281.3600551757812,97.52257841491699Q281.84405517578125,97.52257841491699,282.26205517578126,97.291578414917Q282.68005517578126,97.06057841491699,282.95505517578124,96.62057841491699L283.60405517578124,97.06057841491699Q283.24105517578124,97.64357841491699,282.67505517578127,97.95707841491699Q282.10805517578126,98.270578414917,281.3600551757812,98.270578414917Q280.52405517578126,98.270578414917,279.9030551757812,97.90207841491699Q279.28105517578126,97.53357841491699,278.9510551757812,96.84607841491699Q278.62105517578124,96.15857841491699,278.62105517578124,95.234578414917Q278.62105517578124,94.299578414917,278.94005517578125,93.606578414917Q279.2590551757812,92.913578414917,279.85305517578126,92.53957841491699Q280.44705517578126,92.165578414917,281.25005517578126,92.165578414917Q282.38305517578124,92.165578414917,283.0540551757813,92.875078414917Q283.7250551757812,93.58457841491699,283.7250551757812,94.77257841491699ZM282.8890551757812,94.717578414917Q282.8890551757812,93.90357841491699,282.43805517578124,93.40857841491699Q281.9870551757813,92.913578414917,281.25005517578126,92.913578414917Q280.54605517578125,92.913578414917,280.07905517578126,93.39757841491699Q279.61105517578125,93.88157841491699,279.4900551757812,94.717578414917L282.8890551757812,94.717578414917ZM287.23405517578124,95.17957841491699L289.2800551757813,98.127578414917L288.27905517578125,98.127578414917L286.72805517578126,95.773578414917L285.16605517578125,98.127578414917L284.17605517578124,98.127578414917L286.27705517578124,95.10257841491699L284.3190551757813,92.31957841491699L285.3090551757813,92.31957841491699L286.80505517578126,94.541578414917L288.2350551757812,92.31957841491699L289.2030551757813,92.31957841491699L287.23405517578124,95.17957841491699ZM294.7800551757813,92.31957841491699L294.7800551757813,98.127578414917L293.96605517578126,98.127578414917L293.96605517578126,97.24757841491699L293.9000551757813,97.24757841491699Q293.6360551757813,97.72057841491699,293.12505517578126,98.00107841491699Q292.61305517578126,98.28157841491699,292.04105517578125,98.28157841491699Q291.0730551757813,98.28157841491699,290.52905517578125,97.68207841491699Q289.98405517578124,97.082578414917,289.98405517578124,95.993578414917L289.98405517578124,92.31957841491699L290.79805517578126,92.31957841491699L290.79805517578126,95.86157841491699Q290.79805517578126,96.63157841491699,291.20005517578124,97.082578414917Q291.60105517578126,97.53357841491699,292.25005517578126,97.53357841491699Q293.0090551757812,97.53357841491699,293.48805517578126,97.038578414917Q293.96605517578126,96.543578414917,293.96605517578126,95.76257841491699L293.96605517578126,92.31957841491699L294.7800551757813,92.31957841491699ZM298.2560551757813,98.28157841491699Q297.43105517578124,98.28157841491699,296.83705517578124,97.93507841491699Q296.24305517578125,97.588578414917,295.9240551757813,96.99457841491699L296.6170551757813,96.58757841491699Q296.8810551757813,97.038578414917,297.30505517578126,97.286078414917Q297.72805517578126,97.53357841491699,298.2780551757812,97.53357841491699Q298.87205517578127,97.53357841491699,299.21905517578125,97.297078414917Q299.56505517578125,97.06057841491699,299.56505517578125,96.65357841491699Q299.56505517578125,96.26857841491699,299.22405517578125,96.026578414917Q298.88305517578124,95.784578414917,298.11305517578126,95.61957841491699Q297.10105517578126,95.377578414917,296.60105517578126,94.981578414917Q296.1000551757812,94.585578414917,296.1000551757812,93.936578414917Q296.1000551757812,93.12257841491699,296.66705517578123,92.64407841491699Q297.23305517578126,92.165578414917,298.21205517578124,92.165578414917Q298.93805517578124,92.165578414917,299.4940551757812,92.479078414917Q300.0490551757813,92.79257841491699,300.41205517578123,93.37557841491699L299.76305517578123,93.83757841491699Q299.4770551757813,93.386578414917,299.0760551757812,93.15007841491699Q298.6740551757813,92.913578414917,298.2010551757812,92.913578414917Q297.6290551757812,92.913578414917,297.2880551757812,93.166578414917Q296.94705517578126,93.419578414917,296.94705517578126,93.83757841491699Q296.94705517578126,94.20057841491699,297.31605517578123,94.45357841491699Q297.6840551757813,94.70657841491699,298.42105517578125,94.88257841491699Q300.40105517578127,95.311578414917,300.40105517578127,96.52157841491699Q300.40105517578127,97.335578414917,299.82405517578127,97.808578414917Q299.24605517578124,98.28157841491699,298.2560551757813,98.28157841491699ZM306.39605517578127,98.127578414917L305.5490551757813,98.127578414917L305.5490551757813,89.78957841491699L306.4290551757813,89.78957841491699L310.90605517578126,96.609578414917L310.9610551757812,96.609578414917L310.9610551757812,89.78957841491699L311.80805517578125,89.78957841491699L311.80805517578125,98.127578414917L310.92805517578125,98.127578414917L306.4510551757812,91.296578414917L306.39605517578127,91.296578414917L306.39605517578127,98.127578414917ZM318.3090551757813,94.77257841491699Q318.3090551757813,95.124578414917,318.24305517578125,95.454578414917L314.04105517578125,95.454578414917Q314.09605517578126,96.40057841491699,314.60805517578126,96.961578414917Q315.1190551757812,97.52257841491699,315.9440551757813,97.52257841491699Q316.42805517578125,97.52257841491699,316.84605517578126,97.291578414917Q317.2640551757812,97.06057841491699,317.53905517578124,96.62057841491699L318.18805517578124,97.06057841491699Q317.82505517578124,97.64357841491699,317.2590551757812,97.95707841491699Q316.69205517578126,98.270578414917,315.9440551757813,98.270578414917Q315.10805517578126,98.270578414917,314.4870551757813,97.90207841491699Q313.8650551757812,97.53357841491699,313.5350551757813,96.84607841491699Q313.20505517578124,96.15857841491699,313.20505517578124,95.234578414917Q313.20505517578124,94.299578414917,313.52405517578126,93.606578414917Q313.8430551757813,92.913578414917,314.4370551757812,92.53957841491699Q315.03105517578126,92.165578414917,315.83405517578126,92.165578414917Q316.96705517578124,92.165578414917,317.63805517578123,92.875078414917Q318.3090551757813,93.58457841491699,318.3090551757813,94.77257841491699ZM317.47305517578127,94.717578414917Q317.47305517578127,93.90357841491699,317.02205517578125,93.40857841491699Q316.5710551757812,92.913578414917,315.83405517578126,92.913578414917Q315.13005517578125,92.913578414917,314.6630551757812,93.39757841491699Q314.19505517578125,93.88157841491699,314.07405517578127,94.717578414917L317.47305517578127,94.717578414917ZM322.46705517578124,93.08957841491699L320.78405517578125,93.08957841491699L320.78405517578125,96.51057841491699Q320.78405517578125,97.01657841491699,321.03705517578123,97.297078414917Q321.2900551757813,97.57757841491699,321.74105517578124,97.57757841491699Q321.97205517578124,97.57757841491699,322.33505517578124,97.45657841491699L322.33505517578124,98.21557841491699Q322.0380551757812,98.336578414917,321.5760551757812,98.336578414917Q320.7950551757813,98.336578414917,320.37705517578127,97.880078414917Q319.95905517578126,97.42357841491699,319.95905517578126,96.576578414917L319.95905517578126,93.08957841491699L319.04605517578125,93.08957841491699L319.04605517578125,92.31957841491699L319.95905517578126,92.31957841491699L319.95905517578126,90.50457841491699L320.78405517578125,90.50457841491699L320.78405517578125,92.31957841491699L322.46705517578124,92.31957841491699L322.46705517578124,93.08957841491699ZM324.65605517578126,98.127578414917L322.73105517578125,92.31957841491699L323.63305517578124,92.31957841491699L325.06305517578124,97.005578414917L325.11805517578125,97.005578414917L326.53705517578123,92.31957841491699L327.42805517578125,92.31957841491699L328.85805517578126,97.005578414917L328.9130551757812,97.005578414917L330.3430551757813,92.31957841491699L331.23405517578124,92.31957841491699L329.32005517578125,98.127578414917L328.44005517578125,98.127578414917L327.01005517578125,93.419578414917L326.95505517578124,93.419578414917L325.5470551757812,98.127578414917L324.65605517578126,98.127578414917ZM334.34705517578124,98.28157841491699Q333.55505517578126,98.28157841491699,332.9560551757812,97.907578414917Q332.35605517578125,97.53357841491699,332.03205517578124,96.84057841491699Q331.70705517578125,96.14757841491699,331.70705517578125,95.223578414917Q331.70705517578125,94.299578414917,332.03205517578124,93.606578414917Q332.35605517578125,92.913578414917,332.9560551757812,92.53957841491699Q333.55505517578126,92.165578414917,334.34705517578124,92.165578414917Q335.1390551757812,92.165578414917,335.73905517578123,92.53957841491699Q336.3380551757813,92.913578414917,336.6630551757812,93.606578414917Q336.9870551757813,94.299578414917,336.9870551757813,95.223578414917Q336.9870551757813,96.14757841491699,336.6630551757812,96.84057841491699Q336.3380551757813,97.53357841491699,335.73905517578123,97.907578414917Q335.1390551757812,98.28157841491699,334.34705517578124,98.28157841491699ZM334.34705517578124,97.511578414917Q335.16105517578126,97.511578414917,335.65605517578126,96.89007841491699Q336.15105517578127,96.26857841491699,336.15105517578127,95.223578414917Q336.15105517578127,94.17857841491698,335.65605517578126,93.55707841491699Q335.16105517578126,92.93557841491699,334.34705517578124,92.93557841491699Q333.5330551757812,92.93557841491699,333.0380551757812,93.55707841491699Q332.54305517578126,94.17857841491698,332.54305517578126,95.223578414917Q332.54305517578126,96.26857841491699,333.0380551757812,96.89007841491699Q333.5330551757812,97.511578414917,334.34705517578124,97.511578414917ZM338.3070551757812,98.127578414917L338.3070551757812,92.31957841491699L339.12105517578124,92.31957841491699L339.12105517578124,93.48557841491699L339.17605517578124,93.48557841491699Q339.5280551757812,92.880578414917,340.1000551757812,92.523078414917Q340.6720551757812,92.165578414917,341.38705517578126,92.165578414917L341.4750551757812,92.165578414917L341.4750551757812,93.04557841491699L341.3650551757812,93.04557841491699Q340.6940551757813,93.04557841491699,340.18305517578125,93.29307841491699Q339.67105517578125,93.540578414917,339.39605517578127,93.94207841491699Q339.12105517578124,94.34357841491699,339.12105517578124,94.78357841491699L339.12105517578124,98.127578414917L338.3070551757812,98.127578414917ZM347.04105517578125,98.127578414917L346.0180551757812,98.127578414917L343.75205517578127,95.32257841491699L343.22405517578125,95.817578414917L343.22405517578125,98.127578414917L342.4100551757813,98.127578414917L342.4100551757813,89.78957841491699L343.22405517578125,89.78957841491699L343.22405517578125,94.761578414917L345.7540551757812,92.31957841491699L346.8980551757812,92.31957841491699L344.33505517578124,94.77257841491699L347.04105517578125,98.127578414917Z" fill="url(#master_svg2_15_2828)" fill-opacity="1"/></g></g><g transform="matrix(1,-2.2348336514710354e-8,2.2348336514710354e-8,1,-1.4652711252082222e-14,0)"><g><path d="M51.6832,79.2475006556511L51.6832,103.36600065565109Q50.4144,103.36600065565109,49.1472,103.3040006556511Q47.88,103.2420006556511,46.6173,103.1170006556511Q45.3547,102.99300065565109,44.0997,102.8070006556511Q42.8447,102.62100065565109,41.6003,102.3730006556511Q40.3559,102.1260006556511,39.1252,101.81700065565109Q37.8945,101.50900065565109,36.6803,101.1410006556511Q35.4662,100.77300065565109,34.2716,100.34500065565109Q33.077,99.91770065565109,31.9049,99.43220065565109Q30.7327,98.9467006556511,29.5858,98.4042006556511Q28.4388,97.86170065565109,27.3199,97.26370065565109Q26.201,96.66560065565109,25.1127,96.0133006556511Q24.0245,95.3610006556511,22.9695,94.65620065565109Q21.9146,93.9513006556511,20.8955,93.19550065565109Q19.8765,92.4397006556511,18.8957,91.63480065565109Q17.915,90.82990065565109,16.9749,89.9779006556511Q16.0348,89.12580065565109,15.1377,88.2287006556511Q14.2405,87.33160065565109,13.3885,86.39150065565109Q12.5364,85.4514006556511,11.7315,84.4706006556511Q10.9267,83.4899006556511,10.1709,82.47080065565109Q9.41507,81.4517006556511,8.71019,80.39680065565109Q8.00531,79.34190065565109,7.35304,78.2536006556511Q6.70077,77.1654006556511,6.10269,76.04650065565109Q5.5046,74.92750065565109,4.96214,73.7806006556511Q4.41968,72.6336006556511,3.93415,71.4615006556511Q3.44862,70.28930065565109,3.02119,69.0947006556511Q2.59376,67.90010065565109,2.22546,66.6860006556511Q1.85716,65.4719006556511,1.54888,64.2412006556511Q1.2406,63.01040065565109,0.993078,61.766100655651094Q0.745557,60.521700655651095,0.559392,59.26670065565109Q0.373228,58.01170065565109,0.248869,56.749000655651095Q0.124509,55.486400655651096,0.0622547,54.21910065565109Q0,52.951900655651094,0,51.68320065565109L24.1188,51.68320065565109Q24.1188,52.35980065565109,24.152,53.03570065565109Q24.1852,53.71150065565109,24.2515,54.384900655651094Q24.3179,55.05840065565109,24.4171,55.72770065565109Q24.5164,56.39700065565109,24.6484,57.06070065565109Q24.7805,57.724400655651095,24.9449,58.38080065565109Q25.1093,59.037100655651095,25.3057,59.68470065565109Q25.5021,60.33220065565109,25.7301,60.96930065565109Q25.9581,61.60640065565109,26.217,62.23160065565109Q26.476,62.85670065565109,26.7653,63.468400655651095Q27.0546,64.0801006556511,27.3736,64.6769006556511Q27.6925,65.2737006556511,28.0404,65.8541006556511Q28.3883,66.43450065565109,28.7642,66.9971006556511Q29.1402,67.5597006556511,29.5433,68.1032006556511Q29.9463,68.64670065565109,30.3756,69.16980065565109Q30.8049,69.69290065565109,31.2593,70.19420065565109Q31.7137,70.69560065565109,32.1922,71.17410065565109Q32.6707,71.6526006556511,33.1721,72.10700065565109Q33.6734,72.5614006556511,34.1965,72.9907006556511Q34.7196,73.4200006556511,35.2631,73.82300065565109Q35.8066,74.2261006556511,36.3692,74.60210065565109Q36.9319,74.97800065565109,37.5122,75.3259006556511Q38.0926,75.67380065565109,38.6894,75.99270065565109Q39.2862,76.3117006556511,39.8979,76.60100065565109Q40.5096,76.89030065565109,41.1347,77.14930065565109Q41.7599,77.40820065565109,42.397,77.6362006556511Q43.0341,77.86420065565109,43.6816,78.06060065565109Q44.3292,78.2570006556511,44.9856,78.4214006556511Q45.642,78.58590065565109,46.3056,78.71790065565109Q46.9693,78.8499006556511,47.6386,78.9492006556511Q48.308,79.0485006556511,48.9814,79.1148006556511Q49.6548,79.1811006556511,50.3306,79.21430065565109Q51.0065,79.2475006556511,51.6832,79.2475006556511ZM79.2475,51.68320065565109L103.366,51.68320065565109Q103.366,50.41440065565109,103.304,49.14720065565109Q103.242,47.880000655651095,103.117,46.61730065565109Q102.993,45.354700655651094,102.807,44.09970065565109Q102.621,42.844700655651096,102.373,41.60030065565109Q102.126,40.35590065565109,101.817,39.12520065565109Q101.509,37.89450065565109,101.141,36.680300655651095Q100.773,35.46620065565109,100.345,34.27160065565109Q99.9177,33.07700065565109,99.4322,31.904900655651094Q98.9466,30.732700655651094,98.4042,29.58580065565109Q97.8617,28.438800655651093,97.2636,27.319900655651093Q96.6655,26.201000655651093,96.0133,25.112700655651093Q95.361,24.024500655651092,94.6561,22.969500655651093Q93.9512,21.914600655651093,93.1955,20.89550065565109Q92.4397,19.876500655651093,91.6348,18.895700655651094Q90.8299,17.91500065565109,89.9779,16.974900655651094Q89.1258,16.034800655651093,88.2287,15.137600655651093Q87.3315,14.240500655651093,86.3914,13.388500655651093Q85.4514,12.536400655651093,84.4706,11.731500655651093Q83.4898,10.926700655651093,82.4708,10.170900655651092Q81.4517,9.415060655651093,80.3968,8.710180655651092Q79.3419,8.005300655651093,78.2536,7.353030655651093Q77.1654,6.700770655651093,76.0464,6.102680655651093Q74.9275,5.5046006556510925,73.7805,4.962140655651092Q72.6336,4.419680655651092,71.4614,3.9341506556510923Q70.2893,3.4486206556510925,69.0947,3.0211906556510923Q67.9001,2.5937606556510926,66.686,2.2254606556510925Q65.4719,1.8571606556510925,64.2411,1.5488806556510926Q63.0104,1.2406006556510925,61.766,0.9930776556510925Q60.5217,0.7455566556510925,59.2667,0.5593926556510925Q58.0116,0.37322865565109253,56.749,0.24886965565109254Q55.4864,0.12450965565109252,54.2191,0.06225525565109253Q52.9519,6.556510925292969e-7,51.6832,6.556510925292969e-7L51.6832,24.118800655651093Q52.3598,24.118800655651093,53.0357,24.152000655651094Q53.7115,24.18520065565109,54.3849,24.251500655651093Q55.0583,24.317900655651094,55.7277,24.417100655651094Q56.397,24.516400655651093,57.0607,24.64840065565109Q57.7244,24.780500655651093,58.3807,24.944900655651093Q59.0371,25.109300655651094,59.6847,25.305700655651094Q60.3322,25.50210065565109,60.9693,25.730100655651093Q61.6064,25.958100655651094,62.2316,26.21700065565109Q62.8567,26.47600065565109,63.4684,26.765300655651092Q64.0801,27.054600655651093,64.6769,27.373600655651092Q65.2737,27.69250065565109,65.8541,28.040400655651094Q66.4345,28.388300655651094,66.9971,28.76420065565109Q67.5597,29.140200655651093,68.1032,29.54330065565109Q68.6467,29.946400655651093,69.1698,30.37560065565109Q69.6929,30.804900655651092,70.1942,31.259300655651092Q70.6956,31.713700655651092,71.1741,32.19220065565109Q71.6526,32.67070065565109,72.107,33.17210065565109Q72.5614,33.67350065565109,72.9907,34.19650065565109Q73.42,34.71960065565109,73.823,35.263100655651094Q74.2261,35.806600655651096,74.6021,36.36920065565109Q74.978,36.93190065565109,75.3259,37.51220065565109Q75.6738,38.09260065565109,75.9927,38.68940065565109Q76.3117,39.28620065565109,76.601,39.89790065565109Q76.8903,40.50960065565109,77.1493,41.134700655651095Q77.4082,41.759900655651094,77.6362,42.39700065565109Q77.8642,43.034100655651095,78.0606,43.68170065565109Q78.257,44.32920065565109,78.4214,44.98560065565109Q78.5859,45.642000655651096,78.7179,46.30560065565109Q78.8499,46.96930065565109,78.9492,47.63860065565109Q79.0485,48.30800065565109,79.1148,48.98140065565109Q79.1811,49.654800655651094,79.2143,50.33060065565109Q79.2475,51.006500655651095,79.2475,51.68320065565109Z" fill-rule="evenodd" fill="#FD6250" fill-opacity="1"/></g><g><ellipse cx="51.68315887451172" cy="51.68316429853439" rx="10.336631774902344" ry="10.33663272857666" fill="#F59E06" fill-opacity="1"/></g><g><ellipse cx="23.257421493530273" cy="23.25742596387863" rx="12.92078971862793" ry="12.920792579650879" fill="#323232" fill-opacity="1"/></g><g><ellipse cx="80.10890007019043" cy="80.108911216259" rx="12.92078971862793" ry="12.920792579650879" fill="#969696" fill-opacity="1"/></g></g></g></svg>