<svg xmlns="http://www.w3.org/2000/svg" xmlns:xlink="http://www.w3.org/1999/xlink" fill="none" version="1.1" width="602" height="106" viewBox="0 0 602 106"><defs><linearGradient x1="119" y1="53" x2="602" y2="53" gradientUnits="userSpaceOnUse" id="master_svg0_15_2828"><stop offset="0%" stop-color="#FD6250" stop-opacity="1"/><stop offset="100%" stop-color="#F59E06" stop-opacity="1"/></linearGradient><clipPath id="master_svg1_15_3268"><rect x="0" y="1" width="104" height="104" rx="0"/></clipPath></defs><g><g><path d="M145.72,85.56Q136.92000000000002,85.56,130.36,81.2Q123.8,76.84,120.52,69.64L132.68,63.96Q134.36,68.28,137.8,70.52Q141.24,72.76,145.8,72.76Q150.52,72.76,153.32,71Q156.12,69.24,156.12,66.44Q156.12,64.44,155.07999999999998,63.12Q154.04,61.8,151.48,60.68Q148.92000000000002,59.56,144.04,58.2Q137.64,56.36,133.4,54.52Q129.16,52.68,125.92,48.8Q122.68,44.92,122.68,38.52Q122.68,32.92,125.84,28.44Q129,23.96,134.48,21.44Q139.96,18.92,146.6,18.92Q163.32,18.92,170.68,34.12L158.68,39.96Q156.6,35.64,153.6,33.68Q150.6,31.72,146.44,31.72Q142.44,31.72,139.72,33.48Q137,35.24,137,37.8Q137,39.96,138.12,41.28Q139.24,42.6,141.76,43.68Q144.28,44.76,149.24,46.12Q155.56,47.88,159.8,49.68Q164.04,51.48,167.24,55.36Q170.44,59.24,170.44,65.64Q170.44,71.64,167.28,76.16Q164.12,80.68,158.52,83.12Q152.92000000000002,85.56,145.72,85.56ZM192.76,84.44L178.76,84.44L178.76,20.04L191.64,20.04L216.68,58.04L217.16,58.04L217.16,20.04L231.16,20.04L231.16,84.44L219,84.44L193.24,46.44L192.76,46.44L192.76,84.44ZM255.72,84.44L241.72,84.44L241.72,20.04L254.6,20.04L279.64,58.04L280.12,58.04L280.12,20.04L294.12,20.04L294.12,84.44L281.96000000000004,84.44L256.2,46.44L255.72,46.44L255.72,84.44ZM347.32,57.16Q347.32,62.2,346.28,65.8L316.36,65.8Q317.88,74.44,326.12,74.44Q329,74.44,331.32,72.76Q333.64,71.08,335,68.12L346.12,72.92Q343.72,78.92,338.48,82.24Q333.24,85.56,326.03999999999996,85.56Q318.84000000000003,85.56,313.4,82.56Q307.96000000000004,79.56,305.03999999999996,74Q302.12,68.44,302.12,61Q302.12,53.24,305,47.52Q307.88,41.8,313.12,38.68Q318.36,35.56,325.4,35.56Q331.96000000000004,35.56,336.91999999999996,38.2Q341.88,40.84,344.6,45.72Q347.32,50.6,347.32,57.16ZM333.56,54.68Q333.56,51.08,331.36,48.84Q329.15999999999997,46.6,325.4,46.6Q318.52,46.6,316.6,54.68L333.56,54.68ZM384.6,49.48L372.28,49.48L372.28,67.08Q372.28,69.56,373.76,70.96Q375.24,72.36,377.96,72.36Q380.76,72.36,383.64,71.48L383.64,84.28Q379.24,85.64,374.68,85.64Q366.91999999999996,85.64,362.8,81.36Q358.68,77.08,358.68,69.16L358.68,49.48L351.32,49.48L351.32,36.68L358.68,36.68L358.68,23.32L372.28,23.32L372.28,36.68L384.6,36.68L384.6,49.48ZM401.48,84.44L386.6,36.68L401.16,36.68L408.68,67.96L409.16,67.96L416.84,36.68L430.68,36.68L438.44,67.96L438.92,67.96L446.36,36.68L460.92,36.68L446.04,84.44L432.12,84.44L423.96,53.64L423.56,53.64L415.4,84.44L401.48,84.44ZM485.96,85.56Q478.92,85.56,473.72,82.52Q468.52,79.48,465.72,73.8Q462.92,68.12,462.92,60.52Q462.92,52.92,465.72,47.28Q468.52,41.64,473.72,38.6Q478.92,35.56,485.96,35.56Q493,35.56,498.2,38.6Q503.4,41.64,506.2,47.28Q509,52.92,509,60.52Q509,68.12,506.2,73.8Q503.4,79.48,498.2,82.52Q493,85.56,485.96,85.56ZM485.96,72.76Q490.2,72.76,492.68,69.48Q495.16,66.2,495.16,60.52Q495.16,54.92,492.68,51.64Q490.2,48.36,485.96,48.36Q481.72,48.36,479.24,51.64Q476.76,54.92,476.76,60.52Q476.76,66.2,479.24,69.48Q481.72,72.76,485.96,72.76ZM517.0799999999999,84.44L516.36,36.68L530.6,36.68L530.6,45.32L531.0799999999999,45.32Q536.12,35.56,548.6,35.56L549.0799999999999,35.56L549.0799999999999,48.76L548.36,48.76Q539,48.76,534.8,51.84Q530.6,54.92,530.6,61.16L530.6,84.44L517.0799999999999,84.44ZM601,84.44L583.88,84.44L570.8399999999999,65.88L568.6800000000001,68.04L568.6800000000001,84.44L555.1600000000001,84.44L555.1600000000001,20.04L568.6800000000001,20.04L568.6800000000001,50.92L581.4,36.68L599.8,36.68L579.96,56.6L601,84.44Z" fill="url(#master_svg0_15_2828)" fill-opacity="1"/></g><g clip-path="url(#master_svg1_15_3268)"><g><g><g><path d="M52,90.1429L52,105Q50.7236,105,49.4484,104.937Q48.1734,104.875,46.9031,104.75Q45.6327,104.625,44.37,104.437Q43.1074,104.25,41.8553,104.001Q40.6033,103.752,39.3651,103.442Q38.1268,103.131,36.9051,102.761Q35.6837,102.39,34.4817,101.96Q33.2798,101.53,32.1006,101.042Q30.9211,100.5533,29.7671,100.0074Q28.6132,99.4617,27.4874,98.86Q26.3617,98.258,25.2667,97.6018Q24.1717,96.9455,23.1103,96.2364Q22.0488,95.5273,21.0236,94.7668Q19.9983,94.0064,19.0116,93.1966Q18.0248,92.3867,17.0789,91.5294Q16.1331,90.6722,15.2304,89.7695Q14.3278,88.8668,13.4705,87.9211Q12.6133,86.9753,11.8034,85.9884Q10.9936,85.0016,10.2332,83.9763Q9.47279,82.9509,8.76357,81.8897Q8.05438,80.8283,7.39811,79.7333Q6.74185,78.6383,6.1401,77.5126Q5.53834,76.3868,4.99255,75.2329Q4.44676,74.0789,3.95826,72.8994Q3.46976,71.7202,3.03971,70.5183Q2.60966,69.3163,2.2391,68.0949Q1.86854,66.8732,1.55837,65.6349Q1.2482,64.39670000000001,0.999166,63.1447Q0.750127,61.8926,0.56282,60.63Q0.375516,59.3673,0.250394,58.0969Q0.125272,56.8266,0.0626362,55.5516Q0,54.2764,0,53L14.8571,53Q14.8571,53.9118,14.9019,54.8225Q14.9466,55.7333,15.036,56.6406Q15.1254,57.548,15.2592,58.45Q15.393,59.3519,15.5708,60.2463Q15.7487,61.1404,15.9703,62.0249Q16.1918,62.9095,16.4565,63.782Q16.7212,64.6546,17.0284,65.5131Q17.3355,66.3716,17.6845,67.214Q18.0334,68.0564,18.4233,68.8806Q18.8131,69.7049,19.2429,70.5089Q19.6727,71.3131,20.1415,72.0952Q20.6103,72.8774,21.1168,73.6355Q21.6235,74.3936,22.1666,75.1259Q22.7098,75.8584,23.2881,76.5632Q23.8667,77.2681,24.4791,77.9437Q25.0914,78.6192,25.736,79.264Q26.3808,79.9086,27.0563,80.5209Q27.7319,81.1333,28.4368,81.7119Q29.1416,82.2902,29.8741,82.8334Q30.6064,83.3765,31.3645,83.8831Q32.1226,84.3897,32.9048,84.8584Q33.6869,85.3272,34.4911,85.757Q35.2951,86.1868,36.1194,86.5767Q36.9436,86.9666,37.786,87.3155Q38.6284,87.6645,39.4869,87.9716Q40.3454,88.2787,41.218,88.5436Q42.0905,88.8083,42.9749,89.0296Q43.8596,89.2512,44.7537,89.4291Q45.6481,89.6072,46.55,89.7409Q47.452,89.8746,48.3594,89.9639Q49.2667,90.0533,50.1775,90.0981Q51.0882,90.1429,52,90.1429ZM89.1429,53L104,53Q104,51.7236,103.937,50.4484Q103.875,49.1734,103.75,47.9031Q103.625,46.6327,103.437,45.37Q103.25,44.1074,103.001,42.8553Q102.752,41.6033,102.442,40.3651Q102.131,39.1268,101.761,37.9051Q101.39,36.6837,100.96,35.4817Q100.53,34.2798,100.042,33.1006Q99.5533,31.9211,99.0074,30.7671Q98.4617,29.6132,97.86,28.4874Q97.258,27.3617,96.6018,26.2667Q95.9455,25.1717,95.2364,24.1103Q94.5273,23.0488,93.7668,22.0236Q93.0064,20.9983,92.1966,20.0116Q91.3867,19.0248,90.5294,18.0789Q89.6722,17.1331,88.7695,16.2304Q87.8668,15.3278,86.9211,14.4705Q85.9753,13.6133,84.9884,12.8034Q84.0016,11.9936,82.9763,11.2332Q81.9509,10.47279,80.8897,9.76357Q79.8283,9.05438,78.7333,8.398109999999999Q77.6383,7.74185,76.5126,7.1401Q75.3868,6.53834,74.2329,5.99255Q73.0789,5.44676,71.8994,4.95826Q70.7202,4.46976,69.5183,4.0397099999999995Q68.3163,3.60966,67.0949,3.2391Q65.8732,2.8685400000000003,64.6349,2.55837Q63.3967,2.2481999999999998,62.1447,1.999166Q60.8926,1.750127,59.63,1.5628199999999999Q58.3673,1.375516,57.0969,1.250394Q55.8266,1.125272,54.5516,1.0626362Q53.2764,1,52,1L52,15.8571Q52.9118,15.8571,53.8225,15.9019Q54.7333,15.9466,55.6406,16.036Q56.548,16.1254,57.45,16.2592Q58.3519,16.393,59.2463,16.5708Q60.1404,16.7487,61.0249,16.9703Q61.9095,17.1918,62.782,17.4565Q63.6546,17.7212,64.5131,18.0284Q65.3716,18.3355,66.214,18.6845Q67.0564,19.0334,67.8806,19.4233Q68.7049,19.8131,69.5089,20.2429Q70.3131,20.6727,71.0952,21.1415Q71.8774,21.6103,72.6355,22.1168Q73.3936,22.6235,74.1259,23.1666Q74.8584,23.7098,75.5632,24.2881Q76.2681,24.8667,76.9437,25.4791Q77.6192,26.0914,78.264,26.736Q78.9086,27.3808,79.5209,28.0563Q80.1333,28.7319,80.7119,29.4368Q81.2902,30.1416,81.8334,30.8741Q82.3765,31.6064,82.8831,32.3645Q83.3897,33.1226,83.8584,33.9048Q84.3272,34.6869,84.757,35.4911Q85.1868,36.2951,85.5767,37.1194Q85.9666,37.9436,86.3155,38.786Q86.6645,39.6284,86.9716,40.4869Q87.2787,41.3454,87.5436,42.218Q87.8083,43.0905,88.0296,43.9749Q88.2512,44.8596,88.4291,45.7537Q88.6072,46.6481,88.7409,47.55Q88.8746,48.452,88.9639,49.3594Q89.0533,50.2667,89.0981,51.1775Q89.1429,52.0882,89.1429,53Z" fill-rule="evenodd" fill="#FD6250" fill-opacity="1" style="mix-blend-mode:passthrough"/></g></g><g><g><ellipse cx="52.0000057220459" cy="53.0000057220459" rx="24.40816307067871" ry="24.40816307067871" fill="#323232" fill-opacity="1" style="mix-blend-mode:passthrough"/></g></g><g><g><path d="M25.4694,1L0,1L0,26.4694L8.4898,26.4694L8.4898,9.4898L25.4694,9.4898L25.4694,1Z" fill-rule="evenodd" fill="#F59E06" fill-opacity="1" style="mix-blend-mode:passthrough"/></g></g><g><g><rect x="95.51019287109375" y="96.51019287109375" width="8.489795684814453" height="8.48979663848877" rx="0" fill="#F59E06" fill-opacity="1" style="mix-blend-mode:passthrough"/></g></g><g><g><rect x="95.51019287109375" y="79.53060913085938" width="8.489795684814453" height="8.48979663848877" rx="0" fill="#F59E06" fill-opacity="1" style="mix-blend-mode:passthrough"/></g></g><g><g><rect x="78.53060913085938" y="96.51019287109375" width="8.489795684814453" height="8.48979663848877" rx="0" fill="#F59E06" fill-opacity="1" style="mix-blend-mode:passthrough"/></g></g><g><g><ellipse cx="25.469382286071777" cy="26.469382286071777" rx="6.36734676361084" ry="6.36734676361084" fill="#646464" fill-opacity="1" style="mix-blend-mode:passthrough"/></g></g><g><g><ellipse cx="78.53061580657959" cy="79.53061580657959" rx="6.36734676361084" ry="6.36734676361084" fill="#646464" fill-opacity="1" style="mix-blend-mode:passthrough"/></g></g></g></g></g></svg>