<svg xmlns="http://www.w3.org/2000/svg" xmlns:xlink="http://www.w3.org/1999/xlink" fill="none" version="1.1" width="282.8427734375" height="282.8426818847656" viewBox="0 0 282.8427734375 282.8426818847656"><g transform="matrix(0.7071067690849304,-0.7071067690849304,0.7071067690849304,0.7071067690849304,-99.99997668383367,41.421348999760085)"><g><path d="M100,341.42132568359375Q102.455,341.42132568359375,104.907,341.30132568359375Q107.359,341.18032568359376,109.802,340.9393256835938Q112.245,340.69932568359377,114.673,340.33932568359376Q117.101,339.97832568359377,119.509,339.4993256835937Q121.917,339.0213256835938,124.298,338.42432568359374Q126.679,337.8283256835938,129.028,337.1153256835937Q131.378,336.40232568359374,133.689,335.57532568359375Q136,334.74832568359375,138.268,333.8093256835938Q140.536,332.86932568359373,142.755,331.82032568359375Q144.975,330.77032568359374,147.14,329.61332568359376Q149.305,328.4563256835937,151.41,327.1943256835938Q153.516,325.9323256835937,155.557,324.56832568359374Q157.598,323.20432568359377,159.57,321.7423256835938Q161.542,320.27932568359375,163.439,318.72232568359374Q165.337,317.1653256835938,167.156,315.5163256835938Q168.975,313.86832568359375,170.711,312.13232568359376Q172.447,310.3963256835938,174.095,308.57732568359376Q175.744,306.75832568359374,177.301,304.8603256835937Q178.858,302.9633256835938,180.321,300.99132568359374Q181.783,299.01932568359376,183.147,296.97832568359377Q184.511,294.9373256835937,185.773,292.8313256835937Q187.035,290.72632568359376,188.192,288.56132568359374Q189.349,286.3963256835938,190.399,284.17632568359375Q191.448,281.95732568359375,192.388,279.6893256835938Q193.327,277.42132568359375,194.154,275.1103256835937Q194.981,272.79932568359374,195.694,270.44932568359377Q196.407,268.1003256835937,197.003,265.71932568359375Q197.6,263.3383256835938,198.078,260.93032568359376Q198.557,258.52232568359375,198.918,256.09432568359375Q199.278,253.66632568359375,199.518,251.22332568359377Q199.759,248.78032568359373,199.88,246.32832568359373Q200,243.87632568359373,200,241.42132568359375Q200,238.96642568359374,199.88,236.51452568359375Q199.759,234.06262568359375,199.518,231.61962568359377Q199.278,229.17652568359375,198.918,226.74822568359374Q198.557,224.32002568359377,198.078,221.91232568359374Q197.6,219.50462568359376,197.003,217.12332568359375Q196.407,214.74202568359374,195.694,212.39282568359374Q194.981,210.04372568359375,194.154,207.73232568359376Q193.327,205.42092568359374,192.388,203.15292568359376Q191.448,200.88492568359374,190.399,198.66582568359377Q189.349,196.44662568359377,188.192,194.28162568359375Q187.035,192.11662568359375,185.773,190.01102568359374Q184.511,187.90542568359376,183.147,185.86432568359373Q181.783,183.82312568359376,180.321,181.85142568359376Q178.858,179.87962568359376,177.301,177.98202568359375Q175.744,176.08432568359376,174.095,174.26542568359375Q172.446,172.44652568359376,170.711,170.71062568359375Q168.975,168.97482568359374,167.156,167.32622568359375Q165.337,165.67762568359376,163.439,164.12032568359376Q161.542,162.56292568359376,159.57,161.10052568359376Q157.598,159.63822568359376,155.557,158.27432568359376Q153.516,156.91052568359376,151.41,155.64842568359376Q149.305,154.38642568359376,147.14,153.22922568359374Q144.975,152.07202568359375,142.755,151.02239568359374Q140.536,149.97280568359375,138.268,149.03337568359376Q136,148.09393568359374,133.689,147.26691568359374Q131.378,146.43989568359376,129.028,145.72729568359375Q126.679,145.01468568359374,124.298,144.41819568359375Q121.917,143.82171568359374,119.509,143.34279568359375Q117.101,142.86387568359376,114.673,142.50367568359374Q112.245,142.14347168359376,109.802,141.90285268359375Q107.359,141.66223468359374,104.907,141.54177968359375Q102.455,141.42132568359375,100,141.42132568359375Q97.5451,141.42132568359375,95.0932,141.54177968359375Q92.6413,141.66223468359374,90.1983,141.90285268359375Q87.7552,142.14347168359376,85.3269,142.50367568359374Q82.8987,142.86387568359376,80.491,143.34279568359375Q78.0833,143.82171568359374,75.702,144.41819568359375Q73.3207,145.01468568359374,70.9715,145.72729568359375Q68.6224,146.43989568359376,66.311,147.26691568359374Q63.9996,148.09393568359374,61.7316,149.03337568359376Q59.4636,149.97280568359375,57.2445,151.02239568359374Q55.0253,152.07202568359375,52.8603,153.22922568359374Q50.6953,154.38642568359376,48.5897,155.64842568359376Q46.4841,156.91052568359376,44.443,158.27432568359376Q42.4018,159.63822568359376,40.4301,161.10052568359376Q38.4583,162.56292568359376,36.5607,164.12032568359376Q34.663,165.67762568359376,32.8441,167.32622568359375Q31.0252,168.97482568359374,29.2893,170.71062568359375Q27.5535,172.44652568359376,25.9049,174.26542568359375Q24.2563,176.08432568359376,22.699,177.98202568359375Q21.1416,179.87962568359376,19.6792,181.85142568359376Q18.2169,183.82312568359376,16.853,185.86432568359373Q15.4892,187.90542568359376,14.2271,190.01102568359374Q12.9651,192.11662568359375,11.8079,194.28162568359375Q10.6507,196.44662568359377,9.60107,198.66582568359377Q8.55148,200.88502568359377,7.61204,203.15292568359376Q6.67261,205.42092568359374,5.84559,207.73232568359376Q5.01857,210.04372568359375,4.30597,212.39282568359374Q3.59336,214.74202568359374,2.99687,217.12332568359375Q2.40039,219.50462568359376,1.92147,221.91232568359374Q1.44255,224.32002568359377,1.08235,226.74822568359374Q0.722146,229.17652568359375,0.481527,231.61962568359377Q0.240909,234.06262568359375,0.120454,236.51452568359375Q0,238.96642568359374,0,241.42132568359375Q0,243.87632568359373,0.120454,246.32832568359373Q0.240909,248.78032568359373,0.481527,251.22332568359377Q0.722146,253.66632568359375,1.08235,256.09432568359375Q1.44255,258.52232568359375,1.92147,260.93032568359376Q2.40039,263.3383256835938,2.99687,265.71932568359375Q3.59336,268.1003256835937,4.30597,270.44932568359377Q5.01857,272.79932568359374,5.84559,275.1103256835937Q6.67261,277.42132568359375,7.61204,279.6893256835938Q8.55148,281.95732568359375,9.60107,284.17632568359375Q10.6507,286.3963256835938,11.8079,288.56132568359374Q12.9651,290.72632568359376,14.2271,292.8313256835937Q15.4892,294.9373256835937,16.853,296.97832568359377Q18.2169,299.01932568359376,19.6792,300.99132568359374Q21.1416,302.9633256835938,22.699,304.8603256835937Q24.2563,306.75832568359374,25.9049,308.57732568359376Q27.5535,310.3963256835938,29.2893,312.13232568359376Q31.0252,313.86832568359375,32.8441,315.5163256835938Q34.663,317.1653256835938,36.5607,318.72232568359374Q38.4583,320.27932568359375,40.4301,321.7423256835938Q42.4018,323.20432568359377,44.443,324.56832568359374Q46.4841,325.9323256835937,48.5897,327.1943256835938Q50.6953,328.4563256835937,52.8603,329.61332568359376Q55.0253,330.77032568359374,57.2445,331.82032568359375Q59.4636,332.86932568359373,61.7316,333.8093256835938Q63.9996,334.74832568359375,66.311,335.57532568359375Q68.6224,336.40232568359374,70.9715,337.1153256835937Q73.3207,337.8283256835938,75.702,338.42432568359374Q78.0833,339.0213256835938,80.491,339.50032568359376Q82.8987,339.97832568359377,85.3269,340.33932568359376Q87.7552,340.69932568359377,90.1983,340.9393256835938Q92.6413,341.18032568359376,95.0932,341.30132568359375Q97.5451,341.42132568359375,100,341.42132568359375ZM150.912,264.91332568359377Q151.525,264.91332568359377,152.138,264.88332568359374Q152.751,264.85332568359377,153.362,264.79332568359376Q153.973,264.73332568359376,154.58,264.64332568359373Q155.187,264.55332568359376,155.789,264.43332568359375Q156.391,264.31332568359375,156.986,264.16432568359374Q157.581,264.01532568359374,158.169,263.83732568359375Q158.756,263.65932568359375,159.334,263.45232568359376Q159.912,263.24532568359376,160.479,263.01032568359375Q161.046,262.77632568359377,161.6,262.51332568359373Q162.155,262.25132568359373,162.697,261.96132568359377Q163.238,261.6723256835937,163.764,261.3573256835938Q164.291,261.04132568359375,164.801,260.70032568359375Q165.311,260.35932568359374,165.804,259.99432568359373Q166.297,259.62832568359374,166.771,259.23932568359373Q167.246,258.84932568359375,167.701,258.43732568359377Q168.155,258.02532568359373,168.589,257.59132568359377Q169.023,257.15732568359374,169.435,256.70232568359376Q169.848,256.24832568359375,170.237,255.77332568359375Q170.626,255.29932568359374,170.992,254.80632568359374Q171.357,254.31332568359375,171.698,253.80332568359376Q172.039,253.29232568359373,172.355,252.76632568359375Q172.67,252.24032568359377,172.96,251.69832568359374Q173.249,251.15732568359374,173.511,250.60232568359373Q173.774,250.04832568359376,174.009,249.48132568359375Q174.243,248.91432568359374,174.45,248.33632568359377Q174.657,247.75832568359374,174.835,247.17132568359375Q175.013,246.58332568359376,175.162,245.98832568359376Q175.312,245.39332568359373,175.431,244.79132568359375Q175.551,244.18932568359375,175.641,243.58232568359375Q175.731,242.97532568359375,175.791,242.36432568359373Q175.851,241.75332568359374,175.882,241.14042568359375Q175.912,240.52742568359375,175.912,239.91372568359375Q175.912,239.30002568359373,175.882,238.68702568359373Q175.851,238.07412568359376,175.791,237.46332568359375Q175.731,236.85252568359374,175.641,236.24552568359377Q175.551,235.63842568359377,175.431,235.03652568359377Q175.312,234.43452568359373,175.162,233.83922568359375Q175.013,233.24392568359374,174.835,232.65662568359375Q174.657,232.06932568359375,174.45,231.49152568359375Q174.243,230.91362568359375,174.009,230.34662568359374Q173.774,229.77962568359374,173.511,229.22482568359374Q173.249,228.67002568359374,172.96,228.12882568359373Q172.67,227.58762568359376,172.355,227.06112568359373Q172.039,226.53482568359374,171.698,226.02452568359377Q171.357,225.51422568359374,170.992,225.02122568359374Q170.626,224.52832568359375,170.237,224.05392568359375Q169.848,223.57952568359374,169.435,223.12482568359377Q169.023,222.67002568359374,168.589,222.23612568359374Q168.155,221.80212568359374,167.701,221.39002568359376Q167.246,220.97782568359375,166.771,220.58852568359373Q166.297,220.19912568359376,165.804,219.83352568359373Q165.311,219.46802568359374,164.801,219.12702568359373Q164.291,218.78602568359375,163.764,218.47052568359373Q163.238,218.15502568359375,162.697,217.86572568359375Q162.155,217.57642568359375,161.6,217.31402568359374Q161.046,217.05162568359376,160.479,216.81672568359375Q159.912,216.58192568359374,159.334,216.37512568359375Q158.756,216.16842568359374,158.169,215.99022568359374Q157.581,215.81212568359376,156.986,215.66292568359376Q156.391,215.51382568359375,155.789,215.39412568359376Q155.187,215.27442568359373,154.58,215.18432568359376Q153.973,215.09432568359375,153.362,215.03412568359374Q152.751,214.97402568359377,152.138,214.94392568359376Q151.525,214.91372568359375,150.912,214.91372568359375Q150.298,214.91372568359375,149.685,214.94392568359376Q149.072,214.97402568359377,148.461,215.03412568359374Q147.85,215.09432568359375,147.243,215.18432568359376Q146.636,215.27442568359373,146.034,215.39412568359376Q145.432,215.51382568359375,144.837,215.66292568359376Q144.242,215.81212568359376,143.654,215.99022568359374Q143.067,216.16842568359374,142.489,216.37512568359375Q141.912,216.58192568359374,141.345,216.81672568359375Q140.778,217.05162568359376,140.223,217.31402568359374Q139.668,217.57642568359375,139.127,217.86572568359375Q138.585,218.15502568359375,138.059,218.47052568359373Q137.533,218.78602568359375,137.022,219.12702568359373Q136.512,219.46802568359374,136.019,219.83352568359373Q135.526,220.19912568359376,135.052,220.58852568359373Q134.577,220.97782568359375,134.123,221.39002568359376Q133.668,221.80212568359374,133.234,222.23612568359374Q132.8,222.67002568359374,132.388,223.12482568359377Q131.976,223.57952568359374,131.586,224.05392568359375Q131.197,224.52832568359375,130.831,225.02122568359374Q130.466,225.51422568359374,130.125,226.02452568359377Q129.784,226.53482568359374,129.468,227.06112568359373Q129.153,227.58762568359376,128.864,228.12882568359373Q128.574,228.67002568359374,128.312,229.22482568359374Q128.049,229.77962568359374,127.815,230.34662568359374Q127.58,230.91362568359375,127.373,231.49152568359375Q127.166,232.06932568359375,126.988,232.65662568359375Q126.81,233.24392568359374,126.661,233.83922568359375Q126.512,234.43452568359373,126.392,235.03652568359377Q126.272,235.63842568359377,126.182,236.24552568359377Q126.092,236.85252568359374,126.032,237.46332568359375Q125.972,238.07412568359376,125.942,238.68702568359373Q125.912,239.30002568359373,125.912,239.91372568359375Q125.912,240.52742568359375,125.942,241.14042568359375Q125.972,241.75332568359374,126.032,242.36432568359373Q126.092,242.97532568359375,126.182,243.58232568359375Q126.272,244.18932568359375,126.392,244.79132568359375Q126.512,245.39332568359373,126.661,245.98832568359376Q126.81,246.58332568359376,126.988,247.17132568359375Q127.166,247.75832568359374,127.373,248.33632568359377Q127.58,248.91332568359377,127.815,249.48032568359375Q128.049,250.04732568359375,128.312,250.60232568359373Q128.574,251.15732568359374,128.864,251.69832568359374Q129.153,252.24032568359377,129.468,252.76632568359375Q129.784,253.29232568359373,130.125,253.80332568359376Q130.466,254.31332568359375,130.831,254.80632568359374Q131.197,255.29932568359374,131.586,255.77332568359375Q131.976,256.24832568359375,132.388,256.70232568359376Q132.8,257.15732568359374,133.234,257.59132568359377Q133.668,258.02532568359373,134.123,258.43732568359377Q134.577,258.84932568359375,135.052,259.23932568359373Q135.526,259.62832568359374,136.019,259.99432568359373Q136.512,260.35932568359374,137.022,260.70032568359375Q137.533,261.04132568359375,138.059,261.3573256835938Q138.585,261.6723256835937,139.127,261.96132568359377Q139.668,262.25132568359373,140.223,262.51332568359373Q140.778,262.77632568359377,141.345,263.01032568359375Q141.912,263.24532568359376,142.489,263.45232568359376Q143.067,263.65932568359375,143.654,263.83732568359375Q144.242,264.01532568359374,144.837,264.16432568359374Q145.432,264.31332568359375,146.034,264.43332568359375Q146.636,264.55332568359376,147.243,264.64332568359373Q147.85,264.73332568359376,148.461,264.79332568359376Q149.072,264.85332568359377,149.685,264.88332568359374Q150.298,264.91332568359377,150.912,264.91332568359377Z" fill-rule="evenodd" fill="#323232" fill-opacity="1"/></g></g></svg>