<svg xmlns="http://www.w3.org/2000/svg" xmlns:xlink="http://www.w3.org/1999/xlink" fill="none" version="1.1" width="693.2236328125" height="693.2236328125" viewBox="0 0 693.2236328125 693.2236328125"><g transform="matrix(0.7071067690849304,-0.7071067690849304,0.7071067690849304,0.7071067690849304,-245.1831005329841,101.55817143967215)"><g><path d="M245.3662109375,766.7412719726562L245.3662109375,836.7412719726562Q239.3522109375,836.7412719726562,233.3442109375,836.4462719726562Q227.3372109375,836.1512719726563,221.3522109375,835.5612719726562Q215.3662109375,834.9722719726562,209.4172109375,834.0892719726562Q203.4682109375,833.2072719726563,197.5692109375,832.0332719726562Q191.6702109375,830.8602719726563,185.8362109375,829.3992719726563Q180.0022109375,827.9372719726563,174.2462109375,826.1912719726563Q168.4912109375,824.4452719726562,162.8282109375,822.4192719726562Q157.1652109375,820.3932719726563,151.6092109375,818.0912719726563Q146.0522109375,815.7902719726562,140.6152109375,813.2182719726562Q135.1782109375,810.6472719726562,129.8742109375,807.8122719726563Q124.5702109375,804.9762719726563,119.4112109375,801.8842719726563Q114.2522109375,798.7922719726562,109.2512109375,795.4512719726563Q104.2502109375,792.1102719726563,99.4199109375,788.5272719726563Q94.5891109375,784.9442719726562,89.9399109375,781.1292719726562Q85.2907109375,777.3132719726563,80.8343109375,773.2742719726563Q76.3779109375,769.2352719726563,72.1250109375,764.9822719726562Q67.8722109375,760.7292719726563,63.8332109375,756.2732719726562Q59.7941109375,751.8172719726563,55.9786109375,747.1672719726562Q52.1631109375,742.5182719726563,48.5803109375,737.6872719726563Q44.9976109375,732.8562719726563,41.6561109375,727.8562719726563Q38.3147109375,722.8552719726563,35.2227109375,717.6962719726562Q32.1307109375,712.5372719726563,29.2955109375,707.2332719726562Q26.4603109375,701.9292719726562,23.8888109375,696.4922719726562Q21.3173109375,691.0552719726563,19.0157109375,685.4982719726563Q16.7141109375,679.9422719726563,14.6879109375,674.2792719726563Q12.6617109375,668.6162719726562,10.9158109375,662.8612719726563Q9.1699309375,657.1052719726563,7.7085509375,651.2712719726562Q6.2471709375,645.4372719726563,5.0738209375,639.5382719726563Q3.9004609375,633.6392719726563,3.0179609375,627.6902719726563Q2.1354709375,621.7412719726562,1.5459509375,615.7552719726563Q0.9564369375,609.7702719726562,0.6613239375,603.7632719726562Q0.3662109375,597.7552719726563,0.3662109375,591.7412719726562L70.3662109375,591.7412719726562Q70.3662109375,596.0372719726563,70.5770109375,600.3282719726562Q70.7878109375,604.6192719726562,71.2089109375,608.8942719726563Q71.6300109375,613.1692719726562,72.2603109375,617.4192719726562Q72.8907109375,621.6682719726563,73.7288109375,625.8822719726563Q74.5669109375,630.0952719726563,75.6107109375,634.2622719726562Q76.6546109375,638.4302719726563,77.9016109375,642.5412719726562Q79.1487109375,646.6522719726563,80.5960109375,650.6972719726563Q82.0433109375,654.7422719726562,83.6873109375,658.7112719726563Q85.3313109375,662.6802719726563,87.1681109375,666.5632719726563Q89.0048109375,670.4472719726563,91.0300109375,674.2352719726563Q93.0551109375,678.0242719726563,95.2637109375,681.7092719726563Q97.4723109375,685.3942719726563,99.8590109375,688.9662719726563Q102.2462109375,692.5382719726563,104.8052109375,695.9882719726563Q107.3642109375,699.4392719726562,110.0892109375,702.7602719726563Q112.8152109375,706.0812719726562,115.7002109375,709.2642719726563Q118.5852109375,712.4472719726563,121.6222109375,715.4852719726563Q124.6602109375,718.5222719726562,127.8432109375,721.4072719726562Q131.0262109375,724.2922719726562,134.3472109375,727.0182719726563Q137.6682109375,729.7432719726562,141.1192109375,732.3022719726562Q144.5692109375,734.8612719726563,148.1412109375,737.2482719726563Q151.7132109375,739.6352719726563,155.3982109375,741.8432719726562Q159.0832109375,744.0522719726562,162.8722109375,746.0772719726563Q166.6602109375,748.1022719726562,170.5442109375,749.9392719726562Q174.4272109375,751.7762719726563,178.3962109375,753.4202719726562Q182.3652109375,755.0642719726562,186.4102109375,756.5112719726562Q190.4552109375,757.9582719726562,194.5662109375,759.2062719726562Q198.6772109375,760.4532719726562,202.8442109375,761.4962719726562Q207.0122109375,762.5402719726562,211.2252109375,763.3782719726562Q215.4392109375,764.2172719726562,219.6882109375,764.8472719726562Q223.9382109375,765.4772719726562,228.2132109375,765.8982719726562Q232.4882109375,766.3192719726562,236.7792109375,766.5302719726562Q241.0702109375,766.7412719726562,245.3662109375,766.7412719726562ZM420.3662109375,591.7412719726562L490.3662109375,591.7412719726562Q490.3662109375,585.7272719726562,490.0712109375,579.7192719726563Q489.7762109375,573.7122719726563,489.1862109375,567.7272719726562Q488.5972109375,561.7412719726562,487.7142109375,555.7922719726562Q486.8322109375,549.8432719726562,485.6582109375,543.9442719726562Q484.4852109375,538.0452719726562,483.0242109375,532.2112719726563Q481.5622109375,526.3772719726562,479.8162109375,520.6212719726562Q478.0702109375,514.8662719726562,476.0442109375,509.20327197265624Q474.0182109375,503.5402719726562,471.7162109375,497.98427197265624Q469.4152109375,492.4272719726563,466.8432109375,486.9902719726563Q464.2722109375,481.55327197265626,461.4372109375,476.2492719726563Q458.6012109375,470.94527197265626,455.5092109375,465.78627197265627Q452.4172109375,460.6272719726562,449.0762109375,455.62627197265624Q445.7352109375,450.62527197265626,442.1522109375,445.79497197265624Q438.5692109375,440.96417197265623,434.7542109375,436.3149719726563Q430.9382109375,431.6657719726562,426.8992109375,427.20937197265624Q422.8602109375,422.75297197265627,418.6072109375,418.50007197265626Q414.3542109375,414.2472719726562,409.8982109375,410.20827197265623Q405.4422109375,406.1691719726563,400.7922109375,402.35367197265623Q396.1432109375,398.53817197265624,391.3122109375,394.9553719726563Q386.4812109375,391.37267197265624,381.4812109375,388.03117197265624Q376.4802109375,384.6897719726563,371.3212109375,381.59777197265623Q366.1622109375,378.50577197265625,360.8582109375,375.67057197265626Q355.5542109375,372.8353719726563,350.1172109375,370.26387197265626Q344.6802109375,367.69237197265625,339.1232109375,365.39077197265624Q333.5672109375,363.08917197265623,327.9042109375,361.06297197265627Q322.2412109375,359.03677197265625,316.4862109375,357.29087197265625Q310.7302109375,355.54499197265625,304.8962109375,354.08361197265623Q299.0622109375,352.62223197265627,293.1632109375,351.44888197265624Q287.2642109375,350.27552197265624,281.3152109375,349.39302197265624Q275.3662109375,348.5105319726562,269.3802109375,347.92101197265623Q263.3952109375,347.3314979726562,257.3882109375,347.03638497265626Q251.3802109375,346.74127197265625,245.3662109375,346.74127197265625L245.3662109375,416.74127197265625Q249.6622109375,416.74127197265625,253.9532109375,416.95207197265626Q258.2442109375,417.16287197265626,262.5192109375,417.58397197265623Q266.7942109375,418.00507197265625,271.0442109375,418.63537197265623Q275.2932109375,419.26577197265624,279.5072109375,420.10387197265624Q283.7202109375,420.94197197265623,287.8872109375,421.98577197265627Q292.0552109375,423.0296719726563,296.1662109375,424.27667197265623Q300.2772109375,425.5237719726563,304.3222109375,426.97107197265626Q308.3672109375,428.41837197265625,312.3362109375,430.06237197265625Q316.3052109375,431.70637197265626,320.1882109375,433.54317197265624Q324.0722109375,435.37987197265625,327.8602109375,437.40507197265623Q331.6492109375,439.43017197265624,335.3342109375,441.63877197265623Q339.0192109375,443.8473719726562,342.5912109375,446.23407197265624Q346.1632109375,448.62127197265625,349.6132109375,451.1802719726562Q353.0642109375,453.73927197265624,356.3852109375,456.46427197265626Q359.7062109375,459.19027197265626,362.8892109375,462.07527197265625Q366.0722109375,464.96027197265624,369.1102109375,467.9972719726562Q372.1472109375,471.03527197265623,375.0322109375,474.2182719726562Q377.9172109375,477.4012719726562,380.6432109375,480.72227197265624Q383.3682109375,484.04327197265627,385.9272109375,487.49427197265624Q388.4862109375,490.9442719726562,390.8732109375,494.5162719726562Q393.2602109375,498.08827197265623,395.4682109375,501.7732719726563Q397.6772109375,505.45827197265623,399.7022109375,509.2472719726562Q401.7272109375,513.0352719726562,403.5642109375,516.9192719726562Q405.4012109375,520.8022719726563,407.0452109375,524.7712719726562Q408.6892109375,528.7402719726563,410.1362109375,532.7852719726562Q411.5832109375,536.8302719726562,412.8312109375,540.9412719726563Q414.0782109375,545.0522719726563,415.1212109375,549.2192719726563Q416.1652109375,553.3872719726562,417.0032109375,557.6002719726563Q417.8422109375,561.8142719726562,418.4722109375,566.0632719726563Q419.1022109375,570.3132719726563,419.5232109375,574.5882719726562Q419.9442109375,578.8632719726563,420.1552109375,583.1542719726563Q420.3662109375,587.4452719726562,420.3662109375,591.7412719726562Z" fill-rule="evenodd" fill="#04AAEB" fill-opacity="1"/></g><g><path d="M150,347.10699462890625L0,347.10699462890625L0,497.10699462890625L50,497.10699462890625L50,397.10699462890625L150,397.10699462890625L150,347.10699462890625Z" fill-rule="evenodd" fill="#969696" fill-opacity="1"/></g><g transform="matrix(-1,0,0,-1,980,1673.4825439453125)"><rect x="490" y="836.7412719726562" width="50" height="50.000003814697266" rx="0" fill="#969696" fill-opacity="1"/></g><g transform="matrix(-1,0,0,-1,980,1473.4825439453125)"><rect x="490" y="736.7412719726562" width="50" height="50.000003814697266" rx="0" fill="#969696" fill-opacity="1"/></g><g transform="matrix(-1,0,0,-1,780,1673.4825439453125)"><rect x="390" y="836.7412719726562" width="50" height="50.000003814697266" rx="0" fill="#969696" fill-opacity="1"/></g></g></svg>