<svg xmlns="http://www.w3.org/2000/svg" xmlns:xlink="http://www.w3.org/1999/xlink" fill="none" version="1.1" width="40" height="40" viewBox="0 0 40 40"><defs><clipPath id="master_svg0_24_1036"><rect x="0" y="0" width="40" height="40" rx="0"/></clipPath></defs><g clip-path="url(#master_svg0_24_1036)"><g><g><path d="M20,35Q20.3682,35,20.736,34.981899999999996Q21.1038,34.963899999999995,21.4703,34.927800000000005Q21.8367,34.8917,22.201,34.837599999999995Q22.5652,34.7836,22.9264,34.7118Q23.2875,34.6399,23.6447,34.5505Q24.0019,34.461,24.3543,34.3541Q24.7066,34.2472,25.0533,34.1232Q25.4,33.9991,25.7402,33.8582Q26.0804,33.7173,26.4133,33.559799999999996Q26.7462,33.4024,27.0709,33.2288Q27.3957,33.0552,27.7115,32.865899999999996Q28.0274,32.6766,28.3335,32.472Q28.6397,32.2675,28.9355,32.048100000000005Q29.2313,31.8288,29.5159,31.5952Q29.8005,31.3616,30.0734,31.1143Q30.3462,30.867,30.6066,30.6066Q30.867,30.3462,31.1143,30.0734Q31.3616,29.8005,31.5952,29.5159Q31.8288,29.2313,32.048100000000005,28.9355Q32.2675,28.6397,32.472,28.3335Q32.6766,28.0274,32.865899999999996,27.7115Q33.0552,27.3957,33.2288,27.0709Q33.4024,26.7462,33.559799999999996,26.4133Q33.7173,26.0804,33.8582,25.7402Q33.9991,25.4,34.1232,25.0533Q34.2472,24.7066,34.3541,24.3543Q34.461,24.0019,34.5505,23.6447Q34.6399,23.2875,34.7118,22.9264Q34.7836,22.5652,34.837599999999995,22.201Q34.8917,21.8367,34.927800000000005,21.4703Q34.963899999999995,21.1038,34.981899999999996,20.736Q35,20.3682,35,20Q35,19.6318,34.981899999999996,19.264Q34.963899999999995,18.8962,34.927800000000005,18.5297Q34.8917,18.1633,34.837599999999995,17.799Q34.7836,17.4348,34.7118,17.0736Q34.6399,16.7125,34.5505,16.3553Q34.461,15.9981,34.3541,15.6457Q34.2472,15.2934,34.1232,14.94665Q33.9991,14.59995,33.8582,14.25975Q33.7173,13.91955,33.559799999999996,13.58667Q33.4024,13.2538,33.2288,12.92905Q33.0552,12.6043,32.865899999999996,12.28846Q32.6766,11.97262,32.472,11.666450000000001Q32.2675,11.36027,32.048100000000005,11.06451Q31.8288,10.76875,31.5952,10.4841Q31.3616,10.199449999999999,31.1143,9.92661Q30.867,9.653780000000001,30.6066,9.3934Q30.3462,9.13302,30.0734,8.88573Q29.8005,8.63845,29.5159,8.40484Q29.2313,8.171240000000001,28.9355,7.951890000000001Q28.6397,7.732530000000001,28.3335,7.52796Q28.0274,7.32338,27.7115,7.1340699999999995Q27.3957,6.9447600000000005,27.0709,6.77118Q26.7462,6.5976,26.4133,6.4401600000000006Q26.0804,6.28272,25.7402,6.1418099999999995Q25.4,6.00089,25.0533,5.876839Q24.7066,5.752786,24.3543,5.645895Q24.0019,5.539004,23.6447,5.449531Q23.2875,5.360059,22.9264,5.288221Q22.5652,5.216383,22.201,5.162352Q21.8367,5.108322,21.4703,5.0722291Q21.1038,5.0361363,20.736,5.0180682Q20.3682,5,20,5Q19.6318,5,19.264,5.0180682Q18.8962,5.0361363,18.5297,5.0722291Q18.1633,5.108322,17.799,5.162352Q17.4348,5.216383,17.0736,5.288221Q16.7125,5.360059,16.3553,5.449531Q15.9981,5.539004,15.6457,5.645895Q15.2934,5.752786,14.94665,5.876839Q14.59995,6.00089,14.25975,6.1418099999999995Q13.91955,6.28272,13.58667,6.4401600000000006Q13.2538,6.5976,12.92905,6.77118Q12.6043,6.9447600000000005,12.28846,7.1340699999999995Q11.97262,7.32338,11.666450000000001,7.52796Q11.36027,7.732530000000001,11.06451,7.951890000000001Q10.76875,8.171240000000001,10.4841,8.40484Q10.199449999999999,8.63845,9.92661,8.88573Q9.653780000000001,9.13302,9.3934,9.3934Q9.13302,9.653780000000001,8.88573,9.92661Q8.63845,10.199449999999999,8.40484,10.4841Q8.171240000000001,10.768740000000001,7.951890000000001,11.06451Q7.732530000000001,11.36027,7.52796,11.666450000000001Q7.32338,11.97262,7.1340699999999995,12.28846Q6.9447600000000005,12.6043,6.77118,12.92905Q6.5976,13.2538,6.4401600000000006,13.58667Q6.28272,13.91955,6.1418099999999995,14.25975Q6.00089,14.59995,5.876839,14.94665Q5.752786,15.2934,5.645895,15.6457Q5.539004,15.9981,5.449531,16.3553Q5.360059,16.7125,5.288221,17.0736Q5.216383,17.4348,5.162352,17.799Q5.108322,18.1633,5.0722291,18.5297Q5.0361363,18.8962,5.0180682,19.264Q5,19.6318,5,20Q5,20.3682,5.0180682,20.736Q5.0361363,21.1038,5.0722291,21.4703Q5.108322,21.8367,5.162352,22.201Q5.216383,22.5652,5.288221,22.9264Q5.360059,23.2875,5.449531,23.6447Q5.539004,24.0019,5.645895,24.3543Q5.752786,24.7066,5.876839,25.0533Q6.00089,25.4,6.1418099999999995,25.7402Q6.28272,26.0804,6.4401600000000006,26.4133Q6.5976,26.7462,6.77118,27.0709Q6.9447600000000005,27.3957,7.1340699999999995,27.7115Q7.32338,28.0274,7.52796,28.3335Q7.732530000000001,28.6397,7.951890000000001,28.9355Q8.171240000000001,29.2313,8.40484,29.5159Q8.63845,29.8005,8.88573,30.0734Q9.13302,30.3462,9.3934,30.6066Q9.653780000000001,30.867,9.92661,31.1143Q10.199449999999999,31.3616,10.4841,31.5952Q10.768740000000001,31.8288,11.06451,32.048100000000005Q11.36027,32.2675,11.666450000000001,32.472Q11.97262,32.6766,12.28846,32.865899999999996Q12.6043,33.0552,12.92905,33.2288Q13.2538,33.4024,13.58667,33.559799999999996Q13.91955,33.7173,14.25975,33.8582Q14.59995,33.9991,14.94665,34.1232Q15.2934,34.2472,15.6457,34.3541Q15.9981,34.461,16.3553,34.5505Q16.7125,34.6399,17.0736,34.7118Q17.4348,34.7836,17.799,34.837599999999995Q18.1633,34.8917,18.5297,34.927800000000005Q18.8962,34.963899999999995,19.264,34.981899999999996Q19.6318,35,20,35ZM20,32.1428Q20.298099999999998,32.1428,20.5959,32.1282Q20.8936,32.113600000000005,21.1902,32.0844Q21.4869,32.055099999999996,21.7818,32.011399999999995Q22.0766,31.9677,22.369,31.9095Q22.6614,31.8514,22.9505,31.7789Q23.2397,31.7065,23.5249,31.62Q23.8102,31.5334,24.0908,31.433Q24.3715,31.3326,24.6469,31.2185Q24.9223,31.1044,25.1918,30.977Q25.4612,30.8495,25.7241,30.709Q25.987,30.5685,26.2427,30.4152Q26.4984,30.262,26.7462,30.0964Q26.9941,29.9308,27.2335,29.7532Q27.4729,29.5756,27.7034,29.3865Q27.9338,29.1974,28.1547,28.9972Q28.3755,28.7971,28.5863,28.5863Q28.7971,28.3755,28.9973,28.1546Q29.1975,27.9337,29.3866,27.7033Q29.5757,27.4729,29.7533,27.2335Q29.9308,26.994,30.0964,26.7462Q30.2621,26.4983,30.4153,26.2427Q30.5686,25.987,30.7091,25.7241Q30.8496,25.4612,30.977,25.1917Q31.1045,24.9222,31.2186,24.6468Q31.3326,24.3714,31.4331,24.0908Q31.5335,23.8101,31.62,23.5249Q31.7066,23.2396,31.779,22.9504Q31.8514,22.6613,31.9096,22.3689Q31.9677,22.0766,32.0115,21.7817Q32.0552,21.4868,32.0844,21.1902Q32.113600000000005,20.8935,32.128299999999996,20.5958Q32.1429,20.298099999999998,32.1429,20Q32.1429,19.701900000000002,32.128299999999996,19.4042Q32.113600000000005,19.1064,32.0844,18.8098Q32.0552,18.5131,32.0115,18.2182Q31.9677,17.9234,31.9096,17.631Q31.8514,17.3387,31.779,17.049500000000002Q31.7066,16.7603,31.62,16.475099999999998Q31.5335,16.189799999999998,31.4331,15.9092Q31.3326,15.6285,31.2186,15.3531Q31.1045,15.0777,30.977,14.80823Q30.8496,14.53876,30.7091,14.27587Q30.5686,14.01298,30.4153,13.7573Q30.2621,13.50162,30.0965,13.25376Q29.9308,13.00591,29.7533,12.76648Q29.5757,12.52705,29.3866,12.29663Q29.1975,12.0662,28.9973,11.84533Q28.7971,11.62446,28.5863,11.41368Q28.3756,11.20289,28.1547,11.00271Q27.9338,10.802520000000001,27.7034,10.61342Q27.473,10.42431,27.2335,10.246739999999999Q26.9941,10.06917,26.7462,9.903559999999999Q26.4984,9.73795,26.2427,9.5847Q25.987,9.43145,25.7241,9.29093Q25.4612,9.15041,25.1918,9.022960000000001Q24.9223,8.89551,24.6469,8.78144Q24.3715,8.66736,24.0908,8.56694Q23.8102,8.46652,23.5249,8.37998Q23.2397,8.29345,22.9505,8.22102Q22.6614,8.14859,22.369,8.090440000000001Q22.0766,8.03228,21.7818,7.98855Q21.4869,7.94481,21.1902,7.91559Q20.8936,7.886369999999999,20.5959,7.87174Q20.298099999999998,7.85712,20,7.85712Q19.701900000000002,7.85712,19.4042,7.87174Q19.1065,7.886369999999999,18.8098,7.91559Q18.513199999999998,7.94481,18.2183,7.98855Q17.9234,8.03228,17.6311,8.090440000000001Q17.3387,8.14859,17.049599999999998,8.22102Q16.7604,8.29345,16.4752,8.37998Q16.1899,8.46652,15.9092,8.56694Q15.6286,8.66736,15.3532,8.78144Q15.0778,8.89551,14.80829,9.022960000000001Q14.53882,9.15041,14.27593,9.29093Q14.01304,9.43145,13.75736,9.5847Q13.50168,9.73795,13.25382,9.903559999999999Q13.00597,10.06917,12.766539999999999,10.246739999999999Q12.52711,10.42431,12.29669,10.61342Q12.06626,10.802520000000001,11.84539,11.00271Q11.62452,11.20289,11.41374,11.41368Q11.202960000000001,11.62446,11.00277,11.84533Q10.80259,12.0662,10.61348,12.29663Q10.42437,12.52705,10.2468,12.76648Q10.069230000000001,13.00591,9.90362,13.25376Q9.73801,13.50162,9.58476,13.7573Q9.43151,14.01298,9.29099,14.27587Q9.15047,14.53876,9.023019999999999,14.80823Q8.89557,15.0777,8.7815,15.3531Q8.66742,15.6285,8.567,15.9092Q8.46658,16.189799999999998,8.38005,16.475099999999998Q8.29351,16.7603,8.22108,17.049500000000002Q8.14865,17.3387,8.0905,17.631Q8.03234,17.9234,7.9886099999999995,18.2182Q7.94487,18.5131,7.915649999999999,18.8098Q7.88643,19.1064,7.8718,19.4042Q7.85718,19.701900000000002,7.85718,20Q7.85718,20.298099999999998,7.8718,20.5958Q7.88643,20.8935,7.915649999999999,21.1902Q7.94487,21.4868,7.9886099999999995,21.7817Q8.03234,22.0766,8.0905,22.3689Q8.14865,22.6613,8.22108,22.9504Q8.29351,23.2396,8.38005,23.5249Q8.46658,23.8101,8.567,24.0908Q8.66742,24.3714,8.7815,24.6468Q8.89557,24.9222,9.023019999999999,25.1917Q9.15047,25.4612,9.29099,25.7241Q9.43151,25.987,9.58476,26.2426Q9.73801,26.4983,9.90362,26.7462Q10.069230000000001,26.994,10.2468,27.2335Q10.42437,27.4729,10.61348,27.7033Q10.80259,27.9337,11.00277,28.1546Q11.202960000000001,28.3755,11.41374,28.5863Q11.62452,28.7971,11.84539,28.9972Q12.06626,29.1974,12.29669,29.3865Q12.52712,29.5756,12.766539999999999,29.7532Q13.00597,29.9308,13.25382,30.0964Q13.50168,30.262,13.75736,30.4152Q14.01304,30.5685,14.27593,30.709Q14.53882,30.8495,14.80829,30.977Q15.0778,31.1044,15.3532,31.2185Q15.6286,31.3326,15.9092,31.433Q16.1899,31.5334,16.475099999999998,31.62Q16.7604,31.7065,17.049599999999998,31.7789Q17.3387,31.8514,17.6311,31.9095Q17.9234,31.9677,18.2183,32.011399999999995Q18.513199999999998,32.055099999999996,18.8098,32.0844Q19.1065,32.113600000000005,19.4042,32.1282Q19.701900000000002,32.1428,20,32.1428Z" fill-rule="evenodd" fill="#4B4B4B" fill-opacity="1"/></g><g><path d="M19.999999252624512,35Q20.15780925262451,35,20.31543925262451,34.981899999999996Q20.473059252624513,34.963899999999995,20.63010925262451,34.927800000000005Q20.787159252624512,34.8917,20.94326925262451,34.837599999999995Q21.099369252624513,34.7836,21.25414925262451,34.7118Q21.40892925262451,34.6399,21.562019252624513,34.5505Q21.715099252624512,34.461,21.86611925262451,34.3541Q22.017129252624514,34.2472,22.165719252624513,34.1232Q22.31430925262451,33.9991,22.460109252624513,33.8582Q22.605909252624514,33.7173,22.748569252624513,33.559799999999996Q22.891229252624512,33.4024,23.030409252624512,33.2288Q23.16958925262451,33.0552,23.30494925262451,32.865899999999996Q23.440309252624512,32.6766,23.57152925262451,32.472Q23.70272925262451,32.2675,23.82952925262451,32.048100000000005Q23.95622925262451,31.8288,24.07822925262451,31.5952Q24.20022925262451,31.3616,24.31712925262451,31.1143Q24.434129252624512,30.867,24.54572925262451,30.6066Q24.65722925262451,30.3462,24.763229252624512,30.0734Q24.869229252624514,29.8005,24.96932925262451,29.5159Q25.06942925262451,29.2313,25.16342925262451,28.9355Q25.25752925262451,28.6397,25.34512925262451,28.3335Q25.43282925262451,28.0274,25.513929252624514,27.7115Q25.59512925262451,27.3957,25.669529252624514,27.0709Q25.74392925262451,26.7462,25.81132925262451,26.4133Q25.878829252624513,26.0804,25.939229252624514,25.7402Q25.999629252624512,25.4,26.052829252624512,25.0533Q26.105929252624513,24.7066,26.151729252624513,24.3543Q26.197529252624513,24.0019,26.235929252624512,23.6447Q26.27422925262451,23.2875,26.30502925262451,22.9264Q26.335829252624514,22.5652,26.35902925262451,22.201Q26.382129252624512,21.8367,26.39762925262451,21.4703Q26.41312925262451,21.1038,26.42082925262451,20.736Q26.428529252624514,20.3682,26.428529252624514,20Q26.428529252624514,19.6318,26.42082925262451,19.264Q26.41312925262451,18.8962,26.39762925262451,18.5297Q26.382129252624512,18.1633,26.35902925262451,17.799Q26.335829252624514,17.4348,26.30502925262451,17.0736Q26.27422925262451,16.7125,26.235929252624512,16.3553Q26.197529252624513,15.9981,26.151729252624513,15.6457Q26.105929252624513,15.2934,26.052829252624512,14.94665Q25.999629252624512,14.59995,25.939229252624514,14.25975Q25.878829252624513,13.91955,25.81132925262451,13.58667Q25.74392925262451,13.2538,25.669529252624514,12.92905Q25.59512925262451,12.6043,25.513929252624514,12.28846Q25.43282925262451,11.97262,25.34512925262451,11.666450000000001Q25.25752925262451,11.36027,25.16342925262451,11.06451Q25.06942925262451,10.76875,24.96932925262451,10.4841Q24.869229252624514,10.199449999999999,24.763229252624512,9.92661Q24.65722925262451,9.653780000000001,24.54572925262451,9.3934Q24.434129252624512,9.13302,24.31712925262451,8.88573Q24.20022925262451,8.63845,24.07822925262451,8.40484Q23.95622925262451,8.171240000000001,23.82952925262451,7.951890000000001Q23.70272925262451,7.732530000000001,23.57152925262451,7.52796Q23.440309252624512,7.32338,23.30494925262451,7.1340699999999995Q23.16958925262451,6.9447600000000005,23.030409252624512,6.77118Q22.891229252624512,6.5976,22.748569252624513,6.4401600000000006Q22.605909252624514,6.28272,22.460109252624513,6.1418099999999995Q22.31430925262451,6.00089,22.165719252624513,5.876839Q22.017129252624514,5.752786,21.86611925262451,5.645895Q21.715099252624512,5.539004,21.562019252624513,5.449531Q21.40892925262451,5.360059,21.25414925262451,5.288221Q21.099369252624513,5.216383,20.94326925262451,5.162352Q20.787159252624512,5.108322,20.63010925262451,5.0722291Q20.473059252624513,5.0361363,20.31543925262451,5.0180682Q20.15780925262451,5,19.999999252624512,5Q19.84218925262451,5,19.684569252624513,5.0180682Q19.526939252624512,5.0361363,19.36988925262451,5.0722291Q19.212839252624512,5.108322,19.05672925262451,5.162352Q18.900629252624512,5.216383,18.74584925262451,5.288221Q18.59106925262451,5.360059,18.43798925262451,5.449531Q18.284899252624513,5.539004,18.133889252624513,5.645895Q17.98286925262451,5.752786,17.834279252624512,5.876839Q17.685689252624513,6.00089,17.539889252624512,6.1418099999999995Q17.39408925262451,6.28272,17.25142925262451,6.4401600000000006Q17.108769252624512,6.5976,16.969589252624512,6.77118Q16.830419252624512,6.9447600000000005,16.69504925262451,7.1340699999999995Q16.559689252624512,7.32338,16.428479252624513,7.52796Q16.297259252624514,7.732530000000001,16.170509252624512,7.951890000000001Q16.04374925262451,8.171240000000001,15.921759252624511,8.40484Q15.799769252624511,8.63845,15.682839252624511,8.88573Q15.565909252624511,9.13302,15.454309252624512,9.3934Q15.342719252624512,9.653780000000001,15.236739252624512,9.92661Q15.130759252624511,10.199449999999999,15.030649252624512,10.4841Q14.930529252624511,10.768740000000001,14.836519252624512,11.06451Q14.742519252624511,11.36027,14.654839252624512,11.666450000000001Q14.567163252624512,11.97262,14.486031252624512,12.28846Q14.404899252624512,12.6043,14.330507252624512,12.92905Q14.256114252624512,13.2538,14.188641252624512,13.58667Q14.121167252624511,13.91955,14.060775252624511,14.25975Q14.00038325262451,14.59995,13.947217252624512,14.94665Q13.894052252624512,15.2934,13.848241252624511,15.6457Q13.802431252624512,15.9981,13.764085252624511,16.3553Q13.725740252624512,16.7125,13.694952252624512,17.0736Q13.664164752624512,17.4348,13.641008852624513,17.799Q13.617852952624512,18.1633,13.602384552624512,18.5297Q13.586916252624512,18.8962,13.579172752624512,19.264Q13.571429252624512,19.6318,13.571429252624512,20Q13.571429252624512,20.3682,13.579172752624512,20.736Q13.586916252624512,21.1038,13.602384552624512,21.4703Q13.617852952624512,21.8367,13.641008852624513,22.201Q13.664164752624512,22.5652,13.694952252624512,22.9264Q13.725740252624512,23.2875,13.764085252624511,23.6447Q13.802431252624512,24.0019,13.848241252624511,24.3543Q13.894052252624512,24.7066,13.947217252624512,25.0533Q14.00038325262451,25.4,14.060775252624511,25.7402Q14.121167252624511,26.0804,14.188641252624512,26.4133Q14.256114252624512,26.7462,14.330507252624512,27.0709Q14.404899252624512,27.3957,14.486031252624512,27.7115Q14.567162252624511,28.0274,14.654839252624512,28.3335Q14.742519252624511,28.6397,14.836519252624512,28.9355Q14.930529252624511,29.2313,15.030649252624512,29.5159Q15.130759252624511,29.8005,15.236739252624512,30.0734Q15.342719252624512,30.3462,15.454309252624512,30.6066Q15.565909252624511,30.867,15.682839252624511,31.1143Q15.799769252624511,31.3616,15.921759252624511,31.5952Q16.04374925262451,31.8288,16.170509252624512,32.048100000000005Q16.297259252624514,32.2675,16.428479252624513,32.472Q16.559689252624512,32.6766,16.69505925262451,32.865899999999996Q16.830419252624512,33.0552,16.969589252624512,33.2288Q17.108769252624512,33.4024,17.25142925262451,33.559799999999996Q17.39408925262451,33.7173,17.539889252624512,33.8582Q17.685689252624513,33.9991,17.834279252624512,34.1232Q17.98286925262451,34.2472,18.133889252624513,34.3541Q18.284899252624513,34.461,18.43798925262451,34.5505Q18.59106925262451,34.6399,18.74584925262451,34.7118Q18.900629252624512,34.7836,19.05672925262451,34.837599999999995Q19.212839252624512,34.8917,19.36988925262451,34.927800000000005Q19.526939252624512,34.963899999999995,19.684569252624513,34.981899999999996Q19.84218925262451,35,19.999999252624512,35ZM19.99993925262451,30.7143Q20.11265925262451,30.7143,20.22524925262451,30.7014Q20.337839252624512,30.6885,20.45001925262451,30.6627Q20.562199252624513,30.637,20.673699252624512,30.5984Q20.785199252624512,30.5598,20.89575925262451,30.5085Q21.00631925262451,30.4571,21.11565925262451,30.3932Q21.22500925262451,30.3293,21.33287925262451,30.253Q21.440749252624514,30.1766,21.546879252624514,30.088Q21.653009252624514,29.9994,21.75715925262451,29.8988Q21.861299252624512,29.7981,21.963199252624513,29.6856Q22.065099252624513,29.5732,22.164509252624512,29.4492Q22.263929252624514,29.3252,22.360609252624513,29.19Q22.457299252624512,29.0548,22.551019252624513,28.9087Q22.644749252624514,28.7625,22.73528925262451,28.6058Q22.825829252624512,28.4492,22.912969252624514,28.2823Q23.000099252624512,28.1154,23.08362925262451,27.9388Q23.16714925262451,27.7622,23.24685925262451,27.5762Q23.326559252624513,27.3902,23.40225925262451,27.1953Q23.477959252624512,27.0004,23.54946925262451,26.7971Q23.62102925262451,26.5938,23.688129252624513,26.3825Q23.755329252624513,26.1713,23.81792925262451,25.9526Q23.880529252624513,25.7339,23.938529252624512,25.5083Q23.996429252624512,25.2827,24.04952925262451,25.0507Q24.102729252624513,24.8188,24.15092925262451,24.581Q24.199129252624513,24.3432,24.24222925262451,24.1002Q24.285329252624514,23.8572,24.32332925262451,23.6096Q24.36132925262451,23.3619,24.394029252624513,23.1102Q24.42672925262451,22.8585,24.45412925262451,22.6034Q24.48152925262451,22.3483,24.50352925262451,22.0903Q24.525529252624512,21.8323,24.54202925262451,21.5722Q24.558629252624513,21.312,24.569629252624512,21.0502Q24.58072925262451,20.7885,24.586229252624513,20.5258Q24.59172925262451,20.2631,24.59172925262451,20.0001Q24.59172925262451,19.737000000000002,24.586229252624513,19.4743Q24.58072925262451,19.2116,24.569629252624512,18.9499Q24.558629252624513,18.6881,24.54202925262451,18.4279Q24.525529252624512,18.1678,24.50352925262451,17.9098Q24.48152925262451,17.6518,24.45412925262451,17.3967Q24.42672925262451,17.1416,24.394029252624513,16.8899Q24.36132925262451,16.638199999999998,24.32332925262451,16.3905Q24.285329252624514,16.142899999999997,24.24222925262451,15.8999Q24.199129252624513,15.6569,24.15092925262451,15.4191Q24.102729252624513,15.1813,24.04952925262451,14.94937Q23.996429252624512,14.71741,23.938529252624512,14.49181Q23.880529252624513,14.26621,23.81792925262451,14.04751Q23.755329252624513,13.82882,23.688129252624513,13.61756Q23.62102925262451,13.4063,23.54946925262451,13.20298Q23.477959252624512,12.99966,23.40225925262451,12.804780000000001Q23.326559252624513,12.60989,23.24685925262451,12.42391Q23.16714925262451,12.237919999999999,23.08362925262451,12.06129Q23.000099252624512,11.88466,22.912969252624514,11.7178Q22.825829252624512,11.55094,22.73528925262451,11.39426Q22.644749252624514,11.237580000000001,22.551019252624513,11.09145Q22.457299252624512,10.945319999999999,22.360609252624513,10.8101Q22.263929252624514,10.67488,22.164509252624512,10.5509Q22.065099252624513,10.42691,21.963199252624513,10.31445Q21.861299252624512,10.202,21.75715925262451,10.10134Q21.653009252624514,10.000689999999999,21.546879252624514,9.91208Q21.440749252624514,9.82347,21.33287925262451,9.747119999999999Q21.22500925262451,9.670770000000001,21.11565925262451,9.606860000000001Q21.00631925262451,9.542950000000001,20.89575925262451,9.49164Q20.785199252624512,9.44033,20.673699252624512,9.40173Q20.562199252624513,9.36314,20.45001925262451,9.33736Q20.337839252624512,9.31158,20.22524925262451,9.298670000000001Q20.11265925262451,9.28577,19.99993925262451,9.28577Q19.887209252624512,9.28577,19.77462925262451,9.298670000000001Q19.66203925262451,9.31158,19.54985925262451,9.33736Q19.437679252624513,9.36314,19.32616925262451,9.40173Q19.21466925262451,9.44033,19.10410925262451,9.49164Q18.99355925262451,9.542950000000001,18.884209252624512,9.606860000000001Q18.774869252624512,9.670770000000001,18.666999252624514,9.747119999999999Q18.559129252624512,9.82347,18.452989252624512,9.91208Q18.346859252624512,10.000689999999999,18.24271925262451,10.10134Q18.138569252624514,10.202,18.036669252624513,10.31445Q17.934769252624513,10.42691,17.835359252624514,10.5509Q17.73594925262451,10.67488,17.639259252624512,10.8101Q17.54256925262451,10.945319999999999,17.448849252624512,11.09145Q17.35511925262451,11.237580000000001,17.26457925262451,11.39426Q17.17403925262451,11.55094,17.086909252624512,11.7178Q16.99976925262451,11.88466,16.91624925262451,12.06129Q16.83272925262451,12.237919999999999,16.75301925262451,12.42391Q16.673309252624513,12.60989,16.597609252624512,12.804780000000001Q16.52190925262451,12.99966,16.45039925262451,13.20298Q16.37888925262451,13.4063,16.311739252624513,13.61756Q16.24458925262451,13.82882,16.181959252624512,14.04751Q16.119339252624513,14.26621,16.06138925262451,14.49181Q16.00343925262451,14.71741,15.95029925262451,14.94937Q15.897159252624512,15.1813,15.848969252624512,15.4191Q15.800769252624512,15.6569,15.757629252624511,15.8999Q15.714499252624512,16.142899999999997,15.676519252624512,16.3905Q15.638539252624511,16.638199999999998,15.605819252624512,16.8899Q15.573099252624512,17.1416,15.545709252624512,17.3967Q15.518319252624512,17.6518,15.496329252624513,17.9098Q15.474339252624512,18.1678,15.457799252624511,18.4279Q15.441259252624512,18.6881,15.430209252624511,18.9499Q15.419159252624512,19.2116,15.413629252624512,19.4743Q15.408099252624512,19.737000000000002,15.408099252624512,20.0001Q15.408099252624512,20.2631,15.413629252624512,20.5258Q15.419159252624512,20.7885,15.430209252624511,21.0502Q15.441259252624512,21.312,15.457799252624511,21.5722Q15.474339252624512,21.8323,15.496329252624513,22.0903Q15.518319252624512,22.3483,15.545709252624512,22.6034Q15.573099252624512,22.8585,15.605819252624512,23.1102Q15.638539252624511,23.3619,15.676519252624512,23.6096Q15.714499252624512,23.8572,15.757629252624511,24.1002Q15.800769252624512,24.3432,15.848969252624512,24.581Q15.897159252624512,24.8188,15.95029925262451,25.0507Q16.00343925262451,25.2827,16.06138925262451,25.5083Q16.119339252624513,25.7339,16.181959252624512,25.9526Q16.24458925262451,26.1713,16.311739252624513,26.3825Q16.37888925262451,26.5938,16.45039925262451,26.7971Q16.52190925262451,27.0004,16.597609252624512,27.1953Q16.673309252624513,27.3902,16.75301925262451,27.5762Q16.83272925262451,27.7622,16.91624925262451,27.9388Q16.99976925262451,28.1154,17.086909252624512,28.2823Q17.17403925262451,28.4492,17.26457925262451,28.6058Q17.35511925262451,28.7625,17.448849252624512,28.9087Q17.54256925262451,29.0548,17.639259252624512,29.19Q17.73594925262451,29.3252,17.835359252624514,29.4492Q17.934769252624513,29.5732,18.036669252624513,29.6856Q18.138569252624514,29.7981,18.24271925262451,29.8988Q18.346859252624512,29.9994,18.452989252624512,30.088Q18.559129252624512,30.1766,18.666999252624514,30.253Q18.774869252624512,30.3293,18.884209252624512,30.3932Q18.99355925262451,30.4571,19.10410925262451,30.5085Q19.21466925262451,30.5598,19.32616925262451,30.5984Q19.437679252624513,30.637,19.54985925262451,30.6627Q19.66203925262451,30.6885,19.77462925262451,30.7014Q19.887209252624512,30.7143,19.99993925262451,30.7143Z" fill-rule="evenodd" fill="#4B4B4B" fill-opacity="1"/></g><g transform="matrix(0,1,-1,0,48.57142925262451,-21.42857074737549)"><path d="M41.42857,43.57142925262451Q41.58638,43.57142925262451,41.74401,43.55332925262451Q41.90163,43.53532925262451,42.05868,43.49922925262452Q42.21573,43.46312925262451,42.37184,43.40902925262451Q42.52794,43.35502925262451,42.68272,43.28322925262451Q42.8375,43.21132925262451,42.99059,43.12192925262451Q43.14367,43.03242925262451,43.29469,42.925529252624514Q43.4457,42.81862925262451,43.59429,42.69462925262451Q43.74288,42.57052925262451,43.88868,42.42962925262451Q44.03448,42.28872925262451,44.17714,42.13122925262451Q44.3198,41.97382925262451,44.45898,41.80022925262451Q44.59816,41.62662925262451,44.73352,41.43732925262451Q44.868880000000004,41.24802925262451,45.0001,41.04342925262451Q45.131299999999996,40.83892925262451,45.2581,40.61952925262452Q45.3848,40.40022925262451,45.5068,40.16662925262451Q45.6288,39.93302925262451,45.7457,39.68572925262451Q45.862700000000004,39.438429252624516,45.9743,39.17802925262451Q46.0858,38.91762925262451,46.1918,38.64482925262451Q46.2978,38.37192925262451,46.3979,38.087329252624514Q46.498,37.802729252624516,46.592,37.506929252624516Q46.686099999999996,37.21112925262452,46.7737,36.90492925262451Q46.8614,36.59882925262451,46.9425,36.28292925262451Q47.0237,35.96712925262452,47.0981,35.64232925262451Q47.1725,35.31762925262451,47.2399,34.98472925262451Q47.3074,34.65182925262451,47.3678,34.31162925262451Q47.428200000000004,33.97142925262451,47.4814,33.62472925262451Q47.5345,33.27802925262451,47.5803,32.92572925262451Q47.6261,32.57332925262451,47.664500000000004,32.21612925262451Q47.702799999999996,31.858929252624513,47.733599999999996,31.497829252624513Q47.7644,31.136629252624513,47.7876,30.772429252624512Q47.8107,30.408129252624512,47.8262,30.041729252624513Q47.8417,29.67522925262451,47.8494,29.307429252624512Q47.8571,28.939629252624513,47.8571,28.57142925262451Q47.8571,28.20322925262451,47.8494,27.83542925262451Q47.8417,27.467629252624512,47.8262,27.10112925262451Q47.8107,26.73472925262451,47.7876,26.37042925262451Q47.7644,26.00622925262451,47.733599999999996,25.64502925262451Q47.702799999999996,25.28392925262451,47.664500000000004,24.92672925262451Q47.6261,24.569529252624513,47.5803,24.21712925262451Q47.5345,23.86482925262451,47.4814,23.51807925262451Q47.428200000000004,23.17137925262451,47.3678,22.831179252624512Q47.3074,22.490979252624513,47.2399,22.15809925262451Q47.1725,21.82522925262451,47.0981,21.500479252624512Q47.0237,21.175729252624514,46.9425,20.859889252624512Q46.8614,20.54404925262451,46.7737,20.237879252624513Q46.686099999999996,19.93169925262451,46.592,19.63593925262451Q46.498,19.340179252624512,46.3979,19.05552925262451Q46.2978,18.77087925262451,46.1918,18.498039252624512Q46.0858,18.225209252624513,45.9743,17.96482925262451Q45.862700000000004,17.704449252624514,45.7457,17.45715925262451Q45.6288,17.20987925262451,45.5068,16.976269252624512Q45.3848,16.742669252624513,45.2581,16.52331925262451Q45.131299999999996,16.303959252624512,45.0001,16.099389252624512Q44.868880000000004,15.894809252624512,44.73352,15.705499252624511Q44.59816,15.516189252624512,44.45898,15.342609252624511Q44.3198,15.169029252624512,44.17714,15.011589252624512Q44.03448,14.854149252624511,43.88868,14.713239252624511Q43.74288,14.572319252624512,43.59429,14.448268252624512Q43.4457,14.324215252624512,43.29469,14.217324252624511Q43.14367,14.110433252624512,42.99059,14.020960252624512Q42.8375,13.931488252624511,42.68272,13.859650252624512Q42.52794,13.787812252624512,42.37184,13.733781252624512Q42.21573,13.679751252624511,42.05868,13.643658352624511Q41.90163,13.607565552624513,41.74401,13.589497452624512Q41.58638,13.571429252624512,41.42857,13.571429252624512Q41.27076,13.571429252624512,41.11314,13.589497452624512Q40.955510000000004,13.607565552624513,40.79846,13.643658352624511Q40.64141,13.679751252624511,40.4853,13.733781252624512Q40.3292,13.787812252624512,40.17442,13.859650252624512Q40.01964,13.931488252624511,39.86656,14.020960252624512Q39.71347,14.110433252624512,39.56246,14.217324252624511Q39.41144,14.324215252624512,39.26285,14.448268252624512Q39.11426,14.572319252624512,38.96846,14.713239252624511Q38.82266,14.854149252624511,38.68,15.011589252624512Q38.53734,15.169029252624512,38.39816,15.342609252624511Q38.25899,15.516189252624512,38.12362,15.705499252624511Q37.98826,15.894809252624512,37.85705,16.099389252624512Q37.72583,16.303959252624512,37.59908,16.52331925262451Q37.472319999999996,16.742669252624513,37.35033,16.976269252624512Q37.22834,17.20987925262451,37.11141,17.45715925262451Q36.99448,17.704449252624514,36.88288,17.96482925262451Q36.77129,18.225209252624513,36.66531,18.498039252624512Q36.55933,18.77087925262451,36.45922,19.05552925262451Q36.3591,19.340169252624513,36.26509,19.63593925262451Q36.17109,19.93169925262451,36.08341,20.237879252624513Q35.995734,20.54404925262451,35.914602,20.859889252624512Q35.83347,21.175729252624514,35.759078,21.500479252624512Q35.684685,21.82522925262451,35.617212,22.15809925262451Q35.549738,22.490979252624513,35.489346,22.831179252624512Q35.428954,23.17137925262451,35.375788,23.51807925262451Q35.322623,23.86482925262451,35.276812,24.21712925262451Q35.231002,24.569529252624513,35.192656,24.92672925262451Q35.154311,25.28392925262451,35.123523,25.64502925262451Q35.0927355,26.00622925262451,35.0695796,26.37042925262451Q35.0464237,26.73472925262451,35.0309553,27.10112925262451Q35.015487,27.467629252624512,35.0077435,27.83542925262451Q35,28.20322925262451,35,28.57142925262451Q35,28.939629252624513,35.0077435,29.307429252624512Q35.015487,29.67522925262451,35.0309553,30.041729252624513Q35.0464237,30.408129252624512,35.0695796,30.772429252624512Q35.0927355,31.136629252624513,35.123523,31.497829252624513Q35.154311,31.858929252624513,35.192656,32.21612925262451Q35.231002,32.57332925262451,35.276812,32.92572925262451Q35.322623,33.27802925262451,35.375788,33.62472925262451Q35.428954,33.97142925262451,35.489346,34.31162925262451Q35.549738,34.65182925262451,35.617212,34.98472925262451Q35.684685,35.31762925262451,35.759078,35.64232925262451Q35.83347,35.96712925262452,35.914602,36.28292925262451Q35.995733,36.59882925262451,36.08341,36.90492925262451Q36.17109,37.21112925262452,36.26509,37.506929252624516Q36.3591,37.802729252624516,36.45922,38.087329252624514Q36.55933,38.37192925262451,36.66531,38.64482925262451Q36.77129,38.91762925262451,36.88288,39.17802925262451Q36.99448,39.438429252624516,37.11141,39.68572925262451Q37.22834,39.93302925262451,37.35033,40.16662925262451Q37.472319999999996,40.40022925262451,37.59908,40.61952925262452Q37.72583,40.83892925262451,37.85705,41.04342925262451Q37.98826,41.24802925262451,38.12363,41.43732925262451Q38.25899,41.62662925262451,38.39816,41.80022925262451Q38.53734,41.97382925262451,38.68,42.13122925262451Q38.82266,42.28872925262451,38.96846,42.42962925262451Q39.11426,42.57052925262451,39.26285,42.69462925262451Q39.41144,42.81862925262451,39.56246,42.925529252624514Q39.71347,43.03242925262451,39.86656,43.12192925262451Q40.01964,43.21132925262451,40.17442,43.28322925262451Q40.3292,43.35502925262451,40.4853,43.40902925262451Q40.64141,43.46312925262451,40.79846,43.49922925262452Q40.955510000000004,43.53532925262451,41.11314,43.55332925262451Q41.27076,43.57142925262451,41.42857,43.57142925262451ZM41.42851,39.28572925262451Q41.54123,39.28572925262451,41.653819999999996,39.27282925262451Q41.76641,39.25992925262452,41.87859,39.23412925262451Q41.99077,39.20842925262451,42.10227,39.16982925262451Q42.21377,39.13122925262451,42.32433,39.07992925262451Q42.43489,39.02852925262451,42.54423,38.96462925262451Q42.65358,38.900729252624515,42.761449999999996,38.82442925262451Q42.86932,38.74802925262451,42.97545,38.65942925262451Q43.08158,38.57082925262451,43.18573,38.47022925262451Q43.28987,38.36952925262452,43.39177,38.25702925262451Q43.49367,38.14462925262451,43.59308,38.020629252624516Q43.6925,37.89662925262451,43.78918,37.76142925262451Q43.88587,37.62622925262451,43.97959,37.48012925262451Q44.07332,37.333929252624515,44.16386,37.177229252624514Q44.254400000000004,37.020629252624516,44.34154,36.85372925262451Q44.42867,36.68682925262451,44.5122,36.51022925262451Q44.59572,36.33362925262451,44.67543,36.14762925262451Q44.75513,35.96162925262451,44.83083,35.766729252624515Q44.906530000000004,35.57182925262451,44.97804,35.36852925262451Q45.0496,35.16522925262451,45.1167,34.95392925262451Q45.1839,34.742729252624514,45.2465,34.524029252624516Q45.3091,34.30532925262451,45.3671,34.07972925262451Q45.425,33.85412925262451,45.4781,33.62212925262451Q45.5313,33.39022925262451,45.579499999999996,33.152429252624515Q45.627700000000004,32.91462925262451,45.6708,32.67162925262451Q45.7139,32.42862925262451,45.7519,32.18102925262451Q45.7899,31.93332925262451,45.8226,31.68162925262451Q45.8553,31.42992925262451,45.8827,31.174829252624512Q45.9101,30.91972925262451,45.9321,30.66172925262451Q45.9541,30.40372925262451,45.9706,30.14362925262451Q45.9872,29.883429252624513,45.9982,29.621629252624512Q46.009299999999996,29.35992925262451,46.0148,29.097229252624512Q46.0203,28.834529252624513,46.0203,28.57152925262451Q46.0203,28.308429252624514,46.0148,28.04572925262451Q46.009299999999996,27.783029252624512,45.9982,27.52132925262451Q45.9872,27.25952925262451,45.9706,26.999329252624513Q45.9541,26.73922925262451,45.9321,26.481229252624512Q45.9101,26.223229252624513,45.8827,25.96812925262451Q45.8553,25.713029252624512,45.8226,25.461329252624513Q45.7899,25.20962925262451,45.7519,24.96192925262451Q45.7139,24.71432925262451,45.6708,24.471329252624514Q45.627700000000004,24.228329252624512,45.579499999999996,23.990529252624512Q45.5313,23.752729252624512,45.4781,23.520799252624514Q45.425,23.288839252624513,45.3671,23.063239252624513Q45.3091,22.837639252624513,45.2465,22.618939252624514Q45.1839,22.400249252624512,45.1167,22.18898925262451Q45.0496,21.977729252624513,44.97804,21.774409252624512Q44.906530000000004,21.57108925262451,44.83083,21.376209252624513Q44.75513,21.18131925262451,44.67543,20.99533925262451Q44.59572,20.80934925262451,44.5122,20.63271925262451Q44.42867,20.456089252624512,44.34154,20.289229252624512Q44.254400000000004,20.122369252624512,44.16386,19.96568925262451Q44.07332,19.809009252624513,43.97959,19.662879252624514Q43.88587,19.51674925262451,43.78918,19.38152925262451Q43.6925,19.246309252624513,43.59308,19.12232925262451Q43.49367,18.99833925262451,43.39177,18.885879252624513Q43.28987,18.77342925262451,43.18573,18.672769252624512Q43.08158,18.57211925262451,42.97545,18.48350925262451Q42.86932,18.394899252624512,42.761449999999996,18.31854925262451Q42.65358,18.242199252624513,42.54423,18.178289252624513Q42.43489,18.114379252624513,42.32433,18.063069252624512Q42.21377,18.01175925262451,42.10227,17.973159252624512Q41.99077,17.934569252624513,41.87859,17.908789252624512Q41.76641,17.88300925262451,41.653819999999996,17.870099252624513Q41.54123,17.85719925262451,41.42851,17.85719925262451Q41.315780000000004,17.85719925262451,41.2032,17.870099252624513Q41.09061,17.88300925262451,40.97843,17.908789252624512Q40.86625,17.934569252624513,40.75474,17.973159252624512Q40.64324,18.01175925262451,40.53268,18.063069252624512Q40.42213,18.114379252624513,40.312780000000004,18.178289252624513Q40.20344,18.242199252624513,40.09557,18.31854925262451Q39.987700000000004,18.394899252624512,39.88156,18.48350925262451Q39.77543,18.57211925262451,39.67129,18.672769252624512Q39.56714,18.77342925262451,39.46524,18.885879252624513Q39.36334,18.99833925262451,39.26393,19.12232925262451Q39.16452,19.246309252624513,39.06783,19.38152925262451Q38.97114,19.51674925262451,38.87742,19.662879252624514Q38.78369,19.809009252624513,38.69315,19.96568925262451Q38.60261,20.122369252624512,38.51548,20.289229252624512Q38.42834,20.456089252624512,38.34482,20.63271925262451Q38.2613,20.80934925262451,38.18159,20.99533925262451Q38.10188,21.18131925262451,38.02618,21.376209252624513Q37.95048,21.57108925262451,37.87897,21.774409252624512Q37.80746,21.977729252624513,37.74031,22.18898925262451Q37.67316,22.400249252624512,37.61053,22.618939252624514Q37.54791,22.837639252624513,37.489959999999996,23.063239252624513Q37.43201,23.288839252624513,37.37887,23.520799252624514Q37.32573,23.752729252624512,37.27754,23.990529252624512Q37.22934,24.228329252624512,37.1862,24.471329252624514Q37.14307,24.71432925262451,37.10509,24.96192925262451Q37.06711,25.20962925262451,37.03439,25.461329252624513Q37.00167,25.713029252624512,36.97428,25.96812925262451Q36.94689,26.223229252624513,36.9249,26.481229252624512Q36.90291,26.73922925262451,36.88637,26.999329252624513Q36.86983,27.25952925262451,36.85878,27.52132925262451Q36.84773,27.783029252624512,36.8422,28.04572925262451Q36.83667,28.308429252624514,36.83667,28.57152925262451Q36.83667,28.834529252624513,36.8422,29.097229252624512Q36.84773,29.35992925262451,36.85878,29.621629252624512Q36.86983,29.883429252624513,36.88637,30.14362925262451Q36.90291,30.40372925262451,36.9249,30.66172925262451Q36.94689,30.91972925262451,36.97428,31.174829252624512Q37.00167,31.42992925262451,37.03439,31.68162925262451Q37.06711,31.93332925262451,37.10509,32.18102925262451Q37.14307,32.42862925262451,37.1862,32.67162925262451Q37.22934,32.91462925262451,37.27754,33.152429252624515Q37.32573,33.39022925262451,37.37887,33.62212925262451Q37.43201,33.85412925262451,37.489959999999996,34.07972925262451Q37.54791,34.30532925262451,37.61053,34.524029252624516Q37.67316,34.742729252624514,37.74031,34.95392925262451Q37.80746,35.16522925262451,37.87897,35.36852925262451Q37.95048,35.57182925262451,38.02618,35.766729252624515Q38.10188,35.96162925262451,38.18159,36.14762925262451Q38.2613,36.33362925262451,38.34482,36.51022925262451Q38.42834,36.68682925262451,38.51548,36.85372925262451Q38.60261,37.020629252624516,38.69315,37.177229252624514Q38.78369,37.333929252624515,38.87742,37.48012925262451Q38.97114,37.62622925262451,39.06783,37.76142925262451Q39.16452,37.89662925262451,39.26393,38.020629252624516Q39.36334,38.14462925262451,39.46524,38.25702925262451Q39.56714,38.36952925262452,39.67129,38.47022925262451Q39.77543,38.57082925262451,39.88156,38.65942925262451Q39.987700000000004,38.74802925262451,40.09557,38.82442925262451Q40.20344,38.900729252624515,40.312780000000004,38.96462925262451Q40.42213,39.02852925262451,40.53268,39.07992925262451Q40.64324,39.13122925262451,40.75474,39.16982925262451Q40.86625,39.20842925262451,40.97843,39.23412925262451Q41.09061,39.25992925262452,41.2032,39.27282925262451Q41.315780000000004,39.28572925262451,41.42851,39.28572925262451Z" fill-rule="evenodd" fill="#4B4B4B" fill-opacity="1"/></g></g></g></svg>