<svg xmlns="http://www.w3.org/2000/svg" xmlns:xlink="http://www.w3.org/1999/xlink" fill="none" version="1.1" width="76.3553466796875" height="77.28424072265625" viewBox="0 0 76.3553466796875 77.28424072265625"><g><g transform="matrix(0.7071067690849304,0.70710688829422,-0.70710688829422,0.7071067690849304,23.55023374254415,-38.855356867838054)"><path d="M71.17767333984375,8.999969482421877L82.00297333984375,27.749969482421875L60.35235333984375,27.749969482421875L71.17767333984375,8.999969482421877Z" fill="#323232" fill-opacity="1"/></g><g transform="matrix(0.7071067690849304,-0.7071067690849304,0.7071067690849304,0.7071067690849304,-18.86394182285403,7.813700999411594)"><path d="M12.5,26.67764282226563L23.3253,45.427642822265625L1.67468,45.427642822265625L12.5,26.67764282226563Z" fill="#323232" fill-opacity="1"/></g><g><path d="M66.28432875976563,48.9999982421875L38.00002875976563,20.7156982421875L9.715759277365626,48.9999982421875L38.00002875976563,77.2841982421875L66.28432875976563,48.9999982421875ZM38.145728759765625,41.9454982421875L40.95682875976563,32.5296982421875L33.76052875976562,30.9999982421875L31.703628759765625,46.888098242187496L31.500728759765625,47.290498242187496L38.40542875976563,50.6861982421875L34.08572875976563,63.0376982421875L43.79372875976563,48.9956982421875L43.75772875976563,48.9667982421875L43.867028759765624,48.8086982421875L38.145728759765625,41.9454982421875Z" fill-rule="evenodd" fill="#323232" fill-opacity="1"/></g><g transform="matrix(0.9396926164627075,0.3420199155807495,-0.3420199155807495,0.9396926164627075,17.305622080257308,1.8545714355168457)"><rect x="3.3939208984375" y="49.999847412109375" width="7" height="7.000000476837158" rx="0" fill="#323232" fill-opacity="1"/></g><g transform="matrix(0.8191519975662231,0.5735764503479004,-0.5735764503479004,0.8191519975662231,36.12204001527425,5.435471335487819)"><rect x="9.44146728515625" y="59.999969482421875" width="6" height="6.000000476837158" rx="0" fill="#323232" fill-opacity="1"/></g><g transform="matrix(0.8191519975662231,-0.5735763907432556,0.5735763907432556,0.8191519975662231,-25.17593417381977,47.03499333702712)"><rect x="62" y="63.441436767578125" width="6" height="6" rx="0" fill="#323232" fill-opacity="1"/></g><g transform="matrix(0.9396925568580627,-0.3420201241970062,0.3420201241970062,0.9396925568580627,-13.939557148864878,25.733084485627842)"><rect x="66" y="52.394134521484375" width="6.999999523162842" height="7" rx="0" fill="#323232" fill-opacity="1"/></g><g transform="matrix(0.7071067094802856,-0.7071067094802856,0.7071067094802856,0.7071067094802856,6.165485956207704,24.78426633073468)"><rect x="33" y="4.949737548828125" width="6.999999046325684" height="6.999999523162842" rx="0" fill="#323232" fill-opacity="1"/></g><g transform="matrix(0.7660443782806396,-0.6427875757217407,0.6427875757217407,0.7660443782806396,5.302924661995348,32.28309548606194)"><rect x="47" y="8.856719970703125" width="6" height="6.000000953674316" rx="0" fill="#323232" fill-opacity="1"/></g><g transform="matrix(0.8191519379615784,-0.5735764503479004,0.5735764503479004,0.8191519379615784,3.108504278570763,35.59455594338033)"><rect x="58" y="12.867828369140625" width="5" height="5.000001907348633" rx="0" fill="#323232" fill-opacity="1"/></g><g transform="matrix(0.8191519379615784,0.5735763311386108,-0.5735763311386108,0.8191519379615784,8.243732249600725,-6.145835527973759)"><rect x="13.867919921875" y="9.999969482421875" width="4.999999523162842" height="5.000001430511475" rx="0" fill="#323232" fill-opacity="1"/></g><g transform="matrix(0.7660443782806396,0.642787516117096,-0.642787516117096,0.7660443782806396,8.795338856956732,-14.165050420149782)"><rect x="23.85675048828125" y="4.999969482421875" width="5.999999523162842" height="6.000000953674316" rx="0" fill="#323232" fill-opacity="1"/></g></g></svg>