<svg xmlns="http://www.w3.org/2000/svg" xmlns:xlink="http://www.w3.org/1999/xlink" fill="none" version="1.1" width="40" height="40" viewBox="0 0 40 40"><defs><clipPath id="master_svg0_69_2707"><rect x="0" y="0" width="40" height="40" rx="1"/></clipPath></defs><g clip-path="url(#master_svg0_69_2707)"><g transform="matrix(1,-2.2348336514710354e-8,2.2348336514710354e-8,1,-1.1242105646402933e-7,1.1242105646402933e-7)"><g><path d="M20.00001061758995,29.00001061758995L20.00001061758995,34.00001061758995C20.00001061758995,34.55231061758995,19.557210617589952,35.00361061758995,19.00611061758995,34.967610617589955C11.51373061758995,34.47751061758995,5.52252961758995,28.48631061758995,5.03241909758995,20.99391061758995C4.9963687175899505,20.44281061758995,5.447730617589951,20.00001061758995,6.00001561758995,20.00001061758995L11.00001061758995,20.00001061758995C11.55230061758995,20.00001061758995,11.99373061758995,20.454910617589952,12.06227061758995,21.00291061758995C12.51456061758995,24.61931061758995,15.380710617589951,27.485510617589952,18.99711061758995,27.93781061758995C19.54511061758995,28.00631061758995,20.00001061758995,28.44771061758995,20.00001061758995,29.00001061758995M29.00001061758995,20.00001061758995L34.00001061758995,20.00001061758995C34.55231061758995,20.00001061758995,35.00361061758995,19.557210617589952,34.967610617589955,19.00611061758995C34.47751061758995,11.51373061758995,28.48631061758995,5.52252961758995,20.99391061758995,5.03241909758995C20.44281061758995,4.9963687175899505,20.00001061758995,5.447730617589951,20.00001061758995,6.00001561758995L20.00001061758995,11.00001061758995C20.00001061758995,11.55230061758995,20.454910617589952,11.99373061758995,21.00291061758995,12.06227061758995C24.61931061758995,12.51456061758995,27.485510617589952,15.380710617589951,27.93781061758995,18.99711061758995C28.00631061758995,19.54511061758995,28.44771061758995,20.00001061758995,29.00001061758995,20.00001061758995" fill-rule="evenodd" fill="#323232" fill-opacity="1"/></g><g><ellipse cx="20.000000715255737" cy="20.000000715255737" rx="2.999999761581421" ry="2.999999761581421" fill="#323232" fill-opacity="1"/></g><g><ellipse cx="11.750000238418579" cy="11.750000238418579" rx="3.75" ry="3.75" fill="#323232" fill-opacity="1"/></g><g><ellipse cx="28.25" cy="28.25" rx="3.75" ry="3.75" fill="#323232" fill-opacity="1"/></g></g></g></svg>