<svg xmlns="http://www.w3.org/2000/svg" xmlns:xlink="http://www.w3.org/1999/xlink" fill="none" version="1.1" width="30" height="30" viewBox="0 0 30 30"><defs><clipPath id="master_svg0_22_0648"><rect x="0" y="0" width="30" height="30" rx="0"/></clipPath></defs><g clip-path="url(#master_svg0_22_0648)"><g><g><path d="M24.99999691772461,24.118782235412596L15.23824691772461,24.212472235412598L23.22933691772461,14.518502235412598L24.99999691772461,24.118782235412596Z" fill-rule="evenodd" fill="#323232" fill-opacity="1"/></g><g><path d="M14.16311387430191,24.3262Q14.38805387430191,24.3262,14.61272387430191,24.3152Q14.83739387430191,24.3041,15.06130387430191,24.2821Q15.28510387430191,24.2601,15.50760387430191,24.227Q15.73010387430191,24.194,15.95070387430191,24.1502Q16.17140387430191,24.1063,16.389603874301912,24.0516Q16.607803874301908,23.997,16.82300387430191,23.9317Q17.03830387430191,23.8664,17.25010387430191,23.7906Q17.46190387430191,23.7148,17.66970387430191,23.6287Q17.877503874301908,23.5426,18.08080387430191,23.4465Q18.28420387430191,23.3503,18.48260387430191,23.2443Q18.681003874301908,23.1382,18.87390387430191,23.0226Q19.06680387430191,22.9069,19.253903874301912,22.782Q19.44090387430191,22.657,19.62160387430191,22.523Q19.80220387430191,22.389,19.976103874301913,22.2463Q20.15000387430191,22.1036,20.31670387430191,21.9525Q20.48340387430191,21.8015,20.642403874301912,21.642400000000002Q20.80150387430191,21.4834,20.95250387430191,21.3167Q21.10360387430191,21.15,21.246303874301912,20.976100000000002Q21.38900387430191,20.8022,21.52300387430191,20.6216Q21.65700387430191,20.4409,21.78200387430191,20.2539Q21.90690387430191,20.0668,22.02260387430191,19.8739Q22.13820387430191,19.680999999999997,22.24430387430191,19.482599999999998Q22.35030387430191,19.2842,22.44650387430191,19.0808Q22.54260387430191,18.877499999999998,22.62870387430191,18.6697Q22.71480387430191,18.4619,22.79060387430191,18.2501Q22.86640387430191,18.0383,22.93170387430191,17.823Q22.99700387430191,17.607799999999997,23.05160387430191,17.3896Q23.10630387430191,17.1714,23.150203874301912,16.950699999999998Q23.19400387430191,16.7301,23.22700387430191,16.5076Q23.26010387430191,16.2851,23.28210387430191,16.0613Q23.30410387430191,15.83739,23.31520387430191,15.61272Q23.32620387430191,15.38805,23.32620387430191,15.16311Q23.32620387430191,14.93817,23.31520387430191,14.7135Q23.30410387430191,14.48883,23.28210387430191,14.26497Q23.26010387430191,14.04111,23.22700387430191,13.8186Q23.19400387430191,13.5961,23.150203874301912,13.37548Q23.10630387430191,13.15486,23.05160387430191,12.93666Q22.99700387430191,12.71846,22.93170387430191,12.5032Q22.86640387430191,12.287939999999999,22.79060387430191,12.07615Q22.71480387430191,11.86436,22.62870387430191,11.65654Q22.54260387430191,11.44872,22.44650387430191,11.24538Q22.35030387430191,11.04203,22.24430387430191,10.84365Q22.13820387430191,10.64527,22.02260387430191,10.45233Q21.90690387430191,10.25939,21.78200387430191,10.07236Q21.65700387430191,9.88533,21.52300387430191,9.70465Q21.38900387430191,9.52398,21.246303874301912,9.3501Q21.10360387430191,9.176210000000001,20.95250387430191,9.00954Q20.80150387430191,8.84287,20.642403874301912,8.68381Q20.48340387430191,8.52476,20.31670387430191,8.37369Q20.15000387430191,8.22263,19.976103874301913,8.079930000000001Q19.80220387430191,7.93723,19.62160387430191,7.80323Q19.44090387430191,7.66923,19.253903874301912,7.5442599999999995Q19.06680387430191,7.41929,18.87390387430191,7.30365Q18.681003874301908,7.18801,18.48260387430191,7.08197Q18.28420387430191,6.975932,18.08080387430191,6.879757Q17.877503874301908,6.783582,17.66970387430191,6.6975Q17.46190387430191,6.611419,17.25010387430191,6.535638Q17.03830387430191,6.459858,16.82300387430191,6.39456Q16.607803874301908,6.329263,16.389603874301912,6.274607Q16.17140387430191,6.219951,15.95070387430191,6.176067Q15.73010387430191,6.132183,15.50760387430191,6.0991768Q15.28510387430191,6.066171,15.06130387430191,6.0441229Q14.83739387430191,6.0220747,14.61272387430191,6.0110374Q14.38805387430191,6,14.16311387430191,6Q13.93817387430191,6,13.71350387430191,6.0110374Q13.48883387430191,6.0220747,13.26497387430191,6.0441229Q13.04111387430191,6.066171,12.81860387430191,6.0991768Q12.59610387430191,6.132183,12.37548387430191,6.176067Q12.15486387430191,6.219951,11.93666387430191,6.274607Q11.71846387430191,6.329263,11.50320387430191,6.39456Q11.28794387430191,6.459858,11.07615387430191,6.535638Q10.86436387430191,6.611419,10.65654387430191,6.6975Q10.44872387430191,6.783582,10.245383874301911,6.879757Q10.04203387430191,6.975932,9.84365387430191,7.08197Q9.64527387430191,7.18801,9.45233387430191,7.30365Q9.25939387430191,7.41929,9.07236387430191,7.5442599999999995Q8.88533387430191,7.66923,8.704653874301911,7.80323Q8.52398387430191,7.93723,8.35010387430191,8.079930000000001Q8.176213874301911,8.22263,8.00954387430191,8.37369Q7.84287387430191,8.52476,7.68381387430191,8.68381Q7.524763874301911,8.84287,7.37369387430191,9.00954Q7.222633874301911,9.176210000000001,7.0799338743019105,9.3501Q6.93723387430191,9.52398,6.8032338743019105,9.70465Q6.66923387430191,9.88533,6.54426387430191,10.07236Q6.419293874301911,10.25939,6.303653874301911,10.45233Q6.188013874301911,10.64527,6.0819738743019105,10.84365Q5.975935874301911,11.04203,5.87976087430191,11.24538Q5.78358587430191,11.44872,5.69750387430191,11.65654Q5.61142287430191,11.86436,5.53564187430191,12.07615Q5.45986187430191,12.287939999999999,5.394563874301911,12.5032Q5.3292668743019105,12.71846,5.27461087430191,12.93666Q5.21995487430191,13.15486,5.17607087430191,13.37548Q5.132186874301911,13.5961,5.099180674301911,13.8186Q5.06617487430191,14.04111,5.04412677430191,14.26497Q5.0220785743019105,14.48883,5.011041274301911,14.7135Q5.00000387430191,14.93817,5.00000387430191,15.16311Q5.00000387430191,15.38805,5.011041274301911,15.61272Q5.0220785743019105,15.83739,5.04412677430191,16.0613Q5.06617487430191,16.2851,5.099180674301911,16.5076Q5.132186874301911,16.7301,5.17607087430191,16.950699999999998Q5.21995487430191,17.1714,5.27461087430191,17.3896Q5.3292668743019105,17.607799999999997,5.394563874301911,17.823Q5.45986187430191,18.0383,5.53564187430191,18.2501Q5.61142287430191,18.4619,5.69750387430191,18.6697Q5.78358587430191,18.877499999999998,5.87976087430191,19.0808Q5.975935874301911,19.2842,6.0819738743019105,19.482599999999998Q6.188013874301911,19.680999999999997,6.303653874301911,19.8739Q6.419293874301911,20.0668,6.54426387430191,20.2539Q6.66923387430191,20.4409,6.8032338743019105,20.6216Q6.93723387430191,20.8022,7.0799338743019105,20.976100000000002Q7.222633874301911,21.15,7.37369387430191,21.3167Q7.524763874301911,21.4834,7.68381387430191,21.642400000000002Q7.84287387430191,21.8015,8.00954387430191,21.9525Q8.176213874301911,22.1036,8.35010387430191,22.2463Q8.52398387430191,22.389,8.704653874301911,22.523Q8.88533387430191,22.657,9.07236387430191,22.782Q9.25939387430191,22.9069,9.45233387430191,23.0226Q9.64527387430191,23.1382,9.84365387430191,23.2443Q10.04203387430191,23.3503,10.245383874301911,23.4465Q10.44872387430191,23.5426,10.65654387430191,23.6287Q10.86436387430191,23.7148,11.07615387430191,23.7906Q11.28794387430191,23.8664,11.50320387430191,23.9317Q11.71846387430191,23.997,11.93666387430191,24.0516Q12.15486387430191,24.1063,12.37548387430191,24.1502Q12.59610387430191,24.194,12.81860387430191,24.227Q13.04111387430191,24.2601,13.26497387430191,24.2821Q13.48883387430191,24.3041,13.71350387430191,24.3152Q13.93817387430191,24.3262,14.16311387430191,24.3262ZM9.210093874301911,16.401400000000002Q9.27092387430191,16.401400000000002,9.33146387430191,16.395400000000002Q9.39200387430191,16.389400000000002,9.45166387430191,16.3776Q9.511333874301911,16.3657,9.56954387430191,16.348Q9.62775387430191,16.330399999999997,9.68395387430191,16.3071Q9.74015387430191,16.2838,9.793803874301911,16.255200000000002Q9.84745387430191,16.2265,9.89803387430191,16.192700000000002Q9.94861387430191,16.1589,9.99563387430191,16.1203Q10.04266387430191,16.081699999999998,10.08567387430191,16.0387Q10.12869387430191,15.99568,10.16728387430191,15.94865Q10.205873874301911,15.90163,10.239663874301911,15.85105Q10.27346387430191,15.80047,10.30214387430191,15.74682Q10.33081387430191,15.69317,10.35409387430191,15.63697Q10.37737387430191,15.58077,10.39503387430191,15.52256Q10.41269387430191,15.46434,10.42456387430191,15.40468Q10.43642387430191,15.34502,10.44239387430191,15.28448Q10.44835387430191,15.22394,10.44835387430191,15.16311Q10.44835387430191,15.10228,10.44239387430191,15.04174Q10.43642387430191,14.9812,10.42456387430191,14.92154Q10.41269387430191,14.86187,10.39503387430191,14.80366Q10.37737387430191,14.74545,10.35409387430191,14.68925Q10.33081387430191,14.63305,10.30214387430191,14.5794Q10.27346387430191,14.52575,10.239663874301911,14.47517Q10.205873874301911,14.42459,10.16728387430191,14.37757Q10.12869387430191,14.33054,10.08567387430191,14.28753Q10.04266387430191,14.24451,9.99563387430191,14.20592Q9.94861387430191,14.16733,9.89803387430191,14.13353Q9.84745387430191,14.09974,9.793803874301911,14.07106Q9.74015387430191,14.04239,9.68395387430191,14.01911Q9.62775387430191,13.99583,9.56954387430191,13.97817Q9.511333874301911,13.96051,9.45166387430191,13.948640000000001Q9.39200387430191,13.936779999999999,9.33146387430191,13.930810000000001Q9.27092387430191,13.92485,9.210093874301911,13.92485Q9.14926387430191,13.92485,9.08872387430191,13.930810000000001Q9.02818387430191,13.936779999999999,8.96852387430191,13.948640000000001Q8.908863874301911,13.96051,8.85064387430191,13.97817Q8.79243387430191,13.99583,8.73623387430191,14.01911Q8.68003387430191,14.04239,8.626383874301911,14.07106Q8.57273387430191,14.09974,8.52215387430191,14.13353Q8.47157387430191,14.16733,8.42455387430191,14.20592Q8.377523874301911,14.24451,8.33451387430191,14.28753Q8.29150387430191,14.33054,8.25290387430191,14.37757Q8.21431387430191,14.42459,8.18052387430191,14.47517Q8.14672387430191,14.52575,8.118043874301911,14.5794Q8.089373874301911,14.63305,8.06609387430191,14.68925Q8.04281387430191,14.74545,8.02515387430191,14.80366Q8.007493874301911,14.86187,7.995623874301911,14.92154Q7.983763874301911,14.9812,7.977793874301911,15.04174Q7.971833874301911,15.10228,7.971833874301911,15.16311Q7.971833874301911,15.22394,7.977793874301911,15.28448Q7.983763874301911,15.34502,7.995623874301911,15.40468Q8.007493874301911,15.46434,8.02515387430191,15.52256Q8.04281387430191,15.58077,8.06609387430191,15.63697Q8.089373874301911,15.69317,8.118043874301911,15.74682Q8.14672387430191,15.80047,8.18052387430191,15.85105Q8.21431387430191,15.90163,8.25290387430191,15.94865Q8.29150387430191,15.99568,8.33451387430191,16.0387Q8.377523874301911,16.081699999999998,8.42455387430191,16.1203Q8.47157387430191,16.1589,8.52215387430191,16.192700000000002Q8.57273387430191,16.2265,8.626383874301911,16.255200000000002Q8.68003387430191,16.2838,8.73623387430191,16.3071Q8.79243387430191,16.330399999999997,8.85064387430191,16.348Q8.908863874301911,16.3657,8.96852387430191,16.3776Q9.02818387430191,16.389400000000002,9.08872387430191,16.395400000000002Q9.14926387430191,16.401400000000002,9.210093874301911,16.401400000000002ZM15.401403874301911,15.16311Q15.401403874301911,15.22394,15.39540387430191,15.28448Q15.38950387430191,15.34502,15.37760387430191,15.40468Q15.36570387430191,15.46434,15.348103874301911,15.52256Q15.33040387430191,15.58077,15.30710387430191,15.63697Q15.28380387430191,15.69317,15.25520387430191,15.74682Q15.22650387430191,15.80047,15.19270387430191,15.85105Q15.15890387430191,15.90163,15.12030387430191,15.94865Q15.08170387430191,15.99568,15.03870387430191,16.0387Q14.99569387430191,16.081699999999998,14.94867387430191,16.1203Q14.90164387430191,16.1589,14.85106387430191,16.192700000000002Q14.80048387430191,16.2265,14.74683387430191,16.255200000000002Q14.69319387430191,16.2838,14.63698387430191,16.3071Q14.580783874301911,16.330399999999997,14.52257387430191,16.348Q14.46436387430191,16.3657,14.40469387430191,16.3776Q14.34503387430191,16.389400000000002,14.28449387430191,16.395400000000002Q14.22396387430191,16.401400000000002,14.16312387430191,16.401400000000002Q14.10229387430191,16.401400000000002,14.04175387430191,16.395400000000002Q13.981213874301911,16.389400000000002,13.92155387430191,16.3776Q13.861893874301911,16.3657,13.80368387430191,16.348Q13.74546387430191,16.330399999999997,13.689263874301911,16.3071Q13.63306387430191,16.2838,13.57941387430191,16.255200000000002Q13.52576387430191,16.2265,13.47518387430191,16.192700000000002Q13.42460387430191,16.1589,13.37758387430191,16.1203Q13.33056387430191,16.081699999999998,13.28754387430191,16.0387Q13.24453387430191,15.99568,13.20594387430191,15.94865Q13.167353874301911,15.90163,13.13355387430191,15.85105Q13.09975387430191,15.80047,13.07108387430191,15.74682Q13.042403874301911,15.69317,13.01912387430191,15.63697Q12.995843874301912,15.58077,12.97818387430191,15.52256Q12.96053387430191,15.46434,12.94866387430191,15.40468Q12.93679387430191,15.34502,12.93083387430191,15.28448Q12.92487387430191,15.22394,12.92487387430191,15.16311Q12.92487387430191,15.10228,12.93083387430191,15.04174Q12.93679387430191,14.9812,12.94866387430191,14.92154Q12.96053387430191,14.86187,12.97818387430191,14.80366Q12.995843874301912,14.74545,13.01912387430191,14.68925Q13.042403874301911,14.63305,13.07108387430191,14.5794Q13.09975387430191,14.52575,13.13355387430191,14.47517Q13.167353874301911,14.42459,13.20594387430191,14.37757Q13.24453387430191,14.33054,13.28754387430191,14.28753Q13.33056387430191,14.24451,13.37758387430191,14.20592Q13.42460387430191,14.16733,13.47518387430191,14.13353Q13.52576387430191,14.09974,13.57941387430191,14.07106Q13.63306387430191,14.04239,13.689263874301911,14.01911Q13.74546387430191,13.99583,13.80368387430191,13.97817Q13.861893874301911,13.96051,13.92155387430191,13.948640000000001Q13.981213874301911,13.936779999999999,14.04175387430191,13.930810000000001Q14.10229387430191,13.92485,14.16312387430191,13.92485Q14.22396387430191,13.92485,14.28449387430191,13.930810000000001Q14.34503387430191,13.936779999999999,14.40469387430191,13.948640000000001Q14.46436387430191,13.96051,14.52257387430191,13.97817Q14.580783874301911,13.99583,14.63698387430191,14.01911Q14.69319387430191,14.04239,14.74683387430191,14.07106Q14.80048387430191,14.09974,14.85106387430191,14.13353Q14.90164387430191,14.16733,14.94867387430191,14.20592Q14.99569387430191,14.24451,15.03870387430191,14.28753Q15.08170387430191,14.33054,15.12030387430191,14.37757Q15.15890387430191,14.42459,15.19270387430191,14.47517Q15.22650387430191,14.52575,15.25520387430191,14.5794Q15.28380387430191,14.63305,15.30710387430191,14.68925Q15.33040387430191,14.74545,15.348103874301911,14.80366Q15.36570387430191,14.86187,15.37760387430191,14.92154Q15.38950387430191,14.9812,15.39540387430191,15.04174Q15.401403874301911,15.10228,15.401403874301911,15.16311ZM19.11620387430191,16.401400000000002Q19.17700387430191,16.401400000000002,19.23750387430191,16.395400000000002Q19.29810387430191,16.389400000000002,19.35770387430191,16.3776Q19.41740387430191,16.3657,19.47560387430191,16.348Q19.53380387430191,16.330399999999997,19.59000387430191,16.3071Q19.64620387430191,16.2838,19.69990387430191,16.255200000000002Q19.753503874301913,16.2265,19.80410387430191,16.192700000000002Q19.85470387430191,16.1589,19.90170387430191,16.1203Q19.948703874301913,16.081699999999998,19.991703874301912,16.0387Q20.03480387430191,15.99568,20.07330387430191,15.94865Q20.11190387430191,15.90163,20.14570387430191,15.85105Q20.17950387430191,15.80047,20.20820387430191,15.74682Q20.23690387430191,15.69317,20.260203874301908,15.63697Q20.28340387430191,15.58077,20.30110387430191,15.52256Q20.31880387430191,15.46434,20.33060387430191,15.40468Q20.34250387430191,15.34502,20.34850387430191,15.28448Q20.35440387430191,15.22394,20.35440387430191,15.16311Q20.35440387430191,15.10228,20.34850387430191,15.04174Q20.34250387430191,14.9812,20.33060387430191,14.92154Q20.31880387430191,14.86187,20.30110387430191,14.80366Q20.28340387430191,14.74545,20.260203874301908,14.68925Q20.23690387430191,14.63305,20.20820387430191,14.5794Q20.17950387430191,14.52575,20.14570387430191,14.47517Q20.11190387430191,14.42459,20.07330387430191,14.37757Q20.03480387430191,14.33054,19.991703874301912,14.28753Q19.948703874301913,14.24451,19.90170387430191,14.20592Q19.85470387430191,14.16733,19.80410387430191,14.13353Q19.753503874301913,14.09974,19.69990387430191,14.07106Q19.64620387430191,14.04239,19.59000387430191,14.01911Q19.53380387430191,13.99583,19.47560387430191,13.97817Q19.41740387430191,13.96051,19.35770387430191,13.948640000000001Q19.29810387430191,13.936779999999999,19.23750387430191,13.930810000000001Q19.17700387430191,13.92485,19.11620387430191,13.92485Q19.055303874301913,13.92485,18.99480387430191,13.930810000000001Q18.93420387430191,13.936779999999999,18.87460387430191,13.948640000000001Q18.814903874301912,13.96051,18.756703874301913,13.97817Q18.69850387430191,13.99583,18.64230387430191,14.01911Q18.586103874301912,14.04239,18.532403874301913,14.07106Q18.47880387430191,14.09974,18.42820387430191,14.13353Q18.37760387430191,14.16733,18.33060387430191,14.20592Q18.28360387430191,14.24451,18.24060387430191,14.28753Q18.19760387430191,14.33054,18.15900387430191,14.37757Q18.12040387430191,14.42459,18.08660387430191,14.47517Q18.052803874301908,14.52575,18.02410387430191,14.5794Q17.99540387430191,14.63305,17.97220387430191,14.68925Q17.948903874301912,14.74545,17.93120387430191,14.80366Q17.913603874301913,14.86187,17.90170387430191,14.92154Q17.88980387430191,14.9812,17.88390387430191,15.04174Q17.87790387430191,15.10228,17.87790387430191,15.16311Q17.87790387430191,15.22394,17.88390387430191,15.28448Q17.88980387430191,15.34502,17.90170387430191,15.40468Q17.913603874301913,15.46434,17.93120387430191,15.52256Q17.948903874301912,15.58077,17.97220387430191,15.63697Q17.99540387430191,15.69317,18.02410387430191,15.74682Q18.052803874301908,15.80047,18.08660387430191,15.85105Q18.12040387430191,15.90163,18.15900387430191,15.94865Q18.19760387430191,15.99568,18.24060387430191,16.0387Q18.28360387430191,16.081699999999998,18.33060387430191,16.1203Q18.37760387430191,16.1589,18.42820387430191,16.192700000000002Q18.47880387430191,16.2265,18.532403874301913,16.255200000000002Q18.586103874301912,16.2838,18.64230387430191,16.3071Q18.69850387430191,16.330399999999997,18.756703874301913,16.348Q18.814903874301912,16.3657,18.87460387430191,16.3776Q18.93420387430191,16.389400000000002,18.99480387430191,16.395400000000002Q19.055303874301913,16.401400000000002,19.11620387430191,16.401400000000002Z" fill-rule="evenodd" fill="#323232" fill-opacity="1"/></g></g></g></svg>