<svg xmlns="http://www.w3.org/2000/svg" xmlns:xlink="http://www.w3.org/1999/xlink" fill="none" version="1.1" width="693.2236328125" height="693.2235717773438" viewBox="0 0 693.2236328125 693.2235717773438"><g transform="matrix(0.7071067690849304,-0.7071067690849304,0.7071067690849304,0.7071067690849304,-245.1831005329841,101.55817143967215)"><g><path d="M245.3662109375,766.7412719726562L245.3662109375,836.7412719726562Q239.3522109375,836.7412719726562,233.3442109375,836.4462719726562Q227.3372109375,836.1512719726563,221.3522109375,835.5612719726562Q215.3662109375,834.9722719726562,209.4172109375,834.0892719726562Q203.4682109375,833.2072719726563,197.5692109375,832.0332719726562Q191.6702109375,830.8602719726563,185.8362109375,829.3992719726563Q180.0022109375,827.9372719726563,174.2462109375,826.1912719726563Q168.4912109375,824.4452719726562,162.8282109375,822.4192719726562Q157.1652109375,820.3932719726563,151.6092109375,818.0912719726563Q146.0522109375,815.7902719726562,140.6152109375,813.2182719726562Q135.1782109375,810.6472719726562,129.8742109375,807.8122719726563Q124.5702109375,804.9762719726563,119.4112109375,801.8842719726563Q114.2522109375,798.7922719726562,109.2512109375,795.4512719726563Q104.2502109375,792.1102719726563,99.4199109375,788.5272719726563Q94.5891109375,784.9442719726562,89.9399109375,781.1292719726562Q85.2907109375,777.3132719726563,80.8343109375,773.2742719726563Q76.3779109375,769.2352719726563,72.1250109375,764.9822719726562Q67.8722109375,760.7292719726563,63.8332109375,756.2732719726562Q59.7941109375,751.8172719726563,55.9786109375,747.1672719726562Q52.1631109375,742.5182719726563,48.5803109375,737.6872719726563Q44.9976109375,732.8562719726563,41.6561109375,727.8562719726563Q38.3147109375,722.8552719726563,35.2227109375,717.6962719726562Q32.1307109375,712.5372719726563,29.2955109375,707.2332719726562Q26.4603109375,701.9292719726562,23.8888109375,696.4922719726562Q21.3173109375,691.0552719726563,19.0157109375,685.4982719726563Q16.7141109375,679.9422719726563,14.6879109375,674.2792719726563Q12.6617109375,668.6162719726562,10.9158109375,662.8612719726563Q9.1699309375,657.1052719726563,7.7085509375,651.2712719726562Q6.2471709375,645.4372719726563,5.0738209375,639.5382719726563Q3.9004609375,633.6392719726563,3.0179609375,627.6902719726563Q2.1354709375,621.7412719726562,1.5459509375,615.7552719726563Q0.9564369375,609.7702719726562,0.6613239375,603.7632719726562Q0.3662109375,597.7552719726563,0.3662109375,591.7412719726562L70.3662109375,591.7412719726562Q70.3662109375,596.0372719726563,70.5770109375,600.3282719726562Q70.7878109375,604.6192719726562,71.2089109375,608.8942719726563Q71.6300109375,613.1692719726562,72.2603109375,617.4192719726562Q72.8907109375,621.6682719726563,73.7288109375,625.8822719726563Q74.5669109375,630.0952719726563,75.6107109375,634.2622719726562Q76.6546109375,638.4302719726563,77.9016109375,642.5412719726562Q79.1487109375,646.6522719726563,80.5960109375,650.6972719726563Q82.0433109375,654.7422719726562,83.6873109375,658.7112719726563Q85.3313109375,662.6802719726563,87.1681109375,666.5632719726563Q89.0048109375,670.4472719726563,91.0300109375,674.2352719726563Q93.0551109375,678.0242719726563,95.2637109375,681.7092719726563Q97.4723109375,685.3942719726563,99.8590109375,688.9662719726563Q102.2462109375,692.5382719726563,104.8052109375,695.9882719726563Q107.3642109375,699.4392719726562,110.0892109375,702.7602719726563Q112.8152109375,706.0812719726562,115.7002109375,709.2642719726563Q118.5852109375,712.4472719726563,121.6222109375,715.4852719726563Q124.6602109375,718.5222719726562,127.8432109375,721.4072719726562Q131.0262109375,724.2922719726562,134.3472109375,727.0182719726563Q137.6682109375,729.7432719726562,141.1192109375,732.3022719726562Q144.5692109375,734.8612719726563,148.1412109375,737.2482719726563Q151.7132109375,739.6352719726563,155.3982109375,741.8432719726562Q159.0832109375,744.0522719726562,162.8722109375,746.0772719726563Q166.6602109375,748.1022719726562,170.5442109375,749.9392719726562Q174.4272109375,751.7762719726563,178.3962109375,753.4202719726562Q182.3652109375,755.0642719726562,186.4102109375,756.5112719726562Q190.4552109375,757.9582719726562,194.5662109375,759.2062719726562Q198.6772109375,760.4532719726562,202.8442109375,761.4962719726562Q207.0122109375,762.5402719726562,211.2252109375,763.3782719726562Q215.4392109375,764.2172719726562,219.6882109375,764.8472719726562Q223.9382109375,765.4772719726562,228.2132109375,765.8982719726562Q232.4882109375,766.3192719726562,236.7792109375,766.5302719726562Q241.0702109375,766.7412719726562,245.3662109375,766.7412719726562ZM420.3662109375,591.7412719726562L490.3662109375,591.7412719726562Q490.3662109375,585.7272719726562,490.0712109375,579.7192719726563Q489.7762109375,573.7122719726563,489.1862109375,567.7272719726562Q488.5972109375,561.7412719726562,487.7142109375,555.7922719726562Q486.8322109375,549.8432719726562,485.6582109375,543.9442719726562Q484.4852109375,538.0452719726562,483.0242109375,532.2112719726563Q481.5622109375,526.3772719726562,479.8162109375,520.6212719726562Q478.0702109375,514.8662719726562,476.0442109375,509.20327197265624Q474.0182109375,503.5402719726562,471.7162109375,497.98427197265624Q469.4152109375,492.4272719726563,466.8432109375,486.9902719726563Q464.2722109375,481.55327197265626,461.4372109375,476.2492719726563Q458.6012109375,470.94527197265626,455.5092109375,465.78627197265627Q452.4172109375,460.6272719726562,449.0762109375,455.62627197265624Q445.7352109375,450.62527197265626,442.1522109375,445.79497197265624Q438.5692109375,440.96417197265623,434.7542109375,436.3149719726563Q430.9382109375,431.6657719726562,426.8992109375,427.20937197265624Q422.8602109375,422.75297197265627,418.6072109375,418.50007197265626Q414.3542109375,414.2472719726562,409.8982109375,410.20827197265623Q405.4422109375,406.1691719726563,400.7922109375,402.35367197265623Q396.1432109375,398.53817197265624,391.3122109375,394.9553719726563Q386.4812109375,391.37267197265624,381.4812109375,388.03117197265624Q376.4802109375,384.6897719726563,371.3212109375,381.59777197265623Q366.1622109375,378.50577197265625,360.8582109375,375.67057197265626Q355.5542109375,372.8353719726563,350.1172109375,370.26387197265626Q344.6802109375,367.69237197265625,339.1232109375,365.39077197265624Q333.5672109375,363.08917197265623,327.9042109375,361.06297197265627Q322.2412109375,359.03677197265625,316.4862109375,357.29087197265625Q310.7302109375,355.54499197265625,304.8962109375,354.08361197265623Q299.0622109375,352.62223197265627,293.1632109375,351.44888197265624Q287.2642109375,350.27552197265624,281.3152109375,349.39302197265624Q275.3662109375,348.5105319726562,269.3802109375,347.92101197265623Q263.3952109375,347.3314979726562,257.3882109375,347.03638497265626Q251.3802109375,346.74127197265625,245.3662109375,346.74127197265625L245.3662109375,416.74127197265625Q249.6622109375,416.74127197265625,253.9532109375,416.95207197265626Q258.2442109375,417.16287197265626,262.5192109375,417.58397197265623Q266.7942109375,418.00507197265625,271.0442109375,418.63537197265623Q275.2932109375,419.26577197265624,279.5072109375,420.10387197265624Q283.7202109375,420.94197197265623,287.8872109375,421.98577197265627Q292.0552109375,423.0296719726563,296.1662109375,424.27667197265623Q300.2772109375,425.5237719726563,304.3222109375,426.97107197265626Q308.3672109375,428.41837197265625,312.3362109375,430.06237197265625Q316.3052109375,431.70637197265626,320.1882109375,433.54317197265624Q324.0722109375,435.37987197265625,327.8602109375,437.40507197265623Q331.6492109375,439.43017197265624,335.3342109375,441.63877197265623Q339.0192109375,443.8473719726562,342.5912109375,446.23407197265624Q346.1632109375,448.62127197265625,349.6132109375,451.1802719726562Q353.0642109375,453.73927197265624,356.3852109375,456.46427197265626Q359.7062109375,459.19027197265626,362.8892109375,462.07527197265625Q366.0722109375,464.96027197265624,369.1102109375,467.9972719726562Q372.1472109375,471.03527197265623,375.0322109375,474.2182719726562Q377.9172109375,477.4012719726562,380.6432109375,480.72227197265624Q383.3682109375,484.04327197265627,385.9272109375,487.49427197265624Q388.4862109375,490.9442719726562,390.8732109375,494.5162719726562Q393.2602109375,498.08827197265623,395.4682109375,501.7732719726563Q397.6772109375,505.45827197265623,399.7022109375,509.2472719726562Q401.7272109375,513.0352719726562,403.5642109375,516.9192719726562Q405.4012109375,520.8022719726563,407.0452109375,524.7712719726562Q408.6892109375,528.7402719726563,410.1362109375,532.7852719726562Q411.5832109375,536.8302719726562,412.8312109375,540.9412719726563Q414.0782109375,545.0522719726563,415.1212109375,549.2192719726563Q416.1652109375,553.3872719726562,417.0032109375,557.6002719726563Q417.8422109375,561.8142719726562,418.4722109375,566.0632719726563Q419.1022109375,570.3132719726563,419.5232109375,574.5882719726562Q419.9442109375,578.8632719726563,420.1552109375,583.1542719726563Q420.3662109375,587.4452719726562,420.3662109375,591.7412719726562Z" fill-rule="evenodd" fill="#323232" fill-opacity="1"/></g><g><path d="M250.83984375,695.7141723632812Q253.29484374999998,695.7141723632812,255.74684374999998,695.5941723632812Q258.19884375,695.4741723632812,260.64184375,695.2331723632813Q263.08484375,694.9921723632813,265.51284375,694.6321723632813Q267.94084375,694.2721723632812,270.34884375,693.7931723632812Q272.75684375000003,693.3141723632813,275.13784375,692.7181723632813Q277.51884375,692.1211723632813,279.86884375,691.4091723632812Q282.21784375,690.6961723632812,284.52884374999996,689.8691723632812Q286.83984375,689.0421723632812,289.10784375000003,688.1021723632813Q291.37584375,687.1631723632813,293.59584375,686.1131723632813Q295.81484375,685.0641723632813,297.97984375,683.9071723632812Q300.14484375,682.7491723632812,302.24984374999997,681.4871723632813Q304.35584374999996,680.2251723632812,306.39684375,678.8611723632812Q308.43784375,677.4981723632812,310.40984375,676.0351723632813Q312.38184375000003,674.5731723632813,314.27884374999996,673.0161723632813Q316.17684375,671.4581723632813,317.99584375,669.8101723632813Q319.81484375,668.1611723632813,321.55084375,666.4251723632813Q323.28684375,664.6891723632813,324.93484375,662.8701723632812Q326.58384375,661.0511723632812,328.14084375,659.1541723632813Q329.69784375,657.2561723632813,331.16084375,655.2841723632812Q332.62284375,653.3131723632812,333.98684375,651.2711723632813Q335.35084374999997,649.2301723632812,336.61284375,647.1251723632813Q337.87484374999997,645.0191723632813,339.03184375,642.8541723632812Q340.18884375,640.6891723632813,341.23884375,638.4701723632812Q342.28884375,636.2511723632813,343.22784375000003,633.9831723632813Q344.16684375,631.7151723632812,344.99384375,629.4031723632812Q345.82184374999997,627.0921723632812,346.53384374999996,624.7431723632812Q347.24684375000004,622.3941723632813,347.84284375,620.0121723632813Q348.43984375,617.6311723632813,348.91884375,615.2241723632812Q349.39784375,612.8161723632812,349.75784375,610.3881723632812Q350.11784375,607.9591723632813,350.35884375,605.5161723632813Q350.59884375,603.0731723632813,350.71984375,600.6211723632813Q350.83984375,598.1691723632813,350.83984375,595.7141723632812Q350.83984375,593.2597723632813,350.71984375,590.8078723632813Q350.59884375,588.3559723632812,350.35884375,585.9129723632813Q350.11784375,583.4698723632813,349.75784375,581.0415723632813Q349.39784375,578.6132723632812,348.91884375,576.2055723632812Q348.43984375,573.7979723632812,347.84284375,571.4166723632812Q347.24684375000004,569.0353723632812,346.53384374999996,566.6861723632812Q345.82184374999997,564.3370723632812,344.99384375,562.0256723632813Q344.16684375,559.7142723632812,343.22784375000003,557.4462723632812Q342.28884375,555.1782723632813,341.23884375,552.9591723632813Q340.18884375,550.7399723632813,339.03184375,548.5749723632813Q337.87484374999997,546.4099723632812,336.61284375,544.3043723632812Q335.35084374999997,542.1987723632813,333.98684375,540.1576723632812Q332.62284375,538.1164723632812,331.16084375,536.1446723632813Q329.69784375,534.1729723632812,328.14084375,532.2753723632812Q326.58384375,530.3776723632812,324.93484375,528.5587723632813Q323.28684375,526.7398723632813,321.55084375,525.0039723632813Q319.81484375,523.2681723632812,317.99584375,521.6195723632812Q316.17684375,519.9709723632812,314.27884374999996,518.4135723632812Q312.38184375000003,516.8562723632813,310.40984375,515.3938723632813Q308.43784375,513.9315723632812,306.39684375,512.5676723632813Q304.35584374999996,511.2038723632812,302.24984374999997,509.94177236328125Q300.14484375,508.67977236328124,297.97984375,507.52257236328126Q295.81484375,506.36527236328124,293.59584375,505.31573236328126Q291.37584375,504.26614236328123,289.10784375000003,503.32670236328124Q286.83984375,502.3872723632812,284.52884374999996,501.5602523632812Q282.21784375,500.7332323632813,279.86884375,500.02062236328123Q277.51884375,499.3080223632812,275.13784375,498.71153236328126Q272.75684375000003,498.1150523632812,270.34884375,497.63613236328126Q267.94084375,497.15721236328125,265.51284375,496.7970123632812Q263.08484375,496.4368063632813,260.64184375,496.19618836328124Q258.19884375,495.95556936328126,255.74684374999998,495.83511536328126Q253.29484374999998,495.71466064428125,250.83984375,495.71466064428125Q248.38504375,495.71466064428125,245.93314375,495.83511536328126Q243.48124375,495.95556936328126,241.03824375,496.19618836328124Q238.59514375,496.4368063632813,236.16684375,496.7970123632812Q233.73864375,497.15721236328125,231.33094375000002,497.63613236328126Q228.92324374999998,498.1150523632812,226.54194375,498.71153236328126Q224.16064375000002,499.3080223632812,221.81144375,500.02062236328123Q219.46234375,500.7332323632813,217.15094375,501.5602523632812Q214.83964375,502.3872723632812,212.57164375,503.32670236328124Q210.30364375,504.26614236328123,208.08444375,505.31573236328126Q205.86524375,506.36527236328124,203.70024375,507.52257236328126Q201.53524375,508.67977236328124,199.42964375,509.94177236328125Q197.32404375,511.2038723632812,195.28294375000002,512.5676723632813Q193.24174375,513.9315723632812,191.27004375,515.3938723632813Q189.29824374999998,516.8562723632813,187.40064375,518.4135723632812Q185.50304375000002,519.9709723632812,183.68404375,521.6195723632812Q181.86514375000002,523.2681723632812,180.12924375,525.0039723632813Q178.39344375,526.7398723632813,176.74484375,528.5587723632813Q175.09624374999999,530.3776723632812,173.53894375,532.2753723632812Q171.98154375000001,534.1729723632812,170.51924375,536.1447723632813Q169.05684374999998,538.1164723632812,167.69304375000002,540.1576723632812Q166.32914375000001,542.1987723632813,165.06714375,544.3043723632812Q163.80504375,546.4099723632812,162.64784375,548.5749723632813Q161.49064375,550.7399723632813,160.44103375,552.9591723632813Q159.39144375,555.1782723632813,158.45201375,557.4462723632812Q157.51257375,559.7142723632812,156.68555375,562.0256723632813Q155.85854375,564.3370723632812,155.14593375,566.6861723632812Q154.43332375,569.0353723632812,153.83684375,571.4166723632812Q153.24035375,573.7979723632812,152.76143375,576.2055723632812Q152.28251375,578.6132723632812,151.92231375,581.0415723632813Q151.56211175,583.4698723632813,151.32149275,585.9129723632813Q151.08087475,588.3559723632812,150.96041975,590.8078723632813Q150.83996582,593.2597723632813,150.83996582,595.7141723632812Q150.83996582,598.1691723632813,150.96041975,600.6211723632813Q151.08087475,603.0731723632813,151.32149275,605.5161723632813Q151.56211175,607.9591723632813,151.92231375,610.3881723632812Q152.28251375,612.8161723632812,152.76143375,615.2241723632812Q153.24035375,617.6311723632813,153.83684375,620.0121723632813Q154.43332375,622.3941723632813,155.14593375,624.7431723632812Q155.85854375,627.0921723632812,156.68555375,629.4031723632812Q157.51257375,631.7151723632812,158.45201375,633.9831723632813Q159.39144375,636.2511723632813,160.44103375,638.4701723632812Q161.49064375,640.6891723632813,162.64784375,642.8541723632812Q163.80504375,645.0191723632813,165.06714375,647.1251723632813Q166.32914375000001,649.2301723632812,167.69304375000002,651.2711723632813Q169.05684374999998,653.3131723632812,170.51924375,655.2841723632812Q171.98154375000001,657.2561723632813,173.53894375,659.1541723632813Q175.09624374999999,661.0511723632812,176.74484375,662.8701723632812Q178.39344375,664.6891723632813,180.12924375,666.4251723632813Q181.86514375000002,668.1611723632813,183.68404375,669.8101723632813Q185.50304375000002,671.4581723632813,187.40064375,673.0161723632813Q189.29824374999998,674.5731723632813,191.27004375,676.0351723632813Q193.24174375,677.4981723632812,195.28294375000002,678.8611723632812Q197.32404375,680.2251723632812,199.42964375,681.4871723632813Q201.53524375,682.7491723632812,203.70024375,683.9071723632812Q205.86524375,685.0641723632813,208.08444375,686.1131723632813Q210.30364375,687.1631723632813,212.57164375,688.1021723632813Q214.83964375,689.0421723632812,217.15094375,689.8691723632812Q219.46234375,690.6961723632812,221.81144375,691.4091723632812Q224.16064375000002,692.1211723632813,226.54194375,692.7181723632813Q228.92324374999998,693.3141723632813,231.33094375000002,693.7931723632812Q233.73864375,694.2721723632812,236.16694375,694.6321723632813Q238.59514375,694.9921723632813,241.03824375,695.2331723632813Q243.48124375,695.4741723632812,245.93314375,695.5941723632812Q248.38504375,695.7141723632812,250.83984375,695.7141723632812ZM296.09484375,616.3791723632812Q296.70884375,616.3791723632812,297.32184374999997,616.3481723632813Q297.93484375,616.3181723632813,298.54484375000004,616.2581723632812Q299.15584375000003,616.1981723632813,299.76284375,616.1081723632813Q300.36984375,616.0181723632812,300.97184375,615.8981723632812Q301.57384375000004,615.7781723632812,302.16884375,615.6291723632812Q302.76484375,615.4801723632812,303.35184375,615.3021723632812Q303.93884375,615.1241723632812,304.51684375,614.9171723632812Q305.09484375,614.7101723632812,305.66184375,614.4761723632812Q306.22884375,614.2411723632813,306.78384374999996,613.9781723632813Q307.33884375,613.7161723632812,307.87984374999996,613.4271723632812Q308.42084375,613.1371723632813,308.94684374999997,612.8221723632812Q309.47384375,612.5061723632813,309.98384375,612.1651723632813Q310.49384375,611.8241723632813,310.98684375,611.4591723632813Q311.47984375,611.0931723632813,311.95484375,610.7041723632813Q312.42884375,610.3141723632813,312.88384375,609.9021723632812Q313.33884375,609.4901723632812,313.77284375,609.0561723632812Q314.20684374999996,608.6221723632813,314.61884375,608.1681723632812Q315.03084375000003,607.7131723632813,315.41984375000004,607.2381723632813Q315.80984375,606.7641723632812,316.17484375000004,606.2711723632813Q316.54084375,605.7781723632812,316.88184375000003,605.2681723632812Q317.22284375000004,604.7581723632812,317.53784375,604.2311723632813Q317.85384375,603.7051723632812,318.14284375,603.1631723632812Q318.43184375,602.6221723632813,318.69484375,602.0671723632812Q318.95684374999996,601.5131723632812,319.19184375,600.9461723632812Q319.42684375,600.3791723632812,319.63384375,599.8011723632812Q319.83984375,599.2231723632813,320.01784375,598.6361723632813Q320.19684374999997,598.0481723632813,320.34584375,597.4531723632813Q320.49484375,596.8581723632813,320.61484375,596.2561723632813Q320.73384375,595.6540723632812,320.82384375000004,595.0469723632813Q320.91384375,594.4398723632812,320.97484375,593.8291723632813Q321.03484375,593.2183723632812,321.06484375,592.6053723632813Q321.09484375,591.9924723632812,321.09484375,591.3787723632812Q321.09484375,590.7649723632812,321.06484375,590.1520723632813Q321.03484375,589.5390723632812,320.97484375,588.9282723632813Q320.91384375,588.3175723632812,320.82384375000004,587.7104723632813Q320.73384375,587.1033723632812,320.61484375,586.5014723632812Q320.49484375,585.8995723632812,320.34584375,585.3041723632813Q320.19684374999997,584.7088723632812,320.01784375,584.1215723632813Q319.83984375,583.5342723632813,319.63384375,582.9564723632813Q319.42684375,582.3786723632812,319.19184375,581.8116723632812Q318.95684374999996,581.2446723632812,318.69484375,580.6898723632812Q318.43184375,580.1350723632812,318.14284375,579.5937723632812Q317.85384375,579.0525723632812,317.53784375,578.5261723632813Q317.22284375000004,577.9997723632813,316.88184375000003,577.4894723632813Q316.54084375,576.9791723632812,316.17484375000004,576.4862723632813Q315.80984375,575.9932723632812,315.41984375000004,575.5188723632813Q315.03084375000003,575.0444723632812,314.61884375,574.5897723632812Q314.20684374999996,574.1349723632812,313.77284375,573.7010723632812Q313.33884375,573.2670723632813,312.88384375,572.8549723632813Q312.42884375,572.4427723632813,311.95484375,572.0534723632812Q311.47984375,571.6640723632812,310.98684375,571.2984723632812Q310.49384375,570.9329723632812,309.98384375,570.5919723632812Q309.47384375,570.2509723632812,308.94684374999997,569.9354723632813Q308.42084375,569.6199723632812,307.87984374999996,569.3306723632812Q307.33884375,569.0413723632812,306.78384374999996,568.7789723632812Q306.22884375,568.5165723632813,305.66184375,568.2817723632812Q305.09484375,568.0468723632813,304.51684375,567.8400723632813Q303.93884375,567.6333723632813,303.35184375,567.4551723632812Q302.76484375,567.2770723632813,302.16884375,567.1279723632813Q301.57384375000004,566.9787723632812,300.97184375,566.8590723632813Q300.36984375,566.7393723632813,299.76284375,566.6492723632813Q299.15584375000003,566.5592723632813,298.54484375000004,566.4990723632812Q297.93484375,566.4389723632812,297.32184374999997,566.4088723632813Q296.70884375,566.3787723632812,296.09484375,566.3787723632812Q295.48084374999996,566.3787723632812,294.86784375,566.4088723632813Q294.25484374999996,566.4389723632812,293.64484375,566.4990723632812Q293.03384374999996,566.5592723632813,292.42684375,566.6492723632813Q291.81984375,566.7393723632813,291.21784375,566.8590723632813Q290.61584375,566.9787723632812,290.01984375,567.1279723632813Q289.42484375000004,567.2770723632813,288.83784375,567.4551723632812Q288.25084375,567.6333723632813,287.67284374999997,567.8400723632813Q287.09484375,568.0468723632813,286.52784375,568.2817723632812Q285.96084375,568.5165723632813,285.40584375000003,568.7789723632812Q284.85084374999997,569.0413723632812,284.30984375,569.3306723632812Q283.76884375,569.6199723632812,283.24184375,569.9354723632813Q282.71584375,570.2509723632812,282.20584375,570.5919723632812Q281.69484375,570.9329723632812,281.20184374999997,571.2985723632812Q280.70984375,571.6640723632812,280.23484375,572.0534723632812Q279.76084375,572.4427723632813,279.30584375,572.8549723632813Q278.85084374999997,573.2670723632813,278.41684375,573.7010723632812Q277.98284375000003,574.1349723632812,277.57084375,574.5897723632812Q277.15884375,575.0444723632812,276.76984375,575.5188723632813Q276.37984375,575.9932723632812,276.01484375,576.4862723632813Q275.64884374999997,576.9791723632812,275.30784375,577.4894723632813Q274.96684375,577.9997723632813,274.65184375,578.5261723632813Q274.33584375,579.0525723632812,274.04684375,579.5937723632812Q273.75784375,580.1350723632812,273.49484375,580.6898723632812Q273.23284375000003,581.2446723632812,272.99784375,581.8116723632812Q272.76284375,582.3786723632812,272.55584375,582.9564723632813Q272.34984375,583.5342723632813,272.17084375,584.1215723632813Q271.99284375,584.7088723632812,271.84384375,585.3041723632813Q271.69484375,585.8995723632812,271.57484375,586.5014723632812Q271.45584375,587.1033723632812,271.36584375,587.7104723632813Q271.27484375,588.3175723632812,271.21484375,588.9282723632813Q271.15484375,589.5390723632812,271.12484374999997,590.1520723632813Q271.09484375,590.7649723632812,271.09484375,591.3787723632812Q271.09484375,591.9924723632812,271.12484374999997,592.6053723632813Q271.15484375,593.2183723632812,271.21484375,593.8291723632813Q271.27484375,594.4398723632812,271.36584375,595.0469723632813Q271.45584375,595.6540723632812,271.57484375,596.2561723632813Q271.69484375,596.8581723632813,271.84384375,597.4531723632813Q271.99284375,598.0481723632813,272.17084375,598.6361723632813Q272.34984375,599.2231723632813,272.55584375,599.8011723632812Q272.76284375,600.3791723632812,272.99784375,600.9461723632812Q273.23284375000003,601.5131723632812,273.49484375,602.0671723632812Q273.75784375,602.6221723632813,274.04684375,603.1631723632812Q274.33584375,603.7051723632812,274.65184375,604.2311723632813Q274.96684375,604.7581723632812,275.30784375,605.2681723632812Q275.64884374999997,605.7781723632812,276.01484375,606.2711723632813Q276.37984375,606.7641723632812,276.76984375,607.2381723632813Q277.15884375,607.7131723632813,277.57084375,608.1681723632812Q277.98284375000003,608.6221723632813,278.41684375,609.0561723632812Q278.85084374999997,609.4901723632812,279.30584375,609.9021723632812Q279.76084375,610.3141723632813,280.23484375,610.7041723632813Q280.70984375,611.0931723632813,281.20184374999997,611.4591723632813Q281.69484375,611.8241723632813,282.20584375,612.1651723632813Q282.71584375,612.5061723632813,283.24184375,612.8221723632812Q283.76884375,613.1371723632813,284.30984375,613.4271723632812Q284.85084374999997,613.7161723632812,285.40584375000003,613.9781723632813Q285.96084375,614.2411723632813,286.52784375,614.4761723632812Q287.09484375,614.7101723632812,287.67284374999997,614.9171723632812Q288.25084375,615.1241723632812,288.83784375,615.3021723632812Q289.42484375000004,615.4801723632812,290.01984375,615.6291723632812Q290.61584375,615.7781723632812,291.21784375,615.8981723632812Q291.81984375,616.0181723632812,292.42684375,616.1081723632813Q293.03384374999996,616.1981723632813,293.64484375,616.2581723632812Q294.25484374999996,616.3181723632813,294.86784375,616.3481723632813Q295.48084374999996,616.3791723632812,296.09484375,616.3791723632812Z" fill-rule="evenodd" fill="#323232" fill-opacity="1"/></g><g><path d="M150,347.10699462890625L0,347.10699462890625L0,497.10699462890625L50,497.10699462890625L50,397.10699462890625L150,397.10699462890625L150,347.10699462890625Z" fill-rule="evenodd" fill="#323232" fill-opacity="1"/></g><g transform="matrix(-1,0,0,-1,980,1673.4825439453125)"><rect x="490" y="836.7412719726562" width="50" height="50.000003814697266" rx="0" fill="#323232" fill-opacity="1"/></g><g transform="matrix(-1,0,0,-1,980,1473.4825439453125)"><rect x="490" y="736.7412719726562" width="50" height="50.000003814697266" rx="0" fill="#323232" fill-opacity="1"/></g><g transform="matrix(-1,0,0,-1,780,1673.4825439453125)"><rect x="390" y="836.7412719726562" width="50" height="50.000003814697266" rx="0" fill="#323232" fill-opacity="1"/></g></g></svg>