<svg xmlns="http://www.w3.org/2000/svg" xmlns:xlink="http://www.w3.org/1999/xlink" fill="none" version="1.1" width="40" height="40" viewBox="0 0 40 40"><defs><clipPath id="master_svg0_69_2718"><rect x="0" y="0" width="40" height="40" rx="0"/></clipPath></defs><g clip-path="url(#master_svg0_69_2718)"><g><g><path d="M11.333333492279053,19.83333396911621L27.666633492279054,19.83333396911621C28.218933492279053,19.83333396911621,28.666633492279054,20.28104896911621,28.666633492279054,20.83333396911621L28.666633492279054,32.58333396911621C28.666633492279054,33.13563396911621,28.218933492279053,33.58333396911621,27.666633492279054,33.58333396911621L23.25003349227905,33.58333396911621C22.697733492279053,33.58333396911621,22.25003349227905,33.13563396911621,22.25003349227905,32.58333396911621L22.25003349227905,28.08333396911621C22.25003349227905,26.56455396911621,21.01883349227905,25.33333396911621,19.500023492279052,25.33333396911621C17.981233492279053,25.33333396911621,16.750023492279052,26.56455396911621,16.750023492279052,28.08333396911621L16.750023492279052,32.58333396911621C16.750023492279052,33.13563396911621,16.30230349227905,33.58333396911621,15.750023492279052,33.58333396911621L11.333333492279053,33.58333396911621C10.781048492279053,33.58333396911621,10.333333492279053,33.13563396911621,10.333333492279053,32.58333396911621L10.333333492279053,20.83333396911621C10.333333492279053,20.28104896911621,10.781048492279053,19.83333396911621,11.333333492279053,19.83333396911621" fill-rule="evenodd" fill="#323232" fill-opacity="1"/></g><g><path d="M32.0013,19.029400000000003Q32.028099999999995,19.0552,32.0529,19.0828Q32.077600000000004,19.110500000000002,32.100300000000004,19.1399Q32.123000000000005,19.1693,32.1434,19.200400000000002Q32.163799999999995,19.2314,32.181799999999996,19.2638Q32.1999,19.296300000000002,32.2155,19.33Q32.2311,19.3637,32.2441,19.398400000000002Q32.2572,19.4332,32.2676,19.4688Q32.278099999999995,19.5045,32.285799999999995,19.5408Q32.2936,19.5771,32.2987,19.6139Q32.3037,19.6507,32.306,19.6877Q32.3083,19.724800000000002,32.307900000000004,19.7619Q32.3074,19.7991,32.3043,19.836Q32.301100000000005,19.872999999999998,32.295100000000005,19.9097Q32.2892,19.9464,32.2806,19.9825Q32.2719,20.0186,32.2607,20.054000000000002Q32.2494,20.0893,32.2355,20.1238Q32.221599999999995,20.1582,32.205200000000005,20.191499999999998Q32.1888,20.224899999999998,32.17,20.2569Q32.1512,20.288899999999998,32.129999999999995,20.3194Q32.1089,20.349899999999998,32.085499999999996,20.3788Q32.062200000000004,20.4077,32.0368,20.4347Q32.0113,20.4618,31.984,20.4869Q31.9566,20.512,31.9275,20.535Q31.8983,20.558,31.8675,20.5788Q31.8368,20.599600000000002,31.8045,20.618000000000002Q31.7723,20.636400000000002,31.7388,20.6524Q31.7053,20.6684,31.6707,20.6819Q31.6361,20.6954,31.6006,20.706200000000003Q31.565,20.717100000000002,31.5288,20.7253Q31.4926,20.7335,31.4559,20.739Q31.4192,20.744500000000002,31.3821,20.7472Q31.3451,20.75,31.308,20.75L7.69203,20.75Q7.6549,20.75,7.61787,20.7472Q7.58084,20.744500000000002,7.54411,20.739Q7.50739,20.7335,7.47117,20.7253Q7.43496,20.717100000000002,7.39945,20.706200000000003Q7.36394,20.6954,7.32933,20.6819Q7.29473,20.6684,7.26122,20.6524Q7.22771,20.636400000000002,7.19548,20.618000000000002Q7.16325,20.599600000000002,7.13247,20.5788Q7.10169,20.558,7.07254,20.535Q7.04339,20.512,7.01603,20.4869Q6.98867,20.4618,6.96324,20.4347Q6.93781,20.4077,6.91447,20.3788Q6.89112,20.349899999999998,6.86997,20.3194Q6.8488299999999995,20.288899999999998,6.83001,20.2569Q6.81119,20.224899999999998,6.79479,20.191499999999998Q6.77839,20.1582,6.76451,20.1238Q6.75063,20.0893,6.73935,20.054000000000002Q6.72806,20.0186,6.71943,19.9825Q6.7108,19.9464,6.70487,19.9097Q6.69894,19.872999999999998,6.69574,19.836Q6.692550000000001,19.7991,6.6921,19.7619Q6.691660000000001,19.724800000000002,6.69397,19.6877Q6.69628,19.6507,6.70134,19.6139Q6.70639,19.5771,6.71416,19.5408Q6.72193,19.5045,6.7323699999999995,19.4688Q6.74281,19.4332,6.75587,19.398400000000002Q6.76892,19.3637,6.7845200000000006,19.33Q6.80012,19.296300000000002,6.81817,19.2638Q6.83622,19.2314,6.85663,19.200400000000002Q6.87704,19.1693,6.8997,19.1399Q6.92235,19.110500000000002,6.94713,19.0828Q6.9719,19.0552,6.99866,19.029400000000003L18.8066,7.667201Q18.875799999999998,7.600592,18.9565,7.548379Q19.0371,7.496167,19.1262,7.46026Q19.2153,7.424353,19.3096,7.406065Q19.4039,7.387777,19.5,7.387777Q19.5961,7.387777,19.6904,7.406065Q19.7847,7.424353,19.8738,7.46026Q19.9629,7.496167,20.0435,7.548379Q20.1242,7.600592,20.1934,7.667201L32.0013,19.029400000000003Z" fill="#323232" fill-opacity="1"/></g></g></g></svg>