<svg xmlns="http://www.w3.org/2000/svg" xmlns:xlink="http://www.w3.org/1999/xlink" fill="none" version="1.1" width="40" height="40" viewBox="0 0 40 40"><defs><clipPath id="master_svg0_165_753"><rect x="0" y="0" width="40" height="40" rx="0"/></clipPath></defs><g clip-path="url(#master_svg0_165_753)"><g><g><path d="M24.408428610229493,9.210205749206544Q24.251528610229492,9.145225749206542,24.103528610229493,9.062005749206543Q23.955528610229493,8.978795749206544,23.818428610229493,8.878535749206543Q23.681428610229492,8.778265749206543,23.557328610229494,8.662385749206543Q23.43322861022949,8.546495749206542,23.32382861022949,8.416645749206543Q23.214428610229493,8.286795749206544,23.121228610229494,8.144825749206543Q23.02812861022949,8.002865749206542,22.952528610229493,7.850805749206543Q22.87702861022949,7.698745749206543,22.820128610229492,7.538765749206544Q22.763228610229493,7.378785749206543,22.72582861022949,7.213165749206543Q22.699428610229493,7.096405749206543,22.66332861022949,6.9822757492065435Q22.62722861022949,6.868145749206543,22.581628610229494,6.757465749206543Q22.536028610229494,6.646785749206543,22.481228610229493,6.540345749206542Q22.426528610229493,6.433895749206543,22.36302861022949,6.332435749206543Q22.29952861022949,6.230965749206543,22.22762861022949,6.135215749206543Q22.15582861022949,6.039465749206543,22.076128610229492,5.950096749206543Q21.996528610229493,5.860730749206543,21.909628610229493,5.778386749206543Q21.822728610229493,5.696042749206543,21.72922861022949,5.621304749206543Q21.635728610229492,5.546567749206543,21.536328610229493,5.479967749206543Q21.436828610229494,5.413367749206543,21.332128610229493,5.355377749206543Q21.22742861022949,5.297387749206543,21.11812861022949,5.248419749206543Q21.008928610229493,5.199452749206543,20.89592861022949,5.159854749206543Q20.783028610229493,5.120256749206543,20.66712861022949,5.090309049206543Q20.551228610229494,5.060361749206543,20.43322861022949,5.040278049206543Q20.315228610229493,5.020194249206543,20.195928610229494,5.010116549206543Q20.07662861022949,5.000038890306543,19.95692861022949,5.000038838806543Q19.83722861022949,5.000038787306543,19.717928610229492,5.010116349206543Q19.59862861022949,5.020193949206543,19.480628610229495,5.040277549206543Q19.362628610229493,5.060361249206543,19.246728610229493,5.090308349206543Q19.130828610229493,5.120255749206543,19.01792861022949,5.159853749206543Q18.90492861022949,5.199451749206543,18.795728610229492,5.248418749206543Q18.686528610229495,5.297386749206543,18.58172861022949,5.355376749206543Q18.477028610229493,5.413365749206543,18.377628610229493,5.479965749206543Q18.278128610229494,5.546565749206543,18.184628610229492,5.621303749206543Q18.091128610229493,5.696040749206543,18.004228610229493,5.778384749206543Q17.91732861022949,5.860728749206543,17.83772861022949,5.950094749206543Q17.75802861022949,6.039465749206543,17.68622861022949,6.135215749206543Q17.614428610229492,6.230965749206543,17.550828610229495,6.332425749206543Q17.48732861022949,6.433885749206543,17.432628610229493,6.540335749206543Q17.377828610229493,6.646785749206543,17.332228610229492,6.757465749206543Q17.286628610229492,6.868145749206543,17.250528610229495,6.9822757492065435Q17.21442861022949,7.096395749206543,17.188028610229495,7.213155749206543Q17.150628610229493,7.378785749206543,17.09372861022949,7.538765749206544Q17.03682861022949,7.698745749206543,16.961328610229494,7.850805749206543Q16.885728610229492,8.002865749206542,16.792628610229492,8.144825749206543Q16.699428610229493,8.286795749206544,16.590028610229492,8.416645749206543Q16.480628610229495,8.546495749206542,16.356528610229493,8.662385749206543Q16.23242861022949,8.778265749206543,16.09542861022949,8.878535749206543Q15.958328610229492,8.978795749206544,15.810328610229492,9.062015749206543Q15.662328610229492,9.145225749206542,15.505528610229492,9.210205749206544Q15.348628610229492,9.275185749206543,15.185128610229492,9.320995749206542Q15.021628610229492,9.366815749206543,14.853828610229492,9.392805749206543Q14.686038610229492,9.418805749206543,14.516338610229493,9.424615749206543Q14.346648610229492,9.430435749206543,14.177468610229493,9.415975749206542Q14.008288610229492,9.401515749206542,13.842038610229492,9.366995749206543Q13.675788610229493,9.332465749206543,13.514838610229493,9.278375749206543Q13.353888610229491,9.224285749206544,13.200538610229492,9.151385749206543Q13.047188610229492,9.078495749206542,12.903618610229493,8.987835749206543Q12.802398610229492,8.923925749206543,12.696168610229492,8.868765749206542Q12.589928610229492,8.813605749206543,12.479428610229492,8.767575749206543Q12.368928610229492,8.721555749206543,12.254938610229491,8.685005749206542Q12.140958610229493,8.648445749206543,12.024298610229492,8.621615749206542Q11.907638610229492,8.594785749206544,11.789138610229493,8.577875749206543Q11.670638610229492,8.560955749206542,11.551128610229492,8.554075749206543Q11.431628610229492,8.547205749206544,11.311968610229492,8.550415749206543Q11.192308610229492,8.553615749206543,11.073338610229492,8.566885749206543Q10.954378610229492,8.580165749206543,10.836948610229491,8.603395749206543Q10.719518610229493,8.626635749206542,10.604468610229492,8.659685749206544Q10.489418610229492,8.692725749206543,10.377558610229492,8.735335749206543Q10.265698610229492,8.777945749206543,10.157818610229493,8.829825749206544Q10.049938610229493,8.881705749206542,9.946808610229493,8.942475749206544Q9.843688610229492,9.003255749206543,9.746038610229492,9.072495749206542Q9.648398610229492,9.141735749206543,9.556928610229491,9.218955749206543Q9.465458610229492,9.296165749206544,9.380818610229493,9.380815749206544Q9.296168610229493,9.465455749206543,9.218958610229492,9.556925749206542Q9.141738610229492,9.648395749206543,9.072498610229491,9.746035749206543Q9.003258610229492,9.843685749206543,8.942478610229493,9.946805749206543Q8.881708610229492,10.049935749206544,8.829828610229493,10.157815749206543Q8.777948610229492,10.265695749206543,8.735338610229492,10.377555749206543Q8.692728610229493,10.489415749206543,8.659678610229491,10.604465749206543Q8.626638610229492,10.719525749206543,8.603398610229492,10.836945749206542Q8.580158610229493,10.954375749206543,8.566888610229492,11.073335749206542Q8.553618610229492,11.192305749206543,8.550408610229493,11.311965749206543Q8.547208610229493,11.431625749206543,8.554078610229492,11.551125749206543Q8.560958610229491,11.670635749206543,8.577868610229492,11.789135749206544Q8.594788610229493,11.907635749206543,8.621618610229492,12.024295749206543Q8.648448610229492,12.140955749206544,8.684998610229492,12.254935749206542Q8.721558610229492,12.368925749206543,8.767578610229492,12.479425749206543Q8.813608610229492,12.589925749206543,8.868768610229491,12.696165749206543Q8.923928610229492,12.802395749206543,8.987838610229492,12.903615749206544Q9.078498610229492,13.047185749206543,9.151388610229493,13.200535749206542Q9.224278610229492,13.353895749206544,9.278378610229492,13.514835749206544Q9.332468610229492,13.675785749206543,9.366988610229491,13.842035749206543Q9.401518610229491,14.008285749206543,9.415978610229491,14.177465749206544Q9.430438610229492,14.346645749206543,9.424618610229492,14.516345749206543Q9.418808610229492,14.686035749206543,9.392808610229492,14.853835749206542Q9.366818610229492,15.021625749206542,9.320998610229491,15.185125749206543Q9.275188610229492,15.348625749206542,9.210208610229493,15.505525749206543Q9.145228610229491,15.662325749206543,9.062008610229492,15.810325749206543Q8.978798610229493,15.958425749206542,8.878538610229493,16.09542574920654Q8.778268610229492,16.23242574920654,8.662388610229492,16.356525749206543Q8.546498610229492,16.480625749206546,8.416648610229492,16.590025749206543Q8.286798610229493,16.699425749206544,8.144828610229492,16.792625749206543Q8.002868610229491,16.885725749206543,7.8508086102294925,16.961325749206544Q7.698748610229492,17.036825749206542,7.538768610229493,17.09372574920654Q7.378788610229492,17.150625749206544,7.213168610229492,17.188025749206545Q7.096408610229492,17.21442574920654,6.982278610229493,17.250525749206545Q6.868148610229492,17.286625749206543,6.757468610229492,17.332225749206543Q6.646788610229493,17.377825749206544,6.540348610229492,17.432625749206544Q6.433898610229492,17.48732574920654,6.3324386102294925,17.550825749206545Q6.230978610229492,17.614425749206543,6.135218610229492,17.686225749206542Q6.039468610229492,17.758025749206542,5.950100610229493,17.83772574920654Q5.8607336102294925,17.91732574920654,5.7783896102294925,18.004225749206544Q5.6960456102294925,18.091125749206544,5.621308610229493,18.184625749206543Q5.546571610229492,18.278125749206545,5.479971610229493,18.377625749206544Q5.413371610229492,18.477025749206543,5.355381610229492,18.58172574920654Q5.297391610229492,18.686525749206545,5.2484236102294926,18.795725749206543Q5.199456610229492,18.90492574920654,5.1598586102294925,19.01792574920654Q5.120260610229492,19.130825749206544,5.090313010229492,19.246725749206544Q5.060365810229492,19.362625749206543,5.040282110229493,19.480625749206546Q5.020198410229492,19.59862574920654,5.010120710229492,19.717925749206543Q5.000043088029492,19.837225749206542,5.000043067429492,19.95692574920654Q5.000043046729492,20.076625749206542,5.010120610229492,20.195925749206545Q5.0201983102294925,20.315225749206544,5.040281910229492,20.433225749206542Q5.060365610229492,20.551225749206544,5.090312810229492,20.66712574920654Q5.120259610229493,20.783025749206544,5.159857610229492,20.89592574920654Q5.199455610229492,21.008925749206544,5.2484236102294926,21.11812574920654Q5.297391610229492,21.227425749206542,5.355380610229492,21.332125749206543Q5.413370610229492,21.436825749206545,5.4799706102294925,21.536325749206544Q5.546570610229492,21.635725749206543,5.6213076102294925,21.72922574920654Q5.6960456102294925,21.822725749206544,5.7783896102294925,21.909625749206544Q5.8607336102294925,21.996525749206544,5.9500996102294925,22.076125749206543Q6.039468610229492,22.155825749206542,6.135218610229492,22.227625749206542Q6.2309686102294926,22.29952574920654,6.3324386102294925,22.363025749206543Q6.433898610229492,22.426525749206544,6.540348610229492,22.481225749206544Q6.646788610229493,22.536025749206544,6.757468610229492,22.581625749206545Q6.868148610229492,22.62722574920654,6.982278610229493,22.663325749206543Q7.0963986102294925,22.699425749206544,7.213168610229492,22.725825749206543Q7.378788610229492,22.763225749206544,7.538768610229493,22.820125749206543Q7.698748610229492,22.877025749206542,7.8508086102294925,22.952525749206544Q8.002868610229491,23.02812574920654,8.144828610229492,23.121225749206545Q8.286798610229493,23.214425749206544,8.416648610229492,23.32382574920654Q8.546498610229492,23.433225749206542,8.662388610229492,23.557325749206544Q8.778268610229492,23.681425749206543,8.878538610229493,23.818425749206543Q8.978798610229493,23.955525749206544,9.062008610229492,24.103525749206543Q9.145228610229491,24.251525749206543,9.210208610229493,24.408425749206543Q9.275188610229492,24.565225749206544,9.320998610229491,24.728725749206543Q9.366818610229492,24.892225749206542,9.392808610229492,25.06002574920654Q9.418808610229492,25.22782574920654,9.424618610229492,25.397525749206544Q9.430438610229492,25.567225749206543,9.415978610229491,25.736425749206543Q9.401518610229491,25.905625749206543,9.366998610229492,26.071825749206543Q9.332468610229492,26.238125749206542,9.278378610229492,26.399025749206544Q9.224288610229493,26.56002574920654,9.151388610229493,26.713325749206543Q9.078498610229492,26.866725749206545,8.987838610229492,27.010225749206544Q8.923928610229492,27.111425749206543,8.868768610229491,27.217725749206544Q8.813608610229492,27.32392574920654,8.767578610229492,27.434425749206543Q8.721558610229492,27.54492574920654,8.685008610229492,27.658925749206542Q8.648448610229492,27.772925749206543,8.621618610229492,27.889625749206544Q8.594788610229493,28.006225749206543,8.577878610229492,28.124725749206544Q8.560958610229491,28.243225749206545,8.554078610229492,28.362725749206543Q8.547208610229493,28.482225749206542,8.550418610229492,28.601925749206544Q8.553618610229492,28.721525749206542,8.566888610229492,28.84052574920654Q8.580168610229492,28.95952574920654,8.603398610229492,29.07692574920654Q8.626638610229492,29.19432574920654,8.659688610229493,29.309425749206543Q8.692728610229493,29.42442574920654,8.735338610229492,29.536325749206544Q8.777948610229492,29.648225749206542,8.829828610229493,29.756025749206543Q8.881708610229492,29.863925749206544,8.942478610229493,29.96702574920654Q9.003258610229492,30.070225749206543,9.072498610229491,30.167825749206543Q9.141738610229492,30.265525749206542,9.218958610229492,30.356925749206543Q9.296168610229493,30.448425749206542,9.380818610229493,30.533025749206544Q9.465458610229492,30.617725749206542,9.556928610229491,30.694925749206543Q9.648398610229492,30.77212574920654,9.746038610229492,30.841425749206543Q9.843688610229492,30.91062574920654,9.946808610229493,30.971425749206542Q10.049938610229493,31.032125749206543,10.157818610229493,31.084025749206543Q10.265698610229492,31.135925749206542,10.377558610229492,31.178525749206543Q10.489418610229492,31.221125749206543,10.604468610229492,31.254225749206544Q10.719518610229493,31.28722574920654,10.836948610229491,31.310425749206544Q10.954368610229492,31.333725749206543,11.073338610229492,31.347025749206544Q11.192308610229492,31.360225749206542,11.311968610229492,31.36342574920654Q11.431628610229492,31.36662574920654,11.551128610229492,31.359825749206543Q11.670638610229492,31.352925749206545,11.789138610229493,31.33602574920654Q11.907638610229492,31.319125749206542,12.024298610229492,31.292225749206544Q12.140958610229493,31.265425749206543,12.254938610229491,31.228825749206543Q12.368928610229492,31.192325749206542,12.479428610229492,31.146325749206543Q12.589928610229492,31.100225749206544,12.696168610229492,31.045125749206544Q12.802398610229492,30.98992574920654,12.903618610229493,30.92602574920654Q13.047188610229492,30.835425749206543,13.200538610229492,30.762525749206542Q13.353888610229491,30.68962574920654,13.514838610229493,30.635525749206543Q13.675788610229493,30.58142574920654,13.842038610229492,30.546925749206544Q14.008288610229492,30.512325749206543,14.177468610229493,30.497925749206544Q14.346648610229492,30.483425749206543,14.516348610229493,30.489225749206543Q14.686038610229492,30.495025749206544,14.853838610229491,30.521025749206544Q15.021628610229492,30.547025749206544,15.185128610229492,30.592925749206543Q15.348628610229492,30.638725749206543,15.505528610229492,30.703625749206545Q15.662328610229492,30.768625749206542,15.810328610229492,30.851825749206544Q15.958428610229491,30.93502574920654,16.09542861022949,31.035325749206542Q16.23242861022949,31.135625749206543,16.356528610229493,31.251525749206543Q16.480628610229495,31.367325749206543,16.590028610229492,31.497225749206542Q16.699428610229493,31.62712574920654,16.792628610229492,31.76902574920654Q16.885728610229492,31.911025749206544,16.961328610229494,32.063025749206545Q17.03682861022949,32.21512574920654,17.09372861022949,32.375125749206546Q17.150628610229493,32.53512574920654,17.188028610229495,32.70072574920654Q17.21442861022949,32.81742574920654,17.250528610229495,32.931625749206546Q17.286628610229492,33.04572574920654,17.332228610229492,33.15642574920655Q17.377828610229493,33.26712574920654,17.432628610229493,33.37352574920654Q17.48732861022949,33.48002574920655,17.550828610229495,33.581425749206545Q17.614428610229492,33.68292574920655,17.68622861022949,33.77862574920654Q17.75802861022949,33.874425749206544,17.83772861022949,33.963725749206546Q17.91732861022949,34.053125749206544,18.004228610229493,34.13552574920654Q18.091128610229493,34.21782574920654,18.184628610229492,34.29252574920655Q18.278128610229494,34.36732574920654,18.377628610229493,34.433925749206544Q18.477028610229493,34.500525749206545,18.58172861022949,34.55852574920654Q18.686528610229495,34.616525749206545,18.795728610229492,34.66542574920655Q18.90492861022949,34.71442574920654,19.01792861022949,34.75402574920655Q19.130828610229493,34.79362574920654,19.246728610229493,34.82352574920654Q19.362628610229493,34.85352574920654,19.480628610229495,34.87362574920654Q19.59862861022949,34.89362574920654,19.717928610229492,34.903725749206544Q19.83722861022949,34.91382574920654,19.95692861022949,34.91382574920654Q20.07662861022949,34.91382574920654,20.195928610229494,34.903725749206544Q20.315228610229493,34.89372574920654,20.43322861022949,34.87362574920654Q20.551228610229494,34.85352574920654,20.66712861022949,34.82352574920654Q20.783028610229493,34.79362574920654,20.89592861022949,34.75402574920655Q21.008928610229493,34.71442574920654,21.11812861022949,34.66542574920655Q21.22742861022949,34.616525749206545,21.332128610229493,34.55852574920654Q21.436828610229494,34.500525749206545,21.536328610229493,34.433925749206544Q21.635728610229492,34.36732574920654,21.72922861022949,34.29252574920655Q21.822728610229493,34.21782574920654,21.909628610229493,34.13552574920654Q21.996528610229493,34.053125749206544,22.076128610229492,33.963725749206546Q22.15582861022949,33.874425749206544,22.22762861022949,33.77862574920654Q22.29952861022949,33.68292574920655,22.36302861022949,33.581425749206545Q22.426528610229493,33.48002574920655,22.481228610229493,33.37352574920654Q22.536028610229494,33.26712574920654,22.581628610229494,33.15642574920655Q22.62722861022949,33.04572574920654,22.66332861022949,32.931625749206546Q22.699428610229493,32.81742574920654,22.72582861022949,32.70072574920654Q22.763228610229493,32.53512574920654,22.820128610229492,32.375125749206546Q22.87702861022949,32.21512574920654,22.952528610229493,32.063025749206545Q23.02812861022949,31.911025749206544,23.121228610229494,31.76902574920654Q23.214428610229493,31.62712574920654,23.32382861022949,31.497225749206542Q23.43322861022949,31.367325749206543,23.557328610229494,31.251525749206543Q23.681428610229492,31.135625749206543,23.818428610229493,31.035325749206542Q23.955528610229493,30.93502574920654,24.103528610229493,30.851825749206544Q24.251528610229492,30.768625749206542,24.408328610229493,30.703625749206545Q24.565228610229493,30.638725749206543,24.728728610229492,30.592825749206543Q24.89222861022949,30.547025749206544,25.06002861022949,30.521025749206544Q25.22782861022949,30.495025749206544,25.397528610229493,30.489225749206543Q25.567228610229492,30.483425749206543,25.736428610229492,30.497925749206544Q25.905628610229492,30.512325749206543,26.071828610229492,30.546925749206544Q26.23812861022949,30.58142574920654,26.399028610229493,30.635525749206543Q26.56002861022949,30.68962574920654,26.713328610229492,30.762525749206542Q26.866728610229494,30.835425749206543,27.010228610229493,30.92602574920654Q27.111428610229492,30.98992574920654,27.217728610229493,31.045125749206544Q27.32392861022949,31.100225749206544,27.434428610229492,31.146325749206543Q27.54492861022949,31.192325749206542,27.65892861022949,31.228825749206543Q27.772928610229492,31.265425749206543,27.889528610229494,31.292225749206544Q28.006228610229492,31.319125749206542,28.124728610229493,31.33602574920654Q28.243228610229494,31.352925749206545,28.362728610229492,31.359825749206543Q28.48222861022949,31.36662574920654,28.601928610229493,31.36342574920654Q28.72152861022949,31.360225749206542,28.84052861022949,31.347025749206544Q28.95952861022949,31.333725749206543,29.07692861022949,31.310425749206544Q29.19432861022949,31.28722574920654,29.309428610229492,31.254225749206544Q29.42442861022949,31.221125749206543,29.536328610229493,31.178525749206543Q29.64822861022949,31.135925749206542,29.756028610229492,31.084025749206543Q29.863928610229493,31.032125749206543,29.96702861022949,30.971425749206542Q30.070228610229492,30.91062574920654,30.167828610229492,30.841425749206543Q30.26552861022949,30.77212574920654,30.35692861022949,30.694925749206543Q30.44842861022949,30.617725749206542,30.533028610229493,30.533025749206544Q30.61772861022949,30.448425749206542,30.694928610229493,30.356925749206543Q30.77212861022949,30.265525749206542,30.841428610229492,30.167825749206543Q30.91062861022949,30.070225749206543,30.97142861022949,29.96702574920654Q31.032128610229492,29.863925749206544,31.084028610229492,29.756025749206543Q31.13592861022949,29.648225749206542,31.178528610229492,29.536325749206544Q31.221128610229492,29.42442574920654,31.254228610229493,29.309425749206543Q31.28722861022949,29.19432574920654,31.310428610229494,29.07692574920654Q31.333728610229493,28.95952574920654,31.347028610229493,28.84052574920654Q31.36022861022949,28.721525749206542,31.36342861022949,28.601925749206544Q31.36662861022949,28.482225749206542,31.359828610229492,28.362725749206543Q31.352928610229494,28.243225749206545,31.33602861022949,28.124725749206544Q31.31912861022949,28.006225749206543,31.292228610229493,27.889525749206545Q31.265428610229492,27.772925749206543,31.228828610229492,27.658925749206542Q31.19232861022949,27.54492574920654,31.146328610229492,27.434425749206543Q31.100228610229493,27.32392574920654,31.045128610229494,27.217725749206544Q30.98992861022949,27.111425749206543,30.92602861022949,27.010225749206544Q30.835428610229492,26.866725749206545,30.76252861022949,26.713325749206543Q30.68962861022949,26.56002574920654,30.635528610229493,26.399025749206544Q30.58142861022949,26.238125749206542,30.546928610229493,26.071825749206543Q30.512328610229492,25.905625749206543,30.497928610229494,25.736425749206543Q30.483428610229492,25.567225749206543,30.489228610229492,25.397525749206544Q30.495028610229493,25.22782574920654,30.521028610229493,25.06002574920654Q30.547028610229493,24.892225749206542,30.592928610229492,24.728725749206543Q30.638728610229492,24.565225749206544,30.703628610229494,24.408325749206544Q30.76862861022949,24.251525749206543,30.851828610229493,24.103525749206543Q30.93502861022949,23.955525749206544,31.03532861022949,23.818425749206543Q31.135628610229492,23.681425749206543,31.251528610229492,23.557325749206544Q31.367328610229492,23.433225749206542,31.49722861022949,23.32382574920654Q31.62712861022949,23.214425749206544,31.76902861022949,23.121225749206545Q31.911028610229494,23.02812574920654,32.063028610229495,22.952525749206544Q32.21512861022949,22.877025749206542,32.375128610229496,22.820125749206543Q32.53512861022949,22.763225749206544,32.70072861022949,22.725825749206543Q32.81742861022949,22.699425749206544,32.931628610229495,22.663325749206543Q33.04572861022949,22.62722574920654,33.1564286102295,22.581625749206545Q33.26712861022949,22.536025749206544,33.37352861022949,22.481225749206544Q33.480028610229496,22.426525749206544,33.581428610229494,22.363025749206543Q33.682928610229496,22.29952574920654,33.77862861022949,22.227625749206542Q33.874428610229494,22.155825749206542,33.963728610229495,22.076125749206543Q34.05312861022949,21.996525749206544,34.13552861022949,21.909625749206544Q34.21782861022949,21.822725749206544,34.292528610229496,21.72922574920654Q34.36732861022949,21.635725749206543,34.43392861022949,21.536325749206544Q34.500528610229495,21.436825749206545,34.55852861022949,21.332125749206543Q34.616528610229494,21.227425749206542,34.6654286102295,21.11812574920654Q34.71442861022949,21.008925749206544,34.7540286102295,20.89592574920654Q34.79362861022949,20.783025749206544,34.82352861022949,20.66712574920654Q34.85352861022949,20.551225749206544,34.87362861022949,20.433225749206542Q34.89362861022949,20.315225749206544,34.90372861022949,20.195925749206545Q34.91382861022949,20.076625749206542,34.91382861022949,19.95692574920654Q34.91382861022949,19.837225749206542,34.90372861022949,19.717925749206543Q34.89372861022949,19.59862574920654,34.87362861022949,19.480625749206546Q34.85352861022949,19.362625749206543,34.82352861022949,19.246725749206544Q34.79362861022949,19.130825749206544,34.7540286102295,19.01792574920654Q34.71442861022949,18.90492574920654,34.6654286102295,18.795725749206543Q34.616528610229494,18.686525749206545,34.55852861022949,18.58172574920654Q34.500528610229495,18.477025749206543,34.43392861022949,18.377625749206544Q34.36732861022949,18.278125749206545,34.292528610229496,18.184625749206543Q34.21782861022949,18.091125749206544,34.13552861022949,18.004225749206544Q34.05312861022949,17.91732574920654,33.963728610229495,17.83772574920654Q33.874428610229494,17.758025749206542,33.77862861022949,17.686225749206542Q33.682928610229496,17.614425749206543,33.581428610229494,17.550825749206545Q33.480028610229496,17.48732574920654,33.37352861022949,17.432625749206544Q33.26712861022949,17.377825749206544,33.1564286102295,17.332225749206543Q33.04572861022949,17.286625749206543,32.931628610229495,17.250525749206545Q32.81742861022949,17.21442574920654,32.70072861022949,17.188025749206545Q32.53512861022949,17.150625749206544,32.375128610229496,17.09372574920654Q32.21512861022949,17.036825749206542,32.063028610229495,16.961325749206544Q31.911028610229494,16.885725749206543,31.76902861022949,16.792625749206543Q31.62702861022949,16.699425749206544,31.49722861022949,16.590025749206543Q31.367328610229492,16.480625749206546,31.251528610229492,16.356525749206543Q31.135628610229492,16.23242574920654,31.03532861022949,16.09542574920654Q30.93502861022949,15.958425749206542,30.851828610229493,15.810325749206543Q30.76862861022949,15.662325749206543,30.703628610229494,15.505525749206543Q30.638728610229492,15.348625749206542,30.592828610229493,15.185125749206543Q30.547028610229493,15.021625749206542,30.521028610229493,14.853835749206542Q30.495028610229493,14.686035749206543,30.489228610229492,14.516345749206543Q30.483428610229492,14.346645749206543,30.497928610229494,14.177465749206544Q30.512328610229492,14.008285749206543,30.546928610229493,13.842045749206543Q30.58142861022949,13.675795749206543,30.635528610229493,13.514845749206543Q30.68962861022949,13.353895749206544,30.76252861022949,13.200545749206542Q30.835428610229492,13.047185749206543,30.92602861022949,12.903615749206544Q30.98992861022949,12.802405749206542,31.045128610229494,12.696165749206543Q31.100228610229493,12.589935749206543,31.146328610229492,12.479425749206543Q31.19232861022949,12.368925749206543,31.228828610229492,12.254945749206543Q31.265428610229492,12.140955749206544,31.292228610229493,12.024295749206543Q31.31912861022949,11.907645749206543,31.33602861022949,11.789135749206544Q31.352928610229494,11.670635749206543,31.359828610229492,11.551135749206544Q31.36662861022949,11.431625749206543,31.36342861022949,11.311965749206543Q31.36022861022949,11.192305749206543,31.347028610229493,11.073335749206542Q31.333728610229493,10.954375749206543,31.310428610229494,10.836945749206542Q31.28722861022949,10.719525749206543,31.254228610229493,10.604465749206543Q31.221128610229492,10.489415749206543,31.178528610229492,10.377555749206543Q31.13592861022949,10.265695749206543,31.084028610229492,10.157815749206543Q31.032128610229492,10.049935749206544,30.97142861022949,9.946805749206543Q30.91062861022949,9.843685749206543,30.841328610229493,9.746035749206543Q30.77212861022949,9.648395749206543,30.694928610229493,9.556925749206542Q30.61772861022949,9.465455749206543,30.533028610229493,9.380815749206544Q30.44842861022949,9.296165749206544,30.35692861022949,9.218955749206543Q30.265428610229492,9.141735749206543,30.167828610229492,9.072495749206542Q30.070228610229492,9.003255749206543,29.96702861022949,8.942475749206544Q29.863928610229493,8.881705749206542,29.756028610229492,8.829825749206544Q29.64822861022949,8.777945749206543,29.536328610229493,8.735335749206543Q29.42442861022949,8.692725749206543,29.309428610229492,8.659675749206542Q29.19432861022949,8.626635749206542,29.07692861022949,8.603395749206543Q28.95952861022949,8.580155749206543,28.84052861022949,8.566885749206543Q28.72152861022949,8.553615749206543,28.601928610229493,8.550405749206544Q28.48222861022949,8.547205749206544,28.362728610229492,8.554075749206543Q28.243228610229494,8.560955749206542,28.124728610229493,8.577865749206543Q28.006228610229492,8.594785749206544,27.889528610229494,8.621615749206542Q27.772928610229492,8.648445749206543,27.65892861022949,8.684995749206543Q27.54492861022949,8.721555749206543,27.434428610229492,8.767575749206543Q27.32392861022949,8.813605749206543,27.217728610229493,8.868765749206542Q27.111428610229492,8.923925749206543,27.010228610229493,8.987835749206543Q26.866728610229494,9.078495749206542,26.713328610229492,9.151385749206543Q26.56002861022949,9.224275749206543,26.399028610229493,9.278375749206543Q26.23812861022949,9.332465749206543,26.071828610229492,9.366985749206542Q25.905628610229492,9.401515749206542,25.736428610229492,9.415975749206542Q25.567228610229492,9.430435749206543,25.397528610229493,9.424615749206543Q25.22782861022949,9.418805749206543,25.06002861022949,9.392805749206543Q24.89222861022949,9.366815749206543,24.728728610229492,9.320995749206542Q24.565228610229493,9.275185749206543,24.408428610229493,9.210205749206544ZM19.95692861022949,27.956925749206544Q20.153328610229494,27.956925749206544,20.34952861022949,27.94732574920654Q20.545628610229492,27.937625749206543,20.741028610229492,27.91842574920654Q20.936528610229495,27.899125749206544,21.130828610229493,27.870325749206543Q21.32502861022949,27.841525749206543,21.517628610229494,27.803225749206543Q21.710228610229493,27.764925749206544,21.900728610229493,27.71722574920654Q22.091328610229493,27.669425749206543,22.27922861022949,27.612425749206544Q22.46712861022949,27.55542574920654,22.652028610229493,27.489325749206543Q22.836928610229492,27.423125749206545,23.018428610229492,27.347925749206542Q23.199828610229492,27.272825749206543,23.377328610229494,27.188825749206543Q23.554928610229492,27.104925749206544,23.728128610229493,27.012325749206543Q23.90132861022949,26.919725749206542,24.069728610229493,26.818725749206543Q24.23822861022949,26.717825749206543,24.40152861022949,26.608725749206542Q24.564828610229494,26.499625749206544,24.722528610229492,26.382625749206543Q24.88022861022949,26.265625749206542,25.032128610229492,26.14102574920654Q25.183928610229493,26.016425749206544,25.329428610229492,25.884525749206542Q25.474928610229494,25.752625749206544,25.613828610229493,25.613825749206544Q25.752628610229493,25.474925749206545,25.88452861022949,25.329425749206543Q26.016428610229493,25.183925749206544,26.14102861022949,25.032125749206543Q26.26562861022949,24.88022574920654,26.382628610229492,24.722525749206543Q26.499628610229493,24.564825749206545,26.60872861022949,24.40152574920654Q26.717828610229493,24.238225749206542,26.818728610229492,24.069725749206544Q26.91972861022949,23.901325749206542,27.012328610229492,23.728125749206544Q27.104928610229493,23.554925749206543,27.188828610229493,23.377325749206545Q27.272828610229492,23.199825749206543,27.34792861022949,23.018425749206543Q27.423128610229494,22.836925749206543,27.489328610229492,22.652025749206544Q27.55542861022949,22.46712574920654,27.612428610229493,22.279225749206542Q27.66942861022949,22.091325749206543,27.71722861022949,21.900725749206543Q27.764928610229493,21.710225749206543,27.803228610229493,21.517625749206545Q27.841528610229492,21.325025749206542,27.870328610229492,21.130825749206544Q27.899128610229493,20.936525749206545,27.91842861022949,20.741025749206543Q27.937628610229492,20.545625749206543,27.94732861022949,20.349525749206542Q27.956928610229493,20.153325749206545,27.956928610229493,19.95692574920654Q27.956928610229493,19.760525749206543,27.94732861022949,19.564425749206542Q27.937628610229492,19.368225749206545,27.91842861022949,19.172825749206545Q27.899128610229493,18.977325749206543,27.870328610229492,18.78312574920654Q27.841528610229492,18.588825749206542,27.803228610229493,18.396225749206543Q27.764928610229493,18.203625749206545,27.71722861022949,18.013125749206544Q27.66942861022949,17.822625749206544,27.612428610229493,17.634625749206542Q27.55542861022949,17.446725749206543,27.489328610229492,17.261825749206544Q27.423128610229494,17.076925749206545,27.34792861022949,16.895425749206545Q27.272828610229492,16.71402574920654,27.188828610229493,16.536525749206543Q27.104928610229493,16.35892574920654,27.012328610229492,16.185725749206544Q26.91972861022949,16.012525749206542,26.818728610229492,15.844125749206542Q26.717828610229493,15.675625749206542,26.60872861022949,15.512325749206543Q26.499628610229493,15.349125749206543,26.382628610229492,15.191325749206543Q26.26562861022949,15.033625749206543,26.14102861022949,14.881785749206543Q26.016428610229493,14.729975749206544,25.88452861022949,14.584465749206544Q25.752628610229493,14.438945749206543,25.613828610229493,14.300075749206544Q25.474928610229494,14.161215749206542,25.329428610229492,14.029325749206542Q25.183928610229493,13.897435749206544,25.032128610229492,13.772855749206544Q24.88022861022949,13.648265749206542,24.722528610229492,13.531275749206543Q24.564828610229494,13.414285749206543,24.40152861022949,13.305175749206542Q24.23822861022949,13.196065749206543,24.069728610229493,13.095105749206542Q23.90132861022949,12.994135749206542,23.728128610229493,12.901565749206544Q23.554928610229492,12.808985749206542,23.377328610229494,12.725015749206543Q23.199828610229492,12.641055749206544,23.018428610229492,12.565895749206543Q22.836928610229492,12.490745749206543,22.652028610229493,12.424585749206543Q22.46712861022949,12.358425749206543,22.27922861022949,12.301415749206543Q22.091328610229493,12.244405749206543,21.900728610229493,12.196685749206543Q21.710228610229493,12.148965749206543,21.517628610229494,12.110655749206543Q21.32502861022949,12.072335749206543,21.130828610229493,12.043525749206543Q20.936528610229495,12.014705749206543,20.741028610229492,11.995455749206542Q20.545628610229492,11.976205749206542,20.34952861022949,11.966575749206543Q20.153328610229494,11.956935749206544,19.95692861022949,11.956935749206544Q19.760528610229493,11.956935749206544,19.56442861022949,11.966575749206543Q19.368228610229494,11.976205749206542,19.172828610229494,11.995455749206542Q18.977328610229492,12.014705749206543,18.78312861022949,12.043525749206543Q18.58882861022949,12.072335749206543,18.396228610229493,12.110655749206543Q18.203628610229494,12.148965749206543,18.013128610229494,12.196685749206543Q17.822628610229494,12.244405749206543,17.63462861022949,12.301415749206543Q17.446728610229492,12.358425749206543,17.261828610229493,12.424585749206543Q17.076928610229494,12.490745749206543,16.895428610229494,12.565895749206543Q16.71402861022949,12.641055749206544,16.536528610229492,12.725015749206543Q16.35892861022949,12.808985749206542,16.185728610229493,12.901565749206544Q16.01252861022949,12.994145749206542,15.844128610229491,13.095105749206542Q15.675628610229491,13.196065749206543,15.512328610229492,13.305175749206542Q15.349128610229492,13.414285749206543,15.191328610229492,13.531275749206543Q15.033628610229492,13.648265749206542,14.881788610229492,13.772855749206544Q14.729978610229493,13.897435749206544,14.584468610229493,14.029325749206542Q14.438948610229492,14.161215749206542,14.300078610229493,14.300075749206544Q14.161218610229492,14.438945749206543,14.029328610229491,14.584465749206544Q13.897438610229493,14.729975749206544,13.772858610229493,14.881785749206543Q13.648268610229492,15.033625749206543,13.531278610229492,15.191325749206543Q13.414288610229493,15.349125749206543,13.305178610229492,15.512325749206543Q13.196068610229492,15.675625749206542,13.095108610229492,15.844125749206542Q12.994138610229491,16.012525749206542,12.901568610229493,16.185725749206544Q12.808988610229491,16.35892574920654,12.725018610229492,16.536525749206543Q12.641058610229493,16.71402574920654,12.565898610229493,16.895425749206545Q12.490748610229492,17.076925749206545,12.424588610229492,17.261825749206544Q12.358428610229492,17.446725749206543,12.301418610229492,17.634625749206542Q12.244408610229492,17.822625749206544,12.196688610229492,18.013125749206544Q12.148968610229492,18.203625749206545,12.110658610229493,18.396225749206543Q12.072338610229492,18.588825749206542,12.043528610229492,18.78312574920654Q12.014708610229492,18.977325749206543,11.995458610229491,19.172825749206545Q11.976208610229492,19.368225749206545,11.966578610229492,19.564425749206542Q11.956938610229493,19.760525749206543,11.956938610229493,19.95692574920654Q11.956938610229493,20.153325749206545,11.966578610229492,20.349525749206542Q11.976208610229492,20.545625749206543,11.995458610229491,20.741025749206543Q12.014708610229492,20.936525749206545,12.043528610229492,21.130825749206544Q12.072338610229492,21.325025749206542,12.110658610229493,21.517625749206545Q12.148968610229492,21.710225749206543,12.196688610229492,21.900725749206543Q12.244408610229492,22.091325749206543,12.301418610229492,22.279225749206542Q12.358418610229492,22.46712574920654,12.424588610229492,22.652025749206544Q12.490748610229492,22.836925749206543,12.565898610229493,23.018425749206543Q12.641058610229493,23.199825749206543,12.725018610229492,23.377325749206545Q12.808988610229491,23.554925749206543,12.901568610229493,23.728125749206544Q12.994138610229491,23.901325749206542,13.095108610229492,24.069725749206544Q13.196068610229492,24.238225749206542,13.305178610229492,24.40152574920654Q13.414288610229493,24.564825749206545,13.531278610229492,24.722525749206543Q13.648268610229492,24.88022574920654,13.772858610229493,25.032125749206543Q13.897438610229493,25.183925749206544,14.029328610229491,25.329425749206543Q14.161218610229492,25.474925749206545,14.300078610229493,25.613825749206544Q14.438948610229492,25.752625749206544,14.584468610229493,25.884525749206542Q14.729978610229493,26.016425749206544,14.881788610229492,26.14102574920654Q15.033628610229492,26.265625749206542,15.191328610229492,26.382625749206543Q15.349128610229492,26.499625749206544,15.512328610229492,26.608725749206542Q15.675628610229491,26.717825749206543,15.844128610229491,26.818725749206543Q16.01252861022949,26.919725749206542,16.185728610229493,27.012325749206543Q16.35892861022949,27.104925749206544,16.536528610229492,27.188825749206543Q16.71402861022949,27.272825749206543,16.895428610229494,27.347925749206542Q17.076928610229494,27.423125749206545,17.261828610229493,27.489325749206543Q17.446728610229492,27.55542574920654,17.63462861022949,27.612425749206544Q17.822628610229494,27.669425749206543,18.013128610229494,27.71722574920654Q18.203628610229494,27.764925749206544,18.396228610229493,27.803225749206543Q18.58882861022949,27.841525749206543,18.78312861022949,27.870325749206543Q18.977328610229492,27.899125749206544,19.172828610229494,27.91842574920654Q19.368228610229494,27.937625749206543,19.56442861022949,27.94732574920654Q19.760528610229493,27.956925749206544,19.95692861022949,27.956925749206544Z" fill-rule="evenodd" fill="#323232" fill-opacity="1"/></g><g><ellipse cx="19.956907272338867" cy="19.956934928894043" rx="5" ry="5" fill="#323232" fill-opacity="1"/></g></g></g></svg>