{
	"asset":{
		"generator":"Khronos glTF Blender I/O v4.2.70",
		"version":"2.0"
	},
	"extensionsUsed":[
		"KHR_materials_emissive_strength"
	],
	"scene":0,
	"scenes":[
		{
			"name":"Scene",
			"nodes":[
				0,
				1,
				2,
				3,
				4,
				5,
				6,
				7,
				8,
				9,
				10,
				11,
				12,
				13,
				14,
				15,
				16,
				17,
				18,
				19
			]
		}
	],
	"nodes":[
		{
			"mesh":0,
			"name":"\u5b9e\u4f53.005",
			"scale":[
				100,
				100,
				100
			],
			"translation":[
				2.0280001163482666,
				0.9599999785423279,
				1.899999976158142
			]
		},
		{
			"mesh":1,
			"name":"\u5b9e\u4f53.006",
			"scale":[
				100,
				100,
				100
			],
			"translation":[
				2.427999973297119,
				0.9599999785423279,
				1.899999976158142
			]
		},
		{
			"mesh":2,
			"name":"\u5b9e\u4f53.007",
			"scale":[
				100,
				100,
				100
			],
			"translation":[
				2.828000068664551,
				0.9599999785423279,
				1.899999976158142
			]
		},
		{
			"mesh":3,
			"name":"\u5b9e\u4f53.009",
			"rotation":[
				1,
				0,
				0,
				0
			],
			"scale":[
				100,
				100,
				100
			],
			"translation":[
				2.0280001163482666,
				1.3600000143051147,
				-1.899999976158142
			]
		},
		{
			"mesh":4,
			"name":"\u5b9e\u4f53.008",
			"rotation":[
				1,
				0,
				0,
				0
			],
			"scale":[
				100,
				100,
				100
			],
			"translation":[
				2.427999973297119,
				1.3600000143051147,
				-1.899999976158142
			]
		},
		{
			"mesh":5,
			"name":"\u5b9e\u4f53.003",
			"rotation":[
				1,
				0,
				0,
				0
			],
			"scale":[
				100,
				100,
				100
			],
			"translation":[
				2.825000047683716,
				1.3600000143051147,
				-1.899999976158142
			]
		},
		{
			"mesh":6,
			"name":"Pad.001",
			"scale":[
				100,
				100,
				100
			],
			"translation":[
				-4,
				0.9599999785423279,
				-1.25
			]
		},
		{
			"mesh":7,
			"name":"Pad.002",
			"scale":[
				100,
				100,
				100
			],
			"translation":[
				-4,
				0.9599999785423279,
				1.2500038146972656
			]
		},
		{
			"mesh":8,
			"name":"Pad.003",
			"rotation":[
				0,
				-0.44290485978126526,
				0,
				0.8965685963630676
			],
			"scale":[
				100,
				100,
				100
			],
			"translation":[
				1.9429999589920044,
				0.9599999785423279,
				-0.32269999384880066
			]
		},
		{
			"mesh":9,
			"name":"Pad.004",
			"rotation":[
				0,
				-0.8651400208473206,
				0,
				0.5015304684638977
			],
			"scale":[
				99.99998474121094,
				100,
				99.99998474121094
			],
			"translation":[
				1.9587225914001465,
				0.9599999785423279,
				0.33365148305892944
			]
		},
		{
			"mesh":10,
			"name":"Pocket.001",
			"rotation":[
				0,
				0,
				-0.7071068286895752,
				0.7071068286895752
			],
			"scale":[
				99.99999237060547,
				99.99999237060547,
				100
			],
			"translation":[
				-5,
				0.6000000238418579,
				0.8500000238418579
			]
		},
		{
			"mesh":11,
			"name":"Body",
			"scale":[
				100,
				100,
				100
			],
			"translation":[
				-5,
				0.699999988079071,
				0
			]
		},
		{
			"mesh":12,
			"name":"Pad",
			"rotation":[
				0.4999215602874756,
				-0.5000784397125244,
				0.5000784397125244,
				0.4999215304851532
			],
			"scale":[
				70,
				120.00000762939453,
				20
			],
			"translation":[
				-4.2494001388549805,
				0.699999988079071,
				0
			]
		},
		{
			"mesh":13,
			"name":"Pocket",
			"rotation":[
				0,
				0,
				-0.7071068286895752,
				0.7071068286895752
			],
			"scale":[
				99.99999237060547,
				99.99999237060547,
				100
			],
			"translation":[
				-5,
				0.6000000238418579,
				-0.8500000238418579
			]
		},
		{
			"mesh":14,
			"name":"\u5b9e\u4f53.004",
			"rotation":[
				0,
				0.38330328464508057,
				0,
				0.9236225485801697
			],
			"scale":[
				140,
				150,
				140
			],
			"translation":[
				-4.190000057220459,
				0.5499999523162842,
				2
			]
		},
		{
			"mesh":15,
			"name":"\u5b9e\u4f53.002",
			"rotation":[
				0,
				-0.38330328464508057,
				0,
				0.9236225485801697
			],
			"scale":[
				140,
				150,
				140
			],
			"translation":[
				-4.189963340759277,
				0.5499999523162842,
				-2
			]
		},
		{
			"mesh":16,
			"name":"Pocket001",
			"scale":[
				100,
				100,
				100
			],
			"translation":[
				0,
				1.0700000524520874,
				0
			]
		},
		{
			"mesh":17,
			"name":"\u5b9e\u4f53",
			"scale":[
				100,
				100,
				100
			]
		},
		{
			"mesh":18,
			"name":"\u5b9e\u4f53.001",
			"scale":[
				100,
				100,
				100
			],
			"translation":[
				0,
				0.029999999329447746,
				0
			]
		},
		{
			"mesh":19,
			"name":"\u7a7a\u7269\u4f53.001",
			"rotation":[
				0,
				0.7071067094802856,
				0,
				0.70710688829422
			],
			"scale":[
				1.9299999475479126,
				1.9299999475479126,
				1.9299999475479126
			],
			"translation":[
				0,
				1.3973193168640137,
				0
			]
		}
	],
	"materials":[
		{
			"doubleSided":true,
			"emissiveFactor":[
				0.28476789593696594,
				0.015452438965439796,
				1
			],
			"extensions":{
				"KHR_materials_emissive_strength":{
					"emissiveStrength":5
				}
			},
			"name":"mat_0.016",
			"pbrMetallicRoughness":{
				"baseColorFactor":[
					0,
					0,
					0,
					1
				]
			}
		},
		{
			"doubleSided":true,
			"emissiveFactor":[
				0.28476789593696594,
				0.015452438965439796,
				1
			],
			"extensions":{
				"KHR_materials_emissive_strength":{
					"emissiveStrength":5
				}
			},
			"name":"mat_0.020",
			"pbrMetallicRoughness":{
				"baseColorFactor":[
					0,
					0,
					0,
					1
				]
			}
		},
		{
			"doubleSided":true,
			"emissiveFactor":[
				0.03639628738164902,
				0.9252415895462036,
				1
			],
			"extensions":{
				"KHR_materials_emissive_strength":{
					"emissiveStrength":5
				}
			},
			"name":"mat_0.022",
			"pbrMetallicRoughness":{
				"baseColorFactor":[
					0,
					0,
					0,
					1
				]
			}
		},
		{
			"doubleSided":true,
			"emissiveFactor":[
				1,
				0.952293838148474,
				0.0013311751731349799
			],
			"extensions":{
				"KHR_materials_emissive_strength":{
					"emissiveStrength":2.919469475746155
				}
			},
			"name":"mat_0",
			"pbrMetallicRoughness":{
				"baseColorFactor":[
					0,
					0,
					0,
					1
				]
			}
		},
		{
			"doubleSided":true,
			"emissiveFactor":[
				1,
				0.952293838148474,
				0.0013311751731349799
			],
			"extensions":{
				"KHR_materials_emissive_strength":{
					"emissiveStrength":2.919469475746155
				}
			},
			"name":"mat_0.017",
			"pbrMetallicRoughness":{
				"baseColorFactor":[
					0,
					0,
					0,
					1
				]
			}
		},
		{
			"doubleSided":true,
			"name":"mat_0.004",
			"pbrMetallicRoughness":{
				"baseColorFactor":[
					0.30000001192092896,
					0.30000001192092896,
					0.30000001192092896,
					1
				]
			}
		},
		{
			"doubleSided":true,
			"name":"mat_0.003",
			"pbrMetallicRoughness":{
				"baseColorFactor":[
					0.03279915824532509,
					0.03279944136738777,
					0.03279944136738777,
					1
				]
			}
		},
		{
			"doubleSided":true,
			"name":"mat_0.001",
			"pbrMetallicRoughness":{
				"baseColorFactor":[
					0.019382229074835777,
					0.019382374361157417,
					0.01938236691057682,
					1
				],
				"roughnessFactor":0.5
			}
		},
		{
			"doubleSided":true,
			"name":"\u6750\u8d28.001",
			"pbrMetallicRoughness":{
				"baseColorFactor":[
					1,
					0.679543137550354,
					0.3662528693675995,
					1
				],
				"roughnessFactor":0.5
			}
		},
		{
			"alphaMode":"BLEND",
			"doubleSided":true,
			"name":"QQ\u622a\u56fe20241218190905",
			"pbrMetallicRoughness":{
				"baseColorTexture":{
					"index":0
				},
				"metallicFactor":0,
				"roughnessFactor":0.5
			}
		}
	],
	"meshes":[
		{
			"name":"\u5b9e\u4f53.008",
			"primitives":[
				{
					"attributes":{
						"POSITION":0,
						"NORMAL":1
					},
					"indices":2,
					"material":0
				}
			]
		},
		{
			"name":"\u5b9e\u4f53.009",
			"primitives":[
				{
					"attributes":{
						"POSITION":3,
						"NORMAL":4
					},
					"indices":2,
					"material":0
				}
			]
		},
		{
			"name":"\u5b9e\u4f53.010",
			"primitives":[
				{
					"attributes":{
						"POSITION":5,
						"NORMAL":6
					},
					"indices":2,
					"material":0
				}
			]
		},
		{
			"name":"\u5b9e\u4f53.016",
			"primitives":[
				{
					"attributes":{
						"POSITION":7,
						"NORMAL":8
					},
					"indices":2,
					"material":1
				}
			]
		},
		{
			"name":"\u5b9e\u4f53.015",
			"primitives":[
				{
					"attributes":{
						"POSITION":9,
						"NORMAL":10
					},
					"indices":2,
					"material":1
				}
			]
		},
		{
			"name":"\u5b9e\u4f53.014",
			"primitives":[
				{
					"attributes":{
						"POSITION":11,
						"NORMAL":12
					},
					"indices":2,
					"material":1
				}
			]
		},
		{
			"name":"Pad.007",
			"primitives":[
				{
					"attributes":{
						"POSITION":13,
						"NORMAL":14
					},
					"indices":15,
					"material":2
				}
			]
		},
		{
			"name":"Pad.008",
			"primitives":[
				{
					"attributes":{
						"POSITION":16,
						"NORMAL":17
					},
					"indices":15,
					"material":2
				}
			]
		},
		{
			"name":"Pad.001",
			"primitives":[
				{
					"attributes":{
						"POSITION":18,
						"NORMAL":19
					},
					"indices":20,
					"material":3
				}
			]
		},
		{
			"name":"Pad.005",
			"primitives":[
				{
					"attributes":{
						"POSITION":21,
						"NORMAL":22
					},
					"indices":20,
					"material":4
				}
			]
		},
		{
			"name":"Pocket.001",
			"primitives":[
				{
					"attributes":{
						"POSITION":23,
						"NORMAL":24
					},
					"indices":25,
					"material":5
				}
			]
		},
		{
			"name":"Body",
			"primitives":[
				{
					"attributes":{
						"POSITION":26,
						"NORMAL":27
					},
					"indices":28,
					"material":5
				}
			]
		},
		{
			"name":"Pad",
			"primitives":[
				{
					"attributes":{
						"POSITION":29,
						"NORMAL":30
					},
					"indices":31,
					"material":5
				}
			]
		},
		{
			"name":"Pocket",
			"primitives":[
				{
					"attributes":{
						"POSITION":32,
						"NORMAL":33
					},
					"indices":25,
					"material":5
				}
			]
		},
		{
			"name":"\u5b9e\u4f53.004",
			"primitives":[
				{
					"attributes":{
						"POSITION":34,
						"NORMAL":35
					},
					"indices":36,
					"material":6
				}
			]
		},
		{
			"name":"\u5b9e\u4f53.002",
			"primitives":[
				{
					"attributes":{
						"POSITION":37,
						"NORMAL":38
					},
					"indices":36,
					"material":6
				}
			]
		},
		{
			"name":"Pocket001",
			"primitives":[
				{
					"attributes":{
						"POSITION":39,
						"NORMAL":40
					},
					"indices":41,
					"material":7
				}
			]
		},
		{
			"name":"\u5b9e\u4f53",
			"primitives":[
				{
					"attributes":{
						"POSITION":42,
						"NORMAL":43
					},
					"indices":44,
					"material":8
				}
			]
		},
		{
			"name":"\u5b9e\u4f53.001",
			"primitives":[
				{
					"attributes":{
						"POSITION":45,
						"NORMAL":46
					},
					"indices":47,
					"material":7
				}
			]
		},
		{
			"name":"\u7a7a\u7269\u4f53",
			"primitives":[
				{
					"attributes":{
						"POSITION":48,
						"NORMAL":49,
						"TEXCOORD_0":50
					},
					"indices":51,
					"material":9
				}
			]
		}
	],
	"textures":[
		{
			"sampler":0,
			"source":0
		}
	],
	"images":[
		{
			"mimeType":"image/png",
			"name":"QQ\u622a\u56fe20241218190905",
			"uri":"1/QQ%E6%88%AA%E5%9B%BE20241218190905.png"
		}
	],
	"accessors":[
		{
			"bufferView":0,
			"componentType":5126,
			"count":24,
			"max":[
				0.004832644015550613,
				0.004000000189989805,
				0.0041202097199857235
			],
			"min":[
				0,
				0,
				0
			],
			"type":"VEC3"
		},
		{
			"bufferView":1,
			"componentType":5126,
			"count":24,
			"type":"VEC3"
		},
		{
			"bufferView":2,
			"componentType":5123,
			"count":36,
			"type":"SCALAR"
		},
		{
			"bufferView":3,
			"componentType":5126,
			"count":24,
			"max":[
				0.004832644015550613,
				0.004000000189989805,
				0.0041202097199857235
			],
			"min":[
				0,
				0,
				0
			],
			"type":"VEC3"
		},
		{
			"bufferView":4,
			"componentType":5126,
			"count":24,
			"type":"VEC3"
		},
		{
			"bufferView":5,
			"componentType":5126,
			"count":24,
			"max":[
				0.004832644015550613,
				0.004000000189989805,
				0.0041202097199857235
			],
			"min":[
				0,
				0,
				0
			],
			"type":"VEC3"
		},
		{
			"bufferView":6,
			"componentType":5126,
			"count":24,
			"type":"VEC3"
		},
		{
			"bufferView":7,
			"componentType":5126,
			"count":24,
			"max":[
				0.004832644015550613,
				0.004000000189989805,
				0.0041202097199857235
			],
			"min":[
				0,
				0,
				0
			],
			"type":"VEC3"
		},
		{
			"bufferView":8,
			"componentType":5126,
			"count":24,
			"type":"VEC3"
		},
		{
			"bufferView":9,
			"componentType":5126,
			"count":24,
			"max":[
				0.004832644015550613,
				0.004000000189989805,
				0.0041202097199857235
			],
			"min":[
				0,
				0,
				0
			],
			"type":"VEC3"
		},
		{
			"bufferView":10,
			"componentType":5126,
			"count":24,
			"type":"VEC3"
		},
		{
			"bufferView":11,
			"componentType":5126,
			"count":24,
			"max":[
				0.004832644015550613,
				0.004000000189989805,
				0.0041202097199857235
			],
			"min":[
				0,
				0,
				0
			],
			"type":"VEC3"
		},
		{
			"bufferView":12,
			"componentType":5126,
			"count":24,
			"type":"VEC3"
		},
		{
			"bufferView":13,
			"componentType":5126,
			"count":494,
			"max":[
				0.0010000000474974513,
				0.004000000189989805,
				0.000999903422780335
			],
			"min":[
				-0.0009996135486289859,
				0,
				-0.000999903422780335
			],
			"type":"VEC3"
		},
		{
			"bufferView":14,
			"componentType":5126,
			"count":494,
			"type":"VEC3"
		},
		{
			"bufferView":15,
			"componentType":5123,
			"count":1344,
			"type":"SCALAR"
		},
		{
			"bufferView":16,
			"componentType":5126,
			"count":494,
			"max":[
				0.0010000000474974513,
				0.004000000189989805,
				0.000999903422780335
			],
			"min":[
				-0.0009996135486289859,
				0,
				-0.000999903422780335
			],
			"type":"VEC3"
		},
		{
			"bufferView":17,
			"componentType":5126,
			"count":494,
			"type":"VEC3"
		},
		{
			"bufferView":18,
			"componentType":5126,
			"count":193,
			"max":[
				0.00139999995008111,
				0.004000000189989805,
				7.216449808956028e-19
			],
			"min":[
				-0.00139999995008111,
				0,
				-0.0009614835144020617
			],
			"type":"VEC3"
		},
		{
			"bufferView":19,
			"componentType":5126,
			"count":193,
			"type":"VEC3"
		},
		{
			"bufferView":20,
			"componentType":5123,
			"count":528,
			"type":"SCALAR"
		},
		{
			"bufferView":21,
			"componentType":5126,
			"count":193,
			"max":[
				0.00139999995008111,
				0.004000000189989805,
				7.216449808956028e-19
			],
			"min":[
				-0.00139999995008111,
				0,
				-0.0009614835144020617
			],
			"type":"VEC3"
		},
		{
			"bufferView":22,
			"componentType":5126,
			"count":193,
			"type":"VEC3"
		},
		{
			"bufferView":23,
			"componentType":5126,
			"count":1018,
			"max":[
				0.0020000000949949026,
				0.013000000268220901,
				0.00199980684556067
			],
			"min":[
				-0.0019992270972579718,
				-1.6163464856949559e-18,
				-0.00199980684556067
			],
			"type":"VEC3"
		},
		{
			"bufferView":24,
			"componentType":5126,
			"count":1018,
			"type":"VEC3"
		},
		{
			"bufferView":25,
			"componentType":5123,
			"count":2700,
			"type":"SCALAR"
		},
		{
			"bufferView":26,
			"componentType":5126,
			"count":1024,
			"max":[
				0.013000000268220901,
				0.0024999999441206455,
				0.005498661193996668
			],
			"min":[
				-5.189753910624541e-18,
				-0.0024999999441206455,
				-0.005498661193996668
			],
			"type":"VEC3"
		},
		{
			"bufferView":27,
			"componentType":5126,
			"count":1024,
			"type":"VEC3"
		},
		{
			"bufferView":28,
			"componentType":5123,
			"count":2772,
			"type":"SCALAR"
		},
		{
			"bufferView":29,
			"componentType":5126,
			"count":267,
			"max":[
				0.0034992219880223274,
				0.004000000189989805,
				0.001500000013038516
			],
			"min":[
				-0.0034992219880223274,
				-1.6655012800056132e-18,
				-0.001500000013038516
			],
			"type":"VEC3"
		},
		{
			"bufferView":30,
			"componentType":5126,
			"count":267,
			"type":"VEC3"
		},
		{
			"bufferView":31,
			"componentType":5123,
			"count":708,
			"type":"SCALAR"
		},
		{
			"bufferView":32,
			"componentType":5126,
			"count":1018,
			"max":[
				0.0020000000949949026,
				0.013000000268220901,
				0.00199980684556067
			],
			"min":[
				-0.0019992270972579718,
				-1.6163464856949559e-18,
				-0.00199980684556067
			],
			"type":"VEC3"
		},
		{
			"bufferView":33,
			"componentType":5126,
			"count":1018,
			"type":"VEC3"
		},
		{
			"bufferView":34,
			"componentType":5126,
			"count":13517,
			"max":[
				0.004910633899271488,
				0.0020000000949949026,
				0.004885092377662659
			],
			"min":[
				-0.005009999964386225,
				-1.000000045813705e-18,
				-0.004885092377662659
			],
			"type":"VEC3"
		},
		{
			"bufferView":35,
			"componentType":5126,
			"count":13517,
			"type":"VEC3"
		},
		{
			"bufferView":36,
			"componentType":5123,
			"count":42000,
			"type":"SCALAR"
		},
		{
			"bufferView":37,
			"componentType":5126,
			"count":13517,
			"max":[
				0.004910633899271488,
				0.0020000000949949026,
				0.004885092377662659
			],
			"min":[
				-0.005009999964386225,
				-1.000000045813705e-18,
				-0.004885092377662659
			],
			"type":"VEC3"
		},
		{
			"bufferView":38,
			"componentType":5126,
			"count":13517,
			"type":"VEC3"
		},
		{
			"bufferView":39,
			"componentType":5126,
			"count":2678,
			"max":[
				0.04899999871850014,
				0.003000000026077032,
				0.027000000700354576
			],
			"min":[
				-0.04899999871850014,
				0,
				-0.027000000700354576
			],
			"type":"VEC3"
		},
		{
			"bufferView":40,
			"componentType":5126,
			"count":2678,
			"type":"VEC3"
		},
		{
			"bufferView":41,
			"componentType":5123,
			"count":7548,
			"type":"SCALAR"
		},
		{
			"bufferView":42,
			"componentType":5126,
			"count":6806,
			"max":[
				0.05000000074505806,
				0.014000000432133675,
				0.02800000086426735
			],
			"min":[
				-0.05000000074505806,
				-6.20337110707967e-18,
				-0.02800000086426735
			],
			"type":"VEC3"
		},
		{
			"bufferView":43,
			"componentType":5126,
			"count":6806,
			"type":"VEC3"
		},
		{
			"bufferView":44,
			"componentType":5123,
			"count":19164,
			"type":"SCALAR"
		},
		{
			"bufferView":45,
			"componentType":5126,
			"count":1256,
			"max":[
				0.04899999871850014,
				0.003000000026077032,
				0.027000000700354576
			],
			"min":[
				-0.04899999871850014,
				0,
				-0.027000000700354576
			],
			"type":"VEC3"
		},
		{
			"bufferView":46,
			"componentType":5126,
			"count":1256,
			"type":"VEC3"
		},
		{
			"bufferView":47,
			"componentType":5123,
			"count":3348,
			"type":"SCALAR"
		},
		{
			"bufferView":48,
			"componentType":5126,
			"count":10404,
			"max":[
				1.1362468004226685,
				0,
				2.5
			],
			"min":[
				-1.1362468004226685,
				0,
				-2.5215487480163574
			],
			"type":"VEC3"
		},
		{
			"bufferView":49,
			"componentType":5126,
			"count":10404,
			"type":"VEC3"
		},
		{
			"bufferView":50,
			"componentType":5126,
			"count":10404,
			"type":"VEC2"
		},
		{
			"bufferView":51,
			"componentType":5123,
			"count":61206,
			"type":"SCALAR"
		}
	],
	"bufferViews":[
		{
			"buffer":0,
			"byteLength":288,
			"byteOffset":0,
			"target":34962
		},
		{
			"buffer":0,
			"byteLength":288,
			"byteOffset":288,
			"target":34962
		},
		{
			"buffer":0,
			"byteLength":72,
			"byteOffset":576,
			"target":34963
		},
		{
			"buffer":0,
			"byteLength":288,
			"byteOffset":648,
			"target":34962
		},
		{
			"buffer":0,
			"byteLength":288,
			"byteOffset":936,
			"target":34962
		},
		{
			"buffer":0,
			"byteLength":288,
			"byteOffset":1224,
			"target":34962
		},
		{
			"buffer":0,
			"byteLength":288,
			"byteOffset":1512,
			"target":34962
		},
		{
			"buffer":0,
			"byteLength":288,
			"byteOffset":1800,
			"target":34962
		},
		{
			"buffer":0,
			"byteLength":288,
			"byteOffset":2088,
			"target":34962
		},
		{
			"buffer":0,
			"byteLength":288,
			"byteOffset":2376,
			"target":34962
		},
		{
			"buffer":0,
			"byteLength":288,
			"byteOffset":2664,
			"target":34962
		},
		{
			"buffer":0,
			"byteLength":288,
			"byteOffset":2952,
			"target":34962
		},
		{
			"buffer":0,
			"byteLength":288,
			"byteOffset":3240,
			"target":34962
		},
		{
			"buffer":0,
			"byteLength":5928,
			"byteOffset":3528,
			"target":34962
		},
		{
			"buffer":0,
			"byteLength":5928,
			"byteOffset":9456,
			"target":34962
		},
		{
			"buffer":0,
			"byteLength":2688,
			"byteOffset":15384,
			"target":34963
		},
		{
			"buffer":0,
			"byteLength":5928,
			"byteOffset":18072,
			"target":34962
		},
		{
			"buffer":0,
			"byteLength":5928,
			"byteOffset":24000,
			"target":34962
		},
		{
			"buffer":0,
			"byteLength":2316,
			"byteOffset":29928,
			"target":34962
		},
		{
			"buffer":0,
			"byteLength":2316,
			"byteOffset":32244,
			"target":34962
		},
		{
			"buffer":0,
			"byteLength":1056,
			"byteOffset":34560,
			"target":34963
		},
		{
			"buffer":0,
			"byteLength":2316,
			"byteOffset":35616,
			"target":34962
		},
		{
			"buffer":0,
			"byteLength":2316,
			"byteOffset":37932,
			"target":34962
		},
		{
			"buffer":0,
			"byteLength":12216,
			"byteOffset":40248,
			"target":34962
		},
		{
			"buffer":0,
			"byteLength":12216,
			"byteOffset":52464,
			"target":34962
		},
		{
			"buffer":0,
			"byteLength":5400,
			"byteOffset":64680,
			"target":34963
		},
		{
			"buffer":0,
			"byteLength":12288,
			"byteOffset":70080,
			"target":34962
		},
		{
			"buffer":0,
			"byteLength":12288,
			"byteOffset":82368,
			"target":34962
		},
		{
			"buffer":0,
			"byteLength":5544,
			"byteOffset":94656,
			"target":34963
		},
		{
			"buffer":0,
			"byteLength":3204,
			"byteOffset":100200,
			"target":34962
		},
		{
			"buffer":0,
			"byteLength":3204,
			"byteOffset":103404,
			"target":34962
		},
		{
			"buffer":0,
			"byteLength":1416,
			"byteOffset":106608,
			"target":34963
		},
		{
			"buffer":0,
			"byteLength":12216,
			"byteOffset":108024,
			"target":34962
		},
		{
			"buffer":0,
			"byteLength":12216,
			"byteOffset":120240,
			"target":34962
		},
		{
			"buffer":0,
			"byteLength":162204,
			"byteOffset":132456,
			"target":34962
		},
		{
			"buffer":0,
			"byteLength":162204,
			"byteOffset":294660,
			"target":34962
		},
		{
			"buffer":0,
			"byteLength":84000,
			"byteOffset":456864,
			"target":34963
		},
		{
			"buffer":0,
			"byteLength":162204,
			"byteOffset":540864,
			"target":34962
		},
		{
			"buffer":0,
			"byteLength":162204,
			"byteOffset":703068,
			"target":34962
		},
		{
			"buffer":0,
			"byteLength":32136,
			"byteOffset":865272,
			"target":34962
		},
		{
			"buffer":0,
			"byteLength":32136,
			"byteOffset":897408,
			"target":34962
		},
		{
			"buffer":0,
			"byteLength":15096,
			"byteOffset":929544,
			"target":34963
		},
		{
			"buffer":0,
			"byteLength":81672,
			"byteOffset":944640,
			"target":34962
		},
		{
			"buffer":0,
			"byteLength":81672,
			"byteOffset":1026312,
			"target":34962
		},
		{
			"buffer":0,
			"byteLength":38328,
			"byteOffset":1107984,
			"target":34963
		},
		{
			"buffer":0,
			"byteLength":15072,
			"byteOffset":1146312,
			"target":34962
		},
		{
			"buffer":0,
			"byteLength":15072,
			"byteOffset":1161384,
			"target":34962
		},
		{
			"buffer":0,
			"byteLength":6696,
			"byteOffset":1176456,
			"target":34963
		},
		{
			"buffer":0,
			"byteLength":124848,
			"byteOffset":1183152,
			"target":34962
		},
		{
			"buffer":0,
			"byteLength":124848,
			"byteOffset":1308000,
			"target":34962
		},
		{
			"buffer":0,
			"byteLength":83232,
			"byteOffset":1432848,
			"target":34962
		},
		{
			"buffer":0,
			"byteLength":122412,
			"byteOffset":1516080,
			"target":34963
		}
	],
	"samplers":[
		{
			"magFilter":9728,
			"minFilter":9984,
			"wrapS":33071,
			"wrapT":33071
		}
	],
	"buffers":[
		{
			"byteLength":1638492,
			"uri":"dg-lab-v3.bin"
		}
	]
}
