<?xml version="1.0" encoding="UTF-8"?>
<svg id="_图层_1" data-name="图层 1" xmlns="http://www.w3.org/2000/svg" viewBox="0 0 830 830">
  <defs>
    <style>
      .cls-1 {
        fill: #dddfe2;
      }

      .cls-2 {
        fill: #4f5a66;
      }

      .cls-3 {
        fill: #c8cbd0;
      }

      .cls-4 {
        fill: #9ba2aa;
      }

      .cls-5 {
        fill: #4f5b66;
      }

      .cls-6 {
        fill: #c7cbcf;
      }

      .cls-7 {
        fill: none;
      }

      .cls-8 {
        fill: #243340;
      }

      .cls-9 {
        fill: #1d2c39;
      }

      .cls-10 {
        fill: #dcdfe2;
      }

      .cls-11 {
        fill: #fbfbfc;
      }

      .cls-12 {
        fill: #fefefe;
      }

      .cls-13 {
        fill: #22313f;
      }

      .cls-14 {
        fill: #4f5a65;
      }

      .cls-15 {
        fill: #505b66;
      }
    </style>
  </defs>
  <rect class="cls-7" x="-97" y="-97" width="1024" height="1024"/>
  <path class="cls-15" d="M634,124.14c-.66,12.43-.82,26.57,0,39-.49,7.42-1.19,14.98-2.14,22.36-.95,7.34-5.2,22.19-4.92,28.13.22,4.74,7.88,21.51,9.57,28.5,3.55,14.69,5.77,32.18,3.5,46.99,4.59.77,20.27,2.33,21.56,6.92,6.08,21.6-22.01,8.48-23.56,10.09-1.26,13.63-5.77,26.91-12,38.98,10.03,5.13,27.98,14.92,13,26.01,1.79,0,3.59-.12,5.37.14,23.14,3.36,52.58,6.79,74.83,12.17,3.93.95,7.35,1.96,10.73,4.27,20.76,26.11,41.67,52.58,61.46,79.54,9.54,13,20.47,23.97,1.29,36.09l-65.64,14.85v160.5c-.78,3-.42,7.81-1.05,10.45l1.53,1.98c-.33,5.75-12.85,19.24-18.49,20.78-95.24,25.94-192.23,52.32-287.03,75.58-9.81,2.41-17.93,2.74-27.47.48-37.21-8.79-76.02-18.5-113.78-28.53-59.27-15.74-118.57-31.56-177.77-47.53-3.69-1-10.13-7.03-12.57-10.1-1.77-2.22-5.21-7.17-3.41-9.66l-2.04-11.46v-168.49s-66.34-15.17-66.34-15.17c-16.85-10.82-8.8-20.68-.02-32.77,20.1-27.67,42.39-53.83,62.43-81.57,4.48-5.89,10.57-8.3,17.76-9.24l177.2-29.3-7.09-16.4-1.56-1.48c-7.55-.15-25.27,7.48-31.41,5.45-4.2-1.39-6.04-8.46-4.2-12.33,2.89-6.11,25.5-7.52,31.85-10.16l-1.53-23.46c-.55-2.08-25.9-2.71-30.11-4.06-5.01-1.61-6.81-10.66-2.92-14.02,2.79-2.41,15.16-1.71,19.46-1.52,2.91.13,10.91,2.11,13.05,1.74.69-.12,1.1-.73,1.32-1.39,1.07-18.03,6.83-35.47,14.28-51.72,2.17-4.74,10.12-16.82,10.69-20.39s-1.73-10.71-1.88-14.7c-.94-25.97.87-55.6,10.02-80.07,12.98-34.71,33.59-29.43,59.75-11.7,16.94,11.48,31.07,26.17,44.98,41.03,9.69-.09,19.23-3.56,28.92-4.67,19.48-2.23,41.35-1.77,60.56,2.19,6.4,1.32,19.23,7.16,24.19,4.56,21.85-17.59,72.48-61.39,101.85-47.6,14.08,6.61,16.51,27.1,17.77,40.73Z"/>
  <path class="cls-10" d="M726,689.14c11.76,3.51,24.63,5.05,36.21,9.29,14.27,5.23,17.68,15.16,2.07,21.48-108.4,27.54-215.47,61.2-324.06,87.94-30.71,7.56-36.69,7.53-67.43,0-108.29-26.52-214.84-60.98-323.06-87.94-13.74-4.62-13-15.3.06-20.49,4.88-1.94,30.49-8.64,34.76-8.4,1.91.11,1.34,1.61,1.68,1.88.24.19.73-.78.78-.76.57.25,3.32,6.2,4.59,7.91,2.78,3.75,7.82,7.94,12.03,9.97,94.48,23.15,188.08,52.41,282.95,74.05,11.43,2.61,17.54,4.72,29.47,2.63,7.13-1.25,15.17-3.88,22.37-5.63,90.33-21.97,180.14-47.3,269.95-71.05,7.53-3.66,15.67-12.65,17.62-20.88Z"/>
  <path class="cls-14" d="M167.8,27.44c48.35-4.21,92.36,29.21,81.9,80.9-6.82,33.71-44.75,40.58-53.43,65.57-2.43,6.99-1.09,21.45-6.35,24.65-4.16,2.53-25.59,2.87-28.94-.9-3.71-4.17-1.89-20.09-.7-25.75,7.59-36.22,42.34-41.88,51.59-66.41,16.07-42.6-57.44-61.44-75.06-17.06-2.1,5.3-2.63,16.07-7.54,18.46-3.46,1.68-20.56,1.92-24.55,1.02-14.19-3.18-2.85-34.38,1.87-42.71,12.18-21.5,36.85-35.66,61.22-37.78Z"/>
  <path class="cls-14" d="M171.74,222.38c30.56-5.19,34.05,38.03,6.68,41.67-29.09,3.87-31.71-37.41-6.68-41.67Z"/>
  <path class="cls-8" d="M634,163.14c-1.66-1.04-1-3.79-1.02-5.49-.1-9.33-.12-18.7,0-28.03.02-1.69-.64-4.45,1.02-5.49,1.2,12.96.86,26.03,0,39Z"/>
  <path class="cls-6" d="M622,287.14h-28.5c-2.58,0-11.83,1.56-14.72,2.28-3.32.82-6.65,1.68-7.51,5.47-3.91,17.2,14.96,9.62,24.18,9.21,8.14-.36,16.4.35,24.54.05-1.56,10.69-5.66,20.79-9.01,31-8.65-1.82-32.14-16.04-40.03-13.57-6.95,2.17-5.88,12.06-.46,15.58l30.5,13.01c1.65,2.17-22.84,24.84-27.05,26.5-3.38,1.33-4.93-2.45-7.62-4.34-18.3-12.92-40.51-15.96-62.34-11.68-31.56,6.18-57.8,34.16-49.99,67.5l-47.5,7.79-52.5-9.79c3.12-5.54,4.15-11.78,5.01-17.99,6.92,1.29,20.25,8.56,23.32-1.16,3.75-11.86-7.66-11.02-15.58-14.09-14.44-5.61-10.53-5.62-19.24-15.76-6.72-7.82-14.52-14.08-24.25-17.75-4.44-1.67-15.11-3.17-17.7-5.3s-13.37-18.93-15.37-22.63c-1.58-2.92-2.34-6.07-4.18-8.82,24.05-1.34,19.38-23.77-4-16.49-.68-5.52-1.21-11.05-1.96-16.57-.45-3.35,7.63.29,9.57.48,6.83.64,9.94-3.29,8.97-9.93-1.17-8-11.07-7.81-17.53-9.03.27-16.53,6.2-33.4,13.08-48.31,2.6-5.62,11.7-19.17,12.65-23.35,1.99-8.79-2.21-31.46-1.83-42.83.44-13.36,2.82-29.62,6.54-42.46,1.77-6.12,5.51-21,12.98-21.04,10.46-.06,42.62,27.28,50.54,35.51,4.62,4.8,14,19.02,19.68,20.31,7.13,1.62,20.25-3.23,28.08-4.5,25.07-4.07,51.55-3.66,75.99,3.43,4.31,1.25,10.53,5.25,14.7,5.29,8.52.07,21.13-14.53,28.04-19.98,12.71-10,42.38-31.67,57.98-33.01,12.29-1.06,12.42,5.18,14.2,15.78,3.81,22.7,1.52,53.55-2,76.42-.89,5.75-4.99,17.57-4.67,22.17.29,4.16,7.23,18.23,8.98,24.1,4.69,15.79,6.95,31.99,5.98,48.52Z"/>
  <path class="cls-12" d="M415,480.14l2.36.75c.3,9.37.75,18.68,1.34,27.93l61.88,86.54c5.34,6.28,13.44,9.55,21.65,8.78l201.75-45.08c.81-11.63.82-23.27.02-34.92,2.22-.16,2.96-.06,4,2,.71,51.99.71,103.99,0,156-2.12,5.41-3.32,10.24-9.78,11.72-87.79,21.99-175.09,45.97-262.8,68.2-5.9,1.5-12.5,3.56-18.35,4.67-.95.18-1.98,1.02-2.07-.6v-286Z"/>
  <path class="cls-12" d="M396,767.14l-280.01-72.49c-2.38-.8-5.68-1.79-7.51-3.49s-3.64-8.07-4.48-8.02c-.88-53.99-.9-111.55,0-166,2.23-.21,10.03,2.34,13,3,.55,5.19-9.65,2.28-11-1,.78.21,1.95.56,2,1.17.51,6.62,1.11,27.69,0,33.36l-2,1.47,1.14-1.79,215.99,50.56c8.14,1.68,15.06-2.1,20.08-8.38s9.63-13.3,13.98-20.26c12.72-20.34,24.27-41.44,35.39-62.65l3.41-2.49v257Z"/>
  <path class="cls-12" d="M30,481.13l66.68-85.78c51.14,9.82,102,22.32,153.66,28.95,12.13,18.06,32.19,27.25,53.86,22.54,6.2-1.35,14.93-6.82,20.25-6.73,8.74.15,49.05,8.18,58.01,11.07,1.03.33,1.86.31,2.52,1.45l-63.54,91.45-4.99,3.02L30,481.13Z"/>
  <path class="cls-12" d="M781,487.14l-270.99,62.52c-5.72,1.07-13.17,3.76-17.45-1.57l-66.04-92.96-.52-2.97,40.45-6.96c34.8,18.55,83.84,18.79,107.5-16.6l142.54-25.45c1.99.2,4.14,3.07,5.48,4.53,20.34,22.25,37.11,52.71,57.42,75.58l1.61,3.89Z"/>
  <path class="cls-1" d="M396,473.14v37c-1.89,3.92-3.71,7.85-5.83,11.67-11.65,21.04-30.22,55.37-44.34,73.66-5.87,7.6-12.99,12.3-23.07,10.41l-216.75-50.74v-36c3.56-.42,8.09,3.59,11,1,65.09,14.4,129.75,30.94,194.76,45.74,10.94,1.38,17.08-1.23,24.21-9.27l59.04-84.96.99,1.49Z"/>
  <path class="cls-10" d="M704,524.14c1.9.95,1.93,1.39,2.07,3.41.44,6.4.99,25.58-.06,31.11-.22,1.18-.37,1.98-1.7,2.3l-201.82,45.17c-8.91.88-17.69-2.67-23.46-9.5l-62.1-86.9c-3.24-7.6,1.3-21.39-1.93-29.57v-7c.46-2.02,1.26,0,1.82.67,23.01,27.57,41.51,62.57,64.19,90.81,5.53,4.73,12.05,7.47,19.48,6.49l203.51-46.98Z"/>
  <path class="cls-3" d="M572,409.13c-14.38-.19-14.3,11.68-21.99,18.52-2.13,1.89-12.58,8.99-13.86,4.84-1.39-4.55,2.7-15.09-4.71-16.35-11.14-1.9-10.1,13.75-8.47,20.96-4.38,1.45-16,1.96-19.55-.88-5.85-4.69,2.81-20.25-9.9-20.12-8.12.08-4.32,8.75-6.79,14.28-3.05,6.82-14.72-3.72-15.67-9.79-3.11-19.98,14.37-35.74,31.93-40.94,26.94-7.99,59.32,1.21,69.01,29.5Z"/>
  <path class="cls-6" d="M335.86,422.05c-5.06-1.04-10.01-2.51-15.27-1.82-6.57.87-13.86,8.24-20.65,6.51s.05-21.82-12.34-20.59c-9.64.95-3.51,14.98-4.6,20.99-33.43-10.91-16.52-49.77,12.76-53.74,26.3-3.57,56.63,22.44,40.1,48.65Z"/>
  <path class="cls-4" d="M267,365.15c-12.36,9.99-21.52,24.48-20.01,40.99l-103.99-20.01,123.99-20.98Z"/>
  <path class="cls-4" d="M658,393.15l-65.36,12.08-8.62-12.59c3.83-1.83,9.9-9.37,13.47-9.58l60.51,10.1Z"/>
  <path class="cls-9" d="M104,683.14c-.12,0-1,1.7-1,.5v-164.02c.1-1.11-.52-2.34,1-2.48v166Z"/>
  <path class="cls-13" d="M708,526.14l1-1.5v158.99c-1.32,1.58-.97-.73-1-1.5-2.04-51.51,1.53-104.36,0-156Z"/>
  <path class="cls-11" d="M631.99,368.16c.21,1.86-2.11.83-3.2.7-5.58-.64-11.31-2.02-16.79-3.21,1.59-.79,4.45-6.41,5.49-6.42,1.14,0,11.36,9.29,14.5,8.92Z"/>
  <path class="cls-2" d="M417.5,290.71c5.78-.19,21.14-.69,21.59,6.93.6,10.08-11.94,9.2-8.64,19.56,1.5,4.72,7.37,5.89,11.61,4.5,2.12-.7,3.09-3.07,5.47-3.54,8.39-1.65,10.65,7.75,4.99,13.01-6.01,5.58-19.17,5.11-25.86.82-1.55-.99-5.59-5.66-6.15-5.67s-7.19,4.77-9.48,5.36c-9.83,2.53-30.27-4.34-22.92-15.93,5.14-8.11,11.06,3.08,15.38,3.49,3.82.36,7.38-1.46,9.52-4.58,4.3-6.29-.97-6.49-3.39-11.61-3.93-8.32-.66-12.04,7.9-12.33Z"/>
  <path class="cls-14" d="M491.73,258.37c27.99-5.77,25.46,39.83,6.71,42.7-25.98,3.99-23.58-39.23-6.71-42.7Z"/>
  <path class="cls-5" d="M357.73,247.37c27.12-5.63,25.09,41.2,3.75,42.79-23.11,1.72-20.15-39.39-3.75-42.79Z"/>
</svg>