<svg xmlns="http://www.w3.org/2000/svg" xmlns:xlink="http://www.w3.org/1999/xlink" fill="none" version="1.1" width="30" height="30" viewBox="0 0 30 30"><g transform="matrix(1,-2.2348336514710354e-8,2.2348336514710354e-8,1,0,0)"><g><path d="M15,23L15,30Q14.2631,30,13.5297,29.9278Q12.7964,29.8555,12.0736,29.7118Q11.3509,29.568,10.6457,29.3541Q9.94056,29.1402,9.25975,28.8582Q8.57894,28.5762,7.92905,28.2288Q7.27916,27.8814,6.66645,27.472Q6.05373,27.0626,5.4841,26.5952Q4.91447,26.1277,4.3934,25.6066Q3.87233,25.0855,3.40484,24.5159Q2.93736,23.9463,2.52796,23.3336Q2.11856,22.7208,1.77118,22.071Q1.42381,21.4211,1.14181,20.7403Q0.859807,20.0594,0.645895,19.3543Q0.431984,18.6491,0.288221,17.9264Q0.144458,17.2036,0.0722291,16.4703Q0,15.7369,0,15L7,15Q7,15.1964,7.00964,15.3925Q7.01927,15.5887,7.03852,15.7841Q7.05777,15.9796,7.08659,16.1738Q7.1154,16.3681,7.15372,16.5607Q7.19203,16.7533,7.23975,16.9438Q7.28747,17.1343,7.34448,17.3223Q7.40149,17.5102,7.46765,17.6951Q7.53381,17.88,7.60896,18.0615Q7.68412,18.2429,7.76809,18.4204Q7.85205,18.598,7.94463,18.7712Q8.03721,18.9444,8.13817,19.1128Q8.23913,19.2813,8.34824,19.4446Q8.45735,19.6079,8.57434,19.7656Q8.69133,19.9233,8.81592,20.0751Q8.9405,20.227,9.07239,20.3725Q9.20428,20.518,9.34315,20.6569Q9.48201,20.7957,9.62753,20.9276Q9.77304,21.0595,9.92485,21.1841Q10.0767,21.3087,10.2344,21.4257Q10.3921,21.5426,10.5554,21.6518Q10.7187,21.7609,10.8872,21.8618Q11.0556,21.9628,11.2288,22.0554Q11.402,22.1479,11.5796,22.2319Q11.7571,22.3159,11.9385,22.391Q12.12,22.4662,12.3049,22.5324Q12.4898,22.5985,12.6777,22.6555Q12.8657,22.7125,13.0562,22.7602Q13.2467,22.808,13.4393,22.8463Q13.6319,22.8846,13.8262,22.9134Q14.0204,22.9422,14.2159,22.9615Q14.4113,22.9807,14.6075,22.9904Q14.8036,23,15,23ZM23,15L30,15Q30,14.6318,29.9819,14.264Q29.9639,13.8962,29.9278,13.5297Q29.8917,13.1633,29.8376,12.799Q29.7836,12.4348,29.7118,12.0736Q29.6399,11.7125,29.5505,11.3553Q29.461,10.9981,29.3541,10.6457Q29.2472,10.2934,29.1232,9.94665Q28.9991,9.59995,28.8582,9.25975Q28.7173,8.91955,28.5598,8.58667Q28.4024,8.2538,28.2288,7.92905Q28.0552,7.6043,27.8659,7.28846Q27.6766,6.97262,27.472,6.66645Q27.2675,6.36027,27.0481,6.06451Q26.8288,5.76875,26.5952,5.4841Q26.3616,5.19945,26.1143,4.92661Q25.867,4.65378,25.6066,4.3934Q25.3462,4.13302,25.0734,3.88573Q24.8005,3.63845,24.5159,3.40484Q24.2312,3.17124,23.9355,2.95189Q23.6397,2.73253,23.3335,2.52796Q23.0274,2.32338,22.7115,2.13407Q22.3957,1.94476,22.0709,1.77118Q21.7462,1.5976,21.4133,1.44016Q21.0804,1.28272,20.7402,1.14181Q20.4,1.00089,20.0533,0.876839Q19.7066,0.752786,19.3543,0.645895Q19.0019,0.539004,18.6447,0.449531Q18.2875,0.360059,17.9264,0.288221Q17.5652,0.216383,17.201,0.162352Q16.8367,0.108322,16.4703,0.0722291Q16.1038,0.0361363,15.736,0.0180682Q15.3682,0,15,0L15,7Q15.1964,7,15.3925,7.00964Q15.5887,7.01927,15.7841,7.03852Q15.9796,7.05777,16.1738,7.08659Q16.3681,7.1154,16.5607,7.15372Q16.7533,7.19203,16.9438,7.23975Q17.1343,7.28747,17.3223,7.34448Q17.5102,7.40149,17.6951,7.46765Q17.88,7.53381,18.0615,7.60896Q18.2429,7.68412,18.4204,7.76809Q18.598,7.85205,18.7712,7.94463Q18.9444,8.03721,19.1128,8.13817Q19.2813,8.23913,19.4446,8.34824Q19.6079,8.45735,19.7656,8.57434Q19.9233,8.69133,20.0751,8.81592Q20.227,8.9405,20.3725,9.07239Q20.518,9.20428,20.6569,9.34315Q20.7957,9.48201,20.9276,9.62753Q21.0595,9.77304,21.1841,9.92485Q21.3087,10.0767,21.4257,10.2344Q21.5426,10.3921,21.6518,10.5554Q21.7609,10.7187,21.8618,10.8872Q21.9628,11.0556,22.0554,11.2288Q22.1479,11.402,22.2319,11.5796Q22.3159,11.7571,22.391,11.9385Q22.4662,12.12,22.5323,12.3049Q22.5985,12.4898,22.6555,12.6777Q22.7125,12.8657,22.7602,13.0562Q22.808,13.2467,22.8463,13.4393Q22.8846,13.6319,22.9134,13.8262Q22.9422,14.0204,22.9615,14.2159Q22.9807,14.4113,22.9904,14.6075Q23,14.8036,23,15Z" fill-rule="evenodd" fill="#04AAEB" fill-opacity="1"/></g><g><ellipse cx="14.999997615814209" cy="14.999998807907104" rx="2.999999523162842" ry="2.999999761581421" fill="#646464" fill-opacity="1"/></g><g><ellipse cx="6.749999046325684" cy="6.75" rx="3.749999523162842" ry="3.750000238418579" fill="#323232" fill-opacity="1"/></g><g><ellipse cx="23.24999761581421" cy="23.25000023841858" rx="3.749999523162842" ry="3.750000238418579" fill="#969696" fill-opacity="1"/></g></g></svg>