<svg xmlns="http://www.w3.org/2000/svg" xmlns:xlink="http://www.w3.org/1999/xlink" fill="none" version="1.1" width="101" height="30" viewBox="0 0 101 30"><defs><linearGradient x1="0.5" y1="1" x2="0.5" y2="0" id="master_svg0_136_870"><stop offset="0%" stop-color="#04AAEB" stop-opacity="1"/><stop offset="100%" stop-color="#C8C8C8" stop-opacity="1"/></linearGradient><linearGradient x1="0.5" y1="1" x2="0.5" y2="0" id="master_svg1_136_934"><stop offset="0%" stop-color="#969696" stop-opacity="1"/><stop offset="100%" stop-color="#AFAFAF" stop-opacity="1"/></linearGradient><linearGradient x1="35" y1="27.499996185302734" x2="101" y2="27.499996185302734" gradientUnits="userSpaceOnUse" id="master_svg2_136_756"><stop offset="0%" stop-color="#04AAEB" stop-opacity="1"/><stop offset="100%" stop-color="#969696" stop-opacity="1"/></linearGradient></defs><g><g><g><g><g><path d="M35,14.99999713897705Q35,14.75451713897705,35.0120454,14.509327138977051Q35.0240909,14.26412713897705,35.0481527,14.019827138977051Q35.0722146,13.77552713897705,35.108235,13.532697138977051Q35.144255,13.289867138977051,35.192147,13.04909713897705Q35.240039,12.80832713897705,35.299687,12.57019713897705Q35.359336,12.33206713897705,35.430597,12.09714713897705Q35.501858,11.86223713897705,35.584559,11.63109713897705Q35.667261,11.39996713897705,35.761205,11.17316713897705Q35.855148,10.94636713897705,35.960107,10.724447138977052Q36.06507,10.502527138977051,36.18079,10.286027138977051Q36.29651,10.069527138977051,36.42271,9.85896713897705Q36.54892,9.648407138977051,36.6853,9.444297138977051Q36.82169,9.24017713897705,36.96792,9.04300713897705Q37.11416,8.84582713897705,37.2699,8.65606713897705Q37.42563,8.466297138977051,37.59049,8.28440713897705Q37.75535,8.102517138977051,37.92893,7.92892713897705Q38.10252,7.755347138977051,38.28441,7.590487138977051Q38.4663,7.425627138977051,38.65607,7.269897138977051Q38.84583,7.114157138977051,39.04301,6.96791713897705Q39.24018,6.821687138977051,39.4443,6.685297138977051Q39.64841,6.548917138977051,39.85897,6.422707138977051Q40.06953,6.29650713897705,40.28603,6.180787138977051Q40.50253,6.065067138977051,40.72445,5.960104138977051Q40.94637,5.855145138977051,41.17317,5.761202138977051Q41.39996,5.667258138977051,41.6311,5.584556138977051Q41.86224,5.501855138977051,42.09715,5.4305941389770505Q42.33207,5.359333138977051,42.5702,5.2996851389770505Q42.80833,5.240036138977051,43.049099999999996,5.192144138977051Q43.28987,5.144252138977051,43.5327,5.10823213897705Q43.77553,5.0722117389770505,44.01983,5.048149838977051Q44.26413,5.024088038977051,44.50932,5.012042538977051Q44.754509999999996,4.999997138977051,45,4.999997138977051L45,9.99999713897705Q44.87726,9.99999713897705,44.75466,10.00601713897705Q44.63207,10.012047138977051,44.50991,10.02407713897705Q44.38776,10.036107138977052,44.26635,10.054117138977052Q44.14493,10.07212713897705,44.02455,10.096067138977052Q43.90416,10.120017138977051,43.7851,10.149837138977052Q43.66603,10.17966713897705,43.54858,10.21529713897705Q43.43112,10.250927138977051,43.31555,10.29227713897705Q43.19998,10.33362713897705,43.08658,10.380597138977052Q42.97318,10.42756713897705,42.86222,10.480047138977051Q42.75127,10.532527138977052,42.64302,10.59038713897705Q42.53477,10.648247138977052,42.42949,10.71135713897705Q42.3242,10.774457138977052,42.22215,10.84264713897705Q42.12009,10.910837138977051,42.0215,10.98395713897705Q41.92291,11.05707713897705,41.82803,11.13494713897705Q41.73315,11.212807138977052,41.6422,11.29523713897705Q41.55126,11.377667138977051,41.46447,11.464467138977051Q41.37767,11.55125713897705,41.29524,11.64219713897705Q41.21281,11.733147138977051,41.13495,11.82802713897705Q41.05708,11.92290713897705,40.983959999999996,12.02149713897705Q40.91084,12.120087138977052,40.84265,12.22214713897705Q40.77446,12.324197138977052,40.71136,12.429487138977052Q40.64825,12.53476713897705,40.59039,12.64301713897705Q40.53253,12.75126713897705,40.48005,12.862217138977051Q40.42757,12.97317713897705,40.3806,13.08657713897705Q40.33363,13.19997713897705,40.29228,13.31554713897705Q40.25093,13.43111713897705,40.2153,13.54857713897705Q40.17967,13.66602713897705,40.14984,13.78509713897705Q40.12002,13.90415713897705,40.09607,14.02454713897705Q40.07213,14.144927138977051,40.05412,14.26634713897705Q40.03611,14.38775713897705,40.02408,14.50990713897705Q40.01205,14.632067138977051,40.00602,14.75465713897705Q40,14.87725713897705,40,14.99999713897705L35,14.99999713897705Z" fill-rule="evenodd" fill="#04AAEB" fill-opacity="1"/></g></g><g><g><path d="M50.000000953674316,15.000000953675684L45.000000953674316,15.000000953675684Q45.000000953674316,15.245487046325684,45.012046353674315,15.490678046325684Q45.024091853674314,15.735868046325683,45.04815365367432,15.980172046325684Q45.07221555367432,16.224479046325683,45.10823595367432,16.467309046325685Q45.14425595367432,16.710139046325683,45.192147953674315,16.950909046325684Q45.24003995367432,17.191669046325682,45.299687953674315,17.429799046325684Q45.359336953674315,17.667929046325682,45.430597953674315,17.902849046325684Q45.50185795367432,18.137759046325684,45.584559953674315,18.368899046325684Q45.66726195367432,18.600039046325684,45.76120595367431,18.826839046325684Q45.855148953674316,19.053639046325685,45.96010795367432,19.275549046325683Q46.065070953674315,19.497469046325683,46.18079095367432,19.713969046325683Q46.296510953674314,19.930469046325683,46.42271095367432,20.141029046325684Q46.54892095367432,20.351589046325685,46.685300953674314,20.555699046325685Q46.82169095367431,20.759819046325685,46.967920953674316,20.956999046325684Q47.114160953674315,21.154169046325684,47.269900953674316,21.343939046325684Q47.425630953674315,21.533699046325683,47.59049095367432,21.715589046325682Q47.755350953674316,21.897489046325685,47.92893095367432,22.071069046325682Q48.102520953674315,22.244659046325683,48.28441095367432,22.409509046325685Q48.46630095367431,22.574369046325685,48.656070953674316,22.730109046325683Q48.845830953674316,22.885839046325685,49.04301095367432,23.032079046325684Q49.24018095367432,23.178309046325683,49.444300953674315,23.314699046325686Q49.648410953674315,23.45107904632568,49.858970953674316,23.57728904632568Q50.06953095367432,23.703489046325686,50.28603095367431,23.819209046325682Q50.50253095367432,23.93493904632568,50.724450953674314,24.039899046325683Q50.946360953674315,24.14484904632568,51.17316095367432,24.23879904632568Q51.39996095367432,24.332739046325685,51.63110095367432,24.415439046325684Q51.862240953674316,24.498149046325686,52.097150953674316,24.56940904632568Q52.33207095367432,24.640669046325684,52.570200953674316,24.70031904632568Q52.808330953674314,24.759959046325683,53.04910095367431,24.80785904632568Q53.28987095367432,24.855749046325684,53.53269095367432,24.891769046325685Q53.77552095367432,24.927789046325685,54.019830953674315,24.951849046325684Q54.26413095367432,24.975909046325683,54.50932095367432,24.987959046325685Q54.75451095367431,24.999999046325684,55.000000953674316,24.999999046325684L55.000000953674316,19.999999046325684Q54.877260953674316,19.999999046325684,54.75466095367432,19.993979046325684Q54.632070953674315,19.987959046325685,54.509910953674314,19.975929046325682Q54.38776095367432,19.963889046325683,54.26635095367432,19.945879046325683Q54.14493095367432,19.927869046325682,54.024550953674314,19.903929046325683Q53.904160953674314,19.879979046325683,53.785100953674316,19.850159046325683Q53.666030953674316,19.820329046325682,53.54858095367432,19.784699046325684Q53.431120953674316,19.749069046325683,53.31555095367432,19.707719046325685Q53.19998095367431,19.666369046325684,53.086580953674314,19.619399046325682Q52.973180953674316,19.572429046325684,52.86222095367432,19.519949046325685Q52.751270953674315,19.467469046325682,52.643020953674316,19.409609046325684Q52.53477095367432,19.351749046325683,52.42949095367432,19.288639046325684Q52.324200953674314,19.225539046325682,52.222150953674316,19.157349046325685Q52.120090953674314,19.089159046325683,52.02150095367432,19.016039046325684Q51.92291095367432,18.942919046325684,51.828030953674315,18.865049046325684Q51.73315095367432,18.787189046325683,51.64220095367432,18.704759046325684Q51.551260953674316,18.62232904632568,51.464470953674315,18.535539046325685Q51.37767095367432,18.448739046325684,51.295240953674316,18.357799046325685Q51.212810953674314,18.26684904632568,51.13495095367432,18.171969046325685Q51.057080953674316,18.077089046325682,50.98396095367431,17.978499046325684Q50.91084095367432,17.879909046325682,50.842650953674315,17.777849046325684Q50.774460953674314,17.675799046325682,50.711360953674316,17.570509046325682Q50.648250953674314,17.465229046325682,50.590390953674316,17.356989046325683Q50.53253095367432,17.248739046325685,50.480050953674315,17.137779046325683Q50.42757095367432,17.026819046325684,50.38060095367432,16.913419046325682Q50.333630953674316,16.800019046325684,50.292280953674315,16.684449046325682Q50.25093095367431,16.568879046325684,50.215300953674316,16.451429046325682Q50.17967095367432,16.333969046325684,50.149840953674314,16.214899046325684Q50.12002095367431,16.095839046325683,50.096070953674314,15.975452046325683Q50.07213095367432,15.855068046325684,50.054120953674314,15.733653046325683Q50.03611095367432,15.612239046325683,50.024080953674314,15.490087046325684Q50.01205095367432,15.367934046325683,50.006020953674316,15.245339046325684Q50.000000953674316,15.122744046325684,50.000000953674316,15.000000953675684Z" fill-rule="evenodd" fill="#04AAEB" fill-opacity="1"/></g></g><g><g><path d="M61.35209302734375,25.000003814697266L55.99310302734375,5.000003814697266L61.16956302734375,5.000003814697266L63.98624302734375,15.512003814697266L66.76400302734375,5.145229814697266L66.72510302734375,5.000003814697266L71.97940302734375,5.000003814697266L71.94050302734375,5.145229814697266L75.05140302734375,16.755403814697267L76.48800302734375,11.393893814697265L81.31700302734374,12.687803814697265L78.01790302734375,25.000003814697266L72.08410302734376,25.000003814697266L69.35220302734375,14.804623814697266L66.62040302734376,25.000003814697266L61.35209302734375,25.000003814697266Z" fill-rule="evenodd" fill="url(#master_svg0_136_870)" fill-opacity="1"/></g><g><ellipse cx="80.19306969642639" cy="7.499997138977051" rx="2.500000238418579" ry="2.500000476837158" fill="#969696" fill-opacity="1"/></g></g><g><g><ellipse cx="98.49997735023499" cy="7.499996662139893" rx="2.500000238418579" ry="2.500000476837158" fill="#969696" fill-opacity="1"/></g><g><path d="M84.99996185302734,4.999988555908203L89.99996185302734,4.999988555908203L89.99996185302734,12.548468555908203L93.64920185302735,8.899228555908202L97.18476185302734,12.434758555908203L92.32770185302735,17.291788555908205L100.03586185302734,24.999988555908203L92.96482185302735,24.999988555908203L89.99996185302734,22.035088555908203L89.99996185302734,24.999988555908203L84.99996185302734,24.999988555908203L84.99996185302734,4.999988555908203Z" fill-rule="evenodd" fill="url(#master_svg1_136_934)" fill-opacity="1"/></g></g></g><g><path d="M37.26475,28.996496185302735L36.97775,28.996496185302735L36.65575,28.089996185302734L35.66875,28.089996185302734L35.34675,28.996496185302735L35.0597498,28.996496185302735L36.01875,26.343496185302733L36.30225,26.343496185302733L37.26475,28.996496185302735ZM36.15175,26.738996185302735L35.76325,27.830996185302734L36.56125,27.830996185302734L36.17275,26.738996185302735L36.15175,26.738996185302735ZM40.83475,28.597496185302735Q40.69475,28.807496185302735,40.4655,28.926496185302735Q40.23625,29.045496185302735,39.95275,29.045496185302735Q39.59575,29.045496185302735,39.32625,28.872246185302735Q39.05675,28.698996185302732,38.908,28.383996185302735Q38.75925,28.068996185302733,38.75925,27.655996185302733Q38.75925,27.249996185302734,38.908,26.941996185302735Q39.05675,26.633996185302735,39.32625,26.464246185302734Q39.59575,26.294496185302734,39.95275,26.294496185302734Q40.22925,26.294496185302734,40.46375,26.413496185302733Q40.69825,26.532496185302733,40.83475,26.742496185302734L40.61775,26.896496185302734Q40.50925,26.738996185302735,40.323750000000004,26.644496185302735Q40.13825,26.549996185302735,39.94925,26.549996185302735Q39.67975,26.549996185302735,39.47325,26.688246185302734Q39.26675,26.826496185302734,39.153,27.076746185302735Q39.03925,27.326996185302733,39.03925,27.655996185302733Q39.03925,27.991996185302735,39.153,28.249246185302734Q39.26675,28.506496185302733,39.47325,28.648246185302735Q39.67975,28.789996185302734,39.94925,28.789996185302734Q40.14175,28.789996185302734,40.32025,28.695496185302733Q40.49875,28.600996185302733,40.61775,28.436496185302733L40.83475,28.597496185302735ZM42.00375,29.045496185302735Q41.75175,29.045496185302735,41.561,28.926496185302735Q41.37025,28.807496185302735,41.267,28.586996185302734Q41.16375,28.366496185302733,41.16375,28.072496185302732Q41.16375,27.778496185302735,41.267,27.557996185302734Q41.37025,27.337496185302733,41.561,27.218496185302733Q41.75175,27.099496185302733,42.00375,27.099496185302733Q42.25575,27.099496185302733,42.4465,27.218496185302733Q42.63725,27.337496185302733,42.7405,27.557996185302734Q42.84375,27.778496185302735,42.84375,28.072496185302732Q42.84375,28.366496185302733,42.7405,28.586996185302734Q42.63725,28.807496185302735,42.4465,28.926496185302735Q42.25575,29.045496185302735,42.00375,29.045496185302735ZM42.00375,28.800496185302734Q42.26275,28.800496185302734,42.42025,28.602746185302735Q42.57775,28.404996185302736,42.57775,28.072496185302732Q42.57775,27.739996185302736,42.42025,27.542246185302734Q42.26275,27.344496185302734,42.00375,27.344496185302734Q41.744749999999996,27.344496185302734,41.58725,27.542246185302734Q41.42975,27.739996185302736,41.42975,28.072496185302732Q41.42975,28.404996185302736,41.58725,28.602746185302735Q41.744749999999996,28.800496185302734,42.00375,28.800496185302734ZM43.15525,27.512496185302734L44.23325,27.512496185302734L44.23325,27.757496185302735L43.15525,27.757496185302735L43.15525,27.512496185302734ZM45.4093,29.048996185302734Q45.146699999999996,29.048996185302734,44.9525,28.926496185302735Q44.758250000000004,28.803996185302733,44.6515,28.581746185302734Q44.54475,28.359496185302735,44.54475,28.068996185302733Q44.54475,27.781996185302734,44.6515,27.563246185302734Q44.758250000000004,27.344496185302734,44.9525,27.223746185302733Q45.146699999999996,27.102996185302736,45.4093,27.102996185302736Q45.6088,27.102996185302736,45.7943,27.207996185302733Q45.9797,27.312996185302733,46.088300000000004,27.487996185302734L45.8853,27.631496185302733Q45.8048,27.498496185302734,45.673500000000004,27.423246185302734Q45.5422,27.347996185302733,45.3918,27.347996185302733Q45.2203,27.347996185302733,45.089,27.438996185302734Q44.957750000000004,27.529996185302736,44.88425,27.692746185302735Q44.81075,27.855496185302734,44.81075,28.068996185302733Q44.81075,28.285996185302736,44.8825,28.452246185302734Q44.95425,28.618496185302735,45.085499999999996,28.711246185302734Q45.2168,28.803996185302733,45.3883,28.803996185302733Q45.5387,28.803996185302733,45.6718,28.728746185302732Q45.8048,28.653496185302735,45.8853,28.520496185302733L46.088300000000004,28.663996185302736Q45.9797,28.838996185302733,45.7943,28.943996185302733Q45.6088,29.048996185302734,45.4093,29.048996185302734ZM46.4908,28.996496185302735L46.4908,27.148496185302733L46.7498,27.148496185302733L46.7498,27.519496185302735L46.7673,27.519496185302735Q46.8793,27.326996185302733,47.0613,27.213246185302733Q47.2433,27.099496185302733,47.4708,27.099496185302733L47.4988,27.099496185302733L47.4988,27.379496185302735L47.4638,27.379496185302735Q47.250299999999996,27.379496185302735,47.0875,27.458246185302734Q46.9248,27.536996185302733,46.8373,27.664746185302736Q46.7498,27.792496185302735,46.7498,27.932496185302735L46.7498,28.996496185302735L46.4908,28.996496185302735ZM49.2838,27.928996185302733Q49.2838,28.040996185302735,49.2628,28.145996185302735L47.9258,28.145996185302735Q47.9433,28.446996185302734,48.106,28.625496185302733Q48.2688,28.803996185302733,48.5313,28.803996185302733Q48.6853,28.803996185302733,48.8183,28.730496185302734Q48.9513,28.656996185302734,49.0388,28.516996185302734L49.2453,28.656996185302734Q49.1298,28.842496185302736,48.9495,28.942246185302736Q48.7693,29.041996185302736,48.5313,29.041996185302736Q48.265299999999996,29.041996185302736,48.0675,28.924746185302734Q47.8698,28.807496185302735,47.7648,28.588746185302735Q47.659800000000004,28.369996185302735,47.659800000000004,28.075996185302735Q47.659800000000004,27.778496185302735,47.7613,27.557996185302734Q47.8628,27.337496185302733,48.0518,27.218496185302733Q48.2408,27.099496185302733,48.4963,27.099496185302733Q48.8568,27.099496185302733,49.0703,27.325246185302735Q49.2838,27.550996185302736,49.2838,27.928996185302733ZM49.0178,27.911496185302735Q49.0178,27.652496185302734,48.8743,27.494996185302735Q48.7308,27.337496185302733,48.4963,27.337496185302733Q48.2723,27.337496185302733,48.1235,27.491496185302733Q47.9748,27.645496185302733,47.9363,27.911496185302735L49.0178,27.911496185302735ZM50.2008,29.045496185302735Q49.9278,29.045496185302735,49.7703,28.907246185302736Q49.6128,28.768996185302733,49.6128,28.537996185302735Q49.6128,27.942996185302736,50.5403,27.942996185302736L50.8133,27.942996185302736L50.8133,27.774996185302733Q50.8133,27.571996185302734,50.6943,27.454746185302735Q50.5753,27.337496185302733,50.3688,27.337496185302733Q50.134299999999996,27.337496185302733,49.8963,27.536996185302733L49.7423,27.358496185302734Q50.0188,27.099496185302733,50.3828,27.099496185302733Q50.7048,27.099496185302733,50.890299999999996,27.270996185302735Q51.0758,27.442496185302733,51.0758,27.739996185302736L51.0758,28.996496185302735L50.8133,28.996496185302735L50.8133,28.716496185302734L50.7958,28.716496185302734Q50.7118,28.866996185302735,50.549,28.956246185302735Q50.3863,29.045496185302735,50.2008,29.045496185302735ZM50.2463,28.807496185302735Q50.3758,28.807496185302735,50.507,28.749746185302733Q50.6383,28.691996185302735,50.7258,28.574746185302736Q50.8133,28.457496185302734,50.8133,28.292996185302734L50.8133,28.180996185302735L50.5893,28.180996185302735Q50.225300000000004,28.180996185302735,50.052,28.264996185302735Q49.8788,28.348996185302735,49.8788,28.520496185302733Q49.8788,28.653496185302735,49.9768,28.730496185302734Q50.074799999999996,28.807496185302735,50.2463,28.807496185302735ZM52.4688,27.393496185302734L51.9333,27.393496185302734L51.9333,28.481996185302734Q51.9333,28.642996185302735,52.0138,28.732246185302735Q52.094300000000004,28.821496185302735,52.2378,28.821496185302735Q52.3113,28.821496185302735,52.4268,28.782996185302736L52.4268,29.024496185302734Q52.332300000000004,29.062996185302733,52.1853,29.062996185302733Q51.936800000000005,29.062996185302733,51.803799999999995,28.917746185302732Q51.6708,28.772496185302735,51.6708,28.502996185302734L51.6708,27.393496185302734L51.3803,27.393496185302734L51.3803,27.148496185302733L51.6708,27.148496185302733L51.6708,26.570996185302736L51.9333,26.570996185302736L51.9333,27.148496185302733L52.4688,27.148496185302733L52.4688,27.393496185302734ZM54.2993,27.928996185302733Q54.2993,28.040996185302735,54.2783,28.145996185302735L52.9413,28.145996185302735Q52.9588,28.446996185302734,53.1215,28.625496185302733Q53.2843,28.803996185302733,53.546800000000005,28.803996185302733Q53.7008,28.803996185302733,53.8338,28.730496185302734Q53.9668,28.656996185302734,54.0543,28.516996185302734L54.2608,28.656996185302734Q54.1453,28.842496185302736,53.965,28.942246185302736Q53.784800000000004,29.041996185302736,53.546800000000005,29.041996185302736Q53.2808,29.041996185302736,53.083,28.924746185302734Q52.8853,28.807496185302735,52.7803,28.588746185302735Q52.6753,28.369996185302735,52.6753,28.075996185302735Q52.6753,27.778496185302735,52.7768,27.557996185302734Q52.878299999999996,27.337496185302733,53.0673,27.218496185302733Q53.256299999999996,27.099496185302733,53.5118,27.099496185302733Q53.872299999999996,27.099496185302733,54.0858,27.325246185302735Q54.2993,27.550996185302736,54.2993,27.928996185302733ZM54.0333,27.911496185302735Q54.0333,27.652496185302734,53.8898,27.494996185302735Q53.746300000000005,27.337496185302733,53.5118,27.337496185302733Q53.287800000000004,27.337496185302733,53.138999999999996,27.491496185302733Q52.990300000000005,27.645496185302733,52.9518,27.911496185302735L54.0333,27.911496185302735ZM56.297799999999995,28.996496185302735L56.038799999999995,28.996496185302735L56.038799999999995,28.702496185302735L56.0178,28.702496185302735Q55.9268,28.866996185302735,55.772800000000004,28.956246185302735Q55.6188,29.045496185302735,55.4263,29.045496185302735Q55.1988,29.045496185302735,55.0168,28.917746185302732Q54.8348,28.789996185302734,54.7315,28.564246185302736Q54.628299999999996,28.338496185302734,54.628299999999996,28.054996185302734Q54.628299999999996,27.778496185302735,54.7315,27.559746185302735Q54.8348,27.340996185302735,55.0168,27.220246185302734Q55.1988,27.099496185302733,55.4263,27.099496185302733Q55.6048,27.099496185302733,55.7588,27.190496185302734Q55.912800000000004,27.281496185302736,56.0178,27.442496185302733L56.038799999999995,27.442496185302733L56.038799999999995,26.343496185302733L56.297799999999995,26.343496185302733L56.297799999999995,28.996496185302735ZM56.0458,28.072496185302732Q56.0458,27.865996185302734,55.972300000000004,27.701496185302734Q55.8988,27.536996185302733,55.7693,27.445996185302736Q55.6398,27.354996185302735,55.475300000000004,27.354996185302735Q55.3073,27.354996185302735,55.176,27.445996185302736Q55.044799999999995,27.536996185302733,54.9695,27.699746185302736Q54.8943,27.862496185302735,54.8943,28.072496185302732Q54.8943,28.282496185302733,54.9695,28.445246185302736Q55.044799999999995,28.607996185302735,55.179500000000004,28.698996185302732Q55.3143,28.789996185302734,55.4858,28.789996185302734Q55.6468,28.789996185302734,55.7745,28.698996185302732Q55.9023,28.607996185302735,55.974000000000004,28.445246185302736Q56.0458,28.282496185302733,56.0458,28.072496185302732ZM58.565799999999996,28.996496185302735L57.848299999999995,26.343496185302733L58.1353,26.343496185302733L58.7128,28.506496185302733L58.7338,28.506496185302733L59.332300000000004,26.343496185302733L59.619299999999996,26.343496185302733L60.2213,28.506496185302733L60.2388,28.506496185302733L60.8163,26.343496185302733L61.1068,26.343496185302733L60.3858,28.996496185302735L60.1023,28.996496185302735L59.4863,26.812496185302734L59.4653,26.812496185302734L58.8493,28.996496185302735L58.565799999999996,28.996496185302735ZM61.7578,26.476496185302736Q61.7578,26.560496185302735,61.707,26.609496185302735Q61.6563,26.658496185302734,61.5723,26.658496185302734Q61.488299999999995,26.658496185302734,61.441,26.609496185302735Q61.3938,26.560496185302735,61.3938,26.476496185302736Q61.3938,26.392496185302733,61.441,26.343496185302733Q61.488299999999995,26.294496185302734,61.5723,26.294496185302734Q61.6563,26.294496185302734,61.707,26.343496185302733Q61.7578,26.392496185302733,61.7578,26.476496185302736ZM61.7053,27.148496185302733L61.7053,28.999996185302734L61.4463,28.999996185302734L61.4463,27.148496185302733L61.7053,27.148496185302733ZM63.728300000000004,28.996496185302735L63.4028,28.996496185302735L62.681799999999996,28.103996185302734L62.5138,28.261496185302732L62.5138,28.996496185302735L62.2548,28.996496185302735L62.2548,26.343496185302733L62.5138,26.343496185302733L62.5138,27.925496185302734L63.318799999999996,27.148496185302733L63.6828,27.148496185302733L62.8673,27.928996185302733L63.728300000000004,28.996496185302735ZM64.3688,26.476496185302736Q64.3688,26.560496185302735,64.318,26.609496185302735Q64.2673,26.658496185302734,64.1833,26.658496185302734Q64.0993,26.658496185302734,64.05199999999999,26.609496185302735Q64.0048,26.560496185302735,64.0048,26.476496185302736Q64.0048,26.392496185302733,64.05199999999999,26.343496185302733Q64.0993,26.294496185302734,64.1833,26.294496185302734Q64.2673,26.294496185302734,64.318,26.343496185302733Q64.3688,26.392496185302733,64.3688,26.476496185302736ZM64.3163,27.148496185302733L64.3163,28.999996185302734L64.0573,28.999996185302734L64.0573,27.148496185302733L64.3163,27.148496185302733ZM66.1118,28.996496185302735L66.1118,26.343496185302733L66.3708,26.343496185302733L66.3708,27.438996185302734L66.3883,27.438996185302734Q66.4898,27.281496185302736,66.6473,27.192246185302736Q66.8048,27.102996185302736,66.9903,27.102996185302736Q67.21430000000001,27.102996185302736,67.3945,27.223746185302733Q67.57480000000001,27.344496185302734,67.6763,27.557996185302734Q67.7778,27.771496185302734,67.7778,28.044496185302734Q67.7778,28.331496185302733,67.6763,28.558996185302735Q67.57480000000001,28.786496185302735,67.3945,28.914246185302733Q67.21430000000001,29.041996185302736,66.9903,29.041996185302736Q66.79429999999999,29.041996185302736,66.6385,28.952746185302736Q66.4828,28.863496185302736,66.3883,28.702496185302735L66.3708,28.702496185302735L66.3708,28.996496185302735L66.1118,28.996496185302735ZM66.3603,28.072496185302732Q66.3603,28.278996185302734,66.432,28.443496185302735Q66.5038,28.607996185302735,66.63329999999999,28.698996185302732Q66.7628,28.789996185302734,66.9238,28.789996185302734Q67.0918,28.789996185302734,67.2265,28.698996185302732Q67.3613,28.607996185302735,67.4365,28.443496185302735Q67.5118,28.278996185302734,67.5118,28.072496185302732Q67.5118,27.865996185302734,67.4383,27.703246185302735Q67.3648,27.540496185302736,67.23179999999999,27.449496185302735Q67.0988,27.358496185302734,66.9308,27.358496185302734Q66.7663,27.358496185302734,66.6368,27.449496185302735Q66.5073,27.540496185302736,66.4338,27.703246185302735Q66.3603,27.865996185302734,66.3603,28.072496185302732ZM68.6388,28.996496185302735L67.9178,27.148496185302733L68.2118,27.148496185302733L68.7858,28.670996185302734L68.80680000000001,28.670996185302734L69.3598,27.148496185302733L69.65379999999999,27.148496185302733L68.6143,29.836496185302735L68.3238,29.836496185302735L68.6388,28.996496185302735ZM72.2858,29.045496185302735Q71.9358,29.045496185302735,71.67150000000001,28.875746185302734Q71.40729999999999,28.705996185302734,71.2638,28.394496185302735Q71.1203,28.082996185302733,71.1203,27.669996185302736Q71.1203,27.256996185302736,71.2638,26.945496185302733Q71.40729999999999,26.633996185302735,71.66980000000001,26.464246185302734Q71.9323,26.294496185302734,72.2858,26.294496185302734Q72.63929999999999,26.294496185302734,72.90350000000001,26.464246185302734Q73.1678,26.633996185302735,73.3113,26.945496185302733Q73.4548,27.256996185302736,73.4548,27.669996185302736Q73.4548,28.082996185302733,73.3113,28.394496185302735Q73.1678,28.705996185302734,72.90350000000001,28.875746185302734Q72.63929999999999,29.045496185302735,72.2858,29.045496185302735ZM72.2858,28.789996185302734Q72.5518,28.789996185302734,72.753,28.651746185302734Q72.9543,28.513496185302735,73.06450000000001,28.259746185302735Q73.1748,28.005996185302735,73.1748,27.669996185302736Q73.1748,27.333996185302734,73.06450000000001,27.080246185302734Q72.9543,26.826496185302734,72.753,26.688246185302734Q72.5518,26.549996185302735,72.2858,26.549996185302735Q72.0198,26.549996185302735,71.8185,26.688246185302734Q71.6173,26.826496185302734,71.50880000000001,27.080246185302734Q71.4003,27.333996185302734,71.4003,27.669996185302736Q71.4003,28.005996185302735,71.50880000000001,28.259746185302735Q71.6173,28.513496185302735,71.8185,28.651746185302734Q72.0198,28.789996185302734,72.2858,28.789996185302734ZM73.9063,29.832996185302733L73.9063,27.148496185302733L74.1653,27.148496185302733L74.1653,27.442496185302733L74.1828,27.442496185302733Q74.2843,27.281496185302736,74.4418,27.190496185302734Q74.5993,27.099496185302733,74.78479999999999,27.099496185302733Q75.00880000000001,27.099496185302733,75.189,27.220246185302734Q75.36930000000001,27.340996185302735,75.4708,27.556246185302733Q75.5723,27.771496185302734,75.5723,28.044496185302734Q75.5723,28.331496185302733,75.4708,28.558996185302735Q75.36930000000001,28.786496185302735,75.189,28.914246185302733Q75.00880000000001,29.041996185302736,74.78479999999999,29.041996185302736Q74.58529999999999,29.041996185302736,74.4313,28.954496185302734Q74.2773,28.866996185302735,74.1828,28.702496185302735L74.1653,28.702496185302735L74.1653,29.832996185302733L73.9063,29.832996185302733ZM74.1548,28.072496185302732Q74.1548,28.282496185302733,74.2265,28.445246185302736Q74.2983,28.607996185302735,74.426,28.698996185302732Q74.5538,28.789996185302734,74.7183,28.789996185302734Q74.8863,28.789996185302734,75.021,28.698996185302732Q75.1558,28.607996185302735,75.2328,28.445246185302736Q75.3098,28.282496185302733,75.3098,28.072496185302732Q75.3098,27.865996185302734,75.2345,27.703246185302735Q75.1593,27.540496185302736,75.02629999999999,27.447746185302734Q74.89330000000001,27.354996185302735,74.7253,27.354996185302735Q74.5608,27.354996185302735,74.4313,27.447746185302734Q74.3018,27.540496185302736,74.22829999999999,27.703246185302735Q74.1548,27.865996185302734,74.1548,28.072496185302732ZM77.5253,27.928996185302733Q77.5253,28.040996185302735,77.5043,28.145996185302735L76.1673,28.145996185302735Q76.1848,28.446996185302734,76.3475,28.625496185302733Q76.5103,28.803996185302733,76.77279999999999,28.803996185302733Q76.9268,28.803996185302733,77.0598,28.730496185302734Q77.1928,28.656996185302734,77.2803,28.516996185302734L77.4868,28.656996185302734Q77.37129999999999,28.842496185302736,77.191,28.942246185302736Q77.0107,29.041996185302736,76.77279999999999,29.041996185302736Q76.5068,29.041996185302736,76.309,28.924746185302734Q76.1113,28.807496185302735,76.00630000000001,28.588746185302735Q75.90129999999999,28.369996185302735,75.90129999999999,28.075996185302735Q75.90129999999999,27.778496185302735,76.00280000000001,27.557996185302734Q76.1043,27.337496185302733,76.2933,27.218496185302733Q76.48230000000001,27.099496185302733,76.7378,27.099496185302733Q77.0983,27.099496185302733,77.3118,27.325246185302735Q77.5253,27.550996185302736,77.5253,27.928996185302733ZM77.2593,27.911496185302735Q77.2593,27.652496185302734,77.11580000000001,27.494996185302735Q76.97229999999999,27.337496185302733,76.7378,27.337496185302733Q76.5138,27.337496185302733,76.36500000000001,27.491496185302733Q76.21629999999999,27.645496185302733,76.17779999999999,27.911496185302735L77.2593,27.911496185302735ZM77.9453,28.996496185302735L77.9453,27.148496185302733L78.2043,27.148496185302733L78.2043,27.431996185302733L78.2218,27.431996185302733Q78.3058,27.281496185302736,78.4702,27.190496185302734Q78.6348,27.099496185302733,78.8133,27.099496185302733Q79.12129999999999,27.099496185302733,79.2962,27.291996185302736Q79.4713,27.484496185302735,79.4713,27.830996185302734L79.4713,28.996496185302735L79.2122,28.996496185302735L79.2122,27.872996185302735Q79.2122,27.631496185302733,79.081,27.484496185302735Q78.9497,27.337496185302733,78.75030000000001,27.337496185302733Q78.50880000000001,27.337496185302733,78.3565,27.496746185302733Q78.2043,27.655996185302733,78.2043,27.900996185302734L78.2043,28.996496185302735L77.9453,28.996496185302735ZM80.25880000000001,27.795996185302734L80.25880000000001,28.996496185302735L79.9893,28.996496185302735L79.9893,26.343496185302733L81.5433,26.343496185302733L81.5433,26.598996185302735L80.25880000000001,26.598996185302735L80.25880000000001,27.536996185302733L81.4488,27.536996185302733L81.4488,27.795996185302734L80.25880000000001,27.795996185302734ZM81.9598,26.343496185302733L82.2188,26.343496185302733L82.2188,28.632496185302735Q82.2188,28.782996185302736,82.3657,28.782996185302736L82.4637,28.782996185302736L82.4637,29.024496185302734L82.30969999999999,29.024496185302734Q81.9598,29.024496185302734,81.9598,28.702496185302735L81.9598,26.343496185302733ZM83.3107,29.045496185302735Q83.0378,29.045496185302735,82.8802,28.907246185302736Q82.7228,28.768996185302733,82.7228,28.537996185302735Q82.7228,27.942996185302736,83.6502,27.942996185302736L83.9233,27.942996185302736L83.9233,27.774996185302733Q83.9233,27.571996185302734,83.80420000000001,27.454746185302735Q83.68520000000001,27.337496185302733,83.4788,27.337496185302733Q83.24430000000001,27.337496185302733,83.00630000000001,27.536996185302733L82.85220000000001,27.358496185302734Q83.12870000000001,27.099496185302733,83.4928,27.099496185302733Q83.81479999999999,27.099496185302733,84.00030000000001,27.270996185302735Q84.1857,27.442496185302733,84.1857,27.739996185302736L84.1857,28.996496185302735L83.9233,28.996496185302735L83.9233,28.716496185302734L83.9058,28.716496185302734Q83.8218,28.866996185302735,83.65899999999999,28.956246185302735Q83.49629999999999,29.045496185302735,83.3107,29.045496185302735ZM83.3563,28.807496185302735Q83.4858,28.807496185302735,83.61699999999999,28.749746185302733Q83.7482,28.691996185302735,83.8358,28.574746185302736Q83.9233,28.457496185302734,83.9233,28.292996185302734L83.9233,28.180996185302735L83.69919999999999,28.180996185302735Q83.33529999999999,28.180996185302735,83.162,28.264996185302735Q82.9888,28.348996185302735,82.9888,28.520496185302733Q82.9888,28.653496185302735,83.0868,28.730496185302734Q83.18469999999999,28.807496185302735,83.3563,28.807496185302735ZM84.67580000000001,28.996496185302735L84.67580000000001,27.148496185302733L84.93469999999999,27.148496185302733L84.93469999999999,27.424996185302735L84.95230000000001,27.424996185302735Q85.03970000000001,27.277996185302733,85.1797,27.188746185302733Q85.3198,27.099496185302733,85.47720000000001,27.099496185302733Q85.6628,27.099496185302733,85.7975,27.202746185302736Q85.9323,27.305996185302735,86.00569999999999,27.498496185302734L86.0233,27.498496185302734Q86.1143,27.312996185302733,86.277,27.206246185302735Q86.43979999999999,27.099496185302733,86.64269999999999,27.099496185302733Q86.9367,27.099496185302733,87.1012,27.293746185302734Q87.2658,27.487996185302734,87.2658,27.830996185302734L87.2658,28.996496185302735L87.0068,28.996496185302735L87.0068,27.872996185302735Q87.0068,27.631496185302733,86.893,27.484496185302735Q86.7793,27.337496185302733,86.59020000000001,27.337496185302733Q86.3698,27.337496185302733,86.2368,27.491496185302733Q86.1037,27.645496185302733,86.1037,27.900996185302734L86.1037,28.996496185302735L85.8377,28.996496185302735L85.8377,27.872996185302735Q85.8377,27.631496185302733,85.72399999999999,27.484496185302735Q85.61019999999999,27.337496185302733,85.4248,27.337496185302733Q85.2113,27.337496185302733,85.07300000000001,27.494996185302735Q84.93469999999999,27.652496185302734,84.93469999999999,27.900996185302734L84.93469999999999,28.996496185302735L84.67580000000001,28.996496185302735ZM89.2923,27.928996185302733Q89.2923,28.040996185302735,89.2713,28.145996185302735L87.9342,28.145996185302735Q87.95179999999999,28.446996185302734,88.11449999999999,28.625496185302733Q88.2772,28.803996185302733,88.53970000000001,28.803996185302733Q88.6937,28.803996185302733,88.82679999999999,28.730496185302734Q88.9598,28.656996185302734,89.0472,28.516996185302734L89.25370000000001,28.656996185302734Q89.1382,28.842496185302736,88.958,28.942246185302736Q88.77770000000001,29.041996185302736,88.53970000000001,29.041996185302736Q88.2738,29.041996185302736,88.076,28.924746185302734Q87.8783,28.807496185302735,87.7733,28.588746185302735Q87.6683,28.369996185302735,87.6683,28.075996185302735Q87.6683,27.778496185302735,87.7697,27.557996185302734Q87.87129999999999,27.337496185302733,88.06020000000001,27.218496185302733Q88.2492,27.099496185302733,88.5047,27.099496185302733Q88.8652,27.099496185302733,89.0788,27.325246185302735Q89.2923,27.550996185302736,89.2923,27.928996185302733ZM89.0262,27.911496185302735Q89.0262,27.652496185302734,88.8828,27.494996185302735Q88.7393,27.337496185302733,88.5047,27.337496185302733Q88.2808,27.337496185302733,88.132,27.491496185302733Q87.9832,27.645496185302733,87.9448,27.911496185302735L89.0262,27.911496185302735ZM91.7492,29.045496185302735Q91.4482,29.045496185302735,91.20150000000001,28.914246185302733Q90.9547,28.782996185302736,90.8077,28.534496185302736L91.0387,28.394496185302735Q91.1542,28.590496185302733,91.338,28.690246185302733Q91.52170000000001,28.789996185302734,91.7527,28.789996185302734Q91.93119999999999,28.789996185302734,92.07300000000001,28.730496185302734Q92.2147,28.670996185302734,92.2952,28.564246185302736Q92.3757,28.457496185302734,92.3757,28.324496185302735Q92.3757,28.184496185302734,92.3057,28.089996185302734Q92.23570000000001,27.995496185302734,92.09049999999999,27.923746185302733Q91.9452,27.851996185302735,91.69319999999999,27.781996185302734Q91.4272,27.704996185302733,91.261,27.627996185302734Q91.0947,27.550996185302736,90.9827,27.405746185302736Q90.8707,27.260496185302735,90.8707,27.025996185302734Q90.8707,26.815996185302733,90.9827,26.647996185302734Q91.0947,26.479996185302735,91.29769999999999,26.387246185302736Q91.5007,26.294496185302734,91.7632,26.294496185302734Q92.05019999999999,26.294496185302734,92.2655,26.413496185302733Q92.4807,26.532496185302733,92.6207,26.745996185302733L92.4072,26.899996185302733Q92.2882,26.738996185302735,92.1185,26.644496185302735Q91.9487,26.549996185302735,91.7562,26.549996185302735Q91.5882,26.549996185302735,91.4482,26.609496185302735Q91.3082,26.668996185302735,91.2277,26.773996185302735Q91.1472,26.878996185302736,91.1472,27.004996185302733Q91.1472,27.165996185302735,91.2365,27.269246185302734Q91.3257,27.372496185302733,91.4622,27.428496185302734Q91.59870000000001,27.484496185302735,91.8227,27.543996185302735Q92.0852,27.617496185302734,92.262,27.704996185302733Q92.4387,27.792496185302735,92.5455,27.939496185302733Q92.6522,28.086496185302735,92.6522,28.310496185302735Q92.6522,28.534496185302736,92.542,28.700746185302734Q92.4317,28.866996185302735,92.227,28.956246185302735Q92.0222,29.045496185302735,91.7492,29.045496185302735ZM93.9717,27.393496185302734L93.4362,27.393496185302734L93.4362,28.481996185302734Q93.4362,28.642996185302735,93.5167,28.732246185302735Q93.5972,28.821496185302735,93.7407,28.821496185302735Q93.8142,28.821496185302735,93.9297,28.782996185302736L93.9297,29.024496185302734Q93.8352,29.062996185302733,93.6882,29.062996185302733Q93.4397,29.062996185302733,93.3067,28.917746185302732Q93.1737,28.772496185302735,93.1737,28.502996185302734L93.1737,27.393496185302734L92.8832,27.393496185302734L92.8832,27.148496185302733L93.1737,27.148496185302733L93.1737,26.570996185302736L93.4362,26.570996185302736L93.4362,27.148496185302733L93.9717,27.148496185302733L93.9717,27.393496185302734ZM95.7882,27.148496185302733L95.7882,28.996496185302735L95.5292,28.996496185302735L95.5292,28.716496185302734L95.5082,28.716496185302734Q95.4242,28.866996185302735,95.2615,28.956246185302735Q95.09870000000001,29.045496185302735,94.91669999999999,29.045496185302735Q94.6087,29.045496185302735,94.43549999999999,28.854746185302734Q94.2622,28.663996185302736,94.2622,28.317496185302733L94.2622,27.148496185302733L94.5212,27.148496185302733L94.5212,28.275496185302735Q94.5212,28.520496185302733,94.649,28.663996185302736Q94.7767,28.807496185302735,94.9832,28.807496185302735Q95.2247,28.807496185302735,95.37700000000001,28.649996185302733Q95.5292,28.492496185302734,95.5292,28.243996185302734L95.5292,27.148496185302733L95.7882,27.148496185302733ZM97.8777,28.996496185302735L97.61869999999999,28.996496185302735L97.61869999999999,28.702496185302735L97.5977,28.702496185302735Q97.5067,28.866996185302735,97.3527,28.956246185302735Q97.1987,29.045496185302735,97.0062,29.045496185302735Q96.7787,29.045496185302735,96.5967,28.917746185302732Q96.41470000000001,28.789996185302734,96.3115,28.564246185302736Q96.2082,28.338496185302734,96.2082,28.054996185302734Q96.2082,27.778496185302735,96.3115,27.559746185302735Q96.41470000000001,27.340996185302735,96.5967,27.220246185302734Q96.7787,27.099496185302733,97.0062,27.099496185302733Q97.18469999999999,27.099496185302733,97.3387,27.190496185302734Q97.4927,27.281496185302736,97.5977,27.442496185302733L97.61869999999999,27.442496185302733L97.61869999999999,26.343496185302733L97.8777,26.343496185302733L97.8777,28.996496185302735ZM97.6257,28.072496185302732Q97.6257,27.865996185302734,97.5522,27.701496185302734Q97.4787,27.536996185302733,97.3492,27.445996185302736Q97.2197,27.354996185302735,97.0552,27.354996185302735Q96.8872,27.354996185302735,96.756,27.445996185302736Q96.62469999999999,27.536996185302733,96.5495,27.699746185302736Q96.4742,27.862496185302735,96.4742,28.072496185302732Q96.4742,28.282496185302733,96.5495,28.445246185302736Q96.62469999999999,28.607996185302735,96.7595,28.698996185302732Q96.8942,28.789996185302734,97.06569999999999,28.789996185302734Q97.2267,28.789996185302734,97.3545,28.698996185302732Q97.4822,28.607996185302735,97.554,28.445246185302736Q97.6257,28.282496185302733,97.6257,28.072496185302732ZM98.7387,26.476496185302736Q98.7387,26.560496185302735,98.688,26.609496185302735Q98.6372,26.658496185302734,98.5532,26.658496185302734Q98.4692,26.658496185302734,98.422,26.609496185302735Q98.37469999999999,26.560496185302735,98.37469999999999,26.476496185302736Q98.37469999999999,26.392496185302733,98.422,26.343496185302733Q98.4692,26.294496185302734,98.5532,26.294496185302734Q98.6372,26.294496185302734,98.688,26.343496185302733Q98.7387,26.392496185302733,98.7387,26.476496185302736ZM98.6862,27.148496185302733L98.6862,28.999996185302734L98.4272,28.999996185302734L98.4272,27.148496185302733L98.6862,27.148496185302733ZM99.9847,29.045496185302735Q99.7327,29.045496185302735,99.542,28.926496185302735Q99.3512,28.807496185302735,99.248,28.586996185302734Q99.1447,28.366496185302733,99.1447,28.072496185302732Q99.1447,27.778496185302735,99.248,27.557996185302734Q99.3512,27.337496185302733,99.542,27.218496185302733Q99.7327,27.099496185302733,99.9847,27.099496185302733Q100.2367,27.099496185302733,100.4275,27.218496185302733Q100.6182,27.337496185302733,100.7215,27.557996185302734Q100.8247,27.778496185302735,100.8247,28.072496185302732Q100.8247,28.366496185302733,100.7215,28.586996185302734Q100.6182,28.807496185302735,100.4275,28.926496185302735Q100.2367,29.045496185302735,99.9847,29.045496185302735ZM99.9847,28.800496185302734Q100.2437,28.800496185302734,100.4012,28.602746185302735Q100.5587,28.404996185302736,100.5587,28.072496185302732Q100.5587,27.739996185302736,100.4012,27.542246185302734Q100.2437,27.344496185302734,99.9847,27.344496185302734Q99.7257,27.344496185302734,99.5682,27.542246185302734Q99.4107,27.739996185302736,99.4107,28.072496185302732Q99.4107,28.404996185302736,99.5682,28.602746185302735Q99.7257,28.800496185302734,99.9847,28.800496185302734Z" fill="url(#master_svg2_136_756)" fill-opacity="1"/></g></g><g transform="matrix(1,-2.2348336514710354e-8,2.2348336514710354e-8,1,-1.4652711252082222e-14,0)"><g><path d="M15,23.000000655651093L15,30.000000655651093Q14.2631,30.000000655651093,13.5297,29.927800655651094Q12.7964,29.855500655651092,12.0736,29.711800655651093Q11.3509,29.568000655651094,10.6457,29.35410065565109Q9.94056,29.140200655651093,9.25975,28.858200655651093Q8.57894,28.576200655651093,7.92905,28.228800655651092Q7.27916,27.881400655651092,6.66645,27.472000655651094Q6.05373,27.062600655651092,5.4841,26.59520065565109Q4.91447,26.127700655651093,4.3934,25.606600655651093Q3.87233,25.085500655651092,3.40484,24.51590065565109Q2.93736,23.946300655651093,2.52796,23.333600655651093Q2.11856,22.720800655651093,1.77118,22.071000655651094Q1.42381,21.42110065565109,1.14181,20.740300655651094Q0.859807,20.059400655651093,0.645895,19.35430065565109Q0.431984,18.649100655651093,0.288221,17.926400655651094Q0.144458,17.203600655651094,0.0722291,16.470300655651094Q0,15.736900655651093,0,15.000000655651093L7,15.000000655651093Q7,15.196400655651093,7.00964,15.392500655651093Q7.01927,15.588700655651092,7.03852,15.784100655651093Q7.05777,15.979600655651092,7.08659,16.173800655651092Q7.1154,16.36810065565109,7.15372,16.560700655651093Q7.19203,16.753300655651092,7.23975,16.943800655651092Q7.28747,17.134300655651092,7.34448,17.32230065565109Q7.40149,17.510200655651094,7.46765,17.695100655651093Q7.53381,17.88000065565109,7.60896,18.06150065565109Q7.68412,18.24290065565109,7.76809,18.420400655651093Q7.85205,18.59800065565109,7.94463,18.771200655651093Q8.03721,18.944400655651094,8.13817,19.112800655651093Q8.23913,19.281300655651094,8.34824,19.444600655651094Q8.45735,19.607900655651093,8.57434,19.76560065565109Q8.69133,19.923300655651094,8.81592,20.07510065565109Q8.9405,20.227000655651093,9.07239,20.37250065565109Q9.20428,20.518000655651093,9.34315,20.656900655651093Q9.48201,20.795700655651093,9.62753,20.927600655651094Q9.77304,21.059500655651092,9.92485,21.184100655651093Q10.0767,21.308700655651094,10.2344,21.42570065565109Q10.3921,21.542600655651093,10.5554,21.651800655651094Q10.7187,21.760900655651092,10.8872,21.86180065565109Q11.0556,21.962800655651094,11.2288,22.05540065565109Q11.402,22.147900655651092,11.5796,22.231900655651092Q11.7571,22.31590065565109,11.9385,22.39100065565109Q12.12,22.466200655651093,12.3049,22.53240065565109Q12.4898,22.598500655651094,12.6777,22.655500655651093Q12.8657,22.71250065565109,13.0562,22.760200655651094Q13.2467,22.808000655651092,13.4393,22.846300655651092Q13.6319,22.88460065565109,13.8262,22.913400655651092Q14.0204,22.942200655651092,14.2159,22.961500655651093Q14.4113,22.98070065565109,14.6075,22.990400655651094Q14.8036,23.000000655651093,15,23.000000655651093ZM23,15.000000655651093L30,15.000000655651093Q30,14.631800655651093,29.9819,14.264000655651092Q29.9639,13.896200655651093,29.9278,13.529700655651093Q29.8917,13.163300655651092,29.8376,12.799000655651092Q29.7836,12.434800655651092,29.7118,12.073600655651093Q29.6399,11.712500655651093,29.5505,11.355300655651092Q29.461,10.998100655651093,29.3541,10.645700655651092Q29.2472,10.293400655651093,29.1232,9.946650655651093Q28.9991,9.599950655651092,28.8582,9.259750655651093Q28.7173,8.919550655651092,28.5598,8.586670655651092Q28.4024,8.253800655651093,28.2288,7.929050655651093Q28.0552,7.604300655651093,27.8659,7.288460655651092Q27.6766,6.972620655651093,27.472,6.666450655651093Q27.2675,6.360270655651092,27.0481,6.064510655651093Q26.8288,5.768750655651092,26.5952,5.484100655651092Q26.3616,5.199450655651092,26.1143,4.926610655651093Q25.867,4.653780655651093,25.6066,4.393400655651092Q25.3462,4.133020655651093,25.0734,3.8857306556510927Q24.8005,3.6384506556510927,24.5159,3.4048406556510926Q24.2312,3.1712406556510926,23.9355,2.9518906556510927Q23.6397,2.7325306556510927,23.3335,2.5279606556510927Q23.0274,2.3233806556510923,22.7115,2.1340706556510924Q22.3957,1.9447606556510926,22.0709,1.7711806556510925Q21.7462,1.5976006556510924,21.4133,1.4401606556510926Q21.0804,1.2827206556510926,20.7402,1.1418106556510925Q20.4,1.0008906556510926,20.0533,0.8768396556510926Q19.7066,0.7527866556510925,19.3543,0.6458956556510925Q19.0019,0.5390046556510926,18.6447,0.44953165565109254Q18.2875,0.36005965565109255,17.9264,0.28822165565109253Q17.5652,0.21638365565109252,17.201,0.16235265565109253Q16.8367,0.10832265565109253,16.4703,0.07222975565109253Q16.1038,0.03613695565109253,15.736,0.01806885565109253Q15.3682,6.556510925292969e-7,15,6.556510925292969e-7L15,7.0000006556510925Q15.1964,7.0000006556510925,15.3925,7.009640655651093Q15.5887,7.019270655651092,15.7841,7.038520655651093Q15.9796,7.057770655651092,16.1738,7.086590655651093Q16.3681,7.115400655651093,16.5607,7.153720655651092Q16.7533,7.1920306556510925,16.9438,7.239750655651092Q17.1343,7.287470655651092,17.3223,7.344480655651092Q17.5102,7.401490655651092,17.6951,7.467650655651092Q17.88,7.533810655651092,18.0615,7.608960655651092Q18.2429,7.684120655651093,18.4204,7.7680906556510925Q18.598,7.852050655651093,18.7712,7.944630655651093Q18.9444,8.037210655651092,19.1128,8.138170655651093Q19.2813,8.239130655651092,19.4446,8.348240655651093Q19.6079,8.457350655651092,19.7656,8.574340655651092Q19.9233,8.691330655651093,20.0751,8.815920655651093Q20.227,8.940500655651093,20.3725,9.072390655651093Q20.518,9.204280655651093,20.6569,9.343150655651092Q20.7957,9.482010655651093,20.9276,9.627530655651093Q21.0595,9.773040655651092,21.1841,9.924850655651092Q21.3087,10.076700655651093,21.4257,10.234400655651093Q21.5426,10.392100655651092,21.6518,10.555400655651093Q21.7609,10.718700655651093,21.8618,10.887200655651093Q21.9628,11.055600655651093,22.0554,11.228800655651092Q22.1479,11.402000655651092,22.2319,11.579600655651092Q22.3159,11.757100655651092,22.391,11.938500655651092Q22.4662,12.120000655651092,22.5323,12.304900655651092Q22.5985,12.489800655651093,22.6555,12.677700655651092Q22.7125,12.865700655651093,22.7602,13.056200655651093Q22.808,13.246700655651093,22.8463,13.439300655651092Q22.8846,13.631900655651092,22.9134,13.826200655651093Q22.9422,14.020400655651093,22.9615,14.215900655651092Q22.9807,14.411300655651093,22.9904,14.607500655651092Q23,14.803600655651092,23,15.000000655651093Z" fill-rule="evenodd" fill="#04AAEB" fill-opacity="1"/></g><g><ellipse cx="14.999997615814209" cy="14.999999463558197" rx="2.999999523162842" ry="2.999999761581421" fill="#646464" fill-opacity="1"/></g><g><ellipse cx="6.749999046325684" cy="6.7500006556510925" rx="3.749999523162842" ry="3.750000238418579" fill="#323232" fill-opacity="1"/></g><g><ellipse cx="23.24999761581421" cy="23.25000089406967" rx="3.749999523162842" ry="3.750000238418579" fill="#969696" fill-opacity="1"/></g></g></g></svg>