<svg xmlns="http://www.w3.org/2000/svg" xmlns:xlink="http://www.w3.org/1999/xlink" fill="none" version="1.1" width="36" height="36" viewBox="0 0 36 36"><defs><clipPath id="master_svg0_165_487"><rect x="0" y="0" width="36" height="36" rx="0"/></clipPath></defs><g clip-path="url(#master_svg0_165_487)"><g><g><path d="M18,29.5Q18.294600000000003,29.5,18.5888,29.4855Q18.883,29.4711,19.1762,29.4422Q19.4694,29.4133,19.7608,29.3701Q20.0522,29.3269,20.3411,29.2694Q20.630000000000003,29.2119,20.9158,29.1404Q21.2015,29.0688,21.4834,28.9833Q21.7653,28.8978,22.0427,28.7985Q22.32,28.6993,22.5922,28.5865Q22.8644,28.4738,23.1307,28.3479Q23.397,28.2219,23.6568,28.0831Q23.9166,27.9442,24.1692,27.7927Q24.4219,27.6413,24.6668,27.4776Q24.9118,27.314,25.1484,27.1385Q25.385,26.963,25.6127,26.7761Q25.8404,26.5892,26.0587,26.3914Q26.277,26.1936,26.4853,25.9853Q26.6936,25.777,26.8914,25.5587Q27.0892,25.3404,27.2761,25.1127Q27.463,24.885,27.6385,24.6484Q27.814,24.4118,27.9776,24.1668Q28.1413,23.9219,28.2927,23.6692Q28.4442,23.4166,28.5831,23.1568Q28.7219,22.897,28.8479,22.6307Q28.9738,22.3644,29.0865,22.0922Q29.1993,21.82,29.2985,21.5427Q29.3978,21.2653,29.4833,20.9834Q29.5688,20.7015,29.6404,20.4158Q29.7119,20.130000000000003,29.7694,19.8411Q29.8269,19.5522,29.8701,19.2608Q29.9133,18.9694,29.9422,18.6762Q29.9711,18.383,29.9855,18.0888Q30,17.794600000000003,30,17.5Q30,17.205399999999997,29.9855,16.9112Q29.9711,16.617,29.9422,16.3238Q29.9133,16.0306,29.8701,15.7392Q29.8269,15.44784,29.7694,15.15891Q29.7119,14.86999,29.6404,14.58424Q29.5688,14.29848,29.4833,14.01658Q29.3978,13.73468,29.2985,13.45732Q29.1993,13.179960000000001,29.0865,12.9078Q28.9738,12.63564,28.8479,12.369340000000001Q28.7219,12.10304,28.5831,11.84324Q28.4442,11.58344,28.2927,11.330770000000001Q28.1413,11.07809,27.9776,10.83316Q27.814,10.58822,27.6385,10.35161Q27.463,10.115,27.2761,9.88728Q27.0892,9.659559999999999,26.8914,9.44129Q26.6936,9.22302,26.4853,9.01472Q26.277,8.80642,26.0587,8.60859Q25.8404,8.41076,25.6127,8.22387Q25.385,8.03699,25.1484,7.86151Q24.9118,7.686030000000001,24.6668,7.52236Q24.4219,7.3587,24.1692,7.20726Q23.9166,7.05581,23.6568,6.91694Q23.397,6.77808,23.1307,6.65213Q22.8644,6.52618,22.5922,6.413445Q22.32,6.300713,22.0427,6.201471Q21.7653,6.102229,21.4834,6.016716Q21.2015,5.931203,20.9158,5.859625Q20.630000000000003,5.788047,20.3411,5.730577Q20.0522,5.673106,19.7608,5.629882Q19.4694,5.5866575,19.1762,5.5577833Q18.883,5.528909,18.5888,5.5144545Q18.294600000000003,5.5,18,5.5Q17.705399999999997,5.5,17.4112,5.5144545Q17.117,5.528909,16.8238,5.5577833Q16.5306,5.5866575,16.2392,5.629882Q15.94784,5.673106,15.65891,5.730577Q15.36999,5.788047,15.08424,5.859625Q14.79848,5.931203,14.51658,6.016716Q14.23468,6.102229,13.95732,6.201471Q13.679960000000001,6.300713,13.4078,6.413445Q13.13564,6.52618,12.869340000000001,6.65213Q12.60304,6.77808,12.34324,6.91694Q12.08344,7.05581,11.830770000000001,7.20726Q11.57809,7.3587,11.33316,7.52236Q11.08822,7.686030000000001,10.85161,7.86151Q10.615,8.03699,10.38728,8.22387Q10.159559999999999,8.41076,9.94129,8.60859Q9.72302,8.80642,9.51472,9.01472Q9.30642,9.22302,9.10859,9.44129Q8.91076,9.659559999999999,8.72387,9.88728Q8.53699,10.115,8.361509999999999,10.35161Q8.18603,10.58822,8.022359999999999,10.83316Q7.8587,11.07809,7.70726,11.330770000000001Q7.55581,11.58344,7.41694,11.84324Q7.27808,12.10304,7.15213,12.369340000000001Q7.02618,12.63564,6.913445,12.9078Q6.800713,13.179960000000001,6.701471,13.45732Q6.602229,13.73468,6.516716,14.01658Q6.431203,14.29848,6.359625,14.58424Q6.288047,14.86999,6.230577,15.15891Q6.173106,15.44784,6.129882,15.7392Q6.0866575,16.0306,6.0577833,16.3238Q6.028909,16.617,6.0144545,16.9112Q6,17.205399999999997,6,17.5Q6,17.794600000000003,6.0144545,18.0888Q6.028909,18.383,6.0577833,18.6762Q6.0866575,18.9694,6.129882,19.2608Q6.173106,19.5522,6.230577,19.8411Q6.288047,20.130000000000003,6.359625,20.4158Q6.431203,20.7015,6.516716,20.9834Q6.602229,21.2653,6.701471,21.5427Q6.800713,21.82,6.913445,22.0922Q7.02618,22.3644,7.15213,22.6307Q7.27808,22.897,7.41694,23.1568Q7.55581,23.4166,7.70726,23.6692Q7.8587,23.9219,8.022359999999999,24.1668Q8.18603,24.4118,8.361509999999999,24.6484Q8.53699,24.885,8.72387,25.1127Q8.91076,25.3404,9.10859,25.5587Q9.30642,25.777,9.51472,25.9853Q9.72302,26.1936,9.94129,26.3914Q10.159559999999999,26.5892,10.38728,26.7761Q10.615,26.963,10.85161,27.1385Q11.08822,27.314,11.33316,27.4776Q11.57809,27.6413,11.830770000000001,27.7927Q12.08344,27.9442,12.34324,28.0831Q12.60304,28.2219,12.869340000000001,28.3479Q13.13564,28.4738,13.4078,28.5865Q13.679960000000001,28.6993,13.95732,28.7985Q14.23468,28.8978,14.51658,28.9833Q14.79848,29.0688,15.08424,29.1404Q15.36999,29.2119,15.65891,29.2694Q15.94784,29.3269,16.2392,29.3701Q16.5306,29.4133,16.8238,29.4422Q17.117,29.4711,17.4112,29.4855Q17.705399999999997,29.5,18,29.5ZM18.0001,27.2143Q18.238500000000002,27.2143,18.4767,27.2026Q18.7149,27.1909,18.952199999999998,27.1675Q19.189500000000002,27.1441,19.4254,27.1091Q19.6613,27.0742,19.895200000000003,27.0276Q20.1291,26.9811,20.3604,26.9232Q20.5918,26.8652,20.82,26.796Q21.0482,26.7268,21.2727,26.6464Q21.4972,26.5661,21.7175,26.4748Q21.9379,26.3836,22.1534,26.2816Q22.369,26.1797,22.5793,26.0672Q22.7896,25.9548,22.9942,25.8322Q23.1987,25.7096,23.397,25.5771Q23.5953,25.4446,23.7868,25.3026Q23.9784,25.1605,24.1627,25.0092Q24.3471,24.858,24.5238,24.6978Q24.7005,24.5377,24.8691,24.369Q25.0377,24.2004,25.1979,24.0237Q25.358,23.847,25.5093,23.6627Q25.6606,23.4783,25.8026,23.2868Q25.9447,23.0953,26.0772,22.897Q26.2097,22.6987,26.3323,22.4941Q26.4549,22.2896,26.5673,22.0793Q26.6797,21.869,26.7817,21.6534Q26.8836,21.4378,26.9749,21.2175Q27.0661,20.9972,27.1465,20.7726Q27.2268,20.548099999999998,27.296,20.3199Q27.3653,20.0917,27.4232,19.8604Q27.4812,19.6291,27.5277,19.395200000000003Q27.5742,19.1613,27.6092,18.9254Q27.6442,18.689500000000002,27.6676,18.452199999999998Q27.6909,18.2148,27.7026,17.9767Q27.7143,17.738500000000002,27.7143,17.5Q27.7143,17.261499999999998,27.7026,17.0233Q27.6909,16.7852,27.6676,16.547800000000002Q27.6442,16.310499999999998,27.6092,16.0746Q27.5742,15.8387,27.5277,15.6048Q27.4812,15.37095,27.4232,15.13963Q27.3653,14.9083,27.296,14.6801Q27.2268,14.45189,27.1465,14.22736Q27.0661,14.00283,26.9749,13.78251Q26.8836,13.56219,26.7817,13.34661Q26.6797,13.131039999999999,26.5673,12.92072Q26.4549,12.71041,26.3323,12.50586Q26.2097,12.30132,26.0772,12.10304Q25.9447,11.90475,25.8026,11.71321Q25.6606,11.52167,25.5093,11.33733Q25.358,11.152989999999999,25.1979,10.976289999999999Q25.0377,10.79959,24.8691,10.63097Q24.7005,10.462340000000001,24.5238,10.3022Q24.3471,10.142050000000001,24.1627,9.99076Q23.9784,9.83948,23.7868,9.697420000000001Q23.5953,9.55536,23.397,9.42287Q23.1987,9.290379999999999,22.9942,9.16779Q22.7896,9.04519,22.5793,8.93277Q22.369,8.82036,22.1534,8.718399999999999Q21.9379,8.61644,21.7175,8.52518Q21.4972,8.43392,21.2727,8.353580000000001Q21.0482,8.27324,20.82,8.20401Q20.5918,8.13479,20.3604,8.07685Q20.1291,8.0189,19.895200000000003,7.972379999999999Q19.6613,7.9258500000000005,19.4254,7.89086Q19.189500000000002,7.8558699999999995,18.952199999999998,7.8325Q18.7149,7.80912,18.4767,7.79742Q18.238500000000002,7.7857199999999995,18.0001,7.7857199999999995Q17.7616,7.7857199999999995,17.523400000000002,7.79742Q17.2852,7.80912,17.0479,7.8325Q16.8106,7.8558699999999995,16.5747,7.89086Q16.3388,7.9258500000000005,16.1049,7.972379999999999Q15.871,8.0189,15.63967,8.07685Q15.40835,8.13479,15.18014,8.20402Q14.95194,8.27324,14.72741,8.353580000000001Q14.50288,8.43392,14.28255,8.52518Q14.06223,8.61644,13.84666,8.718399999999999Q13.63108,8.82036,13.420770000000001,8.93277Q13.21045,9.04519,13.00591,9.16779Q12.801359999999999,9.290379999999999,12.60308,9.42287Q12.4048,9.55536,12.21326,9.697420000000001Q12.021709999999999,9.83948,11.83737,9.99076Q11.653030000000001,10.142050000000001,11.47634,10.3022Q11.29964,10.462340000000001,11.13101,10.63097Q10.96239,10.79959,10.802240000000001,10.976289999999999Q10.64209,11.152989999999999,10.49081,11.33733Q10.33952,11.52167,10.19746,11.71321Q10.05541,11.90475,9.92292,12.10304Q9.79043,12.30132,9.66783,12.50586Q9.54523,12.71041,9.43282,12.92072Q9.3204,13.131039999999999,9.218440000000001,13.34661Q9.11648,13.56219,9.025220000000001,13.78251Q8.933959999999999,14.00283,8.85362,14.22736Q8.77328,14.45189,8.70406,14.6801Q8.63484,14.9083,8.57689,15.13963Q8.51895,15.37095,8.47242,15.6048Q8.4259,15.8387,8.39091,16.0746Q8.35592,16.310499999999998,8.33254,16.547800000000002Q8.30917,16.7852,8.29747,17.0233Q8.28577,17.261499999999998,8.28577,17.5Q8.28577,17.738500000000002,8.29747,17.9767Q8.30917,18.2148,8.33254,18.452199999999998Q8.35592,18.689500000000002,8.39091,18.9254Q8.4259,19.1613,8.47242,19.395200000000003Q8.51895,19.6291,8.57689,19.8604Q8.63484,20.0917,8.70406,20.3199Q8.77328,20.548099999999998,8.85362,20.7726Q8.933959999999999,20.9972,9.025220000000001,21.2175Q9.11648,21.4378,9.218440000000001,21.6534Q9.3204,21.869,9.43282,22.0793Q9.54523,22.2896,9.66783,22.4941Q9.79043,22.6987,9.92292,22.897Q10.05541,23.0953,10.19746,23.2868Q10.33952,23.4783,10.49081,23.6627Q10.64209,23.847,10.802240000000001,24.0237Q10.96239,24.2004,11.13101,24.369Q11.29964,24.5377,11.47634,24.6978Q11.653030000000001,24.858,11.83737,25.0092Q12.02172,25.1605,12.21326,25.3026Q12.4048,25.4446,12.60308,25.5771Q12.80137,25.7096,13.00591,25.8322Q13.21045,25.9548,13.420770000000001,26.0672Q13.63108,26.1797,13.84666,26.2816Q14.06223,26.3836,14.28255,26.4748Q14.50288,26.5661,14.72741,26.6464Q14.95194,26.7268,15.18014,26.796Q15.40835,26.8652,15.63967,26.9232Q15.871,26.9811,16.1049,27.0276Q16.3388,27.0742,16.5747,27.1091Q16.8106,27.1441,17.0479,27.1675Q17.2852,27.1909,17.523400000000002,27.2026Q17.7616,27.2143,18.0001,27.2143Z" fill-rule="evenodd" fill="#878787" fill-opacity="1"/></g><g><path d="M18.000002448425292,29.5Q18.126252448425294,29.5,18.252342448425292,29.4855Q18.378442448425293,29.4711,18.504082448425294,29.4422Q18.629732448425294,29.4133,18.75461244842529,29.3701Q18.879492448425292,29.3269,19.003322448425294,29.2694Q19.127142448425293,29.2119,19.249612448425292,29.1404Q19.372082448425292,29.0688,19.492892448425295,28.9833Q19.613702448425293,28.8978,19.732572448425294,28.7985Q19.851442448425292,28.6993,19.968082448425292,28.5865Q20.084722448425293,28.4738,20.198852448425292,28.3479Q20.312982448425295,28.2219,20.424322448425293,28.0831Q20.535662448425292,27.9442,20.643952448425292,27.7927Q20.752242448425292,27.6413,20.857212448425294,27.4776Q20.96219244842529,27.314,21.063592448425293,27.1385Q21.16500244842529,26.963,21.262592448425295,26.7761Q21.36018244842529,26.5892,21.453732448425292,26.3914Q21.547272448425293,26.1936,21.636542448425296,25.9853Q21.72582244842529,25.777,21.810602448425293,25.5587Q21.89539244842529,25.3404,21.975482448425293,25.1127Q22.055572448425295,24.885,22.130782448425293,24.6484Q22.205982448425292,24.4118,22.27612244842529,24.1668Q22.346262448425293,23.9219,22.41117244842529,23.6692Q22.476082448425295,23.4166,22.53559244842529,23.1568Q22.595102448425294,22.897,22.649082448425293,22.6307Q22.703062448425293,22.3644,22.751382448425293,22.0922Q22.799692448425294,21.82,22.842222448425293,21.5427Q22.884742448425293,21.2653,22.921442448425292,20.9834Q22.958042448425292,20.7015,22.988742448425292,20.4158Q23.019442448425295,20.130000000000003,23.044042448425294,19.8411Q23.068642448425294,19.5522,23.087142448425293,19.2608Q23.105742448425293,18.9694,23.118042448425292,18.6762Q23.130442448425292,18.383,23.13664244842529,18.0888Q23.14284244842529,17.794600000000003,23.14284244842529,17.5Q23.14284244842529,17.205399999999997,23.13664244842529,16.9112Q23.130442448425292,16.617,23.118042448425292,16.3238Q23.105742448425293,16.0306,23.087142448425293,15.7392Q23.068642448425294,15.44784,23.044042448425294,15.15891Q23.019442448425295,14.86999,22.988742448425292,14.58424Q22.958042448425292,14.29848,22.921442448425292,14.01658Q22.884742448425293,13.73468,22.842222448425293,13.45732Q22.799692448425294,13.179960000000001,22.751382448425293,12.9078Q22.703062448425293,12.63564,22.649082448425293,12.369340000000001Q22.595102448425294,12.10304,22.53559244842529,11.84324Q22.476082448425295,11.58344,22.41117244842529,11.330770000000001Q22.346262448425293,11.07809,22.27612244842529,10.83316Q22.205982448425292,10.58822,22.130782448425293,10.35161Q22.055572448425295,10.115,21.975482448425293,9.88728Q21.89539244842529,9.659559999999999,21.810602448425293,9.44129Q21.72582244842529,9.22302,21.636542448425296,9.01472Q21.547272448425293,8.80642,21.453732448425292,8.60859Q21.36018244842529,8.41076,21.262592448425295,8.22387Q21.16500244842529,8.03699,21.063592448425293,7.86151Q20.96219244842529,7.686030000000001,20.857212448425294,7.52236Q20.752242448425292,7.3587,20.643952448425292,7.20726Q20.535662448425292,7.05581,20.424322448425293,6.91694Q20.312982448425295,6.77808,20.198852448425292,6.65213Q20.084722448425293,6.52618,19.968082448425292,6.413445Q19.851442448425292,6.300713,19.732572448425294,6.201471Q19.613702448425293,6.102229,19.492892448425295,6.016716Q19.372082448425292,5.931203,19.249612448425292,5.859625Q19.127142448425293,5.788047,19.003322448425294,5.730577Q18.879492448425292,5.673106,18.75461244842529,5.629882Q18.629732448425294,5.5866575,18.504082448425294,5.5577833Q18.378442448425293,5.528909,18.252342448425292,5.5144545Q18.126252448425294,5.5,18.000002448425292,5.5Q17.873752448425293,5.5,17.747652448425292,5.5144545Q17.62155244842529,5.528909,17.495912448425294,5.5577833Q17.370272448425293,5.5866575,17.245382448425293,5.629882Q17.12050244842529,5.673106,16.996672448425294,5.730577Q16.87285244842529,5.788047,16.75038244842529,5.859625Q16.62792244842529,5.931203,16.507102448425293,6.016716Q16.386292448425294,6.102229,16.267422448425293,6.201471Q16.148552448425292,6.300713,16.03191244842529,6.413445Q15.915272448425293,6.52618,15.801142448425292,6.65213Q15.687012448425293,6.77808,15.575672448425292,6.91694Q15.464332448425292,7.05581,15.356042448425292,7.20726Q15.247752448425294,7.3587,15.142782448425294,7.52236Q15.037812448425292,7.686030000000001,14.936402448425293,7.86151Q14.835002448425293,8.03699,14.737402448425293,8.22387Q14.639812448425293,8.41076,14.546262448425292,8.60859Q14.452722448425293,8.80642,14.363452448425292,9.01472Q14.274182448425293,9.22302,14.189392448425293,9.44129Q14.104612448425293,9.659559999999999,14.024512448425293,9.88728Q13.944422448425293,10.115,13.869222448425294,10.35161Q13.794010448425293,10.58822,13.723870448425293,10.83316Q13.653729448425294,11.07809,13.588823448425293,11.330770000000001Q13.523918448425293,11.58344,13.464404448425293,11.84324Q13.404890448425293,12.10304,13.350911448425293,12.369340000000001Q13.296932448425293,12.63564,13.248619448425293,12.9078Q13.200305448425294,13.179960000000001,13.157772448425293,13.45732Q13.115240448425293,13.73468,13.078592448425294,14.01658Q13.041943448425293,14.29848,13.011267448425293,14.58424Q12.980591448425294,14.86999,12.955960948425293,15.15891Q12.931330848425294,15.44784,12.912806048425294,15.7392Q12.894281348425293,16.0306,12.881906748425292,16.3238Q12.869532048425294,16.617,12.863337248425292,16.9112Q12.857142448425293,17.205399999999997,12.857142448425293,17.5Q12.857142448425293,17.794600000000003,12.863337248425292,18.0888Q12.869532048425294,18.383,12.881906748425292,18.6762Q12.894281348425293,18.9694,12.912806048425294,19.2608Q12.931330848425294,19.5522,12.955960948425293,19.8411Q12.980591448425294,20.130000000000003,13.011267448425293,20.4158Q13.041943448425293,20.7015,13.078592448425294,20.9834Q13.115240448425293,21.2653,13.157772448425293,21.5427Q13.200305448425294,21.82,13.248619448425293,22.0922Q13.296932448425293,22.3644,13.350911448425293,22.6307Q13.404890448425293,22.897,13.464404448425293,23.1568Q13.523918448425293,23.4166,13.588823448425293,23.6692Q13.653729448425294,23.9219,13.723870448425293,24.1668Q13.794010448425293,24.4118,13.869222448425294,24.6484Q13.944422448425293,24.885,14.024512448425293,25.1127Q14.104612448425293,25.3404,14.189392448425293,25.5587Q14.274182448425293,25.777,14.363452448425292,25.9853Q14.452722448425293,26.1936,14.546272448425293,26.3914Q14.639812448425293,26.5892,14.737402448425293,26.7761Q14.835002448425293,26.963,14.936402448425293,27.1385Q15.037812448425292,27.314,15.142782448425294,27.4776Q15.247752448425294,27.6413,15.356042448425292,27.7927Q15.464332448425292,27.9442,15.575672448425292,28.0831Q15.687012448425293,28.2219,15.801142448425292,28.3479Q15.915272448425293,28.4738,16.03191244842529,28.5865Q16.148552448425292,28.6993,16.267422448425293,28.7985Q16.386292448425294,28.8978,16.507102448425293,28.9833Q16.62792244842529,29.0688,16.75038244842529,29.1404Q16.87285244842529,29.2119,16.996672448425294,29.2694Q17.12050244842529,29.3269,17.245382448425293,29.3701Q17.370272448425293,29.4133,17.495912448425294,29.4422Q17.62155244842529,29.4711,17.747652448425292,29.4855Q17.873752448425293,29.5,18.000002448425292,29.5ZM17.999972448425293,26.0714Q18.090152448425293,26.0714,18.180222448425294,26.0611Q18.270292448425295,26.0508,18.360032448425294,26.0302Q18.449782448425292,26.0095,18.538982448425294,25.9787Q18.628182448425292,25.9478,18.716632448425294,25.9067Q18.805072448425292,25.8657,18.892552448425292,25.8146Q18.98003244842529,25.7634,19.066322448425293,25.7023Q19.152622448425294,25.6413,19.237522448425292,25.5704Q19.322432448425293,25.4995,19.405742448425293,25.419Q19.489062448425294,25.3384,19.57058244842529,25.2485Q19.652102448425293,25.1585,19.731632448425295,25.0593Q19.811162448425293,24.9601,19.888512448425292,24.852Q19.96586244842529,24.7438,20.040842448425295,24.6269Q20.11582244842529,24.51,20.188252448425292,24.3846Q20.260682448425293,24.2593,20.330392448425293,24.1258Q20.400102448425294,23.9923,20.466922448425294,23.851Q20.533742448425294,23.7097,20.597502448425292,23.5609Q20.661272448425294,23.4121,20.721832448425292,23.2562Q20.78239244842529,23.1003,20.839602448425293,22.9377Q20.896812448425294,22.775,20.950532448425292,22.606Q21.00425244842529,22.437,21.05435244842529,22.262Q21.104452448425292,22.0871,21.15081244842529,21.9066Q21.19717244842529,21.7261,21.23968244842529,21.5405Q21.282192448425292,21.355,21.320752448425292,21.1648Q21.359302448425293,20.9745,21.393812448425294,20.780099999999997Q21.42832244842529,20.5857,21.458702448425292,20.3876Q21.489082448425293,20.189500000000002,21.515262448425293,19.9882Q21.541442448425293,19.7868,21.56335244842529,19.582700000000003Q21.585262448425294,19.3786,21.602852448425296,19.1722Q21.620452448425294,18.9658,21.633682448425294,18.7577Q21.646912448425294,18.549599999999998,21.655752448425293,18.3401Q21.664592448425292,18.130699999999997,21.669012448425292,17.9206Q21.67344244842529,17.7104,21.67344244842529,17.5Q21.67344244842529,17.2896,21.669012448425292,17.0794Q21.664592448425292,16.869300000000003,21.655752448425293,16.6599Q21.646912448425294,16.450499999999998,21.633682448425294,16.2423Q21.620452448425294,16.0342,21.602852448425296,15.8278Q21.585262448425294,15.6214,21.56335244842529,15.41731Q21.541442448425293,15.2132,21.515262448425293,15.01185Q21.489082448425293,14.81049,21.458702448425292,14.61237Q21.42832244842529,14.41426,21.393812448425294,14.21986Q21.359302448425293,14.02546,21.320752448425292,13.83524Q21.282192448425292,13.64503,21.23968244842529,13.45946Q21.19717244842529,13.27389,21.15081244842529,13.09341Q21.104452448425292,12.91293,21.05435244842529,12.73797Q21.00425244842529,12.56302,20.950532448425292,12.39401Q20.896812448425294,12.225,20.839602448425293,12.06235Q20.78239244842529,11.89969,20.721832448425292,11.743780000000001Q20.661272448425294,11.587869999999999,20.597502448425292,11.43909Q20.533742448425294,11.2903,20.466922448425294,11.148990000000001Q20.400102448425294,11.00768,20.330392448425293,10.8742Q20.260682448425293,10.74071,20.188252448425292,10.61537Q20.11582244842529,10.490020000000001,20.040842448425295,10.37312Q19.96586244842529,10.256219999999999,19.888512448425292,10.14804Q19.811162448425293,10.03987,19.731632448425295,9.94068Q19.652102448425293,9.84149,19.57058244842529,9.75152Q19.489062448425294,9.66156,19.405742448425293,9.58103Q19.322432448425293,9.50051,19.237522448425292,9.42962Q19.152622448425294,9.358740000000001,19.066322448425293,9.29766Q18.98003244842529,9.23658,18.892552448425292,9.18545Q18.805072448425292,9.13432,18.716632448425294,9.09327Q18.628182448425292,9.05222,18.538982448425294,9.02135Q18.449782448425292,8.99047,18.360032448425294,8.969850000000001Q18.270292448425295,8.94922,18.180222448425294,8.9389Q18.090152448425293,8.92857,17.999972448425293,8.92857Q17.909792448425293,8.92857,17.819722448425292,8.9389Q17.72965244842529,8.94922,17.639912448425292,8.969850000000001Q17.550162448425294,8.99047,17.460962448425292,9.02135Q17.371762448425294,9.05222,17.283312448425292,9.09327Q17.194862448425294,9.13432,17.107392448425294,9.18545Q17.019912448425295,9.23658,16.933622448425293,9.29766Q16.84732244842529,9.358740000000001,16.762412448425295,9.42962Q16.677512448425293,9.50051,16.594192448425293,9.58103Q16.510882448425292,9.66156,16.429362448425294,9.75152Q16.347842448425293,9.84149,16.26831244842529,9.94068Q16.188782448425293,10.03987,16.111432448425294,10.14804Q16.034082448425295,10.256219999999999,15.959102448425293,10.37312Q15.884122448425293,10.490020000000001,15.811692448425292,10.61537Q15.739252448425294,10.74071,15.669542448425293,10.8742Q15.599842448425292,11.00768,15.533022448425292,11.148990000000001Q15.466202448425292,11.2903,15.402432448425293,11.43909Q15.338672448425292,11.587869999999999,15.278112448425293,11.743780000000001Q15.217552448425293,11.89969,15.160342448425293,12.062339999999999Q15.103132448425292,12.225,15.049412448425294,12.39401Q14.995692448425293,12.56302,14.945592448425293,12.73797Q14.895492448425292,12.91293,14.849132448425292,13.09341Q14.802772448425292,13.27389,14.760262448425292,13.45946Q14.717752448425292,13.64503,14.679192448425294,13.83524Q14.640642448425293,14.02546,14.606132448425292,14.21986Q14.571622448425293,14.41426,14.541242448425294,14.61237Q14.510862448425293,14.81049,14.484682448425293,15.01185Q14.458502448425293,15.2132,14.436592448425293,15.41731Q14.414682448425292,15.6214,14.397092448425292,15.8278Q14.379492448425292,16.0342,14.366262448425292,16.2423Q14.353032448425292,16.450499999999998,14.344192448425293,16.6599Q14.335352448425294,16.869300000000003,14.330932448425292,17.0794Q14.326502448425293,17.2896,14.326502448425293,17.5Q14.326502448425293,17.7104,14.330932448425292,17.9206Q14.335352448425294,18.130699999999997,14.344192448425293,18.3401Q14.353032448425292,18.549599999999998,14.366262448425292,18.7577Q14.379492448425292,18.9658,14.397082448425293,19.1722Q14.414682448425292,19.3786,14.436592448425293,19.582700000000003Q14.458502448425293,19.7868,14.484682448425293,19.9882Q14.510862448425293,20.189500000000002,14.541242448425294,20.3876Q14.571622448425293,20.5857,14.606132448425292,20.780099999999997Q14.640642448425293,20.9745,14.679192448425294,21.1648Q14.717752448425292,21.355,14.760262448425292,21.5405Q14.802772448425292,21.7261,14.849132448425292,21.9066Q14.895492448425292,22.0871,14.945592448425293,22.262Q14.995692448425293,22.437,15.049412448425294,22.606Q15.103132448425292,22.775,15.160342448425293,22.9377Q15.217552448425293,23.1003,15.278112448425293,23.2562Q15.338672448425292,23.4121,15.402432448425293,23.5609Q15.466202448425292,23.7097,15.533022448425292,23.851Q15.599842448425292,23.9923,15.669552448425293,24.1258Q15.739252448425294,24.2593,15.811692448425292,24.3846Q15.884122448425293,24.51,15.959102448425293,24.6269Q16.034082448425295,24.7438,16.111432448425294,24.852Q16.188782448425293,24.9601,16.26831244842529,25.0593Q16.347842448425293,25.1585,16.429362448425294,25.2485Q16.510882448425292,25.3384,16.594192448425293,25.419Q16.677512448425293,25.4995,16.762412448425295,25.5704Q16.84732244842529,25.6413,16.933622448425293,25.7023Q17.019912448425295,25.7634,17.107392448425294,25.8146Q17.194862448425294,25.8657,17.283312448425292,25.9067Q17.371762448425294,25.9478,17.460962448425292,25.9787Q17.550162448425294,26.0095,17.639912448425292,26.0302Q17.72965244842529,26.0508,17.819722448425292,26.0611Q17.909792448425293,26.0714,17.999972448425293,26.0714Z" fill-rule="evenodd" fill="#878787" fill-opacity="1"/></g><g transform="matrix(0,1,-1,0,42.35714054107666,-17.642855644226074)"><path d="M35.142858092651366,36.35714244842529Q35.269108092651365,36.35714244842529,35.39519809265137,36.342642448425295Q35.521298092651364,36.32824244842529,35.64693809265137,36.29934244842529Q35.77258809265137,36.27044244842529,35.897468092651366,36.227242448425294Q36.02234809265137,36.18404244842529,36.14617809265137,36.1265424484253Q36.26999809265136,36.06904244842529,36.39246809265137,35.99754244842529Q36.51493809265137,35.92594244842529,36.63574809265137,35.84044244842529Q36.75655809265137,35.7549424484253,36.87542809265137,35.6556424484253Q36.99429809265137,35.556442448425294,37.11093809265137,35.443642448425294Q37.22757809265137,35.33094244842529,37.341708092651366,35.20504244842529Q37.45583809265137,35.0790424484253,37.56717809265137,34.940242448425295Q37.678518092651366,34.80134244842529,37.78680809265137,34.64984244842529Q37.89509809265137,34.498442448425294,38.00006809265137,34.33474244842529Q38.105048092651366,34.17114244842529,38.20644809265137,33.99564244842529Q38.307858092651365,33.820142448425294,38.40544809265137,33.63324244842529Q38.503038092651366,33.4463424484253,38.596588092651366,33.2485424484253Q38.69012809265136,33.0507424484253,38.77939809265137,32.84244244842529Q38.868678092651365,32.634142448425294,38.95345809265137,32.415842448425295Q39.038248092651365,32.197542448425295,39.11833809265137,31.969842448425293Q39.19842809265137,31.742142448425295,39.27363809265137,31.50554244842529Q39.34883809265136,31.268942448425292,39.418978092651365,31.02394244842529Q39.48911809265137,30.779042448425294,39.554028092651365,30.526342448425293Q39.61893809265137,30.273742448425292,39.678448092651365,30.013942448425293Q39.73795809265137,29.75414244842529,39.791938092651364,29.487842448425294Q39.84591809265137,29.221542448425293,39.894238092651364,28.94934244842529Q39.942548092651364,28.677142448425293,39.985078092651364,28.399842448425293Q40.02759809265137,28.122442448425293,40.06429809265137,27.840542448425293Q40.10089809265136,27.558642448425292,40.131598092651366,27.272942448425294Q40.16229809265137,26.987142448425296,40.18689809265137,26.698242448425294Q40.21149809265137,26.409342448425292,40.22999809265137,26.117942448425293Q40.24859809265136,25.826542448425293,40.26089809265137,25.533342448425294Q40.273298092651366,25.240142448425292,40.279498092651366,24.945942448425292Q40.285698092651366,24.651742448425296,40.285698092651366,24.357142448425293Q40.285698092651366,24.06254244842529,40.279498092651366,23.768342448425294Q40.273298092651366,23.474142448425294,40.26089809265137,23.18094244842529Q40.24859809265136,22.887742448425293,40.22999809265137,22.596342448425293Q40.21149809265137,22.304982448425292,40.18689809265137,22.01605244842529Q40.16229809265137,21.727132448425294,40.131598092651366,21.441382448425294Q40.10089809265136,21.15562244842529,40.06429809265137,20.87372244842529Q40.02759809265137,20.591822448425294,39.985078092651364,20.314462448425292Q39.942548092651364,20.037102448425294,39.894238092651364,19.764942448425295Q39.84591809265137,19.492782448425295,39.791938092651364,19.226482448425294Q39.73795809265137,18.960182448425293,39.678448092651365,18.700382448425295Q39.61893809265137,18.440582448425292,39.554028092651365,18.187912448425294Q39.48911809265137,17.935232448425293,39.418978092651365,17.690302448425292Q39.34883809265136,17.445362448425293,39.27363809265137,17.208752448425294Q39.19842809265137,16.972142448425295,39.11833809265137,16.744422448425293Q39.038248092651365,16.516702448425292,38.95345809265137,16.29843244842529Q38.868678092651365,16.08016244842529,38.77939809265137,15.871862448425293Q38.69012809265136,15.663562448425292,38.596588092651366,15.465732448425292Q38.503038092651366,15.267902448425293,38.40544809265137,15.081012448425293Q38.307858092651365,14.894132448425292,38.20644809265137,14.718652448425292Q38.105048092651366,14.543172448425294,38.00006809265137,14.379502448425292Q37.89509809265137,14.215842448425294,37.78680809265137,14.064402448425293Q37.678518092651366,13.912952448425292,37.56717809265137,13.774082448425293Q37.45583809265137,13.635222448425292,37.341708092651366,13.509272448425293Q37.22757809265137,13.383322448425293,37.11093809265137,13.270587448425292Q36.99429809265137,13.157855448425293,36.87542809265137,13.058613448425293Q36.75655809265137,12.959371448425292,36.63574809265137,12.873858448425294Q36.51493809265137,12.788345448425293,36.39246809265137,12.716767448425292Q36.26999809265136,12.645189448425294,36.14617809265137,12.587719448425293Q36.02234809265137,12.530248448425294,35.897468092651366,12.487024448425293Q35.77258809265137,12.443799948425292,35.64693809265137,12.414925748425294Q35.521298092651364,12.386051448425293,35.39519809265137,12.371596948425292Q35.269108092651365,12.357142448425293,35.142858092651366,12.357142448425293Q35.01660809265137,12.357142448425293,34.890508092651366,12.371596948425292Q34.764408092651365,12.386051448425293,34.63876809265137,12.414925748425294Q34.51312809265137,12.443799948425292,34.38823809265136,12.487024448425293Q34.263358092651366,12.530248448425294,34.13952809265137,12.587719448425293Q34.015708092651366,12.645189448425294,33.893238092651366,12.716767448425292Q33.77077809265137,12.788345448425293,33.64995809265137,12.873858448425294Q33.52914809265137,12.959371448425292,33.41027809265137,13.058613448425293Q33.291408092651366,13.157855448425293,33.17476809265137,13.270587448425292Q33.058128092651366,13.383322448425293,32.94399809265137,13.509272448425293Q32.82986809265137,13.635222448425292,32.71852809265137,13.774082448425293Q32.60718809265137,13.912952448425292,32.498898092651366,14.064402448425293Q32.39060809265137,14.215842448425294,32.28563809265137,14.379502448425292Q32.180668092651366,14.543172448425294,32.079258092651365,14.718652448425292Q31.977858092651367,14.894132448425292,31.880258092651367,15.081012448425293Q31.782668092651367,15.267902448425293,31.689118092651366,15.465732448425292Q31.595578092651365,15.663562448425292,31.506308092651366,15.871862448425293Q31.417038092651367,16.08016244842529,31.332248092651366,16.29843244842529Q31.247468092651367,16.516702448425292,31.167368092651365,16.744422448425293Q31.087278092651367,16.972142448425295,31.012078092651368,17.208752448425294Q30.936866092651368,17.445362448425293,30.866726092651366,17.690302448425292Q30.796585092651366,17.935232448425293,30.73167909265137,18.187912448425294Q30.666774092651366,18.440582448425292,30.607260092651366,18.700382448425295Q30.547746092651366,18.960182448425293,30.493767092651368,19.226482448425294Q30.439788092651366,19.492782448425295,30.391475092651365,19.764942448425295Q30.343161092651368,20.037102448425294,30.30062809265137,20.314462448425292Q30.258096092651368,20.591822448425294,30.221448092651368,20.87372244842529Q30.184799092651367,21.15562244842529,30.154123092651368,21.441382448425294Q30.123447092651368,21.727132448425294,30.098816592651367,22.01605244842529Q30.074186492651368,22.304982448425292,30.055661692651366,22.596342448425293Q30.037136992651366,22.887742448425293,30.02476239265137,23.18094244842529Q30.012387692651366,23.474142448425294,30.006192892651367,23.768342448425294Q29.999998092651367,24.06254244842529,29.999998092651367,24.357142448425293Q29.999998092651367,24.651742448425296,30.006192892651367,24.945942448425292Q30.012387692651366,25.240142448425292,30.02476239265137,25.533342448425294Q30.037136992651366,25.826542448425293,30.055661692651366,26.117942448425293Q30.074186492651368,26.409342448425292,30.098816592651367,26.698242448425294Q30.123447092651368,26.987142448425296,30.154123092651368,27.272942448425294Q30.184799092651367,27.558642448425292,30.221448092651368,27.840542448425293Q30.258096092651368,28.122442448425293,30.30062809265137,28.399842448425293Q30.343161092651368,28.677142448425293,30.391475092651365,28.94934244842529Q30.439788092651366,29.221542448425293,30.493767092651368,29.487842448425294Q30.547746092651366,29.75414244842529,30.607260092651366,30.013942448425293Q30.666774092651366,30.273742448425292,30.73167909265137,30.526342448425293Q30.796585092651366,30.779042448425294,30.866726092651366,31.02394244842529Q30.936866092651368,31.268942448425292,31.012078092651368,31.50554244842529Q31.087278092651367,31.742142448425295,31.167368092651365,31.969842448425293Q31.247468092651367,32.197542448425295,31.332248092651366,32.415842448425295Q31.417038092651367,32.634142448425294,31.506308092651366,32.84244244842529Q31.595578092651365,33.0507424484253,31.689128092651366,33.2485424484253Q31.782668092651367,33.4463424484253,31.880258092651367,33.63324244842529Q31.977858092651367,33.820142448425294,32.079258092651365,33.99564244842529Q32.180668092651366,34.17114244842529,32.28563809265137,34.33474244842529Q32.39060809265137,34.498442448425294,32.498898092651366,34.64984244842529Q32.60718809265137,34.80134244842529,32.71852809265137,34.940242448425295Q32.82986809265137,35.0790424484253,32.94399809265137,35.20504244842529Q33.058128092651366,35.33094244842529,33.17476809265137,35.443642448425294Q33.291408092651366,35.556442448425294,33.41027809265137,35.6556424484253Q33.52914809265137,35.7549424484253,33.64995809265137,35.84044244842529Q33.77077809265137,35.92594244842529,33.893238092651366,35.99754244842529Q34.015708092651366,36.06904244842529,34.13952809265137,36.1265424484253Q34.263358092651366,36.18404244842529,34.38823809265136,36.227242448425294Q34.51312809265137,36.27044244842529,34.63876809265137,36.29934244842529Q34.764408092651365,36.32824244842529,34.890508092651366,36.342642448425295Q35.01660809265137,36.35714244842529,35.142858092651366,36.35714244842529ZM35.14282809265137,32.92854244842529Q35.23300809265137,32.92854244842529,35.323078092651365,32.91824244842529Q35.41314809265137,32.90794244842529,35.50288809265137,32.887342448425294Q35.59263809265137,32.866642448425296,35.68183809265137,32.835842448425296Q35.77103809265137,32.804942448425294,35.85948809265137,32.763842448425294Q35.94792809265137,32.7228424484253,36.035408092651366,32.67174244842529Q36.122888092651365,32.6205424484253,36.20917809265137,32.559442448425294Q36.295478092651365,32.498442448425294,36.38037809265137,32.42754244842529Q36.46528809265137,32.35664244842529,36.54859809265137,32.27614244842529Q36.63191809265137,32.19554244842529,36.713438092651366,32.10564244842529Q36.79495809265137,32.0156424484253,36.87448809265137,31.916442448425293Q36.95401809265137,31.817242448425294,37.03136809265137,31.709142448425293Q37.108718092651365,31.600942448425293,37.18369809265137,31.484042448425292Q37.258678092651365,31.367142448425295,37.33110809265137,31.241742448425292Q37.40353809265137,31.116442448425293,37.47324809265137,30.982942448425295Q37.54295809265137,30.849442448425293,37.60977809265137,30.708142448425292Q37.67659809265137,30.566842448425295,37.74035809265137,30.418042448425293Q37.80412809265137,30.26924244842529,37.86468809265137,30.113342448425293Q37.925248092651366,29.957442448425294,37.98245809265137,29.794842448425293Q38.03966809265137,29.63214244842529,38.09338809265137,29.463142448425295Q38.147108092651365,29.294142448425294,38.197208092651366,29.119142448425293Q38.247308092651366,28.944242448425292,38.293668092651366,28.763742448425294Q38.340028092651366,28.583242448425292,38.382538092651366,28.397642448425295Q38.425048092651366,28.212142448425293,38.46360809265137,28.021942448425293Q38.50215809265137,27.831642448425292,38.53666809265137,27.63724244842529Q38.571178092651365,27.442842448425292,38.601558092651366,27.244742448425292Q38.63193809265137,27.046642448425295,38.658118092651364,26.845342448425292Q38.68429809265137,26.643942448425292,38.706208092651366,26.439842448425296Q38.72811809265137,26.23574244842529,38.74570809265137,26.029342448425293Q38.76330809265137,25.822942448425295,38.776538092651364,25.614842448425293Q38.78976809265137,25.40674244842529,38.798608092651364,25.197242448425293Q38.80744809265137,24.98784244842529,38.811868092651366,24.777742448425293Q38.816298092651365,24.567542448425293,38.816298092651365,24.357142448425293Q38.816298092651365,24.146742448425293,38.811868092651366,23.936542448425293Q38.80744809265137,23.726442448425296,38.798608092651364,23.517042448425293Q38.78976809265137,23.30764244842529,38.776538092651364,23.099442448425293Q38.76330809265137,22.89134244842529,38.74570809265137,22.684942448425293Q38.72811809265137,22.478542448425294,38.706208092651366,22.274452448425293Q38.68429809265137,22.070342448425293,38.658118092651364,21.868992448425296Q38.63193809265137,21.667632448425294,38.601558092651366,21.46951244842529Q38.571178092651365,21.27140244842529,38.53666809265137,21.077002448425294Q38.50215809265137,20.882602448425295,38.46360809265137,20.692382448425292Q38.425048092651366,20.50217244842529,38.382538092651366,20.316602448425293Q38.340028092651366,20.131032448425294,38.293668092651366,19.95055244842529Q38.247308092651366,19.770072448425292,38.197208092651366,19.595112448425294Q38.147108092651365,19.420162448425295,38.09338809265137,19.251152448425294Q38.03966809265137,19.082142448425294,37.98245809265137,18.919492448425295Q37.925248092651366,18.756832448425293,37.86468809265137,18.600922448425294Q37.80412809265137,18.44501244842529,37.74035809265137,18.296232448425293Q37.67659809265137,18.147442448425295,37.60977809265137,18.006132448425294Q37.54295809265137,17.864822448425294,37.47324809265137,17.731342448425295Q37.40353809265137,17.597852448425293,37.33110809265137,17.47251244842529Q37.258678092651365,17.347162448425294,37.18369809265137,17.230262448425293Q37.108718092651365,17.113362448425292,37.03136809265137,17.005182448425295Q36.95401809265137,16.897012448425293,36.87448809265137,16.797822448425293Q36.79495809265137,16.698632448425293,36.713438092651366,16.608662448425292Q36.63191809265137,16.518702448425294,36.54859809265137,16.43817244842529Q36.46528809265137,16.35765244842529,36.38037809265137,16.286762448425293Q36.295478092651365,16.215882448425294,36.20917809265137,16.154802448425293Q36.122888092651365,16.093722448425293,36.035408092651366,16.042592448425292Q35.94792809265137,15.991462448425294,35.85948809265137,15.950412448425293Q35.77103809265137,15.909362448425293,35.68183809265137,15.878492448425293Q35.59263809265137,15.847612448425293,35.50288809265137,15.826992448425294Q35.41314809265137,15.806362448425293,35.323078092651365,15.796042448425293Q35.23300809265137,15.785712448425294,35.14282809265137,15.785712448425294Q35.05264809265137,15.785712448425294,34.96257809265137,15.796042448425293Q34.872508092651366,15.806362448425293,34.78276809265137,15.826992448425294Q34.693018092651364,15.847612448425293,34.603818092651366,15.878492448425293Q34.51461809265137,15.909362448425293,34.426168092651366,15.950412448425293Q34.337718092651365,15.991462448425294,34.25024809265137,16.042592448425292Q34.16276809265137,16.093722448425293,34.07647809265137,16.154802448425293Q33.99017809265137,16.215882448425294,33.90526809265137,16.286762448425293Q33.820368092651364,16.35765244842529,33.737048092651364,16.43817244842529Q33.653738092651366,16.518702448425294,33.57221809265137,16.608662448425292Q33.490698092651364,16.698632448425293,33.411168092651366,16.797822448425293Q33.33163809265137,16.897012448425293,33.254288092651365,17.005182448425295Q33.17693809265137,17.113362448425292,33.101958092651365,17.230262448425293Q33.02697809265137,17.347162448425294,32.954548092651365,17.47251244842529Q32.882108092651364,17.597852448425293,32.812398092651364,17.731342448425295Q32.742698092651366,17.864822448425294,32.67587809265137,18.006132448425294Q32.60905809265137,18.147442448425295,32.54528809265137,18.296232448425293Q32.48152809265137,18.44501244842529,32.420968092651364,18.600922448425294Q32.36040809265137,18.756832448425293,32.303198092651364,18.919482448425292Q32.245988092651366,19.082142448425294,32.19226809265137,19.251152448425294Q32.13854809265137,19.420162448425295,32.08844809265137,19.595112448425294Q32.03834809265137,19.770072448425292,31.99198809265137,19.95055244842529Q31.94562809265137,20.131032448425294,31.90311809265137,20.316602448425293Q31.86060809265137,20.50217244842529,31.822048092651368,20.692382448425292Q31.783498092651367,20.882602448425295,31.748988092651366,21.077002448425294Q31.71447809265137,21.27140244842529,31.684098092651368,21.46951244842529Q31.653718092651367,21.667632448425294,31.627538092651367,21.868992448425296Q31.601358092651367,22.070342448425293,31.57944809265137,22.274452448425293Q31.557538092651367,22.478542448425294,31.53994809265137,22.684942448425293Q31.522348092651367,22.89134244842529,31.509118092651367,23.099442448425293Q31.495888092651366,23.30764244842529,31.487048092651367,23.517042448425293Q31.478208092651368,23.726442448425296,31.47378809265137,23.936542448425293Q31.46935809265137,24.146742448425293,31.46935809265137,24.357142448425293Q31.46935809265137,24.567542448425293,31.47378809265137,24.777742448425293Q31.478208092651368,24.98784244842529,31.487048092651367,25.197242448425293Q31.495888092651366,25.40674244842529,31.509118092651367,25.614842448425293Q31.522348092651367,25.822942448425295,31.53993809265137,26.029342448425293Q31.557538092651367,26.23574244842529,31.57944809265137,26.439842448425296Q31.601358092651367,26.643942448425292,31.627538092651367,26.845342448425292Q31.653718092651367,27.046642448425295,31.684098092651368,27.244742448425292Q31.71447809265137,27.442842448425292,31.748988092651366,27.63724244842529Q31.783498092651367,27.831642448425292,31.822048092651368,28.021942448425293Q31.86060809265137,28.212142448425293,31.90311809265137,28.397642448425295Q31.94562809265137,28.583242448425292,31.99198809265137,28.763742448425294Q32.03834809265137,28.944242448425292,32.08844809265137,29.119142448425293Q32.13854809265137,29.294142448425294,32.19226809265137,29.463142448425295Q32.245988092651366,29.63214244842529,32.303198092651364,29.794842448425293Q32.36040809265137,29.957442448425294,32.420968092651364,30.113342448425293Q32.48152809265137,30.26924244842529,32.54528809265137,30.418042448425293Q32.60905809265137,30.566842448425295,32.67587809265137,30.708142448425292Q32.742698092651366,30.849442448425293,32.81240809265137,30.982942448425295Q32.882108092651364,31.116442448425293,32.954548092651365,31.241742448425292Q33.02697809265137,31.367142448425295,33.101958092651365,31.484042448425292Q33.17693809265137,31.600942448425293,33.254288092651365,31.709142448425293Q33.33163809265137,31.817242448425294,33.411168092651366,31.916442448425293Q33.490698092651364,32.0156424484253,33.57221809265137,32.10564244842529Q33.653738092651366,32.19554244842529,33.737048092651364,32.27614244842529Q33.820368092651364,32.35664244842529,33.90526809265137,32.42754244842529Q33.99017809265137,32.498442448425294,34.07647809265137,32.559442448425294Q34.16276809265137,32.6205424484253,34.25024809265137,32.67174244842529Q34.337718092651365,32.7228424484253,34.426168092651366,32.763842448425294Q34.51461809265137,32.804942448425294,34.603818092651366,32.835842448425296Q34.693018092651364,32.866642448425296,34.78276809265137,32.887342448425294Q34.872508092651366,32.90794244842529,34.96257809265137,32.91824244842529Q35.05264809265137,32.92854244842529,35.14282809265137,32.92854244842529Z" fill-rule="evenodd" fill="#878787" fill-opacity="1"/></g></g></g></svg>