<svg xmlns="http://www.w3.org/2000/svg" xmlns:xlink="http://www.w3.org/1999/xlink" fill="none" version="1.1" width="27" height="27" viewBox="0 0 27 27"><g><g><rect x="6.75" y="0" width="13.5" height="13.5" rx="0" fill="#323232" fill-opacity="1"/></g><g><path d="M0,15.1875L0,15.5L1.6875,15.5L1.6875,15.1875L2,15.1875L2,13.5L0,13.5L0,15.1875ZM5.0625,13.5L5.0625,15.5L8.4375,15.5L8.4375,13.5L5.0625,13.5ZM11.5,13.5L11.5,15.1875L11.8125,15.1875L11.8125,15.5L13.5,15.5L13.5,13.5L11.5,13.5ZM13.5,18.5625L11.5,18.5625L11.5,21.9375L13.5,21.9375L13.5,18.5625ZM13.5,25L11.8125,25L11.8125,25.3125L11.5,25.3125L11.5,27L13.5,27L13.5,25ZM8.4375,27L8.4375,25L5.0625,25L5.0625,27L8.4375,27ZM2,27L2,25.3125L1.6875,25.3125L1.6875,25L0,25L0,27L2,27ZM0,21.9375L2,21.9375L2,18.5625L0,18.5625L0,21.9375Z" fill-rule="evenodd" fill="#323232" fill-opacity="1"/></g><g><rect x="14.5" y="14.5" width="11.5" height="11.5" rx="0" fill-opacity="0" stroke-opacity="1" stroke="#323232" fill="none" stroke-width="2"/></g></g></svg>