<svg xmlns="http://www.w3.org/2000/svg" xmlns:xlink="http://www.w3.org/1999/xlink" fill="none" version="1.1" width="350.231689453125" height="368.839599609375" viewBox="0 0 350.231689453125 368.839599609375"><g><g><g><path d="M238.33197802734375,184L296.66497802734375,184Q296.66497802734375,182.011,296.60197802734376,180.023Q296.53797802734374,178.036,296.41197802734376,176.051Q296.28497802734375,174.066,296.0959780273438,172.086Q295.90597802734374,170.107,295.6539780273438,168.13400000000001Q295.4019780273437,166.161,295.08597802734374,164.197Q294.77097802734374,162.23399999999998,294.3939780273438,160.281Q294.0169780273437,158.32850000000002,293.5769780273438,156.3888Q293.13797802734376,154.4491,292.63697802734373,152.5244Q292.13597802734375,150.59969999999998,291.5749780273437,148.6919Q291.01297802734376,146.7841,290.39097802734375,144.8951Q289.7689780273438,143.0061,289.0869780273438,141.1379Q288.40497802734376,139.2697,287.6639780273438,137.4241Q286.9229780273438,135.57850000000002,286.1229780273437,133.7575Q285.32397802734374,131.9364,284.46697802734377,130.14170000000001Q283.60997802734374,128.3469,282.6969780273438,126.5804Q281.78297802734374,124.8139,280.81397802734375,123.0773Q279.8439780273437,121.3407,278.8199780273437,119.6358Q277.7959780273437,117.93090000000001,276.71797802734375,116.2595Q275.64097802734375,114.588,274.5099780273438,112.9517Q273.3799780273438,111.3154,272.19797802734377,109.7159Q271.01597802734375,108.1164,269.7839780273438,106.5553Q268.55197802734375,104.9942,267.26997802734377,103.473Q265.98897802734376,101.9519,264.65997802734375,100.47229999999999Q263.33097802734375,98.9928,261.95597802734375,97.55619999999999Q260.58097802734375,96.11959999999999,259.15997802734375,94.72749999999999Q257.73997802734374,93.3355,256.27597802734374,91.9893Q254.81197802734374,90.6431,253.30597802734374,89.3441Q251.79997802734374,88.0452,250.25397802734375,86.7948Q248.70697802734375,85.5444,247.12097802734374,84.3439Q245.53597802734376,83.1434,243.91297802734374,81.9939Q242.28997802734375,80.84440000000001,240.63097802734376,79.7471Q238.97197802734374,78.6498,237.27997802734376,77.60589999999999L230.52997802734376,91.8677L241.62497802734376,107.3046L241.35097802734376,107.57130000000001L241.42397802734374,107.6405L217.15697802734374,131.3161L229.24797802734375,108.9325L214.82297802734374,99.7907L215.35297802734374,99.0849L222.96497802734376,70.0118Q219.95097802734375,68.65556,216.87097802734374,67.46047Q213.78997802734375,66.26537,210.64997802734376,65.23474Q207.50997802734375,64.2041,204.31997802734375,63.3408Q201.12997802734375,62.4775,197.89897802734376,61.78394Q194.66797802734374,61.09039,191.40497802734376,60.56853Q188.14197802734375,60.04666,184.85597802734375,59.697935Q181.56997802734375,59.349211,178.26997802734374,59.174606Q174.96997802734376,59,171.66497802734375,59L171.66497802734375,117.33330000000001Q173.30197802734375,117.33330000000001,174.93597802734374,117.4136Q176.57097802734376,117.4939,178.19897802734374,117.6543Q179.82797802734376,117.8147,181.44697802734376,118.0549Q183.06597802734376,118.295,184.67097802734375,118.6143Q186.27597802734374,118.9336,187.86397802734376,119.3312Q189.45097802734375,119.72890000000001,191.01697802734375,120.20400000000001Q192.58297802734376,120.679,194.12397802734375,121.2304Q195.66497802734375,121.7817,197.17697802734375,122.408Q198.68897802734375,123.0343,200.16897802734374,123.734Q201.64797802734375,124.4338,203.09097802734374,125.2052Q204.53497802734375,125.9767,205.93797802734375,126.8181Q207.34197802734374,127.6594,208.70297802734376,128.5687Q210.06397802734375,129.4779,211.37797802734374,130.4528Q212.69297802734374,131.42770000000002,213.95797802734376,132.466Q215.22297802734374,133.5042,216.43597802734374,134.60320000000002Q217.64797802734375,135.70229999999998,218.80497802734374,136.8595Q219.96297802734375,138.0168,221.06197802734374,139.2294Q222.16097802734376,140.442,223.19897802734374,141.7071Q224.23697802734375,142.9722,225.21197802734375,144.2867Q226.18697802734374,145.6012,227.09597802734376,146.962Q228.00497802734375,148.3227,228.84697802734374,149.7265Q229.68797802734375,151.1302,230.45997802734374,152.5735Q231.23097802734375,154.01690000000002,231.93097802734374,155.49630000000002Q232.63097802734376,156.9758,233.25697802734376,158.4878Q233.88297802734374,160,234.43497802734376,161.541Q234.98597802734375,163.082,235.46097802734374,164.648Q235.93597802734374,166.214,236.33397802734376,167.801Q236.73097802734375,169.389,237.05097802734375,170.994Q237.36997802734376,172.599,237.60997802734374,174.21800000000002Q237.84997802734375,175.837,238.01097802734375,177.466Q238.17097802734375,179.094,238.25097802734376,180.72899999999998Q238.33197802734375,182.363,238.33197802734375,184ZM171.66497802734375,250.667L171.66497802734375,309Q169.92397802734376,309,168.18397802734376,308.952Q166.44397802734375,308.903,164.70497802734377,308.80600000000004Q162.96697802734377,308.709,161.23197802734376,308.56399999999996Q159.49797802734375,308.419,157.76697802734375,308.225Q156.03697802734376,308.031,154.31297802734375,307.78999999999996Q152.58897802734376,307.548,150.87197802734374,307.259Q149.15597802734374,306.969,147.44797802734377,306.632Q145.73987802734376,306.294,144.04207802734373,305.90999999999997Q142.34417802734373,305.525,140.65767802734376,305.09299999999996Q138.97117802734374,304.661,137.29737802734377,304.183Q135.62347802734377,303.704,133.96367802734375,303.179Q132.30387802734376,302.654,130.65927802734376,302.08299999999997Q129.01467802734373,301.512,127.38667802734375,300.895Q125.75857802734375,300.278,124.14837802734375,299.616Q122.53817802734375,298.95500000000004,120.94697802734375,298.248Q119.35577802734375,297.54200000000003,117.78487802734375,296.79200000000003Q116.21407802734375,296.041,114.66467802734375,295.247Q113.11527802734375,294.453,111.58857802734374,293.61699999999996Q110.06197802734374,292.78,108.55917802734375,291.901Q107.05637802734375,291.022,105.57867802734376,290.102Q104.10097802734376,289.18100000000004,102.64947802734375,288.22Q101.19797802734375,287.259,99.77377802734375,286.25800000000004Q98.34957802734375,285.257,96.95387802734375,284.216Q95.55807802734375,283.175,94.19187802734375,282.096Q92.82567802734374,281.017,91.49007802734374,279.901Q90.15437802734375,278.784,88.85037802734375,277.631Q87.54637802734375,276.477,86.27497802734375,275.288Q85.00357802734375,274.099,83.76577802734374,272.875Q82.52797802734375,271.651,81.32477802734374,270.392Q80.12157802734376,269.134,78.95387802734375,267.84299999999996Q77.78607802734375,266.552,76.65487802734376,265.22900000000004Q75.52357802734375,263.905,74.42957802734375,262.551L92.62377802734375,257.56399999999996L93.49997802734376,257.66999999999996L94.20477802734375,240.607L119.63487802734375,239.886L86.99767802734375,230.708L86.97407802734375,230.806L86.60667802734375,230.702L78.78527802734375,248.029L64.98977802734375,249.157Q63.873178027343755,247.329,62.81987802734375,245.463Q61.76657802734375,243.598,60.777878027343746,241.698Q59.78907802734375,239.798,58.86607802734375,237.865Q57.94297802734375,235.932,57.08667802734375,233.968Q56.23041802734375,232.005,55.441918027343746,230.013Q54.65340802734375,228.021,53.93359802734375,226.004Q53.21379802734375,223.986,52.56353802734375,221.945Q51.913288027343754,219.904,51.33333802734375,217.842Q50.75339802734375,215.78,50.24444802734375,213.699Q49.73549802734375,211.619,49.29814802734375,209.522Q48.86078802734375,207.425,48.49553802734375,205.314Q48.13028802734375,203.203,47.83756802734375,201.081Q47.54485202734375,198.959,47.32501202734375,196.829Q47.10517302734375,194.698,46.95847002734375,192.561Q46.81176702734375,190.424,46.73837262734375,188.283Q46.66497802734375,186.142,46.66497802734375,184L104.99827802734376,184Q104.99827802734376,185.637,105.07857802734375,187.271Q105.15887802734375,188.906,105.31927802734376,190.534Q105.47967802734375,192.163,105.71987802734375,193.782Q105.95997802734375,195.401,106.27927802734375,197.006Q106.59857802734375,198.611,106.99617802734375,200.199Q107.39387802734376,201.786,107.86897802734376,203.352Q108.34397802734375,204.918,108.89537802734375,206.459Q109.44667802734375,208,110.07297802734375,209.512Q110.69927802734375,211.024,111.39897802734374,212.504Q112.09867802734375,213.983,112.87017802734375,215.426Q113.64167802734374,216.87,114.48307802734375,218.273Q115.32437802734376,219.677,116.23367802734376,221.038Q117.14287802734376,222.399,118.11777802734375,223.713Q119.09267802734375,225.028,120.13097802734374,226.293Q121.16917802734375,227.558,122.26817802734375,228.771Q123.36727802734374,229.983,124.52447802734375,231.14Q125.68177802734375,232.298,126.89437802734375,233.397Q128.10697802734376,234.496,129.37207802734375,235.534Q130.63717802734374,236.572,131.95167802734375,237.547Q133.26617802734376,238.522,134.62697802734374,239.431Q135.98767802734375,240.34,137.39147802734374,241.182Q138.79517802734375,242.023,140.23847802734375,242.795Q141.68187802734377,243.566,143.16127802734377,244.266Q144.64077802734374,244.966,146.15277802734374,245.592Q147.66497802734375,246.218,149.20597802734375,246.77Q150.74697802734374,247.321,152.31297802734375,247.796Q153.87897802734375,248.271,155.46597802734374,248.669Q157.05397802734376,249.066,158.65897802734375,249.386Q160.26397802734374,249.705,161.88297802734377,249.945Q163.50197802734374,250.185,165.13097802734376,250.346Q166.75897802734374,250.506,168.39397802734373,250.586Q170.02797802734375,250.667,171.66497802734375,250.667Z" fill-rule="evenodd" fill="#04AAEB" fill-opacity="1"/></g><g><ellipse cx="171.66497802734375" cy="183.99999046325684" rx="25" ry="24.999998092651367" fill="#646464" fill-opacity="1"/></g><g><ellipse cx="102.91497802734375" cy="115.24999809265137" rx="31.25" ry="31.25" fill="#323232" fill-opacity="1"/></g><g><ellipse cx="240.41497802734375" cy="252.75" rx="31.25" ry="31.25" fill="#969696" fill-opacity="1"/></g></g><g><path d="M150.379,0.0682498Q117.499,3.87674,87.9791,18.8498Q87.754,18.9639,87.5349,19.089Q87.3157,19.214,87.103,19.3496Q86.8902,19.4853,86.6843,19.6312Q86.4785,19.7771,86.2801,19.9329Q86.0816,20.0888,85.891,20.2542Q85.7005,20.4195,85.5184,20.5941Q85.3362,20.7686,85.1627,20.9519Q84.9895,21.1351,84.8252,21.3267Q84.661,21.5183,84.5064,21.7176Q84.3516,21.917,84.2071,22.1237Q84.0624,22.3305,83.9282,22.544Q83.7937,22.7576,83.67,22.9775Q83.5465,23.1974,83.4336,23.4231Q83.321,23.6489,83.2194,23.8798Q83.1179,24.1108,83.0278,24.3465Q82.9376,24.5822,82.8593,24.822Q82.781,25.0618,82.7144,25.3051Q82.6478,25.5485,82.5933,25.7949Q82.5388,26.0412,82.4963,26.2899Q82.4539,26.5387,82.4239,26.7892Q82.3937,27.0397,82.376,27.2913Q82.3581,27.543,82.3528,27.7953Q82.3472,28.0475,82.3542,28.2997Q82.3612,28.5519,82.3805,28.8035Q82.3999,29.0551,82.4315,29.3054Q82.4632,29.5557,82.5072,29.8041Q82.5512,30.0526,82.6071,30.2987Q82.6632,30.5445,82.7312,30.7875Q82.7993,31.0304,82.879,31.2699Q82.959,31.5092,83.0505,31.7443Q83.1421,31.9795,83.2449,32.2097Q83.3479,32.4401,83.4622,32.665Q83.5763,32.8901,83.7012,33.1092Q83.8262,33.3284,83.9619,33.5411Q84.0976,33.7539,84.2435,33.9598Q84.3894,34.1656,84.5452,34.3639Q84.7011,34.5625,84.8665,34.7531Q85.0318,34.9434,85.2063,35.1257Q85.3808,35.3079,85.5642,35.4813Q85.7473,35.6546,85.9389,35.8189Q86.1305,35.9831,86.3299,36.1377Q86.5293,36.2925,86.7361,36.437Q86.9426,36.5817,87.1562,36.7159Q87.3698,36.8503,87.5897,36.9741Q87.8097,37.0976,88.0354,37.2105Q88.2611,37.3231,88.4921,37.4247Q88.7232,37.5262,88.9587,37.6162Q89.1945,37.7065,89.4342,37.7848Q89.6741,37.8631,89.9174,37.9297Q90.1608,37.9963,90.4071,38.0508Q90.6535,38.1053,90.9023,38.1478Q91.151,38.1902,91.4016,38.2202Q91.6519,38.2504,91.9037,38.2681Q92.1553,38.2859,92.4075,38.2913Q92.6598,38.2966,92.912,38.2898Q93.1642,38.2829,93.4158,38.2635Q93.6674,38.2442,93.9176,38.2126Q94.1679,38.1809,94.4164,38.1369Q94.665,38.0929,94.9108,38.037Q95.1569,37.9809,95.3998,37.9129Q95.6428,37.8448,95.882,37.7651Q96.1215,37.6851,96.3567,37.5936Q96.5916,37.502,96.8221,37.3992Q97.0525,37.2962,97.2774,37.1821Q123.517,23.8726,152.744,20.4873Q152.995,20.4583,153.244,20.417Q153.493,20.3757,153.739,20.3222Q153.986,20.2688,154.23,20.2033Q154.473,20.1378,154.714,20.0604Q154.954,19.983,155.19,19.894Q155.426,19.8049,155.657,19.7044Q155.888,19.6039,156.115,19.4921Q156.341,19.3803,156.561,19.2576Q156.782,19.1349,156.996,19.0015Q157.21,18.8681,157.417,18.7243Q157.625,18.5806,157.825,18.4268Q158.025,18.2731,158.217,18.1097Q158.409,17.9463,158.594,17.7737Q158.778,17.6011,158.953,17.4196Q159.128,17.2382,159.294,17.0484Q159.461,16.8586,159.617,16.6608Q159.774,16.4631,159.921,16.2578Q160.068,16.0527,160.204,15.8405Q160.341,15.6284,160.467,15.4097Q160.593,15.1911,160.708,14.9666Q160.823,14.7421,160.927,14.5122Q161.031,14.2823,161.123,14.0476Q161.216,13.8129,161.297,13.5739Q161.378,13.3349,161.447,13.0922Q161.516,12.8496,161.573,12.6038Q161.63,12.3581,161.675,12.1098Q161.72,11.8615,161.753,11.6114Q161.785,11.3612,161.806,11.1097Q161.826,10.8582,161.834,10.6061Q161.842,10.3539,161.838,10.1016Q161.834,9.84936,161.817,9.5976Q161.8,9.34585,161.771,9.09522Q161.742,8.84459,161.701,8.59569Q161.66,8.34679,161.606,8.10021Q161.553,7.85363,161.487,7.60997Q161.422,7.36632,161.345,7.12617Q161.267,6.88601,161.178,6.64995Q161.089,6.41389,160.988,6.18248Q160.888,5.95106,160.776,5.72487Q160.664,5.49868,160.542,5.27822Q160.419,5.05778,160.285,4.84363Q160.152,4.62947,160.008,4.42212Q159.865,4.21478,159.711,4.01473Q159.557,3.81468,159.394,3.62241Q159.23,3.43015,159.058,3.24614Q158.885,3.06212,158.704,2.88681Q158.522,2.71147,158.332,2.54528Q158.143,2.37906,157.945,2.22237Q157.747,2.06567,157.542,1.91887Q157.337,1.77206,157.124,1.63551Q156.912,1.49896,156.694,1.37297Q156.475,1.24699,156.251,1.13188Q156.026,1.01679,155.796,0.912836Q155.566,0.808866,155.332,0.716325Q155.097,0.623784,154.858,0.542878Q154.619,0.46195,154.376,0.392863Q154.134,0.323776,153.888,0.266672Q153.642,0.209569,153.394,0.164594Q153.146,0.119618,152.895,0.0868936Q152.645,0.0541486,152.394,0.0337165Q152.142,0.0133048,151.89,0.00524695Q151.638,-0.00281087,151.386,0.0015059Q151.133,0.00584301,150.882,0.0225341Q150.63,0.0392252,150.379,0.0682498ZM35.9129,58.1562Q13.4523,82.416,0.784506,112.954Q0.687834,113.186,0.602693,113.424Q0.517571,113.662,0.444209,113.903Q0.370846,114.144,0.309406,114.389Q0.247986,114.634,0.198632,114.881Q0.149278,115.129,0.112114,115.378Q0.0749693,115.628,0.0500975,115.879Q0.0252457,116.13,0.0127277,116.382Q0.000208855,116.634,0.0000858307,116.886Q-0.000038147,117.138,0.0121927,117.391Q0.0244436,117.643,0.0490494,117.894Q0.0736542,118.145,0.110531,118.394Q0.147429,118.644,0.196515,118.891Q0.245602,119.139,0.306795,119.384Q0.367969,119.628,0.441085,119.87Q0.514201,120.111,0.599074,120.349Q0.683949,120.587,0.780375,120.82Q0.876801,121.053,0.984553,121.281Q1.09231,121.509,1.21114,121.732Q1.32995,121.954,1.45955,122.171Q1.58915,122.387,1.7292,122.597Q1.86926,122.807,2.01946,123.01Q2.16966,123.212,2.32961,123.408Q2.48957,123.603,2.65891,123.79Q2.82824,123.977,3.00656,124.155Q3.18488,124.334,3.37173,124.503Q3.55858,124.673,3.75355,124.833Q3.9485,124.993,4.15107,125.144Q4.35365,125.294,4.56336,125.434Q4.77307,125.574,4.98941,125.704Q5.20574,125.834,5.42819,125.953Q5.65064,126.072,5.87867,126.18Q6.10669,126.288,6.33975,126.385Q6.57279,126.482,6.8103,126.567Q7.04782,126.652,7.28923,126.725Q7.53061,126.799,7.77533,126.86Q8.02004,126.922,8.26747,126.971Q8.51492,127.02,8.76446,127.057Q9.01403,127.095,9.26509,127.119Q9.51618,127.144,9.76817,127.157Q10.0202,127.169,10.2725,127.169Q10.5248,127.17,10.7768,127.157Q11.0288,127.145,11.2799,127.12Q11.531,127.096,11.7806,127.059Q12.0302,127.022,12.2777,126.973Q12.5251,126.924,12.7699,126.863Q13.0147,126.801,13.2562,126.728Q13.4977,126.655,13.7353,126.57Q13.9729,126.486,14.206,126.389Q14.4392,126.293,14.6673,126.185Q14.8954,126.077,15.118,125.958Q15.3406,125.839,15.5571,125.71Q15.7736,125.58,15.9834,125.44Q16.1933,125.3,16.396,125.15Q16.5987,125,16.7939,124.84Q16.989,124.68,17.176,124.511Q17.363,124.341,17.5415,124.163Q17.72,123.985,17.8895,123.798Q18.0591,123.611,18.2193,123.416Q18.3794,123.221,18.5299,123.018Q18.6803,122.816,18.8205,122.606Q18.9609,122.396,19.0906,122.18Q19.2205,121.964,19.3395,121.741Q19.4585,121.519,19.5665,121.291Q19.6746,121.063,19.7712,120.83Q31.0315,93.6852,50.9963,72.121Q51.1678,71.9358,51.3299,71.7426Q51.4921,71.5491,51.6444,71.3481Q51.797,71.1471,51.9392,70.9389Q52.0817,70.7304,52.2136,70.5154Q52.3456,70.3004,52.4671,70.0792Q52.5884,69.858,52.6985,69.6311Q52.8089,69.4042,52.9078,69.1721Q53.0069,68.94,53.0944,68.7034Q53.1818,68.4666,53.2576,68.2261Q53.3335,67.9854,53.3974,67.7414Q53.4613,67.4972,53.5131,67.2504Q53.5649,67.0035,53.6046,66.7542Q53.6443,66.505,53.6716,66.2542Q53.699,66.0035,53.7142,65.7517Q53.7292,65.4996,53.7319,65.2474Q53.7345,64.9952,53.7249,64.743Q53.715,64.491,53.693,64.2396Q53.671,63.9882,53.6365,63.7382Q53.6021,63.4883,53.5555,63.2404Q53.509,62.9925,53.4502,62.7471Q53.3915,62.5016,53.321,62.2595Q53.2502,62.0173,53.1678,61.7789Q53.0852,61.5404,52.9912,61.3063Q52.8971,61.0722,52.7916,60.843Q52.6862,60.6138,52.5696,60.3899Q52.4531,60.1661,52.3257,59.9484Q52.1982,59.7307,52.0603,59.5194Q51.9223,59.3081,51.7741,59.104Q51.6261,58.8997,51.4681,58.703Q51.31,58.5062,51.1427,58.3175Q50.9752,58.1288,50.7986,57.9486Q50.6222,57.7683,50.437,57.5969Q50.2518,57.4254,50.0586,57.2632Q49.8652,57.1011,49.6641,56.9487Q49.4631,56.7962,49.2549,56.654Q49.0466,56.5115,48.8316,56.3796Q48.6166,56.2476,48.3952,56.1263Q48.174,56.0048,47.9471,55.8947Q47.7202,55.7843,47.4881,55.6854Q47.256,55.5863,47.0194,55.4988Q46.7828,55.4114,46.5421,55.3355Q46.3014,55.2597,46.0574,55.1958Q45.8132,55.1318,45.5664,55.08Q45.3195,55.0282,45.0704,54.9886Q44.821,54.9489,44.5702,54.9216Q44.3195,54.8942,44.0677,54.879Q43.8159,54.864,43.5634,54.8613Q43.3112,54.8587,43.059,54.8683Q42.807,54.8782,42.5556,54.9002Q42.3042,54.9222,42.0542,54.9567Q41.8043,54.991,41.5564,55.0377Q41.3085,55.0841,41.0631,55.1429Q40.8176,55.2015,40.5755,55.2722Q40.3333,55.3429,40.0949,55.4254Q39.8564,55.508,39.6223,55.6019Q39.3882,55.6961,39.159,55.8015Q38.9298,55.907,38.706,56.0235Q38.4823,56.1401,38.2644,56.2675Q38.0467,56.395,37.8354,56.5329Q37.6241,56.6708,37.42,56.819Q37.2157,56.967,37.019,57.1251Q36.8222,57.2832,36.6335,57.4505Q36.4448,57.618,36.2646,57.7944Q36.0843,57.971,35.9129,58.1562ZM349.853,134.099Q340.942,102.179,321.505,75.3367Q321.357,75.1324,321.201,74.9355Q321.042,74.7388,320.874,74.5499Q320.707,74.3609,320.53,74.1805Q320.354,74.0002,320.169,73.8286Q319.984,73.6569,319.79,73.4947Q319.597,73.3326,319.398,73.1798Q319.196,73.0273,318.989,72.8846Q318.779,72.7422,318.565,72.61Q318.349,72.4779,318.13,72.3564Q317.908,72.2349,317.681,72.1245Q317.453,72.0139,317.223,71.9146Q316.991,71.8156,316.754,71.7278Q316.518,71.6402,316.275,71.5642Q316.035,71.4881,315.792,71.424Q315.548,71.36,315.301,71.3078Q315.054,71.2558,314.806,71.2159Q314.555,71.1761,314.304,71.1485Q314.053,71.121,313.803,71.1058Q313.55,71.0903,313.299,71.0877Q313.046,71.0848,312.793,71.0943Q312.543,71.1037,312.29,71.1255Q312.039,71.1475,311.788,71.1816Q311.539,71.2157,311.291,71.2622Q311.042,71.3086,310.797,71.367Q310.553,71.4256,310.31,71.4961Q310.068,71.5666,309.829,71.6488Q309.591,71.7311,309.356,71.825Q309.122,71.9189,308.892,72.0242Q308.664,72.1294,308.44,72.2458Q308.216,72.3623,307.998,72.4896Q307.78,72.6168,307.568,72.7545Q307.356,72.8923,307.153,73.0402Q306.949,73.1883,306.752,73.3461Q306.555,73.5038,306.366,73.6711Q306.176,73.8384,305.998,74.0148Q305.817,74.1912,305.644,74.3762Q305.473,74.5612,305.311,74.7544Q305.149,74.9476,304.997,75.1484Q304.844,75.3495,304.701,75.5577Q304.559,75.7657,304.427,75.9807Q304.294,76.1955,304.172,76.4167Q304.051,76.6379,303.94,76.8648Q303.831,77.0915,303.73,77.3236Q303.632,77.5555,303.543,77.7921Q303.457,78.0287,303.381,78.2692Q303.305,78.5099,303.241,78.7539Q303.175,78.9979,303.124,79.2447Q303.073,79.4916,303.031,79.7407Q302.992,79.9899,302.966,80.2407Q302.937,80.4914,302.923,80.7434Q302.906,80.9953,302.904,81.2475Q302.9,81.4997,302.91,81.7519Q302.921,82.0041,302.941,82.2553Q302.964,82.5067,302.999,82.7567Q303.031,83.0068,303.079,83.2547Q303.124,83.5028,303.184,83.748Q303.241,83.9935,303.313,84.2358Q303.383,84.4782,303.465,84.7166Q303.547,84.9551,303.642,85.1892Q303.734,85.4235,303.841,85.6527Q303.946,85.8821,304.061,86.106Q304.178,86.3298,304.306,86.5477Q304.433,86.7656,304.571,86.9769Q304.709,87.1882,304.857,87.3925Q322.134,111.252,330.054,139.626Q330.122,139.869,330.202,140.108Q330.282,140.348,330.372,140.583Q330.465,140.818,330.568,141.049Q330.671,141.279,330.784,141.504Q330.897,141.729,331.022,141.948Q331.147,142.168,331.283,142.381Q331.419,142.593,331.565,142.799Q331.709,143.005,331.865,143.204Q332.021,143.402,332.185,143.593Q332.352,143.784,332.527,143.966Q332.699,144.148,332.882,144.322Q333.067,144.495,333.258,144.66Q333.45,144.824,333.649,144.979Q333.848,145.134,334.054,145.279Q334.262,145.423,334.475,145.558Q334.687,145.692,334.907,145.816Q335.127,145.94,335.353,146.053Q335.579,146.166,335.809,146.268Q336.04,146.37,336.276,146.46Q336.512,146.55,336.751,146.629Q336.991,146.707,337.234,146.774Q337.478,146.841,337.723,146.896Q337.97,146.95,338.218,146.993Q338.467,147.035,338.718,147.066Q338.969,147.096,339.22,147.114Q339.472,147.132,339.725,147.138Q339.976,147.143,340.229,147.136Q340.482,147.13,340.732,147.111Q340.983,147.091,341.234,147.06Q341.485,147.029,341.733,146.985Q341.982,146.941,342.227,146.885Q342.473,146.83,342.716,146.762Q342.961,146.694,343.199,146.614Q343.44,146.535,343.674,146.443Q343.908,146.352,344.138,146.249Q344.371,146.146,344.595,146.032Q344.821,145.919,345.039,145.794Q345.259,145.669,345.47,145.533Q345.684,145.398,345.89,145.252Q346.095,145.106,346.295,144.951Q346.494,144.795,346.683,144.63Q346.874,144.465,347.057,144.29Q347.24,144.116,347.413,143.933Q347.586,143.749,347.75,143.558Q347.915,143.367,348.071,143.168Q348.225,142.968,348.369,142.762Q348.515,142.555,348.648,142.342Q348.784,142.128,348.907,141.908Q349.031,141.688,349.144,141.463Q349.257,141.237,349.36,141.006Q349.46,140.776,349.551,140.54Q349.641,140.304,349.719,140.065Q349.797,139.825,349.865,139.581Q349.931,139.338,349.987,139.092Q350.042,138.846,350.083,138.597Q350.126,138.348,350.157,138.098Q350.188,137.847,350.204,137.596Q350.223,137.344,350.229,137.092Q350.235,136.839,350.227,136.587Q350.221,136.335,350.202,136.084Q350.182,135.832,350.151,135.582Q350.12,135.331,350.077,135.083Q350.032,134.834,349.976,134.588Q349.921,134.342,349.853,134.099ZM26.2803,298.244Q46.7563,324.265,74.9863,341.569Q75.2015,341.7,75.4227,341.821Q75.6441,341.943,75.871,342.052Q76.0982,342.163,76.3302,342.261Q76.5623,342.36,76.7991,342.448Q77.0357,342.535,77.2764,342.611Q77.5171,342.687,77.7613,342.75Q78.0055,342.814,78.2524,342.866Q78.4993,342.917,78.7486,342.956Q78.9977,342.995,79.2485,343.024Q79.4993,343.051,79.7513,343.065Q80.0031,343.079,80.2553,343.081Q80.5077,343.086,80.7597,343.075Q81.012,343.065,81.2631,343.042Q81.5145,343.02,81.7645,342.987Q82.0145,342.952,82.2624,342.905Q82.5103,342.857,82.7557,342.8Q83.0009,342.74,83.243,342.67Q83.4852,342.598,83.7236,342.516Q83.9621,342.434,84.196,342.339Q84.4301,342.245,84.6593,342.14Q84.8885,342.033,85.1122,341.918Q85.3358,341.801,85.5535,341.673Q85.7712,341.546,85.9823,341.406Q86.1934,341.268,86.3977,341.12Q86.6018,340.972,86.7983,340.814Q86.9951,340.656,87.1836,340.489Q87.3723,340.321,87.5523,340.144Q87.7326,339.967,87.9038,339.782Q88.0751,339.597,88.237,339.404Q88.399,339.211,88.5513,339.009Q88.7036,338.808,88.8459,338.6Q88.9881,338.391,89.1201,338.177Q89.2519,337.961,89.3731,337.739Q89.4942,337.519,89.6044,337.291Q89.7144,337.065,89.8132,336.833Q89.9121,336.6,89.9995,336.364Q90.0868,336.128,90.1625,335.887Q90.2381,335.644,90.3018,335.402Q90.3656,335.157,90.4172,334.911Q90.4689,334.664,90.5084,334.413Q90.5479,334.164,90.5752,333.914Q90.6024,333.663,90.6172,333.412Q90.6322,333.159,90.6346,332.906Q90.6371,332.656,90.6272,332.403Q90.6174,332.15,90.5952,331.899Q90.573,331.648,90.5384,331.398Q90.5039,331.149,90.457,330.9Q90.4104,330.651,90.3514,330.407Q90.2926,330.162,90.2217,329.92Q90.1507,329.677,90.0681,329.439Q89.9855,329.2,89.8913,328.966Q89.7972,328.732,89.6915,328.503Q89.5859,328.273,89.4691,328.051Q89.3524,327.827,89.2249,327.609Q89.0973,327.391,88.9592,327.18Q88.8212,326.97,88.6728,326.764Q88.5246,326.561,88.3665,326.364Q88.2085,326.168,88.0407,325.979Q87.8732,325.79,87.6966,325.609Q87.5201,325.43,87.3346,325.258Q87.1494,325.087,86.956,324.925Q86.7626,324.764,86.5613,324.61Q86.3603,324.458,86.1519,324.316Q85.9434,324.174,85.7284,324.043Q60.635,308.661,42.4343,285.532Q42.2781,285.335,42.1126,285.144Q41.9471,284.952,41.7724,284.772Q41.5977,284.589,41.4141,284.416Q41.2308,284.243,41.039,284.079Q40.8474,283.914,40.6478,283.76Q40.4482,283.606,40.2415,283.462Q40.0347,283.316,39.8209,283.183Q39.6071,283.049,39.3872,282.926Q39.1672,282.802,38.9413,282.689Q38.7154,282.576,38.4844,282.475Q38.2533,282.375,38.0175,282.284Q37.7818,282.194,37.5419,282.116Q37.302,282.038,37.0586,281.972Q36.8153,281.906,36.5688,281.851Q36.3223,281.797,36.0736,281.754Q35.8249,281.713,35.5743,281.682Q35.3237,281.653,35.0721,281.635Q34.8203,281.618,34.5681,281.612Q34.3159,281.608,34.0637,281.614Q33.8115,281.622,33.5599,281.641Q33.3085,281.661,33.0581,281.692Q32.8079,281.725,32.5594,281.768Q32.3111,281.814,32.0651,281.869Q31.819,281.925,31.5763,281.994Q31.3333,282.062,31.094,282.142Q30.8548,282.223,30.6198,282.313Q30.3849,282.406,30.1544,282.508Q29.9242,282.611,29.6993,282.726Q29.4745,282.841,29.2555,282.967Q29.0364,283.09,28.8239,283.228Q28.6111,283.363,28.4056,283.509Q28.1998,283.655,28.0014,283.812Q27.8033,283.968,27.6129,284.132Q27.4224,284.299,27.2405,284.473Q27.0584,284.648,26.8853,284.831Q26.712,285.014,26.548,285.205Q26.3839,285.398,26.2296,285.598Q26.075,285.797,25.9307,286.003Q25.7862,286.21,25.6519,286.424Q25.5179,286.638,25.3944,286.858Q25.2708,287.078,25.1584,287.304Q25.046,287.53,24.9446,287.76Q24.8433,287.993,24.7535,288.227Q24.6634,288.463,24.5853,288.704Q24.5072,288.942,24.4408,289.187Q24.3746,289.429,24.3204,289.676Q24.2659,289.923,24.2237,290.171Q24.1816,290.42,24.1518,290.671Q24.122,290.922,24.1043,291.173Q24.0868,291.425,24.0817,291.676Q24.0766,291.929,24.0838,292.182Q24.091,292.435,24.1105,292.685Q24.13,292.936,24.1619,293.187Q24.1939,293.438,24.2379,293.686Q24.2821,293.933,24.3384,294.18Q24.3946,294.426,24.463,294.669Q24.5312,294.912,24.6112,295.152Q24.6914,295.391,24.7831,295.625Q24.8749,295.861,24.9781,296.091Q25.0813,296.322,25.1956,296.546Q25.3099,296.77,25.4353,296.99Q25.5605,297.21,25.6963,297.421Q25.832,297.633,25.9782,297.841Q26.1243,298.046,26.2803,298.244ZM261.902,345.34Q290.832,329.176,312.351,303.977Q312.514,303.783,312.668,303.584Q312.822,303.385,312.966,303.177Q313.112,302.969,313.246,302.756Q313.379,302.542,313.502,302.322Q313.626,302.102,313.739,301.876Q313.85,301.65,313.951,301.419Q314.051,301.187,314.142,300.953Q314.232,300.716,314.31,300.476Q314.388,300.238,314.454,299.993Q314.52,299.75,314.573,299.504Q314.627,299.257,314.67,299.008Q314.711,298.76,314.742,298.509Q314.771,298.258,314.787,298.005Q314.806,297.754,314.81,297.502Q314.816,297.251,314.808,296.998Q314.8,296.745,314.781,296.494Q314.76,296.242,314.728,295.993Q314.697,295.742,314.652,295.493Q314.608,295.245,314.551,295Q314.495,294.753,314.425,294.511Q314.358,294.268,314.277,294.028Q314.197,293.789,314.105,293.555Q314.012,293.321,313.909,293.09Q313.807,292.86,313.692,292.634Q313.576,292.41,313.451,292.19Q313.326,291.972,313.19,291.76Q313.054,291.547,312.908,291.341Q312.762,291.135,312.606,290.938Q312.45,290.739,312.284,290.55Q312.117,290.359,311.942,290.178Q311.768,289.995,311.585,289.822Q311.4,289.649,311.208,289.485Q311.017,289.322,310.818,289.168Q310.617,289.012,310.411,288.868Q310.203,288.724,309.99,288.591Q309.776,288.457,309.556,288.334Q309.336,288.21,309.11,288.097Q308.884,287.986,308.653,287.884Q308.421,287.783,308.185,287.695Q307.95,287.604,307.71,287.526Q307.469,287.448,307.227,287.382Q306.982,287.316,306.736,287.263Q306.489,287.207,306.24,287.166Q305.992,287.125,305.741,287.094Q305.492,287.066,305.239,287.047Q304.988,287.031,304.736,287.026Q304.483,287.02,304.232,287.029Q303.979,287.035,303.726,287.055Q303.475,287.076,303.225,287.107Q302.976,287.139,302.727,287.185Q302.479,287.228,302.232,287.285Q301.987,287.341,301.745,287.409Q301.5,287.479,301.262,287.559Q301.023,287.639,300.787,287.732Q300.552,287.822,300.322,287.927Q300.092,288.03,299.868,288.145Q299.644,288.258,299.424,288.383Q299.206,288.511,298.992,288.646Q298.781,288.782,298.575,288.928Q298.369,289.074,298.17,289.23Q297.973,289.386,297.782,289.553Q297.592,289.719,297.41,289.894Q297.229,290.069,297.056,290.252Q296.883,290.435,296.719,290.628Q277.59,313.027,251.877,327.396Q251.655,327.519,251.441,327.652Q251.227,327.786,251.02,327.93Q250.814,328.074,250.613,328.228Q250.413,328.382,250.222,328.545Q250.029,328.709,249.846,328.882Q249.663,329.054,249.486,329.237Q249.312,329.418,249.147,329.609Q248.981,329.798,248.824,329.996Q248.668,330.195,248.52,330.401Q248.374,330.606,248.239,330.818Q248.103,331.03,247.978,331.25Q247.85,331.468,247.737,331.692Q247.622,331.918,247.517,332.148Q247.414,332.376,247.322,332.613Q247.229,332.847,247.149,333.085Q247.069,333.326,246.999,333.568Q246.931,333.811,246.874,334.056Q246.818,334.302,246.773,334.551Q246.728,334.8,246.697,335.048Q246.664,335.299,246.643,335.55Q246.623,335.803,246.617,336.056Q246.609,336.306,246.613,336.559Q246.619,336.812,246.635,337.063Q246.652,337.316,246.68,337.566Q246.711,337.815,246.752,338.064Q246.794,338.315,246.849,338.559Q246.902,338.806,246.968,339.051Q247.034,339.293,247.112,339.534Q247.188,339.774,247.279,340.01Q247.367,340.245,247.47,340.477Q247.571,340.707,247.682,340.933Q247.795,341.159,247.918,341.382Q248.039,341.601,248.173,341.815Q248.306,342.029,248.452,342.237Q248.596,342.442,248.75,342.644Q248.905,342.843,249.067,343.034Q249.231,343.227,249.404,343.41Q249.577,343.593,249.758,343.77Q249.941,343.945,250.13,344.109Q250.321,344.276,250.518,344.432Q250.716,344.588,250.921,344.736Q251.127,344.882,251.34,345.018Q251.552,345.153,251.77,345.279Q251.99,345.406,252.214,345.519Q252.438,345.634,252.668,345.739Q252.899,345.842,253.133,345.935Q253.369,346.027,253.608,346.107Q253.846,346.187,254.089,346.257Q254.333,346.325,254.578,346.383Q254.825,346.438,255.073,346.483Q255.32,346.529,255.571,346.559Q255.822,346.592,256.072,346.613Q256.325,346.633,256.576,346.64Q256.829,346.648,257.082,346.644Q257.332,346.64,257.585,346.621Q257.836,346.605,258.087,346.576Q258.338,346.545,258.586,346.504Q258.835,346.463,259.082,346.409Q259.328,346.354,259.573,346.288Q259.815,346.222,260.056,346.144Q260.296,346.068,260.531,345.978Q260.767,345.889,261,345.789Q261.23,345.686,261.456,345.575Q261.682,345.462,261.902,345.34ZM171.665,368.84Q186.123,368.84,200.405,366.593Q200.654,366.554,200.901,366.502Q201.148,366.451,201.392,366.387Q201.636,366.326,201.877,366.25Q202.118,366.174,202.355,366.087Q202.591,366.001,202.823,365.902Q203.055,365.804,203.284,365.693Q203.51,365.584,203.732,365.462Q203.954,365.341,204.17,365.21Q204.383,365.078,204.593,364.936Q204.801,364.794,205.002,364.642Q205.203,364.49,205.397,364.328Q205.59,364.167,205.777,363.995Q205.962,363.824,206.139,363.645Q206.316,363.464,206.484,363.275Q206.651,363.088,206.809,362.891Q206.967,362.696,207.117,362.49Q207.265,362.286,207.403,362.077Q207.541,361.865,207.67,361.647Q207.798,361.429,207.915,361.205Q208.032,360.983,208.137,360.753Q208.244,360.525,208.338,360.291Q208.433,360.056,208.515,359.818Q208.597,359.579,208.669,359.339Q208.741,359.096,208.799,358.852Q208.858,358.605,208.906,358.358Q208.953,358.11,208.988,357.861Q209.023,357.61,209.045,357.359Q209.068,357.107,209.078,356.856Q209.088,356.603,209.086,356.35Q209.082,356.099,209.068,355.846Q209.054,355.596,209.027,355.345Q209,355.094,208.961,354.843Q208.922,354.595,208.871,354.348Q208.819,354.101,208.755,353.857Q208.692,353.612,208.618,353.372Q208.542,353.131,208.455,352.895Q208.367,352.656,208.268,352.424Q208.17,352.192,208.061,351.966Q207.95,351.737,207.83,351.517Q207.709,351.295,207.578,351.08Q207.446,350.864,207.304,350.656Q207.162,350.449,207.01,350.247Q206.858,350.046,206.696,349.85Q206.533,349.657,206.363,349.472Q206.192,349.287,206.011,349.11Q205.832,348.934,205.643,348.765Q205.454,348.596,205.259,348.438Q205.062,348.28,204.858,348.132Q204.655,347.984,204.443,347.846Q204.233,347.706,204.015,347.579Q203.798,347.452,203.573,347.334Q203.349,347.217,203.121,347.112Q202.893,347.006,202.659,346.911Q202.424,346.816,202.186,346.734Q201.948,346.65,201.706,346.58Q201.464,346.508,201.218,346.448Q200.973,346.391,200.725,346.344Q200.477,346.296,200.227,346.261Q199.978,346.226,199.726,346.204Q199.475,346.181,199.223,346.171Q198.971,346.161,198.718,346.163Q198.466,346.165,198.214,346.179Q197.962,346.194,197.712,346.222Q197.461,346.249,197.211,346.288Q184.516,348.284,171.665,348.284Q155.465,348.284,139.577,345.123Q139.33,345.073,139.08,345.036Q138.83,344.999,138.579,344.975Q138.328,344.95,138.076,344.938Q137.824,344.925,137.572,344.925Q137.32,344.925,137.068,344.938Q136.816,344.95,136.564,344.975Q136.313,344.999,136.064,345.036Q135.814,345.073,135.567,345.123Q135.319,345.172,135.075,345.234Q134.83,345.295,134.588,345.367Q134.347,345.441,134.109,345.526Q133.872,345.612,133.639,345.708Q133.406,345.805,133.177,345.912Q132.949,346.021,132.727,346.138Q132.504,346.257,132.288,346.387Q132.072,346.516,131.862,346.658Q131.652,346.798,131.449,346.948Q131.247,347.098,131.052,347.258Q130.857,347.419,130.67,347.587Q130.483,347.758,130.304,347.935Q130.126,348.113,129.956,348.301Q129.787,348.488,129.627,348.683Q129.467,348.878,129.316,349.08Q129.166,349.283,129.026,349.493Q128.886,349.702,128.756,349.918Q128.626,350.136,128.507,350.358Q128.388,350.58,128.281,350.808Q128.173,351.036,128.076,351.269Q127.98,351.503,127.895,351.739Q127.81,351.978,127.736,352.218Q127.663,352.461,127.602,352.706Q127.54,352.95,127.491,353.197Q127.442,353.446,127.405,353.694Q127.368,353.945,127.343,354.196Q127.318,354.447,127.306,354.699Q127.294,354.95,127.294,355.203Q127.294,355.456,127.306,355.707Q127.318,355.96,127.343,356.21Q127.368,356.461,127.405,356.712Q127.442,356.961,127.491,357.207Q127.54,357.456,127.602,357.701Q127.663,357.945,127.736,358.186Q127.809,358.428,127.894,358.665Q127.979,358.903,128.076,359.135Q128.172,359.37,128.28,359.598Q128.388,359.826,128.507,360.048Q128.626,360.27,128.756,360.486Q128.885,360.704,129.026,360.913Q129.166,361.123,129.316,361.324Q129.466,361.528,129.626,361.723Q129.786,361.919,129.956,362.106Q130.125,362.293,130.304,362.469Q130.482,362.648,130.669,362.819Q130.856,362.987,131.051,363.148Q131.246,363.308,131.449,363.458Q131.651,363.608,131.861,363.748Q132.071,363.888,132.287,364.019Q132.504,364.149,132.726,364.268Q132.949,364.385,133.177,364.494Q133.405,364.601,133.638,364.698Q133.871,364.794,134.109,364.881Q134.346,364.965,134.588,365.039Q134.829,365.111,135.074,365.173Q135.319,365.234,135.566,365.284Q153.44,368.84,171.665,368.84Z" fill-rule="evenodd" fill="#04AAEB" fill-opacity="1" style="mix-blend-mode:passthrough"/></g></g></svg>