<svg xmlns="http://www.w3.org/2000/svg" xmlns:xlink="http://www.w3.org/1999/xlink" fill="none" version="1.1" width="320" height="310" viewBox="0 0 320 310"><defs><clipPath id="master_svg0_8_128"><rect x="0" y="0" width="320" height="310" rx="15"/></clipPath></defs><g clip-path="url(#master_svg0_8_128)"><g transform="matrix(1,-5.400848479553133e-8,5.400848479553133e-8,1,0.0000011881866655016893,-9.451484856981551e-7)"><g transform="matrix(0.7071067690849304,0.7071067690849304,-0.7071067690849304,0.7071067690849304,79.61953076835471,-60.218547492067046)"><path d="M119.75998474121094,112Q116.39998474121094,112,116.39998474121094,108.64L116.39998474121094,85.56Q116.39998474121094,82.2,119.75998474121094,82.2L120.83998474121094,82.2Q123.67998474121094,82.2,124.99998474121094,84.72L130.27998474121094,94.92Q131.07998474121092,96.48,131.79998474121095,98.08L133.75998474121093,102.52000000000001Q133.99998474121094,103.08,134.09998474121093,103.08Q134.19998474121093,103.08,134.15998474121093,102.88L133.99998474121094,101.36Q133.23998474121095,95.03999999999999,133.23998474121095,92.08L133.23998474121095,85.56Q133.23998474121095,82.2,136.59998474121093,82.2Q140.03998474121093,82.2,140.03998474121093,85.56L140.03998474121093,108.64Q140.03998474121093,112,136.67998474121094,112L135.59998474121093,112Q132.75998474121093,112,131.43998474121094,109.47999999999999L126.19998474121094,99.2Q125.39998474121094,97.64,124.67998474121094,96.03999999999999L122.71998474121094,91.68Q122.47998474121094,91.12,122.37998474121093,91.12Q122.27998474121094,91.12,122.31998474121093,91.32L122.55998474121094,93.88Q123.19998474121094,99.47999999999999,123.19998474121094,102.12L123.19998474121094,108.64Q123.19998474121094,112,119.75998474121094,112ZM156.27998474121094,112.56Q151.71998474121094,112.56,148.51998474121095,109.4Q145.11998474121094,106.03999999999999,145.11998474121094,100.62Q145.11998474121094,95.2,148.51998474121095,91.8Q151.71998474121094,88.68,156.27998474121094,88.68Q160.83998474121094,88.68,163.99998474121094,91.8Q167.39998474121094,95.2,167.39998474121094,100.62Q167.39998474121094,106.03999999999999,163.99998474121094,109.4Q160.83998474121094,112.56,156.27998474121094,112.56ZM156.25998474121093,106.8Q160.11998474121094,106.8,160.11998474121094,100.6Q160.11998474121094,97.68,159.19998474121093,96.12Q158.19998474121093,94.44,156.27998474121094,94.44Q152.39998474121094,94.44,152.39998474121094,100.62Q152.39998474121094,106.8,156.25998474121093,106.8ZM190.83998474121094,112.56Q187.83998474121094,112.56,184.99998474121094,111.47999999999999Q181.95998474121092,110.36,180.77998474121094,109.25999999999999Q179.59998474121093,108.16,181.71998474121094,105.75999999999999Q183.83998474121094,103.4,184.61998474121094,104.06Q185.39998474121094,104.72,187.33998474121094,105.56Q189.27998474121094,106.4,190.99998474121094,106.4Q194.87998474121093,106.4,194.87998474121093,103.8Q194.87998474121093,102.72,194.37998474121093,102.36Q193.87998474121093,102,193.55998474121094,101.75999999999999Q193.23998474121095,101.52000000000001,191.19998474121093,100.64L188.39998474121094,99.47999999999999Q186.87998474121093,98.84,185.31998474121093,98.24000000000001Q184.23998474121095,97.8,182.67998474121094,95.92Q180.83998474121094,93.68,180.83998474121094,90.68Q180.83998474121094,86.88,183.89998474121094,84.28Q186.95998474121092,81.68,191.63998474121092,81.68Q194.27998474121094,81.68,196.83998474121094,82.68Q199.39998474121094,83.68,200.47998474121096,84.76Q201.55998474121094,85.84,199.67998474121094,87.96000000000001Q197.79998474121095,90.12,195.19998474121093,88.12Q194.75998474121093,87.8,191.63998474121092,87.8Q189.99998474121094,87.8,189.05998474121094,88.44Q188.11998474121094,89.08,188.11998474121094,90.2Q188.11998474121094,91.32,188.69998474121093,91.7Q189.27998474121094,92.08,190.67998474121094,92.68L194.79998474121095,94.44Q196.31998474121093,95.08,197.87998474121093,95.68Q202.19998474121093,97.44,202.19998474121093,103.24000000000001Q202.19998474121093,107.12,199.23998474121095,109.75999999999999Q196.03998474121096,112.56,190.83998474121094,112.56ZM209.95998474121092,112Q206.59998474121093,112,206.59998474121093,108.64L206.59998474121093,92.6Q206.59998474121093,89.24,209.95998474121092,89.24L210.35998474121095,89.24Q213.71998474121094,89.24,213.71998474121094,92.6L213.71998474121094,108.64Q213.71998474121094,112,210.35998474121095,112L209.95998474121092,112ZM210.13998474121092,86.08Q208.35998474121095,86.08,207.27998474121094,85.08Q206.19998474121093,84.08,206.19998474121093,82.42Q206.19998474121093,80.76,207.27998474121094,79.76Q208.35998474121095,78.76,210.13998474121092,78.76Q211.91998474121095,78.76,213.01998474121092,79.76Q214.11998474121094,80.76,214.11998474121094,82.42Q214.11998474121094,84.08,213.01998474121092,85.08Q211.91998474121095,86.08,210.13998474121092,86.08ZM227.59998474121093,121.56Q223.35998474121095,121.56,220.87998474121093,120.24000000000001Q218.07998474121092,118.72,218.07998474121092,115.86Q218.07998474121092,113,220.71998474121094,111.64Q221.27998474121094,111.36,221.27998474121094,111.25999999999999Q221.27998474121094,111.16,220.63998474121092,110.72Q219.19998474121093,109.75999999999999,219.19998474121093,107.24000000000001Q219.19998474121093,106.08,219.89998474121094,104.94Q220.59998474121093,103.8,221.11998474121094,103.44Q221.75998474121093,103,221.75998474121093,102.92Q221.75998474121093,102.84,221.11998474121094,102.4Q220.43998474121094,101.92,219.59998474121093,100.47999999999999Q218.63998474121092,98.8,218.63998474121092,96.92Q218.63998474121092,93,221.55998474121094,90.72Q224.19998474121093,88.68,228.15998474121093,88.68Q230.15998474121093,88.68,230.47998474121096,88.8Q231.75998474121093,89.24,233.11998474121094,89.24L236.75998474121093,89.24Q240.11998474121094,89.24,240.11998474121094,91.8Q240.11998474121094,94.4,236.83998474121094,94.4Q236.63998474121092,94.4,236.71998474121094,94.56Q237.23998474121095,95.6,237.23998474121095,97.16Q237.23998474121095,100.96000000000001,234.59998474121093,102.96000000000001Q232.19998474121093,104.8,228.15998474121093,104.8Q226.91998474121095,104.8,226.11998474121094,104.6Q225.47998474121096,104.4,224.99998474121094,104.88Q224.75998474121093,105.12,224.75998474121093,105.96000000000001Q224.75998474121093,106.8,225.53998474121096,107.16Q226.31998474121093,107.52000000000001,228.11998474121094,107.52000000000001L231.71998474121094,107.52000000000001Q240.51998474121095,107.52000000000001,240.51998474121095,113.36Q240.51998474121095,117,236.99998474121094,119.28Q233.47998474121096,121.56,227.59998474121093,121.56ZM228.69998474121093,117.12Q230.87998474121093,117.12,232.27998474121094,116.4Q233.67998474121094,115.68,233.67998474121094,114.66Q233.67998474121094,113.64,233.23998474121095,113.46000000000001Q232.79998474121095,113.28,232.43998474121094,113.12Q232.07998474121092,112.96000000000001,230.35998474121095,112.96000000000001L228.19998474121093,112.96000000000001Q225.95998474121092,112.96000000000001,225.67998474121094,112.88Q224.95998474121092,112.68,224.39998474121094,113.16Q223.91998474121095,113.6,223.91998474121095,114.74000000000001Q223.91998474121095,115.88,225.21998474121094,116.5Q226.51998474121092,117.12,228.69998474121093,117.12ZM226.07998474121092,99.58Q226.87998474121093,100.52000000000001,228.17998474121094,100.52000000000001Q229.47998474121096,100.52000000000001,230.27998474121094,99.6Q231.07998474121092,98.68,231.07998474121092,96.96000000000001Q231.07998474121092,95.24,230.27998474121094,94.34Q229.47998474121096,93.44,228.17998474121094,93.44Q226.87998474121093,93.44,226.07998474121092,94.36Q225.27998474121094,95.28,225.27998474121094,96.96000000000001Q225.27998474121094,98.64,226.07998474121092,99.58ZM247.43998474121094,112Q244.07998474121095,112,244.07998474121095,108.64L244.07998474121095,92.52Q244.07998474121095,89.24,246.91998474121092,89Q249.79998474121095,88.72,250.35998474121095,91.88Q250.39998474121094,92.08,250.45998474121095,92.08Q250.51998474121095,92.08,251.19998474121093,91.4Q253.99998474121094,88.68,257.79998474121095,88.68Q264.87998474121093,88.68,264.87998474121093,97.92L264.87998474121093,108.64Q264.87998474121093,112,261.5199847412109,112L261.11998474121094,112Q257.7599847412109,112,257.7599847412109,108.64L257.7599847412109,98.8Q257.7599847412109,96.52,257.1399847412109,95.64Q256.5199847412109,94.76,255.11998474121094,94.76Q253.99998474121094,94.76,253.07998474121095,95.28Q252.31998474121093,95.72,251.87998474121093,96.16Q251.19998474121093,96.8,251.19998474121093,97.72L251.19998474121093,108.64Q251.19998474121093,112,247.83998474121094,112L247.43998474121094,112ZM276.1599847412109,112.56Q273.079984741211,112.56,271.1999847412109,110.52000000000001Q269.3999847412109,108.6,269.3999847412109,105.64Q269.3999847412109,102,272.3999847412109,100Q275.3999847412109,98,281.79998474121095,97.32Q282.0399847412109,97.28,282.0399847412109,97.03999999999999Q281.79998474121095,94.36,278.59998474121096,94.36Q276.1999847412109,94.36,275.59998474121096,94.68Q272.67998474121094,96.32,271.35998474121095,94.03999999999999Q270.0399847412109,91.76,272.9199847412109,90.03999999999999Q275.1599847412109,88.68,279.959984741211,88.68Q289.1599847412109,88.68,289.1599847412109,99.08L289.1599847412109,108.75999999999999Q289.1599847412109,112,286.31998474121093,112.28Q283.47998474121096,112.6,282.9199847412109,109.92Q282.87998474121093,109.72,282.7799847412109,109.72Q282.67998474121094,109.72,281.959984741211,110.4Q279.5199847412109,112.56,276.1599847412109,112.56ZM278.59998474121096,107.03999999999999Q280.35998474121095,107.03999999999999,281.35998474121095,105.96000000000001Q282.0399847412109,105.24000000000001,282.0399847412109,104.28L282.0399847412109,101.8Q282.0399847412109,101.6,281.83998474121097,101.64Q276.1599847412109,102.36,276.1599847412109,105.08Q276.1599847412109,107.03999999999999,278.59998474121096,107.03999999999999ZM301.11998474121094,112.56Q297.6399847412109,112.56,296.0399847412109,110.36Q294.6399847412109,108.4,294.6399847412109,104.6L294.6399847412109,83.4Q294.6399847412109,80.03999999999999,297.99998474121094,80.03999999999999L298.3999847412109,80.03999999999999Q301.7599847412109,80.03999999999999,301.7599847412109,83.4L301.7599847412109,104.84Q301.7599847412109,106.8,302.37998474121093,106.8Q302.99998474121094,106.8,303.47998474121096,106.75999999999999Q303.959984741211,106.72,304.59998474121096,109.2Q305.1999847412109,111.72,304.1999847412109,112.14Q303.1999847412109,112.56,301.11998474121094,112.56Z" fill="#3D3D3D" fill-opacity="1"/></g><g transform="matrix(0.7071067690849304,0.7071067690849304,-0.7071067690849304,0.7071067690849304,43.46520799714472,-148.93428593557928)"><path d="M208.77219177246093,24Q205.41219177246094,24,205.41219177246094,20.64L205.41219177246094,-2.4400000000000013Q205.41219177246094,-5.800000000000001,208.77219177246093,-5.800000000000001L209.85219177246094,-5.800000000000001Q212.69219177246094,-5.800000000000001,214.01219177246094,-3.280000000000001L219.29219177246094,6.920000000000002Q220.09219177246092,8.48,220.81219177246095,10.079999999999998L222.77219177246093,14.520000000000003Q223.01219177246094,15.079999999999998,223.11219177246093,15.079999999999998Q223.21219177246093,15.079999999999998,223.17219177246093,14.880000000000003L223.01219177246094,13.36Q222.25219177246095,7.039999999999999,222.25219177246095,4.079999999999998L222.25219177246095,-2.4400000000000013Q222.25219177246095,-5.800000000000001,225.61219177246093,-5.800000000000001Q229.05219177246093,-5.800000000000001,229.05219177246093,-2.4400000000000013L229.05219177246093,20.64Q229.05219177246093,24,225.69219177246094,24L224.61219177246093,24Q221.77219177246093,24,220.45219177246094,21.479999999999997L215.21219177246093,11.200000000000003Q214.41219177246094,9.64,213.69219177246094,8.04L211.73219177246094,3.6799999999999997Q211.49219177246093,3.120000000000001,211.39219177246093,3.120000000000001Q211.29219177246094,3.120000000000001,211.33219177246093,3.3200000000000003L211.57219177246094,5.879999999999999Q212.21219177246093,11.479999999999997,212.21219177246093,14.119999999999997L212.21219177246093,20.64Q212.21219177246093,24,208.77219177246093,24ZM245.29219177246094,24.560000000000002Q240.73219177246094,24.560000000000002,237.53219177246095,21.4Q234.13219177246094,18.04,234.13219177246094,12.619999999999997Q234.13219177246094,7.199999999999999,237.53219177246095,3.8000000000000007Q240.73219177246094,0.6799999999999997,245.29219177246094,0.6799999999999997Q249.85219177246094,0.6799999999999997,253.01219177246094,3.8000000000000007Q256.4121917724609,7.199999999999999,256.4121917724609,12.619999999999997Q256.4121917724609,18.04,253.01219177246094,21.4Q249.85219177246094,24.560000000000002,245.29219177246094,24.560000000000002ZM245.27219177246093,18.799999999999997Q249.13219177246094,18.799999999999997,249.13219177246094,12.600000000000001Q249.13219177246094,9.68,248.21219177246093,8.120000000000001Q247.21219177246093,6.440000000000001,245.29219177246094,6.440000000000001Q241.41219177246094,6.440000000000001,241.41219177246094,12.619999999999997Q241.41219177246094,18.799999999999997,245.27219177246093,18.799999999999997ZM279.85219177246097,24.560000000000002Q276.85219177246097,24.560000000000002,274.01219177246094,23.479999999999997Q270.9721917724609,22.36,269.7921917724609,21.259999999999998Q268.61219177246096,20.159999999999997,270.73219177246096,17.759999999999998Q272.85219177246097,15.399999999999999,273.63219177246094,16.060000000000002Q274.4121917724609,16.72,276.35219177246097,17.560000000000002Q278.2921917724609,18.4,280.01219177246094,18.4Q283.89219177246093,18.4,283.89219177246093,15.799999999999997Q283.89219177246093,14.719999999999999,283.39219177246093,14.36Q282.89219177246093,14,282.57219177246094,13.759999999999998Q282.25219177246095,13.520000000000003,280.2121917724609,12.64L277.4121917724609,11.479999999999997Q275.89219177246093,10.840000000000003,274.33219177246093,10.240000000000002Q273.25219177246095,9.8,271.69219177246094,7.920000000000002Q269.85219177246097,5.68,269.85219177246097,2.6799999999999997Q269.85219177246097,-1.120000000000001,272.9121917724609,-3.719999999999999Q275.9721917724609,-6.32,280.6521917724609,-6.32Q283.2921917724609,-6.32,285.85219177246097,-5.32Q288.4121917724609,-4.32,289.49219177246096,-3.2399999999999984Q290.57219177246094,-2.16,288.69219177246094,-0.03999999999999915Q286.81219177246095,2.120000000000001,284.2121917724609,0.120000000000001Q283.7721917724609,-0.1999999999999993,280.6521917724609,-0.1999999999999993Q279.01219177246094,-0.1999999999999993,278.07219177246094,0.4400000000000013Q277.13219177246094,1.0799999999999983,277.13219177246094,2.1999999999999993Q277.13219177246094,3.3200000000000003,277.7121917724609,3.6999999999999993Q278.2921917724609,4.079999999999998,279.69219177246094,4.68L283.81219177246095,6.440000000000001Q285.33219177246093,7.079999999999998,286.89219177246093,7.68Q291.2121917724609,9.440000000000001,291.2121917724609,15.240000000000002Q291.2121917724609,19.119999999999997,288.25219177246095,21.759999999999998Q285.05219177246096,24.560000000000002,279.85219177246097,24.560000000000002ZM298.9721917724609,24Q295.61219177246096,24,295.61219177246096,20.64L295.61219177246096,4.600000000000001Q295.61219177246096,1.2399999999999984,298.9721917724609,1.2399999999999984L299.37219177246095,1.2399999999999984Q302.73219177246096,1.2399999999999984,302.73219177246096,4.600000000000001L302.73219177246096,20.64Q302.73219177246096,24,299.37219177246095,24L298.9721917724609,24ZM299.1521917724609,-1.9200000000000017Q297.37219177246095,-1.9200000000000017,296.2921917724609,-2.9200000000000017Q295.2121917724609,-3.9200000000000017,295.2121917724609,-5.579999999999998Q295.2121917724609,-7.24,296.2921917724609,-8.24Q297.37219177246095,-9.24,299.1521917724609,-9.24Q300.93219177246095,-9.24,302.0321917724609,-8.24Q303.13219177246094,-7.24,303.13219177246094,-5.579999999999998Q303.13219177246094,-3.9200000000000017,302.0321917724609,-2.9200000000000017Q300.93219177246095,-1.9200000000000017,299.1521917724609,-1.9200000000000017ZM316.61219177246096,33.56Q312.37219177246095,33.56,309.89219177246093,32.24Q307.0921917724609,30.72,307.0921917724609,27.86Q307.0921917724609,25,309.73219177246096,23.64Q310.2921917724609,23.36,310.2921917724609,23.259999999999998Q310.2921917724609,23.159999999999997,309.6521917724609,22.72Q308.2121917724609,21.759999999999998,308.2121917724609,19.240000000000002Q308.2121917724609,18.08,308.9121917724609,16.939999999999998Q309.61219177246096,15.799999999999997,310.13219177246094,15.439999999999998Q310.7721917724609,15,310.7721917724609,14.920000000000002Q310.7721917724609,14.840000000000003,310.13219177246094,14.399999999999999Q309.45219177246094,13.920000000000002,308.61219177246096,12.479999999999997Q307.6521917724609,10.799999999999997,307.6521917724609,8.920000000000002Q307.6521917724609,5,310.57219177246094,2.719999999999999Q313.2121917724609,0.6799999999999997,317.1721917724609,0.6799999999999997Q319.1721917724609,0.6799999999999997,319.49219177246096,0.8000000000000007Q320.7721917724609,1.2399999999999984,322.13219177246094,1.2399999999999984L325.7721917724609,1.2399999999999984Q329.13219177246094,1.2399999999999984,329.13219177246094,3.8000000000000007Q329.13219177246094,6.399999999999999,325.85219177246097,6.399999999999999Q325.6521917724609,6.399999999999999,325.73219177246096,6.559999999999999Q326.25219177246095,7.600000000000001,326.25219177246095,9.16Q326.25219177246095,12.96,323.61219177246096,14.96Q321.2121917724609,16.799999999999997,317.1721917724609,16.799999999999997Q315.93219177246095,16.799999999999997,315.13219177246094,16.6Q314.49219177246096,16.4,314.01219177246094,16.880000000000003Q313.7721917724609,17.119999999999997,313.7721917724609,17.96Q313.7721917724609,18.799999999999997,314.55219177246096,19.159999999999997Q315.33219177246093,19.520000000000003,317.13219177246094,19.520000000000003L320.73219177246096,19.520000000000003Q329.5321917724609,19.520000000000003,329.5321917724609,25.36Q329.5321917724609,29,326.01219177246094,31.28Q322.49219177246096,33.56,316.61219177246096,33.56ZM317.7121917724609,29.119999999999997Q319.89219177246093,29.119999999999997,321.2921917724609,28.4Q322.69219177246094,27.68,322.69219177246094,26.659999999999997Q322.69219177246094,25.64,322.25219177246095,25.46Q321.81219177246095,25.28,321.45219177246094,25.119999999999997Q321.0921917724609,24.96,319.37219177246095,24.96L317.2121917724609,24.96Q314.9721917724609,24.96,314.69219177246094,24.880000000000003Q313.9721917724609,24.68,313.4121917724609,25.159999999999997Q312.93219177246095,25.6,312.93219177246095,26.740000000000002Q312.93219177246095,27.880000000000003,314.23219177246096,28.5Q315.5321917724609,29.119999999999997,317.7121917724609,29.119999999999997ZM315.0921917724609,11.579999999999998Q315.89219177246093,12.520000000000003,317.19219177246094,12.520000000000003Q318.49219177246096,12.520000000000003,319.2921917724609,11.600000000000001Q320.0921917724609,10.68,320.0921917724609,8.96Q320.0921917724609,7.239999999999998,319.2921917724609,6.34Q318.49219177246096,5.440000000000001,317.19219177246094,5.440000000000001Q315.89219177246093,5.440000000000001,315.0921917724609,6.359999999999999Q314.2921917724609,7.280000000000001,314.2921917724609,8.96Q314.2921917724609,10.64,315.0921917724609,11.579999999999998ZM336.45219177246094,24Q333.092191772461,24,333.092191772461,20.64L333.092191772461,4.52Q333.092191772461,1.2399999999999984,335.9321917724609,1Q338.81219177246095,0.7199999999999989,339.37219177246095,3.879999999999999Q339.4121917724609,4.079999999999998,339.472191772461,4.079999999999998Q339.5321917724609,4.079999999999998,340.2121917724609,3.3999999999999986Q343.01219177246094,0.6799999999999997,346.81219177246095,0.6799999999999997Q353.89219177246093,0.6799999999999997,353.89219177246093,9.920000000000002L353.89219177246093,20.64Q353.89219177246093,24,350.5321917724609,24L350.13219177246094,24Q346.7721917724609,24,346.7721917724609,20.64L346.7721917724609,10.799999999999997Q346.7721917724609,8.52,346.1521917724609,7.640000000000001Q345.5321917724609,6.760000000000002,344.13219177246094,6.760000000000002Q343.01219177246094,6.760000000000002,342.092191772461,7.280000000000001Q341.33219177246093,7.719999999999999,340.89219177246093,8.16Q340.2121917724609,8.8,340.2121917724609,9.719999999999999L340.2121917724609,20.64Q340.2121917724609,24,336.85219177246097,24L336.45219177246094,24ZM365.1721917724609,24.560000000000002Q362.092191772461,24.560000000000002,360.2121917724609,22.520000000000003Q358.4121917724609,20.6,358.4121917724609,17.64Q358.4121917724609,14,361.4121917724609,12Q364.4121917724609,10,370.81219177246095,9.32Q371.0521917724609,9.280000000000001,371.0521917724609,9.04Q370.81219177246095,6.359999999999999,367.61219177246096,6.359999999999999Q365.2121917724609,6.359999999999999,364.61219177246096,6.68Q361.69219177246094,8.32,360.37219177246095,6.039999999999999Q359.0521917724609,3.7600000000000016,361.9321917724609,2.039999999999999Q364.1721917724609,0.6799999999999997,368.972191772461,0.6799999999999997Q378.1721917724609,0.6799999999999997,378.1721917724609,11.079999999999998L378.1721917724609,20.759999999999998Q378.1721917724609,24,375.33219177246093,24.28Q372.49219177246096,24.6,371.9321917724609,21.92Q371.89219177246093,21.72,371.7921917724609,21.72Q371.69219177246094,21.72,370.972191772461,22.4Q368.5321917724609,24.560000000000002,365.1721917724609,24.560000000000002ZM367.61219177246096,19.04Q369.37219177246095,19.04,370.37219177246095,17.96Q371.0521917724609,17.240000000000002,371.0521917724609,16.28L371.0521917724609,13.799999999999997Q371.0521917724609,13.600000000000001,370.85219177246097,13.64Q365.1721917724609,14.36,365.1721917724609,17.08Q365.1721917724609,19.04,367.61219177246096,19.04ZM390.13219177246094,24.560000000000002Q386.6521917724609,24.560000000000002,385.0521917724609,22.36Q383.6521917724609,20.4,383.6521917724609,16.6L383.6521917724609,-4.600000000000001Q383.6521917724609,-7.960000000000001,387.01219177246094,-7.960000000000001L387.4121917724609,-7.960000000000001Q390.7721917724609,-7.960000000000001,390.7721917724609,-4.600000000000001L390.7721917724609,16.840000000000003Q390.7721917724609,18.799999999999997,391.39219177246093,18.799999999999997Q392.01219177246094,18.799999999999997,392.49219177246096,18.759999999999998Q392.972191772461,18.72,393.61219177246096,21.200000000000003Q394.2121917724609,23.72,393.2121917724609,24.14Q392.2121917724609,24.560000000000002,390.13219177246094,24.560000000000002Z" fill="#3D3D3D" fill-opacity="1"/></g><g transform="matrix(0.7071067690849304,0.7071067690849304,-0.7071067690849304,0.7071067690849304,116.48811102229502,28.772820833505648)"><path d="M30.772191772460936,201Q27.412191772460936,201,27.412191772460936,197.64L27.412191772460936,174.56Q27.412191772460936,171.2,30.772191772460936,171.2L31.852191772460937,171.2Q34.69219177246094,171.2,36.01219177246094,173.72L41.29219177246094,183.92000000000002Q42.092191772460936,185.48,42.812191772460935,187.07999999999998L44.77219177246094,191.52Q45.01219177246094,192.07999999999998,45.11219177246094,192.07999999999998Q45.21219177246094,192.07999999999998,45.172191772460934,191.88L45.01219177246094,190.36Q44.25219177246093,184.04,44.25219177246093,181.07999999999998L44.25219177246093,174.56Q44.25219177246093,171.2,47.61219177246094,171.2Q51.05219177246094,171.2,51.05219177246094,174.56L51.05219177246094,197.64Q51.05219177246094,201,47.69219177246094,201L46.61219177246094,201Q43.77219177246094,201,42.452191772460935,198.48L37.21219177246094,188.2Q36.412191772460936,186.64,35.69219177246094,185.04L33.732191772460936,180.68Q33.49219177246094,180.12,33.39219177246094,180.12Q33.29219177246094,180.12,33.33219177246094,180.32L33.57219177246094,182.88Q34.21219177246094,188.48,34.21219177246094,191.12L34.21219177246094,197.64Q34.21219177246094,201,30.772191772460936,201ZM67.29219177246094,201.56Q62.732191772460936,201.56,59.53219177246094,198.4Q56.132191772460935,195.04,56.132191772460935,189.62Q56.132191772460935,184.2,59.53219177246094,180.8Q62.732191772460936,177.68,67.29219177246094,177.68Q71.85219177246094,177.68,75.01219177246094,180.8Q78.41219177246094,184.2,78.41219177246094,189.62Q78.41219177246094,195.04,75.01219177246094,198.4Q71.85219177246094,201.56,67.29219177246094,201.56ZM67.27219177246093,195.8Q71.13219177246094,195.8,71.13219177246094,189.6Q71.13219177246094,186.68,70.21219177246094,185.12Q69.21219177246094,183.44,67.29219177246094,183.44Q63.412191772460936,183.44,63.412191772460936,189.62Q63.412191772460936,195.8,67.27219177246093,195.8ZM101.85219177246094,201.56Q98.85219177246094,201.56,96.01219177246094,200.48Q92.97219177246093,199.36,91.79219177246094,198.26Q90.61219177246093,197.16,92.73219177246094,194.76Q94.85219177246094,192.4,95.63219177246094,193.06Q96.41219177246094,193.72,98.35219177246094,194.56Q100.29219177246094,195.4,102.01219177246094,195.4Q105.89219177246093,195.4,105.89219177246093,192.8Q105.89219177246093,191.72,105.39219177246093,191.36Q104.89219177246093,191,104.57219177246094,190.76Q104.25219177246093,190.52,102.21219177246094,189.64L99.41219177246094,188.48Q97.89219177246093,187.84,96.33219177246093,187.24Q95.25219177246093,186.8,93.69219177246094,184.92000000000002Q91.85219177246094,182.68,91.85219177246094,179.68Q91.85219177246094,175.88,94.91219177246094,173.28Q97.97219177246093,170.68,102.65219177246094,170.68Q105.29219177246094,170.68,107.85219177246094,171.68Q110.41219177246094,172.68,111.49219177246094,173.76Q112.57219177246094,174.84,110.69219177246094,176.96Q108.81219177246093,179.12,106.21219177246094,177.12Q105.77219177246094,176.8,102.65219177246094,176.8Q101.01219177246094,176.8,100.07219177246094,177.44Q99.13219177246094,178.07999999999998,99.13219177246094,179.2Q99.13219177246094,180.32,99.71219177246094,180.7Q100.29219177246094,181.07999999999998,101.69219177246094,181.68L105.81219177246093,183.44Q107.33219177246093,184.07999999999998,108.89219177246093,184.68Q113.21219177246094,186.44,113.21219177246094,192.24Q113.21219177246094,196.12,110.25219177246093,198.76Q107.05219177246094,201.56,101.85219177246094,201.56ZM120.97219177246093,201Q117.61219177246093,201,117.61219177246093,197.64L117.61219177246093,181.6Q117.61219177246093,178.24,120.97219177246093,178.24L121.37219177246094,178.24Q124.73219177246094,178.24,124.73219177246094,181.6L124.73219177246094,197.64Q124.73219177246094,201,121.37219177246094,201L120.97219177246093,201ZM121.15219177246094,175.07999999999998Q119.37219177246094,175.07999999999998,118.29219177246094,174.07999999999998Q117.21219177246094,173.07999999999998,117.21219177246094,171.42000000000002Q117.21219177246094,169.76,118.29219177246094,168.76Q119.37219177246094,167.76,121.15219177246094,167.76Q122.93219177246094,167.76,124.03219177246093,168.76Q125.13219177246094,169.76,125.13219177246094,171.42000000000002Q125.13219177246094,173.07999999999998,124.03219177246093,174.07999999999998Q122.93219177246094,175.07999999999998,121.15219177246094,175.07999999999998ZM138.61219177246093,210.56Q134.37219177246095,210.56,131.89219177246093,209.24Q129.09219177246092,207.72,129.09219177246092,204.86Q129.09219177246092,202,131.73219177246094,200.64Q132.29219177246094,200.36,132.29219177246094,200.26Q132.29219177246094,200.16,131.65219177246092,199.72Q130.21219177246093,198.76,130.21219177246093,196.24Q130.21219177246093,195.07999999999998,130.91219177246094,193.94Q131.61219177246093,192.8,132.13219177246094,192.44Q132.77219177246093,192,132.77219177246093,191.92000000000002Q132.77219177246093,191.84,132.13219177246094,191.4Q131.45219177246094,190.92000000000002,130.61219177246093,189.48Q129.65219177246092,187.8,129.65219177246092,185.92000000000002Q129.65219177246092,182,132.57219177246094,179.72Q135.21219177246093,177.68,139.17219177246093,177.68Q141.17219177246093,177.68,141.49219177246096,177.8Q142.77219177246093,178.24,144.13219177246094,178.24L147.77219177246093,178.24Q151.13219177246094,178.24,151.13219177246094,180.8Q151.13219177246094,183.4,147.85219177246094,183.4Q147.65219177246092,183.4,147.73219177246094,183.56Q148.25219177246095,184.6,148.25219177246095,186.16Q148.25219177246095,189.96,145.61219177246093,191.96Q143.21219177246093,193.8,139.17219177246093,193.8Q137.93219177246095,193.8,137.13219177246094,193.6Q136.49219177246096,193.4,136.01219177246094,193.88Q135.77219177246093,194.12,135.77219177246093,194.96Q135.77219177246093,195.8,136.55219177246096,196.16Q137.33219177246093,196.52,139.13219177246094,196.52L142.73219177246094,196.52Q151.53219177246095,196.52,151.53219177246095,202.36Q151.53219177246095,206,148.01219177246094,208.28Q144.49219177246096,210.56,138.61219177246093,210.56ZM139.71219177246093,206.12Q141.89219177246093,206.12,143.29219177246094,205.4Q144.69219177246094,204.68,144.69219177246094,203.66Q144.69219177246094,202.64,144.25219177246095,202.46Q143.81219177246095,202.28,143.45219177246094,202.12Q143.09219177246092,201.96,141.37219177246095,201.96L139.21219177246093,201.96Q136.97219177246092,201.96,136.69219177246094,201.88Q135.97219177246092,201.68,135.41219177246094,202.16Q134.93219177246095,202.6,134.93219177246095,203.74Q134.93219177246095,204.88,136.23219177246094,205.5Q137.53219177246092,206.12,139.71219177246093,206.12ZM137.09219177246092,188.57999999999998Q137.89219177246093,189.52,139.19219177246094,189.52Q140.49219177246096,189.52,141.29219177246094,188.6Q142.09219177246092,187.68,142.09219177246092,185.96Q142.09219177246092,184.24,141.29219177246094,183.34Q140.49219177246096,182.44,139.19219177246094,182.44Q137.89219177246093,182.44,137.09219177246092,183.36Q136.29219177246094,184.28,136.29219177246094,185.96Q136.29219177246094,187.64,137.09219177246092,188.57999999999998ZM158.45219177246094,201Q155.09219177246095,201,155.09219177246095,197.64L155.09219177246095,181.52Q155.09219177246095,178.24,157.93219177246092,178Q160.81219177246095,177.72,161.37219177246095,180.88Q161.41219177246094,181.07999999999998,161.47219177246095,181.07999999999998Q161.53219177246095,181.07999999999998,162.21219177246093,180.4Q165.01219177246094,177.68,168.81219177246095,177.68Q175.89219177246093,177.68,175.89219177246093,186.92000000000002L175.89219177246093,197.64Q175.89219177246093,201,172.53219177246095,201L172.13219177246094,201Q168.77219177246093,201,168.77219177246093,197.64L168.77219177246093,187.8Q168.77219177246093,185.52,168.15219177246092,184.64Q167.53219177246095,183.76,166.13219177246094,183.76Q165.01219177246094,183.76,164.09219177246095,184.28Q163.33219177246093,184.72,162.89219177246093,185.16Q162.21219177246093,185.8,162.21219177246093,186.72L162.21219177246093,197.64Q162.21219177246093,201,158.85219177246094,201L158.45219177246094,201ZM187.17219177246093,201.56Q184.09219177246095,201.56,182.21219177246093,199.52Q180.41219177246094,197.6,180.41219177246094,194.64Q180.41219177246094,191,183.41219177246094,189Q186.41219177246094,187,192.81219177246095,186.32Q193.05219177246093,186.28,193.05219177246093,186.04Q192.81219177246095,183.36,189.61219177246093,183.36Q187.21219177246093,183.36,186.61219177246093,183.68Q183.69219177246094,185.32,182.37219177246095,183.04Q181.05219177246093,180.76,183.93219177246092,179.04Q186.17219177246093,177.68,190.97219177246095,177.68Q200.17219177246093,177.68,200.17219177246093,188.07999999999998L200.17219177246093,197.76Q200.17219177246093,201,197.33219177246093,201.28Q194.49219177246093,201.6,193.93219177246092,198.92000000000002Q193.89219177246093,198.72,193.79219177246094,198.72Q193.69219177246094,198.72,192.97219177246095,199.4Q190.53219177246095,201.56,187.17219177246093,201.56ZM189.61219177246093,196.04Q191.37219177246095,196.04,192.37219177246095,194.96Q193.05219177246093,194.24,193.05219177246093,193.28L193.05219177246093,190.8Q193.05219177246093,190.6,192.85219177246094,190.64Q187.17219177246093,191.36,187.17219177246093,194.07999999999998Q187.17219177246093,196.04,189.61219177246093,196.04ZM212.13219177246094,201.56Q208.65219177246092,201.56,207.05219177246093,199.36Q205.65219177246092,197.4,205.65219177246092,193.6L205.65219177246092,172.4Q205.65219177246092,169.04,209.01219177246094,169.04L209.41219177246094,169.04Q212.77219177246093,169.04,212.77219177246093,172.4L212.77219177246093,193.84Q212.77219177246093,195.8,213.39219177246093,195.8Q214.01219177246094,195.8,214.49219177246093,195.76Q214.97219177246095,195.72,215.61219177246093,198.2Q216.21219177246093,200.72,215.21219177246093,201.14Q214.21219177246093,201.56,212.13219177246094,201.56Z" fill="#3D3D3D" fill-opacity="1"/></g><g><g transform="matrix(0.7071067690849304,0.7071067690849304,-0.7071067690849304,0.7071067690849304,53.23580135620705,5.4774060419904345)"><path d="M23.886088256835937,90Q22.206088256835937,90,22.206088256835937,88.32L22.206088256835937,76.78Q22.206088256835937,75.1,23.886088256835937,75.1L24.42608825683594,75.1Q25.846088256835937,75.1,26.506088256835938,76.36L29.146088256835938,81.46000000000001Q29.546088256835937,82.24,29.906088256835936,83.03999999999999L30.88608825683594,85.26Q31.006088256835938,85.53999999999999,31.056088256835938,85.53999999999999Q31.10608825683594,85.53999999999999,31.086088256835936,85.44L31.006088256835938,84.68Q30.626088256835935,81.52,30.626088256835935,80.03999999999999L30.626088256835935,76.78Q30.626088256835935,75.1,32.306088256835935,75.1Q34.02608825683593,75.1,34.02608825683593,76.78L34.02608825683593,88.32Q34.02608825683593,90,32.34608825683594,90L31.806088256835938,90Q30.38608825683594,90,29.726088256835936,88.74L27.10608825683594,83.6Q26.706088256835937,82.82,26.346088256835937,82.02L25.366088256835937,79.84Q25.24608825683594,79.56,25.19608825683594,79.56Q25.146088256835938,79.56,25.166088256835938,79.66L25.28608825683594,80.94Q25.60608825683594,83.74,25.60608825683594,85.06L25.60608825683594,88.32Q25.60608825683594,90,23.886088256835937,90ZM42.14608825683594,90.28Q39.86608825683594,90.28,38.26608825683594,88.7Q36.56608825683594,87.02,36.56608825683594,84.31Q36.56608825683594,81.6,38.26608825683594,79.9Q39.86608825683594,78.34,42.14608825683594,78.34Q44.42608825683594,78.34,46.00608825683594,79.9Q47.70608825683594,81.6,47.70608825683594,84.31Q47.70608825683594,87.02,46.00608825683594,88.7Q44.42608825683594,90.28,42.14608825683594,90.28ZM42.13608825683593,87.4Q44.06608825683594,87.4,44.06608825683594,84.3Q44.06608825683594,82.84,43.60608825683594,82.06Q43.10608825683594,81.22,42.14608825683594,81.22Q40.20608825683594,81.22,40.20608825683594,84.31Q40.20608825683594,87.4,42.13608825683593,87.4ZM59.42608825683594,90.28Q57.92608825683594,90.28,56.50608825683594,89.74Q54.986088256835934,89.18,54.39608825683594,88.63Q53.806088256835935,88.08,54.86608825683594,86.88Q55.92608825683594,85.7,56.31608825683594,86.03Q56.70608825683594,86.36,57.67608825683594,86.78Q58.64608825683594,87.2,59.50608825683594,87.2Q61.446088256835935,87.2,61.446088256835935,85.9Q61.446088256835935,85.36,61.196088256835935,85.18Q60.946088256835935,85,60.78608825683594,84.88Q60.626088256835935,84.76,59.60608825683594,84.32L58.20608825683594,83.74Q57.446088256835935,83.42,56.666088256835934,83.12Q56.126088256835935,82.9,55.34608825683594,81.96000000000001Q54.42608825683594,80.84,54.42608825683594,79.34Q54.42608825683594,77.44,55.95608825683594,76.14Q57.486088256835934,74.84,59.82608825683594,74.84Q61.14608825683594,74.84,62.42608825683594,75.34Q63.70608825683594,75.84,64.24608825683595,76.38Q64.78608825683594,76.92,63.84608825683594,77.98Q62.906088256835936,79.06,61.60608825683594,78.06Q61.38608825683594,77.9,59.82608825683594,77.9Q59.00608825683594,77.9,58.53608825683594,78.22Q58.06608825683594,78.53999999999999,58.06608825683594,79.1Q58.06608825683594,79.66,58.35608825683594,79.85Q58.64608825683594,80.03999999999999,59.34608825683594,80.34L61.406088256835936,81.22Q62.166088256835934,81.53999999999999,62.946088256835935,81.84Q65.10608825683593,82.72,65.10608825683593,85.62Q65.10608825683593,87.56,63.626088256835935,88.88Q62.02608825683594,90.28,59.42608825683594,90.28ZM68.98608825683593,90Q67.30608825683593,90,67.30608825683593,88.32L67.30608825683593,80.3Q67.30608825683593,78.62,68.98608825683593,78.62L69.18608825683594,78.62Q70.86608825683594,78.62,70.86608825683594,80.3L70.86608825683594,88.32Q70.86608825683594,90,69.18608825683594,90L68.98608825683593,90ZM69.07608825683593,77.03999999999999Q68.18608825683594,77.03999999999999,67.64608825683594,76.53999999999999Q67.10608825683593,76.03999999999999,67.10608825683593,75.21000000000001Q67.10608825683593,74.38,67.64608825683594,73.88Q68.18608825683594,73.38,69.07608825683593,73.38Q69.96608825683595,73.38,70.51608825683593,73.88Q71.06608825683594,74.38,71.06608825683594,75.21000000000001Q71.06608825683594,76.03999999999999,70.51608825683593,76.53999999999999Q69.96608825683595,77.03999999999999,69.07608825683593,77.03999999999999ZM77.80608825683593,94.78Q75.68608825683594,94.78,74.44608825683594,94.12Q73.04608825683593,93.36,73.04608825683593,91.93Q73.04608825683593,90.5,74.36608825683594,89.82Q74.64608825683594,89.68,74.64608825683594,89.63Q74.64608825683594,89.58,74.32608825683593,89.36Q73.60608825683593,88.88,73.60608825683593,87.62Q73.60608825683593,87.03999999999999,73.95608825683594,86.47Q74.30608825683593,85.9,74.56608825683594,85.72Q74.88608825683593,85.5,74.88608825683593,85.46000000000001Q74.88608825683593,85.42,74.56608825683594,85.2Q74.22608825683594,84.96000000000001,73.80608825683593,84.24Q73.32608825683593,83.4,73.32608825683593,82.46000000000001Q73.32608825683593,80.5,74.78608825683594,79.36Q76.10608825683593,78.34,78.08608825683594,78.34Q79.08608825683594,78.34,79.24608825683595,78.4Q79.88608825683593,78.62,80.56608825683594,78.62L82.38608825683593,78.62Q84.06608825683594,78.62,84.06608825683594,79.9Q84.06608825683594,81.2,82.42608825683594,81.2Q82.32608825683593,81.2,82.36608825683594,81.28Q82.62608825683594,81.8,82.62608825683594,82.58Q82.62608825683594,84.48,81.30608825683593,85.48Q80.10608825683593,86.4,78.08608825683594,86.4Q77.46608825683595,86.4,77.06608825683594,86.3Q76.74608825683595,86.2,76.50608825683594,86.44Q76.38608825683593,86.56,76.38608825683593,86.98Q76.38608825683593,87.4,76.77608825683595,87.58Q77.16608825683593,87.76,78.06608825683594,87.76L79.86608825683594,87.76Q84.26608825683594,87.76,84.26608825683594,90.68Q84.26608825683594,92.5,82.50608825683594,93.64Q80.74608825683595,94.78,77.80608825683593,94.78ZM78.35608825683593,92.56Q79.44608825683594,92.56,80.14608825683594,92.2Q80.84608825683594,91.84,80.84608825683594,91.33Q80.84608825683594,90.82,80.62608825683594,90.73Q80.40608825683594,90.64,80.22608825683594,90.56Q80.04608825683593,90.48,79.18608825683594,90.48L78.10608825683593,90.48Q76.98608825683593,90.48,76.84608825683594,90.44Q76.48608825683593,90.34,76.20608825683594,90.58Q75.96608825683595,90.8,75.96608825683595,91.37Q75.96608825683595,91.94,76.61608825683594,92.25Q77.26608825683593,92.56,78.35608825683593,92.56ZM77.04608825683593,83.78999999999999Q77.44608825683594,84.26,78.09608825683594,84.26Q78.74608825683595,84.26,79.14608825683594,83.8Q79.54608825683593,83.34,79.54608825683593,82.48Q79.54608825683593,81.62,79.14608825683594,81.17Q78.74608825683595,80.72,78.09608825683594,80.72Q77.44608825683594,80.72,77.04608825683593,81.18Q76.64608825683594,81.64,76.64608825683594,82.48Q76.64608825683594,83.32,77.04608825683593,83.78999999999999ZM87.72608825683594,90Q86.04608825683594,90,86.04608825683594,88.32L86.04608825683594,80.26Q86.04608825683594,78.62,87.46608825683593,78.5Q88.90608825683594,78.36,89.18608825683594,79.94Q89.20608825683594,80.03999999999999,89.23608825683594,80.03999999999999Q89.26608825683594,80.03999999999999,89.60608825683593,79.7Q91.00608825683594,78.34,92.90608825683594,78.34Q96.44608825683594,78.34,96.44608825683594,82.96000000000001L96.44608825683594,88.32Q96.44608825683594,90,94.76608825683594,90L94.56608825683594,90Q92.88608825683593,90,92.88608825683593,88.32L92.88608825683593,83.4Q92.88608825683593,82.26,92.57608825683593,81.82Q92.26608825683594,81.38,91.56608825683594,81.38Q91.00608825683594,81.38,90.54608825683594,81.64Q90.16608825683593,81.86,89.94608825683594,82.08Q89.60608825683593,82.4,89.60608825683593,82.86L89.60608825683593,88.32Q89.60608825683593,90,87.92608825683594,90L87.72608825683594,90ZM102.08608825683594,90.28Q100.54608825683594,90.28,99.60608825683593,89.26Q98.70608825683594,88.3,98.70608825683594,86.82Q98.70608825683594,85,100.20608825683594,84Q101.70608825683594,83,104.90608825683594,82.66Q105.02608825683593,82.64,105.02608825683593,82.52Q104.90608825683594,81.18,103.30608825683593,81.18Q102.10608825683593,81.18,101.80608825683593,81.34Q100.34608825683594,82.16,99.68608825683594,81.02Q99.02608825683593,79.88,100.46608825683593,79.02Q101.58608825683594,78.34,103.98608825683594,78.34Q108.58608825683594,78.34,108.58608825683594,83.53999999999999L108.58608825683594,88.38Q108.58608825683594,90,107.16608825683593,90.14Q105.74608825683593,90.3,105.46608825683593,88.96000000000001Q105.44608825683594,88.86,105.39608825683594,88.86Q105.34608825683594,88.86,104.98608825683594,89.2Q103.76608825683594,90.28,102.08608825683594,90.28ZM103.30608825683593,87.52Q104.18608825683594,87.52,104.68608825683594,86.98Q105.02608825683593,86.62,105.02608825683593,86.14L105.02608825683593,84.9Q105.02608825683593,84.8,104.92608825683594,84.82Q102.08608825683594,85.18,102.08608825683594,86.53999999999999Q102.08608825683594,87.52,103.30608825683593,87.52ZM114.56608825683594,90.28Q112.82608825683593,90.28,112.02608825683593,89.18Q111.32608825683593,88.2,111.32608825683593,86.3L111.32608825683593,75.7Q111.32608825683593,74.02,113.00608825683594,74.02L113.20608825683594,74.02Q114.88608825683593,74.02,114.88608825683593,75.7L114.88608825683593,86.42Q114.88608825683593,87.4,115.19608825683594,87.4Q115.50608825683594,87.4,115.74608825683593,87.38Q115.98608825683594,87.36,116.30608825683593,88.6Q116.60608825683593,89.86,116.10608825683593,90.07Q115.60608825683593,90.28,114.56608825683594,90.28Z" fill="#04AAEB" fill-opacity="1"/></g><g transform="matrix(0.7071067690849304,0.7071067690849304,-0.7071067690849304,0.7071067690849304,31.927145378957903,-77.07894287787803)"><path d="M112.88608825683593,23Q111.20608825683594,23,111.20608825683594,21.32L111.20608825683594,9.78Q111.20608825683594,8.1,112.88608825683593,8.1L113.42608825683594,8.1Q114.84608825683594,8.1,115.50608825683594,9.36L118.14608825683594,14.46Q118.54608825683593,15.24,118.90608825683594,16.04L119.88608825683593,18.26Q120.00608825683594,18.54,120.05608825683593,18.54Q120.10608825683593,18.54,120.08608825683594,18.44L120.00608825683594,17.68Q119.62608825683594,14.52,119.62608825683594,13.04L119.62608825683594,9.78Q119.62608825683594,8.1,121.30608825683593,8.1Q123.02608825683593,8.1,123.02608825683593,9.78L123.02608825683593,21.32Q123.02608825683593,23,121.34608825683594,23L120.80608825683593,23Q119.38608825683593,23,118.72608825683594,21.74L116.10608825683593,16.6Q115.70608825683594,15.82,115.34608825683594,15.02L114.36608825683594,12.84Q114.24608825683593,12.56,114.19608825683594,12.56Q114.14608825683594,12.56,114.16608825683593,12.66L114.28608825683594,13.94Q114.60608825683593,16.74,114.60608825683593,18.06L114.60608825683593,21.32Q114.60608825683593,23,112.88608825683593,23ZM131.14608825683592,23.28Q128.86608825683595,23.28,127.26608825683594,21.7Q125.56608825683594,20.02,125.56608825683594,17.31Q125.56608825683594,14.6,127.26608825683594,12.9Q128.86608825683595,11.34,131.14608825683592,11.34Q133.42608825683595,11.34,135.00608825683594,12.9Q136.70608825683593,14.6,136.70608825683593,17.31Q136.70608825683593,20.02,135.00608825683594,21.7Q133.42608825683595,23.28,131.14608825683592,23.28ZM131.13608825683593,20.4Q133.06608825683594,20.4,133.06608825683594,17.3Q133.06608825683594,15.84,132.60608825683593,15.06Q132.10608825683593,14.22,131.14608825683592,14.22Q129.20608825683593,14.22,129.20608825683593,17.31Q129.20608825683593,20.4,131.13608825683593,20.4ZM148.42608825683595,23.28Q146.92608825683595,23.28,145.50608825683594,22.74Q143.98608825683593,22.18,143.39608825683592,21.63Q142.80608825683595,21.08,143.86608825683595,19.88Q144.92608825683595,18.7,145.31608825683594,19.03Q145.70608825683593,19.36,146.67608825683595,19.78Q147.64608825683592,20.2,148.50608825683594,20.2Q150.44608825683594,20.2,150.44608825683594,18.9Q150.44608825683594,18.36,150.19608825683594,18.18Q149.94608825683594,18,149.78608825683594,17.88Q149.62608825683594,17.76,148.60608825683593,17.32L147.20608825683593,16.74Q146.44608825683594,16.42,145.66608825683593,16.12Q145.12608825683594,15.9,144.34608825683594,14.96Q143.42608825683595,13.84,143.42608825683595,12.34Q143.42608825683595,10.44,144.95608825683593,9.14Q146.48608825683593,7.84,148.82608825683593,7.84Q150.14608825683592,7.84,151.42608825683595,8.34Q152.70608825683593,8.84,153.24608825683595,9.38Q153.78608825683594,9.92,152.84608825683594,10.98Q151.90608825683594,12.06,150.60608825683593,11.06Q150.38608825683593,10.9,148.82608825683593,10.9Q148.00608825683594,10.9,147.53608825683594,11.22Q147.06608825683594,11.54,147.06608825683594,12.1Q147.06608825683594,12.66,147.35608825683593,12.85Q147.64608825683592,13.04,148.34608825683594,13.34L150.40608825683594,14.22Q151.16608825683593,14.54,151.94608825683594,14.84Q154.10608825683593,15.72,154.10608825683593,18.62Q154.10608825683593,20.56,152.62608825683594,21.88Q151.02608825683595,23.28,148.42608825683595,23.28ZM157.98608825683593,23Q156.30608825683595,23,156.30608825683595,21.32L156.30608825683595,13.3Q156.30608825683595,11.62,157.98608825683593,11.62L158.18608825683594,11.62Q159.86608825683595,11.62,159.86608825683595,13.3L159.86608825683595,21.32Q159.86608825683595,23,158.18608825683594,23L157.98608825683593,23ZM158.07608825683593,10.04Q157.18608825683594,10.04,156.64608825683592,9.54Q156.10608825683593,9.04,156.10608825683593,8.21Q156.10608825683593,7.38,156.64608825683592,6.88Q157.18608825683594,6.38,158.07608825683593,6.38Q158.96608825683595,6.38,159.51608825683593,6.88Q160.06608825683594,7.38,160.06608825683594,8.21Q160.06608825683594,9.04,159.51608825683593,9.54Q158.96608825683595,10.04,158.07608825683593,10.04ZM166.80608825683595,27.78Q164.68608825683594,27.78,163.44608825683594,27.12Q162.04608825683593,26.36,162.04608825683593,24.93Q162.04608825683593,23.5,163.36608825683595,22.82Q163.64608825683592,22.68,163.64608825683592,22.63Q163.64608825683592,22.58,163.32608825683593,22.36Q162.60608825683593,21.88,162.60608825683593,20.62Q162.60608825683593,20.04,162.95608825683593,19.47Q163.30608825683595,18.9,163.56608825683594,18.72Q163.88608825683593,18.5,163.88608825683593,18.46Q163.88608825683593,18.42,163.56608825683594,18.2Q163.22608825683594,17.96,162.80608825683595,17.24Q162.32608825683593,16.4,162.32608825683593,15.46Q162.32608825683593,13.5,163.78608825683594,12.36Q165.10608825683593,11.34,167.08608825683592,11.34Q168.08608825683592,11.34,168.24608825683595,11.4Q168.88608825683593,11.62,169.56608825683594,11.62L171.38608825683593,11.62Q173.06608825683594,11.62,173.06608825683594,12.9Q173.06608825683594,14.2,171.42608825683595,14.2Q171.32608825683593,14.2,171.36608825683595,14.28Q171.62608825683594,14.8,171.62608825683594,15.58Q171.62608825683594,17.48,170.30608825683595,18.48Q169.10608825683593,19.4,167.08608825683592,19.4Q166.46608825683595,19.4,166.06608825683594,19.3Q165.74608825683595,19.2,165.50608825683594,19.44Q165.38608825683593,19.56,165.38608825683593,19.98Q165.38608825683593,20.4,165.77608825683595,20.58Q166.16608825683593,20.76,167.06608825683594,20.76L168.86608825683595,20.76Q173.26608825683593,20.76,173.26608825683593,23.68Q173.26608825683593,25.5,171.50608825683594,26.64Q169.74608825683595,27.78,166.80608825683595,27.78ZM167.35608825683593,25.56Q168.44608825683594,25.56,169.14608825683592,25.2Q169.84608825683594,24.84,169.84608825683594,24.33Q169.84608825683594,23.82,169.62608825683594,23.73Q169.40608825683594,23.64,169.22608825683594,23.56Q169.04608825683593,23.48,168.18608825683594,23.48L167.10608825683593,23.48Q165.98608825683593,23.48,165.84608825683594,23.44Q165.48608825683593,23.34,165.20608825683593,23.58Q164.96608825683595,23.8,164.96608825683595,24.37Q164.96608825683595,24.94,165.61608825683595,25.25Q166.26608825683593,25.56,167.35608825683593,25.56ZM166.04608825683593,16.79Q166.44608825683594,17.26,167.09608825683594,17.26Q167.74608825683595,17.26,168.14608825683592,16.8Q168.54608825683593,16.34,168.54608825683593,15.48Q168.54608825683593,14.62,168.14608825683592,14.17Q167.74608825683595,13.72,167.09608825683594,13.72Q166.44608825683594,13.72,166.04608825683593,14.18Q165.64608825683592,14.64,165.64608825683592,15.48Q165.64608825683592,16.32,166.04608825683593,16.79ZM176.72608825683594,23Q175.04608825683596,23,175.04608825683596,21.32L175.04608825683596,13.26Q175.04608825683596,11.62,176.46608825683592,11.5Q177.90608825683594,11.36,178.18608825683594,12.94Q178.20608825683593,13.04,178.23608825683596,13.04Q178.26608825683593,13.04,178.60608825683593,12.7Q180.00608825683594,11.34,181.90608825683594,11.34Q185.44608825683594,11.34,185.44608825683594,15.96L185.44608825683594,21.32Q185.44608825683594,23,183.76608825683593,23L183.56608825683594,23Q181.88608825683593,23,181.88608825683593,21.32L181.88608825683593,16.4Q181.88608825683593,15.26,181.57608825683593,14.82Q181.26608825683593,14.38,180.56608825683594,14.38Q180.00608825683594,14.38,179.54608825683596,14.64Q179.16608825683593,14.86,178.94608825683594,15.08Q178.60608825683593,15.4,178.60608825683593,15.86L178.60608825683593,21.32Q178.60608825683593,23,176.92608825683595,23L176.72608825683594,23ZM191.08608825683592,23.28Q189.54608825683596,23.28,188.60608825683593,22.26Q187.70608825683593,21.3,187.70608825683593,19.82Q187.70608825683593,18,189.20608825683593,17Q190.70608825683593,16,193.90608825683594,15.66Q194.02608825683592,15.64,194.02608825683592,15.52Q193.90608825683594,14.18,192.30608825683595,14.18Q191.10608825683593,14.18,190.80608825683595,14.34Q189.34608825683594,15.16,188.68608825683594,14.02Q188.02608825683592,12.88,189.46608825683592,12.02Q190.58608825683592,11.34,192.98608825683596,11.34Q197.58608825683592,11.34,197.58608825683592,16.54L197.58608825683592,21.38Q197.58608825683592,23,196.16608825683593,23.14Q194.74608825683595,23.3,194.46608825683592,21.96Q194.44608825683594,21.86,194.39608825683592,21.86Q194.34608825683594,21.86,193.98608825683596,22.2Q192.76608825683593,23.28,191.08608825683592,23.28ZM192.30608825683595,20.52Q193.18608825683594,20.52,193.68608825683594,19.98Q194.02608825683592,19.62,194.02608825683592,19.14L194.02608825683592,17.9Q194.02608825683592,17.8,193.92608825683595,17.82Q191.08608825683592,18.18,191.08608825683592,19.54Q191.08608825683592,20.52,192.30608825683595,20.52ZM203.56608825683594,23.28Q201.82608825683593,23.28,201.02608825683592,22.18Q200.32608825683593,21.2,200.32608825683593,19.3L200.32608825683593,8.7Q200.32608825683593,7.02,202.00608825683594,7.02L202.20608825683593,7.02Q203.88608825683593,7.02,203.88608825683593,8.7L203.88608825683593,19.42Q203.88608825683593,20.4,204.19608825683594,20.4Q204.50608825683594,20.4,204.74608825683595,20.38Q204.98608825683596,20.36,205.30608825683595,21.6Q205.60608825683593,22.86,205.10608825683593,23.07Q204.60608825683593,23.28,203.56608825683594,23.28Z" fill="#04AAEB" fill-opacity="1"/></g></g><g><g transform="matrix(0.7071067690849304,0.7071067690849304,-0.7071067690849304,0.7071067690849304,203.7210803506282,-49.82619221235245)"><path d="M165.8860806274414,244Q164.2060806274414,244,164.2060806274414,242.32L164.2060806274414,230.78Q164.2060806274414,229.1,165.8860806274414,229.1L166.4260806274414,229.1Q167.8460806274414,229.1,168.5060806274414,230.36L171.1460806274414,235.46Q171.5460806274414,236.24,171.9060806274414,237.04L172.8860806274414,239.26Q173.0060806274414,239.54,173.05608062744142,239.54Q173.1060806274414,239.54,173.08608062744142,239.44L173.0060806274414,238.68Q172.6260806274414,235.52,172.6260806274414,234.04L172.6260806274414,230.78Q172.6260806274414,229.1,174.30608062744142,229.1Q176.02608062744142,229.1,176.02608062744142,230.78L176.02608062744142,242.32Q176.02608062744142,244,174.3460806274414,244L173.80608062744142,244Q172.3860806274414,244,171.7260806274414,242.74L169.1060806274414,237.6Q168.7060806274414,236.82,168.3460806274414,236.02L167.36608062744142,233.84Q167.24608062744142,233.56,167.1960806274414,233.56Q167.1460806274414,233.56,167.1660806274414,233.66L167.2860806274414,234.94Q167.6060806274414,237.74,167.6060806274414,239.06L167.6060806274414,242.32Q167.6060806274414,244,165.8860806274414,244ZM184.1460806274414,244.28Q181.86608062744142,244.28,180.2660806274414,242.7Q178.5660806274414,241.02,178.5660806274414,238.31Q178.5660806274414,235.6,180.2660806274414,233.9Q181.86608062744142,232.34,184.1460806274414,232.34Q186.42608062744142,232.34,188.0060806274414,233.9Q189.7060806274414,235.6,189.7060806274414,238.31Q189.7060806274414,241.02,188.0060806274414,242.7Q186.42608062744142,244.28,184.1460806274414,244.28ZM184.1360806274414,241.4Q186.0660806274414,241.4,186.0660806274414,238.3Q186.0660806274414,236.84,185.6060806274414,236.06Q185.1060806274414,235.22,184.1460806274414,235.22Q182.2060806274414,235.22,182.2060806274414,238.31Q182.2060806274414,241.4,184.1360806274414,241.4ZM201.42608062744142,244.28Q199.92608062744142,244.28,198.5060806274414,243.74Q196.9860806274414,243.18,196.3960806274414,242.63Q195.80608062744142,242.07999999999998,196.86608062744142,240.88Q197.92608062744142,239.7,198.3160806274414,240.03Q198.7060806274414,240.36,199.67608062744142,240.78Q200.6460806274414,241.2,201.5060806274414,241.2Q203.4460806274414,241.2,203.4460806274414,239.9Q203.4460806274414,239.36,203.1960806274414,239.18Q202.9460806274414,239,202.7860806274414,238.88Q202.6260806274414,238.76,201.6060806274414,238.32L200.2060806274414,237.74Q199.4460806274414,237.42000000000002,198.6660806274414,237.12Q198.1260806274414,236.9,197.3460806274414,235.96Q196.42608062744142,234.84,196.42608062744142,233.34Q196.42608062744142,231.44,197.9560806274414,230.14Q199.4860806274414,228.84,201.8260806274414,228.84Q203.1460806274414,228.84,204.42608062744142,229.34Q205.7060806274414,229.84,206.24608062744142,230.38Q206.7860806274414,230.92,205.8460806274414,231.98Q204.9060806274414,233.06,203.6060806274414,232.06Q203.3860806274414,231.9,201.8260806274414,231.9Q201.0060806274414,231.9,200.5360806274414,232.22Q200.0660806274414,232.54,200.0660806274414,233.1Q200.0660806274414,233.66,200.3560806274414,233.85Q200.6460806274414,234.04,201.3460806274414,234.34L203.4060806274414,235.22Q204.1660806274414,235.54,204.9460806274414,235.84Q207.1060806274414,236.72,207.1060806274414,239.62Q207.1060806274414,241.56,205.6260806274414,242.88Q204.02608062744142,244.28,201.42608062744142,244.28ZM210.9860806274414,244Q209.30608062744142,244,209.30608062744142,242.32L209.30608062744142,234.3Q209.30608062744142,232.62,210.9860806274414,232.62L211.1860806274414,232.62Q212.86608062744142,232.62,212.86608062744142,234.3L212.86608062744142,242.32Q212.86608062744142,244,211.1860806274414,244L210.9860806274414,244ZM211.0760806274414,231.04Q210.1860806274414,231.04,209.6460806274414,230.54Q209.1060806274414,230.04,209.1060806274414,229.21Q209.1060806274414,228.38,209.6460806274414,227.88Q210.1860806274414,227.38,211.0760806274414,227.38Q211.9660806274414,227.38,212.5160806274414,227.88Q213.0660806274414,228.38,213.0660806274414,229.21Q213.0660806274414,230.04,212.5160806274414,230.54Q211.9660806274414,231.04,211.0760806274414,231.04ZM219.80608062744142,248.78Q217.6860806274414,248.78,216.4460806274414,248.12Q215.0460806274414,247.36,215.0460806274414,245.93Q215.0460806274414,244.5,216.36608062744142,243.82Q216.6460806274414,243.68,216.6460806274414,243.63Q216.6460806274414,243.57999999999998,216.3260806274414,243.36Q215.6060806274414,242.88,215.6060806274414,241.62Q215.6060806274414,241.04,215.9560806274414,240.47Q216.30608062744142,239.9,216.5660806274414,239.72Q216.8860806274414,239.5,216.8860806274414,239.46Q216.8860806274414,239.42000000000002,216.5660806274414,239.2Q216.2260806274414,238.96,215.80608062744142,238.24Q215.3260806274414,237.4,215.3260806274414,236.46Q215.3260806274414,234.5,216.7860806274414,233.36Q218.1060806274414,232.34,220.0860806274414,232.34Q221.0860806274414,232.34,221.24608062744142,232.4Q221.8860806274414,232.62,222.5660806274414,232.62L224.3860806274414,232.62Q226.0660806274414,232.62,226.0660806274414,233.9Q226.0660806274414,235.2,224.42608062744142,235.2Q224.3260806274414,235.2,224.36608062744142,235.28Q224.6260806274414,235.8,224.6260806274414,236.58Q224.6260806274414,238.48,223.30608062744142,239.48Q222.1060806274414,240.4,220.0860806274414,240.4Q219.4660806274414,240.4,219.0660806274414,240.3Q218.74608062744142,240.2,218.5060806274414,240.44Q218.3860806274414,240.56,218.3860806274414,240.98Q218.3860806274414,241.4,218.77608062744142,241.57999999999998Q219.1660806274414,241.76,220.0660806274414,241.76L221.86608062744142,241.76Q226.2660806274414,241.76,226.2660806274414,244.68Q226.2660806274414,246.5,224.5060806274414,247.64Q222.74608062744142,248.78,219.80608062744142,248.78ZM220.3560806274414,246.56Q221.4460806274414,246.56,222.1460806274414,246.2Q222.8460806274414,245.84,222.8460806274414,245.32999999999998Q222.8460806274414,244.82,222.6260806274414,244.73Q222.4060806274414,244.64,222.2260806274414,244.56Q222.0460806274414,244.48,221.1860806274414,244.48L220.1060806274414,244.48Q218.9860806274414,244.48,218.8460806274414,244.44Q218.4860806274414,244.34,218.2060806274414,244.57999999999998Q217.9660806274414,244.8,217.9660806274414,245.37Q217.9660806274414,245.94,218.61608062744142,246.25Q219.2660806274414,246.56,220.3560806274414,246.56ZM219.0460806274414,237.79Q219.4460806274414,238.26,220.0960806274414,238.26Q220.74608062744142,238.26,221.1460806274414,237.8Q221.5460806274414,237.34,221.5460806274414,236.48Q221.5460806274414,235.62,221.1460806274414,235.17Q220.74608062744142,234.72,220.0960806274414,234.72Q219.4460806274414,234.72,219.0460806274414,235.18Q218.6460806274414,235.64,218.6460806274414,236.48Q218.6460806274414,237.32,219.0460806274414,237.79ZM229.7260806274414,244Q228.04608062744143,244,228.04608062744143,242.32L228.04608062744143,234.26Q228.04608062744143,232.62,229.46608062744139,232.5Q230.9060806274414,232.36,231.1860806274414,233.94Q231.2060806274414,234.04,231.23608062744142,234.04Q231.2660806274414,234.04,231.6060806274414,233.7Q233.0060806274414,232.34,234.9060806274414,232.34Q238.4460806274414,232.34,238.4460806274414,236.96L238.4460806274414,242.32Q238.4460806274414,244,236.7660806274414,244L236.5660806274414,244Q234.8860806274414,244,234.8860806274414,242.32L234.8860806274414,237.4Q234.8860806274414,236.26,234.5760806274414,235.82Q234.2660806274414,235.38,233.5660806274414,235.38Q233.0060806274414,235.38,232.54608062744143,235.64Q232.1660806274414,235.86,231.9460806274414,236.08Q231.6060806274414,236.4,231.6060806274414,236.86L231.6060806274414,242.32Q231.6060806274414,244,229.92608062744142,244L229.7260806274414,244ZM244.0860806274414,244.28Q242.54608062744143,244.28,241.6060806274414,243.26Q240.7060806274414,242.3,240.7060806274414,240.82Q240.7060806274414,239,242.2060806274414,238Q243.7060806274414,237,246.9060806274414,236.66Q247.0260806274414,236.64,247.0260806274414,236.52Q246.9060806274414,235.18,245.30608062744142,235.18Q244.1060806274414,235.18,243.80608062744142,235.34Q242.3460806274414,236.16,241.6860806274414,235.02Q241.0260806274414,233.88,242.46608062744139,233.02Q243.5860806274414,232.34,245.98608062744142,232.34Q250.5860806274414,232.34,250.5860806274414,237.54L250.5860806274414,242.38Q250.5860806274414,244,249.1660806274414,244.14Q247.74608062744142,244.3,247.46608062744139,242.96Q247.4460806274414,242.86,247.3960806274414,242.86Q247.3460806274414,242.86,246.98608062744142,243.2Q245.7660806274414,244.28,244.0860806274414,244.28ZM245.30608062744142,241.52Q246.1860806274414,241.52,246.6860806274414,240.98Q247.0260806274414,240.62,247.0260806274414,240.14L247.0260806274414,238.9Q247.0260806274414,238.8,246.92608062744142,238.82Q244.0860806274414,239.18,244.0860806274414,240.54Q244.0860806274414,241.52,245.30608062744142,241.52ZM256.5660806274414,244.28Q254.8260806274414,244.28,254.0260806274414,243.18Q253.3260806274414,242.2,253.3260806274414,240.3L253.3260806274414,229.7Q253.3260806274414,228.02,255.0060806274414,228.02L255.2060806274414,228.02Q256.8860806274414,228.02,256.8860806274414,229.7L256.8860806274414,240.42000000000002Q256.8860806274414,241.4,257.1960806274414,241.4Q257.5060806274414,241.4,257.7460806274414,241.38Q257.9860806274414,241.36,258.3060806274414,242.6Q258.60608062744143,243.86,258.10608062744143,244.07Q257.60608062744143,244.28,256.5660806274414,244.28Z" fill="#04AAEB" fill-opacity="1"/></g><g transform="matrix(0.7071067690849304,0.7071067690849304,-0.7071067690849304,0.7071067690849304,182.41242437337905,-132.38254113222092)"><path d="M254.8860806274414,177Q253.2060806274414,177,253.2060806274414,175.32L253.2060806274414,163.78Q253.2060806274414,162.1,254.8860806274414,162.1L255.4260806274414,162.1Q256.8460806274414,162.1,257.5060806274414,163.36L260.1460806274414,168.46Q260.5460806274414,169.24,260.9060806274414,170.04L261.8860806274414,172.26Q262.0060806274414,172.54,262.0560806274414,172.54Q262.10608062744143,172.54,262.0860806274414,172.44L262.0060806274414,171.68Q261.6260806274414,168.52,261.6260806274414,167.04L261.6260806274414,163.78Q261.6260806274414,162.1,263.3060806274414,162.1Q265.0260806274414,162.1,265.0260806274414,163.78L265.0260806274414,175.32Q265.0260806274414,177,263.3460806274414,177L262.8060806274414,177Q261.3860806274414,177,260.72608062744143,175.74L258.10608062744143,170.6Q257.7060806274414,169.82,257.3460806274414,169.02L256.3660806274414,166.84Q256.2460806274414,166.56,256.1960806274414,166.56Q256.1460806274414,166.56,256.16608062744143,166.66L256.2860806274414,167.94Q256.60608062744143,170.74,256.60608062744143,172.06L256.60608062744143,175.32Q256.60608062744143,177,254.8860806274414,177ZM273.1460806274414,177.28Q270.8660806274414,177.28,269.2660806274414,175.7Q267.5660806274414,174.02,267.5660806274414,171.31Q267.5660806274414,168.6,269.2660806274414,166.9Q270.8660806274414,165.34,273.1460806274414,165.34Q275.4260806274414,165.34,277.0060806274414,166.9Q278.7060806274414,168.6,278.7060806274414,171.31Q278.7060806274414,174.02,277.0060806274414,175.7Q275.4260806274414,177.28,273.1460806274414,177.28ZM273.1360806274414,174.4Q275.0660806274414,174.4,275.0660806274414,171.3Q275.0660806274414,169.84,274.60608062744143,169.06Q274.10608062744143,168.22,273.1460806274414,168.22Q271.2060806274414,168.22,271.2060806274414,171.31Q271.2060806274414,174.4,273.1360806274414,174.4ZM290.4260806274414,177.28Q288.9260806274414,177.28,287.5060806274414,176.74Q285.9860806274414,176.18,285.3960806274414,175.63Q284.8060806274414,175.07999999999998,285.8660806274414,173.88Q286.9260806274414,172.7,287.3160806274414,173.03Q287.7060806274414,173.36,288.6760806274414,173.78Q289.6460806274414,174.2,290.5060806274414,174.2Q292.4460806274414,174.2,292.4460806274414,172.9Q292.4460806274414,172.36,292.1960806274414,172.18Q291.9460806274414,172,291.7860806274414,171.88Q291.6260806274414,171.76,290.60608062744143,171.32L289.2060806274414,170.74Q288.4460806274414,170.42000000000002,287.6660806274414,170.12Q287.1260806274414,169.9,286.34608062744144,168.96Q285.4260806274414,167.84,285.4260806274414,166.34Q285.4260806274414,164.44,286.9560806274414,163.14Q288.4860806274414,161.84,290.8260806274414,161.84Q292.1460806274414,161.84,293.4260806274414,162.34Q294.7060806274414,162.84,295.2460806274414,163.38Q295.7860806274414,163.92,294.84608062744144,164.98Q293.9060806274414,166.06,292.60608062744143,165.06Q292.3860806274414,164.9,290.8260806274414,164.9Q290.0060806274414,164.9,289.5360806274414,165.22Q289.0660806274414,165.54,289.0660806274414,166.1Q289.0660806274414,166.66,289.35608062744143,166.85Q289.6460806274414,167.04,290.34608062744144,167.34L292.4060806274414,168.22Q293.1660806274414,168.54,293.9460806274414,168.84Q296.10608062744143,169.72,296.10608062744143,172.62Q296.10608062744143,174.56,294.6260806274414,175.88Q293.0260806274414,177.28,290.4260806274414,177.28ZM299.9860806274414,177Q298.3060806274414,177,298.3060806274414,175.32L298.3060806274414,167.3Q298.3060806274414,165.62,299.9860806274414,165.62L300.1860806274414,165.62Q301.8660806274414,165.62,301.8660806274414,167.3L301.8660806274414,175.32Q301.8660806274414,177,300.1860806274414,177L299.9860806274414,177ZM300.0760806274414,164.04Q299.1860806274414,164.04,298.6460806274414,163.54Q298.10608062744143,163.04,298.10608062744143,162.21Q298.10608062744143,161.38,298.6460806274414,160.88Q299.1860806274414,160.38,300.0760806274414,160.38Q300.9660806274414,160.38,301.5160806274414,160.88Q302.0660806274414,161.38,302.0660806274414,162.21Q302.0660806274414,163.04,301.5160806274414,163.54Q300.9660806274414,164.04,300.0760806274414,164.04ZM308.8060806274414,181.78Q306.6860806274414,181.78,305.4460806274414,181.12Q304.0460806274414,180.36,304.0460806274414,178.93Q304.0460806274414,177.5,305.3660806274414,176.82Q305.6460806274414,176.68,305.6460806274414,176.63Q305.6460806274414,176.57999999999998,305.3260806274414,176.36Q304.60608062744143,175.88,304.60608062744143,174.62Q304.60608062744143,174.04,304.9560806274414,173.47Q305.3060806274414,172.9,305.5660806274414,172.72Q305.8860806274414,172.5,305.8860806274414,172.46Q305.8860806274414,172.42000000000002,305.5660806274414,172.2Q305.22608062744143,171.96,304.8060806274414,171.24Q304.3260806274414,170.4,304.3260806274414,169.46Q304.3260806274414,167.5,305.7860806274414,166.36Q307.10608062744143,165.34,309.0860806274414,165.34Q310.0860806274414,165.34,310.2460806274414,165.4Q310.8860806274414,165.62,311.5660806274414,165.62L313.3860806274414,165.62Q315.0660806274414,165.62,315.0660806274414,166.9Q315.0660806274414,168.2,313.4260806274414,168.2Q313.3260806274414,168.2,313.3660806274414,168.28Q313.6260806274414,168.8,313.6260806274414,169.58Q313.6260806274414,171.48,312.3060806274414,172.48Q311.10608062744143,173.4,309.0860806274414,173.4Q308.4660806274414,173.4,308.0660806274414,173.3Q307.7460806274414,173.2,307.5060806274414,173.44Q307.3860806274414,173.56,307.3860806274414,173.98Q307.3860806274414,174.4,307.7760806274414,174.57999999999998Q308.1660806274414,174.76,309.0660806274414,174.76L310.8660806274414,174.76Q315.2660806274414,174.76,315.2660806274414,177.68Q315.2660806274414,179.5,313.5060806274414,180.64Q311.7460806274414,181.78,308.8060806274414,181.78ZM309.35608062744143,179.56Q310.4460806274414,179.56,311.1460806274414,179.2Q311.84608062744144,178.84,311.84608062744144,178.32999999999998Q311.84608062744144,177.82,311.6260806274414,177.73Q311.4060806274414,177.64,311.22608062744143,177.56Q311.0460806274414,177.48,310.1860806274414,177.48L309.10608062744143,177.48Q307.9860806274414,177.48,307.84608062744144,177.44Q307.4860806274414,177.34,307.2060806274414,177.57999999999998Q306.9660806274414,177.8,306.9660806274414,178.37Q306.9660806274414,178.94,307.6160806274414,179.25Q308.2660806274414,179.56,309.35608062744143,179.56ZM308.0460806274414,170.79Q308.4460806274414,171.26,309.09608062744144,171.26Q309.7460806274414,171.26,310.1460806274414,170.8Q310.5460806274414,170.34,310.5460806274414,169.48Q310.5460806274414,168.62,310.1460806274414,168.17Q309.7460806274414,167.72,309.09608062744144,167.72Q308.4460806274414,167.72,308.0460806274414,168.18Q307.6460806274414,168.64,307.6460806274414,169.48Q307.6460806274414,170.32,308.0460806274414,170.79ZM318.72608062744143,177Q317.0460806274414,177,317.0460806274414,175.32L317.0460806274414,167.26Q317.0460806274414,165.62,318.4660806274414,165.5Q319.9060806274414,165.36,320.1860806274414,166.94Q320.2060806274414,167.04,320.2360806274414,167.04Q320.2660806274414,167.04,320.60608062744143,166.7Q322.0060806274414,165.34,323.9060806274414,165.34Q327.4460806274414,165.34,327.4460806274414,169.96L327.4460806274414,175.32Q327.4460806274414,177,325.7660806274414,177L325.5660806274414,177Q323.8860806274414,177,323.8860806274414,175.32L323.8860806274414,170.4Q323.8860806274414,169.26,323.5760806274414,168.82Q323.2660806274414,168.38,322.5660806274414,168.38Q322.0060806274414,168.38,321.5460806274414,168.64Q321.1660806274414,168.86,320.9460806274414,169.08Q320.60608062744143,169.4,320.60608062744143,169.86L320.60608062744143,175.32Q320.60608062744143,177,318.9260806274414,177L318.72608062744143,177ZM333.0860806274414,177.28Q331.5460806274414,177.28,330.60608062744143,176.26Q329.7060806274414,175.3,329.7060806274414,173.82Q329.7060806274414,172,331.2060806274414,171Q332.7060806274414,170,335.9060806274414,169.66Q336.0260806274414,169.64,336.0260806274414,169.52Q335.9060806274414,168.18,334.3060806274414,168.18Q333.10608062744143,168.18,332.8060806274414,168.34Q331.34608062744144,169.16,330.6860806274414,168.02Q330.0260806274414,166.88,331.4660806274414,166.02Q332.5860806274414,165.34,334.9860806274414,165.34Q339.5860806274414,165.34,339.5860806274414,170.54L339.5860806274414,175.38Q339.5860806274414,177,338.1660806274414,177.14Q336.7460806274414,177.3,336.4660806274414,175.96Q336.4460806274414,175.86,336.3960806274414,175.86Q336.34608062744144,175.86,335.9860806274414,176.2Q334.7660806274414,177.28,333.0860806274414,177.28ZM334.3060806274414,174.52Q335.1860806274414,174.52,335.6860806274414,173.98Q336.0260806274414,173.62,336.0260806274414,173.14L336.0260806274414,171.9Q336.0260806274414,171.8,335.9260806274414,171.82Q333.0860806274414,172.18,333.0860806274414,173.54Q333.0860806274414,174.52,334.3060806274414,174.52ZM345.5660806274414,177.28Q343.8260806274414,177.28,343.0260806274414,176.18Q342.3260806274414,175.2,342.3260806274414,173.3L342.3260806274414,162.7Q342.3260806274414,161.02,344.0060806274414,161.02L344.2060806274414,161.02Q345.8860806274414,161.02,345.8860806274414,162.7L345.8860806274414,173.42000000000002Q345.8860806274414,174.4,346.1960806274414,174.4Q346.5060806274414,174.4,346.7460806274414,174.38Q346.9860806274414,174.36,347.3060806274414,175.6Q347.60608062744143,176.86,347.10608062744143,177.07Q346.60608062744143,177.28,345.5660806274414,177.28Z" fill="#04AAEB" fill-opacity="1"/></g></g></g></g></svg>