<svg xmlns="http://www.w3.org/2000/svg" xmlns:xlink="http://www.w3.org/1999/xlink" fill="none" version="1.1" width="320" height="180" viewBox="0 0 320 180"><defs><clipPath id="master_svg0_214_1625"><rect x="0" y="0" width="320" height="180" rx="15"/></clipPath></defs><g clip-path="url(#master_svg0_214_1625)"><g transform="matrix(1,-5.400848479553133e-8,5.400848479553133e-8,1,0.000004698738177211226,-9.451484856981551e-7)"><g transform="matrix(0.7071067690849304,0.7071067690849304,-0.7071067690849304,0.7071067690849304,33.65759077783423,-79.25660750154657)"><path d="M119.75998474121094,47Q116.39998474121094,47,116.39998474121094,43.64L116.39998474121094,20.56Q116.39998474121094,17.2,119.75998474121094,17.2L120.83998474121094,17.2Q123.67998474121094,17.2,124.99998474121094,19.72L130.27998474121094,29.92Q131.07998474121092,31.48,131.79998474121095,33.08L133.75998474121093,37.52Q133.99998474121094,38.08,134.09998474121093,38.08Q134.19998474121093,38.08,134.15998474121093,37.88L133.99998474121094,36.36Q133.23998474121095,30.04,133.23998474121095,27.08L133.23998474121095,20.56Q133.23998474121095,17.2,136.59998474121093,17.2Q140.03998474121093,17.2,140.03998474121093,20.56L140.03998474121093,43.64Q140.03998474121093,47,136.67998474121094,47L135.59998474121093,47Q132.75998474121093,47,131.43998474121094,44.48L126.19998474121094,34.2Q125.39998474121094,32.64,124.67998474121094,31.04L122.71998474121094,26.68Q122.47998474121094,26.12,122.37998474121093,26.12Q122.27998474121094,26.12,122.31998474121093,26.32L122.55998474121094,28.88Q123.19998474121094,34.48,123.19998474121094,37.12L123.19998474121094,43.64Q123.19998474121094,47,119.75998474121094,47ZM156.27998474121094,47.56Q151.71998474121094,47.56,148.51998474121095,44.4Q145.11998474121094,41.04,145.11998474121094,35.62Q145.11998474121094,30.2,148.51998474121095,26.8Q151.71998474121094,23.68,156.27998474121094,23.68Q160.83998474121094,23.68,163.99998474121094,26.8Q167.39998474121094,30.2,167.39998474121094,35.62Q167.39998474121094,41.04,163.99998474121094,44.4Q160.83998474121094,47.56,156.27998474121094,47.56ZM156.25998474121093,41.8Q160.11998474121094,41.8,160.11998474121094,35.6Q160.11998474121094,32.68,159.19998474121093,31.12Q158.19998474121093,29.44,156.27998474121094,29.44Q152.39998474121094,29.44,152.39998474121094,35.62Q152.39998474121094,41.8,156.25998474121093,41.8ZM190.83998474121094,47.56Q187.83998474121094,47.56,184.99998474121094,46.48Q181.95998474121092,45.36,180.77998474121094,44.26Q179.59998474121093,43.16,181.71998474121094,40.76Q183.83998474121094,38.4,184.61998474121094,39.06Q185.39998474121094,39.72,187.33998474121094,40.56Q189.27998474121094,41.4,190.99998474121094,41.4Q194.87998474121093,41.4,194.87998474121093,38.8Q194.87998474121093,37.72,194.37998474121093,37.36Q193.87998474121093,37,193.55998474121094,36.76Q193.23998474121095,36.52,191.19998474121093,35.64L188.39998474121094,34.48Q186.87998474121093,33.84,185.31998474121093,33.24Q184.23998474121095,32.8,182.67998474121094,30.92Q180.83998474121094,28.68,180.83998474121094,25.68Q180.83998474121094,21.88,183.89998474121094,19.28Q186.95998474121092,16.68,191.63998474121092,16.68Q194.27998474121094,16.68,196.83998474121094,17.68Q199.39998474121094,18.68,200.47998474121096,19.76Q201.55998474121094,20.84,199.67998474121094,22.96Q197.79998474121095,25.12,195.19998474121093,23.12Q194.75998474121093,22.8,191.63998474121092,22.8Q189.99998474121094,22.8,189.05998474121094,23.44Q188.11998474121094,24.08,188.11998474121094,25.2Q188.11998474121094,26.32,188.69998474121093,26.7Q189.27998474121094,27.08,190.67998474121094,27.68L194.79998474121095,29.44Q196.31998474121093,30.08,197.87998474121093,30.68Q202.19998474121093,32.44,202.19998474121093,38.24Q202.19998474121093,42.12,199.23998474121095,44.76Q196.03998474121096,47.56,190.83998474121094,47.56ZM209.95998474121092,47Q206.59998474121093,47,206.59998474121093,43.64L206.59998474121093,27.6Q206.59998474121093,24.24,209.95998474121092,24.24L210.35998474121095,24.24Q213.71998474121094,24.24,213.71998474121094,27.6L213.71998474121094,43.64Q213.71998474121094,47,210.35998474121095,47L209.95998474121092,47ZM210.13998474121092,21.08Q208.35998474121095,21.08,207.27998474121094,20.08Q206.19998474121093,19.08,206.19998474121093,17.42Q206.19998474121093,15.76,207.27998474121094,14.76Q208.35998474121095,13.76,210.13998474121092,13.76Q211.91998474121095,13.76,213.01998474121092,14.76Q214.11998474121094,15.76,214.11998474121094,17.42Q214.11998474121094,19.08,213.01998474121092,20.08Q211.91998474121095,21.08,210.13998474121092,21.08ZM227.59998474121093,56.56Q223.35998474121095,56.56,220.87998474121093,55.24Q218.07998474121092,53.72,218.07998474121092,50.86Q218.07998474121092,48,220.71998474121094,46.64Q221.27998474121094,46.36,221.27998474121094,46.26Q221.27998474121094,46.16,220.63998474121092,45.72Q219.19998474121093,44.76,219.19998474121093,42.24Q219.19998474121093,41.08,219.89998474121094,39.94Q220.59998474121093,38.8,221.11998474121094,38.44Q221.75998474121093,38,221.75998474121093,37.92Q221.75998474121093,37.84,221.11998474121094,37.4Q220.43998474121094,36.92,219.59998474121093,35.48Q218.63998474121092,33.8,218.63998474121092,31.92Q218.63998474121092,28,221.55998474121094,25.72Q224.19998474121093,23.68,228.15998474121093,23.68Q230.15998474121093,23.68,230.47998474121096,23.8Q231.75998474121093,24.24,233.11998474121094,24.24L236.75998474121093,24.24Q240.11998474121094,24.24,240.11998474121094,26.8Q240.11998474121094,29.4,236.83998474121094,29.4Q236.63998474121092,29.4,236.71998474121094,29.56Q237.23998474121095,30.6,237.23998474121095,32.16Q237.23998474121095,35.96,234.59998474121093,37.96Q232.19998474121093,39.8,228.15998474121093,39.8Q226.91998474121095,39.8,226.11998474121094,39.6Q225.47998474121096,39.4,224.99998474121094,39.88Q224.75998474121093,40.12,224.75998474121093,40.96Q224.75998474121093,41.8,225.53998474121096,42.16Q226.31998474121093,42.52,228.11998474121094,42.52L231.71998474121094,42.52Q240.51998474121095,42.52,240.51998474121095,48.36Q240.51998474121095,52,236.99998474121094,54.28Q233.47998474121096,56.56,227.59998474121093,56.56ZM228.69998474121093,52.12Q230.87998474121093,52.12,232.27998474121094,51.4Q233.67998474121094,50.68,233.67998474121094,49.66Q233.67998474121094,48.64,233.23998474121095,48.46Q232.79998474121095,48.28,232.43998474121094,48.12Q232.07998474121092,47.96,230.35998474121095,47.96L228.19998474121093,47.96Q225.95998474121092,47.96,225.67998474121094,47.88Q224.95998474121092,47.68,224.39998474121094,48.16Q223.91998474121095,48.6,223.91998474121095,49.74Q223.91998474121095,50.88,225.21998474121094,51.5Q226.51998474121092,52.12,228.69998474121093,52.12ZM226.07998474121092,34.58Q226.87998474121093,35.52,228.17998474121094,35.52Q229.47998474121096,35.52,230.27998474121094,34.6Q231.07998474121092,33.68,231.07998474121092,31.96Q231.07998474121092,30.24,230.27998474121094,29.34Q229.47998474121096,28.44,228.17998474121094,28.44Q226.87998474121093,28.44,226.07998474121092,29.36Q225.27998474121094,30.28,225.27998474121094,31.96Q225.27998474121094,33.64,226.07998474121092,34.58ZM247.43998474121094,47Q244.07998474121095,47,244.07998474121095,43.64L244.07998474121095,27.52Q244.07998474121095,24.24,246.91998474121092,24Q249.79998474121095,23.72,250.35998474121095,26.88Q250.39998474121094,27.08,250.45998474121095,27.08Q250.51998474121095,27.08,251.19998474121093,26.4Q253.99998474121094,23.68,257.79998474121095,23.68Q264.87998474121093,23.68,264.87998474121093,32.92L264.87998474121093,43.64Q264.87998474121093,47,261.5199847412109,47L261.11998474121094,47Q257.7599847412109,47,257.7599847412109,43.64L257.7599847412109,33.8Q257.7599847412109,31.52,257.1399847412109,30.64Q256.5199847412109,29.76,255.11998474121094,29.76Q253.99998474121094,29.76,253.07998474121095,30.28Q252.31998474121093,30.72,251.87998474121093,31.16Q251.19998474121093,31.8,251.19998474121093,32.72L251.19998474121093,43.64Q251.19998474121093,47,247.83998474121094,47L247.43998474121094,47ZM276.1599847412109,47.56Q273.079984741211,47.56,271.1999847412109,45.52Q269.3999847412109,43.6,269.3999847412109,40.64Q269.3999847412109,37,272.3999847412109,35Q275.3999847412109,33,281.79998474121095,32.32Q282.0399847412109,32.28,282.0399847412109,32.04Q281.79998474121095,29.36,278.59998474121096,29.36Q276.1999847412109,29.36,275.59998474121096,29.68Q272.67998474121094,31.32,271.35998474121095,29.04Q270.0399847412109,26.76,272.9199847412109,25.04Q275.1599847412109,23.68,279.959984741211,23.68Q289.1599847412109,23.68,289.1599847412109,34.08L289.1599847412109,43.76Q289.1599847412109,47,286.31998474121093,47.28Q283.47998474121096,47.6,282.9199847412109,44.92Q282.87998474121093,44.72,282.7799847412109,44.72Q282.67998474121094,44.72,281.959984741211,45.4Q279.5199847412109,47.56,276.1599847412109,47.56ZM278.59998474121096,42.04Q280.35998474121095,42.04,281.35998474121095,40.96Q282.0399847412109,40.24,282.0399847412109,39.28L282.0399847412109,36.8Q282.0399847412109,36.6,281.83998474121097,36.64Q276.1599847412109,37.36,276.1599847412109,40.08Q276.1599847412109,42.04,278.59998474121096,42.04ZM301.11998474121094,47.56Q297.6399847412109,47.56,296.0399847412109,45.36Q294.6399847412109,43.4,294.6399847412109,39.6L294.6399847412109,18.4Q294.6399847412109,15.04,297.99998474121094,15.04L298.3999847412109,15.04Q301.7599847412109,15.04,301.7599847412109,18.4L301.7599847412109,39.84Q301.7599847412109,41.8,302.37998474121093,41.8Q302.99998474121094,41.8,303.47998474121096,41.76Q303.959984741211,41.72,304.59998474121096,44.2Q305.1999847412109,46.72,304.1999847412109,47.14Q303.1999847412109,47.56,301.11998474121094,47.56Z" fill="#3D3D3D" fill-opacity="1"/></g><g transform="matrix(0.7071067690849304,0.7071067690849304,-0.7071067690849304,0.7071067690849304,-2.496731993375761,-167.9723459450588)"><path d="M208.77219177246093,-41Q205.41219177246094,-41,205.41219177246094,-44.36L205.41219177246094,-67.44Q205.41219177246094,-70.8,208.77219177246093,-70.8L209.85219177246094,-70.8Q212.69219177246094,-70.8,214.01219177246094,-68.28L219.29219177246094,-58.08Q220.09219177246092,-56.519999999999996,220.81219177246095,-54.92L222.77219177246093,-50.48Q223.01219177246094,-49.92,223.11219177246093,-49.92Q223.21219177246093,-49.92,223.17219177246093,-50.12L223.01219177246094,-51.64Q222.25219177246095,-57.96,222.25219177246095,-60.92L222.25219177246095,-67.44Q222.25219177246095,-70.8,225.61219177246093,-70.8Q229.05219177246093,-70.8,229.05219177246093,-67.44L229.05219177246093,-44.36Q229.05219177246093,-41,225.69219177246094,-41L224.61219177246093,-41Q221.77219177246093,-41,220.45219177246094,-43.52L215.21219177246093,-53.8Q214.41219177246094,-55.36,213.69219177246094,-56.96L211.73219177246094,-61.32Q211.49219177246093,-61.879999999999995,211.39219177246093,-61.879999999999995Q211.29219177246094,-61.879999999999995,211.33219177246093,-61.68L211.57219177246094,-59.120000000000005Q212.21219177246093,-53.52,212.21219177246093,-50.88L212.21219177246093,-44.36Q212.21219177246093,-41,208.77219177246093,-41ZM245.29219177246094,-40.44Q240.73219177246094,-40.44,237.53219177246095,-43.6Q234.13219177246094,-46.96,234.13219177246094,-52.38Q234.13219177246094,-57.8,237.53219177246095,-61.2Q240.73219177246094,-64.32,245.29219177246094,-64.32Q249.85219177246094,-64.32,253.01219177246094,-61.2Q256.4121917724609,-57.8,256.4121917724609,-52.38Q256.4121917724609,-46.96,253.01219177246094,-43.6Q249.85219177246094,-40.44,245.29219177246094,-40.44ZM245.27219177246093,-46.2Q249.13219177246094,-46.2,249.13219177246094,-52.4Q249.13219177246094,-55.32,248.21219177246093,-56.879999999999995Q247.21219177246093,-58.56,245.29219177246094,-58.56Q241.41219177246094,-58.56,241.41219177246094,-52.38Q241.41219177246094,-46.2,245.27219177246093,-46.2ZM279.85219177246097,-40.44Q276.85219177246097,-40.44,274.01219177246094,-41.52Q270.9721917724609,-42.64,269.7921917724609,-43.74Q268.61219177246096,-44.84,270.73219177246096,-47.24Q272.85219177246097,-49.6,273.63219177246094,-48.94Q274.4121917724609,-48.28,276.35219177246097,-47.44Q278.2921917724609,-46.6,280.01219177246094,-46.6Q283.89219177246093,-46.6,283.89219177246093,-49.2Q283.89219177246093,-50.28,283.39219177246093,-50.64Q282.89219177246093,-51,282.57219177246094,-51.24Q282.25219177246095,-51.48,280.2121917724609,-52.36L277.4121917724609,-53.52Q275.89219177246093,-54.16,274.33219177246093,-54.76Q273.25219177246095,-55.2,271.69219177246094,-57.08Q269.85219177246097,-59.32,269.85219177246097,-62.32Q269.85219177246097,-66.12,272.9121917724609,-68.72Q275.9721917724609,-71.32,280.6521917724609,-71.32Q283.2921917724609,-71.32,285.85219177246097,-70.32Q288.4121917724609,-69.32,289.49219177246096,-68.24Q290.57219177246094,-67.16,288.69219177246094,-65.03999999999999Q286.81219177246095,-62.879999999999995,284.2121917724609,-64.88Q283.7721917724609,-65.2,280.6521917724609,-65.2Q279.01219177246094,-65.2,278.07219177246094,-64.56Q277.13219177246094,-63.92,277.13219177246094,-62.8Q277.13219177246094,-61.68,277.7121917724609,-61.3Q278.2921917724609,-60.92,279.69219177246094,-60.32L283.81219177246095,-58.56Q285.33219177246093,-57.92,286.89219177246093,-57.32Q291.2121917724609,-55.56,291.2121917724609,-49.76Q291.2121917724609,-45.88,288.25219177246095,-43.24Q285.05219177246096,-40.44,279.85219177246097,-40.44ZM298.9721917724609,-41Q295.61219177246096,-41,295.61219177246096,-44.36L295.61219177246096,-60.4Q295.61219177246096,-63.760000000000005,298.9721917724609,-63.760000000000005L299.37219177246095,-63.760000000000005Q302.73219177246096,-63.760000000000005,302.73219177246096,-60.4L302.73219177246096,-44.36Q302.73219177246096,-41,299.37219177246095,-41L298.9721917724609,-41ZM299.1521917724609,-66.92Q297.37219177246095,-66.92,296.2921917724609,-67.92Q295.2121917724609,-68.92,295.2121917724609,-70.58Q295.2121917724609,-72.24,296.2921917724609,-73.24Q297.37219177246095,-74.24,299.1521917724609,-74.24Q300.93219177246095,-74.24,302.0321917724609,-73.24Q303.13219177246094,-72.24,303.13219177246094,-70.58Q303.13219177246094,-68.92,302.0321917724609,-67.92Q300.93219177246095,-66.92,299.1521917724609,-66.92ZM316.61219177246096,-31.439999999999998Q312.37219177246095,-31.439999999999998,309.89219177246093,-32.76Q307.0921917724609,-34.28,307.0921917724609,-37.14Q307.0921917724609,-40,309.73219177246096,-41.36Q310.2921917724609,-41.64,310.2921917724609,-41.74Q310.2921917724609,-41.84,309.6521917724609,-42.28Q308.2121917724609,-43.24,308.2121917724609,-45.76Q308.2121917724609,-46.92,308.9121917724609,-48.06Q309.61219177246096,-49.2,310.13219177246094,-49.56Q310.7721917724609,-50,310.7721917724609,-50.08Q310.7721917724609,-50.16,310.13219177246094,-50.6Q309.45219177246094,-51.08,308.61219177246096,-52.52Q307.6521917724609,-54.2,307.6521917724609,-56.08Q307.6521917724609,-60,310.57219177246094,-62.28Q313.2121917724609,-64.32,317.1721917724609,-64.32Q319.1721917724609,-64.32,319.49219177246096,-64.2Q320.7721917724609,-63.760000000000005,322.13219177246094,-63.760000000000005L325.7721917724609,-63.760000000000005Q329.13219177246094,-63.760000000000005,329.13219177246094,-61.2Q329.13219177246094,-58.6,325.85219177246097,-58.6Q325.6521917724609,-58.6,325.73219177246096,-58.44Q326.25219177246095,-57.4,326.25219177246095,-55.84Q326.25219177246095,-52.04,323.61219177246096,-50.04Q321.2121917724609,-48.2,317.1721917724609,-48.2Q315.93219177246095,-48.2,315.13219177246094,-48.4Q314.49219177246096,-48.6,314.01219177246094,-48.12Q313.7721917724609,-47.88,313.7721917724609,-47.04Q313.7721917724609,-46.2,314.55219177246096,-45.84Q315.33219177246093,-45.48,317.13219177246094,-45.48L320.73219177246096,-45.48Q329.5321917724609,-45.48,329.5321917724609,-39.64Q329.5321917724609,-36,326.01219177246094,-33.72Q322.49219177246096,-31.439999999999998,316.61219177246096,-31.439999999999998ZM317.7121917724609,-35.88Q319.89219177246093,-35.88,321.2921917724609,-36.6Q322.69219177246094,-37.32,322.69219177246094,-38.34Q322.69219177246094,-39.36,322.25219177246095,-39.54Q321.81219177246095,-39.72,321.45219177246094,-39.88Q321.0921917724609,-40.04,319.37219177246095,-40.04L317.2121917724609,-40.04Q314.9721917724609,-40.04,314.69219177246094,-40.12Q313.9721917724609,-40.32,313.4121917724609,-39.84Q312.93219177246095,-39.4,312.93219177246095,-38.26Q312.93219177246095,-37.12,314.23219177246096,-36.5Q315.5321917724609,-35.88,317.7121917724609,-35.88ZM315.0921917724609,-53.42Q315.89219177246093,-52.48,317.19219177246094,-52.48Q318.49219177246096,-52.48,319.2921917724609,-53.4Q320.0921917724609,-54.32,320.0921917724609,-56.04Q320.0921917724609,-57.760000000000005,319.2921917724609,-58.66Q318.49219177246096,-59.56,317.19219177246094,-59.56Q315.89219177246093,-59.56,315.0921917724609,-58.64Q314.2921917724609,-57.72,314.2921917724609,-56.04Q314.2921917724609,-54.36,315.0921917724609,-53.42ZM336.45219177246094,-41Q333.092191772461,-41,333.092191772461,-44.36L333.092191772461,-60.480000000000004Q333.092191772461,-63.760000000000005,335.9321917724609,-64Q338.81219177246095,-64.28,339.37219177246095,-61.120000000000005Q339.4121917724609,-60.92,339.472191772461,-60.92Q339.5321917724609,-60.92,340.2121917724609,-61.6Q343.01219177246094,-64.32,346.81219177246095,-64.32Q353.89219177246093,-64.32,353.89219177246093,-55.08L353.89219177246093,-44.36Q353.89219177246093,-41,350.5321917724609,-41L350.13219177246094,-41Q346.7721917724609,-41,346.7721917724609,-44.36L346.7721917724609,-54.2Q346.7721917724609,-56.480000000000004,346.1521917724609,-57.36Q345.5321917724609,-58.239999999999995,344.13219177246094,-58.239999999999995Q343.01219177246094,-58.239999999999995,342.092191772461,-57.72Q341.33219177246093,-57.28,340.89219177246093,-56.84Q340.2121917724609,-56.2,340.2121917724609,-55.28L340.2121917724609,-44.36Q340.2121917724609,-41,336.85219177246097,-41L336.45219177246094,-41ZM365.1721917724609,-40.44Q362.092191772461,-40.44,360.2121917724609,-42.48Q358.4121917724609,-44.4,358.4121917724609,-47.36Q358.4121917724609,-51,361.4121917724609,-53Q364.4121917724609,-55,370.81219177246095,-55.68Q371.0521917724609,-55.72,371.0521917724609,-55.96Q370.81219177246095,-58.64,367.61219177246096,-58.64Q365.2121917724609,-58.64,364.61219177246096,-58.32Q361.69219177246094,-56.68,360.37219177246095,-58.96Q359.0521917724609,-61.239999999999995,361.9321917724609,-62.96Q364.1721917724609,-64.32,368.972191772461,-64.32Q378.1721917724609,-64.32,378.1721917724609,-53.92L378.1721917724609,-44.24Q378.1721917724609,-41,375.33219177246093,-40.72Q372.49219177246096,-40.4,371.9321917724609,-43.08Q371.89219177246093,-43.28,371.7921917724609,-43.28Q371.69219177246094,-43.28,370.972191772461,-42.6Q368.5321917724609,-40.44,365.1721917724609,-40.44ZM367.61219177246096,-45.96Q369.37219177246095,-45.96,370.37219177246095,-47.04Q371.0521917724609,-47.76,371.0521917724609,-48.72L371.0521917724609,-51.2Q371.0521917724609,-51.4,370.85219177246097,-51.36Q365.1721917724609,-50.64,365.1721917724609,-47.92Q365.1721917724609,-45.96,367.61219177246096,-45.96ZM390.13219177246094,-40.44Q386.6521917724609,-40.44,385.0521917724609,-42.64Q383.6521917724609,-44.6,383.6521917724609,-48.4L383.6521917724609,-69.6Q383.6521917724609,-72.96000000000001,387.01219177246094,-72.96000000000001L387.4121917724609,-72.96000000000001Q390.7721917724609,-72.96000000000001,390.7721917724609,-69.6L390.7721917724609,-48.16Q390.7721917724609,-46.2,391.39219177246093,-46.2Q392.01219177246094,-46.2,392.49219177246096,-46.24Q392.972191772461,-46.28,393.61219177246096,-43.8Q394.2121917724609,-41.28,393.2121917724609,-40.86Q392.2121917724609,-40.44,390.13219177246094,-40.44Z" fill="#3D3D3D" fill-opacity="1"/></g><g transform="matrix(0.7071067690849304,0.7071067690849304,-0.7071067690849304,0.7071067690849304,70.52617103177454,9.734760824026125)"><path d="M30.772191772460936,136Q27.412191772460936,136,27.412191772460936,132.64L27.412191772460936,109.56Q27.412191772460936,106.2,30.772191772460936,106.2L31.852191772460937,106.2Q34.69219177246094,106.2,36.01219177246094,108.72L41.29219177246094,118.92Q42.092191772460936,120.48,42.812191772460935,122.08L44.77219177246094,126.52000000000001Q45.01219177246094,127.08,45.11219177246094,127.08Q45.21219177246094,127.08,45.172191772460934,126.88L45.01219177246094,125.36Q44.25219177246093,119.03999999999999,44.25219177246093,116.08L44.25219177246093,109.56Q44.25219177246093,106.2,47.61219177246094,106.2Q51.05219177246094,106.2,51.05219177246094,109.56L51.05219177246094,132.64Q51.05219177246094,136,47.69219177246094,136L46.61219177246094,136Q43.77219177246094,136,42.452191772460935,133.48L37.21219177246094,123.2Q36.412191772460936,121.64,35.69219177246094,120.03999999999999L33.732191772460936,115.68Q33.49219177246094,115.12,33.39219177246094,115.12Q33.29219177246094,115.12,33.33219177246094,115.32L33.57219177246094,117.88Q34.21219177246094,123.47999999999999,34.21219177246094,126.12L34.21219177246094,132.64Q34.21219177246094,136,30.772191772460936,136ZM67.29219177246094,136.56Q62.732191772460936,136.56,59.53219177246094,133.4Q56.132191772460935,130.04,56.132191772460935,124.62Q56.132191772460935,119.2,59.53219177246094,115.8Q62.732191772460936,112.68,67.29219177246094,112.68Q71.85219177246094,112.68,75.01219177246094,115.8Q78.41219177246094,119.2,78.41219177246094,124.62Q78.41219177246094,130.04,75.01219177246094,133.4Q71.85219177246094,136.56,67.29219177246094,136.56ZM67.27219177246093,130.8Q71.13219177246094,130.8,71.13219177246094,124.6Q71.13219177246094,121.68,70.21219177246094,120.12Q69.21219177246094,118.44,67.29219177246094,118.44Q63.412191772460936,118.44,63.412191772460936,124.62Q63.412191772460936,130.8,67.27219177246093,130.8ZM101.85219177246094,136.56Q98.85219177246094,136.56,96.01219177246094,135.48Q92.97219177246093,134.36,91.79219177246094,133.26Q90.61219177246093,132.16,92.73219177246094,129.76Q94.85219177246094,127.4,95.63219177246094,128.06Q96.41219177246094,128.72,98.35219177246094,129.56Q100.29219177246094,130.4,102.01219177246094,130.4Q105.89219177246093,130.4,105.89219177246093,127.8Q105.89219177246093,126.72,105.39219177246093,126.36Q104.89219177246093,126,104.57219177246094,125.75999999999999Q104.25219177246093,125.52000000000001,102.21219177246094,124.64L99.41219177246094,123.47999999999999Q97.89219177246093,122.84,96.33219177246093,122.24000000000001Q95.25219177246093,121.8,93.69219177246094,119.92Q91.85219177246094,117.68,91.85219177246094,114.68Q91.85219177246094,110.88,94.91219177246094,108.28Q97.97219177246093,105.68,102.65219177246094,105.68Q105.29219177246094,105.68,107.85219177246094,106.68Q110.41219177246094,107.68,111.49219177246094,108.76Q112.57219177246094,109.84,110.69219177246094,111.96000000000001Q108.81219177246093,114.12,106.21219177246094,112.12Q105.77219177246094,111.8,102.65219177246094,111.8Q101.01219177246094,111.8,100.07219177246094,112.44Q99.13219177246094,113.08,99.13219177246094,114.2Q99.13219177246094,115.32,99.71219177246094,115.7Q100.29219177246094,116.08,101.69219177246094,116.68L105.81219177246093,118.44Q107.33219177246093,119.08,108.89219177246093,119.68Q113.21219177246094,121.44,113.21219177246094,127.24000000000001Q113.21219177246094,131.12,110.25219177246093,133.76Q107.05219177246094,136.56,101.85219177246094,136.56ZM120.97219177246093,136Q117.61219177246093,136,117.61219177246093,132.64L117.61219177246093,116.6Q117.61219177246093,113.24,120.97219177246093,113.24L121.37219177246094,113.24Q124.73219177246094,113.24,124.73219177246094,116.6L124.73219177246094,132.64Q124.73219177246094,136,121.37219177246094,136L120.97219177246093,136ZM121.15219177246094,110.08Q119.37219177246094,110.08,118.29219177246094,109.08Q117.21219177246094,108.08,117.21219177246094,106.42Q117.21219177246094,104.76,118.29219177246094,103.76Q119.37219177246094,102.76,121.15219177246094,102.76Q122.93219177246094,102.76,124.03219177246093,103.76Q125.13219177246094,104.76,125.13219177246094,106.42Q125.13219177246094,108.08,124.03219177246093,109.08Q122.93219177246094,110.08,121.15219177246094,110.08ZM138.61219177246093,145.56Q134.37219177246095,145.56,131.89219177246093,144.24Q129.09219177246092,142.72,129.09219177246092,139.86Q129.09219177246092,137,131.73219177246094,135.64Q132.29219177246094,135.36,132.29219177246094,135.26Q132.29219177246094,135.16,131.65219177246092,134.72Q130.21219177246093,133.76,130.21219177246093,131.24Q130.21219177246093,130.07999999999998,130.91219177246094,128.94Q131.61219177246093,127.8,132.13219177246094,127.44Q132.77219177246093,127,132.77219177246093,126.92Q132.77219177246093,126.84,132.13219177246094,126.4Q131.45219177246094,125.92,130.61219177246093,124.47999999999999Q129.65219177246092,122.8,129.65219177246092,120.92Q129.65219177246092,117,132.57219177246094,114.72Q135.21219177246093,112.68,139.17219177246093,112.68Q141.17219177246093,112.68,141.49219177246096,112.8Q142.77219177246093,113.24,144.13219177246094,113.24L147.77219177246093,113.24Q151.13219177246094,113.24,151.13219177246094,115.8Q151.13219177246094,118.4,147.85219177246094,118.4Q147.65219177246092,118.4,147.73219177246094,118.56Q148.25219177246095,119.6,148.25219177246095,121.16Q148.25219177246095,124.96000000000001,145.61219177246093,126.96000000000001Q143.21219177246093,128.8,139.17219177246093,128.8Q137.93219177246095,128.8,137.13219177246094,128.6Q136.49219177246096,128.4,136.01219177246094,128.88Q135.77219177246093,129.12,135.77219177246093,129.96Q135.77219177246093,130.8,136.55219177246096,131.16Q137.33219177246093,131.52,139.13219177246094,131.52L142.73219177246094,131.52Q151.53219177246095,131.52,151.53219177246095,137.36Q151.53219177246095,141,148.01219177246094,143.28Q144.49219177246096,145.56,138.61219177246093,145.56ZM139.71219177246093,141.12Q141.89219177246093,141.12,143.29219177246094,140.4Q144.69219177246094,139.68,144.69219177246094,138.66Q144.69219177246094,137.64,144.25219177246095,137.46Q143.81219177246095,137.28,143.45219177246094,137.12Q143.09219177246092,136.96,141.37219177246095,136.96L139.21219177246093,136.96Q136.97219177246092,136.96,136.69219177246094,136.88Q135.97219177246092,136.68,135.41219177246094,137.16Q134.93219177246095,137.6,134.93219177246095,138.74Q134.93219177246095,139.88,136.23219177246094,140.5Q137.53219177246092,141.12,139.71219177246093,141.12ZM137.09219177246092,123.58Q137.89219177246093,124.52000000000001,139.19219177246094,124.52000000000001Q140.49219177246096,124.52000000000001,141.29219177246094,123.6Q142.09219177246092,122.68,142.09219177246092,120.96000000000001Q142.09219177246092,119.24,141.29219177246094,118.34Q140.49219177246096,117.44,139.19219177246094,117.44Q137.89219177246093,117.44,137.09219177246092,118.36Q136.29219177246094,119.28,136.29219177246094,120.96000000000001Q136.29219177246094,122.64,137.09219177246092,123.58ZM158.45219177246094,136Q155.09219177246095,136,155.09219177246095,132.64L155.09219177246095,116.52Q155.09219177246095,113.24,157.93219177246092,113Q160.81219177246095,112.72,161.37219177246095,115.88Q161.41219177246094,116.08,161.47219177246095,116.08Q161.53219177246095,116.08,162.21219177246093,115.4Q165.01219177246094,112.68,168.81219177246095,112.68Q175.89219177246093,112.68,175.89219177246093,121.92L175.89219177246093,132.64Q175.89219177246093,136,172.53219177246095,136L172.13219177246094,136Q168.77219177246093,136,168.77219177246093,132.64L168.77219177246093,122.8Q168.77219177246093,120.52,168.15219177246092,119.64Q167.53219177246095,118.76,166.13219177246094,118.76Q165.01219177246094,118.76,164.09219177246095,119.28Q163.33219177246093,119.72,162.89219177246093,120.16Q162.21219177246093,120.8,162.21219177246093,121.72L162.21219177246093,132.64Q162.21219177246093,136,158.85219177246094,136L158.45219177246094,136ZM187.17219177246093,136.56Q184.09219177246095,136.56,182.21219177246093,134.52Q180.41219177246094,132.6,180.41219177246094,129.64Q180.41219177246094,126,183.41219177246094,124Q186.41219177246094,122,192.81219177246095,121.32Q193.05219177246093,121.28,193.05219177246093,121.03999999999999Q192.81219177246095,118.36,189.61219177246093,118.36Q187.21219177246093,118.36,186.61219177246093,118.68Q183.69219177246094,120.32,182.37219177246095,118.03999999999999Q181.05219177246093,115.76,183.93219177246092,114.03999999999999Q186.17219177246093,112.68,190.97219177246095,112.68Q200.17219177246093,112.68,200.17219177246093,123.08L200.17219177246093,132.76Q200.17219177246093,136,197.33219177246093,136.28Q194.49219177246093,136.6,193.93219177246092,133.92000000000002Q193.89219177246093,133.72,193.79219177246094,133.72Q193.69219177246094,133.72,192.97219177246095,134.4Q190.53219177246095,136.56,187.17219177246093,136.56ZM189.61219177246093,131.04Q191.37219177246095,131.04,192.37219177246095,129.96Q193.05219177246093,129.24,193.05219177246093,128.28L193.05219177246093,125.8Q193.05219177246093,125.6,192.85219177246094,125.64Q187.17219177246093,126.36,187.17219177246093,129.07999999999998Q187.17219177246093,131.04,189.61219177246093,131.04ZM212.13219177246094,136.56Q208.65219177246092,136.56,207.05219177246093,134.36Q205.65219177246092,132.4,205.65219177246092,128.6L205.65219177246092,107.4Q205.65219177246092,104.03999999999999,209.01219177246094,104.03999999999999L209.41219177246094,104.03999999999999Q212.77219177246093,104.03999999999999,212.77219177246093,107.4L212.77219177246093,128.84Q212.77219177246093,130.8,213.39219177246093,130.8Q214.01219177246094,130.8,214.49219177246093,130.76Q214.97219177246095,130.72,215.61219177246093,133.2Q216.21219177246093,135.72,215.21219177246093,136.14Q214.21219177246093,136.56,212.13219177246094,136.56Z" fill="#3D3D3D" fill-opacity="1"/></g><g><g transform="matrix(0.7071067690849304,0.7071067690849304,-0.7071067690849304,0.7071067690849304,7.273861365686571,-13.560653967489088)"><path d="M23.886088256835937,25Q22.206088256835937,25,22.206088256835937,23.32L22.206088256835937,11.78Q22.206088256835937,10.1,23.886088256835937,10.1L24.42608825683594,10.1Q25.846088256835937,10.1,26.506088256835938,11.36L29.146088256835938,16.46Q29.546088256835937,17.240000000000002,29.906088256835936,18.04L30.88608825683594,20.26Q31.006088256835938,20.54,31.056088256835938,20.54Q31.10608825683594,20.54,31.086088256835936,20.44L31.006088256835938,19.68Q30.626088256835935,16.52,30.626088256835935,15.04L30.626088256835935,11.78Q30.626088256835935,10.1,32.306088256835935,10.1Q34.02608825683593,10.1,34.02608825683593,11.78L34.02608825683593,23.32Q34.02608825683593,25,32.34608825683594,25L31.806088256835938,25Q30.38608825683594,25,29.726088256835936,23.74L27.10608825683594,18.6Q26.706088256835937,17.82,26.346088256835937,17.02L25.366088256835937,14.84Q25.24608825683594,14.56,25.19608825683594,14.56Q25.146088256835938,14.56,25.166088256835938,14.66L25.28608825683594,15.94Q25.60608825683594,18.74,25.60608825683594,20.06L25.60608825683594,23.32Q25.60608825683594,25,23.886088256835937,25ZM42.14608825683594,25.28Q39.86608825683594,25.28,38.26608825683594,23.7Q36.56608825683594,22.02,36.56608825683594,19.31Q36.56608825683594,16.6,38.26608825683594,14.9Q39.86608825683594,13.34,42.14608825683594,13.34Q44.42608825683594,13.34,46.00608825683594,14.9Q47.70608825683594,16.6,47.70608825683594,19.31Q47.70608825683594,22.02,46.00608825683594,23.7Q44.42608825683594,25.28,42.14608825683594,25.28ZM42.13608825683593,22.4Q44.06608825683594,22.4,44.06608825683594,19.3Q44.06608825683594,17.84,43.60608825683594,17.060000000000002Q43.10608825683594,16.22,42.14608825683594,16.22Q40.20608825683594,16.22,40.20608825683594,19.31Q40.20608825683594,22.4,42.13608825683593,22.4ZM59.42608825683594,25.28Q57.92608825683594,25.28,56.50608825683594,24.74Q54.986088256835934,24.18,54.39608825683594,23.63Q53.806088256835935,23.08,54.86608825683594,21.88Q55.92608825683594,20.7,56.31608825683594,21.03Q56.70608825683594,21.36,57.67608825683594,21.78Q58.64608825683594,22.2,59.50608825683594,22.2Q61.446088256835935,22.2,61.446088256835935,20.9Q61.446088256835935,20.36,61.196088256835935,20.18Q60.946088256835935,20,60.78608825683594,19.88Q60.626088256835935,19.76,59.60608825683594,19.32L58.20608825683594,18.74Q57.446088256835935,18.42,56.666088256835934,18.12Q56.126088256835935,17.9,55.34608825683594,16.96Q54.42608825683594,15.84,54.42608825683594,14.34Q54.42608825683594,12.44,55.95608825683594,11.14Q57.486088256835934,9.84,59.82608825683594,9.84Q61.14608825683594,9.84,62.42608825683594,10.34Q63.70608825683594,10.84,64.24608825683595,11.38Q64.78608825683594,11.92,63.84608825683594,12.98Q62.906088256835936,14.06,61.60608825683594,13.06Q61.38608825683594,12.9,59.82608825683594,12.9Q59.00608825683594,12.9,58.53608825683594,13.22Q58.06608825683594,13.54,58.06608825683594,14.1Q58.06608825683594,14.66,58.35608825683594,14.85Q58.64608825683594,15.04,59.34608825683594,15.34L61.406088256835936,16.22Q62.166088256835934,16.54,62.946088256835935,16.84Q65.10608825683593,17.72,65.10608825683593,20.62Q65.10608825683593,22.56,63.626088256835935,23.88Q62.02608825683594,25.28,59.42608825683594,25.28ZM68.98608825683593,25Q67.30608825683593,25,67.30608825683593,23.32L67.30608825683593,15.3Q67.30608825683593,13.62,68.98608825683593,13.62L69.18608825683594,13.62Q70.86608825683594,13.62,70.86608825683594,15.3L70.86608825683594,23.32Q70.86608825683594,25,69.18608825683594,25L68.98608825683593,25ZM69.07608825683593,12.04Q68.18608825683594,12.04,67.64608825683594,11.54Q67.10608825683593,11.04,67.10608825683593,10.21Q67.10608825683593,9.379999999999999,67.64608825683594,8.879999999999999Q68.18608825683594,8.379999999999999,69.07608825683593,8.379999999999999Q69.96608825683595,8.379999999999999,70.51608825683593,8.879999999999999Q71.06608825683594,9.379999999999999,71.06608825683594,10.21Q71.06608825683594,11.04,70.51608825683593,11.54Q69.96608825683595,12.04,69.07608825683593,12.04ZM77.80608825683593,29.78Q75.68608825683594,29.78,74.44608825683594,29.12Q73.04608825683593,28.36,73.04608825683593,26.93Q73.04608825683593,25.5,74.36608825683594,24.82Q74.64608825683594,24.68,74.64608825683594,24.63Q74.64608825683594,24.58,74.32608825683593,24.36Q73.60608825683593,23.88,73.60608825683593,22.62Q73.60608825683593,22.04,73.95608825683594,21.47Q74.30608825683593,20.9,74.56608825683594,20.72Q74.88608825683593,20.5,74.88608825683593,20.46Q74.88608825683593,20.42,74.56608825683594,20.2Q74.22608825683594,19.96,73.80608825683593,19.24Q73.32608825683593,18.4,73.32608825683593,17.46Q73.32608825683593,15.5,74.78608825683594,14.36Q76.10608825683593,13.34,78.08608825683594,13.34Q79.08608825683594,13.34,79.24608825683595,13.4Q79.88608825683593,13.62,80.56608825683594,13.62L82.38608825683593,13.62Q84.06608825683594,13.62,84.06608825683594,14.9Q84.06608825683594,16.2,82.42608825683594,16.2Q82.32608825683593,16.2,82.36608825683594,16.28Q82.62608825683594,16.8,82.62608825683594,17.58Q82.62608825683594,19.48,81.30608825683593,20.48Q80.10608825683593,21.4,78.08608825683594,21.4Q77.46608825683595,21.4,77.06608825683594,21.3Q76.74608825683595,21.2,76.50608825683594,21.44Q76.38608825683593,21.56,76.38608825683593,21.98Q76.38608825683593,22.4,76.77608825683595,22.58Q77.16608825683593,22.76,78.06608825683594,22.76L79.86608825683594,22.76Q84.26608825683594,22.76,84.26608825683594,25.68Q84.26608825683594,27.5,82.50608825683594,28.64Q80.74608825683595,29.78,77.80608825683593,29.78ZM78.35608825683593,27.56Q79.44608825683594,27.56,80.14608825683594,27.2Q80.84608825683594,26.84,80.84608825683594,26.33Q80.84608825683594,25.82,80.62608825683594,25.73Q80.40608825683594,25.64,80.22608825683594,25.56Q80.04608825683593,25.48,79.18608825683594,25.48L78.10608825683593,25.48Q76.98608825683593,25.48,76.84608825683594,25.44Q76.48608825683593,25.34,76.20608825683594,25.58Q75.96608825683595,25.8,75.96608825683595,26.37Q75.96608825683595,26.94,76.61608825683594,27.25Q77.26608825683593,27.56,78.35608825683593,27.56ZM77.04608825683593,18.79Q77.44608825683594,19.26,78.09608825683594,19.26Q78.74608825683595,19.26,79.14608825683594,18.8Q79.54608825683593,18.34,79.54608825683593,17.48Q79.54608825683593,16.619999999999997,79.14608825683594,16.17Q78.74608825683595,15.72,78.09608825683594,15.72Q77.44608825683594,15.72,77.04608825683593,16.18Q76.64608825683594,16.64,76.64608825683594,17.48Q76.64608825683594,18.32,77.04608825683593,18.79ZM87.72608825683594,25Q86.04608825683594,25,86.04608825683594,23.32L86.04608825683594,15.26Q86.04608825683594,13.62,87.46608825683593,13.5Q88.90608825683594,13.36,89.18608825683594,14.94Q89.20608825683594,15.04,89.23608825683594,15.04Q89.26608825683594,15.04,89.60608825683593,14.7Q91.00608825683594,13.34,92.90608825683594,13.34Q96.44608825683594,13.34,96.44608825683594,17.96L96.44608825683594,23.32Q96.44608825683594,25,94.76608825683594,25L94.56608825683594,25Q92.88608825683593,25,92.88608825683593,23.32L92.88608825683593,18.4Q92.88608825683593,17.259999999999998,92.57608825683593,16.82Q92.26608825683594,16.380000000000003,91.56608825683594,16.380000000000003Q91.00608825683594,16.380000000000003,90.54608825683594,16.64Q90.16608825683593,16.86,89.94608825683594,17.08Q89.60608825683593,17.4,89.60608825683593,17.86L89.60608825683593,23.32Q89.60608825683593,25,87.92608825683594,25L87.72608825683594,25ZM102.08608825683594,25.28Q100.54608825683594,25.28,99.60608825683593,24.26Q98.70608825683594,23.3,98.70608825683594,21.82Q98.70608825683594,20,100.20608825683594,19Q101.70608825683594,18,104.90608825683594,17.66Q105.02608825683593,17.64,105.02608825683593,17.52Q104.90608825683594,16.18,103.30608825683593,16.18Q102.10608825683593,16.18,101.80608825683593,16.34Q100.34608825683594,17.16,99.68608825683594,16.02Q99.02608825683593,14.88,100.46608825683593,14.02Q101.58608825683594,13.34,103.98608825683594,13.34Q108.58608825683594,13.34,108.58608825683594,18.54L108.58608825683594,23.38Q108.58608825683594,25,107.16608825683593,25.14Q105.74608825683593,25.3,105.46608825683593,23.96Q105.44608825683594,23.86,105.39608825683594,23.86Q105.34608825683594,23.86,104.98608825683594,24.2Q103.76608825683594,25.28,102.08608825683594,25.28ZM103.30608825683593,22.52Q104.18608825683594,22.52,104.68608825683594,21.98Q105.02608825683593,21.62,105.02608825683593,21.14L105.02608825683593,19.9Q105.02608825683593,19.8,104.92608825683594,19.82Q102.08608825683594,20.18,102.08608825683594,21.54Q102.08608825683594,22.52,103.30608825683593,22.52ZM114.56608825683594,25.28Q112.82608825683593,25.28,112.02608825683593,24.18Q111.32608825683593,23.2,111.32608825683593,21.3L111.32608825683593,10.7Q111.32608825683593,9.02,113.00608825683594,9.02L113.20608825683594,9.02Q114.88608825683593,9.02,114.88608825683593,10.7L114.88608825683593,21.42Q114.88608825683593,22.4,115.19608825683594,22.4Q115.50608825683594,22.4,115.74608825683593,22.38Q115.98608825683594,22.36,116.30608825683593,23.6Q116.60608825683593,24.86,116.10608825683593,25.07Q115.60608825683593,25.28,114.56608825683594,25.28Z" fill="#04AAEB" fill-opacity="1"/></g><g transform="matrix(0.7071067690849304,0.7071067690849304,-0.7071067690849304,0.7071067690849304,-14.034794611562575,-96.11700288735756)"><path d="M112.88608825683593,-42Q111.20608825683594,-42,111.20608825683594,-43.68L111.20608825683594,-55.22Q111.20608825683594,-56.9,112.88608825683593,-56.9L113.42608825683594,-56.9Q114.84608825683594,-56.9,115.50608825683594,-55.64L118.14608825683594,-50.54Q118.54608825683593,-49.76,118.90608825683594,-48.96L119.88608825683593,-46.739999999999995Q120.00608825683594,-46.46,120.05608825683593,-46.46Q120.10608825683593,-46.46,120.08608825683594,-46.56L120.00608825683594,-47.32Q119.62608825683594,-50.480000000000004,119.62608825683594,-51.96L119.62608825683594,-55.22Q119.62608825683594,-56.9,121.30608825683593,-56.9Q123.02608825683593,-56.9,123.02608825683593,-55.22L123.02608825683593,-43.68Q123.02608825683593,-42,121.34608825683594,-42L120.80608825683593,-42Q119.38608825683593,-42,118.72608825683594,-43.260000000000005L116.10608825683593,-48.4Q115.70608825683594,-49.18,115.34608825683594,-49.980000000000004L114.36608825683594,-52.16Q114.24608825683593,-52.44,114.19608825683594,-52.44Q114.14608825683594,-52.44,114.16608825683593,-52.34L114.28608825683594,-51.06Q114.60608825683593,-48.260000000000005,114.60608825683593,-46.94L114.60608825683593,-43.68Q114.60608825683593,-42,112.88608825683593,-42ZM131.14608825683592,-41.72Q128.86608825683595,-41.72,127.26608825683594,-43.3Q125.56608825683594,-44.980000000000004,125.56608825683594,-47.69Q125.56608825683594,-50.4,127.26608825683594,-52.1Q128.86608825683595,-53.66,131.14608825683592,-53.66Q133.42608825683595,-53.66,135.00608825683594,-52.1Q136.70608825683593,-50.4,136.70608825683593,-47.69Q136.70608825683593,-44.980000000000004,135.00608825683594,-43.3Q133.42608825683595,-41.72,131.14608825683592,-41.72ZM131.13608825683593,-44.6Q133.06608825683594,-44.6,133.06608825683594,-47.7Q133.06608825683594,-49.16,132.60608825683593,-49.94Q132.10608825683593,-50.78,131.14608825683592,-50.78Q129.20608825683593,-50.78,129.20608825683593,-47.69Q129.20608825683593,-44.6,131.13608825683593,-44.6ZM148.42608825683595,-41.72Q146.92608825683595,-41.72,145.50608825683594,-42.260000000000005Q143.98608825683593,-42.82,143.39608825683592,-43.370000000000005Q142.80608825683595,-43.92,143.86608825683595,-45.120000000000005Q144.92608825683595,-46.3,145.31608825683594,-45.97Q145.70608825683593,-45.64,146.67608825683595,-45.22Q147.64608825683592,-44.8,148.50608825683594,-44.8Q150.44608825683594,-44.8,150.44608825683594,-46.1Q150.44608825683594,-46.64,150.19608825683594,-46.82Q149.94608825683594,-47,149.78608825683594,-47.120000000000005Q149.62608825683594,-47.239999999999995,148.60608825683593,-47.68L147.20608825683593,-48.260000000000005Q146.44608825683594,-48.58,145.66608825683593,-48.879999999999995Q145.12608825683594,-49.1,144.34608825683594,-50.04Q143.42608825683595,-51.16,143.42608825683595,-52.66Q143.42608825683595,-54.56,144.95608825683593,-55.86Q146.48608825683593,-57.16,148.82608825683593,-57.16Q150.14608825683592,-57.16,151.42608825683595,-56.66Q152.70608825683593,-56.16,153.24608825683595,-55.62Q153.78608825683594,-55.08,152.84608825683594,-54.019999999999996Q151.90608825683594,-52.94,150.60608825683593,-53.94Q150.38608825683593,-54.1,148.82608825683593,-54.1Q148.00608825683594,-54.1,147.53608825683594,-53.78Q147.06608825683594,-53.46,147.06608825683594,-52.9Q147.06608825683594,-52.34,147.35608825683593,-52.15Q147.64608825683592,-51.96,148.34608825683594,-51.66L150.40608825683594,-50.78Q151.16608825683593,-50.46,151.94608825683594,-50.16Q154.10608825683593,-49.28,154.10608825683593,-46.379999999999995Q154.10608825683593,-44.44,152.62608825683594,-43.120000000000005Q151.02608825683595,-41.72,148.42608825683595,-41.72ZM157.98608825683593,-42Q156.30608825683595,-42,156.30608825683595,-43.68L156.30608825683595,-51.7Q156.30608825683595,-53.38,157.98608825683593,-53.38L158.18608825683594,-53.38Q159.86608825683595,-53.38,159.86608825683595,-51.7L159.86608825683595,-43.68Q159.86608825683595,-42,158.18608825683594,-42L157.98608825683593,-42ZM158.07608825683593,-54.96Q157.18608825683594,-54.96,156.64608825683592,-55.46Q156.10608825683593,-55.96,156.10608825683593,-56.79Q156.10608825683593,-57.62,156.64608825683592,-58.12Q157.18608825683594,-58.62,158.07608825683593,-58.62Q158.96608825683595,-58.62,159.51608825683593,-58.12Q160.06608825683594,-57.62,160.06608825683594,-56.79Q160.06608825683594,-55.96,159.51608825683593,-55.46Q158.96608825683595,-54.96,158.07608825683593,-54.96ZM166.80608825683595,-37.22Q164.68608825683594,-37.22,163.44608825683594,-37.879999999999995Q162.04608825683593,-38.64,162.04608825683593,-40.07Q162.04608825683593,-41.5,163.36608825683595,-42.18Q163.64608825683592,-42.32,163.64608825683592,-42.370000000000005Q163.64608825683592,-42.42,163.32608825683593,-42.64Q162.60608825683593,-43.120000000000005,162.60608825683593,-44.379999999999995Q162.60608825683593,-44.96,162.95608825683593,-45.53Q163.30608825683595,-46.1,163.56608825683594,-46.28Q163.88608825683593,-46.5,163.88608825683593,-46.54Q163.88608825683593,-46.58,163.56608825683594,-46.8Q163.22608825683594,-47.04,162.80608825683595,-47.760000000000005Q162.32608825683593,-48.6,162.32608825683593,-49.54Q162.32608825683593,-51.5,163.78608825683594,-52.64Q165.10608825683593,-53.66,167.08608825683592,-53.66Q168.08608825683592,-53.66,168.24608825683595,-53.6Q168.88608825683593,-53.38,169.56608825683594,-53.38L171.38608825683593,-53.38Q173.06608825683594,-53.38,173.06608825683594,-52.1Q173.06608825683594,-50.8,171.42608825683595,-50.8Q171.32608825683593,-50.8,171.36608825683595,-50.72Q171.62608825683594,-50.2,171.62608825683594,-49.42Q171.62608825683594,-47.519999999999996,170.30608825683595,-46.519999999999996Q169.10608825683593,-45.6,167.08608825683592,-45.6Q166.46608825683595,-45.6,166.06608825683594,-45.7Q165.74608825683595,-45.8,165.50608825683594,-45.56Q165.38608825683593,-45.44,165.38608825683593,-45.019999999999996Q165.38608825683593,-44.6,165.77608825683595,-44.42Q166.16608825683593,-44.239999999999995,167.06608825683594,-44.239999999999995L168.86608825683595,-44.239999999999995Q173.26608825683593,-44.239999999999995,173.26608825683593,-41.32Q173.26608825683593,-39.5,171.50608825683594,-38.36Q169.74608825683595,-37.22,166.80608825683595,-37.22ZM167.35608825683593,-39.44Q168.44608825683594,-39.44,169.14608825683592,-39.8Q169.84608825683594,-40.16,169.84608825683594,-40.67Q169.84608825683594,-41.18,169.62608825683594,-41.269999999999996Q169.40608825683594,-41.36,169.22608825683594,-41.44Q169.04608825683593,-41.519999999999996,168.18608825683594,-41.519999999999996L167.10608825683593,-41.519999999999996Q165.98608825683593,-41.519999999999996,165.84608825683594,-41.56Q165.48608825683593,-41.66,165.20608825683593,-41.42Q164.96608825683595,-41.2,164.96608825683595,-40.629999999999995Q164.96608825683595,-40.06,165.61608825683595,-39.75Q166.26608825683593,-39.44,167.35608825683593,-39.44ZM166.04608825683593,-48.21Q166.44608825683594,-47.739999999999995,167.09608825683594,-47.739999999999995Q167.74608825683595,-47.739999999999995,168.14608825683592,-48.2Q168.54608825683593,-48.66,168.54608825683593,-49.519999999999996Q168.54608825683593,-50.38,168.14608825683592,-50.83Q167.74608825683595,-51.28,167.09608825683594,-51.28Q166.44608825683594,-51.28,166.04608825683593,-50.82Q165.64608825683592,-50.36,165.64608825683592,-49.519999999999996Q165.64608825683592,-48.68,166.04608825683593,-48.21ZM176.72608825683594,-42Q175.04608825683596,-42,175.04608825683596,-43.68L175.04608825683596,-51.74Q175.04608825683596,-53.38,176.46608825683592,-53.5Q177.90608825683594,-53.64,178.18608825683594,-52.06Q178.20608825683593,-51.96,178.23608825683596,-51.96Q178.26608825683593,-51.96,178.60608825683593,-52.3Q180.00608825683594,-53.66,181.90608825683594,-53.66Q185.44608825683594,-53.66,185.44608825683594,-49.04L185.44608825683594,-43.68Q185.44608825683594,-42,183.76608825683593,-42L183.56608825683594,-42Q181.88608825683593,-42,181.88608825683593,-43.68L181.88608825683593,-48.6Q181.88608825683593,-49.74,181.57608825683593,-50.18Q181.26608825683593,-50.62,180.56608825683594,-50.62Q180.00608825683594,-50.62,179.54608825683596,-50.36Q179.16608825683593,-50.14,178.94608825683594,-49.92Q178.60608825683593,-49.6,178.60608825683593,-49.14L178.60608825683593,-43.68Q178.60608825683593,-42,176.92608825683595,-42L176.72608825683594,-42ZM191.08608825683592,-41.72Q189.54608825683596,-41.72,188.60608825683593,-42.739999999999995Q187.70608825683593,-43.7,187.70608825683593,-45.18Q187.70608825683593,-47,189.20608825683593,-48Q190.70608825683593,-49,193.90608825683594,-49.34Q194.02608825683592,-49.36,194.02608825683592,-49.480000000000004Q193.90608825683594,-50.82,192.30608825683595,-50.82Q191.10608825683593,-50.82,190.80608825683595,-50.66Q189.34608825683594,-49.84,188.68608825683594,-50.980000000000004Q188.02608825683592,-52.12,189.46608825683592,-52.980000000000004Q190.58608825683592,-53.66,192.98608825683596,-53.66Q197.58608825683592,-53.66,197.58608825683592,-48.46L197.58608825683592,-43.620000000000005Q197.58608825683592,-42,196.16608825683593,-41.86Q194.74608825683595,-41.7,194.46608825683592,-43.04Q194.44608825683594,-43.14,194.39608825683592,-43.14Q194.34608825683594,-43.14,193.98608825683596,-42.8Q192.76608825683593,-41.72,191.08608825683592,-41.72ZM192.30608825683595,-44.480000000000004Q193.18608825683594,-44.480000000000004,193.68608825683594,-45.019999999999996Q194.02608825683592,-45.379999999999995,194.02608825683592,-45.86L194.02608825683592,-47.1Q194.02608825683592,-47.2,193.92608825683595,-47.18Q191.08608825683592,-46.82,191.08608825683592,-45.46Q191.08608825683592,-44.480000000000004,192.30608825683595,-44.480000000000004ZM203.56608825683594,-41.72Q201.82608825683593,-41.72,201.02608825683592,-42.82Q200.32608825683593,-43.8,200.32608825683593,-45.7L200.32608825683593,-56.3Q200.32608825683593,-57.980000000000004,202.00608825683594,-57.980000000000004L202.20608825683593,-57.980000000000004Q203.88608825683593,-57.980000000000004,203.88608825683593,-56.3L203.88608825683593,-45.58Q203.88608825683593,-44.6,204.19608825683594,-44.6Q204.50608825683594,-44.6,204.74608825683595,-44.620000000000005Q204.98608825683596,-44.64,205.30608825683595,-43.4Q205.60608825683593,-42.14,205.10608825683593,-41.93Q204.60608825683593,-41.72,203.56608825683594,-41.72Z" fill="#04AAEB" fill-opacity="1"/></g></g><g><g transform="matrix(0.7071067690849304,0.7071067690849304,-0.7071067690849304,0.7071067690849304,157.75914036010772,-68.86425222183198)"><path d="M165.8860806274414,179Q164.2060806274414,179,164.2060806274414,177.32L164.2060806274414,165.78Q164.2060806274414,164.1,165.8860806274414,164.1L166.4260806274414,164.1Q167.8460806274414,164.1,168.5060806274414,165.36L171.1460806274414,170.46Q171.5460806274414,171.24,171.9060806274414,172.04L172.8860806274414,174.26Q173.0060806274414,174.54,173.05608062744142,174.54Q173.1060806274414,174.54,173.08608062744142,174.44L173.0060806274414,173.68Q172.6260806274414,170.52,172.6260806274414,169.04L172.6260806274414,165.78Q172.6260806274414,164.1,174.30608062744142,164.1Q176.02608062744142,164.1,176.02608062744142,165.78L176.02608062744142,177.32Q176.02608062744142,179,174.3460806274414,179L173.80608062744142,179Q172.3860806274414,179,171.7260806274414,177.74L169.1060806274414,172.6Q168.7060806274414,171.82,168.3460806274414,171.02L167.36608062744142,168.84Q167.24608062744142,168.56,167.1960806274414,168.56Q167.1460806274414,168.56,167.1660806274414,168.66L167.2860806274414,169.94Q167.6060806274414,172.74,167.6060806274414,174.06L167.6060806274414,177.32Q167.6060806274414,179,165.8860806274414,179ZM184.1460806274414,179.28Q181.86608062744142,179.28,180.2660806274414,177.7Q178.5660806274414,176.02,178.5660806274414,173.31Q178.5660806274414,170.6,180.2660806274414,168.9Q181.86608062744142,167.34,184.1460806274414,167.34Q186.42608062744142,167.34,188.0060806274414,168.9Q189.7060806274414,170.6,189.7060806274414,173.31Q189.7060806274414,176.02,188.0060806274414,177.7Q186.42608062744142,179.28,184.1460806274414,179.28ZM184.1360806274414,176.4Q186.0660806274414,176.4,186.0660806274414,173.3Q186.0660806274414,171.84,185.6060806274414,171.06Q185.1060806274414,170.22,184.1460806274414,170.22Q182.2060806274414,170.22,182.2060806274414,173.31Q182.2060806274414,176.4,184.1360806274414,176.4ZM201.42608062744142,179.28Q199.92608062744142,179.28,198.5060806274414,178.74Q196.9860806274414,178.18,196.3960806274414,177.63Q195.80608062744142,177.07999999999998,196.86608062744142,175.88Q197.92608062744142,174.7,198.3160806274414,175.03Q198.7060806274414,175.36,199.67608062744142,175.78Q200.6460806274414,176.2,201.5060806274414,176.2Q203.4460806274414,176.2,203.4460806274414,174.9Q203.4460806274414,174.36,203.1960806274414,174.18Q202.9460806274414,174,202.7860806274414,173.88Q202.6260806274414,173.76,201.6060806274414,173.32L200.2060806274414,172.74Q199.4460806274414,172.42000000000002,198.6660806274414,172.12Q198.1260806274414,171.9,197.3460806274414,170.96Q196.42608062744142,169.84,196.42608062744142,168.34Q196.42608062744142,166.44,197.9560806274414,165.14Q199.4860806274414,163.84,201.8260806274414,163.84Q203.1460806274414,163.84,204.42608062744142,164.34Q205.7060806274414,164.84,206.24608062744142,165.38Q206.7860806274414,165.92,205.8460806274414,166.98Q204.9060806274414,168.06,203.6060806274414,167.06Q203.3860806274414,166.9,201.8260806274414,166.9Q201.0060806274414,166.9,200.5360806274414,167.22Q200.0660806274414,167.54,200.0660806274414,168.1Q200.0660806274414,168.66,200.3560806274414,168.85Q200.6460806274414,169.04,201.3460806274414,169.34L203.4060806274414,170.22Q204.1660806274414,170.54,204.9460806274414,170.84Q207.1060806274414,171.72,207.1060806274414,174.62Q207.1060806274414,176.56,205.6260806274414,177.88Q204.02608062744142,179.28,201.42608062744142,179.28ZM210.9860806274414,179Q209.30608062744142,179,209.30608062744142,177.32L209.30608062744142,169.3Q209.30608062744142,167.62,210.9860806274414,167.62L211.1860806274414,167.62Q212.86608062744142,167.62,212.86608062744142,169.3L212.86608062744142,177.32Q212.86608062744142,179,211.1860806274414,179L210.9860806274414,179ZM211.0760806274414,166.04Q210.1860806274414,166.04,209.6460806274414,165.54Q209.1060806274414,165.04,209.1060806274414,164.21Q209.1060806274414,163.38,209.6460806274414,162.88Q210.1860806274414,162.38,211.0760806274414,162.38Q211.9660806274414,162.38,212.5160806274414,162.88Q213.0660806274414,163.38,213.0660806274414,164.21Q213.0660806274414,165.04,212.5160806274414,165.54Q211.9660806274414,166.04,211.0760806274414,166.04ZM219.80608062744142,183.78Q217.6860806274414,183.78,216.4460806274414,183.12Q215.0460806274414,182.36,215.0460806274414,180.93Q215.0460806274414,179.5,216.36608062744142,178.82Q216.6460806274414,178.68,216.6460806274414,178.63Q216.6460806274414,178.57999999999998,216.3260806274414,178.36Q215.6060806274414,177.88,215.6060806274414,176.62Q215.6060806274414,176.04,215.9560806274414,175.47Q216.30608062744142,174.9,216.5660806274414,174.72Q216.8860806274414,174.5,216.8860806274414,174.46Q216.8860806274414,174.42000000000002,216.5660806274414,174.2Q216.2260806274414,173.96,215.80608062744142,173.24Q215.3260806274414,172.4,215.3260806274414,171.46Q215.3260806274414,169.5,216.7860806274414,168.36Q218.1060806274414,167.34,220.0860806274414,167.34Q221.0860806274414,167.34,221.24608062744142,167.4Q221.8860806274414,167.62,222.5660806274414,167.62L224.3860806274414,167.62Q226.0660806274414,167.62,226.0660806274414,168.9Q226.0660806274414,170.2,224.42608062744142,170.2Q224.3260806274414,170.2,224.36608062744142,170.28Q224.6260806274414,170.8,224.6260806274414,171.58Q224.6260806274414,173.48,223.30608062744142,174.48Q222.1060806274414,175.4,220.0860806274414,175.4Q219.4660806274414,175.4,219.0660806274414,175.3Q218.74608062744142,175.2,218.5060806274414,175.44Q218.3860806274414,175.56,218.3860806274414,175.98Q218.3860806274414,176.4,218.77608062744142,176.57999999999998Q219.1660806274414,176.76,220.0660806274414,176.76L221.86608062744142,176.76Q226.2660806274414,176.76,226.2660806274414,179.68Q226.2660806274414,181.5,224.5060806274414,182.64Q222.74608062744142,183.78,219.80608062744142,183.78ZM220.3560806274414,181.56Q221.4460806274414,181.56,222.1460806274414,181.2Q222.8460806274414,180.84,222.8460806274414,180.32999999999998Q222.8460806274414,179.82,222.6260806274414,179.73Q222.4060806274414,179.64,222.2260806274414,179.56Q222.0460806274414,179.48,221.1860806274414,179.48L220.1060806274414,179.48Q218.9860806274414,179.48,218.8460806274414,179.44Q218.4860806274414,179.34,218.2060806274414,179.57999999999998Q217.9660806274414,179.8,217.9660806274414,180.37Q217.9660806274414,180.94,218.61608062744142,181.25Q219.2660806274414,181.56,220.3560806274414,181.56ZM219.0460806274414,172.79Q219.4460806274414,173.26,220.0960806274414,173.26Q220.74608062744142,173.26,221.1460806274414,172.8Q221.5460806274414,172.34,221.5460806274414,171.48Q221.5460806274414,170.62,221.1460806274414,170.17Q220.74608062744142,169.72,220.0960806274414,169.72Q219.4460806274414,169.72,219.0460806274414,170.18Q218.6460806274414,170.64,218.6460806274414,171.48Q218.6460806274414,172.32,219.0460806274414,172.79ZM229.7260806274414,179Q228.04608062744143,179,228.04608062744143,177.32L228.04608062744143,169.26Q228.04608062744143,167.62,229.46608062744139,167.5Q230.9060806274414,167.36,231.1860806274414,168.94Q231.2060806274414,169.04,231.23608062744142,169.04Q231.2660806274414,169.04,231.6060806274414,168.7Q233.0060806274414,167.34,234.9060806274414,167.34Q238.4460806274414,167.34,238.4460806274414,171.96L238.4460806274414,177.32Q238.4460806274414,179,236.7660806274414,179L236.5660806274414,179Q234.8860806274414,179,234.8860806274414,177.32L234.8860806274414,172.4Q234.8860806274414,171.26,234.5760806274414,170.82Q234.2660806274414,170.38,233.5660806274414,170.38Q233.0060806274414,170.38,232.54608062744143,170.64Q232.1660806274414,170.86,231.9460806274414,171.08Q231.6060806274414,171.4,231.6060806274414,171.86L231.6060806274414,177.32Q231.6060806274414,179,229.92608062744142,179L229.7260806274414,179ZM244.0860806274414,179.28Q242.54608062744143,179.28,241.6060806274414,178.26Q240.7060806274414,177.3,240.7060806274414,175.82Q240.7060806274414,174,242.2060806274414,173Q243.7060806274414,172,246.9060806274414,171.66Q247.0260806274414,171.64,247.0260806274414,171.52Q246.9060806274414,170.18,245.30608062744142,170.18Q244.1060806274414,170.18,243.80608062744142,170.34Q242.3460806274414,171.16,241.6860806274414,170.02Q241.0260806274414,168.88,242.46608062744139,168.02Q243.5860806274414,167.34,245.98608062744142,167.34Q250.5860806274414,167.34,250.5860806274414,172.54L250.5860806274414,177.38Q250.5860806274414,179,249.1660806274414,179.14Q247.74608062744142,179.3,247.46608062744139,177.96Q247.4460806274414,177.86,247.3960806274414,177.86Q247.3460806274414,177.86,246.98608062744142,178.2Q245.7660806274414,179.28,244.0860806274414,179.28ZM245.30608062744142,176.52Q246.1860806274414,176.52,246.6860806274414,175.98Q247.0260806274414,175.62,247.0260806274414,175.14L247.0260806274414,173.9Q247.0260806274414,173.8,246.92608062744142,173.82Q244.0860806274414,174.18,244.0860806274414,175.54Q244.0860806274414,176.52,245.30608062744142,176.52ZM256.5660806274414,179.28Q254.8260806274414,179.28,254.0260806274414,178.18Q253.3260806274414,177.2,253.3260806274414,175.3L253.3260806274414,164.7Q253.3260806274414,163.02,255.0060806274414,163.02L255.2060806274414,163.02Q256.8860806274414,163.02,256.8860806274414,164.7L256.8860806274414,175.42000000000002Q256.8860806274414,176.4,257.1960806274414,176.4Q257.5060806274414,176.4,257.7460806274414,176.38Q257.9860806274414,176.36,258.3060806274414,177.6Q258.60608062744143,178.86,258.10608062744143,179.07Q257.60608062744143,179.28,256.5660806274414,179.28Z" fill="#04AAEB" fill-opacity="1"/></g><g transform="matrix(0.7071067690849304,0.7071067690849304,-0.7071067690849304,0.7071067690849304,136.45048438285858,-151.42060114170044)"><path d="M254.8860806274414,112Q253.2060806274414,112,253.2060806274414,110.32L253.2060806274414,98.78Q253.2060806274414,97.1,254.8860806274414,97.1L255.4260806274414,97.1Q256.8460806274414,97.1,257.5060806274414,98.36L260.1460806274414,103.46000000000001Q260.5460806274414,104.24,260.9060806274414,105.03999999999999L261.8860806274414,107.26Q262.0060806274414,107.53999999999999,262.0560806274414,107.53999999999999Q262.10608062744143,107.53999999999999,262.0860806274414,107.44L262.0060806274414,106.68Q261.6260806274414,103.52,261.6260806274414,102.03999999999999L261.6260806274414,98.78Q261.6260806274414,97.1,263.3060806274414,97.1Q265.0260806274414,97.1,265.0260806274414,98.78L265.0260806274414,110.32Q265.0260806274414,112,263.3460806274414,112L262.8060806274414,112Q261.3860806274414,112,260.72608062744143,110.74L258.10608062744143,105.6Q257.7060806274414,104.82,257.3460806274414,104.02L256.3660806274414,101.84Q256.2460806274414,101.56,256.1960806274414,101.56Q256.1460806274414,101.56,256.16608062744143,101.66L256.2860806274414,102.94Q256.60608062744143,105.74,256.60608062744143,107.06L256.60608062744143,110.32Q256.60608062744143,112,254.8860806274414,112ZM273.1460806274414,112.28Q270.8660806274414,112.28,269.2660806274414,110.7Q267.5660806274414,109.02,267.5660806274414,106.31Q267.5660806274414,103.6,269.2660806274414,101.9Q270.8660806274414,100.34,273.1460806274414,100.34Q275.4260806274414,100.34,277.0060806274414,101.9Q278.7060806274414,103.6,278.7060806274414,106.31Q278.7060806274414,109.02,277.0060806274414,110.7Q275.4260806274414,112.28,273.1460806274414,112.28ZM273.1360806274414,109.4Q275.0660806274414,109.4,275.0660806274414,106.3Q275.0660806274414,104.84,274.60608062744143,104.06Q274.10608062744143,103.22,273.1460806274414,103.22Q271.2060806274414,103.22,271.2060806274414,106.31Q271.2060806274414,109.4,273.1360806274414,109.4ZM290.4260806274414,112.28Q288.9260806274414,112.28,287.5060806274414,111.74Q285.9860806274414,111.18,285.3960806274414,110.63Q284.8060806274414,110.08,285.8660806274414,108.88Q286.9260806274414,107.7,287.3160806274414,108.03Q287.7060806274414,108.36,288.6760806274414,108.78Q289.6460806274414,109.2,290.5060806274414,109.2Q292.4460806274414,109.2,292.4460806274414,107.9Q292.4460806274414,107.36,292.1960806274414,107.18Q291.9460806274414,107,291.7860806274414,106.88Q291.6260806274414,106.76,290.60608062744143,106.32L289.2060806274414,105.74Q288.4460806274414,105.42,287.6660806274414,105.12Q287.1260806274414,104.9,286.34608062744144,103.96000000000001Q285.4260806274414,102.84,285.4260806274414,101.34Q285.4260806274414,99.44,286.9560806274414,98.14Q288.4860806274414,96.84,290.8260806274414,96.84Q292.1460806274414,96.84,293.4260806274414,97.34Q294.7060806274414,97.84,295.2460806274414,98.38Q295.7860806274414,98.92,294.84608062744144,99.98Q293.9060806274414,101.06,292.60608062744143,100.06Q292.3860806274414,99.9,290.8260806274414,99.9Q290.0060806274414,99.9,289.5360806274414,100.22Q289.0660806274414,100.53999999999999,289.0660806274414,101.1Q289.0660806274414,101.66,289.35608062744143,101.85Q289.6460806274414,102.03999999999999,290.34608062744144,102.34L292.4060806274414,103.22Q293.1660806274414,103.53999999999999,293.9460806274414,103.84Q296.10608062744143,104.72,296.10608062744143,107.62Q296.10608062744143,109.56,294.6260806274414,110.88Q293.0260806274414,112.28,290.4260806274414,112.28ZM299.9860806274414,112Q298.3060806274414,112,298.3060806274414,110.32L298.3060806274414,102.3Q298.3060806274414,100.62,299.9860806274414,100.62L300.1860806274414,100.62Q301.8660806274414,100.62,301.8660806274414,102.3L301.8660806274414,110.32Q301.8660806274414,112,300.1860806274414,112L299.9860806274414,112ZM300.0760806274414,99.03999999999999Q299.1860806274414,99.03999999999999,298.6460806274414,98.53999999999999Q298.10608062744143,98.03999999999999,298.10608062744143,97.21000000000001Q298.10608062744143,96.38,298.6460806274414,95.88Q299.1860806274414,95.38,300.0760806274414,95.38Q300.9660806274414,95.38,301.5160806274414,95.88Q302.0660806274414,96.38,302.0660806274414,97.21000000000001Q302.0660806274414,98.03999999999999,301.5160806274414,98.53999999999999Q300.9660806274414,99.03999999999999,300.0760806274414,99.03999999999999ZM308.8060806274414,116.78Q306.6860806274414,116.78,305.4460806274414,116.12Q304.0460806274414,115.36,304.0460806274414,113.93Q304.0460806274414,112.5,305.3660806274414,111.82Q305.6460806274414,111.68,305.6460806274414,111.63Q305.6460806274414,111.58,305.3260806274414,111.36Q304.60608062744143,110.88,304.60608062744143,109.62Q304.60608062744143,109.03999999999999,304.9560806274414,108.47Q305.3060806274414,107.9,305.5660806274414,107.72Q305.8860806274414,107.5,305.8860806274414,107.46000000000001Q305.8860806274414,107.42,305.5660806274414,107.2Q305.22608062744143,106.96000000000001,304.8060806274414,106.24Q304.3260806274414,105.4,304.3260806274414,104.46000000000001Q304.3260806274414,102.5,305.7860806274414,101.36Q307.10608062744143,100.34,309.0860806274414,100.34Q310.0860806274414,100.34,310.2460806274414,100.4Q310.8860806274414,100.62,311.5660806274414,100.62L313.3860806274414,100.62Q315.0660806274414,100.62,315.0660806274414,101.9Q315.0660806274414,103.2,313.4260806274414,103.2Q313.3260806274414,103.2,313.3660806274414,103.28Q313.6260806274414,103.8,313.6260806274414,104.58Q313.6260806274414,106.48,312.3060806274414,107.48Q311.10608062744143,108.4,309.0860806274414,108.4Q308.4660806274414,108.4,308.0660806274414,108.3Q307.7460806274414,108.2,307.5060806274414,108.44Q307.3860806274414,108.56,307.3860806274414,108.98Q307.3860806274414,109.4,307.7760806274414,109.58Q308.1660806274414,109.76,309.0660806274414,109.76L310.8660806274414,109.76Q315.2660806274414,109.76,315.2660806274414,112.68Q315.2660806274414,114.5,313.5060806274414,115.64Q311.7460806274414,116.78,308.8060806274414,116.78ZM309.35608062744143,114.56Q310.4460806274414,114.56,311.1460806274414,114.2Q311.84608062744144,113.84,311.84608062744144,113.33Q311.84608062744144,112.82,311.6260806274414,112.73Q311.4060806274414,112.64,311.22608062744143,112.56Q311.0460806274414,112.48,310.1860806274414,112.48L309.10608062744143,112.48Q307.9860806274414,112.48,307.84608062744144,112.44Q307.4860806274414,112.34,307.2060806274414,112.58Q306.9660806274414,112.8,306.9660806274414,113.37Q306.9660806274414,113.94,307.6160806274414,114.25Q308.2660806274414,114.56,309.35608062744143,114.56ZM308.0460806274414,105.78999999999999Q308.4460806274414,106.26,309.09608062744144,106.26Q309.7460806274414,106.26,310.1460806274414,105.8Q310.5460806274414,105.34,310.5460806274414,104.48Q310.5460806274414,103.62,310.1460806274414,103.17Q309.7460806274414,102.72,309.09608062744144,102.72Q308.4460806274414,102.72,308.0460806274414,103.18Q307.6460806274414,103.64,307.6460806274414,104.48Q307.6460806274414,105.32,308.0460806274414,105.78999999999999ZM318.72608062744143,112Q317.0460806274414,112,317.0460806274414,110.32L317.0460806274414,102.26Q317.0460806274414,100.62,318.4660806274414,100.5Q319.9060806274414,100.36,320.1860806274414,101.94Q320.2060806274414,102.03999999999999,320.2360806274414,102.03999999999999Q320.2660806274414,102.03999999999999,320.60608062744143,101.7Q322.0060806274414,100.34,323.9060806274414,100.34Q327.4460806274414,100.34,327.4460806274414,104.96000000000001L327.4460806274414,110.32Q327.4460806274414,112,325.7660806274414,112L325.5660806274414,112Q323.8860806274414,112,323.8860806274414,110.32L323.8860806274414,105.4Q323.8860806274414,104.26,323.5760806274414,103.82Q323.2660806274414,103.38,322.5660806274414,103.38Q322.0060806274414,103.38,321.5460806274414,103.64Q321.1660806274414,103.86,320.9460806274414,104.08Q320.60608062744143,104.4,320.60608062744143,104.86L320.60608062744143,110.32Q320.60608062744143,112,318.9260806274414,112L318.72608062744143,112ZM333.0860806274414,112.28Q331.5460806274414,112.28,330.60608062744143,111.26Q329.7060806274414,110.3,329.7060806274414,108.82Q329.7060806274414,107,331.2060806274414,106Q332.7060806274414,105,335.9060806274414,104.66Q336.0260806274414,104.64,336.0260806274414,104.52Q335.9060806274414,103.18,334.3060806274414,103.18Q333.10608062744143,103.18,332.8060806274414,103.34Q331.34608062744144,104.16,330.6860806274414,103.02Q330.0260806274414,101.88,331.4660806274414,101.02Q332.5860806274414,100.34,334.9860806274414,100.34Q339.5860806274414,100.34,339.5860806274414,105.53999999999999L339.5860806274414,110.38Q339.5860806274414,112,338.1660806274414,112.14Q336.7460806274414,112.3,336.4660806274414,110.96000000000001Q336.4460806274414,110.86,336.3960806274414,110.86Q336.34608062744144,110.86,335.9860806274414,111.2Q334.7660806274414,112.28,333.0860806274414,112.28ZM334.3060806274414,109.52Q335.1860806274414,109.52,335.6860806274414,108.98Q336.0260806274414,108.62,336.0260806274414,108.14L336.0260806274414,106.9Q336.0260806274414,106.8,335.9260806274414,106.82Q333.0860806274414,107.18,333.0860806274414,108.53999999999999Q333.0860806274414,109.52,334.3060806274414,109.52ZM345.5660806274414,112.28Q343.8260806274414,112.28,343.0260806274414,111.18Q342.3260806274414,110.2,342.3260806274414,108.3L342.3260806274414,97.7Q342.3260806274414,96.02,344.0060806274414,96.02L344.2060806274414,96.02Q345.8860806274414,96.02,345.8860806274414,97.7L345.8860806274414,108.42Q345.8860806274414,109.4,346.1960806274414,109.4Q346.5060806274414,109.4,346.7460806274414,109.38Q346.9860806274414,109.36,347.3060806274414,110.6Q347.60608062744143,111.86,347.10608062744143,112.07Q346.60608062744143,112.28,345.5660806274414,112.28Z" fill="#04AAEB" fill-opacity="1"/></g></g></g></g></svg>