<svg xmlns="http://www.w3.org/2000/svg" xmlns:xlink="http://www.w3.org/1999/xlink" fill="none" version="1.1" width="180" height="180" viewBox="0 0 180 180"><g><path d="M158.442,148.445Q147.973,160.704,133.899,168.568Q133.792,168.627,133.682,168.682Q133.572,168.736,133.46,168.786Q133.347,168.835,133.232,168.878Q133.118,168.922,133.001,168.959Q132.88400000000001,168.997,132.76600000000002,169.029Q132.647,169.061,132.527,169.088Q132.40699999999998,169.114,132.286,169.134Q132.16500000000002,169.154,132.043,169.169Q131.921,169.183,131.799,169.191Q131.676,169.2,131.554,169.202Q131.43099999999998,169.204,131.308,169.2Q131.186,169.197,131.063,169.187Q130.941,169.177,130.81900000000002,169.161Q130.697,169.146,130.577,169.124Q130.45600000000002,169.102,130.336,169.075Q130.21699999999998,169.047,130.098,169.014Q129.98000000000002,168.98,129.864,168.941Q129.748,168.902,129.63299999999998,168.857Q129.519,168.812,129.40699999999998,168.762Q129.29500000000002,168.711,129.186,168.655Q129.077,168.6,128.97,168.538Q128.864,168.477,128.761,168.411Q128.65699999999998,168.345,128.55700000000002,168.274Q128.457,168.202,128.361,168.126Q128.265,168.05,128.172,167.969Q128.07999999999998,167.889,127.991,167.804Q127.903,167.718,127.819,167.629Q127.735,167.54,127.655,167.446Q127.576,167.353,127.501,167.256Q127.426,167.158,127.356,167.058Q127.285,166.957,127.22,166.853Q127.155,166.749,127.096,166.642Q127.036,166.534,126.981,166.424Q126.927,166.314,126.878,166.202Q126.828,166.089,126.785,165.975Q126.741,165.86,126.704,165.743Q126.666,165.626,126.634,165.508Q126.602,165.389,126.576,165.269Q126.549,165.15,126.529,165.028Q126.509,164.907,126.494,164.786Q126.48,164.664,126.472,164.541Q126.464,164.419,126.461,164.296Q126.459,164.173,126.463,164.051Q126.466,163.928,126.476,163.805Q126.486,163.683,126.502,163.561Q126.517,163.44,126.539,163.319Q126.561,163.198,126.588,163.078Q126.616,162.959,126.649,162.841Q126.683,162.723,126.722,162.606Q126.761,162.49,126.806,162.376Q126.851,162.261,126.901,162.15Q126.952,162.038,127.008,161.928Q127.063,161.819,127.125,161.713Q127.186,161.606,127.252,161.503Q127.318,161.4,127.389,161.3Q127.461,161.2,127.537,161.103Q127.613,161.007,127.694,160.915Q127.774,160.822,127.859,160.734Q127.945,160.645,128.034,160.561Q128.123,160.477,128.21699999999998,160.397Q128.31,160.318,128.40699999999998,160.243Q128.505,160.168,128.60500000000002,160.098Q128.70600000000002,160.028,128.81,159.963Q128.914,159.898,129.022,159.838Q141.531,152.848,150.837,141.951Q150.917,141.857,151.001,141.768Q151.085,141.679,151.173,141.594Q151.262,141.509,151.354,141.428Q151.447,141.347,151.543,141.271Q151.64,141.195,151.74,141.124Q151.84,141.053,151.943,140.987Q152.047,140.921,152.153,140.859Q152.26,140.798,152.369,140.743Q152.478,140.687,152.59,140.637Q152.702,140.586,152.816,140.542Q152.931,140.497,153.047,140.458Q153.163,140.419,153.282,140.385Q153.4,140.352,153.519,140.325Q153.639,140.297,153.76,140.276Q153.881,140.254,154.002,140.238Q154.124,140.223,154.246,140.213Q154.369,140.203,154.492,140.2Q154.614,140.196,154.737,140.199Q154.86,140.201,154.982,140.209Q155.105,140.218,155.226,140.232Q155.348,140.247,155.469,140.267Q155.59,140.287,155.71,140.314Q155.83,140.34,155.949,140.372Q156.067,140.404,156.184,140.442Q156.301,140.48,156.415,140.524Q156.53,140.567,156.643,140.616Q156.755,140.666,156.865,140.72Q156.975,140.775,157.082,140.835Q157.189,140.895,157.293,140.96Q157.397,141.025,157.498,141.095Q157.598,141.165,157.696,141.241Q157.793,141.316,157.886,141.395Q157.979,141.475,158.069,141.559Q158.158,141.643,158.243,141.732Q158.328,141.82,158.409,141.913Q158.49,142.005,158.566,142.102Q158.642,142.198,158.713,142.298Q158.784,142.398,158.85,142.502Q158.916,142.605,158.977,142.711Q159.038,142.818,159.094,142.927Q159.15,143.037,159.2,143.149Q159.25,143.261,159.295,143.375Q159.34,143.489,159.379,143.605Q159.418,143.722,159.451,143.84Q159.485,143.958,159.512,144.078Q159.54,144.197,159.561,144.318Q159.583,144.439,159.598,144.561Q159.614,144.682,159.624,144.805Q159.633,144.927,159.637,145.05Q159.641,145.173,159.638,145.295Q159.636,145.418,159.627,145.54Q159.619,145.663,159.605,145.785Q159.59,145.907,159.57,146.028Q159.549,146.149,159.523,146.269Q159.497,146.389,159.465,146.507Q159.433,146.626,159.395,146.742Q159.357,146.859,159.313,146.974Q159.269,147.088,159.22,147.201Q159.171,147.313,159.117,147.423Q159.062,147.533,159.002,147.64Q158.942,147.747,158.877,147.851Q158.812,147.955,158.741,148.056Q158.671,148.157,158.596,148.254Q158.521,148.351,158.442,148.445ZM103.9815,178.907Q97.0335,180,90,180Q81.134,180,72.4383,178.27Q72.3179,178.246,72.1988,178.216Q72.0798,178.186,71.9623,178.151Q71.8448,178.115,71.7293,178.074Q71.6137,178.032,71.5003,177.985Q71.3869,177.938,71.276,177.886Q71.165,177.833,71.0568,177.776Q70.9485,177.718,70.8432,177.655Q70.738,177.591,70.6359,177.523Q70.5338,177.455,70.4352,177.382Q70.3367,177.309,70.2418,177.231Q70.1469,177.153,70.056,177.071Q69.965,176.988,69.8782,176.901Q69.7914,176.815,69.709,176.724Q69.6266,176.633,69.5487,176.538Q69.4709,176.443,69.3978,176.344Q69.3246,176.246,69.2565,176.144Q69.1883,176.042,69.1252,175.936Q69.0621,175.831,69.0042,175.723Q68.9464,175.615,68.8939,175.504Q68.8414,175.393,68.7944,175.279Q68.7475,175.166,68.70609999999999,175.05Q68.6648,174.935,68.6292,174.817Q68.5935,174.7,68.5637,174.581Q68.5339,174.462,68.5099,174.341Q68.48599999999999,174.221,68.468,174.1Q68.45,173.978,68.438,173.856Q68.4259,173.734,68.4199,173.611Q68.4139,173.489,68.4139,173.366Q68.4139,173.243,68.42,173.121Q68.426,172.998,68.438,172.876Q68.45009999999999,172.754,68.46809999999999,172.632Q68.4861,172.511,68.50999999999999,172.39Q68.53399999999999,172.27,68.5638,172.151Q68.5937,172.032,68.6293,171.914Q68.6649,171.797,68.7063,171.681Q68.7476,171.566,68.7946,171.452Q68.8416,171.339,68.89410000000001,171.228Q68.9465,171.117,69.0044,171.009Q69.0623,170.901,69.1254,170.795Q69.1885,170.69,69.2567,170.588Q69.3249,170.486,69.398,170.387Q69.4711,170.289,69.549,170.194Q69.6269,170.099,69.7093,170.008Q69.7917,169.917,69.8785,169.83Q69.9653,169.744,70.0563,169.661Q70.1472,169.579,70.2421,169.501Q70.337,169.423,70.4356,169.35Q70.5342,169.277,70.6362,169.209Q70.7383,169.14,70.8436,169.077Q70.9489,169.014,71.0571,168.956Q71.1654,168.899,71.2763,168.846Q71.3873,168.794,71.5007,168.747Q71.6141,168.7,71.7297,168.658Q71.8452,168.617,71.9627,168.581Q72.0801,168.546,72.1992,168.516Q72.3183,168.486,72.4387,168.462Q72.5591,168.438,72.6805,168.42Q72.8019,168.402,72.924,168.39Q73.0462,168.378,73.1688,168.372Q73.2914,168.366,73.4141,168.366Q73.5369,168.366,73.6595,168.372Q73.7821,168.378,73.9042,168.39Q74.0264,168.402,74.1478,168.42Q74.2692,168.438,74.3896,168.462Q82.1191,170,90,170Q96.252,170,102.428,169.029Q102.5492,169.01,102.6713,168.997Q102.7933,168.983,102.9159,168.976Q103.0384,168.969,103.1611,168.968Q103.2839,168.967,103.4065,168.972Q103.5292,168.977,103.6514,168.988Q103.7737,168.999,103.8952,169.016Q104.0168,169.033,104.1374,169.056Q104.258,169.079,104.3773,169.107Q104.4966,169.136,104.6144,169.171Q104.7321,169.205,104.8481,169.246Q104.964,169.286,105.078,169.332Q105.192,169.378,105.303,169.43Q105.414,169.481,105.523,169.538Q105.632,169.595,105.738,169.657Q105.844,169.719,105.946,169.787Q106.049,169.854,106.148,169.926Q106.247,169.998,106.343,170.075Q106.438,170.152,106.53,170.234Q106.622,170.316,106.709,170.402Q106.797,170.488,106.88,170.578Q106.963,170.668,107.042,170.762Q107.121,170.857,107.195,170.955Q107.269,171.053,107.338,171.154Q107.407,171.255,107.471,171.36Q107.535,171.465,107.594,171.573Q107.652,171.68,107.706,171.791Q107.759,171.901,107.807,172.014Q107.855,172.127,107.898,172.243Q107.94,172.358,107.977,172.475Q108.013,172.592,108.044,172.711Q108.075,172.83,108.1,172.95Q108.125,173.07,108.144,173.191Q108.163,173.313,108.176,173.435Q108.189,173.557,108.196,173.679Q108.203,173.802,108.205,173.924Q108.206,174.047,108.201,174.17Q108.196,174.292,108.185,174.415Q108.174,174.537,108.157,174.659Q108.14,174.78,108.117,174.901Q108.094,175.021,108.065,175.141Q108.037,175.26,108.002,175.378Q107.967,175.495,107.927,175.611Q107.887,175.727,107.841,175.841Q107.795,175.955,107.743,176.066Q107.692,176.178,107.635,176.286Q107.578,176.395,107.516,176.501Q107.453,176.607,107.386,176.71Q107.319,176.812,107.247,176.911Q107.174,177.011,107.097,177.106Q107.02,177.202,106.939,177.293Q106.857,177.385,106.771,177.473Q106.685,177.56,106.595,177.643Q106.504,177.727,106.41,177.805Q106.316,177.884,106.218,177.958Q106.12,178.032,106.019,178.101Q105.917,178.17,105.813,178.234Q105.708,178.298,105.6,178.357Q105.492,178.416,105.382,178.469Q105.271,178.523,105.158,178.571Q105.045,178.619,104.9302,178.661Q104.815,178.703,104.6978,178.74Q104.5807,178.777,104.4619,178.807Q104.3431,178.838,104.2229,178.863Q104.1027,178.888,103.9815,178.907ZM42.9671,166.733Q29.2336,158.315,19.2723,145.656Q19.1964,145.56,19.1253,145.46Q19.0542,145.359,18.9882,145.256Q18.9221,145.153,18.8612,145.046Q18.8002,144.939,18.7446,144.83Q18.689,144.721,18.6388,144.609Q18.5886,144.497,18.5439,144.382Q18.499299999999998,144.268,18.4603,144.152Q18.4214,144.035,18.388199999999998,143.917Q18.3549,143.799,18.3276,143.679Q18.3002,143.559,18.2787,143.439Q18.2573,143.318,18.2417,143.196Q18.2262,143.074,18.2167,142.952Q18.2072,142.83,18.203699999999998,142.707Q18.200200000000002,142.584,18.2027,142.461Q18.205199999999998,142.339,18.2137,142.216Q18.2223,142.094,18.236800000000002,141.972Q18.2513,141.85,18.2718,141.729Q18.292299999999997,141.608,18.3188,141.488Q18.3452,141.368,18.3774,141.25Q18.4097,141.131,18.447699999999998,141.015Q18.4857,140.898,18.5295,140.783Q18.5732,140.669,18.622500000000002,140.556Q18.671799999999998,140.444,18.7265,140.334Q18.7812,140.224,18.8413,140.117Q18.901400000000002,140.01,18.9666,139.906Q19.0319,139.802,19.1022,139.701Q19.1724,139.601,19.2476,139.504Q19.322699999999998,139.407,19.4025,139.313Q19.482300000000002,139.22,19.5666,139.131Q19.6508,139.042,19.7394,138.957Q19.8279,138.872,19.9206,138.791Q20.013199999999998,138.711,20.1096,138.635Q20.2061,138.559,20.3062,138.488Q20.4062,138.417,20.509700000000002,138.351Q20.6131,138.284,20.7197,138.224Q20.8262,138.163,20.9356,138.107Q21.045,138.051,21.157,138.001Q21.2691,137.951,21.3834,137.906Q21.4977,137.862,21.6141,137.823Q21.7305,137.784,21.8487,137.751Q21.9668,137.717,22.0865,137.69Q22.2062,137.663,22.327,137.641Q22.4479,137.62,22.5696,137.604Q22.6914,137.589,22.8137,137.579Q22.9361,137.57,23.0588,137.566Q23.1815,137.563,23.3042,137.565Q23.4269,137.568,23.5494,137.576Q23.6718,137.585,23.7937,137.599Q23.9156,137.614,24.0366,137.634Q24.1576,137.655,24.2775,137.681Q24.3974,137.708,24.5158,137.74Q24.6342,137.772,24.7509,137.81Q24.8676,137.848,24.9823,137.892Q25.097,137.936,25.2094,137.985Q25.3218,138.034,25.4317,138.089Q25.5416,138.144,25.6486,138.204Q25.7556,138.264,25.8596,138.329Q25.9636,138.394,26.0642,138.465Q26.1648,138.535,26.2619,138.61Q26.359,138.685,26.4522,138.765Q26.5455,138.845,26.6347,138.929Q26.724,139.013,26.809,139.102Q26.894,139.19,26.9745,139.283Q27.055,139.376,27.131,139.472Q35.9854,150.724,48.193,158.207Q48.2976,158.271,48.399,158.34Q48.5004,158.409,48.5982,158.483Q48.6961,158.558,48.7902,158.636Q48.8843,158.715,48.9744,158.798Q49.0646,158.882,49.1505,158.969Q49.2364,159.057,49.3179,159.149Q49.3995,159.241,49.4764,159.336Q49.5533,159.432,49.6254,159.531Q49.6976,159.631,49.7647,159.733Q49.8319,159.836,49.894,159.942Q49.956,160.048,50.0128,160.157Q50.0696,160.265,50.121,160.377Q50.1724,160.488,50.2182,160.602Q50.264,160.716,50.3042,160.832Q50.3444,160.948,50.3789,161.066Q50.4134,161.184,50.442,161.303Q50.4707,161.422,50.4934,161.543Q50.5162,161.664,50.533,161.785Q50.5498,161.907,50.5606,162.029Q50.5714,162.151,50.5762,162.274Q50.581,162.397,50.5798,162.519Q50.5786,162.642,50.5713,162.765Q50.5641,162.887,50.5509,163.009Q50.5376,163.131,50.5184,163.252Q50.4992,163.374,50.474,163.494Q50.4489,163.614,50.4179,163.733Q50.3869,163.851,50.3501,163.969Q50.3133,164.086,50.2708,164.201Q50.2283,164.316,50.1802,164.429Q50.1321,164.542,50.0786,164.652Q50.025,164.763,49.9661,164.87Q49.9071,164.978,49.843,165.083Q49.7788,165.187,49.7096,165.289Q49.6404,165.39,49.5663,165.488Q49.4922,165.586,49.4134,165.68Q49.3346,165.774,49.2513,165.864Q49.168,165.954,49.0803,166.04Q48.9927,166.126,48.9009,166.208Q48.8092,166.289,48.7135,166.366Q48.6179,166.443,48.5186,166.515Q48.4192,166.587,48.3165,166.654Q48.2138,166.722,48.1079,166.784Q48.002,166.846,47.8932,166.903Q47.7844,166.959,47.6729,167.011Q47.5614,167.062,47.4475,167.108Q47.3337,167.154,47.2177,167.194Q47.1017,167.234,46.9839,167.269Q46.8661,167.303,46.7468,167.332Q46.6274,167.36,46.5068,167.383Q46.3862,167.406,46.2646,167.423Q46.143,167.439,46.0207,167.45Q45.8985,167.461,45.7758,167.466Q45.6532,167.471,45.5304,167.469Q45.4077,167.468,45.2852,167.461Q45.1626,167.454,45.0406,167.441Q44.9186,167.427,44.7974,167.408Q44.6761,167.389,44.556,167.364Q44.4359,167.339,44.3171,167.308Q44.1983,167.277,44.0812,167.24Q43.9641,167.203,43.849,167.161Q43.7338,167.118,43.6209,167.07Q43.508,167.022,43.3975,166.968Q43.2871,166.915,43.1794,166.856Q43.0718,166.797,42.9671,166.733ZM4.355983,117.66Q0,104.1732,0,90Q0,88.2466,0.06829000000000018,86.4946Q0.07307000000000041,86.3719,0.08387000000000011,86.2497Q0.09466000000000019,86.1274,0.11143999999999998,86.0058Q0.12821999999999978,85.8842,0.1509400000000003,85.7636Q0.17367000000000044,85.643,0.20228999999999964,85.5236Q0.2309000000000001,85.4043,0.26534000000000013,85.2864Q0.29978000000000016,85.1686,0.3399599999999996,85.0527Q0.3801399999999999,84.9367,0.4259599999999999,84.8228Q0.47177999999999987,84.7089,0.5231300000000001,84.5974Q0.57449,84.486,0.6312499999999996,84.3771Q0.6880100000000002,84.2683,0.7500400000000003,84.1624Q0.8120700000000003,84.0565,0.8792299999999997,83.9537Q0.9463800000000004,83.851,1.0185,83.7517Q1.09062,83.6523,1.1675200000000001,83.5567Q1.2444199999999999,83.461,1.32592,83.3692Q1.4074300000000002,83.2775,1.49334,83.1898Q1.57925,83.1021,1.6693500000000001,83.0188Q1.7594599999999998,82.9354,1.8535499999999998,82.8566Q1.9476399999999998,82.7778,2.04548,82.7037Q2.14332,82.6296,2.24468,82.5603Q2.34604,82.4911,2.45068,82.4269Q2.55532,82.3628,2.66297,82.3038Q2.77063,82.2449,2.88105,82.1913Q2.99147,82.1377,3.10439,82.0896Q3.21731,82.0414,3.3324499999999997,81.9989Q3.4476,81.9564,3.5646899999999997,81.9196Q3.68178,81.8828,3.80054,81.8517Q3.91929,81.8207,4.039428,81.7955Q4.159564,81.7704,4.28079,81.7511Q4.402016,81.7319,4.52404,81.7186Q4.646064,81.7054,4.768592,81.6981Q4.891119,81.6908,5.0138563,81.6896Q5.136593,81.6884,5.259243,81.6931Q5.381893,81.6979,5.504161,81.7087Q5.626428,81.7195,5.748019,81.7363Q5.86961,81.7531,5.990231,81.7758Q6.11085,81.7985,6.23021,81.8271Q6.34957,81.8557,6.46739,81.8902Q6.5852,81.9246,6.70118,81.9648Q6.81716,82.005,6.93103,82.0508Q7.0449,82.0966,7.15638,82.148Q7.26787,82.1993,7.3767,82.2561Q7.48553,82.3128,7.59144,82.3749Q7.69736,82.4369,7.8001000000000005,82.5041Q7.902839999999999,82.5712,8.00217,82.6433Q8.10149,82.7155,8.19715,82.7924Q8.292819999999999,82.8693,8.384599999999999,82.9508Q8.47637,83.0323,8.56404,83.1182Q8.65171,83.2041,8.735050000000001,83.2942Q8.8184,83.3843,8.89722,83.4784Q8.97605,83.5725,9.05016,83.6703Q9.12427,83.7682,9.1935,83.8695Q9.26272,83.9709,9.326889999999999,84.0755Q9.39105,84.1801,9.45,84.2878Q9.50896,84.3955,9.562560000000001,84.5059Q9.61616,84.6163,9.66428,84.7292Q9.712399999999999,84.8421,9.75492,84.9573Q9.79743,85.0724,9.83425,85.1895Q9.87107,85.3066,9.9021,85.4254Q9.93313,85.5441,9.95829,85.6643Q9.983460000000001,85.7844,10.0027,85.9056Q10.021930000000001,86.0269,10.0352,86.1489Q10.04847,86.2709,10.05573,86.3934Q10.062999999999999,86.516,10.06424,86.6387Q10.06548,86.7614,10.0607,86.8841Q10,88.4415,10,90Q10,102.5984,13.87198,114.587Q13.90971,114.704,13.94166,114.822Q13.9736,114.941,13.9997,115.061Q14.02579,115.181,14.04597,115.302Q14.06614,115.423,14.08035,115.545Q14.09457,115.667,14.10278,115.789Q14.11099,115.912,14.11319,116.034Q14.11538,116.157,14.11155,116.28Q14.10772,116.403,14.09787,116.525Q14.08803,116.647,14.07219,116.769Q14.05635,116.891,14.03456,117.011Q14.01277,117.132,13.98508,117.252Q13.95739,117.371,13.92386,117.489Q13.89033,117.608,13.85105,117.724Q13.81177,117.84,13.76684,117.954Q13.7219,118.069,13.67141,118.18Q13.62092,118.292,13.56501,118.402Q13.50909,118.511,13.44788,118.617Q13.38667,118.724,13.32031,118.827Q13.25395,118.93,13.1826,119.03Q13.11126,119.13,13.0351,119.226Q12.95894,119.322,12.87815,119.415Q12.797360000000001,119.507,12.71213,119.596Q12.6269,119.684,12.53745,119.768Q12.44799,119.852,12.354510000000001,119.932Q12.261040000000001,120.011,12.16377,120.086Q12.066510000000001,120.161,11.965679999999999,120.231Q11.86486,120.301,11.760729999999999,120.366Q11.65659,120.431,11.549389999999999,120.491Q11.44219,120.55,11.33219,120.605Q11.222190000000001,120.659,11.109639999999999,120.708Q10.9971,120.757,10.882290000000001,120.801Q10.767479999999999,120.844,10.650680000000001,120.882Q10.53388,120.919,10.41536,120.951Q10.29685,120.983,10.17691,121.009Q10.05698,121.036,9.9359,121.056Q9.81483,121.076,9.692910000000001,121.09Q9.57099,121.104,9.44852,121.113Q9.32606,121.121,9.203330000000001,121.123Q9.08061,121.125,8.957930000000001,121.121Q8.83524,121.118,8.7129,121.108Q8.59055,121.098,8.46883,121.082Q8.34711,121.066,8.22632,121.044Q8.10553,121.023,7.98595,120.995Q7.86637,120.967,7.74829,120.934Q7.63022,120.9,7.51393,120.861Q7.39764,120.822,7.28342,120.777Q7.1692,120.732,7.05732,120.681Q6.94544,120.631,6.83618,120.575Q6.72691,120.519,6.62052,120.458Q6.51413,120.396,6.41087,120.33Q6.30761,120.264,6.20773,120.192Q6.10785,120.121,6.01159,120.045Q5.915334,119.969,5.822929,119.888Q5.730524,119.807,5.642194,119.722Q5.553865,119.637,5.469824,119.547Q5.385782,119.458,5.306232,119.364Q5.226681,119.271,5.151813,119.174Q5.0769452,119.076,5.00693991,118.975Q4.9369346,118.875,4.871961,118.771Q4.806987,118.666,4.7472010000000004,118.559Q4.687415,118.452,4.632961,118.342Q4.578507,118.232,4.529517,118.119Q4.480526,118.007,4.437117,117.892Q4.393707,117.777,4.355983,117.66ZM6.86893,55.5149Q13.03166,40.6588,23.9584,28.8567Q24.0418,28.7666,24.1295,28.6807Q24.2172,28.5949,24.309,28.5134Q24.4008,28.432,24.4965,28.3551Q24.5922,28.2782,24.6916,28.2062Q24.7909,28.1341,24.8937,28.067Q24.9965,27.9999,25.1024,27.9379Q25.2084,27.8759,25.3172,27.8192Q25.4261,27.7625,25.5376,27.7112Q25.6491,27.6599,25.763,27.6141Q25.8769,27.5684,25.9929,27.5282Q26.1089,27.4881,26.2267,27.4537Q26.3445,27.4193,26.4639,27.3908Q26.5833,27.3622,26.7039,27.3396Q26.8245,27.3169,26.9461,27.3002Q27.0677,27.2834,27.19,27.2727Q27.3123,27.262,27.4349,27.2572Q27.5576,27.2525,27.6803,27.2538Q27.8031,27.2551,27.9256,27.2624Q28.0481,27.2698,28.1701,27.2831Q28.2921,27.2964,28.4134,27.3157Q28.5346,27.335,28.6547,27.3602Q28.7748,27.3854,28.8936,27.4165Q29.0123,27.4476,29.1294,27.4845Q29.2465,27.5214,29.3616,27.5639Q29.4767,27.6065,29.5896,27.6547Q29.7025,27.7028,29.8129,27.7565Q29.9233,27.8101,30.0309,27.8692Q30.1386,27.9282,30.2432,27.9924Q30.3478,28.0566,30.4491,28.1259Q30.5504,28.1951,30.6482,28.2693Q30.746,28.3434,30.8401,28.4223Q30.9341,28.5012,31.0242,28.5846Q31.1143,28.668,31.2001,28.7557Q31.286,28.8434,31.3675,28.9352Q31.4489,29.027,31.5258,29.1227Q31.6027,29.2184,31.6747,29.3178Q31.7468,29.4171,31.8139,29.5199Q31.881,29.6227,31.943,29.7286Q32.004999999999995,29.8345,32.0617,29.9434Q32.1184,30.0523,32.1697,30.1638Q32.221000000000004,30.2753,32.2668,30.3892Q32.3125,30.5031,32.3527,30.6191Q32.3928,30.7351,32.4272,30.8529Q32.4615,30.9707,32.4901,31.0901Q32.518699999999995,31.2095,32.5413,31.3301Q32.564,31.4507,32.5807,31.5723Q32.5975,31.6939,32.6082,31.8162Q32.6189,31.9385,32.6237,32.061099999999996Q32.6284,32.183800000000005,32.6271,32.3065Q32.6258,32.4292,32.6185,32.5518Q32.6111,32.6743,32.5978,32.7963Q32.5845,32.9183,32.565200000000004,33.039500000000004Q32.5459,33.160799999999995,32.520700000000005,33.2809Q32.4955,33.400999999999996,32.4644,33.519800000000004Q32.4333,33.6385,32.3964,33.7556Q32.3595,33.8726,32.317,33.9878Q32.2744,34.102900000000005,32.2262,34.2158Q32.1781,34.3287,32.1244,34.439099999999996Q32.0708,34.549499999999995,32.0118,34.6571Q31.9527,34.764700000000005,31.8885,34.869299999999996Q31.8243,34.9739,31.755,35.0753Q31.6858,35.1766,31.6116,35.2744Q31.5375,35.3722,31.4586,35.466300000000004Q31.3797,35.5603,31.2963,35.650400000000005Q21.5837,46.1411,16.1057,59.3465Q16.0587,59.4599,16.0061,59.5708Q15.9536,59.6818,15.8957,59.79Q15.8378,59.8982,15.7746,60.0035Q15.7115,60.1087,15.6432,60.2107Q15.575,60.3127,15.5018,60.4113Q15.4286,60.5098,15.3507,60.6047Q15.2728,60.6995,15.1903,60.7904Q15.1078,60.8813,15.021,60.9681Q14.93416,61.0548,14.84317,61.1372Q14.75218,61.2196,14.65726,61.2974Q14.56234,61.3752,14.46371,61.4483Q14.36508,61.5214,14.26299,61.5895Q14.1609,61.6576,14.05558,61.7207Q13.95027,61.7837,13.84199,61.8415Q13.73371,61.8993,13.62272,61.9518Q13.51174,62.0042,13.39831,62.0511Q13.28489,62.098,13.1693,62.1393Q13.05371,62.1806,12.93623,62.2162Q12.818760000000001,62.2517,12.69968,62.2815Q12.58059,62.3113,12.4602,62.3351Q12.3398,62.359,12.21838,62.377Q12.09695,62.3949,11.974789999999999,62.4069Q11.852640000000001,62.4188,11.730039999999999,62.4248Q11.60744,62.4308,11.4847,62.4307Q11.36195,62.4306,11.23936,62.4245Q11.116769999999999,62.4185,10.994620000000001,62.4064Q10.87248,62.3943,10.75107,62.3762Q10.62967,62.3581,10.50929,62.3341Q10.388919999999999,62.3101,10.269870000000001,62.2802Q10.15082,62.2503,10.03339,62.2146Q9.915949999999999,62.179,9.8004,62.1375Q9.68485,62.0961,9.571480000000001,62.0491Q9.4581,62.0021,9.34717,61.9495Q9.236239999999999,61.897,9.12802,61.8391Q9.0198,61.7812,8.91456,61.718Q8.80931,61.6548,8.70729,61.5866Q8.60527,61.5183,8.50672,61.4452Q8.40817,61.372,8.31333,61.2941Q8.21848,61.2162,8.12758,61.1337Q8.03668,61.0512,7.94993,60.9644Q7.86318,60.8775,7.7808,60.7865Q7.6984200000000005,60.6956,7.6206,60.6006Q7.54279,60.5057,7.469720000000001,60.4071Q7.39665,60.3085,7.32851,60.2064Q7.26038,60.1043,7.19733,59.999Q7.13428,59.8936,7.07648,59.7854Q7.01867,59.6771,6.9662500000000005,59.5661Q6.91383,59.4551,6.86692,59.3417Q6.82001,59.2283,6.77872,59.1127Q6.73743,58.9971,6.70186,58.8796Q6.66629,58.7621,6.6365300000000005,58.643Q6.6067599999999995,58.524,6.58288,58.4036Q6.559,58.2832,6.54105,58.1618Q6.52311,58.0403,6.51114,57.9182Q6.4991699999999994,57.796,6.4932099999999995,57.6734Q6.48726,57.5508,6.48732,57.4281Q6.48738,57.3053,6.49347,57.1827Q6.49956,57.0601,6.5116499999999995,56.938Q6.52375,56.8159,6.5418199999999995,56.6944Q6.5599,56.573,6.5839099999999995,56.4527Q6.60792,56.3323,6.6378,56.2133Q6.66769,56.0942,6.70338,55.9768Q6.73907,55.8593,6.78048,55.7438Q6.8219,55.6282,6.86893,55.5149ZM49.2879,9.73468Q63.6489,2.45049,79.6448,0.5977100000000002Q79.7667,0.58359,79.8892,0.5754700000000001Q80.0116,0.5673500000000002,80.1344,0.5652400000000002Q80.2571,0.5631399999999998,80.3798,0.5670599999999997Q80.5024,0.5709799999999996,80.6248,0.5809100000000003Q80.7471,0.5908499999999997,80.8688,0.6067799999999997Q80.9905,0.6227,81.1113,0.6445800000000004Q81.2321,0.6664599999999998,81.3516,0.6942399999999997Q81.4712,0.7220199999999997,81.5893,0.75563Q81.7073,0.7892400000000004,81.8236,0.8286100000000003Q81.9398,0.8679699999999997,82.054,0.9129899999999997Q82.1682,0.9580099999999998,82.28,1.0085899999999999Q82.3919,1.0591599999999999,82.5011,1.1151499999999999Q82.6103,1.17115,82.7167,1.23244Q82.823,1.29373,82.9262,1.36016Q83.0294,1.42659,83.1293,1.4980099999999998Q83.2291,1.56943,83.3253,1.64566Q83.4215,1.7218900000000001,83.5138,1.80275Q83.6062,1.8836,83.6945,1.9689Q83.7827,2.05419,83.8667,2.14371Q83.9507,2.23323,84.0302,2.32676Q84.1096,2.4203,84.1844,2.51762Q84.2592,2.61494,84.3292,2.71581Q84.3991,2.81668,84.464,2.92087Q84.5289,3.0250500000000002,84.5886,3.1322900000000002Q84.6483,3.23954,84.7027,3.34958Q84.7571,3.45962,84.806,3.5722Q84.8549,3.68478,84.8982,3.79962Q84.9415,3.91446,84.9792,4.031292Q85.0168,4.148121,85.0487,4.266657Q85.0805,4.385193,85.1065,4.50515Q85.1325,4.625106,85.1526,4.746194Q85.1727,4.867283,85.1868,4.9892105Q85.201,5.111138,85.2091,5.233612Q85.2172,5.356086,85.2193,5.478812Q85.2214,5.601537,85.2175,5.724217Q85.2136,5.846897,85.2036,5.969238Q85.1937,6.09158,85.1778,6.21328Q85.1619,6.3349899999999995,85.14,6.45577Q85.1181,6.57654,85.0903,6.6960999999999995Q85.0625,6.81566,85.0289,6.93371Q84.9953,7.05176,84.9559,7.16802Q84.9166,7.28428,84.8716,7.39847Q84.8265,7.51266,84.776,7.624499999999999Q84.7254,7.73634,84.6694,7.84557Q84.6134,7.95479,84.5521,8.06114Q84.4908,8.16749,84.4244,8.2707Q84.358,8.37391,84.2866,8.47373Q84.2151,8.57356,84.1389,8.66976Q84.0627,8.76597,83.9818,8.85831Q83.901,8.95066,83.8157,9.03893Q83.7304,9.127189999999999,83.6409,9.21117Q83.5513,9.29514,83.4578,9.37463Q83.3643,9.45411,83.2669,9.52891Q83.1696,9.6037,83.0687,9.67363Q82.9679,9.74357,82.8637,9.80846Q82.7595,9.87336,82.6523,9.93307Q82.545,9.99278,82.435,10.04715Q82.3249,10.10152,82.2124,10.15043Q82.0998,10.19934,81.9849,10.24266Q81.8701,10.28599,81.7533,10.32363Q81.6364,10.361270000000001,81.5179,10.39313Q81.3994,10.424990000000001,81.2794,10.450990000000001Q81.1595,10.477,81.0384,10.49709Q80.9173,10.51718,80.7953,10.5313Q66.57679999999999,12.17821,53.8114,18.653100000000002Q53.702,18.7086,53.5899,18.758699999999997Q53.4778,18.8087,53.3635,18.8533Q53.2491,18.8978,53.1326,18.936700000000002Q53.0162,18.9755,52.898,19.0086Q52.7798,19.0417,52.6601,19.069000000000003Q52.5405,19.0962,52.4196,19.1176Q52.2987,19.139,52.1769,19.154400000000003Q52.0552,19.169800000000002,51.9328,19.1792Q51.8104,19.1886,51.6877,19.192Q51.565,19.1953,51.4423,19.192700000000002Q51.3196,19.1901,51.1972,19.1814Q51.0747,19.172800000000002,50.9529,19.158099999999997Q50.831,19.1435,50.71,19.1229Q50.589,19.1022,50.4691,19.075699999999998Q50.3493,19.0492,50.2309,19.0168Q50.1125,18.9844,49.9958,18.9463Q49.8792,18.9082,49.7645,18.8643Q49.6499,18.8205,49.5375,18.7711Q49.4251,18.7217,49.3153,18.6669Q49.2055,18.612000000000002,49.0985,18.5519Q48.9915,18.4917,48.8876,18.426299999999998Q48.7837,18.361,48.6832,18.290599999999998Q48.5826,18.2203,48.4856,18.145Q48.3886,18.0698,48.2954,17.9899Q48.2022,17.91,48.1131,17.825699999999998Q48.0239,17.741300000000003,47.939,17.6527Q47.8541,17.564,47.7737,17.4714Q47.6932,17.378700000000002,47.6174,17.2821Q47.5416,17.1856,47.4706,17.0855Q47.3996,16.985300000000002,47.3336,16.8818Q47.2676,16.7783,47.2068,16.6717Q47.146,16.5651,47.0905,16.4556Q47.0349,16.3462,46.9848,16.234099999999998Q46.9348,16.1221,46.8902,16.0077Q46.8457,15.8933,46.8068,15.7769Q46.768,15.6604,46.7349,15.5422Q46.7018,15.424,46.6745,15.3044Q46.6473,15.1847,46.6259,15.0638Q46.6045,14.94295,46.5891,14.82117Q46.5737,14.6994,46.5643,14.57702Q46.5549,14.45464,46.5515,14.33194Q46.5481,14.20924,46.5508,14.08653Q46.5534,13.96381,46.5621,13.84138Q46.5707,13.71894,46.5854,13.59707Q46.6,13.47521,46.6206,13.35421Q46.6413,13.23321,46.6678,13.11337Q46.6943,12.99352,46.7267,12.875119999999999Q46.7591,12.756730000000001,46.7972,12.64006Q46.8353,12.523399999999999,46.8792,12.40874Q46.923,12.29409,46.9724,12.18172Q47.0218,12.06936,47.0766,11.95955Q47.1315,11.84975,47.1916,11.74276Q47.2518,11.63578,47.3172,11.531880000000001Q47.3825,11.42798,47.4529,11.32741Q47.5232,11.22684,47.5985,11.12984Q47.6737,11.03285,47.7536,10.93966Q47.8335,10.84647,47.9178,10.75731Q48.0022,10.66816,48.0908,10.58325Q48.1794,10.498339999999999,48.2721,10.41788Q48.3648,10.33742,48.4614,10.261610000000001Q48.5579,10.1858,48.658,10.11481Q48.7582,10.04383,48.8617,9.97784Q48.9652,9.91186,49.0718,9.85103Q49.1784,9.790199999999999,49.2879,9.73468ZM111.021,2.48931Q126.694,6.2542100000000005,140.087,15.2249Q140.189,15.2932,140.287,15.3664Q140.386,15.4396,140.481,15.5176Q140.575,15.5956,140.666,15.6781Q140.757,15.7607,140.844,15.8476Q140.93,15.9344,141.013,16.0255Q141.095,16.116500000000002,141.173,16.2115Q141.251,16.3065,141.324,16.405099999999997Q141.397,16.5038,141.465,16.6059Q141.533,16.7081,141.596,16.8134Q141.659,16.918799999999997,141.716,17.0271Q141.774,17.1354,141.826,17.2464Q141.879,17.3575,141.926,17.4709Q141.973,17.584400000000002,142.014,17.7Q142.055,17.8156,142.09,17.9331Q142.126,18.0506,142.156,18.1697Q142.185,18.288800000000002,142.209,18.4092Q142.233,18.529600000000002,142.251,18.651Q142.269,18.7725,142.281,18.8946Q142.292,19.0168,142.298,19.139400000000002Q142.304,19.262,142.304,19.3848Q142.304,19.5075,142.298,19.6301Q142.292,19.7527,142.279,19.8748Q142.267,19.997,142.249,20.118299999999998Q142.231,20.2397,142.207,20.3601Q142.183,20.4805,142.153,20.5995Q142.123,20.7185,142.087,20.835900000000002Q142.051,20.953400000000002,142.01,21.0689Q141.968,21.1844,141.921,21.2977Q141.874,21.4111,141.822,21.522Q141.769,21.6329,141.711,21.7411Q141.653,21.8493,141.59,21.9545Q141.527,22.0597,141.458,22.1616Q141.39,22.2636,141.317,22.3621Q141.244,22.4606,141.166,22.5554Q141.088,22.6502,141.005,22.7411Q140.923,22.8319,140.836,22.9186Q140.749,23.0053,140.658,23.0876Q140.567,23.17,140.472,23.2477Q140.377,23.3255,140.278,23.3985Q140.179,23.4715,140.077,23.5396Q139.975,23.6076,139.87,23.6706Q139.764,23.7336,139.656,23.7913Q139.548,23.8491,139.437,23.9014Q139.326,23.9538,139.212,24.0006Q139.099,24.0475,138.983,24.0887Q138.868,24.1299,138.75,24.1654Q138.633,24.2009,138.514,24.2306Q138.394,24.2603,138.274,24.2841Q138.154,24.3079,138.032,24.3258Q137.911,24.3436,137.789,24.3555Q137.666,24.3674,137.544,24.3733Q137.421,24.3792,137.298,24.379Q137.176,24.3789,137.053,24.3727Q136.93,24.3666,136.808,24.3544Q136.686,24.3422,136.565,24.3241Q136.443,24.3059,136.323,24.2819Q136.203,24.2578,136.084,24.2278Q135.965,24.1979,135.847,24.1621Q135.73,24.1263,135.614,24.0848Q135.499,24.0434,135.385,23.9963Q135.272,23.9492,135.161,23.8966Q135.05,23.8439,134.942,23.786Q134.834,23.728,134.729,23.6648Q134.624,23.6015,134.522,23.5332Q122.617,15.5593,108.685,12.212720000000001Q108.566,12.18405,108.448,12.149560000000001Q108.33,12.11507,108.214,12.07484Q108.098,12.03461,107.985,11.98874Q107.871,11.94287,107.759,11.89147Q107.648,11.84007,107.539,11.78326Q107.43,11.72645,107.324,11.66437Q107.218,11.60229,107.116,11.53509Q107.013,11.46789,106.914,11.39573Q106.814,11.32357,106.719,11.24663Q106.623,11.16969,106.531,11.08814Q106.44,11.006599999999999,106.352,10.92065Q106.264,10.8347,106.181,10.74456Q106.098,10.65442,106.019,10.5603Q105.94,10.46617,105.866,10.3683Q105.792,10.27042,105.723,10.16903Q105.654,10.06764,105.59,9.96298Q105.525,9.85831,105.467,9.750630000000001Q105.408,9.642949999999999,105.354,9.532499999999999Q105.301,9.42206,105.252,9.30912Q105.204,9.19618,105.162,9.081019999999999Q105.119,8.96586,105.083,8.848749999999999Q105.046,8.73164,105.015,8.612870000000001Q104.984,8.4941,104.9588,8.37396Q104.9337,8.25381,104.9145,8.13257Q104.8953,8.01134,104.8821,7.88931Q104.8689,7.7672799999999995,104.8617,7.64475Q104.8545,7.52222,104.8533,7.3994800000000005Q104.8521,7.27674,104.857,7.1541Q104.8618,7.0314499999999995,104.8727,6.90918Q104.8835,6.78692,104.9003,6.6653400000000005Q104.9172,6.54375,104.9399,6.42314Q104.9627,6.30253,104.9914,6.18318Q105.02,6.06384,105.055,5.946038Q105.089,5.828241,105.129,5.712277Q105.169,5.596314,105.215,5.482464Q105.261,5.368614,105.313,5.257152Q105.364,5.14569,105.421,5.0368847Q105.478,4.9280792,105.54,4.822192Q105.602,4.716305,105.669,4.613592Q105.736,4.510878,105.808,4.411586Q105.881,4.312294,105.957,4.216662Q106.034,4.12103,106.116,4.029288Q106.197,3.93755,106.283,3.84992Q106.369,3.76229,106.46,3.67898Q106.55,3.59567,106.644,3.51689Q106.738,3.43811,106.836,3.36404Q106.934,3.2899700000000003,107.035,3.22079Q107.136,3.15161,107.241,3.08749Q107.346,3.02337,107.453,2.96446Q107.561,2.90555,107.672,2.852Q107.782,2.79845,107.895,2.75038Q108.008,2.70231,108.123,2.65984Q108.238,2.61737,108.355,2.58061Q108.472,2.54384,108.591,2.51286Q108.71,2.48188,108.83,2.45677Q108.95,2.43166,109.072,2.41247Q109.193,2.39329,109.315,2.38007Q109.437,2.36686,109.559,2.35965Q109.682,2.35244,109.805,2.35125Q109.927,2.35006,110.05,2.35489Q110.173,2.35973,110.295,2.37057Q110.417,2.38142,110.539,2.39825Q110.66,2.41508,110.781,2.43786Q110.902,2.46064,111.021,2.48931ZM162.895,37.2148Q172.351,50.2731,176.686,65.8019Q176.719,65.92009999999999,176.746,66.0398Q176.773,66.15950000000001,176.795,66.2804Q176.816,66.40129999999999,176.831,66.5231Q176.846,66.6449,176.856,66.7673Q176.865,66.8896,176.868,67.01230000000001Q176.872,67.13499999999999,176.869,67.2578Q176.866,67.3805,176.857,67.5029Q176.849,67.62530000000001,176.834,67.74719999999999Q176.819,67.869,176.798,67.99000000000001Q176.778,68.11099999999999,176.751,68.2308Q176.724,68.3506,176.692,68.469Q176.659,68.5874,176.621,68.70400000000001Q176.583,68.8206,176.539,68.9353Q176.495,69.0499,176.446,69.1622Q176.396,69.2745,176.341,69.3843Q176.286,69.494,176.226,69.601Q176.166,69.7079,176.1,69.8118Q176.035,69.9156,175.964,70.0161Q175.894,70.1166,175.819,70.2136Q175.743,70.3105,175.663,70.4036Q175.583,70.4967,175.499,70.5858Q175.415,70.6749,175.326,70.7597Q175.237,70.8446,175.144,70.925Q175.052,71.0053,174.955,71.0811Q174.858,71.1568,174.758,71.2277Q174.658,71.2986,174.554,71.3645Q174.451,71.4304,174.344,71.4911Q174.238,71.5519,174.128,71.6073Q174.019,71.6627,173.906,71.7127Q173.794,71.7627,173.68,71.8072Q173.566,71.8516,173.449,71.8904Q173.333,71.9291,173.214,71.9621Q173.096,71.9951,172.976,72.0223Q172.857,72.0494,172.736,72.0707Q172.615,72.0919,172.493,72.1072Q172.371,72.1225,172.249,72.1319Q172.127,72.1411,172.004,72.1444Q171.881,72.1477,171.759,72.145Q171.636,72.1422,171.513,72.1335Q171.391,72.1247,171.269,72.11Q171.147,72.0952,171.026,72.0745Q170.905,72.0538,170.785,72.0272Q170.666,72.0006,170.547,71.9681Q170.429,71.9356,170.312,71.8974Q170.196,71.8591,170.081,71.8152Q169.966,71.7713,169.854,71.7218Q169.742,71.6723,169.632,71.6174Q169.522,71.5624,169.415,71.5022Q169.308,71.4419,169.205,71.3765Q169.101,71.311,169,71.2406Q168.9,71.1701,168.803,71.0948Q168.706,71.0195,168.613,70.9396Q168.52,70.8596,168.43,70.7752Q168.341,70.6907,168.257,70.602Q168.172,70.5133,168.091,70.4206Q168.011,70.3278,167.935,70.2312Q167.859,70.1346,167.789,70.0344Q167.718,69.9342,167.652,69.8307Q167.586,69.7271,167.525,69.6204Q167.464,69.5138,167.409,69.4043Q167.354,69.2948,167.304,69.1827Q167.254,69.0706,167.209,68.95609999999999Q167.165,68.8417,167.126,68.7253Q167.087,68.6088,167.054,68.4906Q163.201,54.6872,154.796,43.0798Q154.724,42.9804,154.657,42.8776Q154.59,42.7748,154.528,42.6688Q154.466,42.5628,154.409,42.4539Q154.353,42.345,154.302,42.2334Q154.25,42.1219,154.205,42.0079Q154.159,41.894,154.119,41.778Q154.079,41.662,154.045,41.5441Q154.01,41.4262,153.982,41.3068Q153.953,41.1875,153.931,41.0668Q153.908,40.9462,153.892,40.8245Q153.875,40.7029,153.864,40.5806Q153.854,40.4584,153.849,40.3357Q153.844,40.213,153.846,40.0903Q153.847,39.9676,153.855,39.8451Q153.862,39.7225,153.876,39.6005Q153.889,39.4785,153.908,39.3573Q153.928,39.2361,153.953,39.116Q153.978,38.9959,154.01,38.8772Q154.041,38.7585,154.078,38.6414Q154.115,38.5244,154.157,38.4093Q154.2,38.2942,154.248,38.1814Q154.297,38.0685,154.35,37.9582Q154.404,37.8478,154.463,37.7402Q154.522,37.6326,154.587,37.5281Q154.651,37.4235,154.72,37.3223Q154.79,37.221,154.864,37.1232Q154.938,37.0255,155.017,36.9315Q155.096,36.8375,155.179,36.7475Q155.263,36.6575,155.351,36.5717Q155.438,36.4859,155.53,36.4045Q155.622,36.3231,155.718,36.2464Q155.814,36.1696,155.913,36.0976Q156.012,36.0256,156.115,35.958600000000004Q156.218,35.8916,156.324,35.8297Q156.43,35.7678,156.539,35.7111Q156.648,35.6545,156.759,35.603300000000004Q156.871,35.552099999999996,156.985,35.5064Q157.099,35.4607,157.215,35.4207Q157.331,35.380700000000004,157.449,35.3464Q157.567,35.3121,157.686,35.2836Q157.805,35.2552,157.926,35.232600000000005Q158.047,35.21,158.168,35.1934Q158.29,35.1768,158.412,35.1661Q158.535,35.1555,158.657,35.1509Q158.78,35.1463,158.903,35.1477Q159.025,35.149,159.148,35.1565Q159.27,35.1639,159.392,35.1773Q159.514,35.1907,159.636,35.2101Q159.757,35.2295,159.877,35.2548Q159.997,35.2802,160.116,35.3113Q160.234,35.3425,160.351,35.3795Q160.469,35.4165,160.584,35.4591Q160.699,35.5018,160.812,35.55Q160.924,35.598299999999995,161.035,35.652100000000004Q161.145,35.705799999999996,161.253,35.7649Q161.36,35.824,161.465,35.8883Q161.569,35.952600000000004,161.671,36.0219Q161.772,36.091300000000004,161.87,36.1655Q161.967,36.2398,162.061,36.3187Q162.155,36.3976,162.245,36.4811Q162.335,36.5646,162.421,36.6523Q162.507,36.7401,162.588,36.832Q162.67,36.9239,162.747,37.0196Q162.823,37.1154,162.895,37.2148ZM180,90Q180,106.05,174.452,121.111Q174.409,121.227,174.361,121.34Q174.313,121.452,174.26,121.563Q174.206,121.673,174.147,121.781Q174.088,121.889,174.024,121.993Q173.96,122.098,173.891,122.2Q173.822,122.301,173.748,122.399Q173.674,122.497,173.595,122.591Q173.516,122.685,173.433,122.775Q173.35,122.865,173.262,122.951Q173.175,123.037,173.083,123.119Q172.991,123.201,172.896,123.278Q172.8,123.355,172.701,123.427Q172.601,123.499,172.499,123.566Q172.396,123.633,172.29,123.695Q172.184,123.758,172.076,123.814Q171.967,123.871,171.855,123.923Q171.744,123.974,171.63,124.02Q171.516,124.066,171.4,124.106Q171.284,124.147,171.166,124.181Q171.049,124.216,170.929,124.244Q170.81,124.273,170.689,124.296Q170.569,124.319,170.447,124.336Q170.326,124.352,170.203,124.363Q170.081,124.374,169.958,124.379Q169.836,124.384,169.713,124.383Q169.59,124.382,169.468,124.374Q169.345,124.367,169.223,124.354Q169.101,124.341,168.98,124.322Q168.859,124.303,168.739,124.278Q168.618,124.253,168.5,124.222Q168.381,124.191,168.264,124.154Q168.147,124.117,168.031,124.075Q167.916,124.032,167.803,123.984Q167.69,123.936,167.58,123.883Q167.469,123.829,167.362,123.77Q167.254,123.711,167.149,123.647Q167.045,123.583,166.943,123.514Q166.842,123.445,166.744,123.371Q166.646,123.297,166.552,123.218Q166.458,123.139,166.368,123.056Q166.277,122.973,166.191,122.885Q166.105,122.798,166.024,122.706Q165.942,122.614,165.865,122.519Q165.788,122.423,165.716,122.324Q165.644,122.225,165.577,122.122Q165.509,122.019,165.447,121.913Q165.385,121.807,165.328,121.699Q165.272,121.59,165.22,121.478Q165.169,121.367,165.123,121.253Q165.077,121.139,165.037,121.023Q164.996,120.907,164.962,120.79Q164.927,120.672,164.899,120.552Q164.87,120.433,164.847,120.313Q164.824,120.192,164.807,120.07Q164.79,119.949,164.78,119.827Q164.769,119.704,164.764,119.582Q164.759,119.459,164.76,119.336Q164.761,119.213,164.768,119.091Q164.776,118.968,164.789,118.846Q164.802,118.724,164.821,118.603Q164.84,118.482,164.865,118.362Q164.89,118.242,164.921,118.123Q164.952,118.004,164.989,117.887Q165.026,117.77,165.068,117.655Q170,104.267,170,90Q170,89.8773,170.006,89.7547Q170.012,89.6321,170.024,89.5099Q170.036,89.3878,170.054,89.2663Q170.072,89.1449,170.096,89.0245Q170.12,88.9042,170.15,88.7851Q170.18,88.666,170.215,88.5486Q170.251,88.4311,170.292,88.3155Q170.334,88.2,170.381,88.0866Q170.428,87.9732,170.48,87.8622Q170.533,87.7513,170.59,87.643Q170.648,87.5348,170.711,87.4295Q170.774,87.3242,170.843,87.2221Q170.911,87.1201,170.984,87.0215Q171.057,86.9229,171.135,86.828Q171.213,86.7332,171.295,86.6422Q171.378,86.5513,171.464,86.4645Q171.551,86.3777,171.642,86.2952Q171.733,86.2128,171.828,86.1349Q171.923,86.0571,172.021,85.984Q172.12,85.9108,172.222,85.8426Q172.324,85.7744,172.429,85.7113Q172.535,85.6482,172.643,85.5904Q172.751,85.5325,172.862,85.48Q172.973,85.4276,173.087,85.3806Q173.2,85.3336,173.316,85.2923Q173.431,85.2509,173.549,85.2153Q173.666,85.1797,173.785,85.1498Q173.904,85.12,174.025,85.0961Q174.145,85.0721,174.266,85.0541Q174.388,85.0361,174.51,85.0241Q174.632,85.012,174.755,85.006Q174.877,85,175,85Q175.123,85,175.245,85.006Q175.368,85.012,175.49,85.0241Q175.612,85.0361,175.734,85.0541Q175.855,85.0721,175.975,85.0961Q176.096,85.12,176.215,85.1498Q176.334,85.1797,176.451,85.2153Q176.569,85.2509,176.684,85.2923Q176.8,85.3336,176.913,85.3806Q177.027,85.4276,177.138,85.48Q177.249,85.5325,177.357,85.5904Q177.465,85.6482,177.57,85.7113Q177.676,85.7744,177.778,85.8426Q177.88,85.9108,177.978,85.984Q178.077,86.0571,178.172,86.135Q178.267,86.2128,178.358,86.2952Q178.449,86.3777,178.536,86.4645Q178.622,86.5513,178.705,86.6422Q178.787,86.7332,178.865,86.828Q178.943,86.9229,179.016,87.0215Q179.089,87.1201,179.157,87.2221Q179.225,87.3242,179.289,87.4295Q179.352,87.5348,179.41,87.643Q179.467,87.7513,179.52,87.8622Q179.572,87.9732,179.619,88.0866Q179.666,88.2,179.708,88.3155Q179.749,88.4311,179.785,88.5486Q179.82,88.666,179.85,88.7851Q179.88,88.9042,179.904,89.0245Q179.928,89.1449,179.946,89.2663Q179.964,89.3878,179.976,89.5099Q179.988,89.6321,179.994,89.7547Q180,89.8773,180,90Z" fill="#04AAEB" fill-opacity="1"/></g></svg>