<svg xmlns="http://www.w3.org/2000/svg" xmlns:xlink="http://www.w3.org/1999/xlink" fill="none" version="1.1" width="30" height="27.489341735839844" viewBox="0 0 30 27.489341735839844"><g><g><path d="M29.999968469238283,27.178155737304685L15.35737228393828,27.318755737304688L27.34396846923828,12.777755737304688L29.999968469238283,27.178155737304685Z" fill-rule="evenodd" fill="#323232" fill-opacity="1"/></g><g><path d="M13.7447,27.4893Q14.0821,27.4893,14.4191,27.4728Q14.7561,27.4562,15.0919,27.4232Q15.4277,27.3901,15.7614,27.3406Q16.0952,27.2911,16.4261,27.2252Q16.7571,27.1594,17.0844,27.0774Q17.4117,26.9954,17.7345,26.8975Q18.0574,26.7995,18.3751,26.6859Q18.6928,26.5722,19.0045,26.4431Q19.3163,26.314,19.6213,26.1697Q19.9263,26.0254,20.2239,25.8664Q20.5214,25.7073,20.8108,25.5339Q21.1002,25.3604,21.3808,25.1729Q21.6613,24.9855,21.9324,24.7845Q22.2034,24.5835,22.4642,24.3694Q22.725,24.1554,22.975,23.9288Q23.225,23.7022,23.4636,23.4636Q23.7022,23.225,23.9288,22.975Q24.1554,22.725,24.3694,22.4642Q24.5835,22.2034,24.7845,21.9324Q24.9855,21.6613,25.1729,21.3808Q25.3604,21.1002,25.5339,20.8108Q25.7073,20.5214,25.8664,20.2239Q26.0254,19.9263,26.1697,19.6213Q26.314,19.3162,26.4431,19.0045Q26.5722,18.6928,26.6859,18.3751Q26.7996,18.0574,26.8975,17.7345Q26.9954,17.4116,27.0774,17.0843Q27.1594,16.757,27.2252,16.4261Q27.2911,16.0952,27.3406,15.7614Q27.3901,15.4277,27.4232,15.0919Q27.4562,14.7561,27.4728,14.4191Q27.4893,14.0821,27.4893,13.7447Q27.4893,13.4073,27.4728,13.0703Q27.4562,12.7332,27.4232,12.3975Q27.3901,12.0617,27.3406,11.7279Q27.2911,11.3941,27.2252,11.0632Q27.1594,10.7323,27.0774,10.405Q26.9954,10.0777,26.8975,9.7548Q26.7995,9.43192,26.6859,9.11423Q26.5722,8.79654,26.4431,8.48481Q26.314,8.17308,26.1697,7.86807Q26.0254,7.56305,25.8664,7.26548Q25.7073,6.96791,25.5339,6.6785Q25.3604,6.38909,25.1729,6.10854Q24.9855,5.82799,24.7845,5.55698Q24.5835,5.28597,24.3694,5.02514Q24.1554,4.76432,23.9288,4.51431Q23.7022,4.26431,23.4636,4.02572Q23.225,3.78713,22.975,3.56054Q22.725,3.33395,22.4642,3.1199Q22.2034,2.90584,21.9324,2.70485Q21.6613,2.50385,21.3808,2.31639Q21.1002,2.12894,20.8108,1.95547Q20.5214,1.78201,20.2239,1.62295Q19.9263,1.4639,19.6213,1.31964Q19.3162,1.17537,19.0045,1.04625Q18.6928,0.917128,18.3751,0.803457Q18.0574,0.689787,17.7345,0.591841Q17.4116,0.493895,17.0843,0.411911Q16.757,0.329926,16.4261,0.2641Q16.0952,0.198274,15.7614,0.148765Q15.4277,0.0992566,15.0919,0.0661843Q14.7561,0.0331121,14.4191,0.0165561Q14.0821,0,13.7447,0Q13.4073,0,13.0703,0.0165561Q12.7332,0.0331121,12.3975,0.0661843Q12.0617,0.0992566,11.7279,0.148765Q11.3941,0.198274,11.0632,0.2641Q10.7323,0.329926,10.405,0.41191Q10.0777,0.493895,9.7548,0.591841Q9.43192,0.689787,9.11423,0.803457Q8.79654,0.917128,8.48481,1.04625Q8.17308,1.17537,7.86807,1.31964Q7.56305,1.4639,7.26548,1.62295Q6.96791,1.78201,6.6785,1.95547Q6.38909,2.12894,6.10854,2.31639Q5.82799,2.50385,5.55698,2.70485Q5.28597,2.90584,5.02514,3.1199Q4.76432,3.33395,4.51431,3.56054Q4.26431,3.78713,4.02572,4.02572Q3.78713,4.26431,3.56054,4.51431Q3.33395,4.76432,3.1199,5.02514Q2.90584,5.28597,2.70485,5.55698Q2.50385,5.82799,2.31639,6.10854Q2.12894,6.38909,1.95547,6.6785Q1.78201,6.96791,1.62295,7.26548Q1.4639,7.56305,1.31964,7.86807Q1.17537,8.17308,1.04625,8.48481Q0.917128,8.79654,0.803457,9.11423Q0.689787,9.43192,0.591841,9.7548Q0.493895,10.0777,0.411911,10.405Q0.329926,10.7323,0.2641,11.0632Q0.198274,11.3941,0.148765,11.7279Q0.0992566,12.0617,0.0661843,12.3975Q0.0331121,12.7332,0.0165561,13.0703Q0,13.4073,0,13.7447Q0,14.0821,0.0165561,14.4191Q0.0331121,14.7561,0.0661843,15.0919Q0.0992566,15.4277,0.148765,15.7614Q0.198274,16.0952,0.2641,16.4261Q0.329926,16.7571,0.41191,17.0844Q0.493895,17.4117,0.591841,17.7345Q0.689787,18.0574,0.803457,18.3751Q0.917128,18.6928,1.04625,19.0045Q1.17537,19.3163,1.31964,19.6213Q1.4639,19.9263,1.62295,20.2239Q1.78201,20.5214,1.95547,20.8108Q2.12894,21.1002,2.31639,21.3808Q2.50385,21.6613,2.70485,21.9324Q2.90584,22.2034,3.1199,22.4642Q3.33395,22.725,3.56054,22.975Q3.78713,23.225,4.02572,23.4636Q4.26431,23.7022,4.51431,23.9288Q4.76432,24.1554,5.02514,24.3694Q5.28597,24.5835,5.55698,24.7845Q5.82799,24.9855,6.10854,25.1729Q6.38909,25.3604,6.6785,25.5339Q6.96791,25.7073,7.26548,25.8664Q7.56305,26.0254,7.86807,26.1697Q8.17308,26.314,8.48481,26.4431Q8.79654,26.5722,9.11423,26.6859Q9.43192,26.7996,9.7548,26.8975Q10.0777,26.9954,10.405,27.0774Q10.7323,27.1594,11.0632,27.2252Q11.3941,27.2911,11.7279,27.3406Q12.0617,27.3901,12.3975,27.4232Q12.7332,27.4562,13.0703,27.4728Q13.4073,27.4893,13.7447,27.4893ZM6.31512,15.6021Q6.40637,15.6021,6.49718,15.5931Q6.58798,15.5842,6.67748,15.5664Q6.76697,15.5486,6.85429,15.5221Q6.94161,15.4956,7.02591,15.4607Q7.11021,15.4258,7.19069,15.3827Q7.27116,15.3397,7.34703,15.289Q7.4229,15.2383,7.49343,15.1805Q7.56397,15.1226,7.62849,15.058Q7.69301,14.9935,7.7509,14.923Q7.80879,14.8524,7.85948,14.7766Q7.91018,14.7007,7.95319,14.6202Q7.9962,14.5398,8.03112,14.4555Q8.06604,14.3712,8.09253,14.2838Q8.11902,14.1965,8.13682,14.107Q8.15462,14.0175,8.16356,13.9267Q8.17251,13.8359,8.17251,13.7447Q8.17251,13.6534,8.16356,13.5626Q8.15462,13.4718,8.13682,13.3823Q8.11902,13.2928,8.09253,13.2055Q8.06604,13.1182,8.03112,13.0339Q7.9962,12.9496,7.95319,12.8691Q7.91018,12.7886,7.85948,12.7128Q7.80879,12.6369,7.7509,12.5664Q7.69301,12.4958,7.62849,12.4313Q7.56397,12.3668,7.49343,12.3089Q7.4229,12.251,7.34703,12.2003Q7.27116,12.1496,7.19069,12.1066Q7.11021,12.0636,7.02591,12.0287Q6.94161,11.9937,6.85429,11.9673Q6.76697,11.9408,6.67748,11.923Q6.58798,11.9052,6.49718,11.8962Q6.40637,11.8873,6.31512,11.8873Q6.22387,11.8873,6.13307,11.8962Q6.04226,11.9052,5.95276,11.923Q5.86327,11.9408,5.77595,11.9673Q5.68863,11.9937,5.60433,12.0287Q5.52003,12.0636,5.43955,12.1066Q5.35908,12.1496,5.28321,12.2003Q5.20734,12.251,5.13681,12.3089Q5.06627,12.3668,5.00175,12.4313Q4.93723,12.4958,4.87934,12.5664Q4.82145,12.6369,4.77076,12.7128Q4.72006,12.7886,4.67705,12.8691Q4.63404,12.9496,4.59912,13.0339Q4.5642,13.1182,4.53771,13.2055Q4.51122,13.2928,4.49342,13.3823Q4.47562,13.4718,4.46668,13.5626Q4.45773,13.6534,4.45773,13.7447Q4.45773,13.8359,4.46668,13.9267Q4.47562,14.0175,4.49342,14.107Q4.51122,14.1965,4.53771,14.2838Q4.5642,14.3712,4.59912,14.4555Q4.63404,14.5398,4.67705,14.6202Q4.72006,14.7007,4.77076,14.7766Q4.82145,14.8524,4.87934,14.923Q4.93723,14.9935,5.00175,15.058Q5.06627,15.1226,5.13681,15.1804Q5.20734,15.2383,5.28321,15.289Q5.35908,15.3397,5.43955,15.3827Q5.52003,15.4258,5.60433,15.4607Q5.68863,15.4956,5.77595,15.5221Q5.86327,15.5486,5.95276,15.5664Q6.04226,15.5842,6.13307,15.5931Q6.22387,15.6021,6.31512,15.6021ZM15.6021,13.7447Q15.6021,13.8359,15.5931,13.9267Q15.5842,14.0175,15.5664,14.107Q15.5486,14.1965,15.5221,14.2838Q15.4956,14.3712,15.4607,14.4555Q15.4258,14.5398,15.3827,14.6202Q15.3397,14.7007,15.289,14.7766Q15.2383,14.8524,15.1805,14.923Q15.1226,14.9935,15.058,15.058Q14.9935,15.1226,14.923,15.1804Q14.8524,15.2383,14.7766,15.289Q14.7007,15.3397,14.6202,15.3827Q14.5398,15.4258,14.4555,15.4607Q14.3712,15.4956,14.2838,15.5221Q14.1965,15.5486,14.107,15.5664Q14.0175,15.5842,13.9267,15.5931Q13.8359,15.6021,13.7447,15.6021Q13.6534,15.6021,13.5626,15.5931Q13.4718,15.5842,13.3823,15.5664Q13.2928,15.5486,13.2055,15.5221Q13.1182,15.4956,13.0339,15.4607Q12.9496,15.4258,12.8691,15.3827Q12.7886,15.3397,12.7128,15.289Q12.6369,15.2383,12.5664,15.1805Q12.4958,15.1226,12.4313,15.058Q12.3668,14.9935,12.3089,14.923Q12.251,14.8524,12.2003,14.7766Q12.1496,14.7007,12.1066,14.6202Q12.0636,14.5398,12.0287,14.4555Q11.9937,14.3712,11.9673,14.2838Q11.9408,14.1965,11.923,14.107Q11.9052,14.0175,11.8962,13.9267Q11.8873,13.8359,11.8873,13.7447Q11.8873,13.6534,11.8962,13.5626Q11.9052,13.4718,11.923,13.3823Q11.9408,13.2928,11.9673,13.2055Q11.9937,13.1182,12.0287,13.0339Q12.0636,12.9496,12.1066,12.8691Q12.1496,12.7886,12.2003,12.7128Q12.251,12.6369,12.3089,12.5664Q12.3668,12.4958,12.4313,12.4313Q12.4958,12.3668,12.5664,12.3089Q12.6369,12.251,12.7128,12.2003Q12.7886,12.1496,12.8691,12.1066Q12.9496,12.0636,13.0339,12.0287Q13.1182,11.9937,13.2055,11.9673Q13.2928,11.9408,13.3823,11.923Q13.4718,11.9052,13.5626,11.8962Q13.6534,11.8873,13.7447,11.8873Q13.8359,11.8873,13.9267,11.8962Q14.0175,11.9052,14.107,11.923Q14.1965,11.9408,14.2838,11.9673Q14.3712,11.9937,14.4555,12.0287Q14.5398,12.0636,14.6202,12.1066Q14.7007,12.1496,14.7766,12.2003Q14.8524,12.251,14.923,12.3089Q14.9935,12.3668,15.058,12.4313Q15.1226,12.4958,15.1804,12.5664Q15.2383,12.6369,15.289,12.7128Q15.3397,12.7886,15.3827,12.8691Q15.4258,12.9496,15.4607,13.0339Q15.4956,13.1182,15.5221,13.2055Q15.5486,13.2928,15.5664,13.3823Q15.5842,13.4718,15.5931,13.5626Q15.6021,13.6534,15.6021,13.7447ZM21.1742,15.6021Q21.2655,15.6021,21.3563,15.5931Q21.4471,15.5842,21.5366,15.5664Q21.6261,15.5486,21.7134,15.5221Q21.8007,15.4956,21.885,15.4607Q21.9693,15.4258,22.0498,15.3827Q22.1303,15.3397,22.2061,15.289Q22.282,15.2383,22.3525,15.1805Q22.4231,15.1226,22.4876,15.058Q22.5521,14.9935,22.61,14.923Q22.6679,14.8524,22.7186,14.7766Q22.7693,14.7007,22.8123,14.6202Q22.8553,14.5398,22.8902,14.4555Q22.9251,14.3712,22.9516,14.2838Q22.9781,14.1965,22.9959,14.107Q23.0137,14.0175,23.0227,13.9267Q23.0316,13.8359,23.0316,13.7447Q23.0316,13.6534,23.0227,13.5626Q23.0137,13.4718,22.9959,13.3823Q22.9781,13.2928,22.9516,13.2055Q22.9251,13.1182,22.8902,13.0339Q22.8553,12.9496,22.8123,12.8691Q22.7693,12.7886,22.7186,12.7128Q22.6679,12.6369,22.61,12.5664Q22.5521,12.4958,22.4876,12.4313Q22.4231,12.3668,22.3525,12.3089Q22.282,12.251,22.2061,12.2003Q22.1303,12.1496,22.0498,12.1066Q21.9693,12.0636,21.885,12.0287Q21.8007,11.9937,21.7134,11.9673Q21.6261,11.9408,21.5366,11.923Q21.4471,11.9052,21.3563,11.8962Q21.2655,11.8873,21.1742,11.8873Q21.083,11.8873,20.9922,11.8962Q20.9014,11.9052,20.8119,11.923Q20.7224,11.9408,20.635,11.9673Q20.5477,11.9937,20.4634,12.0287Q20.3791,12.0636,20.2987,12.1066Q20.2182,12.1496,20.1423,12.2003Q20.0664,12.251,19.9959,12.3089Q19.9254,12.3668,19.8608,12.4313Q19.7963,12.4958,19.7384,12.5664Q19.6806,12.6369,19.6299,12.7128Q19.5792,12.7886,19.5361,12.8691Q19.4931,12.9496,19.4582,13.0339Q19.4233,13.1182,19.3968,13.2055Q19.3703,13.2928,19.3525,13.3823Q19.3347,13.4718,19.3258,13.5626Q19.3168,13.6534,19.3168,13.7447Q19.3168,13.8359,19.3258,13.9267Q19.3347,14.0175,19.3525,14.107Q19.3703,14.1965,19.3968,14.2838Q19.4233,14.3712,19.4582,14.4555Q19.4931,14.5398,19.5362,14.6202Q19.5792,14.7007,19.6299,14.7766Q19.6806,14.8524,19.7384,14.923Q19.7963,14.9935,19.8608,15.058Q19.9254,15.1226,19.9959,15.1804Q20.0664,15.2383,20.1423,15.289Q20.2182,15.3397,20.2987,15.3827Q20.3791,15.4258,20.4634,15.4607Q20.5477,15.4956,20.635,15.5221Q20.7224,15.5486,20.8119,15.5664Q20.9014,15.5842,20.9922,15.5931Q21.083,15.6021,21.1742,15.6021Z" fill-rule="evenodd" fill="#323232" fill-opacity="1"/></g></g></svg>