<svg xmlns="http://www.w3.org/2000/svg" xmlns:xlink="http://www.w3.org/1999/xlink" fill="none" version="1.1" width="40" height="40" viewBox="0 0 40 40"><defs><clipPath id="master_svg0_204_1335"><rect x="0" y="0" width="40" height="40" rx="0"/></clipPath></defs><g clip-path="url(#master_svg0_204_1335)"><g><g><rect x="12.75" y="7" width="13.5" height="13.5" rx="0" fill="#323232" fill-opacity="1"/></g><g><path d="M6,22.1875L6,22.5L7.6875,22.5L7.6875,22.1875L8,22.1875L8,20.5L6,20.5L6,22.1875ZM11.0625,20.5L11.0625,22.5L14.4375,22.5L14.4375,20.5L11.0625,20.5ZM17.5,20.5L17.5,22.1875L17.8125,22.1875L17.8125,22.5L19.5,22.5L19.5,20.5L17.5,20.5ZM19.5,25.5625L17.5,25.5625L17.5,28.9375L19.5,28.9375L19.5,25.5625ZM19.5,32L17.8125,32L17.8125,32.3125L17.5,32.3125L17.5,34L19.5,34L19.5,32ZM14.4375,34L14.4375,32L11.0625,32L11.0625,34L14.4375,34ZM8,34L8,32.3125L7.6875,32.3125L7.6875,32L6,32L6,34L8,34ZM6,28.9375L8,28.9375L8,25.5625L6,25.5625L6,28.9375Z" fill-rule="evenodd" fill="#323232" fill-opacity="1"/></g><g><rect x="20.5" y="21.5" width="11.5" height="11.5" rx="0" fill-opacity="0" stroke-opacity="1" stroke="#323232" fill="none" stroke-width="2"/></g></g></g></svg>