<svg xmlns="http://www.w3.org/2000/svg" xmlns:xlink="http://www.w3.org/1999/xlink" fill="none" version="1.1" width="27.999998092651367" height="28" viewBox="0 0 27.999998092651367 28"><g><path d="M18.9591,27.0923Q16.5626,28,14,28Q12.6302,28,11.28642,27.7345Q11.21412,27.7202,11.14358,27.6989Q11.07304,27.6776,11.00492,27.6495Q10.9368,27.6214,10.87177,27.5867Q10.80673,27.5521,10.74541,27.5112Q10.68408,27.4704,10.62706,27.4237Q10.57004,27.377,10.51786,27.325Q10.46569,27.2729,10.41887,27.216Q10.37205,27.1591,10.33103,27.0979Q10.29001,27.0367,10.25519,26.9717Q10.22037,26.9068,10.19208,26.8388Q10.16379,26.7707,10.14231,26.7002Q10.12083,26.6297,10.10636,26.5575Q10.09189,26.4852,10.08457,26.4119Q10.07726,26.3386,10.07716,26.2649Q10.07707,26.1912,10.08419,26.1178Q10.09132,26.0445,10.10561,25.9722Q10.11989,25.8999,10.14119,25.8294Q10.16249,25.7588,10.1906,25.6907Q10.21872,25.6226,10.25337,25.5576Q10.28802,25.4925,10.32888,25.4312Q10.36974,25.3699,10.41642,25.3129Q10.4631,25.2558,10.51513,25.2037Q10.56717,25.1515,10.62408,25.1047Q10.68098,25.0578,10.7422,25.0168Q10.80342,24.9758,10.86836,24.941Q10.93331,24.9062,11.00135,24.8779Q11.0694,24.8496,11.13988,24.8281Q11.21037,24.8066,11.28263,24.7921Q11.35489,24.7777,11.42821,24.7704Q11.5015,24.763,11.5752,24.7629Q11.6489,24.7628,11.7223,24.77Q11.7956,24.7771,11.8679,24.7914Q12.9238,25,14,25Q16.0135,25,17.8965,24.2868Q17.9654,24.2607,18.0365,24.2414Q18.1076,24.2222,18.1803,24.2101Q18.253,24.1979,18.3265,24.1929Q18.4,24.188,18.4737,24.1902Q18.5474,24.1925,18.6204,24.2019Q18.6935,24.2114,18.7653,24.228Q18.8371,24.2446,18.907,24.2681Q18.9768,24.2916,19.044,24.3219Q19.1112,24.3522,19.175,24.3889Q19.2389,24.4256,19.2989,24.4684Q19.3589,24.5112,19.4144,24.5597Q19.4699,24.6081,19.5204,24.6618Q19.5709,24.7155,19.6159,24.7739Q19.6609,24.8322,19.6999,24.8947Q19.739,24.9572,19.7717,25.0232Q19.8044,25.0893,19.8305,25.1582Q19.8566,25.2271,19.8759,25.2982Q19.8951,25.3694,19.9072,25.442Q19.9194,25.5147,19.9244,25.5882Q19.9293,25.6618,19.9271,25.7354Q19.9248,25.8091,19.9154,25.8822Q19.9059,25.9552,19.8893,26.027Q19.8727,26.0988,19.8492,26.1687Q19.8257,26.2385,19.7954,26.3057Q19.7651,26.3729,19.7284,26.4368Q19.6917,26.5007,19.6489,26.5607Q19.6061,26.6206,19.5576,26.6762Q19.5092,26.7317,19.4555,26.7821Q19.4018,26.8326,19.3434,26.8776Q19.2851,26.9226,19.2226,26.9616Q19.1601,27.0007,19.0941,27.0334Q19.028,27.0662,18.9591,27.0923ZM3.52264,23.2857Q0.810654,20.2257,0.1718900000000001,16.1871Q0.16037999999999997,16.1143,0.1560600000000001,16.0407Q0.15172999999999992,15.9672,0.1546400000000001,15.8935Q0.15755000000000008,15.8199,0.16765999999999992,15.7469Q0.17778000000000005,15.6739,0.19499,15.6023Q0.21221,15.5306,0.23636999999999997,15.461Q0.26052999999999993,15.3914,0.29139000000000004,15.3245Q0.32226,15.2576,0.35953999999999997,15.194Q0.3968100000000001,15.1304,0.44014,15.0708Q0.48346,15.0112,0.532425,14.9561Q0.581386,14.9011,0.63551,14.8511Q0.689633,14.801,0.748397,14.7566Q0.807162,14.7121,0.870001,14.6736Q0.932841,14.6351,0.99915,14.603Q1.06546,14.5708,1.134601,14.5454Q1.203742,14.5199,1.275049,14.5013Q1.346355,14.4827,1.4191409,14.4712Q1.49192643,14.4597,1.5654898,14.4553Q1.639053,14.451,1.712686,14.4539Q1.786319,14.4568,1.859312,14.4669Q1.932305,14.4771,2.003956,14.4943Q2.075606,14.5115,2.145224,14.5357Q2.214842,14.5598,2.281756,14.5907Q2.348671,14.6215,2.412238,14.6588Q2.4758050000000003,14.6961,2.5354099999999997,14.7394Q2.59502,14.7827,2.65009,14.8317Q2.70517,14.8807,2.75518,14.9348Q2.80519,14.9889,2.84965,15.0477Q2.89411,15.1064,2.9326,15.1693Q2.9710900000000002,15.2321,3.00324,15.2984Q3.03538,15.3647,3.06087,15.4339Q3.08636,15.503,3.10495,15.5743Q3.12354,15.6456,3.13506,15.7184Q3.63694,18.8916,5.76779,21.2959Q5.81666,21.3511,5.8599,21.4108Q5.90314,21.4704,5.94031,21.5341Q5.97749,21.5977,6.00825,21.6646Q6.03902,21.7316,6.06307,21.8013Q6.08712,21.8709,6.10423,21.9426Q6.12134,22.0143,6.13134,22.0873Q6.14134,22.1603,6.14413,22.2339Q6.14693,22.3076,6.14249,22.3811Q6.13806,22.4547,6.12644,22.5274Q6.11481,22.6002,6.09611,22.6715Q6.07741,22.7428,6.05181,22.8119Q6.02622,22.881,5.99397,22.9472Q5.96173,23.0135,5.92314,23.0763Q5.88455,23.139,5.84,23.1977Q5.79545,23.2564,5.74535,23.3105Q5.69526,23.3645,5.64011,23.4134Q5.58497,23.4623,5.52529,23.5055Q5.4656199999999995,23.5488,5.40199,23.5859Q5.338369999999999,23.6231,5.2714099999999995,23.6539Q5.20445,23.6846,5.134790000000001,23.7087Q5.0651399999999995,23.7327,4.99346,23.7499Q4.92178,23.767,4.84877,23.777Q4.77577,23.787,4.70213,23.7898Q4.62849,23.7926,4.554930000000001,23.7881Q4.48138,23.7837,4.4086099999999995,23.7721Q4.33584,23.7604,4.2645599999999995,23.7417Q4.19329,23.723,4.12418,23.6974Q4.05508,23.6718,3.98882,23.6396Q3.92256,23.6073,3.85978,23.5688Q3.797,23.5302,3.7383,23.4856Q3.67961,23.4411,3.62556,23.391Q3.57152,23.3409,3.52264,23.2857ZM1.5802162,7.53866Q3.4661,3.91366,7.00585,1.872267Q7.06969,1.835453,7.13682,1.805073Q7.20396,1.774693,7.27375,1.751039Q7.34354,1.727386,7.41532,1.710687Q7.48709,1.693989,7.56015,1.684405Q7.63322,1.674822,7.70687,1.672447Q7.78052,1.670071,7.85405,1.674926Q7.92758,1.679781,8.00028,1.6918199999999999Q8.072980000000001,1.703859,8.14415,1.722966Q8.21532,1.742073,8.284279999999999,1.768063Q8.35323,1.794054,8.41931,1.826678Q8.48538,1.859303,8.54794,1.8982459999999999Q8.6105,1.93719,8.66894,1.982078Q8.72738,2.026966,8.78114,2.077366Q8.834900000000001,2.1277660000000003,8.88346,2.183193Q8.93202,2.238619,8.974920000000001,2.298539Q9.01781,2.358459,9.05463,2.422294Q9.09144,2.486129,9.12182,2.55327Q9.1522,2.6204,9.17585,2.6901900000000003Q9.19951,2.75998,9.2162,2.83176Q9.2329,2.90353,9.24249,2.9766Q9.25207,3.0496600000000003,9.25445,3.12331Q9.256820000000001,3.19696,9.25197,3.2704899999999997Q9.24711,3.34402,9.23507,3.4167199999999998Q9.22303,3.48942,9.20393,3.56059Q9.18482,3.63177,9.15883,3.70072Q9.13284,3.76967,9.10021,3.83575Q9.06759,3.90182,9.028649999999999,3.96438Q8.9897,4.02694,8.94481,4.08538Q8.899930000000001,4.14382,8.84953,4.19758Q8.79913,4.25134,8.7437,4.2999Q8.68827,4.34846,8.628350000000001,4.391360000000001Q8.56843,4.4342500000000005,8.5046,4.47107Q5.72337,6.07502,4.2416,8.92323Q4.20759,8.9886,4.16733,9.050329999999999Q4.127079999999999,9.11205,4.080970000000001,9.16953Q4.03486,9.22701,3.98334,9.2797Q3.93182,9.33238,3.87538,9.379760000000001Q3.81894,9.427150000000001,3.75813,9.46877Q3.69732,9.51039,3.63272,9.54585Q3.56813,9.58131,3.50036,9.61027Q3.4326,9.63923,3.36233,9.6614Q3.2920499999999997,9.68358,3.2199400000000002,9.69876Q3.14783,9.71394,3.07458,9.72198Q3.0013300000000003,9.73003,2.92765,9.73085Q2.85396,9.73167,2.78055,9.72527Q2.70714,9.71886,2.63471,9.70529Q2.56228,9.69173,2.491527,9.67112Q2.420776,9.65052,2.352385,9.62308Q2.283993,9.59564,2.21862,9.56163Q2.153248,9.52762,2.091523,9.48737Q2.029799,9.44712,1.9723169999999999,9.40101Q1.914836,9.3549,1.862151,9.303370000000001Q1.809466,9.251850000000001,1.762084,9.195409999999999Q1.714703,9.13898,1.673081,9.07817Q1.63146,9.01735,1.5959994,8.95276Q1.5605389,8.88816,1.5315808,8.8204Q1.50262269,8.75264,1.4804459,8.68236Q1.458269,8.61209,1.443087,8.53998Q1.427905,8.46787,1.4198641,8.39462Q1.4118232,8.32137,1.4110007,8.247679999999999Q1.4101783,8.174,1.4165823,8.10059Q1.4229863,8.02717,1.436555,7.95474Q1.4501238,7.88231,1.4707266,7.81156Q1.49132938,7.74081,1.5187678,7.67242Q1.5462063,7.60403,1.5802162,7.53866ZM15.5899,0.0905800000000001Q19.6435,0.55393,22.8136,3.12244Q22.8708,3.1688400000000003,22.9232,3.2206099999999998Q22.9757,3.2723899999999997,23.0228,3.32906Q23.0699,3.3857299999999997,23.1112,3.4467499999999998Q23.1525,3.50776,23.1877,3.57253Q23.2228,3.6373,23.2514,3.7052Q23.2801,3.77311,23.3019,3.84349Q23.3237,3.91387,23.3386,3.98605Q23.3534,4.05824,23.3611,4.13153Q23.3688,4.20481,23.3692,4.2785Q23.3697,4.35219,23.3629,4.4255700000000004Q23.3561,4.49895,23.3422,4.57131Q23.3283,4.64368,23.3074,4.71433Q23.2864,4.78498,23.2586,4.85323Q23.2309,4.92149,23.1965,4.986689999999999Q23.1622,5.0519,23.1216,5.11343Q23.0811,5.17495,23.0347,5.23221Q22.9883,5.28946,22.9365,5.341889999999999Q22.8848,5.39433,22.8281,5.44143Q22.7714,5.48853,22.7104,5.52986Q22.6494,5.57118,22.5846,5.60632Q22.5198,5.64147,22.4519,5.67009Q22.384,5.69872,22.3137,5.72055Q22.2433,5.74238,22.1711,5.75721Q22.0989,5.77204,22.0256,5.77972Q21.9523,5.78741,21.8786,5.78787Q21.805,5.78833,21.7316,5.78156Q21.6582,5.7748,21.5858,5.76088Q21.5135,5.74695,21.4428,5.72601Q21.3722,5.70506,21.3039,5.67728Q21.2357,5.64951,21.1704,5.61518Q21.1052,5.58085,21.0437,5.5403Q20.9822,5.49974,20.9249,5.45335Q18.4342,3.43523,15.2492,3.07117Q15.176,3.0628,15.104,3.0472900000000003Q15.0319,3.03179,14.9618,3.0093Q14.8916,2.98681,14.824,2.95754Q14.7563,2.92828,14.6919,2.89253Q14.6275,2.85678,14.5668,2.81489Q14.5062,2.7729999999999997,14.45,2.7253600000000002Q14.3938,2.67773,14.3425,2.6248199999999997Q14.2912,2.5719000000000003,14.2453,2.5142100000000003Q14.1995,2.456525,14.1595,2.394622Q14.1195,2.332718,14.0858,2.267193Q14.0521,2.201669,14.025,2.133155Q13.9978,2.064642,13.9775,1.993799Q13.9573,1.922956,13.944,1.850465Q13.9308,1.777975,13.9247,1.704536Q13.9186,1.6310959999999999,13.9198,1.5574149Q13.9209,1.4837337,13.9293,1.4105202000000001Q13.9377,1.337307,13.9532,1.265266Q13.9687,1.193225,13.9912,1.123051Q14.0137,1.052877,14.0429,0.985246Q14.0722,0.917614,14.1079,0.853176Q14.1437,0.788738,14.1856,0.728115Q14.2275,0.667491,14.2751,0.611266Q14.3227,0.555041,14.3756,0.503755Q14.4286,0.45246999999999993,14.4863,0.40662Q14.5439,0.36075999999999997,14.6058,0.3207899999999999Q14.6677,0.28081,14.7333,0.24709000000000003Q14.7988,0.2133799999999999,14.8673,0.18625000000000003Q14.9358,0.15911000000000008,15.0067,0.13883Q15.0775,0.11854000000000009,15.15,0.10529999999999995Q15.2225,0.09204999999999997,15.2959,0.08597999999999995Q15.3694,0.07990000000000008,15.443,0.08105000000000007Q15.5167,0.0822099999999999,15.5899,0.0905800000000001ZM27.6013,10.68258Q28,12.3173,28,14Q28,18.0358,25.8517,21.4523Q25.8125,21.5147,25.7673,21.573Q25.7222,21.6312,25.6715,21.6847Q25.6209,21.7383,25.5652,21.7866Q25.5096,21.8349,25.4495,21.8775Q25.3894,21.9201,25.3254,21.9567Q25.2614,21.9932,25.1941,22.0233Q25.1268,22.0533,25.0569,22.0767Q24.987,22.1,24.9152,22.1164Q24.8433,22.1328,24.7702,22.142Q24.6971,22.1513,24.6234,22.1533Q24.5498,22.1553,24.4763,22.1502Q24.4028,22.145,24.3301,22.1326Q24.2575,22.1202,24.1864,22.1008Q24.1153,22.0814,24.0465,22.0551Q23.9776,22.0288,23.9117,21.9959Q23.8458,21.9629,23.7834,21.9237Q23.721,21.8845,23.6628,21.8393Q23.6045,21.7942,23.551,21.7435Q23.4975,21.6929,23.4492,21.6372Q23.4009,21.5816,23.3582,21.5215Q23.3156,21.4614,23.2791,21.3974Q23.2426,21.3334,23.2125,21.2661Q23.1824,21.1988,23.1591,21.1289Q23.1357,21.059,23.1194,20.9872Q23.103,20.9153,23.0937,20.8422Q23.0845,20.7691,23.0824,20.6955Q23.0804,20.6218,23.0856,20.5483Q23.0908,20.4748,23.1031,20.4021Q23.1155,20.3295,23.1349,20.2584Q23.1544,20.1873,23.1807,20.1185Q23.207,20.0496,23.2399,19.9837Q23.2728,19.9178,23.312,19.8554Q25,17.171,25,14Q25,12.6779,24.6867,11.39346Q24.6693,11.32187,24.6589,11.24891Q24.6485,11.17595,24.6454,11.10233Q24.6422,11.02871,24.6463,10.95513Q24.6504,10.88155,24.6616,10.80873Q24.6729,10.7359,24.6912,10.66453Q24.7096,10.59317,24.7348,10.52394Q24.7601,10.45471,24.792,10.38829Q24.8239,10.32187,24.8622,10.2589Q24.9005,10.19593,24.9447,10.13702Q24.989,10.0781,25.0388,10.02381Q25.0887,9.96952,25.1436,9.92037Q25.1985,9.87122,25.2579,9.82769Q25.3174,9.78416,25.3808,9.74667Q25.4443,9.70918,25.5111,9.67809Q25.5779,9.64699,25.6474,9.6226Q25.717,9.59821,25.7886,9.58074Q25.8602,9.56328,25.9331,9.55292Q26.0061,9.54256,26.0797,9.5394Q26.1533,9.53624,26.2269,9.54031Q26.3005,9.54439,26.3733,9.55565Q26.4461,9.56692,26.5175,9.58527Q26.5888,9.60361,26.6581,9.62887Q26.7273,9.65412,26.7937,9.68604Q26.8601,9.71796,26.9231,9.75624Q26.9861,9.79451,27.045,9.83878Q27.1039,9.88304,27.1582,9.93287Q27.2125,9.98269,27.2616,10.0376Q27.3108,10.0925,27.3543,10.15196Q27.3979,10.21142,27.4353,10.27486Q27.4728,10.3383,27.5039,10.40511Q27.535,10.47192,27.5594,10.54146Q27.5838,10.61099,27.6013,10.68258Z" fill="#04AAEB" fill-opacity="1"/></g></svg>