<svg xmlns="http://www.w3.org/2000/svg" xmlns:xlink="http://www.w3.org/1999/xlink" fill="none" version="1.1" width="64" height="64" viewBox="0 0 64 64"><defs><clipPath id="master_svg0_41_2696"><rect x="0" y="0" width="64" height="64" rx="0"/></clipPath><filter id="master_svg1_41_2697" filterUnits="objectBoundingBox" color-interpolation-filters="sRGB" x="-0.36363636363636365" y="-0.2909090909090909" width="1.7272727272727273" height="1.7272727272727273"><feFlood flood-opacity="0" result="BackgroundImageFix"/><feColorMatrix in="SourceAlpha" type="matrix" values="0 0 0 0 0 0 0 0 0 0 0 0 0 0 0 0 0 0 127 0"/><feOffset dy="4" dx="0"/><feGaussianBlur stdDeviation="5"/><feColorMatrix type="matrix" values="0 0 0 0 1 0 0 0 0 0.47843137383461 0 0 0 0 0.062745101749897 0 0 0 0.30000001192092896 0"/><feBlend mode="normal" in2="BackgroundImageFix" result="effect1_dropShadow"/><feBlend mode="normal" in="SourceGraphic" in2="effect1_dropShadow" result="shape"/></filter><filter id="master_svg2_41_2724" filterUnits="objectBoundingBox" color-interpolation-filters="sRGB" x="-2.061856926938966" y="-0.5662498763021352" width="5.123713853877932" height="2.415624690755338"><feFlood flood-opacity="0" result="BackgroundImageFix"/><feColorMatrix in="SourceAlpha" type="matrix" values="0 0 0 0 0 0 0 0 0 0 0 0 0 0 0 0 0 0 127 0"/><feOffset dy="4" dx="0"/><feGaussianBlur stdDeviation="5"/><feColorMatrix type="matrix" values="0 0 0 0 0.9803921580314636 0 0 0 0 0.9803921580314636 0 0 0 0 0.9803921580314636 0 0 0 0.5 0"/><feBlend mode="normal" in2="BackgroundImageFix" result="effect1_dropShadow"/><feBlend mode="normal" in="SourceGraphic" in2="effect1_dropShadow" result="shape"/></filter></defs><g clip-path="url(#master_svg0_41_2696)"><g filter="url(#master_svg1_41_2697)"><path d="M52.7176,45.75Q52.7667,45.8351,52.8102,45.9231Q52.8536,46.0112,52.8912,46.102Q52.9288,46.1927,52.9603,46.2857Q52.9919,46.3787,53.0173,46.4735Q53.0427,46.5684,53.0619,46.6647Q53.0811,46.7611,53.0939,46.8584Q53.1067,46.9558,53.1131,47.0538Q53.1196,47.1518,53.1195,47.25Q53.1196,47.3482,53.1131,47.4462Q53.1067,47.5442,53.0939,47.6416Q53.0811,47.739,53.0619,47.8353Q53.0427,47.9316,53.0173,48.0265Q52.9919,48.1213,52.9603,48.2143Q52.9288,48.3073,52.8912,48.3981Q52.8536,48.4888,52.8102,48.5769Q52.7667,48.6649,52.7176,48.75Q52.6685,48.8351,52.614,48.9167Q52.5594,48.9984,52.4996,49.0763Q52.4398,49.1542,52.3751,49.228Q52.3103,49.3019,52.2409,49.3713Q52.1714,49.4408,52.0976,49.5055Q52.0238,49.5703,51.9458,49.6301Q51.8679,49.6898,51.7863,49.7444Q51.7046,49.799,51.6196,49.8481Q51.5345,49.8972,51.4464,49.9406Q51.3583,49.9841,51.2676,50.0216Q51.1769,50.0592,51.0839,50.0908Q50.9909,50.1224,50.896,50.1478Q50.8011,50.1732,50.7048,50.1924Q50.6085,50.2115,50.5111,50.2243Q50.4138,50.2372,50.3158,50.2436Q50.2178,50.25,50.1195,50.25L12.88045,50.25Q12.78224,50.25,12.68425,50.2436Q12.58625,50.2372,12.48888,50.2243Q12.39151,50.2115,12.29519,50.1924Q12.19886,50.1732,12.104,50.1478Q12.00914,50.1224,11.91614,50.0908Q11.82314,50.0592,11.73241,50.0216Q11.641670000000001,49.9841,11.55359,49.9406Q11.46551,49.8972,11.38045,49.8481Q11.2954,49.799,11.21374,49.7444Q11.13209,49.6898,11.05417,49.6301Q10.97626,49.5703,10.90242,49.5055Q10.828579999999999,49.4408,10.759129999999999,49.3713Q10.689689999999999,49.3019,10.624939999999999,49.228Q10.560179999999999,49.1542,10.50039,49.0763Q10.44061,48.9984,10.386050000000001,48.9167Q10.331479999999999,48.8351,10.28238,48.75Q10.233270000000001,48.6649,10.18984,48.5769Q10.1464,48.4888,10.10882,48.3981Q10.07123,48.3073,10.03966,48.2143Q10.008099999999999,48.1213,9.98268,48.0265Q9.95726,47.9316,9.9381,47.8353Q9.91894,47.739,9.90612,47.6416Q9.8933,47.5442,9.88688,47.4462Q9.88046,47.3482,9.88045,47.25Q9.88046,47.1518,9.88688,47.0538Q9.8933,46.9558,9.90612,46.8584Q9.91894,46.7611,9.9381,46.6647Q9.95726,46.5684,9.98268,46.4735Q10.008099999999999,46.3787,10.03966,46.2857Q10.07123,46.1927,10.10882,46.102Q10.1464,46.0112,10.18984,45.9231Q10.233270000000001,45.8351,10.28238,45.75L28.9019,13.5Q28.951,13.414950000000001,29.0056,13.33329Q29.0602,13.251629999999999,29.1199,13.17372Q29.1797,13.0958,29.2445,13.02196Q29.3092,12.94812,29.3787,12.87868Q29.4481,12.80923,29.522,12.74448Q29.5958,12.67973,29.6737,12.61994Q29.7516,12.56015,29.8333,12.50559Q29.9149,12.45103,30,12.40192Q30.0851,12.35282,30.1731,12.30938Q30.2612,12.26594,30.352,12.22836Q30.4427,12.19078,30.5357,12.15921Q30.6287,12.12764,30.7235,12.102219999999999Q30.8184,12.0768,30.9147,12.05764Q31.0111,12.03848,31.1084,12.02567Q31.2058,12.01285,31.3038,12.00642Q31.4018,12,31.5,12Q31.5982,12,31.6962,12.00642Q31.7942,12.01285,31.8916,12.02567Q31.989,12.03848,32.085300000000004,12.05764Q32.1816,12.0768,32.2765,12.102219999999999Q32.371300000000005,12.12764,32.4643,12.15921Q32.5573,12.19078,32.6481,12.22836Q32.7388,12.26594,32.826899999999995,12.30938Q32.9149,12.35282,33,12.40192Q33.0851,12.45103,33.1667,12.50559Q33.248400000000004,12.56015,33.3263,12.61994Q33.4042,12.67973,33.478,12.74448Q33.5519,12.80923,33.621300000000005,12.87868Q33.690799999999996,12.94812,33.7555,13.02196Q33.8203,13.0958,33.8801,13.17372Q33.939800000000005,13.251629999999999,33.9944,13.33329Q34.049,13.414950000000001,34.0981,13.5L52.7176,45.75Z" fill="#FF7A10" fill-opacity="1"/></g><g transform="matrix(0.9848077297210693,0.1736481785774231,0.1736481785774231,-0.9848077297210693,-8.6574946641922,98.95562157034874)" filter="url(#master_svg2_41_2724)"><g><path d="M32.583524865822795,68.22110613899879L24.540433421722792,69.91195939025879L26.299884865822794,75.46893939025878L33.76998486582279,70.58344939025879L32.583524865822795,68.22110613899879Z" fill-rule="evenodd" fill="#FFFFFF" fill-opacity="1"/></g><g><path d="M27.978954529953004,69.2463L24.630770529953004,69.92490000000001L24.594520929953003,69.68860000000001L24.499999046323,80.2561L29.950084529953003,79.7833L27.978954529953004,69.2463ZM24.796244529953004,52.232549L24.752738529953003,51.9999834895L24.750575529953004,52.241806L24.796244529953004,52.232549Z" fill-rule="evenodd" fill="#FFFFFF" fill-opacity="1"/></g><g transform="matrix(0.9664709568023682,-0.25677597522735596,0.1673022359609604,0.985905647277832,-9.05720202802626,7.949120778387936)"><path d="M29.67900905265808,59.68438768386841L31.40901905265808,71.59678768386841L27.948993052658082,71.59678768386841L29.67900905265808,59.68438768386841Z" fill="#FFFFFF" fill-opacity="1"/></g></g></g></svg>