<svg xmlns="http://www.w3.org/2000/svg" xmlns:xlink="http://www.w3.org/1999/xlink" fill="none" version="1.1" width="25" height="25" viewBox="0 0 25 25"><defs><clipPath id="master_svg0_82_2710"><rect x="0" y="0" width="25" height="25" rx="0"/></clipPath></defs><g clip-path="url(#master_svg0_82_2710)"><g><g><path d="M4.0000048489624,8L6.4014893,21.619385C6.4628797,21.967492,6.697441599999999,22.241566,7.0009556,22.368631C7.1470921,22.452224,7.3163497,22.5,7.4967651,22.5L17.796753000000002,22.5C17.939847999999998,22.5,18.075923,22.469945,18.199011,22.415803C18.569439,22.322471,18.869363,22.019939,18.940002,21.619385L21.341486,8L19.310645,8L17.106540000000003,20.5L8.234951500000001,20.5L6.0308464,8L4.0000048489624,8L4.0000048489624,8Z" fill-rule="evenodd" fill="#EF4444" fill-opacity="1"/></g><g><g><rect x="3" y="4.5" width="19.5" height="1.5" rx="0.75" fill="#EF4444" fill-opacity="1"/></g><g><rect x="9.75" y="2" width="6" height="4" rx="1" fill="#EF4444" fill-opacity="1"/></g></g></g></g></svg>