<svg xmlns="http://www.w3.org/2000/svg" xmlns:xlink="http://www.w3.org/1999/xlink" fill="none" version="1.1" width="56" height="56" viewBox="0 0 56 56"><defs><clipPath id="master_svg0_24_0650"><rect x="0" y="0" width="56" height="56" rx="0"/></clipPath></defs><g clip-path="url(#master_svg0_24_0650)"><g><g><path d="M43,21C43,21.4296,42.9819,21.855,42.9465,22.2755C47.1826,24.9266,50,29.6343,50,35C50,43.2843,43.2843,50,35,50C32.4718,50,30.0897,49.3745,28,48.2699C25.9103,49.3745,23.5282,50,21,50C12.71573,50,6,43.2843,6,35C6,29.6343,8.81736,24.9266,13.05347,22.2755C13.01806,21.855,13,21.4296,13,21C13,12.71573,19.7157,6,28,6C36.2843,6,43,12.71573,43,21ZM20.9999,20Q19.9515,20,18.9133,20.1458Q17.8751,20.2917,16.8672,20.5805Q15.85939,20.8694,14.90153,21.2956Q13.943670000000001,21.721899999999998,13.05442,22.2772Q13.09144,22.7104,13.15349,23.1408Q13.21555,23.5711,13.30242,23.9972Q13.3893,24.4232,13.5007,24.8435Q13.612110000000001,25.2637,13.74767,25.6768Q13.88324,26.09,14.0425,26.4945Q14.20177,26.8991,14.3842,27.2938Q14.56663,27.6884,14.77162,28.0719Q14.9766,28.4553,15.20345,28.8262Q15.43031,29.1972,15.67826,29.5543Q15.92622,29.9115,16.1944,30.2537Q16.462699999999998,30.5959,16.7503,30.9219Q17.0379,31.248,17.343899999999998,31.5569Q17.649900000000002,31.8658,17.973300000000002,32.156400000000005Q18.296599999999998,32.4471,18.6363,32.7185Q18.976,32.9899,19.3308,33.2412Q19.6856,33.4925,20.0544,33.7228L20.0545,33.7228Q20,34.3602,20,34.9999Q20,35.5089,20.0345,36.0166Q20.069000000000003,36.5244,20.1378,37.0286Q20.2066,37.5328,20.3095,38.0313Q20.412300000000002,38.5297,20.5487,39.02Q20.6851,39.5103,20.8544,39.9902Q21.023699999999998,40.4701,21.2252,40.9375Q21.4266,41.4048,21.6593,41.8575Q21.892,42.3101,22.1548,42.7459Q22.4176,43.1817,22.7093,43.5987Q23.001,44.0157,23.3204,44.412Q23.6397,44.8082,23.9852,45.182Q24.3306,45.5557,24.7006,45.9051Q25.0706,46.2545,25.4634,46.5781Q25.8562,46.9017,26.2701,47.1978Q26.6839,47.494,27.1169,47.7615Q27.5499,48.0289,28,48.2664Q28.4501,48.0289,28.8831,47.7615Q29.316,47.494,29.7299,47.1978Q30.1437,46.9017,30.5366,46.5781Q30.9294,46.2545,31.2994,45.9051Q31.6694,45.5557,32.0148,45.182Q32.360299999999995,44.8082,32.6796,44.412Q32.9989,44.0157,33.2907,43.5987Q33.5824,43.1817,33.8452,42.7459Q34.108000000000004,42.3101,34.3407,41.8575Q34.5734,41.4048,34.7748,40.9375Q34.976299999999995,40.4701,35.1456,39.9902Q35.3149,39.5103,35.4513,39.02Q35.5877,38.5297,35.6905,38.0313Q35.7934,37.5328,35.8622,37.0286Q35.931,36.5244,35.9655,36.0166Q36,35.5089,36,34.9999Q36,34.3602,35.945499999999996,33.7227Q36.3143,33.4924,36.6691,33.2411Q37.0239,32.9898,37.363600000000005,32.7184Q37.7033,32.447,38.0267,32.156400000000005Q38.35,31.8657,38.656,31.5569Q38.962,31.248,39.2496,30.9219Q39.5372,30.5958,39.8055,30.2536Q40.0737,29.9114,40.3216,29.5543Q40.5696,29.1971,40.7964,28.8262Q41.0233,28.4553,41.2283,28.0719Q41.4333,27.6884,41.6157,27.2938Q41.7981,26.8991,41.9574,26.4945Q42.1166,26.0899,42.2522,25.6768Q42.3878,25.2637,42.4992,24.8434Q42.6106,24.4232,42.6975,23.9971Q42.7843,23.5711,42.8464,23.1408Q42.9084,22.7104,42.9455,22.2772Q42.0562,21.721899999999998,41.0983,21.2956Q40.1405,20.8694,39.1326,20.5805Q38.1248,20.2917,37.086600000000004,20.1458Q36.0484,20,34.9999,20Q34.088499999999996,20,33.1837,20.1104Q32.278999999999996,20.2207,31.3943,20.439799999999998Q30.5095,20.6589,29.6578,20.9835Q28.8061,21.3081,28,21.7335L28,21.7334L27.9999,21.7335Q27.1938,21.3081,26.3421,20.9835Q25.4904,20.6589,24.6056,20.439799999999998Q23.7209,20.2207,22.8162,20.1104Q21.9114,20,20.9999,20Z" fill-rule="evenodd" fill="#4B4B4B" fill-opacity="1"/></g><g><path d="M27.999976220397947,21.733494617068907Q27.58524622039795,21.952322619628905,27.18500622039795,22.196626619628905Q26.78475622039795,22.440931619628905,26.40055622039795,22.709758619628907Q26.01634622039795,22.978587619628907,25.64968622039795,23.270887619628905Q25.28302622039795,23.563187619628906,24.93533622039795,23.877817619628907Q24.58764622039795,24.192447619628908,24.26028622039795,24.528187619628905Q23.93292622039795,24.863917619628907,23.62717622039795,25.219447619628905Q23.32142622039795,25.574967619628907,23.03848622039795,25.948897619628905Q22.75553622039795,26.322827619628907,22.49649622039795,26.713697619628906Q22.23746622039795,27.104567619628906,22.00334622039795,27.510857619628908Q21.76922622039795,27.917147619628906,21.56094622039795,28.337267619628907Q21.35266622039795,28.757387619628908,21.17102622039795,29.189687619628906Q20.98939222039795,29.621997619628907,20.835114220397948,30.06480761962891Q20.68083522039795,30.507617619628906,20.554517220397948,30.959197619628906Q20.42819822039795,31.410777619628906,20.330331220397948,31.869397619628906Q20.23246522039795,32.3279976196289,20.16343422039795,32.79179761962891Q20.094403320397948,33.25559761962891,20.05447665849795,33.722797619628906Q20.11548102039795,33.760897619628906,20.176846220397948,33.79839761962891Q21.05596622039795,34.335797619628906,22.00029622039795,34.74789761962891Q22.94463622039795,35.15999761962891,23.93644622039795,35.43909761962891Q24.92826622039795,35.71819761962891,25.94893622039795,35.859097619628905Q26.96959622039795,35.99999761962891,27.99994622039795,35.99999761962891Q29.04835622039795,35.99999761962891,30.08654622039795,35.8540976196289Q31.12484622039795,35.70829761962891,32.13264622039795,35.41939761962891Q33.14044622039795,35.13059761962891,34.09834622039795,34.7042976196289Q35.05624622039795,34.27809761962891,35.94544622039795,33.7226976196289Q35.90554622039795,33.255497619628905,35.83654622039795,32.791697619628906Q35.76744622039795,32.32789761962891,35.66964622039795,31.869297619628906Q35.57174622039795,31.410747619628907,35.44544622039795,30.959167619628907Q35.31914622039795,30.507587619628907,35.16484622039795,30.064777619628906Q35.01054622039795,29.621977619628908,34.82894622039795,29.189667619628906Q34.647246220397946,28.757357619628905,34.43894622039795,28.337247619628904Q34.23074622039795,27.917127619628907,33.996546220397946,27.510837619628905Q33.76244622039795,27.104557619628906,33.50344622039795,26.713687619628907Q33.24444622039795,26.322807619628907,32.961446220397946,25.948887619628906Q32.67854622039795,25.574957619628908,32.37274622039795,25.219437619628906Q32.06704622039795,24.863907619628907,31.73964622039795,24.528177619628906Q31.412246220397947,24.192437619628905,31.064646220397947,23.877807619628907Q30.71694622039795,23.563177619628906,30.35024622039795,23.270877619628905Q29.98359622039795,22.978587619628907,29.59938622039795,22.709756619628905Q29.21518622039795,22.440929619628907,28.81493622039795,22.196625619628907Q28.41469622039795,21.952321619628908,27.999976220397947,21.733494617068907Z" fill-rule="evenodd" fill="#4B4B4B" fill-opacity="1"/></g></g></g></svg>