<svg xmlns="http://www.w3.org/2000/svg" xmlns:xlink="http://www.w3.org/1999/xlink" fill="none" version="1.1" width="44" height="44" viewBox="0 0 44 44"><g><g><path d="M37,15C37,15.4296,36.9819,15.855,36.9465,16.2755C41.1826,18.9266,44,23.6343,44,29C44,37.2843,37.2843,44,29,44C26.4718,44,24.0897,43.3745,22,42.2699C19.9103,43.3745,17.5282,44,15,44C6.71573,44,0,37.2843,0,29C0,23.6343,2.81736,18.9266,7.05347,16.2755C7.01806,15.855,7,15.4296,7,15C7,6.71573,13.7157,0,22,0C30.2843,0,37,6.71573,37,15ZM15,14Q13.9516,14,12.9134,14.1458Q11.8751,14.2917,10.8673,14.5805Q9.85945,14.8694,8.90159,15.2956Q7.94373,15.7219,7.05448,16.2772Q7.0915,16.7104,7.15355,17.1408Q7.21561,17.5711,7.30248,17.9972Q7.38936,18.4232,7.50076,18.8435Q7.61217,19.2637,7.74774,19.6768Q7.8833,20.09,8.04256,20.4945Q8.20183,20.8991,8.38426,21.2938Q8.56669,21.6884,8.77168,22.0719Q8.97667,22.4553,9.20352,22.8262Q9.43037,23.1972,9.67832,23.5543Q9.92628,23.9115,10.1945,24.2537Q10.4627,24.5959,10.7503,24.9219Q11.0379,25.248,11.3439,25.5569Q11.6499,25.8658,11.9733,26.1564Q12.2967,26.4471,12.6364,26.7185Q12.976,26.9899,13.3309,27.2412Q13.6857,27.4925,14.0545,27.7228Q14,28.3602,14,29Q14,29.5089,14.0345,30.0167Q14.069,30.5244,14.1378,31.0287Q14.2066,31.5329,14.3095,32.0313Q14.4123,32.5297,14.5487,33.02Q14.6851,33.5103,14.8544,33.9903Q15.0237,34.4702,15.2252,34.9376Q15.4266,35.4049,15.6593,35.8575Q15.892,36.3102,16.1548,36.746Q16.4176,37.1818,16.7093,37.5988Q17.001,38.0158,17.3204,38.412Q17.6397,38.8083,17.9852,39.182Q18.3306,39.5557,18.7006,39.9052Q19.0706,40.2546,19.4634,40.5782Q19.8562,40.9017,20.2701,41.1979Q20.6839,41.4941,21.1169,41.7615Q21.5499,42.029,22,42.2665Q22.4501,42.029,22.8831,41.7615Q23.316,41.4941,23.7299,41.1979Q24.1437,40.9017,24.5366,40.5782Q24.9294,40.2546,25.2994,39.9052Q25.6694,39.5557,26.0148,39.182Q26.3603,38.8083,26.6796,38.412Q26.9989,38.0158,27.2907,37.5988Q27.5824,37.1818,27.8452,36.746Q28.108,36.3102,28.3407,35.8575Q28.5734,35.4049,28.7748,34.9376Q28.9763,34.4702,29.1456,33.9903Q29.3149,33.5103,29.4513,33.02Q29.5877,32.5297,29.6905,32.0313Q29.7934,31.5329,29.8622,31.0287Q29.931,30.5244,29.9655,30.0167Q30,29.5089,30,29Q30,28.3602,29.9455,27.7228Q30.3143,27.4925,30.6691,27.2412Q31.024,26.9899,31.3636,26.7185Q31.7033,26.4471,32.0267,26.1564Q32.3501,25.8658,32.6561,25.5569Q32.9621,25.248,33.2497,24.9219Q33.5373,24.5959,33.8055,24.2537Q34.0737,23.9115,34.3217,23.5543Q34.5696,23.1972,34.7965,22.8262Q35.0233,22.4553,35.2283,22.0719Q35.4333,21.6884,35.6157,21.2938Q35.7982,20.8991,35.9574,20.4945Q36.1167,20.09,36.2523,19.6768Q36.3878,19.2637,36.4992,18.8435Q36.6106,18.4232,36.6975,17.9972Q36.7844,17.5711,36.8464,17.1408Q36.9085,16.7104,36.9455,16.2772Q36.0563,15.7219,35.0984,15.2956Q34.1405,14.8694,33.1327,14.5805Q32.1249,14.2917,31.0866,14.1458Q30.0484,14,29,14Q28.0885,14,27.1838,14.1104Q26.279,14.2207,25.3943,14.4398Q24.5095,14.6589,23.6578,14.9835Q22.8061,15.3081,22,15.7335Q21.1939,15.3081,20.3422,14.9835Q19.4905,14.6589,18.6057,14.4398Q17.721,14.2207,16.8162,14.1104Q15.9115,14,15,14Z" fill-rule="evenodd" fill="#323232" fill-opacity="1"/></g><g><path d="M14.176937737976074,27.798401434326173Q14.115542337976073,27.760901434326172,14.054509806276075,27.722701434326172Q14.094437537976074,27.25550143432617,14.163469737976074,26.79170143432617Q14.232501737976074,26.327901434326172,14.330369737976074,25.86930143432617Q14.428236737976075,25.41074143432617,14.554556737976075,24.95916143432617Q14.680876737976075,24.50758143432617,14.835155737976073,24.064771434326172Q14.989435737976073,23.62197143432617,15.171066737976075,23.189661434326172Q15.352706737976074,22.75735143432617,15.560996737976074,22.33723143432617Q15.769276737976075,21.917121434326173,16.003396737976075,21.51083143432617Q16.237516737976073,21.104541434326173,16.496546737976075,20.713671434326173Q16.755586737976074,20.322801434326173,17.038536737976074,19.948871434326172Q17.321476737976074,19.57494143432617,17.627226737976073,19.219421434326172Q17.932976737976073,18.86389143432617,18.260336737976075,18.528161434326172Q18.587696737976074,18.19243143432617,18.935386737976074,17.877801434326173Q19.283076737976074,17.563171434326172,19.649746737976074,17.27087143432617Q20.016406737976073,16.97857143432617,20.400616737976073,16.709742434326174Q20.784816737976072,16.440916434326173,21.185066737976072,16.196612434326173Q21.585306737976076,15.952308434326172,22.000036737976075,15.733481925526172Q22.414756737976074,15.952308434326172,22.815006737976073,16.196612434326173Q23.215246737976074,16.440916434326173,23.599456737976077,16.709742434326174Q23.983656737976077,16.97857143432617,24.350276737976074,17.27087143432617Q24.716976737976076,17.563171434326172,25.06467673797607,17.877801434326173Q25.412376737976075,18.19243143432617,25.739776737976072,18.528161434326172Q26.067076737976073,18.86389143432617,26.372876737976075,19.219421434326172Q26.678576737976073,19.57494143432617,26.961576737976074,19.948871434326172Q27.244476737976072,20.322801434326173,27.503476737976072,20.713671434326173Q27.762576737976076,21.104541434326173,27.996676737976074,21.51083143432617Q28.230776737976072,21.917121434326173,28.439076737976073,22.33723143432617Q28.647376737976074,22.75735143432617,28.828976737976074,23.189661434326172Q29.010676737976077,23.62197143432617,29.164876737976073,24.064771434326172Q29.319176737976072,24.50758143432617,29.445476737976072,24.95916143432617Q29.571876737976076,25.41074143432617,29.669676737976076,25.86930143432617Q29.767576737976075,26.327901434326172,29.836576737976074,26.79170143432617Q29.905676737976073,27.25550143432617,29.945576737976076,27.722701434326172Q29.056276737976074,28.278101434326175,28.098476737976075,28.704301434326172Q27.140576737976076,29.130601434326174,26.132776737976073,29.419401434326172Q25.124876737976074,29.708301434326174,24.086676737976074,29.85410143432617Q23.04844673797607,30.000001434326173,22.000036737976075,30.000001434326173Q20.969686737976076,30.000001434326173,19.949026737976073,29.85910143432617Q18.928356737976074,29.718201434326172,17.936546737976073,29.439101434326172Q16.944726737976076,29.160001434326173,16.000386737976076,28.747901434326174Q15.056056737976075,28.33580143432617,14.176937737976074,27.798401434326173Z" fill-rule="evenodd" fill="#323232" fill-opacity="1"/></g></g></svg>