<svg xmlns="http://www.w3.org/2000/svg" xmlns:xlink="http://www.w3.org/1999/xlink" fill="none" version="1.1" width="693.2236938476562" height="693.2236328125" viewBox="0 0 693.2236938476562 693.2236328125"><g><g transform="matrix(0.7071067690849304,-0.7071067690849304,0.7071067690849304,0.7071067690849304,-245.18310870458208,101.55821274684331)"><g><path d="M245.3662567138672,766.7413024902344L245.3662567138672,836.7413024902344Q239.35225671386718,836.7413024902344,233.3442567138672,836.4463024902343Q227.3372567138672,836.1513024902345,221.35225671386718,835.5613024902343Q215.3662567138672,834.9723024902344,209.41725671386718,834.0893024902343Q203.4682567138672,833.2073024902344,197.5692567138672,832.0333024902343Q191.6702567138672,830.8603024902344,185.8362567138672,829.3993024902344Q180.00225671386718,827.9373024902344,174.24625671386718,826.1913024902344Q168.4912567138672,824.4453024902343,162.82825671386718,822.4193024902344Q157.1652567138672,820.3933024902344,151.60925671386718,818.0913024902344Q146.0522567138672,815.7903024902344,140.61525671386718,813.2183024902344Q135.1782567138672,810.6473024902343,129.8742567138672,807.8123024902344Q124.57025671386718,804.9763024902344,119.41125671386719,801.8843024902344Q114.25225671386718,798.7923024902343,109.25125671386719,795.4513024902344Q104.25025671386719,792.1093024902343,99.4199567138672,788.5273024902344Q94.58915671386718,784.9443024902343,89.93995671386719,781.1283024902343Q85.29075671386718,777.3133024902344,80.8343567138672,773.2743024902344Q76.37795671386719,769.2353024902344,72.12505671386718,764.9823024902344Q67.87225671386719,760.7293024902344,63.833256713867186,756.2733024902343Q59.79415671386719,751.8163024902344,55.97865671386719,747.1673024902343Q52.16315671386719,742.5183024902344,48.580456713867186,737.6873024902344Q44.99765671386719,732.8563024902344,41.65615671386719,727.8563024902344Q38.31475671386719,722.8553024902344,35.222756713867184,717.6963024902343Q32.130756713867186,712.5373024902344,29.29555671386719,707.2333024902343Q26.46035671386719,701.9293024902344,23.888856713867188,696.4923024902344Q21.317356713867188,691.0553024902345,19.015756713867187,685.4983024902344Q16.714156713867187,679.9423024902344,14.687956713867187,674.2793024902344Q12.661756713867188,668.6163024902344,10.915856713867187,662.8613024902344Q9.169986713867187,657.1053024902344,7.708596713867188,651.2713024902343Q6.2472167138671875,645.4373024902344,5.073866713867187,639.5383024902344Q3.9005067138671876,633.6393024902344,3.0180067138671873,627.6903024902344Q2.1355167138671876,621.7413024902344,1.5459967138671875,615.7553024902344Q0.9564827138671875,609.7703024902344,0.6613697138671875,603.7623024902343Q0.3662567138671875,597.7553024902344,0.3662567138671875,591.7413024902344L70.36625671386719,591.7413024902344Q70.36625671386719,596.0373024902344,70.5770567138672,600.3283024902344Q70.78785671386719,604.6193024902343,71.20895671386718,608.8943024902344Q71.62995671386719,613.1693024902344,72.26035671386718,617.4193024902344Q72.89065671386719,621.6683024902344,73.72875671386718,625.8823024902345Q74.56685671386718,630.0953024902344,75.61075671386719,634.2623024902343Q76.6545567138672,638.4303024902345,77.90165671386718,642.5413024902343Q79.14875671386719,646.6523024902344,80.59595671386718,650.6973024902344Q82.0432567138672,654.7413024902344,83.68725671386719,658.7103024902344Q85.3313567138672,662.6793024902344,87.16805671386719,666.5633024902344Q89.00485671386718,670.4473024902344,91.03005671386718,674.2353024902344Q93.05515671386719,678.0243024902344,95.26375671386718,681.7093024902344Q97.47235671386719,685.3943024902344,99.85905671386719,688.9663024902344Q102.24625671386718,692.5383024902344,104.80525671386718,695.9883024902344Q107.36425671386719,699.4393024902344,110.08925671386719,702.7603024902344Q112.81525671386719,706.0813024902343,115.70025671386719,709.2643024902344Q118.58525671386718,712.4473024902344,121.62225671386719,715.4853024902344Q124.66025671386718,718.5223024902343,127.84325671386719,721.4073024902343Q131.02625671386718,724.2923024902343,134.34725671386718,727.0183024902344Q137.66825671386718,729.7433024902343,141.11925671386717,732.3023024902343Q144.5692567138672,734.8613024902344,148.1412567138672,737.2483024902344Q151.7132567138672,739.6353024902344,155.3982567138672,741.8433024902344Q159.0832567138672,744.0523024902343,162.8722567138672,746.0773024902344Q166.6602567138672,748.1023024902344,170.54425671386718,749.9393024902344Q174.4272567138672,751.7763024902345,178.3962567138672,753.4203024902343Q182.36525671386718,755.0643024902344,186.4102567138672,756.5113024902344Q190.4552567138672,757.9583024902344,194.56625671386718,759.2053024902343Q198.6772567138672,760.4523024902344,202.8442567138672,761.4963024902344Q207.01225671386717,762.5403024902344,211.2252567138672,763.3783024902343Q215.4392567138672,764.2163024902344,219.6882567138672,764.8473024902344Q223.9382567138672,765.4773024902344,228.2132567138672,765.8983024902343Q232.4882567138672,766.3193024902343,236.7792567138672,766.5303024902344Q241.0702567138672,766.7413024902344,245.3662567138672,766.7413024902344ZM420.3662567138672,591.7413024902344L490.3662567138672,591.7413024902344Q490.3662567138672,585.7273024902344,490.0712567138672,579.7193024902344Q489.7762567138672,573.7123024902344,489.1862567138672,567.7273024902344Q488.5972567138672,561.7413024902344,487.7142567138672,555.7923024902343Q486.8322567138672,549.8433024902344,485.65825671386716,543.9443024902343Q484.4852567138672,538.0453024902343,483.0242567138672,532.2113024902344Q481.5622567138672,526.3773024902343,479.8162567138672,520.6213024902344Q478.0702567138672,514.8663024902344,476.0442567138672,509.20330249023436Q474.0182567138672,503.54030249023435,471.7162567138672,497.98430249023437Q469.41525671386717,492.4273024902344,466.84325671386716,486.9903024902344Q464.2722567138672,481.5533024902344,461.4372567138672,476.2493024902344Q458.6012567138672,470.9453024902344,455.50925671386716,465.7863024902344Q452.4172567138672,460.62730249023434,449.07625671386717,455.62630249023437Q445.7352567138672,450.6253024902344,442.1522567138672,445.7949024902344Q438.56925671386716,440.9641024902344,434.75425671386716,436.3149024902344Q430.9382567138672,431.66570249023437,426.8992567138672,427.2093024902344Q422.8602567138672,422.75290249023436,418.6072567138672,418.5001024902344Q414.3542567138672,414.24730249023435,409.89825671386717,410.2082024902344Q405.4422567138672,406.1692024902344,400.7922567138672,402.35370249023435Q396.1432567138672,398.53820249023437,391.3122567138672,394.9554024902344Q386.4812567138672,391.3726024902344,381.4812567138672,388.03120249023436Q376.48025671386716,384.6898024902344,371.3212567138672,381.5977024902344Q366.1622567138672,378.5057024902344,360.8582567138672,375.67050249023436Q355.5542567138672,372.8354024902344,350.11725671386716,370.2639024902344Q344.6802567138672,367.6924024902344,339.1232567138672,365.39080249023436Q333.5672567138672,363.0891024902344,327.9042567138672,361.06290249023436Q322.2412567138672,359.03670249023435,316.4862567138672,357.2909024902344Q310.73025671386716,355.5449724902344,304.89625671386716,354.0835824902344Q299.0622567138672,352.6222024902344,293.1632567138672,351.4488524902344Q287.2642567138672,350.2754924902344,281.3152567138672,349.39299249023435Q275.3662567138672,348.5105024902344,269.3802567138672,347.9209824902344Q263.3952567138672,347.3314674902344,257.3882567138672,347.0363544902344Q251.3802567138672,346.74124145503436,245.3662567138672,346.74124145503436L245.3662567138672,416.7412024902344Q249.66225671386718,416.7412024902344,253.95325671386718,416.95200249023435Q258.2442567138672,417.16280249023436,262.5192567138672,417.5839024902344Q266.7942567138672,418.00500249023435,271.0442567138672,418.63540249023436Q275.2932567138672,419.2657024902344,279.5072567138672,420.1038024902344Q283.7202567138672,420.9419024902344,287.8872567138672,421.9858024902344Q292.0552567138672,423.02960249023437,296.1662567138672,424.27670249023436Q300.2772567138672,425.52370249023437,304.3222567138672,426.97100249023435Q308.36725671386716,428.4183024902344,312.3362567138672,430.0623024902344Q316.3052567138672,431.7063024902344,320.1882567138672,433.5431024902344Q324.0722567138672,435.3799024902344,327.8602567138672,437.4050024902344Q331.6492567138672,439.43020249023436,335.3342567138672,441.6387024902344Q339.0192567138672,443.84730249023437,342.5912567138672,446.23410249023436Q346.1632567138672,448.6203024902344,349.6132567138672,451.18030249023434Q353.06425671386717,453.73930249023437,356.3852567138672,456.4643024902344Q359.70625671386716,459.18930249023435,362.8892567138672,462.0753024902344Q366.0722567138672,464.96030249023437,369.1102567138672,467.99730249023435Q372.1472567138672,471.03530249023436,375.0322567138672,474.21830249023435Q377.9172567138672,477.40130249023434,380.6432567138672,480.72230249023437Q383.3682567138672,484.0433024902344,385.92725671386717,487.49430249023436Q388.4862567138672,490.94430249023435,390.8732567138672,494.51630249023435Q393.2602567138672,498.08830249023435,395.46825671386716,501.7733024902344Q397.67725671386717,505.45830249023436,399.7022567138672,509.24730249023435Q401.7272567138672,513.0353024902344,403.56425671386717,516.9193024902344Q405.4012567138672,520.8023024902344,407.04525671386716,524.7713024902343Q408.68925671386717,528.7403024902344,410.13625671386717,532.7853024902344Q411.5832567138672,536.8303024902343,412.83125671386716,540.9413024902344Q414.0782567138672,545.0523024902344,415.1212567138672,549.2193024902344Q416.16525671386717,553.3873024902343,417.0032567138672,557.6003024902344Q417.8412567138672,561.8143024902344,418.4722567138672,566.0633024902344Q419.1022567138672,570.3133024902344,419.52325671386717,574.5883024902344Q419.94425671386716,578.8633024902344,420.1552567138672,583.1543024902344Q420.3662567138672,587.4453024902343,420.3662567138672,591.7413024902344Z" fill-rule="evenodd" fill="#FD6250" fill-opacity="1"/></g><g><path d="M150.0000457763672,347.1070251464844L0.0000457763671875,347.1070251464844L0.0000457763671875,497.1070251464844L50.00004577636719,497.1070251464844L50.00004577636719,397.1070251464844L150.0000457763672,397.1070251464844L150.0000457763672,347.1070251464844Z" fill-rule="evenodd" fill="#969696" fill-opacity="1"/></g><g transform="matrix(-1,0,0,-1,980.0000915527344,1673.4826049804688)"><rect x="490.0000457763672" y="836.7413024902344" width="50" height="50.000003814697266" rx="0" fill="#969696" fill-opacity="1"/></g><g transform="matrix(-1,0,0,-1,980.0000915527344,1473.4826049804688)"><rect x="490.0000457763672" y="736.7413024902344" width="50" height="50.000003814697266" rx="0" fill="#969696" fill-opacity="1"/></g><g transform="matrix(-1,0,0,-1,780.0000915527344,1673.4826049804688)"><rect x="390.0000457763672" y="836.7413024902344" width="50" height="50.000003814697266" rx="0" fill="#969696" fill-opacity="1"/></g></g><g transform="matrix(0.7071067690849304,-0.7071067690849304,0.7071067690849304,0.7071067690849304,-185.54512608222558,246.8968940151599)"><g><path d="M305.2583465576172,547.4212341308594Q307.7133465576172,547.4212341308594,310.16534655761717,547.3012341308594Q312.61734655761717,547.1802341308594,315.0603465576172,546.9392341308594Q317.5033465576172,546.6992341308594,319.9313465576172,546.3392341308594Q322.3593465576172,545.9782341308594,324.7673465576172,545.5002341308593Q327.1753465576172,545.0212341308594,329.5563465576172,544.4242341308593Q331.93734655761716,543.8282341308594,334.2863465576172,543.1152341308593Q336.6363465576172,542.4022341308594,338.94734655761715,541.5752341308594Q341.2583465576172,540.7482341308594,343.5263465576172,539.8092341308594Q345.7943465576172,538.8692341308594,348.0133465576172,537.8202341308594Q350.2333465576172,536.7702341308593,352.3983465576172,535.6132341308594Q354.5633465576172,534.4562341308593,356.66834655761716,533.1942341308594Q358.77434655761715,531.9322341308593,360.8153465576172,530.5682341308593Q362.8563465576172,529.2042341308594,364.8283465576172,527.7422341308594Q366.8003465576172,526.2792341308593,368.69734655761715,524.7222341308593Q370.5953465576172,523.1652341308594,372.4143465576172,521.5162341308594Q374.2333465576172,519.8682341308594,375.9693465576172,518.1322341308594Q377.7053465576172,516.3962341308594,379.3533465576172,514.5772341308593Q381.0023465576172,512.7582341308594,382.5593465576172,510.86023413085934Q384.1163465576172,508.9632341308594,385.5793465576172,506.99123413085937Q387.0413465576172,505.0192341308594,388.4053465576172,502.9782341308594Q389.76934655761715,500.93723413085934,391.0313465576172,498.83123413085934Q392.29334655761716,496.7262341308594,393.4503465576172,494.56123413085936Q394.6073465576172,492.3962341308594,395.6573465576172,490.17623413085937Q396.70634655761717,487.9572341308594,397.6463465576172,485.6892341308594Q398.5853465576172,483.4212341308594,399.4123465576172,481.11023413085934Q400.2393465576172,478.79923413085936,400.95234655761715,476.4492341308594Q401.6653465576172,474.10023413085935,402.2613465576172,471.7192341308594Q402.8583465576172,469.3382341308594,403.3373465576172,466.9302341308594Q403.8153465576172,464.5222341308594,404.1763465576172,462.0942341308594Q404.5363465576172,459.6662341308594,404.7763465576172,457.2232341308594Q405.0173465576172,454.78023413085936,405.1383465576172,452.32823413085936Q405.2583465576172,449.87623413085936,405.2583465576172,447.4212341308594Q405.2583465576172,444.96633413085937,405.1383465576172,442.5144341308594Q405.0173465576172,440.0625341308594,404.7763465576172,437.6195341308594Q404.5363465576172,435.1764341308594,404.1763465576172,432.7481341308594Q403.8153465576172,430.3199341308594,403.33634655761716,427.91223413085936Q402.8583465576172,425.5045341308594,402.2613465576172,423.1232341308594Q401.6653465576172,420.74193413085936,400.95234655761715,418.39273413085937Q400.2393465576172,416.04363413085935,399.4123465576172,413.7322341308594Q398.5853465576172,411.42083413085936,397.6463465576172,409.15293413085936Q396.70634655761717,406.8849341308594,395.6573465576172,404.6657341308594Q394.6073465576172,402.4465341308594,393.4503465576172,400.28153413085937Q392.29334655761716,398.11653413085935,391.0313465576172,396.01093413085937Q389.76934655761715,393.9053341308594,388.4053465576172,391.86423413085936Q387.0413465576172,389.82303413085936,385.5793465576172,387.85133413085936Q384.1163465576172,385.8795341308594,382.5593465576172,383.9819341308594Q381.0023465576172,382.0842341308594,379.3533465576172,380.2653341308594Q377.7053465576172,378.44643413085936,375.9693465576172,376.7105341308594Q374.2333465576172,374.97473413085936,372.4143465576172,373.3261341308594Q370.5953465576172,371.6775341308594,368.69734655761715,370.1202341308594Q366.8003465576172,368.56283413085936,364.8283465576172,367.10043413085936Q362.8563465576172,365.6381341308594,360.8153465576172,364.2742341308594Q358.77434655761715,362.91043413085936,356.66834655761716,361.6483341308594Q354.5633465576172,360.3863341308594,352.3983465576172,359.2291341308594Q350.2333465576172,358.0719341308594,348.0133465576172,357.02230413085937Q345.7943465576172,355.9727141308594,343.5263465576172,355.0332841308594Q341.2583465576172,354.0938441308594,338.94734655761715,353.2668241308594Q336.6363465576172,352.4398041308594,334.2863465576172,351.7272041308594Q331.93734655761716,351.0145941308594,329.5563465576172,350.4181041308594Q327.1753465576172,349.8216241308594,324.7673465576172,349.3427041308594Q322.3593465576172,348.86378413085936,319.9313465576172,348.5035841308594Q317.5033465576172,348.1433801308594,315.0603465576172,347.9027611308594Q312.61734655761717,347.66214313085936,310.16534655761717,347.54168813085937Q307.7133465576172,347.4212341308594,305.2583465576172,347.4212341308594Q302.8034465576172,347.4212341308594,300.3515465576172,347.54168813085937Q297.8996465576172,347.66214313085936,295.4566465576172,347.9027611308594Q293.0135465576172,348.1433801308594,290.5852465576172,348.5035841308594Q288.1570465576172,348.86378413085936,285.7493465576172,349.3427041308594Q283.3416465576172,349.8216241308594,280.9603465576172,350.4181041308594Q278.5790465576172,351.0145941308594,276.2298465576172,351.7272041308594Q273.88074655761716,352.4398041308594,271.5693465576172,353.2668241308594Q269.2579465576172,354.0938441308594,266.9899465576172,355.0332841308594Q264.7219465576172,355.9727141308594,262.5028465576172,357.02230413085937Q260.2836465576172,358.0719341308594,258.1186465576172,359.2291341308594Q255.9536465576172,360.3863341308594,253.84804655761718,361.6483341308594Q251.7424465576172,362.91043413085936,249.70134655761717,364.2742341308594Q247.6601465576172,365.6381341308594,245.6884465576172,367.10043413085936Q243.7166465576172,368.56283413085936,241.81904655761718,370.1202341308594Q239.9213465576172,371.6775341308594,238.10244655761718,373.3261341308594Q236.2835465576172,374.97473413085936,234.54764655761718,376.7105341308594Q232.81184655761717,378.44643413085936,231.16324655761719,380.2653341308594Q229.5146465576172,382.0842341308594,227.9573465576172,383.9819341308594Q226.3999465576172,385.8795341308594,224.9375465576172,387.85133413085936Q223.4752465576172,389.82303413085936,222.1113465576172,391.86423413085936Q220.7475465576172,393.9053341308594,219.4854465576172,396.01093413085937Q218.2234465576172,398.11653413085935,217.06624655761718,400.28153413085937Q215.9090465576172,402.4465341308594,214.85941655761718,404.6657341308594Q213.80982655761719,406.8849341308594,212.8703965576172,409.1528341308594Q211.93095655761718,411.42083413085936,211.10393655761717,413.7322341308594Q210.2769165576172,416.04363413085935,209.5643165576172,418.39273413085937Q208.85170655761718,420.74193413085936,208.2552165576172,423.1232341308594Q207.65873655761717,425.5045341308594,207.1798165576172,427.91223413085936Q206.7008965576172,430.3199341308594,206.34069655761718,432.7481341308594Q205.9804925576172,435.1764341308594,205.7398735576172,437.6195341308594Q205.49925555761718,440.0625341308594,205.37880055761718,442.5144341308594Q205.2583465576172,444.96633413085937,205.2583465576172,447.4212341308594Q205.2583465576172,449.87623413085936,205.37880055761718,452.32823413085936Q205.49925555761718,454.78023413085936,205.7398735576172,457.2232341308594Q205.9804925576172,459.6662341308594,206.34069655761718,462.0942341308594Q206.7008965576172,464.5222341308594,207.1798165576172,466.9302341308594Q207.65873655761717,469.3382341308594,208.2552165576172,471.7192341308594Q208.85170655761718,474.10023413085935,209.5643165576172,476.4492341308594Q210.2769165576172,478.79923413085936,211.10393655761717,481.11023413085934Q211.93095655761718,483.4212341308594,212.8703965576172,485.6892341308594Q213.80982655761719,487.9572341308594,214.85941655761718,490.17623413085937Q215.9090465576172,492.3962341308594,217.06624655761718,494.56123413085936Q218.2234465576172,496.7262341308594,219.4854465576172,498.83123413085934Q220.7475465576172,500.93723413085934,222.1113465576172,502.9782341308594Q223.4752465576172,505.0192341308594,224.9375465576172,506.99123413085937Q226.3999465576172,508.9632341308594,227.9573465576172,510.86023413085934Q229.5146465576172,512.7582341308594,231.16324655761719,514.5772341308593Q232.81184655761717,516.3962341308594,234.54764655761718,518.1322341308594Q236.2835465576172,519.8682341308594,238.10244655761718,521.5162341308594Q239.9213465576172,523.1652341308594,241.81904655761718,524.7222341308593Q243.7166465576172,526.2792341308593,245.6884465576172,527.7422341308594Q247.6601465576172,529.2042341308594,249.70134655761717,530.5682341308593Q251.7424465576172,531.9322341308593,253.84804655761718,533.1942341308594Q255.9536465576172,534.4562341308593,258.1186465576172,535.6132341308594Q260.2836465576172,536.7702341308593,262.5028465576172,537.8202341308594Q264.7220465576172,538.8692341308594,266.9899465576172,539.8092341308594Q269.2579465576172,540.7482341308594,271.5693465576172,541.5752341308594Q273.88074655761716,542.4022341308594,276.2298465576172,543.1152341308593Q278.5790465576172,543.8282341308594,280.9603465576172,544.4242341308593Q283.3416465576172,545.0212341308594,285.7493465576172,545.5002341308593Q288.1570465576172,545.9782341308594,290.5852465576172,546.3392341308594Q293.0135465576172,546.6992341308594,295.4566465576172,546.9392341308594Q297.8996465576172,547.1802341308594,300.3515465576172,547.3012341308594Q302.8034465576172,547.4212341308594,305.2583465576172,547.4212341308594ZM356.1703465576172,470.9132341308594Q356.78334655761716,470.9132341308594,357.3963465576172,470.88323413085936Q358.00934655761716,470.8532341308594,358.62034655761715,470.7932341308594Q359.2313465576172,470.7332341308594,359.83834655761723,470.64323413085935Q360.4453465576172,470.5532341308594,361.0473465576172,470.4332341308594Q361.64934655761715,470.31323413085937,362.2443465576172,470.16423413085937Q362.8393465576172,470.01523413085937,363.42734655761717,469.8372341308594Q364.01434655761716,469.6592341308594,364.5923465576172,469.4522341308594Q365.1703465576172,469.2452341308594,365.73734655761723,469.0102341308594Q366.3043465576172,468.7762341308594,366.8583465576172,468.51323413085936Q367.41334655761716,468.25123413085936,367.9553465576172,467.9612341308594Q368.4963465576172,467.67223413085935,369.0223465576172,467.3572341308594Q369.5493465576172,467.0412341308594,370.0593465576172,466.70023413085937Q370.5693465576172,466.35923413085936,371.06234655761716,465.99423413085935Q371.5553465576172,465.62823413085937,372.02934655761715,465.23923413085936Q372.50434655761717,464.8492341308594,372.9593465576172,464.4372341308594Q373.41334655761716,464.02523413085936,373.8473465576172,463.5912341308594Q374.2813465576172,463.15723413085936,374.6933465576172,462.7022341308594Q375.1063465576172,462.2482341308594,375.49534655761715,461.77323413085935Q375.88434655761716,461.29923413085936,376.25034655761715,460.80623413085937Q376.61534655761716,460.31323413085937,376.95634655761717,459.8032341308594Q377.2973465576172,459.29223413085936,377.6133465576172,458.7662341308594Q377.92834655761715,458.2402341308594,378.2183465576172,457.69823413085936Q378.5073465576172,457.15723413085936,378.76934655761715,456.60223413085936Q379.0323465576172,456.0482341308594,379.2673465576172,455.4812341308594Q379.5013465576172,454.91423413085937,379.7083465576172,454.3362341308594Q379.9153465576172,453.75823413085936,380.0933465576172,453.1712341308594Q380.2713465576172,452.5832341308594,380.4203465576172,451.9882341308594Q380.5703465576172,451.39323413085935,380.6893465576172,450.7912341308594Q380.8093465576172,450.1892341308594,380.89934655761715,449.5822341308594Q380.9893465576172,448.97523413085935,381.0493465576172,448.36423413085936Q381.1093465576172,447.75323413085937,381.1403465576172,447.1403341308594Q381.1703465576172,446.52733413085934,381.1703465576172,445.91363413085935Q381.1703465576172,445.29993413085936,381.1403465576172,444.68693413085936Q381.1093465576172,444.0740341308594,381.0493465576172,443.4632341308594Q380.9893465576172,442.85243413085936,380.89934655761715,442.2454341308594Q380.8093465576172,441.6383341308594,380.6893465576172,441.0364341308594Q380.5703465576172,440.43443413085936,380.4203465576172,439.8391341308594Q380.2713465576172,439.24383413085934,380.0933465576172,438.65653413085937Q379.9153465576172,438.0692341308594,379.7083465576172,437.4914341308594Q379.5013465576172,436.9135341308594,379.2673465576172,436.34653413085937Q379.0323465576172,435.77953413085936,378.76934655761715,435.2248341308594Q378.5073465576172,434.6700341308594,378.2183465576172,434.12873413085936Q377.92834655761715,433.58753413085935,377.6133465576172,433.0611341308594Q377.2973465576172,432.53473413085936,376.95634655761717,432.0244341308594Q376.61534655761716,431.51413413085936,376.25034655761715,431.02113413085937Q375.88434655761716,430.52823413085935,375.49534655761715,430.0538341308594Q375.1063465576172,429.57943413085934,374.6933465576172,429.1247341308594Q374.2813465576172,428.66993413085936,373.8473465576172,428.23603413085937Q373.41334655761716,427.8020341308594,372.9593465576172,427.3899341308594Q372.50434655761717,426.9777341308594,372.02934655761715,426.58843413085935Q371.5553465576172,426.1990341308594,371.06234655761716,425.83343413085936Q370.5693465576172,425.46793413085936,370.0593465576172,425.12693413085935Q369.5493465576172,424.78593413085935,369.0223465576172,424.47043413085936Q368.4963465576172,424.1549341308594,367.9553465576172,423.86563413085935Q367.41334655761716,423.5763341308594,366.8583465576172,423.31393413085937Q366.3043465576172,423.0515341308594,365.73734655761723,422.81663413085937Q365.1703465576172,422.58183413085936,364.5923465576172,422.3750341308594Q364.01434655761716,422.16833413085936,363.42734655761717,421.99013413085936Q362.8393465576172,421.8120341308594,362.2443465576172,421.6628341308594Q361.64934655761715,421.51373413085935,361.0473465576172,421.3940341308594Q360.4453465576172,421.27433413085936,359.83834655761723,421.1842341308594Q359.2313465576172,421.0942341308594,358.62034655761715,421.03403413085937Q358.00934655761716,420.9739341308594,357.3963465576172,420.9438341308594Q356.78334655761716,420.91363413085935,356.1703465576172,420.91363413085935Q355.5563465576172,420.91363413085935,354.9433465576172,420.9438341308594Q354.3303465576172,420.9739341308594,353.7193465576172,421.03403413085937Q353.1083465576172,421.0942341308594,352.5013465576172,421.1842341308594Q351.89434655761715,421.27433413085936,351.2923465576172,421.3940341308594Q350.6903465576172,421.51373413085935,350.0953465576172,421.6628341308594Q349.50034655761715,421.8120341308594,348.9123465576172,421.99013413085936Q348.3253465576172,422.16833413085936,347.7473465576172,422.3750341308594Q347.1703465576172,422.58183413085936,346.6033465576172,422.81663413085937Q346.0363465576172,423.0515341308594,345.4813465576172,423.31393413085937Q344.9263465576172,423.5763341308594,344.3853465576172,423.86563413085935Q343.8433465576172,424.1549341308594,343.31734655761716,424.47043413085936Q342.7913465576172,424.78593413085935,342.2803465576172,425.12693413085935Q341.7703465576172,425.46793413085936,341.2773465576172,425.83343413085936Q340.7843465576172,426.1990341308594,340.3103465576172,426.58843413085935Q339.8353465576172,426.9777341308594,339.3813465576172,427.3899341308594Q338.9263465576172,427.8020341308594,338.4923465576172,428.23603413085937Q338.0583465576172,428.66993413085936,337.6463465576172,429.1247341308594Q337.2343465576172,429.57943413085934,336.8443465576172,430.0538341308594Q336.4553465576172,430.52823413085935,336.0893465576172,431.02113413085937Q335.7243465576172,431.51413413085936,335.3833465576172,432.0244341308594Q335.0423465576172,432.53473413085936,334.72634655761715,433.0611341308594Q334.4113465576172,433.58753413085935,334.1223465576172,434.12873413085936Q333.8323465576172,434.6700341308594,333.5703465576172,435.2248341308594Q333.30734655761717,435.77953413085936,333.0733465576172,436.34653413085937Q332.8383465576172,436.9135341308594,332.6313465576172,437.4914341308594Q332.4243465576172,438.0692341308594,332.2463465576172,438.65653413085937Q332.0683465576172,439.24383413085934,331.9193465576172,439.8391341308594Q331.7703465576172,440.43443413085936,331.6503465576172,441.0364341308594Q331.5303465576172,441.6383341308594,331.4403465576172,442.2454341308594Q331.3503465576172,442.85243413085936,331.29034655761717,443.4632341308594Q331.23034655761717,444.0740341308594,331.2003465576172,444.68693413085936Q331.1703465576172,445.29993413085936,331.1703465576172,445.91363413085935Q331.1703465576172,446.52733413085934,331.2003465576172,447.1403341308594Q331.23034655761717,447.75323413085937,331.29034655761717,448.36423413085936Q331.3503465576172,448.97523413085935,331.4403465576172,449.5822341308594Q331.5303465576172,450.1892341308594,331.6503465576172,450.7912341308594Q331.7703465576172,451.39323413085935,331.9193465576172,451.9882341308594Q332.0683465576172,452.5832341308594,332.2463465576172,453.1712341308594Q332.4243465576172,453.75823413085936,332.6313465576172,454.3362341308594Q332.8383465576172,454.91423413085937,333.0733465576172,455.4812341308594Q333.30734655761717,456.0482341308594,333.5703465576172,456.60223413085936Q333.8323465576172,457.15723413085936,334.1223465576172,457.69823413085936Q334.4113465576172,458.2402341308594,334.72634655761715,458.7662341308594Q335.0423465576172,459.29223413085936,335.3833465576172,459.8032341308594Q335.7243465576172,460.31323413085937,336.0893465576172,460.80623413085937Q336.4553465576172,461.29923413085936,336.8443465576172,461.77323413085935Q337.2343465576172,462.2482341308594,337.6463465576172,462.7022341308594Q338.0583465576172,463.15723413085936,338.4923465576172,463.5912341308594Q338.9263465576172,464.02523413085936,339.3813465576172,464.4372341308594Q339.8353465576172,464.8492341308594,340.3103465576172,465.23923413085936Q340.7843465576172,465.62823413085937,341.2773465576172,465.99423413085935Q341.7703465576172,466.35923413085936,342.2803465576172,466.70023413085937Q342.7913465576172,467.0412341308594,343.31734655761716,467.3572341308594Q343.8433465576172,467.67223413085935,344.3853465576172,467.9612341308594Q344.9263465576172,468.25123413085936,345.4813465576172,468.51323413085936Q346.0363465576172,468.7762341308594,346.6033465576172,469.0102341308594Q347.1703465576172,469.2452341308594,347.7473465576172,469.4522341308594Q348.3253465576172,469.6592341308594,348.9123465576172,469.8372341308594Q349.50034655761715,470.01523413085937,350.0953465576172,470.16423413085937Q350.6903465576172,470.31323413085937,351.2923465576172,470.4332341308594Q351.89434655761715,470.5532341308594,352.5013465576172,470.64323413085935Q353.1083465576172,470.7332341308594,353.7193465576172,470.7932341308594Q354.3303465576172,470.8532341308594,354.9433465576172,470.88323413085936Q355.5563465576172,470.9132341308594,356.1703465576172,470.9132341308594Z" fill-rule="evenodd" fill="#323232" fill-opacity="1"/></g></g></g></svg>