<svg xmlns="http://www.w3.org/2000/svg" xmlns:xlink="http://www.w3.org/1999/xlink" fill="none" version="1.1" width="693.2236938476562" height="693.2236328125" viewBox="0 0 693.2236938476562 693.2236328125"><g transform="matrix(0.7071067690849304,-0.7071067690849304,0.7071067690849304,0.7071067690849304,-245.18310870458208,101.55821274684331)"><g><path d="M245.3662567138672,766.7413024902344L245.3662567138672,836.7413024902344Q239.35225671386718,836.7413024902344,233.3442567138672,836.4463024902343Q227.3372567138672,836.1513024902345,221.35225671386718,835.5613024902343Q215.3662567138672,834.9723024902344,209.41725671386718,834.0893024902343Q203.4682567138672,833.2073024902344,197.5692567138672,832.0333024902343Q191.6702567138672,830.8603024902344,185.8362567138672,829.3993024902344Q180.00225671386718,827.9373024902344,174.24625671386718,826.1913024902344Q168.4912567138672,824.4453024902343,162.82825671386718,822.4193024902344Q157.1652567138672,820.3933024902344,151.60925671386718,818.0913024902344Q146.0522567138672,815.7903024902344,140.61525671386718,813.2183024902344Q135.1782567138672,810.6473024902343,129.8742567138672,807.8123024902344Q124.57025671386718,804.9763024902344,119.41125671386719,801.8843024902344Q114.25225671386718,798.7923024902343,109.25125671386719,795.4513024902344Q104.25025671386719,792.1093024902343,99.4199567138672,788.5273024902344Q94.58915671386718,784.9443024902343,89.93995671386719,781.1283024902343Q85.29075671386718,777.3133024902344,80.8343567138672,773.2743024902344Q76.37795671386719,769.2353024902344,72.12505671386718,764.9823024902344Q67.87225671386719,760.7293024902344,63.833256713867186,756.2733024902343Q59.79415671386719,751.8163024902344,55.97865671386719,747.1673024902343Q52.16315671386719,742.5183024902344,48.580456713867186,737.6873024902344Q44.99765671386719,732.8563024902344,41.65615671386719,727.8563024902344Q38.31475671386719,722.8553024902344,35.222756713867184,717.6963024902343Q32.130756713867186,712.5373024902344,29.29555671386719,707.2333024902343Q26.46035671386719,701.9293024902344,23.888856713867188,696.4923024902344Q21.317356713867188,691.0553024902345,19.015756713867187,685.4983024902344Q16.714156713867187,679.9423024902344,14.687956713867187,674.2793024902344Q12.661756713867188,668.6163024902344,10.915856713867187,662.8613024902344Q9.169986713867187,657.1053024902344,7.708596713867188,651.2713024902343Q6.2472167138671875,645.4373024902344,5.073866713867187,639.5383024902344Q3.9005067138671876,633.6393024902344,3.0180067138671873,627.6903024902344Q2.1355167138671876,621.7413024902344,1.5459967138671875,615.7553024902344Q0.9564827138671875,609.7703024902344,0.6613697138671875,603.7623024902343Q0.3662567138671875,597.7553024902344,0.3662567138671875,591.7413024902344L70.36625671386719,591.7413024902344Q70.36625671386719,596.0373024902344,70.5770567138672,600.3283024902344Q70.78785671386719,604.6193024902343,71.20895671386718,608.8943024902344Q71.62995671386719,613.1693024902344,72.26035671386718,617.4193024902344Q72.89065671386719,621.6683024902344,73.72875671386718,625.8823024902345Q74.56685671386718,630.0953024902344,75.61075671386719,634.2623024902343Q76.6545567138672,638.4303024902345,77.90165671386718,642.5413024902343Q79.14875671386719,646.6523024902344,80.59595671386718,650.6973024902344Q82.0432567138672,654.7413024902344,83.68725671386719,658.7103024902344Q85.3313567138672,662.6793024902344,87.16805671386719,666.5633024902344Q89.00485671386718,670.4473024902344,91.03005671386718,674.2353024902344Q93.05515671386719,678.0243024902344,95.26375671386718,681.7093024902344Q97.47235671386719,685.3943024902344,99.85905671386719,688.9663024902344Q102.24625671386718,692.5383024902344,104.80525671386718,695.9883024902344Q107.36425671386719,699.4393024902344,110.08925671386719,702.7603024902344Q112.81525671386719,706.0813024902343,115.70025671386719,709.2643024902344Q118.58525671386718,712.4473024902344,121.62225671386719,715.4853024902344Q124.66025671386718,718.5223024902343,127.84325671386719,721.4073024902343Q131.02625671386718,724.2923024902343,134.34725671386718,727.0183024902344Q137.66825671386718,729.7433024902343,141.11925671386717,732.3023024902343Q144.5692567138672,734.8613024902344,148.1412567138672,737.2483024902344Q151.7132567138672,739.6353024902344,155.3982567138672,741.8433024902344Q159.0832567138672,744.0523024902343,162.8722567138672,746.0773024902344Q166.6602567138672,748.1023024902344,170.54425671386718,749.9393024902344Q174.4272567138672,751.7763024902345,178.3962567138672,753.4203024902343Q182.36525671386718,755.0643024902344,186.4102567138672,756.5113024902344Q190.4552567138672,757.9583024902344,194.56625671386718,759.2053024902343Q198.6772567138672,760.4523024902344,202.8442567138672,761.4963024902344Q207.01225671386717,762.5403024902344,211.2252567138672,763.3783024902343Q215.4392567138672,764.2163024902344,219.6882567138672,764.8473024902344Q223.9382567138672,765.4773024902344,228.2132567138672,765.8983024902343Q232.4882567138672,766.3193024902343,236.7792567138672,766.5303024902344Q241.0702567138672,766.7413024902344,245.3662567138672,766.7413024902344ZM420.3662567138672,591.7413024902344L490.3662567138672,591.7413024902344Q490.3662567138672,585.7273024902344,490.0712567138672,579.7193024902344Q489.7762567138672,573.7123024902344,489.1862567138672,567.7273024902344Q488.5972567138672,561.7413024902344,487.7142567138672,555.7923024902343Q486.8322567138672,549.8433024902344,485.65825671386716,543.9443024902343Q484.4852567138672,538.0453024902343,483.0242567138672,532.2113024902344Q481.5622567138672,526.3773024902343,479.8162567138672,520.6213024902344Q478.0702567138672,514.8663024902344,476.0442567138672,509.20330249023436Q474.0182567138672,503.54030249023435,471.7162567138672,497.98430249023437Q469.41525671386717,492.4273024902344,466.84325671386716,486.9903024902344Q464.2722567138672,481.5533024902344,461.4372567138672,476.2493024902344Q458.6012567138672,470.9453024902344,455.50925671386716,465.7863024902344Q452.4172567138672,460.62730249023434,449.07625671386717,455.62630249023437Q445.7352567138672,450.6253024902344,442.1522567138672,445.7949024902344Q438.56925671386716,440.9641024902344,434.75425671386716,436.3149024902344Q430.9382567138672,431.66570249023437,426.8992567138672,427.2093024902344Q422.8602567138672,422.75290249023436,418.6072567138672,418.5001024902344Q414.3542567138672,414.24730249023435,409.89825671386717,410.2082024902344Q405.4422567138672,406.1692024902344,400.7922567138672,402.35370249023435Q396.1432567138672,398.53820249023437,391.3122567138672,394.9554024902344Q386.4812567138672,391.3726024902344,381.4812567138672,388.03120249023436Q376.48025671386716,384.6898024902344,371.3212567138672,381.5977024902344Q366.1622567138672,378.5057024902344,360.8582567138672,375.67050249023436Q355.5542567138672,372.8354024902344,350.11725671386716,370.2639024902344Q344.6802567138672,367.6924024902344,339.1232567138672,365.39080249023436Q333.5672567138672,363.0891024902344,327.9042567138672,361.06290249023436Q322.2412567138672,359.03670249023435,316.4862567138672,357.2909024902344Q310.73025671386716,355.5449724902344,304.89625671386716,354.0835824902344Q299.0622567138672,352.6222024902344,293.1632567138672,351.4488524902344Q287.2642567138672,350.2754924902344,281.3152567138672,349.39299249023435Q275.3662567138672,348.5105024902344,269.3802567138672,347.9209824902344Q263.3952567138672,347.3314674902344,257.3882567138672,347.0363544902344Q251.3802567138672,346.74124145503436,245.3662567138672,346.74124145503436L245.3662567138672,416.7412024902344Q249.66225671386718,416.7412024902344,253.95325671386718,416.95200249023435Q258.2442567138672,417.16280249023436,262.5192567138672,417.5839024902344Q266.7942567138672,418.00500249023435,271.0442567138672,418.63540249023436Q275.2932567138672,419.2657024902344,279.5072567138672,420.1038024902344Q283.7202567138672,420.9419024902344,287.8872567138672,421.9858024902344Q292.0552567138672,423.02960249023437,296.1662567138672,424.27670249023436Q300.2772567138672,425.52370249023437,304.3222567138672,426.97100249023435Q308.36725671386716,428.4183024902344,312.3362567138672,430.0623024902344Q316.3052567138672,431.7063024902344,320.1882567138672,433.5431024902344Q324.0722567138672,435.3799024902344,327.8602567138672,437.4050024902344Q331.6492567138672,439.43020249023436,335.3342567138672,441.6387024902344Q339.0192567138672,443.84730249023437,342.5912567138672,446.23410249023436Q346.1632567138672,448.6203024902344,349.6132567138672,451.18030249023434Q353.06425671386717,453.73930249023437,356.3852567138672,456.4643024902344Q359.70625671386716,459.18930249023435,362.8892567138672,462.0753024902344Q366.0722567138672,464.96030249023437,369.1102567138672,467.99730249023435Q372.1472567138672,471.03530249023436,375.0322567138672,474.21830249023435Q377.9172567138672,477.40130249023434,380.6432567138672,480.72230249023437Q383.3682567138672,484.0433024902344,385.92725671386717,487.49430249023436Q388.4862567138672,490.94430249023435,390.8732567138672,494.51630249023435Q393.2602567138672,498.08830249023435,395.46825671386716,501.7733024902344Q397.67725671386717,505.45830249023436,399.7022567138672,509.24730249023435Q401.7272567138672,513.0353024902344,403.56425671386717,516.9193024902344Q405.4012567138672,520.8023024902344,407.04525671386716,524.7713024902343Q408.68925671386717,528.7403024902344,410.13625671386717,532.7853024902344Q411.5832567138672,536.8303024902343,412.83125671386716,540.9413024902344Q414.0782567138672,545.0523024902344,415.1212567138672,549.2193024902344Q416.16525671386717,553.3873024902343,417.0032567138672,557.6003024902344Q417.8412567138672,561.8143024902344,418.4722567138672,566.0633024902344Q419.1022567138672,570.3133024902344,419.52325671386717,574.5883024902344Q419.94425671386716,578.8633024902344,420.1552567138672,583.1543024902344Q420.3662567138672,587.4453024902343,420.3662567138672,591.7413024902344Z" fill-rule="evenodd" fill="#FD6250" fill-opacity="1"/></g><g><path d="M150.0000457763672,347.1070251464844L0.0000457763671875,347.1070251464844L0.0000457763671875,497.1070251464844L50.00004577636719,497.1070251464844L50.00004577636719,397.1070251464844L150.0000457763672,397.1070251464844L150.0000457763672,347.1070251464844Z" fill-rule="evenodd" fill="#969696" fill-opacity="1"/></g><g transform="matrix(-1,0,0,-1,980.0000915527344,1673.4826049804688)"><rect x="490.0000457763672" y="836.7413024902344" width="50" height="50.000003814697266" rx="0" fill="#969696" fill-opacity="1"/></g><g transform="matrix(-1,0,0,-1,980.0000915527344,1473.4826049804688)"><rect x="490.0000457763672" y="736.7413024902344" width="50" height="50.000003814697266" rx="0" fill="#969696" fill-opacity="1"/></g><g transform="matrix(-1,0,0,-1,780.0000915527344,1673.4826049804688)"><rect x="390.0000457763672" y="836.7413024902344" width="50" height="50.000003814697266" rx="0" fill="#969696" fill-opacity="1"/></g></g></svg>